/* XPM */
static char *close_pressed[] = {
/* columns rows colors chars-per-pixel */
"26 25 245 2 ",
"   c gray56",
".  c #CAC9C8",
"X  c gray76",
"o  c #606060",
"O  c #626262",
"+  c #AAAAA9",
"@  c #6D6D6D",
"#  c #8A8989",
"$  c #818181",
"%  c gray43",
"&  c #FEFEFC",
"*  c #9A9A9A",
"=  c gray40",
"-  c #5D5D5D",
";  c #B4B4B4",
":  c #5B5B5B",
">  c gray47",
",  c #CDCDCD",
"<  c #E4E4E4",
"1  c #EFEFEF",
"2  c #909091",
"3  c #F6F6F6",
"4  c gray95",
"5  c gray67",
"6  c gray87",
"7  c #C6C6C6",
"8  c #515151",
"9  c gray36",
"0  c gray39",
"q  c #808080",
"w  c #717171",
"e  c #585858",
"r  c DimGray",
"t  c #4E4E4E",
"y  c #D3D2D2",
"u  c #E5D6CD",
"i  c #E6D9CE",
"p  c #D1D0D0",
"a  c #DEDDDD",
"s  c #9E9C9C",
"d  c #676767",
"f  c gray51",
"g  c #ABAAAA",
"h  c #555555",
"j  c #CECECE",
"k  c #A3A2A2",
"l  c #949393",
"z  c #A32C0C",
"x  c gray65",
"c  c #464646",
"v  c #F5F0EC",
"b  c #484848",
"n  c #838383",
"m  c gray48",
"M  c #7B7B7B",
"N  c #8D8D8D",
"B  c #CCAF9F",
"V  c #7D1A06",
"C  c gray69",
"Z  c #665E5D",
"A  c #C9AD9E",
"S  c #6E5D5B",
"D  c #8C5A4A",
"F  c #9D3912",
"G  c #6A4640",
"H  c #9A3811",
"J  c #BAB9B9",
"K  c #797979",
"L  c #803122",
"P  c gray62",
"I  c #554240",
"U  c #6E4640",
"Y  c #9D2B0C",
"T  c #7E1705",
"R  c gray49",
"E  c gray80",
"W  c #B3B2B2",
"Q  c #C5C3C4",
"!  c #DAC6BD",
"~  c #864134",
"^  c #905232",
"/  c #AAA9A9",
"(  c gray38",
")  c #872F0E",
"_  c #656565",
"`  c #9A9999",
"'  c #E6E5E5",
"]  c #DADADA",
"[  c #777777",
"{  c #744436",
"}  c #828181",
"|  c #E7E7E7",
" . c #B0320E",
".. c #89503C",
"X. c #704036",
"o. c #6D6C6C",
"O. c #563E3A",
"+. c #8B1D07",
"@. c #EEE5DD",
"#. c #A9300D",
"$. c #E5E3E3",
"%. c #8B8B8B",
"&. c #626161",
"*. c #8E3110",
"=. c #9D9B9B",
"-. c #939191",
";. c #989797",
":. c #8F5B4A",
">. c #545353",
",. c #7F4637",
"<. c #C4C3C3",
"1. c #75514C",
"2. c #A2A1A1",
"3. c #A5A4A4",
"4. c #A06D63",
"5. c #EEEDED",
"6. c #673C35",
"7. c #7F270B",
"8. c #B38C7C",
"9. c #E1E1E1",
"0. c #C4A69B",
"q. c #94746F",
"w. c #F6F1ED",
"e. c #6B1A0B",
"r. c #C1C0C0",
"t. c #92280B",
"y. c #855548",
"u. c #6D2010",
"i. c #414141",
"p. c #A62F0D",
"a. c #865548",
"s. c #B9B9B9",
"d. c gray30",
"f. c #B9B8B8",
"g. c #881B07",
"h. c #DFDEDE",
"j. c #7D1F08",
"k. c #9F9FA0",
"l. c #D8D8D8",
"z. c gray81",
"x. c #79544E",
"c. c #5C5B5B",
"v. c #D9D8D8",
"b. c gray88",
"n. c #5C1D14",
"m. c #791B09",
"M. c gray77",
"N. c #8E8D8D",
"B. c gray66",
"V. c #7A1F0C",
"C. c #9D827E",
"Z. c gray35",
"A. c #B1B0B0",
"S. c #7C1705",
"D. c #9D9C9C",
"F. c #891C06",
"G. c #641504",
"H. c #696868",
"J. c #BCBCBC",
"K. c #80706E",
"L. c gray60",
"P. c #807D7D",
"I. c gray75",
"U. c #5F5F5F",
"Y. c #967067",
"T. c #793929",
"R. c #713327",
"E. c #A0786A",
"W. c #C7BCBA",
"Q. c gray86",
"!. c #E5E4E4",
"~. c #5F5E5E",
"^. c #7D635F",
"/. c #731D07",
"(. c #8B472E",
"). c #782F25",
"_. c #805046",
"`. c #B2938A",
"'. c #888787",
"]. c #848282",
"[. c #701504",
"{. c #943310",
"}. c #902309",
"|. c #774436",
" X c #7A1E08",
".X c #B94215",
"XX c #743329",
"oX c #791906",
"OX c #692F27",
"+X c #C5C5C5",
"@X c #444444",
"#X c #854121",
"$X c gray85",
"%X c #AFAFAF",
"&X c #C5C4C5",
"*X c #761906",
"=X c #874422",
"-X c #701805",
";X c #733228",
":X c #E4E3E3",
">X c #7A4A44",
",X c #A0A0A0",
"<X c gray73",
"1X c #A09F9F",
"2X c #616060",
"3X c #AEADAD",
"4X c #DDCABE",
"5X c #7E2309",
"6X c gray89",
"7X c #B1B1B1",
"8X c #7F3D34",
"9X c #5F2F24",
"0X c #862009",
"qX c #604D4A",
"wX c #992008",
"eX c #961E07",
"rX c #6A1A0C",
"tX c #E0DFDF",
"yX c #A9A9A9",
"uX c #A1A0A0",
"iX c #93290B",
"pX c #979696",
"aX c #E9E8E8",
"sX c #5E5554",
"dX c #93543D",
"fX c gray27",
"gX c #8B250A",
"hX c #8D8C8C",
"jX c #878585",
"kX c #B3ACAB",
"lX c #929292",
"zX c #782C20",
"xX c #831B06",
"cX c #E9E9E9",
"vX c #434242",
"bX c #B4B3B3",
"nX c #63160A",
"mX c gray90",
"MX c #A7827C",
"NX c #6E2112",
"BX c #A62D0C",
"VX c #A7A7A7",
"CX c #AB3B12",
"ZX c #7C7C7C",
"AX c #A8775F",
/* pixels */
"X X X X X X X X X X X X X X X X X X X X X X X X X X ",
"                                                    ",
"O O O O O O O O O O O O O O O O O O O O O O O O O O ",
"o o o o o o o o o o o o o o o o o o o o o o o o o o ",
"@ @ @ @ @ @ @ @ @ @ @ @ @ = = = r @ @ @ @ @ @ @ @ @ ",
"$ $ $ $ $ $ $ $ $ $ K 0 h 8 8 8 8 2X[ q $ $ $ $ $ $ ",
"* * * * * * * * * m 9 9 9 sXqXc.~.@ ZX%.L.* * * * * ",
"; ; ; ; ; ; ; ; f d d G NXoXV *XR.K.lX1Xg bX; ; ; ; ",
", , , , , , , ,Xw w OX-X0XBX#.t.j.e.C.f.r.+XE , , , ",
"< < < < < < l.R M U 9Xy.:.{.F ..D { u.W.p y ] < < < ",
"4 4 4 4 4 4 7X$ P.rX|.& & AX^ v & E./.4.a a h.1 4 4 ",
"3 3 3 3 3 3   n ^.xX5X8.& w.i & A *.Y L ' :X$.5.3 3 ",
"1 1 1 1 1 cXq q x.+. .H B & & i =X.Xp.m.| mX!.aX1 1 ",
"6 6 6 6 6 j > > 1.F.z ) u & & @.#XCXz V.6X9.b.tX6 6 ",
"7 7 7 7 7 J.% % S T  X0.& u 4X& ! 7.}.~ Q.$Xv.y 7 7 ",
"5 5 5 5 5 yX_ 0 0 n.Y.& & dX(.v & `.G.MXp z.j I.5 5 ",
"2 2 2 2 2 2 r e e I 6._.,.gXiXT.a.X.XXQ &XM.<.k.2 2 ",
"> > > > > > r t t t O.nXS.eXwXg.[.;XkX<XJ s.W m > > ",
"= = = = = = = d.c c b Z >X).zX8Xq.g 3X%XC A.f = = = ",
": : : : : : : e @Xi.vX>.o.].l ` P k x B./ N : : : : ",
"- - - - - - - - Z.b fXh H.M N.;.D.uX3.VXN U.- - - - ",
"% % % % % % % % % @ ( &.w } -.s 2.x k n % % % % % % ",
"# # # # # # # # # # # '.jXhXpX=.s l # # # # # # # # ",
"+ + + + + + + + + + + + + + + + + + + + + + + + + + ",
". . . . . . . . . . . . . . . . . . . . . . . . . . "
};
