/* XPM */
static char *close_prelight[] = {
/* columns rows colors chars-per-pixel */
"26 25 251 2 ",
"   c gray56",
".  c #AAAAA9",
"X  c #606060",
"o  c #626262",
"O  c gray76",
"+  c #CAC9C8",
"@  c #6D6D6D",
"#  c #8A8989",
"$  c gray43",
"%  c #818181",
"&  c #9A9A9A",
"*  c gray40",
"=  c #5B5B5B",
"-  c #B4B4B4",
";  c #5D5D5D",
":  c #CDCDCD",
">  c gray47",
",  c #E4E4E4",
"<  c #909091",
"1  c gray95",
"2  c #F6F6F6",
"3  c #EFEFEF",
"4  c gray87",
"5  c gray67",
"6  c #C6C6C6",
"7  c #420101",
"8  c #515151",
"9  c gray36",
"0  c DimGray",
"q  c #4E4E4E",
"w  c #808080",
"e  c #585858",
"r  c gray39",
"t  c #290101",
"y  c #717171",
"u  c #D1D0D0",
"i  c #8D8D8D",
"p  c #A3A2A2",
"a  c #676767",
"s  c #ABAAAA",
"d  c #9E9C9C",
"f  c #CECECE",
"g  c #949393",
"h  c #452020",
"j  c gray65",
"k  c #DEDDDD",
"l  c #D3D2D2",
"z  c #B29494",
"x  c #838383",
"c  c #464646",
"v  c #7B7B7B",
"b  c gray48",
"n  c gray51",
"m  c #555555",
"M  c #AE8787",
"N  c #484848",
"B  c #340101",
"V  c #2F0101",
"C  c gray89",
"Z  c #2D0F0F",
"A  c gray49",
"S  c #AFAFAF",
"D  c #E5E3E3",
"F  c #D8D8D8",
"G  c #3E1E1D",
"H  c #290908",
"J  c #8D8C8C",
"K  c #2B0403",
"L  c #331515",
"P  c #5F5E5E",
"I  c #976C6C",
"U  c #665E5E",
"Y  c #605D5D",
"T  c #400101",
"R  c #946969",
"E  c #9D9B9B",
"W  c gray62",
"Q  c #3D2525",
"!  c #545353",
"~  c #392423",
"^  c #37201F",
"/  c #CBB5B5",
"(  c #2C0101",
")  c #4B3131",
"_  c #878585",
"`  c #310101",
"'  c #B99999",
"]  c gray75",
"[  c #828181",
"{  c #3A2626",
"}  c #B99A9A",
"|  c #A09F9F",
" . c #B69292",
".. c #BF9E9E",
"X. c #471615",
"o. c #616060",
"O. c #754343",
"+. c #656565",
"@. c #4E4141",
"#. c #C0A2A2",
"$. c #E1E1E1",
"%. c gray60",
"&. c #512A2A",
"*. c #A7A7A7",
"=. c gray90",
"-. c #E5E4E4",
";. c #E9E9E9",
":. c #2A1413",
">. c #C4A3A3",
",. c #350101",
"<. c #C9ABAB",
"1. c #989797",
"2. c #9F9FA0",
"3. c #565353",
"4. c #6A3F3F",
"5. c gray30",
"6. c #8B8B8B",
"7. c #BEBABA",
"8. c #2E0807",
"9. c #939191",
"0. c #4A2A2A",
"q. c #402929",
"w. c #C4C3C4",
"e. c #797979",
"r. c #514343",
"t. c gray69",
"y. c #777777",
"u. c #C1C0C0",
"i. c #B3B2B2",
"p. c #2B0605",
"a. c #3F0101",
"s. c gray35",
"d. c #C5C4C5",
"f. c #4F0808",
"g. c #280201",
"h. c #444444",
"j. c #473333",
"k. c #4E0808",
"l. c #A1A0A0",
"z. c #A0A0A0",
"x. c #CAAFAF",
"c. c #414141",
"v. c gray88",
"b. c #433C3C",
"n. c #390101",
"m. c #877D7D",
"M. c #DADADA",
"N. c #736E6D",
"B. c #BB9A9A",
"V. c #480101",
"C. c #7C7C7C",
"Z. c #7D7C7C",
"A. c #786F6F",
"S. c #5F5F5F",
"D. c #BE9E9E",
"F. c #504A4A",
"G. c #877B7B",
"H. c #C5A4A4",
"J. c #E0DFDF",
"K. c gray73",
"L. c gray85",
"P. c #A9A9A9",
"I. c gray27",
"U. c #260101",
"Y. c #979696",
"T. c #BB9999",
"R. c #BCBCBC",
"E. c #522A2A",
"W. c #6D6C6C",
"Q. c #440101",
"!. c gray80",
"~. c #4B3F3F",
"^. c #382121",
"/. c #765252",
"(. c #480606",
"). c #582B2A",
"_. c #9A9999",
"`. c #5B3E3E",
"'. c #3E2928",
"]. c #A07777",
"[. c #B9B8B8",
"{. c #C7ABAB",
"}. c #370101",
"|. c #5B2B2A",
" X c #A2A1A1",
".X c #490606",
"XX c #626161",
"oX c #594D4D",
"OX c #929292",
"+X c #E7E7E7",
"@X c #DFDEDE",
"#X c #BA9A9A",
"$X c #9D9C9C",
"%X c #B1B1B1",
"&X c #E4E3E3",
"*X c #ADABAB",
"=X c #EEEDED",
"-X c #500606",
";X c #3F0201",
":X c gray86",
">X c #3E0101",
",X c gray77",
"<X c gray66",
"1X c #5E2424",
"2X c #C5C5C5",
"3X c #B1B0B0",
"4X c #434242",
"5X c #2F0C0B",
"6X c #B4B3B3",
"7X c #4B0606",
"8X c #BAB9B9",
"9X c #250101",
"0X c #564B4B",
"qX c #C19F9F",
"wX c #A5A4A4",
"eX c #4A2020",
"rX c #320101",
"tX c #5F5B5B",
"yX c #B59999",
"uX c #5F2A2A",
"iX c #A88080",
"pX c #550909",
"aX c #AAA9A9",
"sX c #2B0101",
"dX c #2E0101",
"fX c #C9AFAF",
"gX c #582323",
"hX c gray38",
"jX c #C4C3C3",
"kX c #3E2020",
"lX c #E6E5E5",
"zX c #885E5D",
"xX c #474241",
"cX c #AEADAD",
"vX c #848282",
"bX c #562020",
"nX c #3C0101",
"mX c #551C1C",
"MX c #280101",
"NX c #696868",
"BX c #230807",
"VX c #581C1C",
"CX c #756261",
"ZX c #8E8D8D",
"AX c #B9B9B9",
"SX c gray81",
"DX c #E9E8E8",
"FX c #D9D8D8",
"GX c #888787",
"HX c #300101",
"JX c #7C4C4C",
/* pixels */
"O O O O O O O O O O O O O O O O O O O O O O O O O O ",
"                                                    ",
"o o o o o o o o o o o o o o o o o o o o o o o o o o ",
"X X X X X X X X X X X X X X X X X X X X X X X X X X ",
"@ @ @ @ @ @ @ @ @ @ @ @ @ * * * 0 @ @ @ @ @ @ @ @ @ ",
"% % % % % % % % % % e.r m 8 8 8 8 o.y.w % % % % % % ",
"& & & & & & & & & b 9 9 9 3.F.= P @ C.6.%.& & & & & ",
"- - - - - - - - n a a ~.Z t sXg.Q N.OX| s 6X- - - - ",
": : : : : : : z.y y { t ,.7 Q.nX` p.m.[.u.2X!.: : : ",
", , , , , , F A v @.L E.|.7Xk.gX).h 5X7.u l M., , , ",
"1 1 1 1 1 1 %X% Z.H h } ..O.uXT.D.4.V CXk k @X3 1 1 ",
"2 2 2 2 2 2   x U ( n.JX>.#.z {.R (.>XG lX&XD =X2 2 ",
"3 3 3 3 3 ;.w w oXHXV.f.I fX/ z bXpX7 K +X=.-.DX3 3 ",
"4 4 4 4 4 f > > 0XdX7 .XM <.x.' mX-XT 8.C $.v.J.4 4 ",
"6 6 6 6 6 R.$ $ tXMXB zXqXM iXH.].;X}.) :XL.FXl 6 6 ",
"5 5 5 5 5 P.+.r r :.`.yXB.1XVX .#X/.U.G.u SXf ] 5 5 ",
"< < < < < < 0 e e xX^.0.eXa.7 X.&.kXq.w.d.,XjX2.< < ",
"> > > > > > 0 q q q b.BXt rXB V 9X'.*XK.8XAXi.b > > ",
"* * * * * * * 5.c c N Y r.~ ^ j.A.s cXS t.3Xn * * * ",
"= = = = = = = e h.c.4X! W.vXg _.W p j <XaXi = = = = ",
"; ; ; ; ; ; ; ; s.N I.m NXv ZX1.$Xl.wX*.i S.; ; ; ; ",
"$ $ $ $ $ $ $ $ $ @ hXXXy [ 9.d  Xj p x $ $ $ $ $ $ ",
"# # # # # # # # # # # GX_ J Y.E d g # # # # # # # # ",
". . . . . . . . . . . . . . . . . . . . . . . . . . ",
"+ + + + + + + + + + + + + + + + + + + + + + + + + + "
};
