/* XPM */
static char *close_inactive[] = {
/* columns rows colors chars-per-pixel */
"26 25 256 2 ",
"   c #5F5F5F",
".  c #75514A",
"X  c gray27",
"o  c gray56",
"O  c #626262",
"+  c #AAAAA9",
"@  c gray76",
"#  c #606060",
"$  c #CAC9C8",
"%  c #6D6D6D",
"&  c #8A8989",
"*  c #818181",
"=  c gray43",
"-  c #9A9A9A",
";  c gray40",
":  c #B4B4B4",
">  c #5B5B5B",
",  c #5D5D5D",
"<  c #CDCDCD",
"1  c gray47",
"2  c #E4E4E4",
"3  c #EFEFEF",
"4  c #909091",
"5  c #F6F6F6",
"6  c gray95",
"7  c #C6C6C6",
"8  c gray87",
"9  c gray67",
"0  c #515151",
"q  c #585858",
"w  c #4E4E4E",
"e  c #808080",
"r  c DimGray",
"t  c #717171",
"y  c gray39",
"u  c gray36",
"i  c #D3D2D2",
"p  c #A3A2A2",
"a  c gray51",
"s  c #484848",
"d  c #8D8D8D",
"f  c #7B7B7B",
"g  c #D1D0D0",
"h  c #ABAAAA",
"j  c #9E9C9C",
"k  c #CECECE",
"l  c #838383",
"z  c gray65",
"x  c #555555",
"c  c #DEDDDD",
"v  c #464646",
"b  c #949393",
"n  c gray48",
"m  c #BD947A",
"M  c #676767",
"N  c #B98C76",
"B  c #46261F",
"V  c #997166",
"C  c #9F9FA0",
"Z  c #795C56",
"A  c #706766",
"S  c #E9E8E8",
"D  c #7D7776",
"F  c #AFAFAF",
"G  c #95685C",
"H  c #704E47",
"J  c #69433A",
"K  c #BA8E78",
"L  c #7F594F",
"P  c #462924",
"I  c #544C4A",
"U  c #B98E81",
"Y  c #45241D",
"T  c #828181",
"R  c #A77B70",
"E  c #A49997",
"W  c #A2A1A1",
"Q  c #888787",
"!  c #B3B2B2",
"~  c #7F7D7D",
"^  c #B28374",
"/  c #B38576",
"(  c #E1E1E1",
")  c #A37568",
"_  c #696868",
"`  c #B4897E",
"'  c #60524F",
"]  c #795046",
"[  c #9D7971",
"{  c #B1877E",
"}  c #B68A75",
"|  c #929292",
" . c #B68877",
".. c #55322B",
"X. c #A87F72",
"o. c #C5C5C5",
"O. c #AF8575",
"+. c #BCBCBC",
"@. c #797979",
"#. c gray49",
"$. c #A0817B",
"%. c gray73",
"&. c #6D6C6C",
"*. c #927875",
"=. c #B88C7C",
"-. c #E5E4E4",
";. c #D9D8D8",
":. c #AEADAD",
">. c gray77",
",. c #BB907B",
"<. c #A1A0A0",
"1. c #BC8E7F",
"2. c gray86",
"3. c #BE9379",
"4. c #BC8E78",
"5. c #513D39",
"6. c #7C5A53",
"7. c #A9A9A9",
"8. c #A07971",
"9. c #B9B8B8",
"0. c #967C78",
"q. c #414141",
"w. c #666160",
"e. c #9F7363",
"r. c #B58574",
"t. c #534C4C",
"y. c #A0A0A0",
"u. c #B98E80",
"i. c #B98C77",
"p. c #C6C5C5",
"a. c #7E5750",
"s. c #595656",
"d. c #56504F",
"f. c #7D5F5A",
"g. c #A57F77",
"h. c #9C8582",
"j. c #9D7368",
"k. c #BF997C",
"l. c #777777",
"z. c #BFB2B0",
"x. c #916658",
"c. c #989797",
"v. c #594440",
"b. c #A18985",
"n. c #979696",
"m. c #A98F89",
"M. c #BBAAA6",
"N. c #B08571",
"B. c #A57A68",
"V. c #545353",
"C. c #AAA9A9",
"Z. c #939191",
"A. c #9F807A",
"S. c #8B8B8B",
"D. c #C4C3C3",
"F. c #A87A6E",
"G. c #B0816F",
"H. c #DFDEDE",
"J. c #B8B4B4",
"K. c #626161",
"L. c #9D9B9B",
"P. c #9D9C9C",
"I. c #91685B",
"U. c #90685E",
"Y. c #8A625B",
"T. c #89645C",
"R. c #827170",
"E. c #8E675E",
"W. c #643E35",
"Q. c gray90",
"!. c gray89",
"~. c #B48874",
"^. c #845B53",
"/. c #B78875",
"(. c #B4B3B3",
"). c #B68B76",
"_. c #9E7062",
"`. c gray60",
"'. c #848282",
"]. c #AF8270",
"[. c #878585",
"{. c #AD8175",
"}. c #656565",
"|. c #A5A4A4",
" X c #724A3F",
".X c #A19796",
"XX c #B3887B",
"oX c #B58A79",
"OX c #B98B7A",
"+X c #616060",
"@X c gray38",
"#X c gray75",
"$X c #9A7C77",
"%X c #CBC6C6",
"&X c #E7E7E7",
"*X c #A48C88",
"=X c #BAB9B9",
"-X c #8E8D8D",
";X c gray62",
":X c #C1C0C0",
">X c #492720",
",X c #482922",
"<X c #B78C80",
"1X c #A09F9F",
"2X c #896760",
"3X c #8D6962",
"4X c #D8D8D8",
"5X c #AC9590",
"6X c gray80",
"7X c gray85",
"8X c #E6E5E5",
"9X c #584C4A",
"0X c gray81",
"qX c #C5C4C5",
"wX c #BB9178",
"eX c gray69",
"rX c #B1B0B0",
"tX c #B1B1B1",
"yX c #665A58",
"uX c #E0DFDF",
"iX c #E5E3E3",
"pX c #A7A7A7",
"aX c gray88",
"sX c #9A9999",
"dX c #DADADA",
"fX c #BD907E",
"gX c #BD937A",
"hX c #966B5C",
"jX c #BA8D77",
"kX c #BC8F7A",
"lX c #E9E9E9",
"zX c #635756",
"xX c #563D39",
"cX c #7F5A53",
"vX c #8D8C8C",
"bX c #6C453A",
"nX c gray35",
"mX c #A07B71",
"MX c #B9B9B9",
"NX c #BB8F79",
"BX c #43241D",
"VX c gray30",
"CX c #E4E3E3",
"ZX c #BD9279",
"AX c #646161",
"SX c #7C7C7C",
"DX c #9E7262",
"FX c #7E544B",
"GX c #452C27",
"HX c #B58675",
"JX c #7B5C56",
"KX c #EEEDED",
"LX c #434242",
"PX c #BE957A",
"IX c #BE947A",
"UX c #8C6359",
/* pixels */
"@ @ @ @ @ @ @ @ @ @ @ @ @ @ @ @ @ @ @ @ @ @ @ @ @ @ ",
"o o o o o o o o o o o o o o o o o o o o o o o o o o ",
"O O O O O O O O O O O O O O O O O O O O O O O O O O ",
"# # # # # # # # # # # # # # # # # # # # # # # # # # ",
"% % % % % % % % % % % % % ; ; ; r % % % % % % % % % ",
"* * * * * * * * * * @.y x 0 0 0 0 +Xl.e * * * * * * ",
"- - - - - - - - - n u u u s.d.>   % SXS.`.- - - - - ",
": : : : : : : : a M M 9XGXBXB ,Xv.D | 1Xh (.: : : : ",
"< < < < < < < y.t t 5.Y W.UXj.V T.Z .X9.:Xo.6X< < < ",
"2 2 2 2 2 2 4X#.f ' >XU.XX=.oXO.X.mX$X%Xg i dX2 2 2 ",
"6 6 6 6 6 6 tX* ~ P E.u.fX,.K ~.B.I.[ M.c c H.3 6 6 ",
"5 5 5 5 5 5 o l A ..` 1.kXgXm wXN.hXL m.8XCXiXKX5 5 ",
"3 3 3 3 3 lXe e yX. U OXNXIXk.m ).e. XA.&XQ.-.S 3 3 ",
"8 8 8 8 8 k 1 1 zXcX<X .i.3.PXZX} DXbX$.!.( aXuX8 8 ",
"7 7 7 7 7 +.= = w.H { / /.jX4.N ].x.J 5X2.7X;.i 7 7 ",
"9 9 9 9 9 7.}.y y xXg.{.^ HXr.G._.] 6.z.g 0Xk #X9 9 ",
"4 4 4 4 4 4 r q q t.JX8.R F.) G FX. *Xp.qX>.D.C 4 4 ",
"1 1 1 1 1 1 r w w w I f.3XY.^.a.2Xb.J.%.=XMX! n 1 1 ",
"; ; ; ; ; ; ; VXv v s AXR.*.0.h.E h :.F eXrXa ; ; ; ",
"> > > > > > > q X q.LXV.&.'.b sX;Xp z 7.C.d > > > > ",
", , , , , , , , nXs X x _ f -Xc.P.<.|.pXd   , , , , ",
"= = = = = = = = = % @XK.t T Z.j W z p l = = = = = = ",
"& & & & & & & & & & & Q [.vXn.L.j b & & & & & & & & ",
"+ + + + + + + + + + + + + + + + + + + + + + + + + + ",
"$ $ $ $ $ $ $ $ $ $ $ $ $ $ $ $ $ $ $ $ $ $ $ $ $ $ "
};
