/* XPM */
static char *close_active[] = {
/* columns rows colors chars-per-pixel */
"26 25 102 2 ",
"   c #3E0808",
".  c #4D0302",
"X  c #490C0C",
"o  c #530201",
"O  c #5D0201",
"+  c #520A0A",
"@  c #401414",
"#  c #511615",
"$  c #5F1E1E",
"%  c #630201",
"&  c #6A0201",
"*  c #720101",
"=  c #7C0202",
"-  c #781616",
";  c #4E2222",
":  c #522424",
">  c #5D2020",
",  c #542929",
"<  c #58292A",
"1  c #4B3C3C",
"2  c #5A3333",
"3  c #573F3F",
"4  c #6C2020",
"5  c #6A2A2A",
"6  c #752020",
"7  c #782A2A",
"8  c #653131",
"9  c #793F3E",
"0  c #444444",
"q  c #4D4242",
"w  c #4C4C4C",
"e  c #5D4242",
"r  c #554A4A",
"t  c #535252",
"y  c #595353",
"u  c #5C5C5C",
"i  c #624C4C",
"p  c #625C5C",
"a  c #6E5E5E",
"s  c #626262",
"d  c #6D6D6D",
"f  c #786E6E",
"g  c #727272",
"h  c #797979",
"j  c #840201",
"k  c #8F0201",
"l  c #8F0C0C",
"z  c #930C0C",
"x  c #9D1210",
"c  c #A00E0E",
"v  c #AB1312",
"b  c #8B2C2C",
"n  c #9C2323",
"m  c #912828",
"M  c #9D2929",
"N  c #A02E2D",
"B  c #A43535",
"V  c #AA3F3F",
"C  c #96403F",
"Z  c #995252",
"A  c #B35151",
"S  c #B55F5E",
"D  c #886262",
"F  c #816F6F",
"G  c #927C7C",
"H  c #CB7776",
"J  c #D17D7D",
"K  c #818181",
"L  c #888787",
"P  c #8D8D8D",
"I  c #929192",
"U  c #989797",
"Y  c #9B9A9A",
"T  c #A09F9F",
"R  c #9F9FA0",
"E  c #A4A3A3",
"W  c #AAAAAA",
"Q  c #B3B3B3",
"!  c #BBBBBB",
"~  c #DF8F8F",
"^  c #DE9696",
"/  c #D19A99",
"(  c #DA9B9B",
")  c #E19393",
"_  c #C1BABA",
"`  c #E5A3A3",
"'  c #EAA4A3",
"]  c #ECAEAD",
"[  c #F1AEAE",
"{  c #F2B5B5",
"}  c #F6BDBD",
"|  c #F8BEBE",
" . c #C3C3C3",
".. c #CBCACA",
"X. c #D2D1D1",
"o. c #DDDCDC",
"O. c #F9C6C5",
"+. c #E0DFDF",
"@. c #FDD1D1",
"#. c #E4E4E4",
"$. c #EEEEEE",
"%. c #F4F4F4",
/* pixels */
" . . . . . . . . . . . . . . . . . . . . . . . . . .",
"P I P P P I P P I P P I P P I P P I P I P P I P P P ",
"s s s s s s s s s s s s s s s s s s s s s s s s s s ",
"s u s s u s s s u s s u s s u s u s s u s s u s s u ",
"d d d d d d d d d d d d d s d s d d d d d d d d d d ",
"K K K K K K K K K K h s t t t t t s g K K K K K K K ",
"U Y U Y Y Y Y Y U h s u u y w u p d h L U Y Y Y Y Y ",
"Q Q Q Q Q Q Q Q K d s 3 X o o . : f U E W Q Q Q Q Q ",
"..X...X.......E d g : . & j j = O . G !  . .....X...",
"#.#.#.#.#.#.o.h h e # 7 b z x m b 4 + ! X.X.o.#.#.#.",
"%.%.%.%.%.%.Q K h X 4 ( ` A V ` ` C O D o.+.+.$.%.%.",
"%.%.%.%.%.%.P K a o * A [ { ] } H l = $ #.#.#.$.%.%.",
"$.$.$.$.$.$.h K i O k x J O.@.] B v j + #.#.#.#.$.$.",
"+.+.+.+.+.X.h h i O j z ) | O.] M c j + #.#.#.+.o.+.",
".. . .....! d d p o & S ' ) ~ [ J j & 8 o.o.o.X. ...",
"W W W W W W s s s @ 9 / ( M n ^ ( Z . G X..... .W W ",
"I I I P I I d t u q ; 5 6 = j - 7 > <  . . . .T I I ",
"h h h h h g d w w w 1   o % & O . , W ! _ ! Q h h h ",
"s s s d s s s w 0 0 w s e : ; 2 f W W W Q Q K s s s ",
"u u u u u u u u 0 0 0 t d K I U T E W W W I u u u u ",
"u u u u s u u u u 0 0 t d h P U Y E E W L s u u p u ",
"g d g d d d d g d d s s d K I R E E E K d d d d d d ",
"L P L L P L P L L L L L L P I Y Y I L L P L P L L L ",
"W W W W W W W W W W W W W W W W W W W W W W W W W W ",
".. ......... ......... ................. ..........."
};
