/* XPM */
static char *hide_active[] = {
/* columns rows colors chars-per-pixel */
"27 25 256 2 ",
"   c #022D88",
".  c #012679",
"X  c #011969",
"o  c gray56",
"O  c #626262",
"+  c #606060",
"@  c #AAAAA9",
"#  c gray76",
"$  c #CAC9C8",
"%  c #6D6D6D",
"&  c #8A8989",
"*  c gray43",
"=  c #818181",
"-  c #9A9A9A",
";  c gray40",
":  c #B4B4B4",
">  c #5D5D5D",
",  c #5B5B5B",
"<  c #CDCDCD",
"1  c gray47",
"2  c #E4E4E4",
"3  c #EFEFEF",
"4  c #909091",
"5  c gray95",
"6  c #F6F6F6",
"7  c #C6C6C6",
"8  c gray87",
"9  c gray67",
"0  c #515151",
"q  c #585858",
"w  c #717171",
"e  c gray36",
"r  c gray39",
"t  c DimGray",
"y  c #4E4E4E",
"u  c #808080",
"i  c #676767",
"p  c #CECECE",
"a  c gray51",
"s  c #011C6A",
"d  c #DEDDDD",
"f  c #D1D0D0",
"g  c #9E9C9C",
"h  c #ABAAAA",
"j  c gray65",
"k  c #464646",
"l  c #D3D2D2",
"z  c #484848",
"x  c #A3A2A2",
"c  c #7B7B7B",
"v  c #8D8D8D",
"b  c #456F9D",
"n  c #555555",
"m  c #838383",
"M  c gray48",
"N  c #949393",
"B  c #E0DFDF",
"V  c #444444",
"C  c #011C69",
"Z  c #5B5D6A",
"A  c #828181",
"S  c #696868",
"D  c #848282",
"F  c #02359F",
"G  c #022A81",
"H  c #7C7D80",
"J  c #C5C4C5",
"K  c #3F4662",
"L  c #023EA7",
"P  c #8D8C8C",
"I  c #023DA5",
"U  c #023295",
"Y  c #091A5E",
"T  c #033B9E",
"R  c #656565",
"E  c #C1C0C0",
"W  c #2C3A70",
"Q  c #023A9E",
"!  c #273462",
"~  c gray62",
"^  c #A09F9F",
"/  c #071F63",
"(  c #444B6E",
")  c #9A9999",
"_  c #A2A1A1",
"`  c #464958",
"'  c #B3B2B2",
"]  c #E6E5E5",
"[  c #D9D8D8",
"{  c #122653",
"}  c #0236A3",
"|  c #C5C5C5",
" . c #8B8B8B",
".. c #6E717C",
"X. c #5F5F5F",
"o. c #023898",
"O. c #202D66",
"+. c #041860",
"@. c #0345AD",
"#. c #ABACB1",
"$. c #0466D6",
"%. c #BCCDDE",
"&. c #E9E8E8",
"*. c #A7A7A7",
"=. c #034891",
"-. c #012267",
";. c #AEADAD",
":. c #012280",
">. c gray81",
",. c gray77",
"<. c #455D87",
"1. c gray69",
"2. c #B1B1B1",
"3. c #DADADA",
"4. c #023AA7",
"5. c #304072",
"6. c #0354C3",
"7. c gray66",
"8. c #BCCEDE",
"9. c #53555C",
"0. c #034BB9",
"q. c #7C7C7C",
"w. c #BCCADA",
"e. c #022B7B",
"r. c #414141",
"t. c #023A9D",
"y. c #0465D2",
"u. c #023393",
"i. c #045AA2",
"p. c #071D5E",
"a. c #011F73",
"s. c #01217C",
"d. c #C4C3C5",
"f. c #EEEDED",
"g. c #5B5B5C",
"h. c #545353",
"j. c #989797",
"k. c #0249B5",
"l. c #939191",
"z. c #929292",
"x. c #343E6F",
"c. c #8E8D8D",
"v. c #0248B1",
"b. c #012577",
"n. c #70748C",
"m. c #0351BC",
"M. c #A0A0A0",
"N. c #E5E4E4",
"B. c #012E94",
"V. c gray90",
"C. c #9F9FA0",
"Z. c #0464A8",
"A. c #456897",
"S. c #01337A",
"D. c #2B386D",
"F. c gray60",
"G. c #5E6377",
"H. c #7E8396",
"J. c #7B839F",
"K. c #404459",
"L. c #4A4D5B",
"P. c gray80",
"I. c #0587F2",
"U. c #A5A4A4",
"Y. c #1E326F",
"T. c #616060",
"R. c gray38",
"E. c #BCBCBC",
"W. c gray75",
"Q. c gray35",
"!. c #777777",
"~. c #02308F",
"^. c gray73",
"/. c #BAB9B9",
"(. c #0F215D",
"). c #9D9C9C",
"_. c #B4B3B3",
"`. c #6D6C6C",
"'. c #5E5E63",
"]. c #979696",
"[. c #797979",
"{. c #344871",
"}. c #9D9B9B",
"|. c #021A62",
" X c #4B516C",
".X c #011A65",
"XX c #4D5470",
"oX c #041D65",
"OX c #011F79",
"+X c #01217A",
"@X c #626161",
"#X c #0D2567",
"$X c #0A1E60",
"%X c #022E86",
"&X c #0345A9",
"*X c #BBC6D5",
"=X c #4571A0",
"-X c #0468D9",
";X c #046DDB",
":X c #D8D8D8",
">X c #C4C3C3",
",X c gray85",
"<X c gray89",
"1X c #243067",
"2X c #AFAFAF",
"3X c #16255E",
"4X c #888787",
"5X c #012B8C",
"6X c #047CE9",
"7X c #047EED",
"8X c #023680",
"9X c #BBBCC3",
"0X c #455E8C",
"qX c #BCC6D7",
"wX c #AAA9A9",
"eX c #B1B0B0",
"rX c gray88",
"tX c #E1E1E1",
"yX c gray86",
"uX c #034A96",
"iX c #626D94",
"pX c #022D8B",
"aX c #022E8B",
"sX c #011B70",
"dX c #011F74",
"fX c #E9E9E9",
"gX c #A9A9A9",
"hX c #BCCFDF",
"jX c #B9B8B8",
"kX c #B9B9B9",
"lX c #434B6B",
"zX c #E7E7E7",
"xX c gray30",
"cX c #034EB9",
"vX c #E5E3E3",
"bX c gray49",
"nX c #0247AF",
"mX c #BCCADB",
"MX c #034AB0",
"NX c #E4E3E3",
"BX c #02297E",
"VX c #434242",
"CX c #A1A0A0",
"ZX c #012984",
"AX c #0464D1",
"SX c #5F5E5E",
"DX c #DFDEDE",
"FX c #878585",
"GX c gray27",
"HX c #012881",
"JX c #045BA3",
"KX c #456694",
"LX c #011D72",
"PX c #263463",
"IX c #01207D",
"UX c #011D6D",
/* pixels */
"# # # # # # # # # # # # # # # # # # # # # # # # # # # ",
"o o o o o o o o o o o o o o o o o o o o o o o o o o o ",
"O O O O O O O O O O O O O O O O O O O O O O O O O O O ",
"+ + + + + + + + + + + + + + + + + + + + + + + + + + + ",
"% % % % % % % % % % % % % % ; ; ; t % % % % % % % % % ",
"= = = = = = = = = = = [.r n 0 0 0 0 T.!.u = = = = = = ",
"- - - - - - - - - - M e e e 9.L.g.SX% q. .F.- - - - - ",
": : : : : : : : : a i i K (..XC |.PX..z.^ h _.: : : : ",
"< < < < < < < < M.w w ! s HX~.u.aX. / H.jXE | P.< < < ",
"2 2 2 2 2 2 2 :XbXc lXUXpXI k.cXv.Q G #X9Xf l 3.2 2 2 ",
"5 5 5 5 5 5 5 2.= H $XZXL 6.$.;Xy.m.t.b.iXd d DX3 5 5 ",
"6 6 6 6 6 6 6 o m G.UXU 0.-X7XI.6XAXnX  Y.] NXvXf.6 6 ",
"3 3 3 3 3 3 fXu u XXdX%X8XuXJXZ.i.=.S.e.oXzXV.N.&.3 3 ",
"8 8 8 8 8 8 p 1 1  XLX-.qXmX8.hX%.w.*X{.p.<XtXrXB 8 8 ",
"7 7 7 7 7 7 E.* * Z X . 0XA.b =Xb KX<.{ 5.yX,X[ l 7 7 ",
"9 9 9 9 9 9 gXR r r 3X+X  T @.MX&Xo.BXs J.f >.p W.9 9 ",
"4 4 4 4 4 4 4 t q q ` +.s.B.} 4.F 5Xa.W d.J ,.>XC.4 4 ",
"1 1 1 1 1 1 1 t y y y K.Y sXIX:.OXX D.#.^./.kX' M 1 1 ",
"; ; ; ; ; ; ; ; xXk k z '.( 1XO.x.n.h ;.2X1.eXa ; ; ; ",
", , , , , , , , q V r.VXh.`.D N ) ~ x j 7.wXv , , , , ",
"> > > > > > > > > Q.z GXn S c c.j.).CXU.*.v X.> > > > ",
"* * * * * * * * * * % R.@Xw A l.g _ j x m * * * * * * ",
"& & & & & & & & & & & & 4XFXP ].}.g N & & & & & & & & ",
"@ @ @ @ @ @ @ @ @ @ @ @ @ @ @ @ @ @ @ @ @ @ @ @ @ @ @ ",
"$ $ $ $ $ $ $ $ $ $ $ $ $ $ $ $ $ $ $ $ $ $ $ $ $ $ $ "
};
