/* XPM */
static char *hide_prelight[] = {
/* columns rows colors chars-per-pixel */
"27 25 256 2 ",
"   c gray56",
".  c #626262",
"X  c gray76",
"o  c #AAAAA9",
"O  c #606060",
"+  c #CAC9C8",
"@  c #6D6D6D",
"#  c #8A8989",
"$  c gray43",
"%  c #818181",
"&  c #9A9A9A",
"*  c gray40",
"=  c #5B5B5B",
"-  c #5D5D5D",
";  c #B4B4B4",
":  c #CDCDCD",
">  c gray47",
",  c #E4E4E4",
"<  c #F6F6F6",
"1  c #EFEFEF",
"2  c gray95",
"3  c #909091",
"4  c gray87",
"5  c #C6C6C6",
"6  c gray67",
"7  c #515151",
"8  c #585858",
"9  c DimGray",
"0  c #717171",
"q  c #808080",
"w  c #4E4E4E",
"e  c gray39",
"r  c gray36",
"t  c #CECECE",
"y  c #838383",
"u  c #464646",
"i  c #022558",
"p  c #A3A2A2",
"a  c #555555",
"s  c #D1D0D0",
"d  c #9E9C9C",
"f  c gray51",
"g  c #7B7B7B",
"h  c #BCC5CD",
"j  c #484848",
"k  c #010F35",
"l  c #D3D2D2",
"z  c #DEDDDD",
"x  c #8D8D8D",
"c  c #676767",
"v  c #949393",
"b  c gray48",
"n  c gray65",
"m  c #ABAAAA",
"M  c #021744",
"N  c #62677B",
"B  c #01113E",
"V  c #A0A0A0",
"C  c #5F5E5E",
"Z  c #979696",
"A  c #021A4A",
"S  c #434757",
"D  c #BBC1C8",
"F  c #262C44",
"G  c #7C7D7E",
"H  c #011542",
"J  c #ABACAE",
"K  c #010E33",
"L  c #444759",
"P  c #777777",
"I  c #01103D",
"U  c #091133",
"Y  c #021E4F",
"T  c #010E34",
"R  c #3F4350",
"E  c #545353",
"W  c #A7A7A7",
"Q  c gray80",
"!  c #021D4C",
"~  c gray49",
"^  c #BBBBBF",
"/  c #011133",
"(  c #7E808A",
")  c #535458",
"_  c #04356C",
"`  c #DADADA",
"'  c #8E8D8D",
"]  c #044579",
"[  c #AEADAD",
"{  c #4A4C53",
"}  c #C5C4C5",
"|  c #848282",
" . c #021746",
".. c #8B8B8B",
"X. c #5B5C62",
"o. c #0D1839",
"O. c #043369",
"+. c #7B7F8D",
"@. c #8D8C8C",
"#. c #021C40",
"$. c #021846",
"%. c #B9B8B8",
"&. c #455268",
"*. c gray30",
"=. c #032456",
"-. c #E5E3E3",
";. c #02265B",
":. c #BCC3CB",
">. c #032B62",
",. c #0A1435",
"<. c #888787",
"1. c #939191",
"2. c #011647",
"3. c #044075",
"4. c #043469",
"5. c #021C52",
"6. c #03285D",
"7. c #01143D",
"8. c #455A71",
"9. c #071234",
"0. c #021E4E",
"q. c #011541",
"w. c #032E52",
"e. c #010E38",
"r. c #01133C",
"t. c #011039",
"y. c #010F36",
"u. c #010D35",
"i. c #989797",
"p. c #4D515F",
"a. c #E5E4E4",
"s. c gray90",
"d. c #E7E7E7",
"f. c gray89",
"g. c #A2A1A1",
"h. c #455166",
"j. c gray60",
"k. c #033355",
"l. c #DFDEDE",
"z. c #E6E5E5",
"x. c #656565",
"c. c #E0DFDF",
"v. c #A5A4A4",
"b. c #929292",
"n. c #616060",
"m. c gray38",
"M. c #BCBCBC",
"N. c gray75",
"B. c #2B324C",
"V. c #C1C0C0",
"C. c #021B4F",
"Z. c #1E2946",
"A. c #BAB9B9",
"S. c gray73",
"D. c #9D9C9C",
"F. c gray62",
"G. c #6D6C6C",
"H. c #BCC1C9",
"J. c #B1B1B1",
"K. c #797979",
"L. c #011B3D",
"P. c #E9E8E8",
"I. c #9F9FA0",
"U. c #04386E",
"Y. c #40424C",
"T. c #303751",
"R. c #011240",
"E. c #C4C3C4",
"W. c #D8D8D8",
"Q. c #B4B3B3",
"!. c gray85",
"~. c #AFAFAF",
"^. c #6E6F75",
"/. c gray81",
"(. c gray77",
"). c #4B4E5C",
"_. c #C5C5C5",
"`. c gray69",
"'. c #B1B0B0",
"]. c #A09F9F",
"[. c #021948",
"{. c #03275D",
"}. c #5E616B",
"|. c #D9D8D8",
" X c gray88",
".X c #E1E1E1",
"XX c gray86",
"oX c #70727D",
"OX c #5E5D60",
"+X c #040E32",
"@X c #E9E9E9",
"#X c #AAA9A9",
"$X c gray66",
"%X c #A9A9A9",
"&X c #242A45",
"*X c #BCC5CC",
"=X c #121C33",
"-X c gray35",
";X c #021843",
":X c #202743",
">X c #B9B9B9",
",X c #696868",
"<X c #343951",
"1X c #343D51",
"2X c #161E3A",
"3X c #022053",
"4X c #032355",
"5X c #0F1836",
"6X c #828181",
"7X c #071233",
"8X c #E4E3E3",
"9X c #9A9999",
"0X c #032658",
"qX c #7C7C7C",
"wX c #BCC3CA",
"eX c #878585",
"rX c #45566C",
"tX c #45566E",
"yX c #02163E",
"uX c #9D9B9B",
"iX c #01184A",
"pX c #626161",
"aX c #414141",
"sX c #434242",
"dX c #A1A0A0",
"fX c #EEEDED",
"gX c #444444",
"hX c #021E54",
"jX c #5F5F5F",
"kX c #044177",
"lX c gray27",
"zX c #04356B",
"xX c #272E44",
"cX c #021F53",
"vX c #2C334D",
"bX c #46474F",
"nX c #032A5E",
"mX c #02153F",
"MX c #455A70",
"NX c #C4C3C3",
"BX c #041034",
"VX c #032649",
"CX c #03264B",
"ZX c #455B72",
"AX c #031E4F",
"SX c #021641",
"DX c #032E51",
"FX c #B3B2B2",
"GX c #021A4B",
"HX c #010F39",
"JX c #020E32",
"KX c #01133D",
"LX c #01113F",
"PX c #01103A",
"IX c #01113D",
"UX c #010F37",
/* pixels */
"X X X X X X X X X X X X X X X X X X X X X X X X X X X ",
"                                                      ",
". . . . . . . . . . . . . . . . . . . . . . . . . . . ",
"O O O O O O O O O O O O O O O O O O O O O O O O O O O ",
"@ @ @ @ @ @ @ @ @ @ @ @ @ @ * * * 9 @ @ @ @ @ @ @ @ @ ",
"% % % % % % % % % % % K.e a 7 7 7 7 n.P q % % % % % % ",
"& & & & & & & & & & b r r r ) { = C @ qX..j.& & & & & ",
"; ; ; ; ; ; ; ; ; f c c R 5XK T JXF ^.b.].m Q.; ; ; ; ",
": : : : : : : : V 0 0 xXk q.[.A $.KX9.( %.V._.Q : : : ",
", , , , , , , W.~ g S y. .cX;.6.i Y SXo.^ s l ` , , , ",
"2 2 2 2 2 2 2 J.% G ,.H 3X>.zXU.4.nX0.r.N z z l.1 2 2 ",
"< < < < < < <   y }.UXGX{._ kX] 3.O.i M Z.z.8X-.fX< < ",
"1 1 1 1 1 1 @Xq q p.PX;X#.CXw.k.DXVXL.yXBXd.s.a.P.1 1 ",
"4 4 4 4 4 4 t > > ).HX/ H.:.h h *XwXD 1X7Xf..X Xc.4 4 ",
"5 5 5 5 5 5 M.$ $ X.u.7.&.tX8.ZXMXrXh.=XT.XX!.|.l 5 5 ",
"6 6 6 6 6 6 %Xx.e e 2XIXM AX=.0X4X! mXk +.s /.t N.6 6 ",
"3 3 3 3 3 3 3 9 8 8 bX+XB iX5.hXC.2.t.vXE.} (.NXI.3 3 ",
"> > > > > > > 9 w w w Y.U e.LXR.I u.B.J S.A.>XFXb > > ",
"* * * * * * * * *.u u j OXL &X:X<XoXm [ ~.`.'.f * * * ",
"= = = = = = = = 8 gXaXsXE G.| v 9XF.p n $X#Xx = = = = ",
"- - - - - - - - - -Xj lXa ,Xg ' i.D.dXv.W x jX- - - - ",
"$ $ $ $ $ $ $ $ $ $ @ m.pX0 6X1.d g.n p y $ $ $ $ $ $ ",
"# # # # # # # # # # # # <.eX@.Z uXd v # # # # # # # # ",
"o o o o o o o o o o o o o o o o o o o o o o o o o o o ",
"+ + + + + + + + + + + + + + + + + + + + + + + + + + + "
};
