/* XPM */
static char *hide_pressed[] = {
/* columns rows colors chars-per-pixel */
"27 25 256 2 ",
"   c #961F07",
".  c #B23710",
"X  c #8F2309",
"o  c #8B1D07",
"O  c gray56",
"+  c #626262",
"@  c #606060",
"#  c #AAAAA9",
"$  c #CAC9C8",
"%  c gray76",
"&  c #6D6D6D",
"*  c #8A8989",
"=  c gray43",
"-  c #818181",
";  c #9A9A9A",
":  c gray40",
">  c #5D5D5D",
",  c #B4B4B4",
"<  c #5B5B5B",
"1  c #CDCDCD",
"2  c gray47",
"3  c #E4E4E4",
"4  c #EFEFEF",
"5  c #F6F6F6",
"6  c #909091",
"7  c gray95",
"8  c #C6C6C6",
"9  c gray67",
"0  c gray87",
"q  c #515151",
"w  c #585858",
"e  c #717171",
"r  c #808080",
"t  c gray36",
"y  c #4E4E4E",
"u  c gray39",
"i  c DimGray",
"p  c #949393",
"a  c #D1D0D0",
"s  c #A3A2A2",
"d  c #CECECE",
"f  c #838383",
"g  c gray65",
"h  c #7F1B06",
"j  c #D3D2D2",
"k  c #ABAAAA",
"l  c #676767",
"z  c #9E9C9C",
"x  c gray48",
"c  c #464646",
"v  c #555555",
"b  c #8D8D8D",
"n  c #484848",
"m  c gray51",
"M  c #DEDDDD",
"N  c #7B7B7B",
"B  c #D45019",
"V  c #831B06",
"C  c #DCC9C0",
"Z  c #8D8C8C",
"A  c #A09F9F",
"S  c #656565",
"D  c #D9D8D8",
"F  c #C1C0C0",
"G  c gray30",
"H  c #9B260A",
"J  c #A1A0A0",
"K  c #AD2B0B",
"L  c #BAB9B9",
"P  c #911D07",
"I  c #751D0D",
"U  c #811B06",
"Y  c #BD3B11",
"T  c #A7827C",
"R  c #9F9FA0",
"E  c #761906",
"W  c #939191",
"Q  c #C5C3C4",
"!  c #AC3610",
"~  c #DFCDC1",
"^  c #703229",
"/  c #A5A4A4",
"(  c #E7E7E7",
")  c #A36C51",
"_  c #9A9999",
"`  c #C5C4C5",
"'  c #992008",
"]  c #9B2C0C",
"[  c #7E1705",
"{  c #921F07",
"}  c #7A4A44",
"|  c #E0DFDF",
" . c #9D9C9C",
".. c #C04314",
"X. c #AAA9A9",
"o. c #616060",
"O. c #A5290B",
"+. c #761606",
"@. c #BC4114",
"#. c #5D4846",
"$. c #D8D8D8",
"%. c #8E3310",
"&. c #75514C",
"*. c #5E5554",
"=. c #881905",
"-. c #B1B1B1",
";. c #B1B0B0",
":. c #7D635F",
">. c #DFCCC1",
",. c #C7BCBA",
"<. c gray88",
"1. c #DADADA",
"2. c #782F25",
"3. c #9D2B0C",
"4. c #E9E9E9",
"5. c #CD4A17",
"6. c gray66",
"7. c #B9B8B8",
"8. c #A3521C",
"9. c #7C7C7C",
"0. c #98250A",
"q. c #96270A",
"w. c #C34415",
"e. c #434242",
"r. c #5F5F5F",
"t. c #444444",
"y. c #DF5D1F",
"u. c #9B644E",
"i. c #6E5D5B",
"p. c #6F1C0B",
"a. c #F47A2A",
"s. c #A9300D",
"d. c #7A4639",
"f. c #CD4D18",
"g. c #EEEDED",
"h. c #8E280B",
"j. c #C24516",
"k. c #777777",
"l. c #B33810",
"z. c #626161",
"x. c #807D7D",
"c. c #989797",
"v. c #929292",
"b. c #8B8B8B",
"n. c #545353",
"m. c #6E2112",
"M. c #772009",
"N. c #979696",
"B. c #B4B3B3",
"V. c #9D827E",
"C. c #C54415",
"Z. c #C0360F",
"A. c #713327",
"S. c #7E372C",
"D. c #E5E4E4",
"F. c gray90",
"G. c gray89",
"H. c #8E8D8D",
"J. c #A2A1A1",
"K. c #E35F1F",
"L. c gray60",
"P. c #782312",
"I. c #604D4A",
"U. c #6A4640",
"Y. c #5C5B5B",
"T. c gray80",
"R. c #888787",
"E. c #B3B2B2",
"W. c #94746F",
"Q. c #EF7227",
"!. c gray38",
"~. c #BCBCBC",
"^. c #803122",
"/. c #80382D",
"(. c #F37427",
"). c #A65A20",
"_. c #7D1A06",
"`. c #C4C3C3",
"'. c gray73",
"]. c #9D9B9B",
"[. c gray62",
"{. c #823F32",
"}. c #6D6C6C",
"|. c #665E5D",
" X c #A22B0B",
".X c #878585",
"XX c #A12C0C",
"oX c #A62D0C",
"OX c #E66020",
"+X c #E76522",
"@X c #A06D63",
"#X c #DFDEDE",
"$X c gray85",
"%X c #A46F52",
"&X c #702318",
"*X c #E6E5E5",
"=X c #5F4440",
"-X c #905B4B",
";X c #955E4B",
":X c #791906",
">X c #873110",
",X c #AEADAD",
"<X c gray81",
"1X c #79544E",
"2X c gray77",
"3X c #CA4615",
"4X c #C5C5C5",
"5X c #797979",
"6X c #D8C5BE",
"7X c #DAC6BE",
"8X c gray69",
"9X c #80706E",
"0X c #71190B",
"qX c #754A44",
"wX c #B8320E",
"eX c #BD330E",
"rX c #DECCC1",
"tX c #A7A7A7",
"yX c #994316",
"uX c #7F3D34",
"iX c #9E664E",
"pX c #E1E1E1",
"aX c #9D4517",
"sX c gray86",
"dX c #782C20",
"fX c #828181",
"gX c #9D290B",
"hX c #AC2F0D",
"jX c #E9E8E8",
"kX c gray75",
"lX c #7F1805",
"zX c #848282",
"xX c #CF4816",
"cX c #A9A9A9",
"vX c gray35",
"bX c #B9B9B9",
"nX c #696868",
"mX c #A5531D",
"MX c #E4E3E3",
"NX c #E5E3E3",
"BX c #8C2309",
"VX c gray49",
"CX c #DDC9C0",
"ZX c #B3ACAB",
"AX c #93270B",
"SX c #BB3A11",
"DX c #891C06",
"FX c #5E2416",
"GX c #414141",
"HX c #A0A0A0",
"JX c #5F5E5E",
"KX c #AFAFAF",
"LX c gray27",
"PX c #A26C51",
"IX c #DE5D1F",
"UX c #791B09",
/* pixels */
"% % % % % % % % % % % % % % % % % % % % % % % % % % % ",
"O O O O O O O O O O O O O O O O O O O O O O O O O O O ",
"+ + + + + + + + + + + + + + + + + + + + + + + + + + + ",
"@ @ @ @ @ @ @ @ @ @ @ @ @ @ @ @ @ @ @ @ @ @ @ @ @ @ @ ",
"& & & & & & & & & & & & & & : : : i & & & & & & & & & ",
"- - - - - - - - - - - 5Xu v q q q q o.k.r - - - - - - ",
"; ; ; ; ; ; ; ; ; ; x t t t *.I.Y.JX& 9.b.L.; ; ; ; ; ",
", , , , , , , , , m l l U.m.:X_.E A.9Xv.A k B., , , , ",
"1 1 1 1 1 1 1 1 HXe e ^ h 0.oXs.XXX I V.7.F 4XT.1 1 1 ",
"3 3 3 3 3 3 3 $.VXN qXU  XSX3X5.C.. q.P.,.a j 1.3 3 3 ",
"7 7 7 7 7 7 7 -.- x.I H Y B K.+Xy.f.. BX@XM M #X4 7 7 ",
"5 5 5 5 5 5 5 O f :.V hXxXOX(.a.Q.IXw.3.^.*XMXNXg.5 5 ",
"4 4 4 4 4 4 4.r r 1Xo ] %.aXmX).8.yX>Xh.UX( F.D.jX4 4 ",
"0 0 0 0 0 0 d 2 2 &.DXM.7XCX>.~ rXC 6Xd.p.G.pX<.| 0 0 ",
"8 8 8 8 8 8 ~.= = i.[ X ;XiX) %XPXu.-XFX{.sX$XD j 8 8 ",
"9 9 9 9 9 9 cXS u u &X{ gXl...j.@.! AXh T a <Xd kX9 9 ",
"6 6 6 6 6 6 6 i w w #.+.  K eXZ.wXO.o /.Q ` 2X`.R 6 6 ",
"2 2 2 2 2 2 2 i y y y =X0X=.  ' P lXS.ZX'.L bXE.x 2 2 ",
": : : : : : : : G c c n |.} 2.dXuXW.k ,XKX8X;.m : : : ",
"< < < < < < < < w t.GXe.n.}.zXp _ [.s g 6.X.b < < < < ",
"> > > > > > > > > vXn LXv nXN H.c. .J / tXb r.> > > > ",
"= = = = = = = = = = & !.z.e fXW z J.g s f = = = = = = ",
"* * * * * * * * * * * * R..XZ N.].z p * * * * * * * * ",
"# # # # # # # # # # # # # # # # # # # # # # # # # # # ",
"$ $ $ $ $ $ $ $ $ $ $ $ $ $ $ $ $ $ $ $ $ $ $ $ $ $ $ "
};
