/* XPM */
static char *hide_inactive[] = {
/* columns rows colors chars-per-pixel */
"27 25 255 2 ",
"   c gray56",
".  c #626262",
"X  c #AAAAA9",
"o  c #606060",
"O  c #CAC9C8",
"+  c gray76",
"@  c #6D6D6D",
"#  c #8A8989",
"$  c gray43",
"%  c #818181",
"&  c #9A9A9A",
"*  c gray40",
"=  c #5D5D5D",
"-  c #5B5B5B",
";  c #B4B4B4",
":  c gray47",
">  c #CDCDCD",
",  c #E4E4E4",
"<  c #EFEFEF",
"1  c gray95",
"2  c #F6F6F6",
"3  c #909091",
"4  c gray67",
"5  c gray87",
"6  c #C6C6C6",
"7  c #515151",
"8  c gray39",
"9  c gray36",
"0  c #808080",
"q  c #717171",
"w  c DimGray",
"e  c #585858",
"r  c #4E4E4E",
"t  c #464646",
"y  c #676767",
"u  c #DEDDDD",
"i  c #A3A2A2",
"p  c #ABAAAA",
"a  c #9E9C9C",
"s  c #D1D0D0",
"d  c #636676",
"f  c #949393",
"g  c #A5AABC",
"h  c #CECECE",
"j  c #A6AABD",
"k  c gray51",
"l  c #838383",
"z  c #D3D2D2",
"x  c #555555",
"c  c #484848",
"v  c #7B7B7B",
"b  c #9FA4B9",
"n  c gray48",
"m  c gray65",
"M  c #9DA2B6",
"N  c #989DB1",
"B  c #8D8D8D",
"V  c #9FA4B8",
"C  c #E6E5E5",
"Z  c #79797C",
"A  c #4E4F53",
"S  c #9BA0B3",
"D  c #B6B6BC",
"F  c #73778A",
"G  c gray88",
"H  c #9F9FA0",
"J  c #7D8093",
"K  c #575759",
"L  c #6D7183",
"P  c #434551",
"I  c #82869A",
"U  c #6D6C6C",
"Y  c gray62",
"T  c #86899A",
"R  c #DADADA",
"E  c #6F7386",
"W  c #838799",
"Q  c #E4E3E3",
"!  c gray27",
"~  c #646674",
"^  c gray73",
"/  c #8F919C",
"(  c #AAA9A9",
")  c #9196AB",
"_  c #BCBCBC",
"`  c #626577",
"'  c #8B8C96",
"]  c #9095AA",
"[  c gray38",
"{  c #888B9A",
"}  c #C1C0C0",
"|  c #B6B5B7",
" . c gray75",
".. c #969AAD",
"X. c #626161",
"o. c #9BA0B4",
"O. c #9CA1B6",
"+. c #9A9CA7",
"@. c gray86",
"#. c #A2A1A1",
"$. c gray60",
"%. c #696868",
"&. c gray89",
"*. c #A09F9F",
"=. c #5B6073",
"-. c #757A8E",
";. c #2B2F3E",
":. c #E5E4E4",
">. c #C8C7C9",
",. c #B9B9B9",
"<. c #B4B3B3",
"1. c #92949F",
"2. c #858794",
"3. c #9A9FB4",
"4. c #959AB0",
"5. c #9FA3B7",
"6. c #838696",
"7. c #9297AB",
"8. c #989DB3",
"9. c #E5E3E3",
"0. c #A7A7A7",
"q. c #515255",
"w. c #6F7282",
"e. c #3B3E4F",
"r. c #9D9B9B",
"t. c gray35",
"y. c #A5A4A4",
"u. c gray30",
"i. c #777777",
"p. c #959AAF",
"a. c #323541",
"s. c #A1A6B9",
"d. c #313442",
"f. c #959AAE",
"g. c #2D3040",
"h. c #A2A8BB",
"j. c #434242",
"k. c #8D8C8C",
"l. c #303341",
"z. c #9FA5B9",
"x. c #55596C",
"c. c #9DA3B7",
"v. c #9296AB",
"b. c #9A9FB2",
"n. c #E9E8E8",
"m. c #C4C3C3",
"M. c gray81",
"N. c #7D7E7E",
"B. c #C5C5C5",
"V. c #B1B1B1",
"C. c #828181",
"Z. c #5A5B61",
"A. c gray77",
"S. c #7C7C7C",
"D. c #AFAFAF",
"F. c #828490",
"G. c #646879",
"H. c #606477",
"J. c #D9D8D8",
"K. c #959AAD",
"L. c #8E91A6",
"P. c #8B90A2",
"I. c #656565",
"U. c #808598",
"Y. c #494D5E",
"T. c #B1B0B0",
"R. c #878B9F",
"E. c #A3A8BB",
"W. c #727688",
"Q. c #6F7283",
"!. c #9C9CA1",
"~. c #82869C",
"^. c #B9B8B8",
"/. c #A0A0A0",
"(. c #696A6E",
"). c #9398AD",
"_. c #616060",
"`. c #E1E1E1",
"'. c #55565D",
"]. c #4E5263",
"[. c #5F5E5E",
"{. c gray49",
"}. c #898CA1",
"|. c #9397AB",
" X c #626365",
".X c #989797",
"XX c #414141",
"oX c #939191",
"OX c #666977",
"+X c #EEEDED",
"@X c #929292",
"#X c #7F808C",
"$X c #7E8397",
"%X c #73788B",
"&X c #8E8D8D",
"*X c #505466",
"=X c gray85",
"-X c #D8D8D8",
";X c #888CA1",
":X c #727587",
">X c #5A5D6F",
",X c #9A9EB2",
"<X c #DFDEDE",
"1X c #5C5E64",
"2X c #E7E7E7",
"3X c #C5C4C5",
"4X c gray69",
"5X c #9FA5B8",
"6X c #A3A8BC",
"7X c #BAB9B9",
"8X c #B3B2B2",
"9X c #9D9C9C",
"0X c #9A9999",
"qX c #2E3241",
"wX c #41444D",
"eX c #898D9F",
"rX c #4E5056",
"tX c #848282",
"yX c gray90",
"uX c #4D4E52",
"iX c #808396",
"pX c gray66",
"aX c #898C9A",
"sX c #8B8B8B",
"dX c #9A9A9E",
"fX c #75798C",
"gX c #979BB0",
"hX c #A1A0A0",
"jX c #444444",
"kX c #5F5F5F",
"lX c #565969",
"zX c #4A4B55",
"xX c #A9AEBF",
"cX c #545353",
"vX c #797979",
"bX c #76777E",
"nX c #9697A4",
"mX c #A9A9A9",
"MX c #979696",
"NX c #AEAFB7",
"BX c #989CB0",
"VX c #E9E9E9",
"CX c #5B5E6F",
"ZX c #9A9FB3",
"AX c #66697D",
"SX c #E0DFDF",
"DX c #2F3344",
"FX c gray80",
"GX c #636263",
"HX c #878585",
"JX c #646778",
"KX c #888787",
"LX c #797D90",
"PX c #AEADAD",
"IX c #C6C5C5",
/* pixels */
"+ + + + + + + + + + + + + + + + + + + + + + + + + + + ",
"                                                      ",
". . . . . . . . . . . . . . . . . . . . . . . . . . . ",
"o o o o o o o o o o o o o o o o o o o o o o o o o o o ",
"@ @ @ @ @ @ @ @ @ @ @ @ @ @ * * * w @ @ @ @ @ @ @ @ @ ",
"% % % % % % % % % % % vX8 x 7 7 7 7 _.i.0 % % % % % % ",
"& & & & & & & & & & n 9 9 9 K q.- [.@ S.sX$.& & & & & ",
"; ; ; ; ; ; ; ; ; k y y rXa.;.qXd.zXZ @X*.p <.; ; ; ; ",
"> > > > > > > > /.q q wXg.Y.E iXJ w.~ dX^.} B.FX> > > ",
", , , , , , , -X{.v '.DXF K.b.N 7.P.T 2.>.s z R , , , ",
"1 1 1 1 1 1 1 V.% N.l.W.o.b z.5.N }.fX6.NXu u <X< 1 1 ",
"2 2 2 2 2 2 2   l (.e...M b E.g s.f.LXG.nXC Q 9.+X2 2 ",
"< < < < < < VX0 0 1X>X,X3.5Xj xXg S I x.{ 2XyX:.n.< < ",
"5 5 5 5 5 5 h : : Z.JXBXgXM 6Xj h.ZXU.*XaX&.`.G SX5 5 ",
"6 6 6 6 6 6 _ $ $  XlX|.).8.c.V O.v.%X].+.@.=XJ.z 6 6 ",
"4 4 4 4 4 4 mXI.8 8 P eXL.) p.4.] $X=.d D s M.h  .4 4 ",
"3 3 3 3 3 3 3 w e e uXd W R.;X~.-.H.CX1.IX3XA.m.H 3 3 ",
": : : : : : : w r r r A OX:XL AX` Q./ | ^ 7X,.8Xn : : ",
"* * * * * * * * u.t t c GXbX#XF.' !.p PXD.4XT.k * * * ",
"- - - - - - - - e jXXXj.cXU tXf 0XY i m pX( B - - - - ",
"= = = = = = = = = t.c ! x %.v &X.X9XhXy.0.B kX= = = = ",
"$ $ $ $ $ $ $ $ $ $ @ [ X.q C.oXa #.m i l $ $ $ $ $ $ ",
"# # # # # # # # # # # # KXHXk.MXr.a f # # # # # # # # ",
"X X X X X X X X X X X X X X X X X X X X X X X X X X X ",
"O O O O O O O O O O O O O O O O O O O O O O O O O O O "
};
