/* XPM */
static char *maximize_toggled_prelight[] = {
/* columns rows colors chars-per-pixel */
"26 25 251 2 ",
"   c gray56",
".  c #AAAAA9",
"X  c #606060",
"o  c gray76",
"O  c #CAC9C8",
"+  c #626262",
"@  c #6D6D6D",
"#  c #8A8989",
"$  c gray43",
"%  c #818181",
"&  c #9A9A9A",
"*  c gray40",
"=  c #5D5D5D",
"-  c #B4B4B4",
";  c #5B5B5B",
":  c #CDCDCD",
">  c gray47",
",  c #E4E4E4",
"<  c #F6F6F6",
"1  c gray95",
"2  c #EFEFEF",
"3  c #909091",
"4  c gray87",
"5  c #C6C6C6",
"6  c gray67",
"7  c #515151",
"8  c gray39",
"9  c gray36",
"0  c DimGray",
"q  c #4E4E4E",
"w  c gray100",
"e  c #585858",
"r  c #717171",
"t  c #072C00",
"y  c #808080",
"u  c #D1D0D0",
"i  c #A3A2A2",
"p  c #676767",
"a  c #9E9C9C",
"s  c #D3D2D2",
"d  c #CECECE",
"f  c #838383",
"g  c gray51",
"h  c gray48",
"j  c #7B7B7B",
"k  c gray65",
"l  c #464646",
"z  c #949393",
"x  c #ABAAAA",
"c  c #D0D8CC",
"v  c #DEDDDD",
"b  c #0B3700",
"n  c #144C00",
"m  c #8D8D8D",
"M  c #445343",
"N  c #134700",
"B  c #555555",
"V  c #0E3E00",
"C  c #484848",
"Z  c #072900",
"A  c #A09F9F",
"S  c #E4E3E3",
"D  c #B1BEAA",
"F  c #7C7C7C",
"G  c #AFAFAF",
"H  c #777777",
"J  c #888787",
"K  c #545353",
"L  c #143A01",
"P  c #233E1D",
"I  c gray88",
"U  c #1D5E01",
"Y  c #072803",
"T  c #0D3600",
"R  c #7F877D",
"E  c #5F5E5E",
"W  c #869D78",
"Q  c gray81",
"!  c #AEADAD",
"~  c gray85",
"^  c #979696",
"/  c #444444",
"(  c #0D3D00",
")  c #4A504A",
"_  c #BBBEBA",
"`  c #083100",
"'  c #404940",
"]  c #1E3F12",
"[  c #193215",
"{  c #6E736D",
"}  c #C5C5C5",
"|  c #6D6C6C",
" . c #8B8B8B",
".. c #104600",
"X. c gray73",
"o. c #A7A7A7",
"O. c #1C5A01",
"+. c #124001",
"@. c #7D7E7C",
"#. c gray27",
"$. c #929292",
"%. c #0E2B09",
"&. c #093300",
"*. c gray38",
"=. c #E0DFDF",
"-. c #276601",
";. c #246901",
":. c #E6E5E5",
">. c #134101",
",. c #597845",
"<. c #204312",
"1. c #8D8C8C",
"2. c #707A6F",
"3. c #B4B3B3",
"4. c #9F9FA0",
"5. c #626161",
"6. c #5B605B",
"7. c #939191",
"8. c #225A01",
"9. c #083300",
"0. c gray90",
"q. c #E5E4E4",
"w. c #414D3F",
"e. c gray60",
"r. c #083000",
"t. c #276F01",
"y. c #256B01",
"u. c #0E3C00",
"i. c #0C3800",
"p. c #072901",
"a. c #B3B2B2",
"s. c #154E00",
"d. c #4E5A4D",
"f. c #144B00",
"g. c #0D2C06",
"h. c #0C3D00",
"j. c #0C3C00",
"k. c gray49",
"l. c #2D442A",
"z. c #082D00",
"x. c #5F5F5F",
"c. c #062A00",
"v. c #434242",
"b. c gray35",
"n. c #072B00",
"m. c #0E3F00",
"M. c gray30",
"N. c #062900",
"B. c #0B3400",
"V. c #132D0F",
"C. c #104700",
"Z. c #0C3700",
"A. c #2E452B",
"S. c gray66",
"D. c #A9A9A9",
"F. c #0A2C00",
"G. c #E1E1E1",
"H. c #C1C0C0",
"J. c #E5E3E3",
"K. c gray62",
"L. c #103801",
"P. c #1A5901",
"I. c #093400",
"U. c gray69",
"Y. c #AAA9A9",
"T. c #0D4000",
"R. c #0C2908",
"E. c #D8D8D8",
"W. c #D9D8D8",
"Q. c #154A01",
"!. c #C4C3C3",
"~. c #ABADAB",
"^. c #0F4300",
"/. c #354C31",
"(. c #797979",
"). c #728967",
"_. c #9D9C9C",
"`. c #656565",
"'. c gray75",
"]. c gray80",
"[. c #5F685E",
"{. c #7D897B",
"}. c #A5A4A4",
"|. c #4C584B",
" X c #354A33",
".X c #A2A1A1",
"XX c #13310C",
"oX c #848282",
"OX c #072E00",
"+X c gray86",
"@X c #828181",
"#X c #0A3300",
"$X c #134900",
"%X c #0E3D00",
"&X c #0C3600",
"*X c #317D01",
"=X c #A1A0A0",
"-X c #B9B8B8",
";X c #616060",
":X c #8E8D8D",
">X c #DADADA",
",X c #738A67",
"<X c #082F00",
"1X c #E9E8E8",
"2X c #B9B9B9",
"3X c #C1CCBB",
"4X c #0A2B03",
"5X c #2F5812",
"6X c #5E7556",
"7X c #213A1F",
"8X c #154601",
"9X c #E9E9E9",
"0X c #0F4100",
"qX c #114A00",
"wX c #123C01",
"eX c gray89",
"rX c #A0A0A0",
"tX c #124300",
"yX c #185301",
"uX c #414141",
"iX c #BAB9B9",
"pX c #E7E7E7",
"aX c #062C00",
"sX c #123E01",
"dX c #0D2E07",
"fX c #293E27",
"gX c #195501",
"hX c #EEEDED",
"jX c #283D25",
"kX c #464C45",
"lX c #9D9B9B",
"zX c #5E5F5D",
"xX c #878585",
"cX c #DFDEDE",
"vX c #CFD6CC",
"bX c #B1B0B0",
"nX c #BCBCBC",
"mX c #647561",
"MX c #0C3900",
"NX c #083200",
"BX c #174501",
"VX c #989797",
"CX c #545753",
"ZX c #B1B1B1",
"AX c #9A9999",
"SX c #263D23",
"DX c #E1E6DD",
"FX c #C4C3C4",
"GX c #C5C4C5",
"HX c #696868",
"JX c gray77",
/* pixels */
"o o o o o o o o o o o o o o o o o o o o o o o o o o ",
"                                                    ",
"+ + + + + + + + + + + + + + + + + + + + + + + + + + ",
"X X X X X X X X X X X X X X X X X X X X X X X X X X ",
"@ @ @ @ @ @ @ @ @ @ @ @ @ * * * 0 @ @ @ @ @ @ @ @ @ ",
"% % % % % % % % % % (.8 B 7 7 7 7 ;XH y % % % % % % ",
"& & & & & & & & & h 9 9 9 CX) ; E @ F  .e.& & & & & ",
"- - - - - - - - g p p w.V.Z n.p.jX{ $.A x 3.- - - - ",
": : : : : : : rXr r fXt b m.0X%XB.g.R -XH.} ].: : : ",
", , , , , , E.k.j M t ( f.gXP.yXN i.XX_ u s >X, , , ",
"1 1 1 1 1 1 ZX% @.%.MXn U y.t.;.O.N #XmXv v cX2 1 1 ",
"< < < < < <   f [.t &XL.BX-.*X8.L wXu.P :.S J.hX< < ",
"2 2 2 2 2 9Xy y d.r.F.vXc ,.5XW w 6XT 4XpX0.q.1X2 2 ",
"4 4 4 4 4 d > > |.OXZ.] c w DXw ).sXV dXeXG.I =.4 4 ",
"5 5 5 5 5 nX$ $ 6.N.h.tX<.D 3X,X8Xn b /.+X~ W.s 5 5 ",
"6 6 6 6 6 D.`.8 8 [ NX^.$X>.+.Q.s.V z.{.u Q d '.6 6 ",
"3 3 3 3 3 3 0 e e kXY &.T.C.qX..j.<XA.FXGXJX!.4.3 3 ",
"> > > > > > 0 q q q ' R.aX9.I.` c.l.~.X.iX2Xa.h > > ",
"* * * * * * * M.l l C zXM SX7X X2.x ! G U.bXg * * * ",
"; ; ; ; ; ; ; e / uXv.K | oXz AXK.i k S.Y.m ; ; ; ; ",
"= = = = = = = = b.C #.B HXj :XVX_.=X}.o.m x.= = = = ",
"$ $ $ $ $ $ $ $ $ @ *.5.r @X7.a .Xk i f $ $ $ $ $ $ ",
"# # # # # # # # # # # J xX1.^ lXa z # # # # # # # # ",
". . . . . . . . . . . . . . . . . . . . . . . . . . ",
"O O O O O O O O O O O O O O O O O O O O O O O O O O "
};
