/* XPM */
static char *maximize_active[] = {
/* columns rows colors chars-per-pixel */
"26 25 256 2 ",
"   c #355E08",
".  c #395C0F",
"X  c #3C5E15",
"o  c #376101",
"O  c #356003",
"+  c #396303",
"@  c #386401",
"#  c #396501",
"$  c #386701",
"%  c #3A6701",
"&  c #3C6501",
"*  c #3A6206",
"=  c #3C6607",
"-  c #386801",
";  c #3B6901",
":  c #3C6A01",
">  c #3C6C01",
",  c #3D6C01",
"<  c #3C6E01",
"1  c #396009",
"2  c #3E650C",
"3  c #3F7001",
"4  c #407201",
"5  c #447301",
"6  c #437701",
"7  c #457401",
"8  c #467601",
"9  c #477801",
"0  c #457B01",
"q  c #477E01",
"w  c #4B7E01",
"e  c #4C7E01",
"r  c #537C01",
"t  c #44661F",
"y  c #4B6E1D",
"u  c #466723",
"i  c #466225",
"p  c #466127",
"a  c #4A6523",
"s  c #4E6D2A",
"d  c #506F2B",
"f  c #577523",
"g  c #526F33",
"h  c #51623F",
"j  c #567631",
"k  c #617934",
"l  c #414141",
"z  c #434242",
"x  c #444444",
"c  c gray27",
"v  c #464646",
"b  c #484848",
"n  c gray30",
"m  c #4E4E4E",
"M  c #4C5940",
"N  c #4F5845",
"B  c #535B4A",
"V  c #515151",
"C  c #545353",
"Z  c #555555",
"A  c #585C53",
"S  c #585858",
"D  c gray35",
"F  c #5B5B5B",
"G  c #5B5C5B",
"H  c gray36",
"J  c #5D5D5D",
"K  c #5F5E5E",
"L  c #5F5F5F",
"P  c #586B43",
"I  c #596E43",
"U  c #5C6C4B",
"Y  c #5F704D",
"T  c #61635D",
"R  c #626A5B",
"E  c #6B775E",
"W  c #606060",
"Q  c #616060",
"!  c gray38",
"~  c #626161",
"^  c #626262",
"/  c gray39",
"(  c #656565",
")  c gray40",
"_  c #676767",
"`  c #696868",
"'  c DimGray",
"]  c #6D6C6C",
"[  c #6D6D6D",
"{  c gray43",
"}  c #757C6D",
"|  c #717171",
" . c #777777",
".. c gray47",
"X. c #797979",
"o. c gray48",
"O. c #7B7B7B",
"+. c #7C7C7C",
"@. c gray49",
"#. c #4D8101",
"$. c #518501",
"%. c #518701",
"&. c #588301",
"*. c #598501",
"=. c #528801",
"-. c #538801",
";. c #548901",
":. c #568B01",
">. c #558C01",
",. c #588E01",
"<. c #599201",
"1. c #5E9801",
"2. c #5F9B01",
"3. c #609001",
"4. c #619701",
"5. c #629801",
"6. c #619F01",
"7. c #669F01",
"8. c #759B01",
"9. c #769D01",
"0. c #64A201",
"q. c #68A101",
"w. c #6FA402",
"e. c #70A802",
"r. c #72A902",
"t. c #71AA02",
"y. c #74AE02",
"u. c #77AF02",
"i. c #77B202",
"p. c #78B202",
"a. c #7BB302",
"s. c #7FB902",
"d. c #748B34",
"f. c #7A9234",
"g. c #698045",
"h. c #6F8745",
"j. c #7E8C6F",
"k. c #7D9461",
"l. c #7E807C",
"z. c #8FB202",
"x. c #98B603",
"c. c #889935",
"v. c #90C602",
"b. c #91C602",
"n. c #91C702",
"m. c #93CA02",
"M. c #9DD002",
"N. c #A2CA02",
"B. c #8B967D",
"V. c #8E9F7B",
"C. c #A4B478",
"Z. c #B0BB78",
"A. c #B6BE78",
"S. c #808080",
"D. c #818181",
"F. c #828181",
"G. c gray51",
"H. c #838383",
"J. c #848282",
"K. c #878585",
"L. c #888787",
"P. c #8A8989",
"I. c #8B8B8B",
"U. c #8D8C8C",
"Y. c #8D8D8D",
"T. c #8E8D8D",
"R. c gray56",
"E. c #909091",
"W. c #939191",
"Q. c #929292",
"!. c #949393",
"~. c #979696",
"^. c #989797",
"/. c gray60",
"(. c #9A9999",
"). c #9A9A9A",
"_. c #9D9B9B",
"`. c #9D9C9C",
"'. c #9E9C9C",
"]. c gray62",
"[. c #A09F9F",
"{. c #B1BF99",
"}. c #9F9FA0",
"|. c #A0A0A0",
" X c #A1A0A0",
".X c #A2A1A1",
"XX c #A3A2A2",
"oX c #A5A4A4",
"OX c gray65",
"+X c #A7A7A7",
"@X c gray66",
"#X c #A9A9A9",
"$X c #AAA9A9",
"%X c #AAAAA9",
"&X c #ABAAAA",
"*X c gray67",
"=X c #AEADAD",
"-X c #AFAFAF",
";X c #AEB1AB",
":X c gray69",
">X c #B1B0B0",
",X c #B1B1B1",
"<X c #B3B2B2",
"1X c #B4B3B3",
"2X c #B4B4B4",
"3X c #B9B8B8",
"4X c #B9B9B9",
"5X c #BAB9B9",
"6X c gray73",
"7X c #BCBCBC",
"8X c gray75",
"9X c #BAC799",
"0X c #C0C3BA",
"qX c #D1D9BB",
"wX c #C1C0C0",
"eX c gray76",
"rX c #C4C3C3",
"tX c gray77",
"yX c #C5C4C5",
"uX c #C5C5C5",
"iX c #C6C6C6",
"pX c #CAC9C8",
"aX c gray80",
"sX c #CDCDCD",
"dX c #CECECE",
"fX c gray81",
"gX c #D1D0D0",
"hX c #D3D2D2",
"jX c #D8D8D8",
"kX c #D9D8D8",
"lX c gray85",
"zX c #DADADA",
"xX c gray86",
"cX c #DEDDDD",
"vX c gray87",
"bX c #DFDEDE",
"nX c #E0DFDF",
"mX c gray88",
"MX c #E1E1E1",
"NX c gray89",
"BX c #E4E3E3",
"VX c #E5E3E3",
"CX c #E4E4E4",
"ZX c #E5E4E4",
"AX c gray90",
"SX c #E6E5E5",
"DX c #E7E7E7",
"FX c #E9E8E8",
"GX c #E9E9E9",
"HX c #EEEDED",
"JX c #EFEFEF",
"KX c #F3F5EE",
"LX c #F5F6EE",
"PX c gray95",
"IX c #F6F6F6",
"UX c gray100",
/* pixels */
"eXeXeXeXeXeXeXeXeXeXeXeXeXeXeXeXeXeXeXeXeXeXeXeXeXeX",
"R.R.R.R.R.R.R.R.R.R.R.R.R.R.R.R.R.R.R.R.R.R.R.R.R.R.",
"^ ^ ^ ^ ! ! ^ ^ ! ! ! ! ! ! ! ^ ! ! ^ ^ ^ ! ! ! ! ! ",
"^ L L ^ ! ! ! ! ! ! ! ! ! ! ! ! ! ! ! ! ! ! ! ! ! ! ",
"] ] ] ] ] ] ] { [ [ ] ] [ ^ _ _ _ ] ] ] ] ] ] ] [ [ ",
"D.D.D.D.D.D.D.D.S.S...( Z V V V V L ..S.D.D.D.D.S.S.",
").).).).).).).).).O.F F G A B G L [ @.P.).).).).).).",
"2X2X2X2X2X2X2X2XG._ ( P . # - O i } !.XX%X2X1X1X2X2X",
"sXsXsXsXsXsXfX|.{ | p : w >.>.;.7 * B.6XeXtXfXaXaXfX",
"CXCXCXCXCXNXjX@.@.P : %.7.y.p.t.5.e 2 0XgXhXlXAXNXNX",
"PXPXPXPXPXPX,XD.l.1 #.q.s.m.M.n.a.4.7 k.vXvXvXHXPXPX",
"IXIXIXIXIXIXR.H.E > <.i.n.z.x.N.v.r.$.y ZXVXVXHXIXIX",
"JXJXJXJXJXGXS.S.Y 4 1.r.8.Z.A.c.9.u.;.+ DXAXCXFXJXJX",
"vXvXvXvXvXfX....U 3 ;.*.9XUXUXLXd.&.;.= NXMXmXnXvXvX",
"iXiXiXiXiX7X{ { R # & {.KXC.f.qXKXk 5 j xXlXjXhXiXiX",
"*X*X*X%X*X%X) ^ ^ X : g.f 3.w.r h.a # V.gXfXfX8X*X%X",
"R.R.E.E.E.E._ D S N O : $.6.0.1.9 < d iXiXeXeXXXE.E.",
"..o........._ m m m M   < 0 q 6 # s ;X6X3X6X,Xo.....",
"_ _ ) ) ) ) _ m v v b T P u u g j.%X=X=X:X-XD.) ) ) ",
"F F F F F F F D z z z Z ] H.!.).].XXOX%X%XR.F F F F ",
"J J J G G L G L F b c Z ` O.R.~.`.|.OX@XR.J L L L L ",
"{ { { { { { { ] { ] ! ! | D.W.`.XXOXXXH.] ] ] ] ] ] ",
"I.P.P.P.P.P.P.P.P.P.L.L.K.U.~.`.`.!.P.P.P.P.P.P.P.P.",
"%X%X%X%X%X%X%X%X%X%X%X%X%X%X%X%X%X%X%X%X%X%X%X%X%X%X",
"pXpXpXpXpXpXpXpXpXpXpXpXpXpXpXpXpXpXpXpXpXpXpXpXpXpX"
};
