/* XPM */
static char *maximize_toggled_pressed[] = {
/* columns rows colors chars-per-pixel */
"26 25 256 2 ",
"   c #8B1D07",
".  c gray56",
"X  c #626262",
"o  c #CAC9C8",
"O  c gray76",
"+  c #606060",
"@  c #AAAAA9",
"#  c #6D6D6D",
"$  c #8A8989",
"%  c #818181",
"&  c gray43",
"*  c #9A9A9A",
"=  c gray40",
"-  c #B4B4B4",
";  c #5D5D5D",
":  c #5B5B5B",
">  c gray47",
",  c #CDCDCD",
"<  c #E4E4E4",
"1  c #F6F6F6",
"2  c gray95",
"3  c #EFEFEF",
"4  c #909091",
"5  c gray87",
"6  c #C6C6C6",
"7  c gray67",
"8  c #515151",
"9  c gray39",
"0  c gray100",
"q  c #808080",
"w  c gray36",
"e  c #585858",
"r  c #4E4E4E",
"t  c #717171",
"y  c DimGray",
"u  c #D1D0D0",
"i  c #949393",
"p  c #838383",
"a  c #676767",
"s  c #A3A2A2",
"d  c #9E9C9C",
"f  c #CECECE",
"g  c gray51",
"h  c gray48",
"j  c gray65",
"k  c #464646",
"l  c #98250A",
"z  c #8D8D8D",
"x  c #484848",
"c  c #D3D2D2",
"v  c #ABAAAA",
"b  c #7B7B7B",
"n  c #BD3B11",
"m  c #555555",
"M  c #DEDDDD",
"N  c #911D07",
"B  c #961F07",
"V  c #B23710",
"C  c #891C06",
"Z  c #A9300D",
"A  c #434242",
"S  c #F9B88D",
"D  c #7F1B06",
"F  c #D45019",
"G  c #BB3A11",
"H  c #B32F0D",
"J  c #E9E9E9",
"K  c #989797",
"L  c #7F1805",
"P  c #A32C0C",
"I  c #5F5E5E",
"U  c #761606",
"Y  c #831B06",
"T  c #B13710",
"R  c #864134",
"E  c #A7A7A7",
"W  c gray35",
"Q  c #E0DFDF",
"!  c #782C20",
"~  c #8E8D8D",
"^  c gray38",
"/  c #7F3D34",
"(  c #E6E5E5",
")  c #878585",
"_  c #AEADAD",
"`  c #F89E64",
"'  c #71190B",
"]  c #C7BCBA",
"[  c #848282",
"{  c #656565",
"}  c #979696",
"|  c #B4B3B3",
" . c #754A44",
".. c #B3ACAB",
"X. c #DC8564",
"o. c #5E5554",
"O. c #9D9C9C",
"+. c #665E5D",
"@. c #A9A9A9",
"#. c #E76522",
"$. c #8C2309",
"%. c #5D4846",
"&. c #D9D8D8",
"*. c #79544E",
"=. c #CD4D18",
"-. c #C5C4C5",
";. c #828181",
":. c #C1C0C0",
">. c #DF5D1F",
",. c #B8320E",
"<. c #DADADA",
"1. c #B2300D",
"2. c #AD2B0B",
"3. c #FBE1D3",
"4. c #CF4816",
"5. c #8D8C8C",
"6. c #E25F29",
"7. c #7A1F0C",
"8. c #7D1A06",
"9. c #E4E3E3",
"0. c #C84515",
"q. c #C34415",
"w. c #414141",
"e. c #A1A0A0",
"r. c #A7290B",
"t. c #444444",
"y. c #DE5D1F",
"u. c #761D0C",
"i. c #811B06",
"p. c #C0360F",
"a. c #7E1705",
"s. c #C4C3C3",
"d. c #DFDEDE",
"f. c #94746F",
"g. c gray80",
"h. c #782312",
"j. c #5C5B5B",
"k. c #604D4A",
"l. c #BAB9B9",
"z. c #777777",
"x. c #EEEDED",
"c. c #939191",
"v. c #75514C",
"b. c #A06D63",
"n. c #F2A179",
"m. c #929292",
"M. c #8B8B8B",
"N. c #A22B0B",
"B. c #E35F1F",
"V. c #96270A",
"C. c #FBD7C4",
"Z. c #B3B2B2",
"A. c #881905",
"S. c #9D827E",
"D. c #713327",
"F. c #703229",
"G. c #7E372C",
"H. c gray89",
"J. c #A72C0C",
"K. c #9D2B0C",
"L. c #E5E4E4",
"P. c gray90",
"I. c #6E2112",
"U. c #A09F9F",
"Y. c #A2A1A1",
"T. c gray60",
"R. c #9A9999",
"E. c #626161",
"W. c #6A4640",
"Q. c gray75",
"!. c #A5A4A4",
"~. c #D64A17",
"^. c #DA4C17",
"/. c #DD4F19",
"(. c #C33D12",
"). c #AAA9A9",
"_. c #616060",
"`. c #BCBCBC",
"'. c #803122",
"]. c #80382D",
"[. c #F37427",
"{. c #F47A2A",
"}. c #6D6C6C",
"|. c #A7827C",
" X c #B5330E",
".X c #9D9B9B",
"XX c gray73",
"oX c #EF7227",
"OX c gray62",
"+X c #6E5D5B",
"@X c #992008",
"#X c #F9CBB5",
"$X c #E66020",
"%X c #797979",
"&X c #702318",
"*X c #F88F3E",
"=X c #5F4440",
"-X c #791906",
";X c #D8D8D8",
":X c gray85",
">X c #AFAFAF",
",X c gray81",
"<X c #807D7D",
"1X c #FEEEE3",
"2X c gray77",
"3X c #C5C5C5",
"4X c #545353",
"5X c gray69",
"6X c #B1B0B0",
"7X c #B1B1B1",
"8X c #7D635F",
"9X c #EE9F79",
"0X c #7A4A44",
"qX c #BD330E",
"wX c #7C7C7C",
"eX c #E7E7E7",
"rX c #E1E1E1",
"tX c gray86",
"yX c #782F25",
"uX c #888787",
"iX c #AC2F0D",
"pX c #E9E8E8",
"aX c #FBE0D2",
"sX c #A62F0D",
"dX c #CD4A17",
"fX c gray66",
"gX c #9B260A",
"hX c #9F9FA0",
"jX c #C93F12",
"kX c #CC3F12",
"lX c #B9B8B8",
"zX c gray88",
"xX c #791B09",
"cX c #B9B9B9",
"vX c #696868",
"bX c #F6DBD1",
"nX c gray30",
"mX c #E5E3E3",
"MX c gray49",
"NX c #D8511A",
"BX c #CA4615",
"VX c #C54415",
"CX c #831C06",
"ZX c #80706E",
"AX c #A0A0A0",
"SX c #A12C0C",
"DX c #A5290B",
"FX c #5F5F5F",
"GX c #921F07",
"HX c gray27",
"JX c #8E2309",
"KX c #D65526",
"LX c #741D0D",
"PX c #A62D0C",
"IX c #761906",
"UX c #C5C3C4",
/* pixels */
"O O O O O O O O O O O O O O O O O O O O O O O O O O ",
". . . . . . . . . . . . . . . . . . . . . . . . . . ",
"X X X X X X X X X X X X X X X X X X X X X X X X X X ",
"+ + + + + + + + + + + + + + + + + + + + + + + + + + ",
"# # # # # # # # # # # # # = = = y # # # # # # # # # ",
"% % % % % % % % % % %X9 m 8 8 8 8 _.z.q % % % % % % ",
"* * * * * * * * * h w w w o.k.j.I # wXM.T.* * * * * ",
"- - - - - - - - g a a W.I.-X8.IXD.ZXm.U.v | - - - - ",
", , , , , , , AXt t F.D l PXZ SXJXu.S.lX:.3Xg., , , ",
"< < < < < < ;XMXb  .i.N.G BXdXVXV V.h.] u c <.< < < ",
"2 2 2 2 2 2 7X% <XLXgXn F B.#.>.=.T $.b.M M d.3 2 2 ",
"1 1 1 1 1 1 . p 8XY iX4.$X[.{.oXy.q.K.'.( 9.mXx.1 1 ",
"3 3 3 3 3 J q q *.   XbX3.` *XS 0 X.sXxXeXP.L.pX3 3 ",
"5 5 5 5 5 f > > v.C 1.KXaX0 1X0 9X0.P 7.H.rXzXQ 5 5 ",
"6 6 6 6 6 `.& & +Xa.r.jX6.#XC.n.NXn l R tX:X&.c 6 6 ",
"7 7 7 7 7 @.{ 9 9 &XGXH kX^./.~.(.J.CX|.u ,Xf Q.7 7 ",
"4 4 4 4 4 4 y e e %.U B 2.qXp.,.DX  ].UX-.2Xs.hX4 4 ",
"> > > > > > y r r r =X' A.B @XN L G...XXl.cXZ.h > > ",
"= = = = = = = nXk k x +.0XyX! / f.v _ >X5X6Xg = = = ",
": : : : : : : e t.w.A 4X}.[ i R.OXs j fX).z : : : : ",
"; ; ; ; ; ; ; ; W x HXm vXb ~ K O.e.!.E z FX; ; ; ; ",
"& & & & & & & & & # ^ E.t ;.c.d Y.j s p & & & & & & ",
"$ $ $ $ $ $ $ $ $ $ $ uX) 5.} .Xd i $ $ $ $ $ $ $ $ ",
"@ @ @ @ @ @ @ @ @ @ @ @ @ @ @ @ @ @ @ @ @ @ @ @ @ @ ",
"o o o o o o o o o o o o o o o o o o o o o o o o o o "
};
