/* XPM */
static char *maximize_pressed[] = {
/* columns rows colors chars-per-pixel */
"26 25 256 2 ",
"   c #961F07",
".  c #B23710",
"X  c #8B1D07",
"o  c gray56",
"O  c #626262",
"+  c gray76",
"@  c #606060",
"#  c #AAAAA9",
"$  c #CAC9C8",
"%  c #6D6D6D",
"&  c #8A8989",
"*  c gray43",
"=  c #818181",
"-  c #9A9A9A",
";  c gray40",
":  c #B4B4B4",
">  c #5D5D5D",
",  c #5B5B5B",
"<  c gray47",
"1  c #CDCDCD",
"2  c #E4E4E4",
"3  c gray95",
"4  c #EFEFEF",
"5  c #909091",
"6  c #F6F6F6",
"7  c #C6C6C6",
"8  c gray67",
"9  c gray87",
"0  c #515151",
"q  c gray39",
"w  c #585858",
"e  c #4E4E4E",
"r  c #717171",
"t  c gray36",
"y  c DimGray",
"u  c #808080",
"i  c #838383",
"p  c gray65",
"a  c #8D8D8D",
"s  c #D1D0D0",
"d  c #484848",
"f  c #555555",
"g  c gray48",
"h  c #9E9C9C",
"j  c #676767",
"k  c gray51",
"l  c #7B7B7B",
"z  c #98250A",
"x  c #949393",
"c  c #D3D2D2",
"v  c #DEDDDD",
"b  c #CECECE",
"n  c #464646",
"m  c gray100",
"M  c #A3A2A2",
"N  c #ABAAAA",
"B  c #D37151",
"V  c #B8320E",
"C  c #7F3D34",
"Z  c #761606",
"A  c gray35",
"S  c #8B8B8B",
"D  c #A09F9F",
"F  c #AEADAD",
"G  c #9D9C9C",
"H  c #5F5E5E",
"J  c #D34916",
"K  c #CD4A17",
"L  c #7D1A06",
"P  c #891C06",
"I  c #7E1705",
"U  c #C7664E",
"Y  c #831B06",
"T  c #C4C3C3",
"R  c #C5C3C4",
"E  c #DA4C17",
"W  c #989797",
"Q  c #E9E9E9",
"!  c #8D8C8C",
"~  c #414141",
"^  c #444444",
"/  c #8E8D8D",
"(  c #96270A",
")  c #BD3B11",
"_  c #888787",
"`  c #A22B0B",
"'  c #E1E1E1",
"]  c gray90",
"[  c #FBBF91",
"{  c #E7E7E7",
"}  c #797979",
"|  c #E0DFDF",
" . c #D64A17",
".. c #BCBCBC",
"X. c #80382D",
"o. c #831C06",
"O. c gray73",
"+. c #665E5D",
"@. c #A9300D",
"#. c #DE5D1F",
"$. c #FEF6F1",
"%. c #5F4440",
"&. c #791906",
"*. c gray85",
"=. c #75514C",
"-. c #828181",
";. c #C5C5C5",
":. c #A12C0C",
">. c #B1B1B1",
",. c #CF4816",
"<. c gray49",
"1. c #E4E3E3",
"2. c #DADADA",
"3. c #B5330E",
"4. c #AD2B0B",
"5. c #E76522",
"6. c #A9A9A9",
"7. c #B9B9B9",
"8. c #696868",
"9. c #7F1B06",
"0. c #7C7C7C",
"q. c #CA4615",
"w. c #C54415",
"e. c #E6E5E5",
"r. c #A0A0A0",
"t. c #A5290B",
"y. c #911D07",
"u. c #8C2309",
"i. c #751D0D",
"p. c #811B06",
"a. c #D45019",
"s. c #B3B2B2",
"d. c #F2874F",
"f. c #F69555",
"g. c #FAB98E",
"h. c #E87F4C",
"j. c #D44C18",
"k. c #DD4F19",
"l. c #F47A2A",
"z. c #656565",
"x. c #EEEDED",
"c. c #B3ACAB",
"v. c #E9B2A0",
"b. c #777777",
"n. c #545353",
"m. c #B3482C",
"M. c #939191",
"N. c #CD4D18",
"B. c #929292",
"V. c #EB6722",
"C. c #CA6241",
"Z. c #EF7227",
"A. c #616060",
"S. c #848282",
"D. c #9D827E",
"F. c #713327",
"G. c #703229",
"H. c #F9D5C4",
"J. c #7E372C",
"K. c #626161",
"L. c #7D635F",
"P. c gray89",
"I. c #C1C0C0",
"U. c #B4B3B3",
"Y. c #F6C0A6",
"T. c #5C5B5B",
"R. c #E5E4E4",
"E. c #C0360F",
"W. c #A2A1A1",
"Q. c gray60",
"!. c #A06D63",
"~. c #604D4A",
"^. c #6A4640",
"/. c #FCF3F0",
"(. c #9D2B0C",
"). c #A5A4A4",
"_. c gray80",
"`. c #979696",
"'. c #9D9B9B",
"]. c gray38",
"[. c gray75",
"{. c #803122",
"}. c #F37427",
"|. c #6E2112",
" X c #A7827C",
".X c #E66020",
"XX c #94746F",
"oX c #878585",
"OX c #BAB9B9",
"+X c #5E5554",
"@X c gray62",
"#X c #6E5D5B",
"$X c #992008",
"%X c #CA4817",
"&X c #782F25",
"*X c #9F9FA0",
"=X c #FDF4F0",
"-X c #DFDEDE",
";X c #782312",
":X c #D35932",
">X c #5D4846",
",X c #F5AC89",
"<X c #D9D8D8",
"1X c #864134",
"2X c gray81",
"3X c #79544E",
"4X c gray77",
"5X c #C7BCBA",
"6X c #C5C4C5",
"7X c #881905",
"8X c gray69",
"9X c #807D7D",
"0X c #B1B0B0",
"qX c #71190B",
"wX c #754A44",
"eX c #7A4A44",
"rX c #BD330E",
"tX c #A7A7A7",
"yX c gray88",
"uX c #9A9999",
"iX c gray86",
"pX c #782C20",
"aX c #B2300D",
"sX c #D8D8D8",
"dX c #AC2F0D",
"fX c #E9E8E8",
"gX c #E56421",
"hX c #702318",
"jX c gray66",
"kX c #9B260A",
"lX c #AAA9A9",
"zX c #80706E",
"xX c #B9B8B8",
"cX c #7A1F0C",
"vX c #791B09",
"bX c #E35F1F",
"nX c #7F1805",
"mX c gray30",
"MX c #E5E3E3",
"NX c #AFAFAF",
"BX c #C84515",
"VX c #BB3A11",
"CX c #C34415",
"ZX c #6D6C6C",
"AX c #A62D0C",
"SX c #A62F0D",
"DX c #434242",
"FX c #A1A0A0",
"GX c #A32C0C",
"HX c #A7290B",
"JX c #5F5F5F",
"KX c #921F07",
"LX c gray27",
"PX c #8E2309",
"IX c #DF5D1F",
"UX c #761906",
/* pixels */
"+ + + + + + + + + + + + + + + + + + + + + + + + + + ",
"o o o o o o o o o o o o o o o o o o o o o o o o o o ",
"O O O O O O O O O O O O O O O O O O O O O O O O O O ",
"@ @ @ @ @ @ @ @ @ @ @ @ @ @ @ @ @ @ @ @ @ @ @ @ @ @ ",
"% % % % % % % % % % % % % ; ; ; y % % % % % % % % % ",
"= = = = = = = = = = } q f 0 0 0 0 A.b.u = = = = = = ",
"- - - - - - - - - g t t t +X~.T.H % 0.S Q.- - - - - ",
": : : : : : : : k j j ^.|.&.L UXF.zXB.D N U.: : : : ",
"1 1 1 1 1 1 1 r.r r G.9.z AX@.:.PXi.D.xXI.;._.1 1 1 ",
"2 2 2 2 2 2 sX<.l wXp.` VXq.K w.. ( ;X5Xs c 2.2 2 2 ",
"3 3 3 3 3 3 >.= 9Xi.kX) a.bX5.IXN.. u.!.v v -X4 3 3 ",
"6 6 6 6 6 6 o i L.Y dX,..X}.l.Z.#.CX(.{.e.1.MXx.6 6 ",
"4 4 4 4 4 Q u u 3XX 3.j.V.g.[ f.gX%XSXvX{ ] R.fX4 4 ",
"9 9 9 9 9 b < < =.P aXJ Y.m m $.h.BXGXcXP.' yX| 9 9 ",
"7 7 7 7 7 ..* * #XI HXv.=X,Xd.H./.C.z 1XiX*.<Xc 7 7 ",
"8 8 8 8 8 6.z.q q hXKXU :XE k. .B m.o. Xs 2Xb [.8 8 ",
"5 5 5 5 5 5 y w w >XZ   4.rXE.V t.X X.R 6X4XT *X5 5 ",
"< < < < < < y e e e %.qX7X  $Xy.nXJ.c.O.OX7.s.g < < ",
"; ; ; ; ; ; ; mXn n d +.eX&XpXC XXN F NX8X0Xk ; ; ; ",
", , , , , , , w ^ ~ DXn.ZXS.x uX@XM p jXlXa , , , , ",
"> > > > > > > > A d LXf 8.l / W G FX).tXa JX> > > > ",
"* * * * * * * * * % ].K.r -.M.h W.p M i * * * * * * ",
"& & & & & & & & & & & _ oX! `.'.h x & & & & & & & & ",
"# # # # # # # # # # # # # # # # # # # # # # # # # # ",
"$ $ $ $ $ $ $ $ $ $ $ $ $ $ $ $ $ $ $ $ $ $ $ $ $ $ "
};
