/* XPM */
static char *maximize_prelight[] = {
/* columns rows colors chars-per-pixel */
"26 25 248 2 ",
"   c gray56",
".  c #606060",
"X  c #AAAAA9",
"o  c #CAC9C8",
"O  c #626262",
"+  c gray76",
"@  c #6D6D6D",
"#  c #8A8989",
"$  c #818181",
"%  c gray43",
"&  c #9A9A9A",
"*  c gray40",
"=  c #5D5D5D",
"-  c #B4B4B4",
";  c #5B5B5B",
":  c #CDCDCD",
">  c gray47",
",  c #E4E4E4",
"<  c #F6F6F6",
"1  c gray95",
"2  c #909091",
"3  c #EFEFEF",
"4  c gray87",
"5  c #C6C6C6",
"6  c gray67",
"7  c #072C00",
"8  c #515151",
"9  c gray36",
"0  c DimGray",
"q  c #585858",
"w  c #246901",
"e  c #4E4E4E",
"r  c #717171",
"t  c gray39",
"y  c #808080",
"u  c #D1D0D0",
"i  c #134700",
"p  c #ABAAAA",
"a  c gray100",
"s  c #8D8D8D",
"d  c #CECECE",
"f  c #838383",
"g  c #7B7B7B",
"h  c gray48",
"j  c #676767",
"k  c #464646",
"l  c gray65",
"z  c #9E9C9C",
"x  c #D3D2D2",
"c  c #0F4100",
"v  c #A3A2A2",
"b  c #DEDDDD",
"n  c gray51",
"m  c #445343",
"M  c #185201",
"N  c #949393",
"B  c #104600",
"V  c #555555",
"C  c #0E3D00",
"Z  c #484848",
"A  c #256B01",
"S  c #C5C4C5",
"D  c #616060",
"F  c #B1B0B0",
"G  c #1D5E01",
"H  c #EFF1EE",
"J  c #1C5A01",
"K  c #626161",
"L  c #286601",
"P  c #1A5901",
"I  c #072E00",
"U  c #7F877D",
"Y  c gray69",
"T  c gray89",
"R  c #0A2B03",
"E  c #195501",
"W  c #D9D8D8",
"Q  c #9F9FA0",
"!  c #AEADAD",
"~  c #5E5F5D",
"^  c #104700",
"/  c #404940",
"(  c #072900",
")  c #464C45",
"_  c #AFAFAF",
"`  c #113C01",
"'  c #6E736D",
"]  c #6D6C6C",
"[  c #9D9C9C",
"{  c #083300",
"}  c #9A9999",
"|  c #0D3D00",
" . c #829878",
".. c #B4B3B3",
"X. c #062C00",
"o. c #5F685E",
"O. c #276F01",
"+. c #C4C3C3",
"@. c #DFDEDE",
"#. c #9D9B9B",
"$. c #869D78",
"%. c #062A00",
"&. c #A5A4A4",
"*. c #E7E7E7",
"=. c #1A5701",
"-. c gray75",
";. c #C1CBBB",
":. c #656565",
">. c #7C7C7C",
",. c #8B8B8B",
"<. c #3C5533",
"1. c #B3B2B2",
"2. c #A9A9A9",
"3. c #E0DFDF",
"4. c #B1B1B1",
"5. c gray90",
"6. c #878585",
"7. c #A2A1A1",
"8. c #0E3E00",
"9. c #496C34",
"0. c #144C00",
"q. c #E5E4E4",
"w. c #696868",
"e. c #647561",
"r. c gray49",
"t. c #083100",
"y. c #083000",
"u. c #0C3800",
"i. c #082D00",
"p. c #0A3300",
"a. c #E9E8E8",
"s. c #072A00",
"d. c #124001",
"f. c #0E2B09",
"g. c #E5E3E3",
"h. c #0C2908",
"j. c #5F5F5F",
"k. c #5F5E5E",
"l. c #072901",
"z. c #354C31",
"x. c #E4E3E3",
"c. c #354A33",
"v. c #195701",
"b. c #2D442A",
"n. c #4C584B",
"m. c #545353",
"M. c #4E5A4D",
"N. c #777777",
"B. c #0E3C00",
"V. c #213A1F",
"C. c #0D2C06",
"Z. c #293F22",
"A. c #A0A0A0",
"S. c gray35",
"D. c #B9B9B9",
"F. c #8D8C8C",
"G. c #828181",
"H. c gray88",
"J. c #848282",
"K. c #E6E5E5",
"L. c #263D23",
"P. c #7D897B",
"I. c #436134",
"U. c #545753",
"Y. c gray77",
"T. c #2A6F01",
"R. c #989797",
"E. c #444444",
"W. c #9EAB99",
"Q. c #0B3400",
"!. c #256201",
"~. c #AAA9A9",
"^. c #5B605B",
"/. c gray73",
"(. c #BCBCBC",
"). c #979696",
"_. c #D8D8D8",
"`. c #929292",
"'. c #144B00",
"]. c #414141",
"[. c #888787",
"{. c #132D0F",
"}. c gray80",
"|. c #072803",
" X c #4D6444",
".X c #1E5401",
"XX c #88A078",
"oX c #E1E1E1",
"OX c #0C3900",
"+X c #0E3F00",
"@X c #4A504A",
"#X c #185301",
"$X c #4A5F44",
"%X c #456534",
"&X c gray66",
"*X c #A1B199",
"=X c #797979",
"-X c #8E8D8D",
";X c #B9B8B8",
":X c #195401",
">X c #093400",
",X c #0F4000",
"<X c #DADADA",
"1X c #C1C0C0",
"2X c #193215",
"3X c #ABADAB",
"4X c gray62",
"5X c #13310C",
"6X c gray85",
"7X c #0A3200",
"8X c #F0F3EE",
"9X c #EFF2EE",
"0X c #0D2E07",
"qX c #BAB9B9",
"wX c gray60",
"eX c #A7A7A7",
"rX c #C4C3C4",
"tX c #114A00",
"yX c #092C00",
"uX c #062900",
"iX c #7D7E7C",
"pX c gray86",
"aX c #E9E9E9",
"sX c #EEEDED",
"dX c #434242",
"fX c #0B3700",
"gX c #C5C5C5",
"hX c gray27",
"jX c gray30",
"kX c #707A6F",
"lX c #072B00",
"zX c gray38",
"xX c #939191",
"cX c #1D5201",
"vX c #293E27",
"bX c #A09F9F",
"nX c #154701",
"mX c #A1A0A0",
"MX c #134101",
"NX c #BBBEBA",
"BX c #0B3500",
"VX c #0C3C00",
"CX c #414D3F",
"ZX c #2E452B",
"AX c #2C4922",
"SX c gray81",
"DX c #233E1D",
"FX c #283D25",
/* pixels */
"+ + + + + + + + + + + + + + + + + + + + + + + + + + ",
"                                                    ",
"O O O O O O O O O O O O O O O O O O O O O O O O O O ",
". . . . . . . . . . . . . . . . . . . . . . . . . . ",
"@ @ @ @ @ @ @ @ @ @ @ @ @ * * * 0 @ @ @ @ @ @ @ @ @ ",
"$ $ $ $ $ $ $ $ $ $ =Xt V 8 8 8 8 D N.y $ $ $ $ $ $ ",
"& & & & & & & & & h 9 9 9 U.@X; k.@ >.,.wX& & & & & ",
"- - - - - - - - n j j CX{.( lXl.FX' `.bXp ..- - - - ",
": : : : : : : A.r r vX7 fX+Xc C Q.C.U ;X1XgX}.: : : ",
", , , , , , _.r.g m 7 | '.E P #Xi u.5XNXu x <X, , , ",
"1 1 1 1 1 1 4.$ iXf.OX0.G A O.w J i p.e.b b @.3 1 1 ",
"< < < < < <   f o.7 c v.w !.L T.w M B.DXK.x.g.sX< < ",
"3 3 3 3 3 aXy y M.y.B :XcX$.XX9..X=.,XR *.5.q.a.3 3 ",
"4 4 4 4 4 d > > n.I C MX*Xa a 8XI.d.8.0XT oXH.3.4 4 ",
"5 5 5 5 5 (.% % ^.uXyXW.9X .%X;.H <.7Xz.pX6XW x 5 5 ",
"6 6 6 6 6 2.:.t t 2X7 $XAXnXM `  XZ.s.P.u SXd -.6 6 ",
"2 2 2 2 2 2 0 q q ) |.i.VX^ tXB BX7 ZXrXS Y.+.Q 2 2 ",
"> > > > > > 0 e e e / h.X.{ >Xt.%.b.3X/.qXD.1.h > > ",
"* * * * * * * jXk k Z ~ m L.V.c.kXp ! _ Y F n * * * ",
"; ; ; ; ; ; ; q E.].dXm.] J.N } 4Xv l &X~.s ; ; ; ; ",
"= = = = = = = = S.Z hXV w.g -XR.[ mX&.eXs j.= = = = ",
"% % % % % % % % % @ zXK r G.xXz 7.l v f % % % % % % ",
"# # # # # # # # # # # [.6.F.).#.z N # # # # # # # # ",
"X X X X X X X X X X X X X X X X X X X X X X X X X X ",
"o o o o o o o o o o o o o o o o o o o o o o o o o o "
};
