/* XPM */
static char *maximize_inactive[] = {
/* columns rows colors chars-per-pixel */
"26 25 254 2 ",
"   c gray56",
".  c #626262",
"X  c #606060",
"o  c #CAC9C8",
"O  c #AAAAA9",
"+  c gray76",
"@  c #6D6D6D",
"#  c #8A8989",
"$  c gray43",
"%  c #818181",
"&  c #9A9A9A",
"*  c gray40",
"=  c #5B5B5B",
"-  c #B4B4B4",
";  c #5D5D5D",
":  c #CDCDCD",
">  c gray47",
",  c #E4E4E4",
"<  c #909091",
"1  c #EFEFEF",
"2  c #F6F6F6",
"3  c gray95",
"4  c #C6C6C6",
"5  c gray67",
"6  c gray87",
"7  c #515151",
"8  c gray36",
"9  c #808080",
"0  c gray39",
"q  c #7E966C",
"w  c #4E4E4E",
"e  c DimGray",
"r  c #585858",
"t  c #717171",
"y  c gray49",
"u  c #D1D0D0",
"i  c #7B926E",
"p  c #ABAAAA",
"a  c #DEDDDD",
"s  c #9E9C9C",
"d  c #464646",
"f  c #64765C",
"g  c #A3A2A2",
"h  c #CECECE",
"j  c gray51",
"k  c #838383",
"l  c #7B7B7B",
"z  c #676767",
"x  c gray48",
"c  c #D3D2D2",
"v  c #C5C5C5",
"b  c #788E6B",
"n  c #949393",
"m  c gray65",
"M  c #555555",
"N  c #484848",
"B  c #8D8D8D",
"V  c gray85",
"C  c #D8D8D8",
"Z  c #8B9388",
"A  c #7C9072",
"S  c #AFAFAF",
"D  c #E7E7E7",
"F  c #4B4D4B",
"G  c gray77",
"H  c #767D74",
"J  c #242E22",
"K  c #E9E9E9",
"L  c #868D85",
"P  c #5D7055",
"I  c #777777",
"U  c #81937A",
"Y  c #A0A0A0",
"T  c #A7A7A7",
"R  c #C7C7C6",
"E  c #848282",
"W  c #7B8578",
"Q  c #40503B",
"!  c #9D9C9C",
"~  c #878585",
"^  c #7C946C",
"/  c #91988F",
"(  c #999B97",
")  c #697B63",
"_  c #556051",
"`  c gray73",
"'  c #576155",
"]  c gray75",
"[  c #BCBCBC",
"{  c #E4E3E3",
"}  c #9F9FA0",
"|  c gray38",
" . c #7A906C",
".. c #7B926C",
"X. c #E0DFDF",
"o. c #B1B4B0",
"O. c #4B5747",
"+. c #7F8E7A",
"@. c #788D6D",
"#. c #65785C",
"$. c #B4B3B3",
"%. c #788175",
"&. c #7E9075",
"*. c #666866",
"=. c #74846D",
"-. c gray60",
";. c #687763",
":. c #626261",
">. c #5A6955",
",. c #A2A1A1",
"<. c #C1C0C0",
"1. c #656565",
"2. c gray80",
"3. c #A09F9F",
"4. c #778C6A",
"5. c #989797",
"6. c #797979",
"7. c #EEEDED",
"8. c gray35",
"9. c #788A70",
"0. c #76886E",
"q. c #606260",
"w. c #364432",
"e. c #AEADAD",
"r. c #3A4138",
"t. c #727F6E",
"y. c #6F8169",
"u. c #DFDEDE",
"i. c #1D291B",
"p. c #1E2A1B",
"a. c #3B4937",
"s. c #505F4B",
"d. c #728668",
"f. c #232E21",
"g. c #4A4D4A",
"h. c #5C6958",
"j. c #556251",
"k. c #73806E",
"l. c #4A4E49",
"z. c #A1A0A0",
"x. c #7C8679",
"c. c #565756",
"v. c #8D8C8C",
"b. c #B9B8B8",
"n. c gray66",
"m. c #8B8B8B",
"M. c #B1B1B1",
"N. c #5E6E58",
"B. c #A9A9A9",
"V. c #DADADA",
"C. c #748967",
"Z. c #212D1E",
"A. c gray86",
"S. c #83937D",
"D. c #7D9370",
"F. c #E1E1E1",
"G. c #E5E3E3",
"H. c #D9D8D8",
"J. c #485346",
"K. c #848982",
"L. c gray30",
"P. c #7C7C7C",
"I. c #777876",
"U. c gray88",
"Y. c #475642",
"T. c #828181",
"R. c #5D6D56",
"E. c #4F514F",
"W. c #5D6A59",
"Q. c #B3B2B2",
"!. c #596B52",
"~. c #7D956C",
"^. c #809377",
"/. c #434242",
"(. c #778771",
"). c #585C57",
"_. c #4B5B47",
"`. c #5F5E5E",
"'. c #B5B5B4",
"]. c #768B6C",
"[. c #808F7A",
"{. c #626161",
"}. c gray90",
"|. c #616060",
" X c #696868",
".X c #7C936C",
"XX c #6A7964",
"oX c #A5A4A4",
"OX c #414141",
"+X c gray89",
"@X c #939191",
"#X c #888787",
"$X c #515E4E",
"%X c #394039",
"&X c #444444",
"*X c #4A5647",
"=X c gray81",
"-X c #576054",
";X c #718568",
":X c #7E976C",
">X c gray69",
",X c #E5E4E4",
"<X c #798F6C",
"1X c #BAB9B9",
"2X c #5F6D5B",
"3X c #9D9B9B",
"4X c #9A9999",
"5X c #545F51",
"6X c #6D6C6C",
"7X c #C5C4C5",
"8X c #41473F",
"9X c #AAA9A9",
"0X c #B1B0B0",
"qX c #979696",
"wX c #545353",
"eX c #616C5F",
"rX c #788575",
"tX c #E6E5E5",
"yX c #727E6E",
"uX c #50544F",
"iX c #80996C",
"pX c #8E8D8D",
"aX c #768A6D",
"sX c #5F5F5F",
"dX c #7C8D75",
"fX c #3B4A36",
"gX c #273026",
"hX c #76896F",
"jX c #2C3829",
"kX c #929292",
"lX c #798077",
"zX c #899087",
"xX c #7D9471",
"cX c gray62",
"vX c #7D956D",
"bX c #202B1D",
"nX c #979995",
"mX c #A7ACA5",
"MX c #5B6459",
"NX c #79906C",
"BX c gray27",
"VX c #B9B9B9",
"CX c #5F6E5A",
"ZX c #819476",
"AX c #72816D",
"SX c #636F60",
"DX c #7B8E72",
"FX c #71746F",
"GX c #798C70",
"HX c #565A55",
"JX c #6B7E61",
"KX c #C4C3C3",
"LX c #81927C",
"PX c #E9E8E8",
/* pixels */
"+ + + + + + + + + + + + + + + + + + + + + + + + + + ",
"                                                    ",
". . . . . . . . . . . . . . . . . . . . . . . . . . ",
"X X X X X X X X X X X X X X X X X X X X X X X X X X ",
"@ @ @ @ @ @ @ @ @ @ @ @ @ * * * e @ @ @ @ @ @ @ @ @ ",
"% % % % % % % % % % 6.0 M 7 7 7 7 |.I 9 % % % % % % ",
"& & & & & & & & & x 8 8 8 c.E.= `.@ P.m.-.& & & & & ",
"- - - - - - - - j z z l.gXi.bXf.8XI.kX3.p $.- - - - ",
": : : : : : : Y t t %Xp.w.>.XX;.W.-XnXb.<.v 2.: : : ",
", , , , , , C y l uXZ.CXdX&.DXhX=.k.%.R u c V., , , ",
"3 3 3 3 3 3 M.% y J 2XU ZXxXi 4.JXR.yXmXa a u.1 3 3 ",
"2 2 2 2 2 2   k *.jX[.^.D.vXq .XC.P s.Z tX{ G.7.2 2 ",
"1 1 1 1 1 K 9 9 ).*XS.A i q iXq b #.Q W D }.,XPX1 1 ",
"6 6 6 6 6 h > > HX_ LXGXNX~.:X^ b f fXx.+XF.U.X.6 6 ",
"4 4 4 4 4 [ $ $ q.J.+.9.@. ...<Xd.!.a./ A.V H.c 4 4 ",
"5 5 5 5 5 B.1.0 0 r.rX(.0.aX].;Xf Y.5Xo.u =Xh ] 5 5 ",
"< < < < < < e r r F ' t.AXy.) N._.O.zXv 7XG KX} < < ",
"> > > > > > e w w w g.MXSXh.j.$XeXL '.` 1XVXQ.x > > ",
"* * * * * * * L.d d N :.FXH lXK.( p e.S >X0Xj * * * ",
"= = = = = = = r &XOX/.wX6XE n 4XcXg m n.9XB = = = = ",
"; ; ; ; ; ; ; ; 8.N BXM  Xl pX5.! z.oXT B sX; ; ; ; ",
"$ $ $ $ $ $ $ $ $ @ | {.t T.@Xs ,.m g k $ $ $ $ $ $ ",
"# # # # # # # # # # # #X~ v.qX3Xs n # # # # # # # # ",
"O O O O O O O O O O O O O O O O O O O O O O O O O O ",
"o o o o o o o o o o o o o o o o o o o o o o o o o o "
};
