/* XPM */
static char *right_active[] = {
/* columns rows colors chars-per-pixel */
"4 22 2 1 ",
"  c #E3E2E1",
". c #EDECEB",
/* pixels */
"    ",
"....",
"....",
"....",
"....",
"....",
"....",
"....",
"....",
"....",
"....",
"....",
"....",
"....",
"....",
"....",
"....",
"....",
"....",
"....",
"....",
"...."
};
