/* XPM */
static char *title_1_inactive[] = {
/* columns rows colors chars-per-pixel */
"11 25 25 1 ",
"  c gray43",
". c #E4E4E4",
"X c #5D5D5D",
"o c #626262",
"O c #5B5B5B",
"+ c #606060",
"@ c #AAAAA9",
"# c gray76",
"$ c #9A9A9A",
"% c #B4B4B4",
"& c gray95",
"* c #6D6D6D",
"= c #909091",
"- c #EFEFEF",
"; c gray47",
": c #C6C6C6",
"> c gray67",
", c #8A8989",
"< c gray56",
"1 c #F6F6F6",
"2 c gray87",
"3 c gray40",
"4 c #CAC9C8",
"5 c #818181",
"6 c #CDCDCD",
/* pixels */
"###########",
"<<<<<<<<<<<",
"ooooooooooo",
"+++++++++++",
"***********",
"55555555555",
"$$$$$$$$$$$",
"%%%%%%%%%%%",
"66666666666",
"...........",
"&&&&&&&&&&&",
"11111111111",
"-----------",
"22222222222",
":::::::::::",
">>>>>>>>>>>",
"===========",
";;;;;;;;;;;",
"33333333333",
"OOOOOOOOOOO",
"XXXXXXXXXXX",
"           ",
",,,,,,,,,,,",
"@@@@@@@@@@@",
"44444444444"
};
