/* XPM */
static char *top_right_inactive[] = {
/* columns rows colors chars-per-pixel */
"12 25 26 1 ",
"  c #5B5B5B",
". c #5D5D5D",
"X c #606060",
"o c #626262",
"O c gray40",
"+ c #6D6D6D",
"@ c gray43",
"# c gray47",
"$ c #818181",
"% c #8A8989",
"& c gray56",
"* c #909091",
"= c #9A9A9A",
"- c #AAAAA9",
"; c gray67",
": c #B4B4B4",
"> c gray76",
", c #C6C6C6",
"< c #CAC9C8",
"1 c #CDCDCD",
"2 c gray87",
"3 c #E4E4E4",
"4 c #EFEFEF",
"5 c gray95",
"6 c #F6F6F6",
"7 c None",
/* pixels */
">>>>>>>>>>77",
"&&&&&*&&&&&7",
"oooooooooooo",
".o.o.oooXooo",
"@@@@@+@@+@@@",
"$$$$$#$$#$$$",
"============",
"::::::::::::",
"111111111111",
"333333333333",
"555555556555",
"666666666666",
"444444444445",
"222222222222",
",,,,,,,,,,,,",
";;;;;;;;;;;;",
"************",
"############",
"OOOOOOOOOOOO",
"            ",
"... .... ...",
"@@@@@@@@@@@@",
"%%%%%%%%%%%%",
"-;-----;----",
"<<<<<<<<<<<<"
};
