/* XPM */
static char *top_left_inactive[] = {
/* columns rows colors chars-per-pixel */
"13 25 28 1 ",
"  c #5B5B5B",
". c #5D5D5D",
"X c #606060",
"o c #626262",
"O c gray40",
"+ c #6D6D6D",
"@ c gray43",
"# c gray47",
"$ c #818181",
"% c #8A8989",
"& c gray56",
"* c #909091",
"= c #9A9A9A",
"- c #AAAAA9",
"; c gray67",
": c #B4B4B4",
"> c #B6B6B6",
", c gray76",
"< c #C3C3C3",
"1 c #C6C6C6",
"2 c #CAC9C8",
"3 c #CDCDCD",
"4 c gray87",
"5 c #E4E4E4",
"6 c #EFEFEF",
"7 c gray95",
"8 c #F6F6F6",
"9 c None",
/* pixels */
"99,,,,,,,,,,,",
"9&&&&&&&&&&*&",
"ooooooooooooo",
".o.oo.o.o.o.o",
"@@@+++@+++++@",
"$$$$$#$$$$$$$",
"=============",
">>::>>>>:::::",
"3333333333333",
"5555555555555",
"7777777777777",
"8888888888888",
"6666666666666",
"4444444444444",
"1111111111111",
";;;;;;;;;;;--",
"*************",
"#############",
"OOOOOOOOOOOOO",
"             ",
".............",
"@@@@@@@@@@@@@",
"%%%%%%%%%%%%%",
"-------------",
"2222222222222"
};
