/* XPM */
static char *close_active[] = {
/* columns rows colors chars-per-pixel */
"26 25 213 2 ",
"   c #3F0402",
".  c #4C0302",
"X  c #410D04",
"o  c #530301",
"O  c #5D0201",
"+  c #510C05",
"@  c #4E1008",
"#  c #521006",
"$  c #56140C",
"%  c #5A140C",
"&  c #561A0C",
"*  c #5A1A0C",
"=  c #511615",
"-  c #5B1B11",
";  c #630201",
":  c #6A0201",
">  c #720101",
",  c #7C0202",
"<  c #651C0D",
"1  c #641917",
"2  c #781616",
"3  c #54240A",
"4  c #5D250C",
"5  c #5E360E",
"6  c #5D2512",
"7  c #5F3911",
"8  c #6F250E",
"9  c #63330E",
"0  c #652515",
"q  c #682115",
"w  c #7C2914",
"e  c #613B11",
"r  c #7A3F10",
"t  c #4E2120",
"y  c #5D2020",
"u  c #6C2020",
"i  c #6A2A2A",
"p  c #752020",
"a  c #782A2A",
"s  c #783B2F",
"d  c #793F3E",
"f  c #674213",
"g  c #6B4313",
"h  c #6A4914",
"j  c #715017",
"k  c #765B1B",
"l  c #7C631B",
"z  c #694321",
"x  c #755C43",
"c  c #7D684C",
"v  c #840201",
"b  c #8F0201",
"n  c #8F0C0C",
"m  c #930C0C",
"M  c #871313",
"N  c #8F1214",
"B  c #9D1210",
"V  c #A00E0E",
"C  c #AB1312",
"Z  c #952014",
"A  c #8A3311",
"S  c #8B3219",
"D  c #923313",
"F  c #9C3B1C",
"G  c #A13A14",
"H  c #A23C18",
"J  c #891B22",
"K  c #921C25",
"L  c #8B2C2C",
"P  c #9C2323",
"I  c #912828",
"U  c #9D2929",
"Y  c #A02E2D",
"T  c #A43535",
"R  c #AA3F3F",
"E  c #995F1C",
"W  c #B05B18",
"Q  c #80671B",
"!  c #84691C",
"~  c #8A721E",
"^  c #864C24",
"/  c #864230",
"(  c #8B4330",
")  c #964A32",
"_  c #96403F",
"`  c #A7482A",
"'  c #A9492B",
"]  c #A64436",
"[  c #A55234",
"{  c #AE543C",
"}  c #AF5B3D",
"|  c #826820",
" . c #8E6630",
".. c #846D36",
"X. c #BE7E23",
"o. c #B96E33",
"O. c #C07F24",
"+. c #8C4547",
"@. c #995252",
"#. c #AD524C",
"$. c #B25F4A",
"%. c #AA545F",
"&. c #B35151",
"*. c #B55F5E",
"=. c #976344",
"-. c #847354",
";. c #937B56",
":. c #B5644C",
">. c #B76756",
",. c #B86957",
"<. c #BA6E5F",
"1. c #BB7057",
"2. c #BA715C",
"3. c #AB5560",
"4. c #84776B",
"5. c #B36566",
"6. c #BD7563",
"7. c #BC7668",
"8. c #B47F71",
"9. c #C07B67",
"0. c #C17E6A",
"q. c #CB7776",
"w. c #D17D7D",
"e. c #B09728",
"r. c #AC813A",
"t. c #B8873C",
"y. c #BFA232",
"u. c #C3861C",
"i. c #C1862D",
"p. c #C48928",
"a. c #CC8C28",
"s. c #C5972B",
"d. c #D29733",
"f. c #D49B3A",
"g. c #D3A624",
"h. c #D0A02E",
"j. c #CCAB33",
"k. c #DCBA37",
"l. c #E1B13F",
"z. c #E0C136",
"x. c #E9C936",
"c. c #E0C638",
"v. c #E6CC3A",
"b. c #EFCF3E",
"n. c #EED539",
"m. c #F5D639",
"M. c #AF984D",
"N. c #A28258",
"B. c #8C8075",
"V. c #BD8064",
"C. c #BA806C",
"Z. c #B79466",
"A. c #C48F40",
"S. c #CC9652",
"D. c #D8A94D",
"F. c #D6AC5F",
"G. c #DCB35C",
"H. c #E0BF5A",
"J. c #C48366",
"K. c #C88C6F",
"L. c #C38977",
"P. c #C88C70",
"I. c #CF9A72",
"U. c #CF9D79",
"Y. c #D09D76",
"T. c #DEB762",
"R. c #DCB863",
"E. c #DEB969",
"W. c #D5A876",
"Q. c #D7AD7C",
"!. c #DAB274",
"~. c #DDB972",
"^. c #DAB478",
"/. c #DEBC7C",
"(. c #E0BF72",
"). c #E6C54C",
"_. c #F5D242",
"`. c #FADA43",
"'. c #F0D069",
"]. c #FDE678",
"[. c #B78882",
"{. c #A09184",
"}. c #BEB189",
"|. c #B2A99F",
" X c #DF8F8F",
".X c #C79183",
"XX c #C69A9D",
"oX c #CB9B98",
"OX c #DE9696",
"+X c #D19A99",
"@X c #DA9B9B",
"#X c #E19393",
"$X c #CCA0A5",
"%X c #E5A3A3",
"&X c #EAA4A3",
"*X c #ECAEAD",
"=X c #F1AEAE",
"-X c #F2B5B5",
";X c #F6BDBD",
":X c #F8BEBE",
">X c #F1E69B",
",X c #D1C7BA",
"<X c #EEDFAC",
"1X c #F9C6C5",
"2X c #E2DED1",
"3X c #E7DDDD",
"4X c #FDD1D1",
"5X c #FDF4C1",
"6X c #E9E6DF",
"7X c #EDEADD",
"8X c #EDECEB",
"9X c #FAF8EB",
"0X c #FDFCF6",
/* pixels */
"u.u.u.u.u.u.u.u.u.u.u.u.u.u.u.u.u.u.u.u.u.u.u.u.u.u.",
"g.g.g.g.g.g.g.g.g.g.g.g.g.g.g.g.g.g.g.g.g.g.g.g.g.g.",
"z.z.z.z.z.z.z.z.z.z.z.z.z.z.z.z.z.z.z.z.z.z.z.z.z.z.",
">X>X>X>X>X>X>X>X>X>X>X>X>X>X>X>X>X>X>X>X>X>X>X>X>X>X",
"9X9X9X9X9X9X9X9X9X9X9X9X9X2X2X2X7X9X9X9X9X9X9X9X9X9X",
"0X0X0X0X0X0X0X0X0X0X6X|.B.4.4.4.4.{.,X9X0X0X0X0X0X0X",
"5X5X5X5X5X5X5X5X5X}.-.-.-.c x -.-.;.N.Z.<X5X5X5X5X5X",
"].].].].].].].].M.....z @ o o . 6  .r.t.A.'.].].].].",
"`.`.`.`.`.`.`.y.| | 3 . : v v , ; . E p.a.d._.`.`.`.",
"m.m.m.m.m.m.x.! Q 5 = a L m B I L u # i.d.f.l.m.m.m.",
"m.m.m.m.m.m.e.Q l . u @X%X&.R %X%X_ ; ^ D.D.D.b.m.m.",
"n.n.n.n.n.n.~ l h O > #.=X-X*X:Xq.n , * T.G.G.).n.n.",
"v.v.v.v.v.c.l l e O b B w.1X4X*XT C v o ~.E.E.H.v.v.",
"k.k.k.k.l.j.k k e O v m #X:X1X*XY V , o /.~.~.R.k.k.",
"h.h.h.h.h.s.j j f . : *.&X#X X=Xw., > 0 /.^.!.F.h.h.",
"O.X.X.u.O.p.g e g X d +X@XU P OX@X@.. =.Q.Q.W.S.O.X.",
"W W W W W W r 9 9 3 t i p , v 2 a y 4 U.Y.I.I.o.W W ",
"G G G G G G A 4 4 4 &   o ; : O . * 7.P.K.K.J.H G G ",
"Z Z Z Z Z Z Z < * & * 8 < + # - ( 1.6.9.7.0.] Z Z Z ",
"N N N N N N N M % $ $ < w D G ' { :.>.<.6.#.N N N N ",
"K K K K K K K K J 1 - q w S F ` { $.>.<.#.K K K K K ",
"3.3.3.3.3.3.3.3.3.3.+.s / ) [ } :.2.7.5.3.3.3.3.3.3.",
"$X$X$X$X$X$X$X$X$X$X$XXX[.8.8.L..XoX$X$X$X$X$X$X$X$X",
"3X3X3X3X3X3X3X3X3X3X3X3X3X3X3X3X3X3X3X3X3X3X3X6X3X3X",
"8X8X8X8X8X8X8X8X8X8X8X8X8X8X8X8X8X8X8X8X8X8X8X8X8X8X"
};
