/* XPM */
static char *close_prelight[] = {
/* columns rows colors chars-per-pixel */
"26 25 256 2 ",
"   c #2D0B03",
".  c #81671B",
"X  c #3E0101",
"o  c #490606",
"O  c #421A0F",
"+  c #581A0C",
"@  c #350101",
"#  c #420101",
"$  c #2D0101",
"%  c #250201",
"&  c #661C0E",
"*  c #2A0602",
"=  c #522A2A",
"-  c #310101",
";  c #4F0808",
":  c #290101",
">  c #F1E69B",
",  c #E7DDDD",
"<  c #C3861C",
"1  c #D3A624",
"2  c #EDECEB",
"3  c #E0C136",
"4  c #FAF8EB",
"5  c #CCA0A5",
"6  c #FDFCF6",
"7  c #AB5560",
"8  c #FDF4C1",
"9  c #921C25",
"0  c #FDE678",
"q  c #8F1214",
"w  c #FADA43",
"e  c #952014",
"r  c #F7D639",
"t  c #B05B18",
"y  c #EED539",
"u  c #F3D739",
"i  c #A13A14",
"p  c #C07F24",
"a  c #D0A02E",
"s  c #DCBA37",
"d  c #E6CC3A",
"f  c #84776B",
"g  c #5D250C",
"h  c #715017",
"j  c #846D36",
"k  c #452020",
"l  c #6A4213",
"z  c #826820",
"x  c #AE8787",
"c  c #765B1B",
"v  c #D8A84C",
"b  c #63330E",
"n  c #B29494",
"m  c #847354",
"M  c #7A621C",
"N  c #E2DED0",
"B  c #56140C",
"V  c #DAB274",
"C  c #51360E",
"Z  c #550909",
"A  c #C79183",
"S  c #B69292",
"D  c #FAF8F1",
"F  c #F5D242",
"G  c #AC813A",
"H  c #38211F",
"J  c #C4A3A3",
"K  c #A07777",
"L  c #3E2020",
"P  c #C07B67",
"I  c #551C1C",
"U  c #CF9B73",
"Y  c #B8873C",
"T  c #C88C6F",
"R  c #582B2A",
"E  c #D5A977",
"W  c #5B2B2A",
"Q  c #CAAFAF",
"!  c #EDEADD",
"~  c #896630",
"^  c #964A32",
"/  c #905F1C",
"(  c #C17C69",
")  c #E0C638",
"_  c #F0D069",
"`  c #DCB863",
"'  c #B59999",
"]  c #A55234",
"[  c #B86957",
"{  c #8B6344",
"}  c #471615",
"|  c #A64436",
" . c #B79466",
".. c #A7482A",
"X. c #BE7662",
"o. c #2E0602",
"O. c #5E2424",
"+. c #B09728",
"@. c #A23D17",
"#. c #84691C",
"$. c #CCAB33",
"%. c #C88C70",
"&. c #C0A2A2",
"*. c #7C4C4C",
"=. c #923313",
"-. c #BB8064",
";. c #D1C7BA",
":. c #C5A4A4",
">. c #E3DFD2",
",. c #DCB35C",
"<. c #EFCF3E",
"1. c #DEBA6B",
"2. c #311008",
"3. c #3D180B",
"4. c #976C6C",
"5. c #8A3311",
"6. c #AC534E",
"7. c #641917",
"8. c #D39731",
"9. c #7E2811",
"0. c #CE9A71",
"q. c #864230",
"w. c #452511",
"e. c #857556",
"r. c #390101",
"t. c #DAB478",
"y. c #AD543B",
"u. c #BF9E9E",
"i. c #BB9A9A",
"p. c #543911",
"a. c #E9C936",
"s. c #7A684C",
"d. c #6E250E",
"f. c #682115",
"g. c #E0BF72",
"h. c #B5674D",
"j. c #7A3F10",
"k. c #A09184",
"l. c #AF984D",
"z. c #AA545F",
"x. c #B25F4A",
"c. c #B2A99F",
"v. c #BEB189",
"b. c #705C43",
"n. c #765252",
"m. c #A28258",
"M. c #8C4547",
"N. c #C48F40",
"B. c #CC9652",
"V. c #562020",
"C. c #E1B13F",
"Z. c #DEB762",
"A. c #E0BF5A",
"S. c #B96E33",
"D. c #BE7E23",
"F. c #624913",
"G. c #D09D76",
"H. c #CB9B98",
"J. c #AF5B3D",
"K. c #B76756",
"L. c #CBB5B5",
"P. c #B47F71",
"I. c #8A721E",
"U. c #D29734",
"Y. c #937B56",
"T. c #891B22",
"R. c #D7AD7C",
"E. c #D49B3A",
"W. c #E6C54C",
"Q. c #624213",
"!. c #B78882",
"~. c #591A13",
"^. c #D6AC5F",
"/. c #390F06",
"(. c #CF9D79",
"). c #BE862D",
"_. c #C7ABAB",
"`. c #C9ABAB",
"'. c #6A3F3F",
"]. c #DDB97E",
"[. c #B36566",
"{. c #E9E6DF",
"}. c #871313",
"|. c #C38977",
" X c #734C23",
".X c #783B2F",
"XX c #4A2020",
"oX c #4A2A2A",
"OX c #BFA232",
"+X c #754343",
"@X c #C19F9F",
"#X c #BC7668",
"$X c #9C3B1C",
"%X c #CC8C28",
"&X c #BA806C",
"*X c #B96E5F",
"=X c #571C0A",
"-X c #A88080",
";X c #5A140C",
":X c #837253",
">X c #C48366",
",X c #B99999",
"<X c #B99A9A",
"1X c #BB9999",
"2X c #DCB870",
"3X c #DDBA74",
"4X c #7C631A",
"5X c #7D661B",
"6X c #A23C18",
"7X c #B4614B",
"8X c #4E1C08",
"9X c #5B3E3E",
"0X c #D9AA4E",
"qX c #885E5D",
"wX c #BB7057",
"eX c #BA715C",
"rX c #DDB868",
"tX c #40230A",
"yX c #931E27",
"uX c #331515",
"iX c #3C1005",
"pX c #C27F6C",
"aX c #946969",
"sX c #4F260A",
"dX c #5D4321",
"fX c #8B3219",
"gX c #AD5149",
"hX c #DFBF7A",
"jX c #581C1C",
"kX c #BC7364",
"lX c #5F2A2A",
"zX c #C69A9D",
"xX c #7A2A17",
"cX c #D4A875",
"vX c #EEDFAC",
"bX c #6D4413",
"nX c #824330",
"mX c #582323",
"MX c #480101",
"NX c #4B2514",
"BX c #4B1B10",
"VX c #867454",
"CX c #BB6E5E",
"ZX c #8C8075",
"AX c #A9492B",
"SX c #500606",
"DX c #C9AFAF",
"FX c #C5972B",
"GX c #AE553C",
"HX c #DCB45C",
"JX c #BE9E9E",
"KX c #C48928",
"LX c #BA9A9A",
"PX c #C88B6F",
"IX c #440101",
"UX c #553B11",
/* pixels */
"< < < < < < < < < < < < < < < < < < < < < < < < < < ",
"1 1 1 1 1 1 1 1 1 1 1 1 1 1 1 1 1 1 1 1 1 1 1 1 1 1 ",
"3 3 3 3 3 3 3 3 3 3 3 3 3 3 3 3 3 3 3 3 3 3 3 3 3 3 ",
"> > > > > > > > > > > > > > > > > > > > > > > > > > ",
"4 4 4 4 4 4 4 4 4 4 4 4 4 >.N N ! 4 4 4 4 4 4 4 4 4 ",
"6 6 6 6 6 6 6 6 6 6 {.c.ZXf f f f k.;.D 6 6 6 6 6 6 ",
"8 8 8 8 8 8 8 8 8 v.e.m m s.b.:XVXY.m. .vX8 8 8 8 8 ",
"0 0 0 0 0 0 0 0 l.j j dX2.: $ : w.~ G Y N._ 0 0 0 0 ",
"w w w w w w w OXz z tX: @ # IXX - * / KX%X8.F w w w ",
"r r r r r r a.#.. C uX= W o ; mXR k   ).U.E.C.r r r ",
"u u u u u u +.. 4X* k <Xu.+XlX1XJX'.$  Xv v 0X<.u u ",
"y y y y y y I.5XF.$ r.*.J &.n _.aXo X 3.Z.,.HXW.y y ",
"d d d d d ) M M UX- MX; 4.DXL.n V.Z # $ g.1.rXA.d d ",
"s s s s s $.c c p.$ # o x `.Q ,XI SXX o.hX3X2X` s s ",
"a a a a a FXh h Q.: @ qX@Xx -X:.K X @ NX].t.V ^.a a ",
"p p p p p D.bXl l   9X' i.O.jXS LXn.% { R.E cXB.p p ",
"t t t t t t j.b b sXH oXXXX # } = L O (.G.U 0.S.t t ",
"i i i i i i 5.g g g 8X% : - @ $ % O -.%.T PX>X@.i i ",
"e e e e e e e & + + + d.=XiX/.BXnXwXX.P ( pX| e e e ",
"q q q q q q q }.;XB B & 9.=.6XAXGX7X[ CXkXgXq q q q ",
"9 9 9 9 9 9 9 9 T.7.~.f.xXfX$X..y.x.K.*X6.yX9 9 9 9 ",
"7 7 7 7 7 7 7 7 7 z.M..Xq.^ ] J.h.eX#X[.7 7 7 7 7 7 ",
"5 5 5 5 5 5 5 5 5 5 5 zX!.P.&X|.A H.5 5 5 5 5 5 5 5 ",
", , , , , , , , , , , , , , , , , , , , , , , , , , ",
"2 2 2 2 2 2 2 2 2 2 2 2 2 2 2 2 2 2 2 2 2 2 2 2 2 2 "
};
