/* XPM */
static char *close_pressed[] = {
/* columns rows colors chars-per-pixel */
"26 25 256 2 ",
"   c #A8492B",
".  c #791A07",
"X  c #7F2A11",
"o  c #AE553C",
"O  c #DCB45C",
"+  c #752310",
"@  c #A62E0D",
"#  c #C88B6F",
"$  c #8A1D07",
"%  c #7A1E08",
"&  c #865548",
"*  c #81671B",
"=  c #93290B",
"-  c #7D1705",
";  c #641404",
":  c #581A0C",
">  c #6B1906",
",  c #C3861C",
"<  c #D3A624",
"1  c #E7DDDD",
"2  c #F1E69B",
"3  c #EDECEB",
"4  c #E0C136",
"5  c #FAF8EB",
"6  c #CCA0A5",
"7  c #FDFCF6",
"8  c #AB5560",
"9  c #FDF4C1",
"0  c #FEFEFC",
"q  c #921C25",
"w  c #FDE678",
"e  c #8F1214",
"r  c #FADA43",
"t  c #952014",
"y  c #F7D639",
"u  c #EED539",
"i  c #A13A14",
"p  c #F3D739",
"a  c #B05B18",
"s  c #C07F24",
"d  c #DCBA37",
"f  c #D0A02E",
"g  c #E6CC3A",
"h  c #84776B",
"j  c #5D250C",
"k  c #E5D6CD",
"l  c #63330E",
"z  c #7A621C",
"x  c #56140C",
"c  c #F5F0EC",
"v  c #A32C0C",
"b  c #765B1B",
"n  c #E6D9CE",
"m  c #847354",
"M  c #E2DED0",
"N  c #D8A84C",
"B  c #6A4213",
"V  c #826820",
"C  c #846D36",
"Z  c #715017",
"A  c #7F641A",
"S  c #867454",
"D  c #8E3110",
"F  c #704036",
"G  c #6D4413",
"H  c #661C0E",
"J  c #C5972B",
"K  c #75260F",
"L  c #B47F71",
"P  c #FAF8F1",
"I  c #BB6E5E",
"U  c #714513",
"Y  c #E9C936",
"T  c #C9AD9E",
"R  c #701805",
"E  c #7F270B",
"W  c #CE9A71",
"Q  c #992008",
"!  c #793314",
"~  c #B38C7C",
"^  c #B25F4A",
"/  c #BE7E23",
"(  c #E0BF72",
")  c #905232",
"_  c #AC534E",
"`  c #DCB863",
"'  c #F0D069",
"]  c #7A2A17",
"[  c #682115",
"{  c #DEB762",
"}  c #9E5726",
"|  c #DAB274",
" . c #A9300D",
".. c #D6AC5F",
"X. c #641917",
"o. c #891B22",
"O. c #B0320E",
"+. c #864230",
"@. c #B86957",
"#. c #5F2F24",
"$. c #72210B",
"%. c #D49B3A",
"&. c #B94215",
"*. c #733F12",
"=. c #CCAB33",
"-. c #EEE5DD",
";. c #DDB868",
":. c #C69A9D",
">. c #C07B67",
",. c #D7AD7C",
"<. c #C48928",
"1. c #7D1F08",
"2. c #BA715C",
"3. c #DEBA6B",
"4. c #C17C69",
"5. c #C48366",
"6. c #AD5149",
"7. c #826A4C",
"8. c #601F09",
"9. c #D09D79",
"0. c #761906",
"q. c #7A1C07",
"w. c #783B2F",
"e. c #D5A977",
"r. c #DAB478",
"t. c #8C5A4A",
"y. c #9D3912",
"u. c #943310",
"i. c #5C270A",
"p. c #764436",
"a. c #BEB189",
"s. c #C79183",
"d. c #F5D242",
"f. c #AC813A",
"g. c #B8873C",
"h. c #B09728",
"j. c #BA806C",
"k. c #A09184",
"l. c #B78882",
"z. c #B2938A",
"x. c #AF5B3D",
"c. c #AA545F",
"v. c #805046",
"b. c #794E14",
"n. c #805F44",
"m. c #B2A99F",
"M. c #EDEADD",
"N. c #7C4922",
"B. c #A28258",
"V. c #701504",
"C. c #9C3B1C",
"Z. c #F6F1ED",
"A. c #E3DFD2",
"S. c #D1C7BA",
"D. c #DAC6BD",
"F. c #DDCABE",
"G. c #CC9652",
"H. c #937B56",
"J. c #AB3B12",
"K. c #AF984D",
"L. c #C4A69B",
"P. c #B96E33",
"I. c #EEDFAC",
"U. c #EFCF3E",
"Y. c #A55234",
"T. c #E6C54C",
"R. c #B76756",
"E. c #BFA232",
"W. c #832511",
"Q. c #B36566",
"!. c #8B3219",
"~. c #902309",
"^. c #8C4547",
"/. c #E0BF5A",
"(. c #9D2B0C",
"). c #B79466",
"_. c #DCB870",
"`. c #7F4637",
"'. c #673C34",
"]. c #CC8C28",
"[. c #8A721E",
"{. c #8B472E",
"}. c #872F0E",
"|. c #6E2C0C",
" X c #853517",
".X c #A6641D",
"XX c #871313",
"oX c #A23C18",
"OX c #8C8075",
"+X c #966930",
"@X c #DDB97E",
"#X c #DFBF7A",
"$X c #C88C70",
"%X c #89503C",
"&X c #7A3F10",
"*X c #C38977",
"=X c #E9E6DF",
"-X c #BC7668",
";X c #5D1705",
":X c #AB6A45",
">X c #5A140C",
",X c #CB9B98",
"<X c #93543D",
"1X c #A8775F",
"2X c #967067",
"3X c #A23D17",
"4X c #847253",
"5X c #961E07",
"6X c #DDBA74",
"7X c #C7882D",
"8X c #964A32",
"9X c #9E4730",
"0X c #B4614B",
"qX c #B5674D",
"wX c #854121",
"eX c #E0C638",
"rX c #BB7057",
"tX c #D9AA4E",
"yX c #CCAF9F",
"uX c #E1B13F",
"iX c #831B06",
"pX c #C27F6C",
"aX c #C18164",
"sX c #A0786A",
"dX c #84691C",
"fX c #C48F40",
"gX c #BC7364",
"hX c #591A13",
"jX c #BE7662",
"kX c #651B0E",
"lX c #D09D76",
"zX c #A64436",
"xX c #731D07",
"cX c #D39731",
"vX c #D29734",
"bX c #7D1A06",
"nX c #793929",
"mX c #764212",
"MX c #D4A875",
"NX c #CF9B73",
"BX c #81230B",
"VX c #862009",
"CX c #8A3311",
"ZX c #8B250A",
"AX c #6E1C07",
"SX c #8F5B4A",
"DX c #874422",
"FX c #857556",
"GX c #7D661B",
"HX c #B96E5F",
"JX c #9A3811",
"KX c #723C0F",
"LX c #923313",
"PX c #7E2309",
"IX c #881B07",
"UX c #931E27",
/* pixels */
", , , , , , , , , , , , , , , , , , , , , , , , , , ",
"< < < < < < < < < < < < < < < < < < < < < < < < < < ",
"4 4 4 4 4 4 4 4 4 4 4 4 4 4 4 4 4 4 4 4 4 4 4 4 4 4 ",
"2 2 2 2 2 2 2 2 2 2 2 2 2 2 2 2 2 2 2 2 2 2 2 2 2 2 ",
"5 5 5 5 5 5 5 5 5 5 5 5 5 A.M M M.5 5 5 5 5 5 5 5 5 ",
"7 7 7 7 7 7 7 7 7 7 =Xm.OXh h h h k.S.P 7 7 7 7 7 7 ",
"9 9 9 9 9 9 9 9 9 a.FXm m 7.n.4XS H.B.).I.9 9 9 9 9 ",
"w w w w w w w w K.C C N.$.. bX0.! +Xf.g.fX' w w w w ",
"r r r r r r r E.V V |.R VX@  .= 1.> .X<.].cXd.r r r ",
"y y y y y y Y dX* KX#.& SXu.y.%Xt.p.AX7XvX%.uXy y y ",
"p p p p p p h.* A > p.0 0 1X) c 0 sXxX} N N tXU.p p ",
"u u u u u u [.GXb.iXPX~ 0 Z.n 0 T D (.X { O O T.u u ",
"g g g g g eXz z mX$ O.JXyX0 0 n DX&.@ . ( 3.;./.g g ",
"d d d d d =.b b *.$ v }.k 0 0 -.wXJ.v q.#X6X_.` d d ",
"f f f f f J Z Z U - % L.0 k F.0 D.E ~. X@Xr.| ..f f ",
"s s s s s / G B B ;X2X0 0 <X{.c 0 z.; :X,.e.MXG.s s ",
"a a a a a a &Xl l i.'.v.`.ZX= nX& F K 9.lXNXW P.a a ",
"i i i i i i CXj j j 8.; - 5XQ IXV.+ aX$X$X# 5.3Xi i ",
"t t t t t t t kX: : : K BXq.q.W.9XrXjX>.4.pXzXt t t ",
"e e e e e e e XX>Xx x H X LXoX  o 0X@.I gX6.e e e e ",
"q q q q q q q q o.X.hX[ ] !.C.  o ^ R.HX_ UXq q q q ",
"8 8 8 8 8 8 8 8 8 c.^.w.+.8XY.x.qX2.-XQ.8 8 8 8 8 8 ",
"6 6 6 6 6 6 6 6 6 6 6 :.l.L j.*Xs.,X6 6 6 6 6 6 6 6 ",
"1 1 1 1 1 1 1 1 1 1 1 1 1 1 1 1 1 1 1 1 1 1 1 1 1 1 ",
"3 3 3 3 3 3 3 3 3 3 3 3 3 3 3 3 3 3 3 3 3 3 3 3 3 3 "
};
