/* XPM */
static char *close_inactive[] = {
/* columns rows colors chars-per-pixel */
"26 25 256 2 ",
"   c #9C4011",
".  c #742C0C",
"X  c #63250A",
"o  c #431606",
"O  c #AE5118",
"+  c #7C310C",
"@  c #B15318",
"#  c #7D651B",
"$  c #963F11",
"%  c #AE553C",
"&  c #DCB45C",
"*  c #85330E",
"=  c #6A280A",
"-  c #C88B6F",
";  c #B65A1D",
":  c #782F0C",
">  c #B3571B",
",  c #5D250C",
"<  c #A74A15",
"1  c #6E2B0B",
"2  c #86360E",
"3  c #451806",
"4  c #89370E",
"5  c #81671B",
"6  c #82350E",
"7  c #581A0C",
"8  c #8E390F",
"9  c #8B3A10",
"0  c #661C0E",
"q  c #762E0B",
"w  c #E7DDDD",
"e  c #F1E69B",
"r  c #EDECEB",
"t  c #D3A624",
"y  c #E0C136",
"u  c #C3861C",
"i  c #FAF8EB",
"p  c #CCA0A5",
"a  c #FDFCF6",
"s  c #AB5560",
"d  c #FDF4C1",
"f  c #FDE678",
"g  c #921C25",
"h  c #8F1214",
"j  c #FADA43",
"k  c #952014",
"l  c #F7D639",
"z  c #A13A14",
"x  c #F3D739",
"c  c #EED539",
"v  c #B05B18",
"b  c #DCBA37",
"n  c #D0A02E",
"m  c #C07F24",
"M  c #E6CC3A",
"N  c #84776B",
"B  c #715017",
"V  c #E2DED0",
"C  c #765B1B",
"Z  c #63330E",
"A  c #847354",
"S  c #D8A84C",
"D  c #56140C",
"F  c #7A621C",
"G  c #B55A1B",
"H  c #6A4213",
"J  c #846D36",
"K  c #826820",
"L  c #AC4F16",
"P  c #BB6E5E",
"I  c #A04615",
"U  c #926B31",
"Y  c #7A3F10",
"T  c #DDB97E",
"R  c #8C4547",
"E  c #624213",
"W  c #937B56",
"Q  c #964A32",
"!  c #AA4B18",
"~  c #F5D242",
"^  c #D4A875",
"/  c #995430",
"(  c #867555",
")  c #B96E5F",
"_  c #E9E6DF",
"`  c #C79183",
"'  c #E1B13F",
"]  c #B47F71",
"[  c #DCB863",
"{  c #EEDFAC",
"}  c #B4614B",
"|  c #B46C4B",
" . c #C5972B",
".. c #DAB274",
"X. c #B36566",
"o. c #AD6045",
"O. c #DEB762",
"+. c #B65F1D",
"@. c #D1C7BA",
"#. c #BB7057",
"$. c #E0BF5A",
"%. c #5B2C0B",
"&. c #C27F6C",
"*. c #931E27",
"=. c #B6653A",
"-. c #864230",
";. c #D19F7A",
":. c #B78882",
">. c #93471C",
",. c #BA806C",
"<. c #E0C638",
"1. c #871313",
"2. c #542209",
"3. c #AC534E",
"4. c #C69A9D",
"5. c #C07B67",
"6. c #AF4F18",
"7. c #D6AC5F",
"8. c #702B0B",
"9. c #B35419",
"0. c #BE7662",
"q. c #D09D76",
"w. c #F0D069",
"e. c #DDB868",
"r. c #AD4C15",
"t. c #B26846",
"y. c #AF5320",
"u. c #B45C26",
"i. c #614012",
"p. c #954115",
"a. c #84691C",
"s. c #9F512C",
"d. c #AC813A",
"f. c #B8873C",
"g. c #A55234",
"h. c #A05B38",
"j. c #BFA232",
"k. c #AD5B30",
"l. c #6D4413",
"z. c #E6C54C",
"x. c #591A13",
"c. c #E9C936",
"v. c #B2A99F",
"b. c #48200C",
"n. c #AF5B3D",
"m. c #56300E",
"M. c #5F3615",
"N. c #AA545F",
"B. c #B25F4A",
"V. c #BEB189",
"C. c #A28258",
"Z. c #A09184",
"A. c #A23C18",
"S. c #994318",
"D. c #6B4F15",
"F. c #CB9B98",
"G. c #C48366",
"H. c #C5886C",
"J. c #CA8D30",
"K. c #E0BF72",
"L. c #694A23",
"P. c #C48F40",
"I. c #CC9652",
"U. c #B79466",
"Y. c #A64436",
"T. c #B76756",
"R. c #783B2F",
"E. c #B86957",
"W. c #8A721E",
"Q. c #923313",
"!. c #9C3B1C",
"~. c #891B22",
"^. c #8A3311",
"/. c #8B3219",
"(. c #72270F",
"). c #8C8075",
"_. c #DAB478",
"`. c #D7AD7C",
"'. c #D49B3A",
"]. c #B66437",
"[. c #B96E33",
"{. c #A76D46",
"}. c #B2561C",
"|. c #984213",
" X c #EFCF3E",
".X c #984316",
"XX c #9E4614",
"oX c #7D6A4D",
"OX c #AF5826",
"+X c #DFBF7A",
"@X c #A64E22",
"#X c #A7482A",
"$X c #A9492B",
"%X c #EDEADD",
"&X c #C38977",
"*X c #C88C70",
"=X c #BE7E23",
"-X c #A1603C",
";X c #AC613F",
":X c #521C07",
">X c #B09728",
",X c #766045",
"<X c #AF984D",
"1X c #BC7668",
"2X c #CC8C28",
"3X c #C48928",
"4X c #913C0F",
"5X c #A84E1B",
"6X c #A23D17",
"7X c #837254",
"8X c #B25E32",
"9X c #9C4E2C",
"0X c #DCB870",
"qX c #5A140C",
"wX c #DDBA74",
"eX c #A36843",
"rX c #A94E16",
"tX c #CCAB33",
"yX c #E3DFD2",
"uX c #B25A28",
"iX c #B5674D",
"pX c #C2926B",
"aX c #74300C",
"sX c #D9AA4E",
"dX c #BA715C",
"fX c #DEBA6B",
"gX c #AE6441",
"hX c #A76C1F",
"jX c #B5581A",
"kX c #FAF8F1",
"lX c #B6591A",
"zX c #B65B1C",
"xX c #684513",
"cX c #C17C69",
"vX c #AD5149",
"bX c #641917",
"nX c #8F3D11",
"mX c #924119",
"MX c #BC7364",
"NX c #A04212",
"BX c #D39731",
"VX c #D29734",
"CX c #7A2A17",
"ZX c #B67E45",
"AX c #7E2811",
"SX c #AD4C16",
"DX c #B46843",
"FX c #D5A977",
"GX c #AC5020",
"HX c #CE9A71",
"JX c #B45B23",
"KX c #995533",
"LX c #682115",
"PX c #634011",
"IX c #974112",
"UX c #CF9B73",
/* pixels */
"u u u u u u u u u u u u u u u u u u u u u u u u u u ",
"t t t t t t t t t t t t t t t t t t t t t t t t t t ",
"y y y y y y y y y y y y y y y y y y y y y y y y y y ",
"e e e e e e e e e e e e e e e e e e e e e e e e e e ",
"i i i i i i i i i i i i i yXV V %Xi i i i i i i i i ",
"a a a a a a a a a a _ v.).N N N N Z.@.kXa a a a a a ",
"d d d d d d d d d V.( A A oX,X7X( W C.U.{ d d d d d ",
"f f f f f f f f <XJ J L.b.o o 3 M.U d.f.P.w.f f f f ",
"j j j j j j j j.K K m.o X 2 $ 4X6 aXhX3X2XBX~ j j j ",
"l l l l l l c.a.5 PX3 4 k.8XOX5XI .X>.J.VX'.' l l l ",
"x x x x x x >X5 # 3 4 DX].u.}.L XX9 p.ZXS S sX Xx x ",
"c c c c c c W.# D.:XgX=.JX; G > rXnX+ eXO.& & z.c c ",
"M M M M M <.F F E 1 | uX}.zX+.G O |.1 KXK.fXe.$.M M ",
"b b b b b tXC C i.: t.y.@ lXzXjXO IX= / +XwX0X[ b b ",
"n n n n n  .B B xX= ;XGX6.@ 9.@ < 9 X {.T _...7.n n ",
"m m m m m =Xl.H H 2.s.@X! SXr.< $ . q pX`.FX^ I.m m ",
"v v v v v v Y Z Z %.q S.NXNX  8 : 8.-X;.q.UXHX[.v v ",
"z z z z z z ^., , , , : 2 * + : 6 h.H.*X*X- G.6Xz z ",
"k k k k k k k 0 7 7 7 (.* 8 mX9Xo.#.0.5.cX&.Y.k k k ",
"h h h h h h h 1.qXD D 0 AXQ.A.$X% } E.P MXvXh h h h ",
"g g g g g g g g ~.bXx.LXCX/.!.#X% B.T.) 3.*.g g g g ",
"s s s s s s s s s N.R R.-.Q g.n.iXdX1XX.s s s s s s ",
"p p p p p p p p p p p 4.:.] ,.&X` F.p p p p p p p p ",
"w w w w w w w w w w w w w w w w w w w w w w w w w w ",
"r r r r r r r r r r r r r r r r r r r r r r r r r r "
};
