/* XPM */
static char *hide_pressed[] = {
/* columns rows colors chars-per-pixel */
"27 25 256 2 ",
"   c #8C3311",
".  c #867555",
"X  c #7E651B",
"o  c #BA6E5F",
"O  c #A4531D",
"+  c #A8492B",
"@  c #8E2309",
"#  c #DDC9C0",
"$  c #7A1A06",
"%  c #9A260A",
"&  c #7F2A11",
"*  c #95270B",
"=  c #BC3B11",
"-  c #741504",
";  c #AE553C",
":  c #DCB45C",
">  c #8A1D07",
",  c #C34516",
"<  c #7A1C08",
"1  c #C88B6F",
"2  c #822612",
"3  c #751A06",
"4  c #921E07",
"5  c #A36C51",
"6  c #DF5D1F",
"7  c #821B06",
"8  c #81671B",
"9  c #581A0C",
"0  c #961F07",
"q  c #B23710",
"w  c #661C0E",
"e  c #D3A624",
"r  c #E7DDDD",
"t  c #E0C136",
"y  c #F1E69B",
"u  c #C3861C",
"i  c #EDECEB",
"p  c #FAF8EB",
"a  c #CCA0A5",
"s  c #FDFCF6",
"d  c #AB5560",
"f  c #FDF4C1",
"g  c #921C25",
"h  c #FDE678",
"j  c #8F1214",
"k  c #FADA43",
"l  c #952014",
"z  c #F7D639",
"x  c #A13A14",
"c  c #B05B18",
"v  c #F3D739",
"b  c #EED539",
"n  c #E6CC3A",
"m  c #D0A02E",
"M  c #C07F24",
"N  c #DCBA37",
"B  c #84776B",
"V  c #5D250C",
"C  c #765B1B",
"Z  c #715017",
"A  c #7A621C",
"S  c #6A4213",
"D  c #826820",
"F  c #63330E",
"G  c #847354",
"H  c #56140C",
"J  c #E2DED0",
"K  c #7F1B06",
"L  c #846D36",
"P  c #D8A84C",
"I  c #D39731",
"U  c #DECCC1",
"Y  c #641917",
"T  c #8E280B",
"R  c #DAB274",
"E  c #E3DFD2",
"W  c #CD4D18",
"Q  c #E9E6DF",
"!  c #A5290B",
"~  c #826A4C",
"^  c #9B644E",
"/  c #7F1805",
"(  c #AC3610",
")  c #AB6A45",
"_  c #D6AC5F",
"`  c #F0D069",
"'  c #E6C54C",
"]  c #5E2416",
"[  c #783B2F",
"{  c #C18164",
"}  c #E0BF5A",
"|  c #EEDFAC",
" . c #DDBA74",
".. c #B25F4A",
"X. c #F5D242",
"o. c #9E5726",
"O. c #B86957",
"+. c #B47F71",
"@. c #682115",
"#. c #C0360F",
"$. c #D8C5BE",
"%. c #C54415",
"&. c #D9AA4E",
"*. c #BC7668",
"=. c #81230B",
"-. c #B09728",
";. c #C38977",
":. c #793314",
">. c #E35F1F",
",. c #A6641D",
"<. c #591A13",
"1. c #994316",
"2. c #BC4114",
"3. c #C7882D",
"4. c #9E4730",
"5. c #B5674D",
"6. c #A12C0C",
"7. c #E76522",
"8. c #782009",
"9. c #C17C69",
"0. c #813316",
"q. c #992008",
"w. c #BE7662",
"e. c #881905",
"r. c #D4A875",
"t. c #B8320E",
"y. c #DFCCC1",
"u. c #CE9A71",
"i. c #9B2C0C",
"p. c #9D2B0C",
"a. c #7D1A06",
"s. c #966930",
"d. c #C79183",
"f. c #AC813A",
"g. c #B8873C",
"h. c #8C4547",
"j. c #805F44",
"k. c #A9300D",
"l. c #CA4615",
"z. c #C07B67",
"x. c #864230",
"c. c #E1B13F",
"v. c #CC9652",
"b. c #AA545F",
"n. c #B2A99F",
"m. c #BEB189",
"M. c #937B56",
"N. c #9C3B1C",
"B. c #7E1705",
"V. c #E0C638",
"C. c #A28258",
"Z. c #AF984D",
"A. c #B78882",
"S. c #A23C18",
"D. c #C48F40",
"F. c #BA806C",
"G. c #D45019",
"H. c #DEB762",
"J. c #DCB863",
"K. c #B96E33",
"L. c #D1C7BA",
"P. c #CCAB33",
"I. c #A55234",
"U. c #AF5B3D",
"Y. c #B76756",
"T. c #714513",
"R. c #7A2A17",
"E. c #8A721E",
"W. c #74260E",
"Q. c #B33810",
"!. c #FAF8F1",
"~. c #891B22",
"^. c #DEBA6B",
"/. c #652B0B",
"(. c #905B4B",
"). c #8B3219",
"_. c #5A140C",
"`. c #D7AD7C",
"'. c #794010",
"]. c #794E14",
"[. c #7C4922",
"{. c #A09184",
"}. c #CC8C28",
"|. c #8C8075",
" X c #871313",
".X c #84691C",
"XX c #DDB97E",
"oX c #DFBF7A",
"OX c #EDEADD",
"+X c #C88C70",
"@X c #733F12",
"#X c #7A3F10",
"$X c #BFA232",
"%X c #923313",
"&X c #C69A9D",
"*X c #CB9B98",
"=X c #D49B3A",
"-X c #A23D17",
";X c #AC534E",
":X c #BA715C",
">X c #F37427",
",X c #F47A2A",
"<X c #847253",
"1X c #A64436",
"2X c #DCB870",
"3X c #752F0D",
"4X c #C48928",
"5X c #C5972B",
"6X c #964A32",
"7X c #BE7E23",
"8X c #7A4639",
"9X c #C04314",
"0X c #6F1906",
"qX c #B79466",
"wX c #B4614B",
"eX c #EFCF3E",
"rX c #A22B0B",
"tX c #A62D0C",
"yX c #BB7057",
"uX c #DDB868",
"iX c #A65A20",
"pX c #E66020",
"aX c #931E27",
"sX c #72210B",
"dX c #EF7227",
"fX c #C27F6C",
"gX c #A46F52",
"hX c #955E4B",
"jX c #873110",
"kX c #C48366",
"lX c #E9C936",
"zX c #AD5149",
"xX c #E0BF72",
"cX c #BC7364",
"vX c #69220A",
"bX c #D09D76",
"nX c #D09D79",
"mX c #D29734",
"MX c #711C06",
"NX c #761C07",
"BX c #DAC6BE",
"VX c #822A12",
"CX c #764212",
"ZX c #D5A977",
"AX c #BD330E",
"SX c #B36566",
"DX c #DFCDC1",
"FX c #9E664E",
"GX c #CF9B73",
"HX c #9D4517",
"JX c #6D4413",
"KX c #DAB478",
"LX c #9D290B",
"PX c #AD2B0B",
"IX c #AC2F0D",
"UX c #CE4917",
/* pixels */
"u u u u u u u u u u u u u u u u u u u u u u u u u u u ",
"e e e e e e e e e e e e e e e e e e e e e e e e e e e ",
"t t t t t t t t t t t t t t t t t t t t t t t t t t t ",
"y y y y y y y y y y y y y y y y y y y y y y y y y y y ",
"p p p p p p p p p p p p p p E J J OXp p p p p p p p p ",
"s s s s s s s s s s s Q n.|.B B B B {.L.!.s s s s s s ",
"f f f f f f f f f f m.. G G ~ j.<X. M.C.qX| f f f f f ",
"h h h h h h h h h Z.L L [.sX$ a.3 :.s.f.g.D.` h h h h ",
"k k k k k k k k $XD D 3XK % tXk.6.@ NX,.4X}.I X.k k k ",
"z z z z z z z lX.X8 '.7 rX= l.UX%.q * 8.3.mX=Xc.z z z ",
"v v v v v v v -.8 X 3 % = G.>.7.6 W q @ o.P P &.eXv v ",
"b b b b b b b E.X ].7 IXUXpX>X,XdX6 , p.& H.: : ' b b ",
"n n n n n n V.A A CX> i.  HXO iXO 1.jXT $ xX^.uX} n n ",
"N N N N N N P.C C @X> 8.BX# y.DXU # $.8X0XoX .2XJ.N N ",
"m m m m m m 5XZ Z T.B.@ hXFX5 gX5 ^ (.] 0.XXKXR _ m m ",
"M M M M M M 7XJXS S MX4 LXQ.9X, 2.( * K ) `.ZXr.v.M M ",
"c c c c c c c #XF F /.- 0 PXAX#.t.! > VXnXbXGXu.K.c c ",
"x x x x x x x   V V V vX- e.0 q.4 / 2 { +X+X1 kX-Xx x ",
"l l l l l l l l w 9 9 9 W.=.$ < 2 4.yXw.z.9.fX1Xl l l ",
"j j j j j j j j  X_.H H w & %XS.+ ; wXO.o cXzXj j j j ",
"g g g g g g g g g ~.Y <.@.R.).N.+ ; ..Y.o ;XaXg g g g ",
"d d d d d d d d d d b.h.[ x.6XI.U.5.:X*.SXd d d d d d ",
"a a a a a a a a a a a a &XA.+.F.;.d.*Xa a a a a a a a ",
"r r r r r r r r r r r r r r r r r r r r r r r r r r r ",
"i i i i i i i i i i i i i i i i i i i i i i i i i i i "
};
