/* XPM */
static char *hide_prelight[] = {
/* columns rows colors chars-per-pixel */
"27 25 256 2 ",
"   c #021D53",
".  c #044176",
"X  c #043469",
"o  c #81671B",
"O  c #03295E",
"+  c #02153E",
"@  c #455A71",
"#  c #581A0C",
"$  c #09112E",
"%  c #080D2E",
"&  c #03264A",
"*  c #021E4F",
"=  c #661C0E",
"-  c #011541",
";  c #030E31",
":  c #021133",
">  c #032E52",
",  c #010E34",
"<  c #021A4B",
"1  c #010E38",
"2  c #01133D",
"3  c #01113E",
"4  c #011039",
"5  c #01103D",
"6  c #010F36",
"7  c #010D35",
"8  c #D3A624",
"9  c #C3861C",
"0  c #EDECEB",
"q  c #F1E69B",
"w  c #E0C136",
"e  c #E7DDDD",
"r  c #FAF8EB",
"t  c #CCA0A5",
"y  c #FDFCF6",
"u  c #AB5560",
"i  c #FDF4C1",
"p  c #FDE678",
"a  c #921C25",
"s  c #8F1214",
"d  c #952014",
"f  c #FADA43",
"g  c #F7D639",
"h  c #EED539",
"j  c #A13A14",
"k  c #B05B18",
"l  c #F3D739",
"z  c #E6CC3A",
"x  c #D0A02E",
"c  c #C07F24",
"v  c #DCBA37",
"b  c #84776B",
"n  c #5D250C",
"m  c #021744",
"M  c #715017",
"N  c #826820",
"B  c #56140C",
"V  c #E2DED0",
"C  c #D8A84C",
"Z  c #022558",
"A  c #847354",
"S  c #765B1B",
"D  c #7A621C",
"F  c #846D36",
"G  c #BCC5CD",
"H  c #63330E",
"J  c #6A4213",
"K  c #EFCF3E",
"L  c #04356C",
"P  c #45566E",
"I  c #C48366",
"U  c #B47F71",
"Y  c #BE7662",
"T  c #BA715C",
"R  c #DCB45C",
"E  c #E0BF5A",
"W  c #D1C7BA",
"Q  c #F5D242",
"!  c #033355",
"~  c #A09184",
"^  c #60523D",
"/  c #CF9D79",
"(  c #DFBF7A",
")  c #AC813A",
"_  c #EEDFAC",
"`  c #2E2C31",
"'  c #E6C54C",
"]  c #B96E33",
"[  c #BCC5CC",
"{  c #04386E",
"}  c #7A2A17",
"|  c #BCC1C9",
" . c #783B2F",
".. c #AD5149",
"X. c #DAB274",
"o. c #866229",
"O. c #C07B67",
"+. c #871313",
"@. c #CB9B98",
"#. c #455166",
"$. c #B09728",
"%. c #931E27",
"&. c #5A140C",
"*. c #A64436",
"=. c #864230",
"-. c #4A201F",
";. c #D49B3A",
":. c #7C641C",
">. c #B4614B",
",. c #B98167",
"<. c #171628",
"1. c #D6AC5F",
"2. c #8A3311",
"3. c #021948",
"4. c #011240",
"5. c #AA545F",
"6. c #D29734",
"7. c #D4A875",
"8. c #463C23",
"9. c #CE9A71",
"0. c #043369",
"q. c #021C40",
"w. c #032355",
"e. c #A7482A",
"r. c #BCC3CB",
"t. c #AD543B",
"y. c #DCB35C",
"u. c #2D2532",
"i. c #011647",
"p. c #021746",
"a. c #B79466",
"s. c #AF984D",
"d. c #BFA232",
"f. c #9C3B1C",
"g. c #B25F4A",
"h. c #BBC1C8",
"j. c #B78882",
"k. c #B86957",
"l. c #C48F40",
"z. c #514733",
"x. c #867454",
"c. c #7F6756",
"v. c #DEB762",
"b. c #DCB863",
"n. c #CCAB33",
"m. c #AF5B3D",
"M. c #5D431B",
"N. c #0D1530",
"B. c #BE7E23",
"V. c #A55234",
"C. c #C38977",
"Z. c #B76756",
"A. c #8C4547",
"S. c #1D2234",
"D. c #8A721E",
"F. c #7A453E",
"G. c #891B22",
"H. c #2D2B29",
"J. c #6A5E4C",
"K. c #38212E",
"L. c #302C35",
"P. c #DDBA74",
"I. c #C27F6C",
"U. c #032B62",
"Y. c #D7AD7C",
"T. c #964A32",
"R. c #5A4C20",
"E. c #BB8731",
"W. c #B8873C",
"Q. c #A23C18",
"!. c #DDB97E",
"~. c #E9E6DF",
"^. c #EDEADD",
"/. c #C88C70",
"(. c #C5972B",
"). c #923313",
"_. c #C69A9D",
"`. c #C48928",
"'. c #CC8C28",
"]. c #827254",
"[. c #E0BF72",
"{. c #FAF8F1",
"}. c #A23D17",
"|. c #786950",
" X c #591A13",
".X c #4A2016",
"XX c #4E2A14",
"oX c #021B4F",
"OX c #DCB870",
"+X c #4A3F23",
"@X c #A28258",
"#X c #D5A977",
"$X c #F0D069",
"%X c #7D661B",
"&X c #343D51",
"*X c #E3DFD2",
"=X c #B5674D",
"-X c #846837",
";X c #BA806C",
":X c #E9C936",
">X c #D9AA4E",
",X c #02265B",
"<X c #BB7057",
"1X c #DDB868",
"2X c #DEBA6B",
"3X c #7A3F10",
"4X c #C17C69",
"5X c #B36566",
"6X c #BC7668",
"7X c #84691C",
"8X c #8B3219",
"9X c #AC534E",
"0X c #DAB478",
"qX c #641917",
"wX c #BC7364",
"eX c #271627",
"rX c #E1B13F",
"tX c #D39731",
"yX c #044579",
"uX c #7E2811",
"iX c #8C8075",
"pX c #03275D",
"aX c #682115",
"sX c #6C2611",
"dX c #CF9B73",
"fX c #6D4413",
"gX c #BEB189",
"hX c #8C7856",
"jX c #B96E5F",
"kX c #BB6E5E",
"lX c #021843",
"zX c #121C33",
"xX c #021846",
"cX c #455B72",
"vX c #022053",
"bX c #032456",
"nX c #13192F",
"mX c #A9492B",
"MX c #032658",
"NX c #D09D76",
"BX c #BCC3CA",
"VX c #C79183",
"CX c #4A3C22",
"ZX c #455268",
"AX c #071130",
"SX c #AE553C",
"DX c #22162A",
"FX c #CC9652",
"GX c #2E2131",
"HX c #45566C",
"JX c #021D4C",
"KX c #E0C638",
"LX c #01184A",
"PX c #B2A99F",
"IX c #C88B6F",
"UX c #011B3D",
/* pixels */
"9 9 9 9 9 9 9 9 9 9 9 9 9 9 9 9 9 9 9 9 9 9 9 9 9 9 9 ",
"8 8 8 8 8 8 8 8 8 8 8 8 8 8 8 8 8 8 8 8 8 8 8 8 8 8 8 ",
"w w w w w w w w w w w w w w w w w w w w w w w w w w w ",
"q q q q q q q q q q q q q q q q q q q q q q q q q q q ",
"r r r r r r r r r r r r r r *XV V ^.r r r r r r r r r ",
"y y y y y y y y y y y ~.PXiXb b b b ~ W {.y y y y y y ",
"i i i i i i i i i i gXx.A A |.J.].x.hX@Xa._ i i i i i ",
"p p p p p p p p p s.F F z.nX, , ; ` -X) W.l.$Xp p p p ",
"f f f f f f f f d.N N H.6 - 3.< xX2 AXo.`.'.tXQ f f f ",
"g g g g g g g :X7Xo 8.6 p.vX,XpXZ * - N.E.6.;.rXg g g ",
"l l l l l l l $.o :.$ - vXU.L { X O * 2 ^ C C >XK l l ",
"h h h h h h h D.%XR.6 < pXL . yX. 0.Z m S.v.y.R ' h h ",
"z z z z z z KXD D +X4 lXq.& > ! > & UX+ : [.2X1XE z z ",
"v v v v v v n.S S CX4 : | r.G G [ BXh.&XAX( P.OXb.v v ",
"x x x x x x (.M M M.7 2 ZXP @ cX@ HX#.zXL.!.0XX.1.x x ",
"c c c c c c B.fXJ J <.3 m * bXMXw.JX+ 6 c.Y.#X7.FXc c ",
"k k k k k k k 3XH H XX; 3 LX    oXi.4 u./ NXdX9.] k k ",
"j j j j j j j 2.n n n .X% 1 3 4.5 7 GX,././.IXI }.j j ",
"d d d d d d d d = # # # sX-.eXDXK.F.<XY O.4XI.*.d d d ",
"s s s s s s s s +.&.B B = uX).Q.mXSX>.k.kXwX..s s s s ",
"a a a a a a a a a G.qX XaX} 8Xf.e.t.g.Z.jX9X%.a a a a ",
"u u u u u u u u u u 5.A. .=.T.V.m.=XT 6X5Xu u u u u u ",
"t t t t t t t t t t t t _.j.U ;XC.VX@.t t t t t t t t ",
"e e e e e e e e e e e e e e e e e e e e e e e e e e e ",
"0 0 0 0 0 0 0 0 0 0 0 0 0 0 0 0 0 0 0 0 0 0 0 0 0 0 0 "
};
