/* XPM */
static char *hide_active[] = {
/* columns rows colors chars-per-pixel */
"27 25 256 2 ",
"   c #024195",
".  c #023075",
"X  c #0250AF",
"o  c #0A2860",
"O  c #2E385B",
"+  c #024BA5",
"@  c #A8492B",
"#  c #45719E",
"$  c #024EAD",
"%  c #046ED9",
"&  c #022E72",
"*  c #0256B6",
"=  c #023682",
"-  c #AE553C",
";  c #DCB45C",
":  c #023684",
">  c #C88B6F",
",  c #046BD4",
"<  c #02459E",
"1  c #023A8A",
"2  c #032D6D",
"3  c #81671B",
"4  c #581A0C",
"5  c #023882",
"6  c #02327C",
"7  c #661C0E",
"8  c #023E8E",
"9  c #E0C136",
"0  c #D3A624",
"q  c #C3861C",
"w  c #E7DDDD",
"e  c #EDECEB",
"r  c #F1E69B",
"t  c #FAF8EB",
"y  c #CCA0A5",
"u  c #FDFCF6",
"i  c #AB5560",
"p  c #FDF4C1",
"a  c #FDE678",
"s  c #921C25",
"d  c #8F1214",
"f  c #952014",
"g  c #FADA43",
"h  c #F7D639",
"j  c #EED539",
"k  c #A13A14",
"l  c #B05B18",
"z  c #F3D739",
"x  c #C07F24",
"c  c #D0A02E",
"v  c #DCBA37",
"b  c #E6CC3A",
"n  c #84776B",
"m  c #5D250C",
"M  c #023F90",
"N  c #715017",
"B  c #847354",
"V  c #846D36",
"C  c #6A4213",
"Z  c #7A621C",
"A  c #56140C",
"S  c #D8A84C",
"D  c #826820",
"F  c #63330E",
"G  c #765B1B",
"H  c #E2DED0",
"J  c #A23C18",
"K  c #0458A1",
"L  c #035DC1",
"P  c #C5972B",
"I  c #867454",
"U  c #D1C7BA",
"Y  c #0582EE",
"T  c #456C99",
"R  c #4A2E3A",
"E  c #BE7662",
"W  c #E0C638",
"Q  c #222D55",
"!  c #052A67",
"~  c #6C2815",
"^  c #CE9A71",
"/  c #035AC0",
"(  c #FAF8F1",
")  c #7A2A17",
"_  c #515147",
"`  c #CCAB33",
"'  c #0D3165",
"]  c #B4614B",
"[  c #034D97",
"{  c #F0D069",
"}  c #B47F71",
"|  c #30415D",
" . c #BCCDDD",
".. c #E1B13F",
"X. c #B36566",
"o. c #EDEADD",
"O. c #B96E33",
"+. c #CF9B73",
"@. c #846C40",
"#. c #DAB478",
"$. c #A09184",
"%. c #AC813A",
"&. c #BB7057",
"*. c #CF9E7A",
"=. c #D7AD7C",
"-. c #937B56",
";. c #CC8C28",
":. c #C48366",
">. c #C48928",
",. c #60625C",
"<. c #8A721E",
"1. c #02459B",
"2. c #DCB870",
"3. c #024398",
"4. c #13325E",
"5. c #DDB868",
"6. c #024AA9",
"7. c #122F58",
"8. c #BCC9D8",
"9. c #B9836B",
"0. c #EEDFAC",
"q. c #2E4056",
"w. c #072E67",
"e. c #D29734",
"r. c #682115",
"t. c #D5A977",
"y. c #BCCDDE",
"u. c #047DEB",
"i. c #035BBF",
"p. c #456C96",
"a. c #DEBA6B",
"s. c #C79183",
"d. c #B09728",
"f. c #A23D17",
"g. c #BFA232",
"h. c #0360C8",
"j. c #0471DC",
"k. c #5D4824",
"l. c #BBC8D6",
"z. c #B25F4A",
"x. c #AA545F",
"c. c #B2A99F",
"v. c #BEB189",
"b. c #023788",
"n. c #DFBF7A",
"m. c #4573A0",
"M. c #BCCBDA",
"N. c #866A38",
"B. c #BC7668",
"V. c #A28258",
"C. c #AF984D",
"Z. c #B78882",
"A. c #345075",
"S. c #C17C69",
"D. c #2D3D4C",
"F. c #C69A9D",
"G. c #383453",
"H. c #BCCBDC",
"J. c #0457A0",
"K. c #D6AC5F",
"L. c #C48F40",
"P. c #DEB762",
"I. c #E6C54C",
"U. c #DCB863",
"Y. c #BE7E23",
"T. c #A55234",
"R. c #D49B3A",
"E. c #B76756",
"W. c #D09D76",
"Q. c #B8873C",
"!. c #786C55",
"~. c #013C7F",
"^. c #5A542F",
"/. c #E9C936",
"(. c #891B22",
"). c #B79466",
"_. c #CC9652",
"`. c #4A4736",
"'. c #8C4547",
"]. c #B86957",
"[. c #4A2925",
"{. c #4E3020",
"}. c #02489F",
"|. c #864230",
" X c #964A32",
".X c #871313",
"XX c #DDB97E",
"oX c #E9E6DF",
"OX c #C38977",
"+X c #7F726B",
"@X c #923313",
"#X c #9C3B1C",
"$X c #CB9B98",
"%X c #7A4F50",
"&X c #6A6457",
"*X c #C07B67",
"=X c #827254",
"-X c #E0BF5A",
";X c #8C8075",
":X c #591A13",
">X c #023B87",
",X c #023F85",
"<X c #7D661B",
"1X c #7C651E",
"2X c #BB8A37",
"3X c #DDBA74",
"4X c #023C89",
"5X c #F5D242",
"6X c #5A140C",
"7X c #01316E",
"8X c #E3DFD2",
"9X c #B5674D",
"0X c #EFCF3E",
"qX c #46493C",
"wX c #024EB1",
"eX c #4A4A38",
"rX c #C88C70",
"tX c #D9AA4E",
"yX c #0354B1",
"uX c #BA715C",
"iX c #E0BF72",
"pX c #931E27",
"aX c #A64436",
"sX c #C27F6C",
"dX c #8A3311",
"fX c #8B3219",
"gX c #AD524C",
"hX c #1D3B64",
"jX c #641917",
"kX c #BC7364",
"lX c #45648A",
"zX c #7A3F10",
"xX c #45668F",
"cX c #DAB274",
"vX c #092D61",
"bX c #AF5B3D",
"nX c #D39731",
"mX c #BA806C",
"MX c #7E2811",
"NX c #045DA3",
"BX c #D4A875",
"VX c #783B2F",
"CX c #BCCEDE",
"ZX c #84691C",
"AX c #047BE8",
"SX c #034B92",
"DX c #0258BC",
"FX c #6D4413",
"GX c #02317A",
"HX c #02347D",
"JX c #272C51",
"KX c #172D54",
"LX c #032C69",
"PX c #857556",
"IX c #B96E5F",
"UX c #BB6E5E",
/* pixels */
"q q q q q q q q q q q q q q q q q q q q q q q q q q q ",
"0 0 0 0 0 0 0 0 0 0 0 0 0 0 0 0 0 0 0 0 0 0 0 0 0 0 0 ",
"9 9 9 9 9 9 9 9 9 9 9 9 9 9 9 9 9 9 9 9 9 9 9 9 9 9 9 ",
"r r r r r r r r r r r r r r r r r r r r r r r r r r r ",
"t t t t t t t t t t t t t t 8XH H o.t t t t t t t t t ",
"u u u u u u u u u u u oXc.;Xn n n n $.U ( u u u u u u ",
"p p p p p p p p p p v.PXB B !.&X=XI -.V.).0.p p p p p ",
"a a a a a a a a a C.V V _ 4.2 & LXq.@.%.Q.L.{ a a a a ",
"g g g g g g g g g.D D D.& 1 3.1.  5 w.N.>.;.nX5Xg g g ",
"h h h h h h h /.ZX3 qX.   $ DXi.* + 4X' 2Xe.R...h h h ",
"z z z z z z z d.3 1XvX8 X h.% j., L + = ,.S S tX0Xz z ",
"j j j j j j j <.<X^.. < / % u.Y AX, * M hXP.; ; I.j j ",
"b b b b b b W Z Z eXHX8 ,X[ K NXJ.SX~.5 2 iXa.5.-Xb b ",
"v v v v v v ` G G `.6 7X8.H.y.CX .M.l.A.vXn.3X2.U.v v ",
"c c c c c c P N N k.& 5 xXT # m.# p.lX7.| XX#.cXK.c c ",
"x x x x x x Y.FXC C KX: M + yX* yX}.>X. +X=.t.BX_.x x ",
"l l l l l l l zXF F {.! b.< $ wX6.  HXO *.W.+.^ O.l l ",
"k k k k k k k dXm m m [.o GXb.1 = & O 9.rXrX> :.f.k k ",
"f f f f f f f f 7 4 4 4 ~ R JXQ G.%X&.E *XS.sXaXf f f ",
"d d d d d d d d .X6XA A 7 MX@XJ @ - ] ].UXkXgXd d d d ",
"s s s s s s s s s (.jX:Xr.) fX#X@ - z.E.IXgXpXs s s s ",
"i i i i i i i i i i x.'.VX|. XT.bX9XuXB.X.i i i i i i ",
"y y y y y y y y y y y y F.Z.} mXOXs.$Xy y y y y y y y ",
"w w w w w w w w w w w w w w w w w w w w w w w w w w w ",
"e e e e e e e e e e e e e e e e e e e e e e e e e e e "
};
