/* XPM */
static char *hide_inactive[] = {
/* columns rows colors chars-per-pixel */
"27 25 256 2 ",
"   c #6B3E2A",
".  c #76523E",
"X  c #542F1A",
"o  c #867555",
"O  c #BA6E5F",
"+  c #392523",
"@  c #442922",
"#  c #542C16",
"$  c #A8492B",
"%  c #7D651B",
"&  c #593324",
"*  c #AE553C",
"=  c #35211D",
"-  c #DCB45C",
";  c #2A1C15",
":  c #C88B6F",
">  c #6E4945",
",  c #4D2B1B",
"<  c #6E453D",
"1  c #5C321A",
"2  c #7A5E5F",
"3  c #81671B",
"4  c #724E4D",
"5  c #581A0C",
"6  c #704B49",
"7  c #543F16",
"8  c #1D1313",
"9  c #231612",
"0  c #661C0E",
"q  c #46271A",
"w  c #D3A624",
"e  c #C3861C",
"r  c #E7DDDD",
"t  c #F1E69B",
"y  c #EDECEB",
"u  c #E0C136",
"i  c #FAF8EB",
"p  c #CCA0A5",
"a  c #FDFCF6",
"s  c #AB5560",
"d  c #FDF4C1",
"f  c #FDE678",
"g  c #921C25",
"h  c #8F1214",
"j  c #952014",
"k  c #FADA43",
"l  c #F7D639",
"z  c #EED539",
"x  c #A13A14",
"c  c #B05B18",
"v  c #F3D739",
"b  c #E6CC3A",
"n  c #D0A02E",
"m  c #C07F24",
"M  c #DCBA37",
"N  c #84776B",
"B  c #5D250C",
"V  c #826820",
"C  c #715017",
"Z  c #847354",
"A  c #63330E",
"S  c #765B1B",
"D  c #846D36",
"F  c #56140C",
"G  c #7A621C",
"H  c #E2DED0",
"J  c #D8A84C",
"K  c #755353",
"L  c #6B4313",
"P  c #6F4A48",
"I  c #D9AA4E",
"U  c #BFA232",
"Y  c #5B4926",
"T  c #4F2C1B",
"R  c #734F4F",
"E  c #76554E",
"W  c #7C6361",
"Q  c #70270F",
"!  c #745352",
"~  c #E6C54C",
"^  c #B2A99F",
"/  c #AA545F",
"(  c #BA806C",
")  c #7D635F",
"_  c #C2886C",
"`  c #E3DFD2",
"'  c #E0BF5A",
"]  c #8A721E",
"[  c #A16047",
"{  c #DCB863",
"}  c #86664E",
"|  c #7A2A17",
" . c #B86957",
".. c #633F3A",
"X. c #624E17",
"o. c #D39731",
"O. c #573120",
"+. c #714527",
"@. c #A23C18",
"#. c #C68C31",
"$. c #C48928",
"%. c #E0C638",
"&. c #BE7662",
"*. c #E9E6DF",
"=. c #B5674D",
"-. c #641917",
";. c #C38977",
":. c #69433D",
">. c #8A3311",
",. c #C69A9D",
"<. c #C07B67",
"1. c #763E20",
"2. c #CC9652",
"3. c #937B56",
"4. c #864230",
"5. c #EEDFAC",
"6. c #6F5F46",
"7. c #865840",
"8. c #BB7057",
"9. c #DDB868",
"0. c #74534F",
"q. c #C27F6C",
"w. c #AD5149",
"e. c #5C3B35",
"r. c #7B5955",
"t. c #733716",
"y. c #D5A977",
"u. c #745253",
"i. c #CE9A71",
"p. c #704A3B",
"a. c #6E4842",
"s. c #DAB274",
"d. c #DAB478",
"f. c #923313",
"g. c #F5D242",
"h. c #C79183",
"j. c #AC813A",
"k. c #B8873C",
"l. c #E0BF72",
"z. c #B09728",
"x. c #B25F4A",
"c. c #BEB189",
"v. c #A28258",
"b. c #A09184",
"n. c #B78882",
"m. c #C48366",
"M. c #8C4547",
"N. c #F0D069",
"B. c #C48F40",
"V. c #613826",
"C. c #EFCF3E",
"Z. c #6B3F28",
"A. c #6B4131",
"S. c #8C8075",
"D. c #6E483E",
"F. c #DEB762",
"G. c #B96E33",
"H. c #7A6A4E",
"J. c #A55234",
"K. c #6D4539",
"L. c #AF5B3D",
"P. c #B76756",
"I. c #623A2D",
"U. c #D7AD7C",
"Y. c #964A32",
"T. c #624515",
"R. c #AF984D",
"E. c #9E6B22",
"W. c #B4916F",
"Q. c #891B22",
"!. c #775855",
"~. c #D6AC5F",
"^. c #D49B3A",
"/. c #735050",
"(. c #B47F71",
"). c #755354",
"_. c #755455",
"`. c #442516",
"'. c #682115",
"]. c #714C4A",
"[. c #B79466",
"{. c #BE7E23",
"}. c #48341D",
"|. c #3F2E14",
" X c #8D6B32",
".X c #6A4744",
"XX c #CCAB33",
"oX c #871313",
"OX c #7A3F10",
"+X c #DDB97E",
"@X c #DFBF7A",
"#X c #EDEADD",
"$X c #C88C70",
"%X c #68423A",
"&X c #E9C936",
"*X c #54230D",
"=X c #542B0D",
"-X c #A27C4B",
";X c #BC7668",
":X c #9C3B1C",
">X c #CB9B98",
",X c #CC8C28",
"<X c #382010",
"1X c #783B2F",
"2X c #563733",
"3X c #827254",
"4X c #A64436",
"5X c #745050",
"6X c #591A13",
"7X c #8D6B4F",
"8X c #844C31",
"9X c #DCB870",
"0X c #DDBA74",
"qX c #5A140C",
"wX c #FAF8F1",
"eX c #7A6059",
"rX c #4A2C23",
"tX c #B4614B",
"yX c #E1B13F",
"uX c #D09D76",
"iX c #D09F7A",
"pX c #7E6766",
"aX c #875E44",
"sX c #623929",
"dX c #544116",
"fX c #673D2C",
"gX c #BA715C",
"hX c #DEBA6B",
"jX c #931E27",
"kX c #73514C",
"lX c #A23D17",
"zX c #C17C69",
"xX c #84691C",
"cX c #8B3219",
"vX c #AC534E",
"bX c #5D3931",
"nX c #5D3C37",
"mX c #BC7364",
"MX c #53342E",
"NX c #573429",
"BX c #57342C",
"VX c #D29734",
"CX c #795D54",
"ZX c #7E2811",
"AX c #743113",
"SX c #D4A875",
"DX c #704A41",
"FX c #714C45",
"GX c #D1C7BA",
"HX c #755252",
"JX c #CF9B73",
"KX c #543126",
"LX c #724E3C",
"PX c #B36566",
"IX c #4F2C1D",
"UX c #C5972B",
/* pixels */
"e e e e e e e e e e e e e e e e e e e e e e e e e e e ",
"w w w w w w w w w w w w w w w w w w w w w w w w w w w ",
"u u u u u u u u u u u u u u u u u u u u u u u u u u u ",
"t t t t t t t t t t t t t t t t t t t t t t t t t t t ",
"i i i i i i i i i i i i i i ` H H #Xi i i i i i i i i ",
"a a a a a a a a a a a *.^ S.N N N N b.GXwXa a a a a a ",
"d d d d d d d d d d c.o Z Z H.6.3Xo 3.v.[.5.d d d d d ",
"f f f f f f f f f R.D D Y ; 8 8 9 }. Xj.k.B.N.f f f f ",
"k k k k k k k k U V V |.8 = KXsXV.O.X E.$.,Xo.g.k k k ",
"l l l l l l l &XxX3 7 8 & E !.kXD.A.  +.#.VX^.yXl l l ",
"v v v v v v v z.3 % 9 & W 2 _.4 > ..BXZ.-XJ J I C.v v ",
"z z z z z z z ] % X.; eX2 ! u.K R .X2XrX} F.- - ~ z z ",
"b b b b b b %.G G dXq pX0.4 ).r.HXP nX+ . l.hX9.' b b ",
"M M M M M M XXS S 7 T ) FX6 5XK /.> e.+ . @X0X9X{ M M ",
"n n n n n n UXC C T.`.CXDXa.6 ].P :.MX= 7X+Xd.s.~.n n ",
"m m m m m m {.L L L <XLXp.K.< < %XbX@ , W.U.y.SX2.m m ",
"c c c c c c c OXA A =X# Z.  fXI.NX@ q aXiXuXJXi.G.c c ",
"x x x x x x x >.B B B *X# 1 X IX, 1 7._ $X$X: m.lXx x ",
"j j j j j j j j 0 5 5 5 Q AXt.1.8X[ 8.&.<.zXq.4Xj j j ",
"h h h h h h h h oXqXF F 0 ZXf.@.$ * tX .O mXw.h h h h ",
"g g g g g g g g g Q.-.6X'.| cX:X$ * x.P.O vXjXg g g g ",
"s s s s s s s s s s / M.1X4.Y.J.L.=.gX;XPXs s s s s s ",
"p p p p p p p p p p p p ,.n.(.( ;.h.>Xp p p p p p p p ",
"r r r r r r r r r r r r r r r r r r r r r r r r r r r ",
"y y y y y y y y y y y y y y y y y y y y y y y y y y y "
};
