/* XPM */
static char *maximize_inactive[] = {
/* columns rows colors chars-per-pixel */
"26 25 256 2 ",
"   c #BA6E5F",
".  c #66490C",
"X  c #765C0D",
"o  c #745A0D",
"O  c #6F5113",
"+  c #2A2408",
"@  c #A8492B",
"#  c #553A0A",
"$  c #7D651B",
"%  c #5D460B",
"&  c #AE553C",
"*  c #DCB45C",
"=  c #6B4914",
"-  c #C88B6F",
";  c #534211",
":  c #62450C",
">  c #735A11",
",  c #6A4F0D",
"<  c #81671B",
"1  c #1D1C03",
"2  c #581A0C",
"3  c #453109",
"4  c #661D10",
"5  c #593D0A",
"6  c #372D06",
"7  c #221E05",
"8  c #E0C136",
"9  c #EDECEB",
"0  c #D3A624",
"q  c #C3861C",
"w  c #E7DDDD",
"e  c #F1E69B",
"r  c #FAF8EB",
"t  c #CCA0A5",
"y  c #FDFCF6",
"u  c #AB5560",
"i  c #FDF4C1",
"p  c #921C25",
"a  c #FDE678",
"s  c #8F1214",
"d  c #FADA43",
"f  c #952014",
"g  c #F7D639",
"h  c #B05B18",
"j  c #EED539",
"k  c #A13A14",
"l  c #F3D739",
"z  c #C07F24",
"x  c #E6CC3A",
"c  c #DCBA37",
"v  c #D0A02E",
"b  c #84776B",
"n  c #5D250C",
"m  c #765B1B",
"M  c #847354",
"N  c #56140C",
"B  c #6A4213",
"V  c #70550D",
"C  c #846D36",
"Z  c #573F0A",
"A  c #715017",
"S  c #7A621C",
"D  c #E2DED0",
"F  c #D8A84C",
"G  c #826820",
"H  c #63330E",
"J  c #7A6A3C",
"K  c #6E500E",
"L  c #544512",
"P  c #FAF8F1",
"I  c #E9C936",
"U  c #7A6B4D",
"Y  c #70280F",
"T  c #A28258",
"R  c #423308",
"E  c #76602A",
"W  c #332906",
"Q  c #867454",
"!  c #BB7057",
"~  c #83522B",
"^  c #745C1F",
"/  c #BA806C",
"(  c #615015",
")  c #B36566",
"_  c #C79183",
"`  c #BC7364",
"'  c #C2896C",
"]  c #A28044",
"[  c #DAB478",
"{  c #542D0B",
"}  c #856D42",
"|  c #CC8C28",
" . c #DAB274",
".. c #DCB870",
"X. c #B5674D",
"o. c #5B4C22",
"O. c #C17C69",
"+. c #755F21",
"@. c #71570E",
"#. c #7A692F",
"$. c #755C10",
"%. c #DDB97E",
"&. c #8D6C30",
"*. c #C38977",
"=. c #C5972B",
"-. c #E3DFD2",
";. c #C48928",
":. c #BFA232",
">. c #855F38",
",. c #CCAB33",
"<. c #6A480F",
"1. c #4E3409",
"2. c #D09F7A",
"3. c #DDB868",
"4. c #AD5149",
"5. c #4A3709",
"6. c #73350F",
"7. c #71560D",
"8. c #5A390B",
"9. c #5C3B0C",
"0. c #6C520D",
"q. c #6E510D",
"w. c #7E2811",
"e. c #3E340D",
"r. c #61420C",
"t. c #4C3409",
"y. c #4E3609",
"u. c #857556",
"i. c #F5D242",
"p. c #AC813A",
"a. c #B8873C",
"s. c #B09728",
"d. c #864230",
"f. c #E0BF72",
"g. c #964A32",
"h. c #D7AD7C",
"j. c #C68D30",
"k. c #AF984D",
"l. c #B25F4A",
"z. c #B2A99F",
"x. c #A09184",
"c. c #6F6144",
"v. c #D49B3A",
"b. c #7E7246",
"n. c #56350B",
"m. c #937B56",
"M. c #AC534E",
"N. c #BEB189",
"B. c #C48366",
"V. c #5A140C",
"C. c #E1B13F",
"Z. c #C48F40",
"A. c #591A13",
"S. c #DEB762",
"D. c #DCB863",
"F. c #B96E33",
"G. c #87643B",
"H. c #CC9652",
"J. c #A55234",
"K. c #E6C54C",
"L. c #B76756",
"P. c #B86957",
"I. c #8C4547",
"U. c #8C8075",
"Y. c #624613",
"T. c #AA545F",
"R. c #891B22",
"E. c #9D6D1F",
"W. c #473915",
"Q. c #79673B",
"!. c #7A6933",
"~. c #B78882",
"^. c #72572A",
"/. c #75582E",
"(. c #72580D",
"). c #A64436",
"_. c #715819",
"`. c #A16244",
"'. c #755E19",
"]. c #AF5B3D",
"[. c #76601C",
"{. c #DFBF7A",
"}. c #E9E6DF",
"|. c #EDEADD",
" X c #871313",
".X c #C88C70",
"XX c #54260B",
"oX c #EFCF3E",
"OX c #56420A",
"+X c #7D6E42",
"@X c #923313",
"#X c #9C3B1C",
"$X c #CB9B98",
"%X c #C07B67",
"&X c #827254",
"*X c #D6AC5F",
"=X c #EEDFAC",
"-X c #A23D17",
";X c #533E0A",
":X c #8D7046",
">X c #B79466",
",X c #B3946B",
"<X c #463408",
"1X c #E0BF5A",
"2X c #705410",
"3X c #6C4B0F",
"4X c #DDBA74",
"5X c #F0D069",
"6X c #D39731",
"7X c #D1C7BA",
"8X c #B4614B",
"9X c #BC7668",
"0X c #D09D76",
"qX c #D9AA4E",
"wX c #6A4712",
"eX c #6D4413",
"rX c #BA715C",
"tX c #DEBA6B",
"yX c #754518",
"uX c #714C1A",
"iX c #C27F6C",
"pX c #84691C",
"aX c #8B3219",
"sX c #C69A9D",
"dX c #641917",
"fX c #A23C18",
"gX c #BE7662",
"hX c #733D0F",
"jX c #7A3F10",
"kX c #755A31",
"lX c #72570E",
"zX c #B47F71",
"xX c #8A3311",
"cX c #382708",
"vX c #D29734",
"bX c #BE7E23",
"nX c #432D08",
"mX c #6E530D",
"MX c #7A2A17",
"NX c #931E27",
"BX c #D4A875",
"VX c #D5A977",
"CX c #51330A",
"ZX c #51350A",
"AX c #CE9A71",
"SX c #CF9B73",
"DX c #7C6D3D",
"FX c #785F0D",
"GX c #3C3007",
"HX c #70561A",
"JX c #70551E",
"KX c #783B2F",
"LX c #77632B",
"PX c #8A721E",
"IX c #4F350A",
"UX c #E0C638",
/* pixels */
"q q q q q q q q q q q q q q q q q q q q q q q q q q ",
"0 0 0 0 0 0 0 0 0 0 0 0 0 0 0 0 0 0 0 0 0 0 0 0 0 0 ",
"8 8 8 8 8 8 8 8 8 8 8 8 8 8 8 8 8 8 8 8 8 8 8 8 8 8 ",
"e e e e e e e e e e e e e e e e e e e e e e e e e e ",
"r r r r r r r r r r r r r -.D D |.r r r r r r r r r ",
"y y y y y y y y y y }.z.U.b b b b x.7XP y y y y y y ",
"i i i i i i i i i N.u.M M U c.&XQ m.T >X=Xi i i i i ",
"a a a a a a a a k.C C o.+ 1 1 7 W.&.p.a.Z.5Xa a a a ",
"d d d d d d d :.G G e.1 W # : r.# ZXE.;.| 6Xi.d d d ",
"g g g g g g I pX< ; 1 5 E LX^ O 3X= uXj.vXv.C.g g g ",
"l l l l l l s.< $ 7 5 DX#.[.> mX. Z wX] F F qXoXl l ",
"j j j j j j PX$ ( + J !.'.$.X o 0.OX5.} S.* * K.j j ",
"x x x x x UXS S L 3 b.+.> X FXX V % GXkXf.tX3.1Xx x ",
"c c c c c ,.m m ; IX+X_.@.X X o V % 6 /.{.4X..D.c c ",
"v v v v v =.A A Y.nXQ.HX2XlX(.7., ;X6 :X%.[  .*Xv v ",
"z z z z z bXeXB B cX^.JXO K q., % R 1.,Xh.VXBXH.z z ",
"h h h h h h jXH H { CX= <.. : Z <X3 G.2.0XSXAXF.h h ",
"k k k k k k xXn n n XXn.9.# y.t.8.>.' .X.X- B.-Xk k ",
"f f f f f f f 4 2 2 2 Y 6.hXyX~ `.! gX%XO.iX).f f f ",
"s s s s s s s  XV.N N 4 w.@XfX@ & 8XP.  ` 4.s s s s ",
"p p p p p p p p R.dXA.4 MXaX#X@ & l.L.  M.NXp p p p ",
"u u u u u u u u u T.I.KXd.g.J.].X.rX9X) u u u u u u ",
"t t t t t t t t t t t sX~.zX/ *._ $Xt t t t t t t t ",
"w w w w w w w w w w w w w w w w w w w w w w w w w w ",
"9 9 9 9 9 9 9 9 9 9 9 9 9 9 9 9 9 9 9 9 9 9 9 9 9 9 "
};
