/* XPM */
static char *maximize_toggled_active[] = {
/* columns rows colors chars-per-pixel */
"26 25 256 2 ",
"   c #CF9B72",
".  c #457B01",
"X  c #6B4313",
"o  c #98A967",
"O  c #537D01",
"+  c #5C5C11",
"@  c #5A8E01",
"#  c #867555",
"$  c #BA6E5F",
"%  c #57390A",
"&  c #639901",
"*  c #3C6D01",
"=  c #386801",
"-  c #A8492B",
";  c #DEE3CC",
":  c #3A6001",
">  c #3D6102",
",  c #467501",
"<  c #4C7C01",
"1  c #AE553C",
"2  c #DCB45C",
"3  c #C88B6F",
"4  c #558C01",
"5  c #538801",
"6  c #81671B",
"7  c #7D661B",
"8  c #581A0C",
"9  c #407201",
"0  c #661C0E",
"q  c #E0C136",
"w  c #E7DDDD",
"e  c #EDECEB",
"r  c #F1E69B",
"t  c #D3A624",
"y  c #C3861C",
"u  c #FAF8EB",
"i  c #CCA0A5",
"p  c #FDFCF6",
"a  c #AB5560",
"s  c #FDF4C1",
"d  c #FDE678",
"f  c #921C25",
"g  c #8F1214",
"h  c #FADA43",
"j  c #952014",
"k  c #F7D639",
"l  c #F3D739",
"z  c #B05B18",
"x  c #A13A14",
"c  c #EED539",
"v  c #C07F24",
"b  c #E6CC3A",
"n  c #D0A02E",
"m  c #DCBA37",
"M  c #84776B",
"N  c #5D250C",
"B  c gray100",
"V  c #846D36",
"C  c #56140C",
"Z  c #826820",
"A  c #63330E",
"S  c #765B1B",
"D  c #4B7E01",
"F  c #7A621C",
"G  c #847354",
"H  c #E2DED0",
"J  c #68A101",
"K  c #D8A84C",
"L  c #715017",
"P  c #5B610F",
"I  c #355F00",
"U  c #91C602",
"Y  c #60470A",
"T  c #4C5E0B",
"R  c #809556",
"E  c #DAB274",
"W  c #C6D0AA",
"Q  c #CB9B98",
"!  c #386701",
"~  c #7AB302",
"^  c #365901",
"/  c #C0902D",
"(  c #682115",
")  c #964A32",
"_  c #FAF8F1",
"`  c #937B56",
"'  c #567612",
"]  c #EFCF3E",
"[  c #6BA601",
"{  c #A23C18",
"}  c #E9C936",
"|  c #A28258",
" . c #864230",
".. c #B78882",
"X. c #DFBF7A",
"o. c #A23D17",
"O. c #B96E33",
"+. c #D9AA4E",
"@. c #497601",
"#. c #B86957",
"$. c #669F01",
"%. c #619F01",
"&. c #C27F6C",
"*. c #8A3311",
"=. c #591A13",
"-. c #EEDFAC",
";. c #506E12",
":. c #E6C54C",
">. c #64A201",
",. c #578001",
"<. c #7B7E23",
"1. c #A64436",
"2. c #931E27",
"3. c #736E43",
"4. c #465506",
"5. c #923313",
"6. c #477E01",
"7. c #655113",
"8. c #BBE003",
"9. c #8C8075",
"0. c #518501",
"q. c #BB7057",
"w. c #DDB868",
"e. c #AD5149",
"r. c #396401",
"t. c #3A6701",
"y. c #518901",
"u. c #D39731",
"i. c #7E2811",
"p. c #D4A875",
"a. c #F0D069",
"s. c #DAB478",
"d. c #BFA232",
"f. c #7A3F10",
"g. c #3F7001",
"h. c #74AE02",
"j. c #8C7530",
"k. c #6F2B0E",
"l. c #B0BB78",
"z. c #385E02",
"x. c #C79183",
"c. c #F5D242",
"v. c #AC813A",
"b. c #B8873C",
"n. c #B09728",
"m. c #376101",
"M. c #92A245",
"N. c #8A721E",
"B. c #94781C",
"V. c #515D0F",
"C. c #7FB902",
"Z. c #AA545F",
"A. c #B25F4A",
"S. c #B2A99F",
"D. c #BEB189",
"F. c #5B9601",
"G. c #B79466",
"H. c #95BA02",
"J. c #666213",
"K. c #AF984D",
"L. c #885F30",
"P. c #A09184",
"I. c #636521",
"U. c #C48F40",
"Y. c #9DD002",
"T. c #DEB762",
"R. c #E0BF5A",
"E. c #DCB863",
"W. c #BE7E23",
"Q. c #D49B3A",
"!. c #A55234",
"~. c #E0BF72",
"^. c #AF5B3D",
"/. c #B76756",
"(. c #619701",
"). c #E9E6DF",
"_. c #E0C638",
"`. c #C48366",
"'. c #B47F71",
"]. c #4F6211",
"[. c #659802",
"{. c #891B22",
"}. c #D7AD7C",
"|. c #569001",
" X c #7F8D13",
".X c #5F9B01",
"XX c #CC9652",
"oX c #BC7364",
"OX c #CF9E79",
"+X c #516010",
"@X c #918744",
"#X c #3D5604",
"$X c #4D8101",
"%X c #3D5D08",
"&X c #D3DBBB",
"*X c #548901",
"=X c #DAE0CC",
"-X c #BC8664",
";X c #BA806C",
":X c #447801",
">X c #DDB97E",
",X c #783B2F",
"<X c #871313",
"1X c #C38977",
"2X c #C88C70",
"3X c #C5972B",
"4X c #83A301",
"5X c #7C714C",
"6X c #495305",
"7X c #BC7668",
"8X c #9C3B1C",
"9X c #3C6A01",
"0X c #C69A9D",
"qX c #C48928",
"wX c #CC8C28",
"eX c #497801",
"rX c #C07B67",
"tX c #EBEEDD",
"yX c #EDEADD",
"uX c #4F6D01",
"iX c #49680B",
"pX c #E1B13F",
"aX c #8C4547",
"sX c #5F8B01",
"dX c #837353",
"fX c #565710",
"gX c #DCB870",
"hX c #DDBA74",
"jX c #B4614B",
"kX c #D09D76",
"lX c #5A140C",
"zX c #E3DFD2",
"xX c #B5674D",
"cX c #588301",
"vX c #5F8201",
"bX c #566914",
"nX c #BA715C",
"mX c #93CA02",
"MX c #DEBA6B",
"NX c #71AA02",
"BX c #C17C69",
"VX c #84691C",
"CX c #8B3219",
"ZX c #D6AC5F",
"AX c #AC534E",
"SX c #D1C7BA",
"DX c #3B6402",
"FX c #B36566",
"GX c #641917",
"HX c #528B01",
"JX c #BE7662",
"KX c #D29734",
"LX c #7A2A17",
"PX c #4C7201",
"IX c #D5A977",
"UX c #CCAB33",
/* pixels */
"y y y y y y y y y y y y y y y y y y y y y y y y y y ",
"t t t t t t t t t t t t t t t t t t t t t t t t t t ",
"q q q q q q q q q q q q q q q q q q q q q q q q q q ",
"r r r r r r r r r r r r r r r r r r r r r r r r r r ",
"u u u u u u u u u u u u u zXH H yXu u u u u u u u u ",
"p p p p p p p p p p ).S.9.M M M M P.SX_ p p p p p p ",
"s s s s s s s s s D.# G G 5X3.dX# ` | G.-.s s s s s ",
"d d d d d d d d K.V V I.%Xr.t.m.].j.v.b.U.a.d d d d ",
"h h h h h h h d.Z Z T 9XD 4 @ 5 , : B.qXwXu.c.h h h ",
"k k k k k k } VX6 P 9X5 $.h.~ NX& D > / KXQ.pXk k k ",
"l l l l l l n.6 7 z.$XJ C.mXY.U ~ (., <.K K +.] l l ",
"c c c c c c N.7 J.* eXPXvXH.8.4XuXO 0.iXT.2 2 :.c c ",
"b b b b b _.F F + 9 > =X; M. Xl.B R @.r.~.MXw.R.b b ",
"m m m m m UXS S + g.< ;.; B tXB o O *XDXX.hXgXE.m m ",
"n n n n n 3XL L 7.! HX@ ' W &Xo sXJ D bX>Xs.E ZXn n ",
"v v v v v W.X X X #X:XF.& cX,.[.[ 4 * @X}.IXp.XXv v ",
"z z z z z z f.A A % I . |.%.>..Xy.9 +XOXkX    O.z z ",
"x x x x x x *.N N N % ^ * . 6.:X= V.-X2X2X3 `.o.x x ",
"j j j j j j j 0 8 8 8 k.Y 6X4.fXL.q.JXrXBX&.1.j j j ",
"g g g g g g g <XlXC C 0 i.5.{ - 1 jX#.$ oXe.g g g g ",
"f f f f f f f f {.GX=.( LXCX8X- 1 A./.$ AX2.f f f f ",
"a a a a a a a a a Z.aX,X .) !.^.xXnX7XFXa a a a a a ",
"i i i i i i i i i i i 0X..'.;X1Xx.Q i i i i i i i i ",
"w w w w w w w w w w w w w w w w w w w w w w w w w w ",
"e e e e e e e e e e e e e e e e e e e e e e e e e e "
};
