/* XPM */
static char *maximize_toggled_pressed[] = {
/* columns rows colors chars-per-pixel */
"26 25 256 2 ",
"   c #CB3F12",
".  c #7E1906",
"X  c #A8492B",
"o  c #C94615",
"O  c #791A07",
"+  c #7F2A11",
"@  c #C44415",
"#  c #741504",
"$  c #AE553C",
"%  c #DCB45C",
"&  c #8A1D07",
"*  c #821B06",
"=  c #791F08",
"-  c #C88B6F",
";  c #822612",
":  c #A22C0C",
">  c #A6290B",
",  c #751A06",
"<  c #921E07",
"1  c #8D2309",
"2  c #DF5D1F",
"3  c #A72D0C",
"4  c #81671B",
"5  c #581A0C",
"6  c #961F07",
"7  c #B23710",
"8  c #661C0E",
"9  c #E7DDDD",
"0  c #E0C136",
"q  c #D3A624",
"w  c #F1E69B",
"e  c #C3861C",
"r  c #EDECEB",
"t  c #FAF8EB",
"y  c #CCA0A5",
"u  c #FDFCF6",
"i  c #AB5560",
"p  c #FDF4C1",
"a  c #FDE678",
"s  c #921C25",
"d  c #8F1214",
"f  c #952014",
"g  c #FADA43",
"h  c #F7D639",
"j  c #A13A14",
"k  c #B05B18",
"l  c #F3D739",
"z  c #EED539",
"x  c #E6CC3A",
"c  c #D0A02E",
"v  c #DCBA37",
"b  c #C07F24",
"n  c #84776B",
"m  c #5D250C",
"M  c gray100",
"N  c #715017",
"B  c #63330E",
"V  c #847354",
"C  c #D8A84C",
"Z  c #7A621C",
"A  c #6A4213",
"S  c #98250A",
"D  c #826820",
"F  c #765B1B",
"G  c #56140C",
"H  c #E2DED0",
"J  c #BC3B11",
"K  c #846D36",
"L  c #FAF8F1",
"P  c #937B56",
"I  c #761C07",
"U  c #E25F29",
"Y  c #BEB189",
"T  c #DA4C17",
"R  c #B36566",
"E  c #E0BF5A",
"W  c #CF4816",
"Q  c #752F0D",
"!  c #591A13",
"~  c #7C4922",
"^  c #EEDFAC",
"/  c #C5972B",
"(  c #B25F4A",
")  c #A09184",
"_  c #F0D069",
"`  c #CC9652",
"'  c #966930",
"]  c #D8511A",
"[  c #BFA232",
"{  c #B86957",
"}  c #DCB863",
"|  c #D49B3A",
" . c #D4A875",
".. c #FEEEE3",
"X. c #B2300D",
"o. c #DFBF7A",
"O. c #9E4730",
"+. c #D09D79",
"@. c #BD330E",
"#. c #E1B13F",
"$. c #E9C936",
"%. c #B47F71",
"&. c #733F12",
"*. c #9C3B1C",
"=. c #D64A17",
"-. c #C07B67",
";. c #7A2A17",
":. c #DAB274",
">. c #84691C",
",. c #A64436",
"<. c #F37427",
"1. c #847253",
"2. c #C48928",
"3. c #B5674D",
"4. c #DEBA6B",
"5. c #BB7057",
"6. c #E76522",
"7. c #C18164",
"8. c #A6641D",
"9. c #652B0B",
"0. c #D29734",
"q. c #714513",
"w. c #B8320E",
"e. c #CE9A71",
"r. c #AD2B0B",
"t. c #74260E",
"y. c #CD4A17",
"u. c #857556",
"i. c #B96E5F",
"p. c #DAB478",
"a. c #EF7227",
"s. c #D65526",
"d. c #FBD7C4",
"f. c #E0BF72",
"g. c #826A4C",
"h. c #CCAB33",
"j. c #C79183",
"k. c #F5D242",
"l. c #AC813A",
"z. c #783B2F",
"x. c #B09728",
"c. c #864230",
"v. c #793314",
"b. c #9E5726",
"n. c #AA545F",
"m. c #B2A99F",
"M. c #AB6A45",
"N. c #A28258",
"B. c #C17C69",
"V. c #EFCF3E",
"C. c #7E1705",
"Z. c #A9300D",
"A. c #EE9F79",
"S. c #F89E64",
"D. c #B78882",
"F. c #B32F0D",
"G. c #CC8C28",
"H. c #CD4D18",
"J. c #D45019",
"K. c #C48F40",
"L. c #BA806C",
"P. c #B79466",
"I. c #8C4547",
"U. c #805F44",
"Y. c #DEB762",
"T. c #B96E33",
"R. c #A55234",
"E. c #F9CBB5",
"W. c #B76756",
"Q. c #F88F3E",
"!. c #DC8564",
"~. c #794E14",
"^. c #8A721E",
"/. c #C0360F",
"(. c #891B22",
"). c #BC7364",
"_. c #69220A",
"`. c #794010",
"'. c #682115",
"]. c #BC7668",
"[. c #A22B0B",
"{. c #B8873C",
"}. c #F2A179",
"|. c #96270A",
" X c #641917",
".X c #9D2B0C",
"XX c #E35F1F",
"oX c #A23C18",
"OX c #D6AC5F",
"+X c #DDB97E",
"@X c #E9E6DF",
"#X c #EDEADD",
"$X c #C88C70",
"%X c #8C8075",
"&X c #7A3F10",
"*X c #E0C638",
"=X c #923313",
"-X c #C69A9D",
";X c #CB9B98",
":X c #DD4F19",
">X c #C38977",
",X c #81230B",
"<X c #C33D12",
"1X c #AF984D",
"2X c #FBE1D3",
"3X c #A23D17",
"4X c #8A3311",
"5X c #7A1C07",
"6X c #853517",
"7X c #F6DBD1",
"8X c #8B3219",
"9X c #BE7E23",
"0X c #F47A2A",
"qX c #DCB870",
"wX c #DDBA74",
"eX c #C7882D",
"rX c #5A140C",
"tX c #964A32",
"yX c #7D661B",
"uX c #F9B88D",
"iX c #B4614B",
"pX c #992008",
"aX c #D9AA4E",
"sX c #E3DFD2",
"dX c #BA715C",
"fX c #DDB868",
"gX c #E66020",
"hX c #931E27",
"jX c #C27F6C",
"kX c #C48366",
"lX c #AD5149",
"zX c #AC534E",
"xX c #BE7662",
"cX c #871313",
"vX c #D09D76",
"bX c #AF5B3D",
"nX c #D39731",
"mX c #881905",
"MX c #711C06",
"NX c #E6C54C",
"BX c #822A12",
"VX c #764212",
"CX c #D5A977",
"ZX c #D1C7BA",
"AX c #CF9B73",
"SX c #6D4413",
"DX c #B5330E",
"FX c #AC2F0D",
"GX c #72210B",
"HX c #FBE0D2",
"JX c #A62F0D",
"KX c #D7AD7C",
"LX c #9B260A",
"PX c #867454",
"IX c #7F641A",
"UX c #BB6E5E",
/* pixels */
"e e e e e e e e e e e e e e e e e e e e e e e e e e ",
"q q q q q q q q q q q q q q q q q q q q q q q q q q ",
"0 0 0 0 0 0 0 0 0 0 0 0 0 0 0 0 0 0 0 0 0 0 0 0 0 0 ",
"w w w w w w w w w w w w w w w w w w w w w w w w w w ",
"t t t t t t t t t t t t t sXH H #Xt t t t t t t t t ",
"u u u u u u u u u u @Xm.%Xn n n n ) ZXL u u u u u u ",
"p p p p p p p p p Y u.V V g.U.1.PXP N.P.^ p p p p p ",
"a a a a a a a a 1XK K ~ GXO . , v.' l.{.K._ a a a a ",
"g g g g g g g [ D D Q . S 3 Z.: 1 I 8.2.G.nXk.g g g ",
"h h h h h h $.>.4 `.* [.J o y.@ 7 |.= eX0.| #.h h h ",
"l l l l l l x.4 IX, LXJ J.XX6.2 H.7 1 b.C C aXV.l l ",
"z z z z z z ^.yX~.* FXW gX<.0Xa.2 @ .X+ Y.% % NXz z ",
"x x x x x *XZ Z VX& DX7X2XS.Q.uXM !.JXO f.4.fXE x x ",
"v v v v v h.F F &.& X.s.HXM ..M A.o : 5Xo.wXqX} v v ",
"c c c c c / N N q.C.>   U E.d.}.] J S 6X+Xp.:.OXc c ",
"b b b b b 9XSXA A MX< F.  T :X=.<X3 * M.KXCX .` b b ",
"k k k k k k &XB B 9.# 6 r.@./.w.> & BX+.vXAXe.T.k k ",
"j j j j j j 4Xm m m _.# mX6 pX< C.; 7.$X$X- kX3Xj j ",
"f f f f f f f 8 5 5 5 t.,X5X5X; O.5.xX-.B.jX,.f f f ",
"d d d d d d d cXrXG G 8 + =XoXX $ iX{ UX).lXd d d d ",
"s s s s s s s s (. X! '.;.8X*.X $ ( W.i.zXhXs s s s ",
"i i i i i i i i i n.I.z.c.tXR.bX3.dX].R i i i i i i ",
"y y y y y y y y y y y -XD.%.L.>Xj.;Xy y y y y y y y ",
"9 9 9 9 9 9 9 9 9 9 9 9 9 9 9 9 9 9 9 9 9 9 9 9 9 9 ",
"r r r r r r r r r r r r r r r r r r r r r r r r r r "
};
