/* XPM */
static char *maximize_active[] = {
/* columns rows colors chars-per-pixel */
"26 25 212 2 ",
"   c #56140C",
".  c #5A140C",
"X  c #581A0C",
"o  c #591A13",
"O  c #661C0E",
"+  c #641917",
"@  c #5D250C",
"#  c #563709",
"$  c #573B0B",
"%  c #6F2B0E",
"&  c #63330E",
"*  c #682115",
"=  c #7C2914",
"-  c #7A3F10",
";  c #783B2F",
":  c #3D5604",
">  c #365C00",
",  c #385E02",
"<  c #3D5D08",
"1  c #376101",
"2  c #3A6401",
"3  c #3C6B01",
"4  c #3F7001",
"5  c #465506",
"6  c #495305",
"7  c #4C5E0B",
"8  c #515D0F",
"9  c #565710",
"0  c #5C5C11",
"q  c #60470A",
"w  c #6B4313",
"e  c #655113",
"r  c #715017",
"t  c #765B1B",
"y  c #49680B",
"u  c #5B610F",
"i  c #447401",
"p  c #467B01",
"a  c #4C7E01",
"s  c #537C01",
"d  c #4F6211",
"f  c #516010",
"g  c #566914",
"h  c #666213",
"j  c #7C641B",
"k  c #4A6523",
"l  c #577523",
"z  c #636521",
"x  c #7B7E23",
"c  c #617934",
"v  c #736E43",
"b  c #7C714C",
"n  c #871313",
"m  c #8F1214",
"M  c #952014",
"N  c #8A3311",
"B  c #8B3219",
"V  c #923313",
"C  c #9C3B1C",
"Z  c #A13A14",
"A  c #A23C18",
"S  c #891B22",
"D  c #921C25",
"F  c #B05B18",
"G  c #80671B",
"H  c #84691C",
"J  c #8A721E",
"K  c #94781C",
"L  c #864230",
"P  c #964A32",
"I  c #885F30",
"U  c #A7482A",
"Y  c #A9492B",
"T  c #A64436",
"R  c #A55234",
"E  c #AE543C",
"W  c #AF5B3D",
"Q  c #826820",
"!  c #846D36",
"~  c #8C7530",
"^  c #BE7E23",
"/  c #B96E33",
"(  c #C07F24",
")  c #8C4547",
"_  c #AD524C",
"`  c #B25F4A",
"'  c #AA545F",
"]  c #847454",
"[  c #937B56",
"{  c #B5644C",
"}  c #B76756",
"|  c #B86957",
" . c #BA6E5F",
".. c #BB7057",
"X. c #BA715C",
"o. c #AB5560",
"O. c #84776B",
"+. c #B36566",
"@. c #BD7563",
"#. c #BC7668",
"$. c #B47F71",
"%. c #C07B67",
"&. c #C17E6A",
"*. c #4D8101",
"=. c #518601",
"-. c #588401",
";. c #548A01",
":. c #588E01",
">. c #599201",
",. c #5F9901",
"<. c #609301",
"1. c #639D01",
"2. c #769C01",
"3. c #64A201",
"4. c #6CA201",
"5. c #73AB02",
"6. c #77B202",
"7. c #79B202",
"8. c #7FB902",
"9. c #748B34",
"0. c #7A9234",
"q. c #6C8345",
"w. c #8FB202",
"e. c #98B603",
"r. c #889935",
"t. c #B09728",
"y. c #AC813A",
"u. c #B8873C",
"i. c #BFA232",
"p. c #C3861C",
"a. c #C48928",
"s. c #CC8C28",
"d. c #C2932C",
"f. c #D29733",
"g. c #D49B3A",
"h. c #D3A624",
"j. c #D0A02E",
"k. c #CCAB33",
"l. c #DCBA37",
"z. c #E1B13F",
"x. c #91C602",
"c. c #93CA02",
"v. c #9DD002",
"b. c #A2CA02",
"n. c #E0C136",
"m. c #E9C936",
"M. c #E0C638",
"N. c #E6CC3A",
"B. c #EFCF3E",
"V. c #EED539",
"C. c #F5D639",
"Z. c #918744",
"A. c #AF984D",
"S. c #A28258",
"D. c #8C8075",
"F. c #BC8664",
"G. c #BA806C",
"H. c #B79466",
"J. c #A4B478",
"K. c #B3BD78",
"L. c #C48F40",
"P. c #CC9652",
"I. c #D8A94D",
"U. c #D6AC5F",
"Y. c #DCB35C",
"T. c #E0BF5A",
"R. c #C48366",
"E. c #C88C6F",
"W. c #C38977",
"Q. c #C88C70",
"!. c #CF9A72",
"~. c #CF9E79",
"^. c #D09D76",
"/. c #DEB762",
"(. c #DCB863",
"). c #DEB969",
"_. c #D5A876",
"`. c #D7AD7C",
"'. c #DAB274",
"]. c #DDB972",
"[. c #DAB478",
"{. c #DEBC7C",
"}. c #E0BF72",
"|. c #E6C54C",
" X c #F5D242",
".X c #FADA43",
"XX c #F0D069",
"oX c #FDE678",
"OX c #B78882",
"+X c #A09184",
"@X c #BEB189",
"#X c #B2A99F",
"$X c #B1BF99",
"%X c #C79183",
"&X c #C69A9D",
"*X c #CB9B98",
"=X c #CCA0A5",
"-X c #BAC799",
";X c #F1E69B",
":X c #D1C7BA",
">X c #D1D9BB",
",X c #EEDFAC",
"<X c #E2DED1",
"1X c #E7DDDD",
"2X c #FDF4C1",
"3X c #E9E6DF",
"4X c #EDEADD",
"5X c #EDECEB",
"6X c #F4F5EE",
"7X c #FAF8EB",
"8X c #FDFCF6",
"9X c gray100",
/* pixels */
"p.p.p.p.p.p.p.p.p.p.p.p.p.p.p.p.p.p.p.p.p.p.p.p.p.p.",
"h.h.h.h.h.h.h.h.h.h.h.h.h.h.h.h.h.h.h.h.h.h.h.h.h.h.",
"n.n.n.n.n.n.n.n.n.n.n.n.n.n.n.n.n.n.n.M.n.n.n.n.n.n.",
";X;X;X;X;X;X;X;X;X;X;X;X;X;X;X;X;X;X;X;X;X;X;X;X;X;X",
"7X7X7X7X7X7X7X7X7X7X7X7X7X<X<X<X3X6X6X7X7X7X7X7X7X7X",
"8X8X8X8X8X8X8X8X8X8X3X#XD.O.O.O.O.+X:X8X8X8X8X8X8X8X",
"2X2X2X2X2X2X2X2X2X@X] ] ] b v ] ] S.S.H.,X2X2X2X2X2X",
"oXoXoXoXoXoXoXoXA.! ! z < 1 3 1 d ~ / u.L.XXoXoXoXoX",
".X.X.X.X.X.X Xk.Q Q 7 2 a :.:.;.i 2 K a.s.f. X.X.X.X",
"C.C.C.C.C.C.m.G G u 3 ;.3.5.6.5.<.a 5 i.f.f.z.C.C.C.",
"C.C.C.V.C.C.t.G j , *.3.8.c.v.x.7.<.i x I.I.I.B.C.C.",
"V.V.V.V.V.V.J j h 4 >.6.x.w.e.b.x.5.;.y /.Y.Y.|.V.V.",
"N.N.N.N.N.M.t j 0 4 ,.5.2.K.K.r.2.6.;.2 }.).(.T.N.N.",
"l.l.l.l.l.k.t t 0 4 ;.;.-X9X9X6X9.-.;.2 {.].'.(.l.l.",
"j.j.j.j.j.d.r r e 2 3 $X6XJ.0.>X6Xc i g {.[.'.U.j.j.",
"( ^ ^ a.a.^ w w w : 3 v l <.4.s q.k 2 Z.`._._.P.^ a.",
"F F F F F F - & & $ 1 3 ;.,.3.,.p 3 f ~.~.!.!./ F F ",
"Z Z Z Z Z Z N @ @ @ # > 3 p p p 3 8 F.Q.E.E.R.Z Z Z ",
"M M M M M M M O X X X % q 6 5 9 I ..@.#.&.R.T M M M ",
"m m m m m m m n .   . O = V A Y E { }  .@._ m m m m ",
"D D D D D D D D S + o + = B C Y E ` |  ._ D D D D D ",
"' o.o.o.' ' ' ' o.o.) ; L P R W { X.#.+.o.o.o.o.o.o.",
"=X=X=X=X=X=X=X=X=X=X=X&XOX$.$.Q.%X*X=X=X=X=X=X=X=X=X",
"1X1X1X1X1X1X1X1X1X1X1X1X1X1X1X1X1X1X1X1X1X1X1X1X1X1X",
"5X5X5X5X5X5X5X5X5X5X5X5X5X5X5X5X5X5X5X5X5X5X5X5X5X5X"
};
