/* XPM */
static char *maximize_prelight[] = {
/* columns rows colors chars-per-pixel */
"26 25 256 2 ",
"   c #072A00",
".  c #81671B",
"X  c #581A0C",
"o  c #185201",
"O  c #104600",
"+  c #661C0E",
"@  c #0F4100",
"#  c #072C00",
"$  c #134101",
"%  c #195501",
"&  c #0E3D00",
"*  c #0C3C00",
"=  c #0E2B02",
"-  c #092D00",
";  c #0E3F00",
":  c #092A01",
">  c #0C3900",
",  c #0B3500",
"<  c #0A3300",
"1  c #083100",
"2  c #E0C136",
"3  c #E7DDDD",
"4  c #D3A624",
"5  c #F1E69B",
"6  c #EDECEB",
"7  c #C3861C",
"8  c #FAF8EB",
"9  c #CCA0A5",
"0  c #FDFCF6",
"q  c #AB5560",
"w  c #FDF4C1",
"e  c #921C25",
"r  c #FDE678",
"t  c #8F1214",
"y  c #952014",
"u  c #FADA43",
"i  c #F7D639",
"p  c #B05B18",
"a  c #EED539",
"s  c #F3D739",
"d  c #A13A14",
"f  c #D0A02E",
"g  c #C07F24",
"h  c #DCBA37",
"j  c #E6CC3A",
"k  c #84776B",
"l  c #5D250C",
"z  c #246901",
"x  c #56140C",
"c  c #6A4213",
"v  c #847354",
"b  c gray100",
"n  c #715017",
"m  c #7A621C",
"M  c #D8A84C",
"N  c #63330E",
"B  c #826820",
"V  c #765B1B",
"C  c #846D36",
"Z  c #E2DED0",
"A  c #134700",
"S  c #A23D17",
"D  c #525021",
"F  c #113C01",
"G  c #B36566",
"H  c #4A2709",
"J  c #1D5E01",
"K  c #A9492B",
"L  c #AD543B",
"P  c #A64436",
"I  c #1A5901",
"U  c #172E08",
"Y  c #144B00",
"T  c #7A3F10",
"R  c #282905",
"E  c #7A4D30",
"W  c #6C270E",
"Q  c #BA715C",
"!  c #871313",
"~  c #C1CBBB",
"^  c #CC9652",
"/  c #CF9E79",
"(  c #DAB274",
")  c #D09D76",
"_  c #A1B199",
"`  c #BC7668",
"'  c #B25F4A",
"]  c #C88C6F",
"[  c #B2A99F",
"{  c #0D2C02",
"}  c #CC8C28",
"|  c #0C2501",
" . c #BA806C",
".. c #B47F71",
"X. c #AD5149",
"o. c #E9E6DF",
"O. c #344014",
"+. c #CB9B98",
"@. c #3C5533",
"#. c #827253",
"$. c #BB8A2D",
"%. c #AC813A",
"&. c #829878",
"*. c #626023",
"=. c #E0BF5A",
"-. c #B4614B",
";. c #931E27",
":. c #857556",
">. c #8A3311",
",. c #293F22",
"<. c #DCB45C",
"1. c #682115",
"2. c #F0F3EE",
"3. c #C17C69",
"4. c #7E2811",
"5. c #D5A977",
"6. c #456534",
"7. c #132D03",
"8. c #195701",
"9. c #B96E5F",
"0. c #256B01",
"q. c #114A00",
"w. c #083300",
"e. c #093400",
"r. c #DCB35C",
"t. c #7D661B",
"y. c #4B4611",
"u. c #242906",
"i. c #F5D242",
"p. c #EFCF3E",
"a. c #8C8075",
"s. c #DDB97E",
"d. c #AA545F",
"f. c #B79466",
"g. c #A28258",
"h. c #AF984D",
"j. c #B78882",
"k. c #4D6444",
"l. c #30340F",
"z. c #C79183",
"x. c #494810",
"c. c #88A078",
"v. c #5B5313",
"b. c #D1C7BA",
"n. c #C48F40",
"m. c #591A13",
"M. c #E6C54C",
"N. c #F0D069",
"B. c #DEB762",
"V. c #DCB863",
"C. c #B96E33",
"Z. c #BE7E23",
"A. c #A55234",
"S. c #E0C638",
"D. c #B76756",
"F. c #8A721E",
"G. c #256201",
"H. c #5D4813",
"J. c #286601",
"K. c #8C4547",
"L. c #891B22",
"P. c #9C3B1C",
"I. c #9EAB99",
"U. c #D7AD7C",
"Y. c #786B4C",
"T. c #D49B3A",
"R. c #072600",
"E. c #E1B13F",
"W. c #BEB189",
"Q. c #2C4922",
"!. c #864230",
"~. c #964A32",
"^. c #DFBF7A",
"/. c #A23C18",
"(. c #B09728",
"). c #EEDFAC",
"_. c #1E5401",
"`. c #EDEADD",
"'. c #C38977",
"]. c #C88C70",
"[. c #B98364",
"{. c #B86957",
"}. c #923313",
"|. c #E9C936",
" X c #C69A9D",
".X c #C48928",
"XX c #CE9A71",
"oX c #AF5B3D",
"OX c #154701",
"+X c #D6AC5F",
"@X c #C07B67",
"#X c #DCB870",
"$X c #276F01",
"%X c #303710",
"&X c #313D11",
"*X c #393210",
"=X c #869D78",
"-X c #856C30",
";X c #496C34",
":X c #CCAB33",
">X c #DDBA74",
",X c #5A140C",
"<X c #D9AA4E",
"1X c #E0BF72",
"2X c #E3DFD2",
"3X c #B5674D",
"4X c #FAF8F1",
"5X c #BB7057",
"6X c #DDB868",
"7X c #DEBA6B",
"8X c #21380B",
"9X c #2F3B0B",
"0X c #C27F6C",
"qX c #8B3219",
"wX c #AC534E",
"eX c #C5972B",
"rX c #641917",
"tX c #4A5F44",
"yX c #BC7364",
"uX c #BE7662",
"iX c #D39731",
"pX c #D29734",
"aX c #7A2A17",
"sX c #B8873C",
"dX c #1D5201",
"fX c #1C5A01",
"gX c #D4A875",
"hX c #783B2F",
"jX c #436134",
"kX c #CF9B73",
"lX c #6D4413",
"zX c #937B56",
"xX c #1A2A04",
"cX c #807144",
"vX c #84691C",
"bX c #C48366",
"nX c #87691C",
"mX c #1A5701",
"MX c #867454",
"NX c #DAB478",
"BX c #BB6E5E",
"VX c #EFF1EE",
"CX c #EFF2EE",
"ZX c #2A6F01",
"AX c #144C00",
"SX c #A7482A",
"DX c #4B2C0A",
"FX c #A09184",
"GX c #4E2F0B",
"HX c #0B3700",
"JX c #AE553C",
"KX c #6A6343",
"LX c #7C651A",
"PX c #C88B6F",
"IX c #072E00",
"UX c #BFA232",
/* pixels */
"7 7 7 7 7 7 7 7 7 7 7 7 7 7 7 7 7 7 7 7 7 7 7 7 7 7 ",
"4 4 4 4 4 4 4 4 4 4 4 4 4 4 4 4 4 4 4 4 4 4 4 4 4 4 ",
"2 2 2 2 2 2 2 2 2 2 2 2 2 2 2 2 2 2 2 2 2 2 2 2 2 2 ",
"5 5 5 5 5 5 5 5 5 5 5 5 5 5 5 5 5 5 5 5 5 5 5 5 5 5 ",
"8 8 8 8 8 8 8 8 8 8 8 8 8 2XZ Z `.8 8 8 8 8 8 8 8 8 ",
"0 0 0 0 0 0 0 0 0 0 o.[ a.k k k k FXb.4X0 0 0 0 0 0 ",
"w w w w w w w w w W.:.v v Y.KX#.MXzXg.f.).w w w w w ",
"r r r r r r r r h.C C D U     : &X-X%.sXn.N.r r r r ",
"u u u u u u u UXB B 9X# HX; @ & , = nX.X} iXi.u u u ",
"i i i i i i |.vX. x.# & Y % I o A > 7.$.pXT.E.i i i ",
"s s s s s s (.. LX= > AXJ 0.$Xz fXA < *.M M <Xp.s s ",
"a a a a a a F.t.v.# @ 8.z G.J.ZXz o & 8XB.r.<.M.a a ",
"j j j j j S.m m x.1 O % dX=Xc.;X_.mX@ : 1X7X6X=.j j ",
"h h h h h :XV V y.IX& $ _ b b 2.jX$ & { ^.>X#XV.h h ",
"f f f f f eXn n H.  - I.CX&.6.~ VX@.< O.s.NX( +Xf f ",
"g g g g g Z.lXc c xX# tXQ.OXo F k.,.  cXU.5.gX^ g g ",
"p p p p p p T N N GXR.- * O q.O , # %X/ ) kXXXC.p p ",
"d d d d d d >.l l l H | # w.e.1   l.[.].] PXbXS d d ",
"y y y y y y y + X X X W DXR u.*XE 5XuX@X3.0XP y y y ",
"t t t t t t t ! ,Xx x + 4.}./.K JX-.{.BXyXX.t t t t ",
"e e e e e e e e L.rXm.1.aXqXP.SXL ' D.9.wX;.e e e e ",
"q q q q q q q q q d.K.hX!.~.A.oX3XQ ` G q q q q q q ",
"9 9 9 9 9 9 9 9 9 9 9  Xj... .'.z.+.9 9 9 9 9 9 9 9 ",
"3 3 3 3 3 3 3 3 3 3 3 3 3 3 3 3 3 3 3 3 3 3 3 3 3 3 ",
"6 6 6 6 6 6 6 6 6 6 6 6 6 6 6 6 6 6 6 6 6 6 6 6 6 6 "
};
