/* XPM */
static char *maximize_toggled_prelight[] = {
/* columns rows colors chars-per-pixel */
"26 25 256 2 ",
"   c #072C00",
".  c #124A00",
"X  c #164601",
"o  c #062900",
"O  c #81671B",
"+  c #581A0C",
"@  c #154B01",
"#  c #123D01",
"$  c #0C3D00",
"%  c #0D3600",
"&  c #083200",
"*  c #661C0E",
"=  c #134101",
"-  c #0E3E00",
";  c #0E2B02",
":  c #104700",
">  c #0E3C00",
",  c #092A01",
"<  c #0C3900",
"1  c #083000",
"2  c #D3A624",
"3  c #E7DDDD",
"4  c #E0C136",
"5  c #EDECEB",
"6  c #C3861C",
"7  c #F1E69B",
"8  c #FAF8EB",
"9  c #CCA0A5",
"0  c #FDFCF6",
"q  c #AB5560",
"w  c #FDF4C1",
"e  c #921C25",
"r  c #FDE678",
"t  c #8F1214",
"y  c #FADA43",
"u  c #952014",
"i  c #F7D639",
"p  c #EED539",
"a  c #B05B18",
"s  c #A13A14",
"d  c #F3D739",
"f  c #C07F24",
"g  c #DCBA37",
"h  c #E6CC3A",
"j  c #D0A02E",
"k  c #84776B",
"l  c gray100",
"z  c #5D250C",
"x  c #715017",
"c  c #846D36",
"v  c #56140C",
"b  c #D0D8CC",
"n  c #63330E",
"m  c #144C00",
"M  c #765B1B",
"N  c #847354",
"B  c #7A621C",
"V  c #E2DED0",
"C  c #D8A84C",
"Z  c #0B3700",
"A  c #826820",
"S  c #6A4213",
"D  c #134700",
"F  c #195501",
"G  c #185301",
"H  c #A09184",
"J  c #E9C936",
"K  c #246901",
"L  c #E0C638",
"P  c #B25F4A",
"I  c #807144",
"U  c #BC7364",
"Y  c #7A3F10",
"T  c #0F4300",
"R  c #728967",
"E  c #BB6E5E",
"W  c #082F00",
"Q  c #0A2C00",
"!  c #A23C18",
"~  c #204312",
"^  c #344014",
"/  c #0D2C02",
"(  c #CCAB33",
")  c #F2D140",
"_  c #E0BF5A",
"`  c #C1CCBB",
"'  c #B47F71",
"]  c #AC813A",
"[  c #0B3400",
"{  c #AC534E",
"}  c #BE7E23",
"|  c #B86957",
" . c #E0BF72",
".. c #FAF8F1",
"X. c #C5972B",
"o. c #5E7556",
"O. c #0C2501",
"+. c #D7AD7C",
"@. c #682115",
"#. c #D6AC5F",
"$. c #EDEADD",
"%. c #B36566",
"&. c #867454",
"*. c #1A2A04",
"=. c #DAB274",
"-. c #D09D76",
";. c #964A32",
":. c #7C651A",
">. c #BB7057",
",. c #C48928",
"<. c #CFD6CC",
"1. c #C17C69",
"2. c #8B3219",
"3. c #6C270E",
"4. c #4A2709",
"5. c #626023",
"6. c #1C5A01",
"7. c #103801",
"8. c #143A01",
"9. c #172E08",
"0. c #84691C",
"q. c #B96E5F",
"w. c #093400",
"e. c #4E2F0B",
"r. c #AE553C",
"t. c #DCB35C",
"y. c #C88B6F",
"u. c #4A4811",
"i. c #082D00",
"p. c #BC7668",
"a. c #B79466",
"s. c #869D78",
"d. c #A28258",
"f. c #BFA232",
"g. c #AF984D",
"h. c #7A4D30",
"j. c #2F5812",
"k. c #B78882",
"l. c #591A13",
"z. c #30340F",
"x. c #E1E6DD",
"c. c #E9E6DF",
"v. c #BA806C",
"b. c #317D01",
"n. c #48480F",
"m. c #5D4813",
"M. c #5B5313",
"N. c #D1C7BA",
"B. c #C48F40",
"V. c #CC9652",
"C. c #8C4547",
"Z. c #DEB762",
"A. c #DCB863",
"S. c #B96E33",
"D. c #C48366",
"F. c #A55234",
"G. c #C88C70",
"H. c #AF5B3D",
"J. c #B76756",
"K. c #393210",
"L. c #891B22",
"P. c #CF9E79",
"I. c #6A6343",
"U. c #786B4C",
"Y. c #E6C54C",
"T. c #F0D069",
"R. c #597845",
"E. c #1E3F12",
"W. c #072600",
"Q. c #864230",
"!. c #DDB97E",
"~. c #225A01",
"^. c #871313",
"/. c #C38977",
"(. c #783B2F",
"). c #525021",
"_. c #B98364",
"`. c #D29734",
"'. c #B8873C",
"]. c #923313",
"[. c #BB8A2D",
"{. c #EEDFAC",
"}. c #C69A9D",
"|. c #CB9B98",
" X c #CC8C28",
".X c #827253",
"XX c #D4A875",
"oX c #C07B67",
"OX c #9C3B1C",
"+X c #A23D17",
"@X c #276601",
"#X c #303710",
"$X c #313D11",
"%X c #856C30",
"&X c #BEB189",
"*X c #DFBF7A",
"=X c #DCB870",
"-X c #DDBA74",
";X c #5A140C",
":X c #A7482A",
">X c #B4614B",
",X c #E3DFD2",
"<X c #D9AA4E",
"1X c #8A721E",
"2X c #B5674D",
"3X c #B1BEAA",
"4X c #BA715C",
"5X c #A64436",
"6X c #DDB868",
"7X c #B09728",
"8X c #DEBA6B",
"9X c #931E27",
"0X c #2F3B0B",
"qX c #C27F6C",
"wX c #8A3311",
"eX c #AD5149",
"rX c #276F01",
"tX c #641917",
"yX c #BE7662",
"uX c #D39731",
"iX c #7A2A17",
"pX c #7E2811",
"aX c #1A5901",
"sX c #1D5E01",
"dX c #D5A977",
"fX c #937B56",
"gX c #DAB478",
"hX c #CE9A71",
"jX c #CF9B73",
"kX c #C88C6F",
"lX c #6D4413",
"zX c #132D03",
"xX c #21380B",
"cX c #D49B3A",
"vX c #857556",
"bX c #87691C",
"nX c #C79183",
"mX c #0A3300",
"MX c #A9492B",
"NX c #E1B13F",
"BX c #4B2C0A",
"VX c #0D4000",
"CX c #0F4100",
"ZX c #AA545F",
"AX c #AD543B",
"SX c #738A67",
"DX c #124300",
"FX c #DCB45C",
"GX c #7D661B",
"HX c #154E00",
"JX c #256B01",
"KX c #B2A99F",
"LX c #4B4611",
"PX c #242906",
"IX c #282905",
"UX c #8C8075",
/* pixels */
"6 6 6 6 6 6 6 6 6 6 6 6 6 6 6 6 6 6 6 6 6 6 6 6 6 6 ",
"2 2 2 2 2 2 2 2 2 2 2 2 2 2 2 2 2 2 2 2 2 2 2 2 2 2 ",
"4 4 4 4 4 4 4 4 4 4 4 4 4 4 4 4 4 4 4 4 4 4 4 4 4 4 ",
"7 7 7 7 7 7 7 7 7 7 7 7 7 7 7 7 7 7 7 7 7 7 7 7 7 7 ",
"8 8 8 8 8 8 8 8 8 8 8 8 8 ,XV V $.8 8 8 8 8 8 8 8 8 ",
"0 0 0 0 0 0 0 0 0 0 c.KXUXk k k k H N...0 0 0 0 0 0 ",
"w w w w w w w w w &XvXN N U.I..X&.fXd.a.{.w w w w w ",
"r r r r r r r r g.c c ).9.o   , $X%X] '.B.T.r r r r ",
"y y y y y y y f.A A 0X  Z - CX- [ ; bX,. XuX) y y y ",
"i i i i i i J 0.O n.  $ @ F aXG D < zX[.`.cXNXi i i ",
"d d d d d d 7XO :.; < m sXJXrXK 6.D mX5.C C <X) d d ",
"p p p p p p 1XGXM.  % 7.X @Xb.~.8.# > xXZ.t.FXY.p p ",
"h h h h h L B B u.1 Q <.b R.j.s.l o.% ,  .8X6X_ h h ",
"g g g g g ( M M LXW Z E.b l x.l R # - / *X-X=XA.g g ",
"j j j j j X.x x m.o $ DX~ 3X` SXX m Z ^ !.gX=.#.j j ",
"f f f f f } lXS S *.& T . = = @ HX- i.I +.dXXXV.f f ",
"a a a a a a Y n n e.W.mXVX: . : $ W #XP.-.jXhXS.a a ",
"s s s s s s wXz z z 4.O.  & w.& o z._.G.kXy.D.+Xs s ",
"u u u u u u u * + + + 3.BXIXPXK.h.>.yXoX1.qX5Xu u u ",
"t t t t t t t ^.;Xv v * pX].! MXr.>X| E U eXt t t t ",
"e e e e e e e e L.tXl.@.iX2.OX:XAXP J.q.{ 9Xe e e e ",
"q q q q q q q q q ZXC.(.Q.;.F.H.2X4Xp.%.q q q q q q ",
"9 9 9 9 9 9 9 9 9 9 9 }.k.' v./.nX|.9 9 9 9 9 9 9 9 ",
"3 3 3 3 3 3 3 3 3 3 3 3 3 3 3 3 3 3 3 3 3 3 3 3 3 3 ",
"5 5 5 5 5 5 5 5 5 5 5 5 5 5 5 5 5 5 5 5 5 5 5 5 5 5 "
};
