/* XPM */
static char *bottom_left_inactive[] = {
/* columns rows colors chars-per-pixel */
"28 21 12 1 ",
"  c #EDECEB",
". c #EEEDEC",
"X c #F0EFEE",
"o c #F1F0EF",
"O c #F2F1F1",
"+ c #F4F4F3",
"@ c #F5F4F4",
"# c #F7F7F6",
"$ c #FCFBFB",
"% c gray99",
"& c gray100",
"* c None",
/* pixels */
"    ************************",
"    ************************",
"    ************************",
"    ************************",
"    ************************",
"    ************************",
"    ************************",
"    ************************",
"    ************************",
"    ************************",
"    ************************",
"    ************************",
"    ************************",
"    ************************",
"X   ************************",
"+   ************************",
"$   ************************",
"*+                          ",
"*&O                         ",
"***#.                       ",
"****&Oo                     "
};
