/* XPM */
static char *bottom_right_active[] = {
/* columns rows colors chars-per-pixel */
"28 21 2 1 ",
"  c #EDECEB",
". c None",
/* pixels */
"........................    ",
"........................    ",
"........................    ",
"........................    ",
"........................    ",
"........................    ",
"........................    ",
"........................    ",
"........................    ",
"........................    ",
"........................    ",
"........................    ",
"........................    ",
"........................    ",
"........................    ",
"........................    ",
"........................   .",
"                           .",
"                          ..",
"                        ....",
"                       ....."
};
