/* XPM */
static char *close_pressed[] = {
/* columns rows colors chars-per-pixel */
"26 25 250 2 ",
"   c #B5B6B6",
".  c #9D9D9D",
"X  c #7D7D7C",
"o  c #DCDBDB",
"O  c #A8A9A9",
"+  c #9F9F9F",
"@  c #C4C5C6",
"#  c #B9BABB",
"$  c #C0C1C2",
"%  c #BFC0C1",
"&  c #1E1E1E",
"*  c #242526",
"=  c #FEFEFC",
"-  c #BEBFC0",
";  c #5C5D5F",
":  c #858789",
">  c #E5E6E6",
",  c #BDBEBF",
"<  c #FEFEFE",
"1  c #ECECED",
"2  c #D0D1D2",
"3  c #BBBCBD",
"4  c gray42",
"5  c #666667",
"6  c DimGray",
"7  c #B5B6B7",
"8  c #787979",
"9  c #C3C4C5",
"0  c #B7B8B9",
"q  c #838383",
"w  c gray31",
"e  c #EEEEEE",
"r  c #7B7B7C",
"t  c #B7B8B8",
"y  c #E6D9CE",
"u  c gray44",
"i  c #7A7B7B",
"p  c #F5F0EC",
"a  c #676768",
"s  c #BFC0C0",
"d  c #A32C0C",
"f  c #BEBFBF",
"g  c #AFB0B1",
"h  c #686969",
"j  c #C8C9CA",
"k  c #505152",
"l  c #E5D6CD",
"z  c #7D1F08",
"x  c gray86",
"c  c #747575",
"v  c #7F4637",
"b  c #696868",
"n  c #CCAF9F",
"m  c #89503C",
"M  c #C9AD9E",
"N  c #831B06",
"B  c #B4B5B6",
"V  c #8F5B4A",
"C  c #616262",
"Z  c #6D5B59",
"A  c #93290B",
"S  c #B9BABA",
"D  c #E2E3E3",
"F  c #E1E2E2",
"G  c #E0E1E1",
"H  c #B3B4B5",
"J  c #6A5957",
"K  c #EAEAEB",
"L  c #5A5B5B",
"P  c #989899",
"I  c #6B6B6C",
"U  c #BABBBC",
"Y  c #AB3B12",
"T  c #92280B",
"R  c #797A7A",
"E  c #969798",
"W  c #B0B1B1",
"Q  c #D4D5D5",
"!  c #641504",
"~  c #905232",
"^  c #8E3110",
"/  c #862009",
"(  c #833F32",
")  c #694E4A",
"_  c #6F6F70",
"`  c #CCCDCE",
"'  c #AEAFB0",
"]  c #CECFD0",
"[  c #7F270B",
"{  c #5E1F15",
"}  c #949596",
"|  c #909090",
" . c #5F2F24",
".. c #777879",
"X. c #8C5A4A",
"o. c #7B3A30",
"O. c #881B07",
"+. c gray65",
"@. c #A0786A",
"#. c #D2D3D4",
"$. c #701504",
"%. c #EEE5DD",
"&. c #A6A7A8",
"*. c #6A1A0A",
"=. c #AEAEAF",
"-. c #8B8C8D",
";. c #2A2B2B",
":. c #937976",
">. c #744436",
",. c #B94215",
"<. c #7E8082",
"1. c #C2C3C4",
"2. c #6B4741",
"3. c #838485",
"4. c #B0320E",
"5. c #918A8A",
"6. c #727374",
"7. c #90615B",
"8. c #992008",
"9. c #6E2112",
"0. c #AAABAB",
"q. c #9E9F9F",
"w. c #AF8984",
"e. c #5E5F61",
"r. c #B2938A",
"t. c #B1B2B3",
"y. c #855548",
"u. c #791B08",
"i. c #898A8B",
"p. c #8B1D07",
"a. c #A62F0D",
"s. c #7E1705",
"d. c #CCCDCD",
"f. c #696A6B",
"g. c #9B9C9C",
"h. c #9A9C9D",
"j. c #8C8D8E",
"k. c #7E2309",
"l. c #673D36",
"z. c #653C37",
"x. c #DDDDDE",
"c. c #818282",
"v. c #8B250A",
"b. c #D1D2D2",
"n. c #A9300D",
"m. c #A5A6A8",
"M. c #7E3D34",
"N. c #A8775F",
"B. c #731D07",
"V. c #823A2F",
"C. c #672D24",
"Z. c #686869",
"A. c #9A3811",
"S. c #4B4C4C",
"D. c gray83",
"F. c #454647",
"G. c #DDCABE",
"H. c #E7E7E7",
"J. c #6A5754",
"K. c #999A9B",
"L. c #D0D1D1",
"P. c #7D1A06",
"I. c #DAC6BD",
"U. c #D6D6D7",
"Y. c #A62D0C",
"T. c #961E07",
"R. c #6A6A6B",
"E. c #8D4C42",
"W. c #701805",
"Q. c #AEA5A4",
"!. c #8D8E8F",
"~. c #93543D",
"^. c #868787",
"/. c #929394",
"(. c #57585A",
"). c #A8A9AA",
"_. c #7B2D1E",
"`. c #6A4642",
"'. c #967067",
"]. c #A1A1A2",
"[. c #EFF0F0",
"{. c #902309",
"}. c #CECFCF",
"|. c #791906",
" X c #B38C7C",
".X c #803529",
"XX c #E4E5E5",
"oX c #464748",
"OX c #E6E6E7",
"+X c #F6F1ED",
"@X c #865548",
"#X c #68190A",
"$X c #891C06",
"%X c #9D3912",
"&X c #7C1705",
"*X c #774436",
"=X c #6C1E0F",
"-X c #B2B3B4",
";X c #791E0C",
":X c gray22",
">X c #854121",
",X c #68696A",
"<X c #793929",
"1X c #3C3D3D",
"2X c #515253",
"3X c #E4DDDC",
"4X c #943310",
"5X c #DEDFDF",
"6X c #872F0E",
"7X c #868788",
"8X c #6A615F",
"9X c #313131",
"0X c #703328",
"qX c #BCBDBD",
"wX c #606263",
"eX c #66190C",
"rX c #925F56",
"tX c #7F6F6D",
"yX c #DADADB",
"uX c #761906",
"iX c #874422",
"pX c #704036",
"aX c #6A443F",
"sX c #C9CACA",
"dX c #B3948F",
"fX c #717172",
"gX c #8F9090",
"hX c #7A1E08",
"jX c #424243",
"kX c #FDFDFD",
"lX c #545657",
"zX c #666363",
"xX c #A1A3A4",
"cX c #9D2B0C",
"vX c #9C9C9D",
"bX c #737474",
"nX c #E8E7E7",
"mX c #C6C7C7",
"MX c #898A8A",
"NX c #7F8081",
"BX c #DBDBDC",
"VX c #C4C4C5",
"CX c #C4A69B",
"ZX c gray91",
"AX c #CCCCCD",
"SX c #805046",
"DX c gray13",
"FX c #8B472E",
"GX c #414242",
"HX c #78605C",
/* pixels */
". . . . . . . . . . . . . . . . . . . . . . . . . . ",
"+ + + + + + + + + + + + + + + + + + + + + + + + + + ",
"O O O O O O O O O O O O O O O O O O O O O O O O O O ",
"                                                    ",
"$ $ $ $ $ $ $ $ $ $ $ $ $ W g g 0 $ $ $ $ $ $ $ $ $ ",
"@ @ @ @ @ @ @ @ @ @ 7 j.fX4 4 4 4 c.&.1.@ @ @ @ @ @ ",
"% % % % % % % % % /.R.6 6 8XJ.b I 8 ^.E 0 % % % % % ",
"- - - - - - - - 7Xh h 2.9.|.P.uX0XtXgXg.+.# - - - - ",
"@ @ @ @ @ @ @ P 4 4 C.W./ Y.n.T z *.:.0.t.t 9 @ @ @ ",
", , , , , , H f.Z.z. .y.V 4X%Xm X.>.=XQ.t S qX, , , ",
"# # # # # # MX5 zX#X*X= = N.~ p = @.B.rXf f s U # # ",
"# # # # # # _ 5 ) N k. X= +Xy = M ^ cX_.mX9 VXs # # ",
"# # # # # B 5 5 aXp.4.A.n = = y iX,.a.u.d.sXj 9 # # ",
"3 3 3 3 3 ' a a `.$Xd 6Xl = = %.>XY d ;XL.}.` j 3 3 ",
"% % % % % 7 6 6 J s.hXCX= l G.= I.[ {.( Q #.b.AX% % ",
"2 2 2 2 2 ] bXu u { '.= = ~.FXp = r.! w.x.BXyXU.2 2 ",
"1 1 1 1 1 1 vXr r Z l.SXv v.A <X@XpXo.nXZXH.OXK 1 1 ",
"< < < < < < D.q q q HXeX&XT.8.O.$.M.3Xe e e [.kX< < ",
"> > > > > > > | 8 8 i 5.7.V..XE.dXx 5XG F D XX> > > ",
": : : : : : : <.lXk 2XwX..-.h.xX).=.-X7 0 m.: : : : ",
"; ; ; ; ; ; ; ; (.F.jXk C 6.3.!.} K.q.].i.e.; ; ; ; ",
"* * * * * * * * * * ;.1XS.L ,Xc i NXR oX* * * * * * ",
"& & & & & & & & & & & DX9XGXw w w :X& & & & & & & & ",
"X X X X X X X X X X X X X X X X X X X X X X X X X X ",
"o o o o o o o o o o o o o o o o o o o o o o o o o o "
};
