/* XPM */
static char *close_active[] = {
/* columns rows colors chars-per-pixel */
"26 25 126 2 ",
"   c #1E1E1E",
".  c #242526",
"X  c #2A2B2B",
"o  c #313131",
"O  c #3A3B3B",
"+  c #460707",
"@  c #4D0202",
"#  c #410B0B",
"$  c #4F0B0B",
"%  c #530201",
"&  c #5D0201",
"*  c #530808",
"=  c #421717",
"-  c #4A1010",
";  c #511615",
":  c #5A1A1A",
">  c #630201",
",  c #6A0201",
"<  c #720101",
"1  c #7C0202",
"2  c #781616",
"3  c #4D2323",
"4  c #542626",
"5  c #5D2020",
"6  c #572828",
"7  c #5A2E2E",
"8  c #523737",
"9  c #5F3030",
"0  c #553E3E",
"q  c #6C2020",
"w  c #632F2F",
"e  c #6A2A2A",
"r  c #752020",
"t  c #782A2A",
"y  c #603434",
"u  c #793F3E",
"i  c #434344",
"p  c #464748",
"a  c #4E4E4E",
"s  c #564141",
"d  c #584141",
"f  c #5A494A",
"g  c #515254",
"h  c #57585A",
"j  c #5C5D5F",
"k  c #684242",
"l  c #605656",
"z  c #665E5E",
"x  c #7B5455",
"c  c #745B5B",
"v  c #5E5F61",
"b  c #646465",
"n  c #6E6060",
"m  c #676768",
"M  c #6A6A6A",
"N  c #776D6D",
"B  c #6F6F70",
"V  c #727273",
"C  c #777879",
"Z  c #7C7C7C",
"A  c #840201",
"S  c #8F0201",
"D  c #8F0C0C",
"F  c #930C0C",
"G  c #9D1210",
"H  c #A00E0E",
"J  c #AB1312",
"K  c #8B2C2C",
"L  c #9C2323",
"P  c #912828",
"I  c #9D2929",
"U  c #A02E2D",
"Y  c #A43535",
"T  c #AA3F3F",
"R  c #96403F",
"E  c #995252",
"W  c #B35151",
"Q  c #B55F5E",
"!  c #867575",
"~  c #CB7776",
"^  c #D17D7D",
"/  c #7F8081",
"(  c #838484",
")  c #858789",
"_  c #8B8C8C",
"`  c #9B8383",
"'  c #8F9090",
"]  c #929393",
"[  c #969798",
"{  c #9E9E9E",
"}  c #A08F8F",
"|  c #A3A3A4",
" . c #A9A3A4",
".. c #A6A7A8",
"X. c #A8A9A9",
"o. c #AEAFB0",
"O. c #AFB0B1",
"+. c #B5B6B6",
"@. c #B7B8B9",
"#. c #BABBBC",
"$. c #DF8F8F",
"%. c #DE9696",
"&. c #D19A99",
"*. c #DA9B9B",
"=. c #E19393",
"-. c #E5A3A3",
";. c #EAA4A3",
":. c #ECAEAD",
">. c #F1AEAE",
",. c #F2B5B5",
"<. c #F6BDBD",
"1. c #F8BEBE",
"2. c #BEBFC0",
"3. c #BFC0C1",
"4. c #C2C3C4",
"5. c #CBCCCC",
"6. c #CECFD0",
"7. c #D1D2D3",
"8. c #DCDBDB",
"9. c #F9C6C5",
"0. c #E0DCDC",
"q. c #FDD1D1",
"w. c #E5E5E5",
"e. c #ECECED",
"r. c #EFF0F0",
"t. c #FEFEFE",
/* pixels */
"{ { { { { { { { { { { { { { { { { { { { { { { { { { ",
"{ { { { { { { { { { { { { { { { { { { { { { { { { { ",
"X.X.X.X.X.X.X.X.X.X.X.X.X.X.X.X.X.X.X.X.X.X.X.X.X.X.",
"+.+.+.+.+.+.+.+.+.+.+.+.+.+.@.@.+.+.+.+.@.@.+.+.@.@.",
"4.4.4.4.4.2.4.4.4.4.3.4.4.O.O.O.@.4.3.3.3.2.3.4.3.3.",
"4.4.4.4.4.4.4.4.4.4.+._ B M M M M ( ..4.4.5.4.4.4.4.",
"4.4.#.3.4.4.2.2.2.] M M M z l M M C ( [ @.3.3.3.3.3.",
"#.3.3.3.#.3.#.4.) M M d - % % % 4 N ' { ..#.3.3.3.3.",
"5.4.4.4.5.4.4.[ M M 3 % , A A 1 > + ! X.O.#.4.4.4.5.",
"#.#.3.#.#.#.+.M M 8 ; t K F G P K q *  .+.#.2.#.#.#.",
"#.#.@.#.#.#.) m b + q *.-.W T -.-.R & x 2.#.2.#.#.#.",
"@.#.#.@.#.#.B m f % < W >.,.:.<.~ D 1 : 5.4.4.3.#.#.",
"#.#.#.@.#.+.m m 0 > S G ^ 9.q.:.Y J A * 5.5.4.4.#.#.",
"#.#.#.#.#.o.m m s & A D =.<.9.>.U G A * 6.6.6.5.#.#.",
"3.3.3.3.3.+.M M l @ , Q ;.%.$.>.^ 1 < w 7.7.7.6.4.#.",
"6.7.6.7.7.6.V B B = u &.*.I L %.*.E @ ` 8.8.8.7.7.6.",
"e.e.e.e.e.e.{ Z Z z 3 e r 1 A 2 t 5 9 w.e.w.w.e.e.e.",
"t.t.t.t.t.t.7.( ( ( n # % > , & + 9 8.e.e.e.r.t.t.t.",
"w.w.w.w.w.w.w.] C C Z _ c 7 6 k } 8.8.w.w.w.w.w.w.w.",
") ) ) ) ) ) ) / g g g v C _ { | X.o.O.@.+...) ) ) ( ",
"j v j v v j j v h p i g v C ( _ [ [ { | ) v j j j j ",
". . . . . . . . . . X O a h M C Z / Z p . . . . . . ",
"                        o i a a a O                 ",
"Z Z Z Z Z Z Z Z / ! Z Z Z Z Z Z Z Z Z Z / Z Z Z Z Z ",
"8.8.8.8.8.8.8.8.8.8.8.8.8.8.8.8.8.8.8.8.8.8.8.8.8.8."
};
