/* XPM */
static char *close_inactive[] = {
/* columns rows colors chars-per-pixel */
"26 25 256 2 ",
"   c #AA7C6B",
".  c #967973",
"X  c #6D4B44",
"o  c #41221B",
"O  c #424243",
"+  c #B5B6B6",
"@  c #DCDBDB",
"#  c #C4C5C6",
"$  c #9D9D9D",
"%  c #A8A9A9",
"&  c #7D7D7C",
"*  c #9F9F9F",
"=  c #B9BABB",
"-  c #C0C1C2",
";  c #BFC0C1",
":  c #1E1E1E",
">  c #242526",
",  c #BEBFC0",
"<  c #5C5D5F",
"1  c #858789",
"2  c #E5E6E6",
"3  c #BDBEBF",
"4  c #ECECED",
"5  c #FEFEFE",
"6  c #BBBCBD",
"7  c #D0D1D2",
"8  c gray42",
"9  c #666667",
"0  c DimGray",
"q  c #B5B6B7",
"w  c #EEEEEE",
"e  c #B28A70",
"r  c #B7B8B9",
"t  c #838383",
"y  c #C3C4C5",
"u  c gray31",
"i  c #787979",
"p  c #B7B8B8",
"a  c #676768",
"s  c #B28970",
"d  c #505152",
"f  c #BEBFBF",
"g  c #574C4A",
"h  c #BFC0C0",
"j  c #7A7B7B",
"k  c #7B7B7C",
"l  c #C8C9CA",
"z  c #AFB0B1",
"x  c #686969",
"c  c gray44",
"v  c #686869",
"b  c #898A8B",
"n  c #A8A9AA",
"m  c #898A8A",
"M  c #8B8C8D",
"N  c #AD826C",
"B  c #A7908C",
"V  c #663F35",
"C  c #717172",
"Z  c #CECFD0",
"A  c #AE826D",
"S  c gray91",
"D  c #B38877",
"F  c #C0B7B6",
"G  c #A6A7A8",
"H  c #A87E6A",
"J  c #442620",
"K  c #615C5B",
"L  c #9C7568",
"P  c #CCCCCD",
"I  c #606263",
"U  c #6F6F70",
"Y  c #EAEAEB",
"T  c #AF8474",
"R  c #9E9F9F",
"E  c #6B6B6C",
"W  c #927B78",
"Q  c #8F9090",
"!  c #B1886F",
"~  c #9C9C9D",
"^  c #B4B5B6",
"/  c #9C7770",
"(  c #76534C",
")  c #885E51",
"_  c #46241D",
"`  c #545657",
"'  c #56423E",
"]  c #A1A1A2",
"[  c #9E8580",
"{  c #5A5B5B",
"}  c #2A2B2B",
"|  c #313131",
" . c #E6E6E7",
".. c #938482",
"X. c #AB816C",
"o. c #765049",
"O. c #AA806B",
"+. c #E8E5E5",
"@. c #454647",
"#. c #D0D1D1",
"$. c gray13",
"%. c #956A5A",
"&. c #7B7675",
"*. c #855F56",
"=. c #543C38",
"-. c #A38F8C",
";. c #515253",
":. c #4C3936",
">. c #868788",
",. c #B38878",
"<. c #948D8C",
"1. c #A47966",
"2. c #785248",
"3. c #916F67",
"4. c #AC8170",
"5. c #777879",
"6. c #B1B2B3",
"7. c #929394",
"8. c #7F5E58",
"9. c #8B6054",
"0. c #B2877A",
"q. c #DADADB",
"w. c #605A59",
"e. c #8C8D8E",
"r. c #9A9C9D",
"t. c #633E35",
"y. c #B28772",
"u. c #B0856F",
"i. c #7F8081",
"p. c #616262",
"a. c #815B53",
"s. c #646262",
"d. c #957168",
"f. c #8E726D",
"g. c #E4E5E5",
"h. c #AAABAB",
"j. c #735550",
"k. c #775A55",
"l. c #7F5C54",
"z. c #AA8073",
"x. c #A98177",
"c. c #B2B3B4",
"v. c #838485",
"b. c #A99995",
"n. c #727374",
"m. c #D2D3D4",
"M. c #747575",
"N. c #6E6767",
"B. c #868787",
"V. c #AEAFB0",
"C. c #464748",
"Z. c #57585A",
"A. c #B1AEAE",
"S. c #5A5251",
"D. c #845F59",
"F. c #AEAEAF",
"G. c gray65",
"H. c #996B5E",
"J. c #A97B6D",
"K. c #C2C3C4",
"L. c #AC7E6E",
"P. c #B3B4B5",
"I. c #6B4439",
"U. c #A1A3A4",
"Y. c #909090",
"T. c #969798",
"R. c #949596",
"E. c #A3786D",
"W. c #A6796A",
"Q. c #BABBBC",
"!. c #A57C68",
"~. c #C6C7C7",
"^. c #CCCDCE",
"/. c #CECFCF",
"(. c #926A5F",
"). c #D4D5D5",
"_. c #73524B",
"`. c #737474",
"'. c #71544F",
"]. c #FDFDFD",
"[. c #B38F72",
"{. c #797A7A",
"}. c #D6D6D7",
"|. c #544644",
" X c #9B7166",
".X c #9A7160",
"XX c #DBDBDC",
"oX c #9D7064",
"OX c #EFF0F0",
"+X c #D1D2D2",
"@X c #E0E1E1",
"#X c #E1E2E2",
"$X c #BCBDBD",
"%X c #797070",
"&X c #A47766",
"*X c #835C51",
"=X c #C5B8B7",
"-X c #B9BABA",
";X c #5F3931",
":X c #C4C4C5",
">X c #AC7E6B",
",X c #4B4C4C",
"<X c #684741",
"1X c #656464",
"2X c #E2E3E3",
"3X c #A38E89",
"4X c #A58E8B",
"5X c #432A25",
"6X c #5E5F61",
"7X c #512F28",
"8X c #41251F",
"9X c #43231C",
"0X c #696A6B",
"qX c #B3887C",
"wX c #724A40",
"eX c #908D8D",
"rX c #A47B6C",
"tX c #818282",
"yX c #DDDDDE",
"uX c #DEDFDF",
"iX c #957D7A",
"pX c #7B544C",
"aX c #3C3D3D",
"sX c #956F68",
"dX c #999A9B",
"fX c #AF8271",
"gX c #AE846F",
"hX c #AF876F",
"jX c #B0B1B1",
"kX c #564948",
"lX c #AC8378",
"zX c #C9CACA",
"xX c #6A6A6B",
"cX c #946859",
"vX c #94695A",
"bX c #764E44",
"nX c #886155",
"mX c #E7E7E7",
"MX c #B0867A",
"NX c #68696A",
"BX c #8E685D",
"VX c gray83",
"CX c gray86",
"ZX c gray22",
"AX c #8D8E8F",
"SX c #A5A6A8",
"DX c #E8E8E9",
"FX c #9B9C9C",
"GX c #989899",
"HX c #CCCDCD",
"JX c #B18771",
"KX c #8D6354",
"LX c #B0846E",
"PX c #AF836D",
"IX c #7E8082",
"UX c #B28B70",
/* pixels */
"$ $ $ $ $ $ $ $ $ $ $ $ $ $ $ $ $ $ $ $ $ $ $ $ $ $ ",
"* * * * * * * * * * * * * * * * * * * * * * * * * * ",
"% % % % % % % % % % % % % % % % % % % % % % % % % % ",
"+ + + + + + + + + + + + + + + + + + + + + + + + + + ",
"- - - - - - - - - - - - - jXz z r - - - - - - - - - ",
"# # # # # # # # # # q e.C 8 8 8 8 tXG K.# # # # # # ",
"; ; ; ; ; ; ; ; ; 7.xX0 0 s.w.v E i B.T.r ; ; ; ; ; ",
", , , , , , , , >.x x g 5Xo 9XJ ' &.Q FXG.= , , , , ",
"# # # # # # # GX8 8 :.o ;X*X(.BXl.'.<.h.6.p y # # # ",
"3 3 3 3 3 3 P.0Xv |._ nXz.T 4.rXL d.f.A.p -X$X3 3 3 ",
"= = = = = = m 9 1X8X*.0.D y.gXH .XnX3.b.f f h Q.= = ",
"= = = = = = U 9 S.7XlX,.JXs e hX!.KX2.[ ~.y :Xh = = ",
"= = = = = ^ 9 9 kXX qXfXu.e [.e X.%.I.. HXzXl y = = ",
"6 6 6 6 6 V.a a g ( MXL.A s UX! O.vXV . #./.^.l 6 6 ",
"; ; ; ; ; q 0 0 K <Xx.J.>XPXLXN 1.) t.3X).m.+XP ; ; ",
"7 7 7 7 7 Z `.c c =./ E.W.    &XcXwX_.=XyXXXq.}.7 7 ",
"4 4 4 4 4 4 ~ k k N.j.sX XoXH.9.bXX 4XDXS mX .Y 4 4 ",
"5 5 5 5 5 5 VXt t t %Xk.D.a.pXo.8.B +.w w w OX].5 5 ",
"2 2 2 2 2 2 2 Y.i i j eX..W iX-.F CXuX@X#X2Xg.2 2 2 ",
"1 1 1 1 1 1 1 IX` d ;.I 5.M r.U.n F.c.q r SX1 1 1 1 ",
"< < < < < < < < Z.@.O d p.n.v.AXR.dXR ] b 6X< < < < ",
"> > > > > > > > > > } aX,X{ NXM.j i.{.C.> > > > > > ",
": : : : : : : : : : : $.| O u u u ZX: : : : : : : : ",
"& & & & & & & & & & & & & & & & & & & & & & & & & & ",
"@ @ @ @ @ @ @ @ @ @ @ @ @ @ @ @ @ @ @ @ @ @ @ @ @ @ "
};
