/* XPM */
static char *close_prelight[] = {
/* columns rows colors chars-per-pixel */
"26 25 256 2 ",
"   c #B5B6B6",
".  c #9D9D9D",
"X  c #DCDBDB",
"o  c #9F9F9F",
"O  c #7D7D7C",
"+  c #C4C5C6",
"@  c #A8A9A9",
"#  c #B9BABB",
"$  c #C0C1C2",
"%  c #BFC0C1",
"&  c #1E1E1E",
"*  c #242526",
"=  c #5C5D5F",
"-  c #BEBFC0",
";  c #858789",
":  c #E5E6E6",
">  c #BDBEBF",
",  c #FEFEFE",
"<  c #ECECED",
"1  c #D0D1D2",
"2  c #BBBCBD",
"3  c gray42",
"4  c DimGray",
"5  c #666667",
"6  c #420101",
"7  c #B5B6B7",
"8  c #EEEEEE",
"9  c gray31",
"0  c #787979",
"q  c #C3C4C5",
"w  c #B7B8B9",
"e  c #838383",
"r  c #290101",
"t  c #676768",
"y  c #BFC0C0",
"u  c #AE8787",
"i  c gray44",
"p  c #E7E7E7",
"a  c #7B7B7C",
"s  c #B29494",
"d  c #C8C9CA",
"f  c #7A7B7B",
"g  c #B7B8B8",
"h  c #AFB0B1",
"j  c #BEBFBF",
"k  c #505152",
"l  c #686969",
"z  c #452020",
"x  c #340101",
"c  c #2F0101",
"v  c #5E5F61",
"b  c #480101",
"n  c #C9CACA",
"m  c #898A8A",
"M  c #C4C4C5",
"N  c #989899",
"B  c #E6E6E7",
"V  c #3C3D3D",
"C  c #414242",
"Z  c #616262",
"A  c #2A0505",
"S  c #BB9A9A",
"D  c #818282",
"F  c #6A3F3F",
"G  c #C9AFAF",
"H  c #946969",
"J  c #310101",
"K  c #868788",
"L  c #3C2625",
"P  c #EFF0F0",
"I  c #3E2020",
"U  c #9A9C9D",
"Y  c #4B4C4C",
"T  c #675454",
"R  c #440101",
"E  c #9E9F9F",
"W  c #51494A",
"Q  c #B9BABA",
"!  c #E1E2E2",
"~  c #E2E3E3",
"^  c #EAEAEB",
"/  c #777879",
"(  c #4B4141",
")  c gray91",
"_  c #D0D1D1",
"`  c #8F9090",
"'  c #9B9C9C",
"]  c #545657",
"[  c #C6C7C7",
"{  c #B99A9A",
"}  c #47302F",
"|  c #5B5756",
" . c #625C5D",
".. c #8B8A8A",
"X. c #453737",
"o. c #B3B4B5",
"O. c #8F8383",
"+. c #4F0808",
"@. c #754343",
"#. c #CCCDCD",
"$. c #C0A2A2",
"%. c #370101",
"&. c #581C1C",
"*. c #8D8E8F",
"=. c #6B6B6C",
"-. c #CCCDCE",
";. c #464748",
":. c #C2C3C4",
">. c #C4A3A3",
",. c #949596",
"<. c #838485",
"1. c #512A2A",
"2. c #E0E1E1",
"3. c #C9ABAB",
"4. c #E4E5E5",
"5. c #270706",
"6. c #676060",
"7. c #797A7A",
"8. c #CCCCCD",
"9. c #2A2B2B",
"0. c #BF9E9E",
"q. c #969798",
"w. c #4B0606",
"e. c #868787",
"r. c #5B3E3E",
"t. c #737474",
"y. c #260101",
"u. c gray13",
"i. c #636263",
"p. c #432E2D",
"a. c #6A6A6B",
"s. c #3E0101",
"d. c #350101",
"f. c #4E0808",
"g. c #BABBBC",
"h. c #898A8B",
"j. c #480606",
"k. c #3F0201",
"l. c #2B0302",
"z. c #454647",
"x. c #2C0101",
"c. c #4A2020",
"v. c #B59999",
"b. c #C7ABAB",
"n. c #5B2B2A",
"m. c #2E0101",
"M. c gray83",
"N. c #8C8D8E",
"B. c #D4D5D5",
"V. c #AAABAB",
"C. c #522A2A",
"Z. c #492F2F",
"A. c #CAAFAF",
"S. c #562020",
"D. c #68696A",
"F. c #5A5454",
"G. c #B0B1B1",
"H. c #717172",
"J. c gray22",
"K. c #550909",
"L. c #6F6F70",
"P. c #686869",
"I. c #320101",
"U. c #686868",
"Y. c #382424",
"T. c #DBDBDC",
"R. c #BB9999",
"E. c #885E5D",
"W. c #500606",
"Q. c #300101",
"!. c #A07777",
"~. c #B99999",
"^. c #400101",
"/. c #250101",
"(. c gray65",
"). c #554241",
"_. c #9C9C9D",
"`. c #BA9A9A",
"'. c #606263",
"]. c #DEDCDC",
"[. c #515253",
"{. c #D6D6D7",
"}. c #551C1C",
"|. c #CECFCF",
" X c #976C6C",
".X c #2D100F",
"XX c #2D0B0A",
"oX c #57585A",
"OX c #5F2A2A",
"+X c #AEAFB0",
"@X c #CBB5B5",
"#X c #C19F9F",
"$X c #675B5A",
"%X c #A6A3A4",
"&X c #625F5F",
"*X c #CECFD0",
"=X c #280101",
"-X c #747575",
";X c #BE9E9E",
":X c #A88080",
">X c #471615",
",X c #582B2A",
"<X c #DADADB",
"1X c #3A1A19",
"2X c #490606",
"3X c gray86",
"4X c #582323",
"5X c #999A9B",
"6X c #7D7575",
"7X c #B1B2B3",
"8X c #4A3433",
"9X c #3F2828",
"0X c #DEDFDF",
"qX c #7C4C4C",
"wX c #FDFDFD",
"eX c #390101",
"rX c #2C1716",
"tX c #DDDDDE",
"yX c #5A5B5B",
"uX c #A1A3A4",
"iX c #C5A4A4",
"pX c #909090",
"aX c #B4B5B6",
"sX c #765252",
"dX c #A8A9AA",
"fX c #A1A1A2",
"gX c #3C0101",
"hX c #7F8081",
"jX c #AEAEAF",
"kX c #280201",
"lX c #D2D3D4",
"zX c #7E8082",
"xX c #A5A6A8",
"cX c #696A6B",
"vX c #8B8C8D",
"bX c #727374",
"nX c #3F0101",
"mX c #2D0807",
"MX c #493E3E",
"NX c #260B0A",
"BX c #B2B3B4",
"VX c #BCBDBD",
"CX c #4C4140",
"ZX c #2B0101",
"AX c #5E2424",
"SX c #424243",
"DX c #726D6D",
"FX c #929394",
"GX c #D1D2D2",
"HX c #331515",
"JX c #978F8F",
"KX c #A6A7A8",
"LX c #B69292",
"PX c #313131",
"IX c #4A2A2A",
"UX c #382221",
/* pixels */
". . . . . . . . . . . . . . . . . . . . . . . . . . ",
"o o o o o o o o o o o o o o o o o o o o o o o o o o ",
"@ @ @ @ @ @ @ @ @ @ @ @ @ @ @ @ @ @ @ @ @ @ @ @ @ @ ",
"                                                    ",
"$ $ $ $ $ $ $ $ $ $ $ $ $ G.h h w $ $ $ $ $ $ $ $ $ ",
"+ + + + + + + + + + 7 N.H.3 3 3 3 D KX:.+ + + + + + ",
"% % % % % % % % % FXa.4 4 &XF.U.=.0 e.q.w % % % % % ",
"- - - - - - - - K l l CX.Xr ZXkXL DX` ' (.# - - - - ",
"+ + + + + + + N 3 3 Y.r d.6 R gXJ A 6XV.7Xg q + + + ",
"> > > > > > o.cXP.X.HXC.n.w.f.4X,Xz XX%Xg Q VX> > > ",
"# # # # # # m 5 i.5.z { 0.@.OXR.;XF c T j j y g.# # ",
"# # # # # # L.5 W x.eXqX>.$.s b.H j.s.1X[ q M y # # ",
"# # # # # aX5 5 MXQ.b +. XG @Xs S.K.6 l.#.n d q # # ",
"2 2 2 2 2 +Xt t ( m.6 2Xu 3.A.~.}.W.^.mX_ |.-.d 2 2 ",
"% % % % % 7 4 4 | =Xx E.#Xu :XiX!.k.%.Z.B.lXGX8.% % ",
"1 1 1 1 1 *Xt.i i rXr.v.S AX&.LX`.sXy.O.tXT.<X{.1 1 ",
"< < < < < < _.a a  .UXIXc.nX6 >X1.I } p ) p B ^ < < ",
", , , , , , M.e e e 6.NXr I.x c /.8X].8 8 8 P wX, , ",
": : : : : : : pX0 0 f ..$Xp.9X).JX3X0X2.! ~ 4.: : : ",
"; ; ; ; ; ; ; zX] k [.'./ vXU uXdXjXBX7 w xX; ; ; ; ",
"= = = = = = = = oXz.SXk Z bX<.*.,.5XE fXh.v = = = = ",
"* * * * * * * * * * 9.V Y yXD.-Xf hX7.;.* * * * * * ",
"& & & & & & & & & & & u.PXC 9 9 9 J.& & & & & & & & ",
"O O O O O O O O O O O O O O O O O O O O O O O O O O ",
"X X X X X X X X X X X X X X X X X X X X X X X X X X "
};
