/* XPM */
static char *hide_active[] = {
/* columns rows colors chars-per-pixel */
"27 25 256 2 ",
"   c #081D5E",
".  c #01217D",
"X  c #011D6D",
"o  c #011C6A",
"O  c #022D88",
"+  c #012679",
"@  c #011969",
"#  c #C4C5C6",
"$  c #B5B6B6",
"%  c #9D9D9D",
"&  c #B9BABB",
"*  c #A8A9A9",
"=  c #7D7D7C",
"-  c #DCDBDB",
";  c #9F9F9F",
":  c #BFC0C1",
">  c #C0C1C2",
",  c #1E1E1E",
"<  c #242526",
"1  c #5C5D5F",
"2  c #BEBFC0",
"3  c #858789",
"4  c #E5E6E6",
"5  c #BDBEBF",
"6  c #ECECED",
"7  c #FEFEFE",
"8  c #D0D1D2",
"9  c #BBBCBD",
"0  c gray42",
"q  c DimGray",
"w  c #666667",
"e  c #B7B8B9",
"r  c #787979",
"t  c #B5B6B7",
"y  c gray31",
"u  c #838383",
"i  c #EEEEEE",
"p  c #C3C4C5",
"a  c #456F9D",
"s  c #B7B8B8",
"d  c #505152",
"f  c #BEBFBF",
"g  c #7B7B7C",
"h  c #676768",
"j  c #BFC0C0",
"k  c #7A7B7B",
"l  c #686869",
"z  c #C8C9CA",
"x  c gray44",
"c  c #AFB0B1",
"v  c #686969",
"b  c #8F9090",
"n  c #253463",
"m  c #A8A9AA",
"M  c #253260",
"N  c #011F73",
"B  c #AAABAB",
"V  c gray86",
"C  c #BCCFDF",
"Z  c #464748",
"A  c #011F74",
"S  c #838AA6",
"D  c #0468D9",
"F  c #6F6F70",
"G  c #BCC6D7",
"H  c #BCCEDE",
"J  c #A6A7A8",
"K  c #CCCDCD",
"L  c #7F8081",
"P  c #023DA5",
"I  c #023393",
"U  c #023A9E",
"Y  c #011D72",
"T  c #192760",
"R  c #02359F",
"E  c #818282",
"W  c #0236A3",
"Q  c #BCBDBD",
"!  c #7E8082",
"~  c #8B8C8D",
"^  c #051961",
"/  c #394162",
"(  c #B2B3B4",
")  c #012577",
"_  c #6B6B6C",
"`  c #454647",
"'  c #012B8C",
"]  c #FDFDFD",
"[  c #494E63",
"{  c #0C1D61",
"}  c #696A6B",
"|  c #374579",
" . c #BABBBC",
".. c #023680",
"X. c #717172",
"o. c #AEAEAF",
"O. c #4571A0",
"+. c #DCDDE2",
"@. c #898A8B",
"#. c #313131",
"$. c #022E86",
"%. c #021A62",
"&. c #031D65",
"*. c #0345A9",
"=. c #515253",
"-. c #022A81",
";. c #011F79",
":. c #344871",
">. c #122653",
",. c #455D87",
"<. c #989899",
"1. c #DBDBDC",
"2. c #68696A",
"3. c #012280",
"4. c #E6E6E7",
"5. c #D4D5D5",
"6. c #545866",
"7. c #A5A6A8",
"8. c #9A9C9D",
"9. c #CCCCCD",
"0. c #BCCADB",
"q. c #2E3D71",
"w. c #034AB0",
"e. c #02297E",
"r. c #606263",
"t. c #0465D2",
"y. c #045BA3",
"u. c #424243",
"i. c #033B9E",
"p. c #0587F2",
"a. c #777879",
"s. c #E1E2E2",
"d. c #0464A8",
"f. c #456694",
"g. c #C2C3C4",
"h. c #EAEAEB",
"j. c #727374",
"k. c #737474",
"l. c #747575",
"z. c #838485",
"x. c #0354C3",
"c. c #868787",
"v. c #0351BC",
"b. c #AEAFB0",
"n. c #456897",
"m. c #2A2B2B",
"M. c #A1A1A2",
"N. c #A1A3A4",
"B. c gray65",
"V. c #929394",
"C. c #5A5B5B",
"Z. c #909090",
"A. c #57585A",
"S. c #949596",
"D. c #969798",
"F. c #012E94",
"G. c #5E5F61",
"H. c #A3A5AD",
"J. c #CECFCF",
"K. c #CCCDCE",
"L. c #B3B4B5",
"P. c #747A8E",
"I. c #28366F",
"U. c #414762",
"Y. c #C6C7C7",
"T. c #404863",
"R. c #9C9C9D",
"E. c #797A7A",
"W. c #6D707B",
"Q. c #023AA7",
"!. c #545657",
"~. c #D0D1D1",
"^. c #D1D2D2",
"/. c #334177",
"(. c gray13",
"). c #B9BABA",
"_. c gray91",
"`. c #E0E1E1",
"'. c #D2D3D4",
"]. c #E2E3E3",
"[. c #02308F",
"{. c #9E9F9F",
"}. c #4B4C4C",
"|. c #023898",
" X c #034EB9",
".X c #546087",
"XX c #5A6286",
"oX c #C4C4C5",
"OX c #0466D6",
"+X c #01217A",
"@X c #01337A",
"#X c #E4E5E5",
"$X c #5F6167",
"%X c #012984",
"&X c #1A2E6B",
"*X c #BCCDDE",
"=X c #E6E7E8",
"-X c #011A65",
";X c #626366",
":X c #061F63",
">X c #0345AD",
",X c #8C8D8E",
"<X c #8E94AC",
"1X c #414D7E",
"2X c #DDDDDE",
"3X c #DEDFDF",
"4X c #046DDB",
"5X c #0249B5",
"6X c #047CE9",
"7X c #047EED",
"8X c #3A3B3B",
"9X c #10225D",
"0X c #0C2365",
"qX c #455E8C",
"wX c #999A9B",
"eX c #BBC6D5",
"rX c #B0B1B1",
"tX c #B1B2B3",
"yX c #3E4461",
"uX c #C9CACA",
"iX c #034891",
"pX c #034A96",
"aX c #6A6A6B",
"sX c #EFF0F0",
"dX c #022D8B",
"fX c #022E8B",
"gX c #011B70",
"hX c #8A8B90",
"jX c #E7E7E7",
"kX c #DADADB",
"lX c gray83",
"zX c #012267",
"xX c #616474",
"cX c #575966",
"vX c #8D8E8F",
"bX c #034BB9",
"nX c #B4B5B6",
"mX c #9B9C9C",
"MX c #0247AF",
"NX c #656A7E",
"BX c #BCCADA",
"VX c #D6D6D7",
"CX c #2E3A71",
"ZX c #CECFD0",
"AX c #0248B1",
"SX c #022B7B",
"DX c #023A9D",
"FX c #023EA7",
"GX c #616262",
"HX c #898A8A",
"JX c #0464D1",
"KX c #023295",
"LX c #045AA2",
"PX c #012881",
"IX c #414242",
"UX c #868788",
/* pixels */
"% % % % % % % % % % % % % % % % % % % % % % % % % % % ",
"; ; ; ; ; ; ; ; ; ; ; ; ; ; ; ; ; ; ; ; ; ; ; ; ; ; ; ",
"* * * * * * * * * * * * * * * * * * * * * * * * * * * ",
"$ $ $ $ $ $ $ $ $ $ $ $ $ $ $ $ $ $ $ $ $ $ $ $ $ $ $ ",
"> > > > > > > > > > > > > > rXc c e > > > > > > > > > ",
"# # # # # # # # # # # t ,XX.0 0 0 0 E J g.# # # # # # ",
": : : : : : : : : : V.aXq q $X6.l _ r c.D.e : : : : : ",
"2 2 2 2 2 2 2 2 2 UXv v T.9X-Xo %.n W.b mXB.& 2 2 2 2 ",
"# # # # # # # # <.0 0 M o PX[.I fX+ :XP.B tXs p # # # ",
"5 5 5 5 5 5 5 L.} l / X dXP 5X XAXU -.0XH.s ).Q 5 5 5 ",
"& & & & & & & HXw ;X  %XFXx.OX4Xt.v.DX) .Xf f j  .& & ",
"& & & & & & & F w [ X KXbXD 7Xp.6XJXMXO &XY.p oXj & & ",
"& & & & & & nXw w yXA $...pXy.d.LXiX@XSX&.K uXz p & & ",
"9 9 9 9 9 9 b.h h U.Y zXG 0.H C *XBXeX:.  ~.J.K.z 9 9 ",
": : : : : : t q q cX@ + qXn.a O.a f.,.>.q.5.'.^.9.: : ",
"8 8 8 8 8 8 ZXk.x x T +XO i.>Xw.*.|.e.o S 2X1.kXVX8 8 ",
"6 6 6 6 6 6 6 R.g g xX^ . F.W Q.R ' N /.=X_.jX4.h.6 6 ",
"7 7 7 7 7 7 7 lXu u u NX{ gX. 3.;.@ | +.i i i sX] 7 7 ",
"4 4 4 4 4 4 4 4 Z.r r k hXXXCXI.1X<XV 3X`.s.].#X4 4 4 ",
"3 3 3 3 3 3 3 3 ! !.d =.r.a.~ 8.N.m o.( t e 7.3 3 3 3 ",
"1 1 1 1 1 1 1 1 1 A.` u.d GXj.z.vXS.wX{.M.@.G.1 1 1 1 ",
"< < < < < < < < < < < m.8X}.C.2.l.k L E.Z < < < < < < ",
", , , , , , , , , , , , (.#.IXy y y 8X, , , , , , , , ",
"= = = = = = = = = = = = = = = = = = = = = = = = = = = ",
"- - - - - - - - - - - - - - - - - - - - - - - - - - - "
};
