/* XPM */
static char *hide_inactive[] = {
/* columns rows colors chars-per-pixel */
"27 25 256 2 ",
"   c #959BB9",
".  c #9199B7",
"X  c #505155",
"o  c #868CAB",
"O  c #282C3E",
"+  c #757A97",
"@  c #626369",
"#  c #78797C",
"$  c #5A5F77",
"%  c #898A8D",
"&  c #787D9A",
"*  c #2E3242",
"=  c #656A83",
"-  c #464749",
";  c #424247",
":  c #53576F",
">  c #4E5059",
",  c #2B2F40",
"<  c #C4C5C6",
"1  c #B5B6B6",
"2  c #A8A9A9",
"3  c #7D7D7C",
"4  c #DCDBDB",
"5  c #9D9D9D",
"6  c #9F9F9F",
"7  c #B9BABB",
"8  c #BFC0C1",
"9  c #C0C1C2",
"0  c #1E1E1E",
"q  c #242526",
"w  c #BEBFC0",
"e  c #5C5D5F",
"r  c #858789",
"t  c #E5E6E6",
"y  c #BDBEBF",
"u  c #FEFEFE",
"i  c #ECECED",
"p  c #D0D1D2",
"a  c #BBBCBD",
"s  c #6B6B6E",
"d  c #69696C",
"f  c #66666A",
"g  c #838386",
"h  c #B7B8C1",
"j  c #67676B",
"k  c #7B7B7F",
"l  c #B5B6B7",
"z  c #72737B",
"x  c #EEEEF1",
"c  c #BEBFC6",
"v  c #AFB0B1",
"b  c #707073",
"n  c #9396A8",
"m  c #9AA0BC",
"M  c #68696C",
"N  c #959CB9",
"B  c #9AA1BD",
"V  c #68686B",
"C  c #83848E",
"Z  c #E8E8EB",
"A  c #77787F",
"S  c #B5B6BB",
"D  c #909092",
"F  c #9296A7",
"G  c #969CB9",
"H  c #686C87",
"J  c #414454",
"K  c #8F9097",
"L  c #4A4F66",
"P  c #A1A3AC",
"I  c #E6E6EA",
"U  c #686973",
"Y  c #CCCCD0",
"T  c #7A7B7E",
"R  c #8C8D8F",
"E  c #98989A",
"W  c #4F4F56",
"Q  c #989FBB",
"!  c #5B6076",
"~  c #666C86",
"^  c #B3B4B5",
"/  c #8B8C96",
"(  c #B8BAC5",
")  c #B9BABE",
"_  c #545A73",
"`  c #6F6F72",
"'  c #9096B4",
"]  c #7C82A1",
"[  c #C3C4C5",
"{  c #B2B3B9",
"}  c #7A809A",
"|  c #494B55",
" . c #4F4F53",
".. c #74757E",
"X. c #5C5E63",
"o. c #6B6B6F",
"O. c #464956",
"+. c #606267",
"@. c #D1D2D6",
"#. c #898FAD",
"$. c #8086A2",
"%. c #7C819F",
"&. c #5B6078",
"*. c #7F8088",
"=. c #585D77",
"-. c #A1A1A8",
";. c #DDDDE1",
":. c #8C93B3",
">. c #94959D",
",. c #E6E6EB",
"<. c #6A708B",
"1. c #C3C4CB",
"2. c #707690",
"3. c #E8E9EC",
"4. c #696A6D",
"5. c #9096B3",
"6. c #DADADE",
"7. c #4C4E56",
"8. c #B7B8BB",
"9. c #8E94B1",
"0. c #8C92AD",
"q. c #82859A",
"w. c #484D63",
"e. c #797D94",
"r. c #2C3044",
"t. c #54555C",
"y. c #4F536C",
"u. c #8C92B0",
"i. c #8A91AE",
"p. c #A6A7AA",
"a. c #A8A9B1",
"s. c #AAABB5",
"d. c #AEAFB0",
"f. c #8E93AD",
"g. c #383839",
"h. c #939AB8",
"j. c #979EBC",
"k. c #959BB6",
"l. c #BCBDC3",
"z. c #86878C",
"x. c #636468",
"c. c #6A6A6D",
"v. c #57585B",
"b. c #9499B2",
"n. c #B4B5B6",
"m. c #2A2B2D",
"M. c #999AA1",
"N. c #9E9FA5",
"B. c #8A91B0",
"V. c #BBBDC6",
"C. c #9197B0",
"Z. c #CCCDD2",
"A. c #CECFD0",
"S. c #CECFD3",
"D. c #C2C3C4",
"F. c #BFC0C3",
"G. c #C4C4CB",
"H. c #C6C7CC",
"J. c #8B91AB",
"K. c #777C98",
"L. c #797A7F",
"P. c #9EA4BF",
"I. c #E2E3E6",
"U. c #808398",
"Y. c #5E627D",
"T. c #9C9C9F",
"R. c #80859F",
"E. c #B1B2BD",
"W. c #DBDBE0",
"Q. c #9C9EAD",
"!. c #7F8499",
"~. c #BFC0C7",
"^. c #4B4C53",
"/. c #5B5C62",
"(. c #8389A6",
"). c #E4E5E7",
"_. c #FDFDFD",
"`. c #3D404C",
"'. c #717175",
"]. c #737477",
"[. c gray13",
"{. c #686E88",
"}. c #9399B4",
"|. c #9399B7",
" X c #848BAA",
".X c #AFB0BB",
"XX c #9598AA",
"oX c #979EBB",
"OX c #B7B8BD",
"+X c #D0D1D5",
"@X c #D2D3D7",
"#X c #5A5B63",
"$X c #878A99",
"%X c #E0E1E5",
"&X c #E1E2E5",
"*X c #373B4F",
"=X c #D4D4D5",
"-X c #3C3D42",
";X c #5C6179",
":X c #7E8082",
">X c #8D909C",
",X c #EFF0F2",
"<X c #5B5F74",
"1X c #929395",
"2X c #B9BAC2",
"3X c #818284",
"4X c #DEDFE3",
"5X c #313133",
"6X c #C8C9CD",
"7X c #C8C9CE",
"8X c #C9CACF",
"9X c #777880",
"0X c #7A7B83",
"qX c #8B8FA1",
"wX c #6B728E",
"eX c #C3C4C8",
"rX c #6C718C",
"tX c #E7E7EB",
"yX c #737793",
"uX c #8E8E95",
"iX c #EAEAEC",
"pX c #9B9CA4",
"aX c #9A9CA7",
"sX c #D4D5D9",
"dX c #B0B1B2",
"fX c #868789",
"gX c #68686C",
"hX c #AEAEB6",
"jX c #96979E",
"kX c #878EAB",
"lX c #7E84A1",
"zX c #787D9C",
"xX c #DBDBDF",
"cX c #4F4F55",
"vX c #B7B8B9",
"bX c #696A70",
"nX c #9097B6",
"mX c #8E95B3",
"MX c #6A6F8A",
"NX c #A6A6AF",
"BX c #808499",
"VX c #EEEEF2",
"CX c #BABBBD",
"ZX c #60647B",
"AX c #CCCDD1",
"SX c #787D96",
"DX c #5E5F61",
"FX c #44485E",
"GX c #545659",
"HX c #646983",
"JX c #9197B2",
"KX c #D6D6D9",
"LX c #8D93B1",
"PX c #4F5369",
"IX c #8990AF",
"UX c #8D8E98",
/* pixels */
"5 5 5 5 5 5 5 5 5 5 5 5 5 5 5 5 5 5 5 5 5 5 5 5 5 5 5 ",
"6 6 6 6 6 6 6 6 6 6 6 6 6 6 6 6 6 6 6 6 6 6 6 6 6 6 6 ",
"2 2 2 2 2 2 2 2 2 2 2 2 2 2 2 2 2 2 2 2 2 2 2 2 2 2 2 ",
"1 1 1 1 1 1 1 1 1 1 1 1 1 1 1 1 1 1 1 1 1 1 1 1 1 1 1 ",
"9 9 9 9 9 9 9 9 9 9 9 9 9 9 dXv v vX9 9 9 9 9 9 9 9 9 ",
"< < < < < < < < < < < l R '.s s s s 3Xp.D.< < < < < < ",
"8 8 8 8 8 8 8 8 8 8 1Xc.d d @ /.gXo.# z.jX8.8 8 8 8 8 ",
"w w w w w w w w w fXM M > * O , * O.9XK pXNX) w w w w ",
"< < < < < < < < E s s `., FX~ + yX= <X>Xs.E.h [ < < < ",
"y y y y y y y ^ 4.V | r.MX0.JX9.kX$.} e..Xh 2Xl.y y y ",
"7 7 7 7 7 7 7 % f x., {.}.G   |.LXlXrXSXQ.c c ~.CX7 7 ",
"7 7 7 7 7 7 7 ` f t.*Xf.k.N Q m N i.2.;XqXH.1.G.F.7 7 ",
"7 7 7 7 7 7 n.f f 7.: b.'   B P.m 5.& y.BXAX8X7XeX7 7 ",
"a a a a a a d.j j > &.C.u.. j.B oXmXK.L !.+XS.Z.6Xa a ",
"8 8 8 8 8 8 l d d X.PXJ.#.:.. h.nXkX<.w.F sX@X@.Y 8 8 ",
"p p p p p p A.].b b J R.(.o IXB. X+ _ $ V.;.xX6.KXp p ",
"i i i i i i i T.k k bX! & %.] zXwX=.: n 3.Z tXI iXi i ",
"u u u u u u u =Xg g g z ZXH HXY.$ = XX,.VXx x ,X_.u u ",
"t t t t t t t t D # # T uX$XU.q.n ( W.4X%X&XI.).t t t ",
"r r r r r r r r :XGXX X +.A / aXP a.hX{ S OXp.r r r r ",
"e e e e e e e e e v.- ; X @ z C UX>.M.N.-.% DXe e e e ",
"q q q q q q q q q q q m.-X^.#XU ..0X*.L.- q q q q q q ",
"0 0 0 0 0 0 0 0 0 0 0 0 [.5X; W cX .g.0 0 0 0 0 0 0 0 ",
"3 3 3 3 3 3 3 3 3 3 3 3 3 3 3 3 3 3 3 3 3 3 3 3 3 3 3 ",
"4 4 4 4 4 4 4 4 4 4 4 4 4 4 4 4 4 4 4 4 4 4 4 4 4 4 4 "
};
