/* XPM */
static char *hide_prelight[] = {
/* columns rows colors chars-per-pixel */
"27 25 256 2 ",
"   c #01133D",
".  c #01113E",
"X  c #011039",
"o  c #01103D",
"O  c #010F37",
"+  c #010D35",
"@  c #C4C5C6",
"#  c #B5B6B6",
"$  c #9D9D9D",
"%  c #9F9F9F",
"&  c #A8A9A9",
"*  c #DCDBDB",
"=  c #B9BABB",
"-  c #7D7D7C",
";  c #C0C1C2",
":  c #BFC0C1",
">  c #1E1E1E",
",  c #242526",
"<  c #5C5D5F",
"1  c #BEBFC0",
"2  c #858789",
"3  c #E5E6E6",
"4  c #BDBEBF",
"5  c #FEFEFE",
"6  c #ECECED",
"7  c #BBBCBD",
"8  c #D0D1D2",
"9  c gray42",
"0  c #666667",
"q  c DimGray",
"w  c #B7B8B9",
"e  c gray31",
"r  c #B5B6B7",
"t  c #EEEEEE",
"y  c #C3C4C5",
"u  c #838383",
"i  c #787979",
"p  c #505152",
"a  c #021744",
"s  c #010F35",
"d  c #686969",
"f  c #BFC0C0",
"g  c #7B7B7C",
"h  c #B7B8B8",
"j  c #AFB0B1",
"k  c #BCC5CD",
"l  c #022558",
"z  c #BEBFBF",
"x  c #7A7B7B",
"c  c #676768",
"v  c gray44",
"b  c #C8C9CA",
"n  c #747575",
"m  c #AEAEAF",
"M  c #CCCDCE",
"N  c #606263",
"B  c #D6D6D7",
"V  c #737474",
"C  c #043369",
"Z  c #696A6B",
"A  c #BCC3CA",
"S  c #EFF0F0",
"D  c #494C57",
"F  c #031E4F",
"G  c #252C42",
"H  c #021C52",
"J  c #02153F",
"K  c #021E4E",
"L  c #021641",
"P  c #010E38",
"I  c #020E32",
"U  c #8E929D",
"Y  c #A1A3A4",
"T  c #464748",
"R  c #E6E7E8",
"E  c #949596",
"W  c #455166",
"Q  c #1A2542",
"!  c #C4C4C5",
"~  c #9A9C9D",
"^  c #333B55",
"/  c #E1E2E2",
"(  c #02265B",
")  c #68696A",
"_  c #050F33",
"`  c #B3B4B5",
"'  c #3E4150",
"]  c #2A2B2B",
"[  c #B1B2B3",
"{  c #686869",
"}  c #717172",
"|  c #45566E",
" . c #5E5F61",
".. c #455B72",
"X. c #02163E",
"o. c #404452",
"O. c #0C1436",
"+. c gray65",
"@. c #E7E7E7",
"#. c gray86",
"$. c gray83",
"%. c #BCC5CC",
"&. c #021846",
"*. c #0C1738",
"=. c #022053",
"-. c #011133",
";. c #031034",
":. c #AEAFB0",
">. c #032658",
",. c #CCCDCD",
"<. c #010E34",
"1. c #2E3550",
"2. c #626365",
"3. c #5F6063",
"4. c #101836",
"5. c #8A8A8D",
"6. c #021E54",
"7. c #898A8A",
"8. c #044177",
"9. c #04356B",
"0. c #424243",
"q. c #01143D",
"w. c #455A70",
"e. c #03264B",
"r. c #021E4F",
"t. c #011542",
"y. c #032E51",
"u. c #021A4B",
"i. c #010E33",
"p. c #838485",
"a. c #B2B3B4",
"s. c #DEDFDF",
"d. c #CECFD0",
"f. c #8F9090",
"g. c #656772",
"h. c #A1A1A2",
"j. c #032B62",
"k. c #28304C",
"l. c #5A5B5B",
"z. c #909090",
"x. c #969798",
"c. c #929394",
"v. c #545A6E",
"b. c #313131",
"n. c #5A5E70",
"m. c #AAABAB",
"M. c #414760",
"N. c #CECFCF",
"B. c #FDFDFD",
"V. c #9C9C9D",
"C. c #071132",
"Z. c #797A7A",
"A. c #D2D3D4",
"S. c #C2C3C4",
"D. c #545657",
"F. c #D0D1D1",
"G. c #BABBBC",
"H. c gray13",
"J. c #B9BABA",
"K. c gray91",
"L. c #EAEAEB",
"P. c #E0E1E1",
"I. c #E2E3E3",
"U. c #021B4F",
"Y. c #454647",
"T. c #A3A4A8",
"R. c #9E9F9F",
"E. c #455268",
"W. c #4B4C4C",
"Q. c #BCC1C9",
"!. c #032355",
"~. c #747782",
"^. c #DBDBDC",
"/. c #011B3D",
"(. c #373E58",
"). c #044579",
"_. c #04386E",
"`. c #686868",
"'. c #393D4D",
"]. c #011240",
"[. c #61636B",
"{. c #818282",
"}. c #7E8082",
"|. c #6F6F70",
" X c #6D6E74",
".X c #3C3D3D",
"XX c #989899",
"oX c #999A9B",
"OX c #B0B1B1",
"+X c #DCDDDF",
"@X c #03275D",
"#X c #6A6A6B",
"$X c #57585A",
"%X c #57585E",
"&X c #A5A6A8",
"*X c #6B6B6C",
"=X c #E6E6E7",
"-X c #DDDDDE",
";X c #DADADB",
":X c #C6C7C7",
">X c #04356C",
",X c #D4D5D5",
"<X c #343D51",
"1X c #838695",
"2X c #021843",
"3X c #021C40",
"4X c #8C8D8E",
"5X c #8D8E8F",
"6X c #A6A7A8",
"7X c #BBC1C8",
"8X c #032456",
"9X c #B4B5B6",
"0X c #033355",
"qX c #061234",
"wX c #9B9C9C",
"eX c #A8A9AA",
"rX c gray22",
"tX c #CCCCCD",
"yX c #515253",
"uX c #BCC3CB",
"iX c #868788",
"pX c #7F8081",
"aX c #45566C",
"sX c #C9CACA",
"dX c #021D4C",
"fX c #D1D2D2",
"gX c #01184A",
"hX c #777879",
"jX c #021948",
"kX c #121C33",
"lX c #011647",
"zX c #E4E5E5",
"xX c #021746",
"cX c #616262",
"vX c #898A8B",
"bX c #252C45",
"nX c #044075",
"mX c #081233",
"MX c #043469",
"NX c #021F53",
"BX c #414242",
"VX c #03285D",
"CX c #032A5E",
"ZX c #BCBDBD",
"AX c #455A71",
"SX c #414452",
"DX c #032649",
"FX c #54565D",
"GX c #8B8C8D",
"HX c #727374",
"JX c #011541",
"KX c #2E3450",
"LX c #19203C",
"PX c #032E52",
"IX c #021A4A",
"UX c #868787",
/* pixels */
"$ $ $ $ $ $ $ $ $ $ $ $ $ $ $ $ $ $ $ $ $ $ $ $ $ $ $ ",
"% % % % % % % % % % % % % % % % % % % % % % % % % % % ",
"& & & & & & & & & & & & & & & & & & & & & & & & & & & ",
"# # # # # # # # # # # # # # # # # # # # # # # # # # # ",
"; ; ; ; ; ; ; ; ; ; ; ; ; ; OXj j w ; ; ; ; ; ; ; ; ; ",
"@ @ @ @ @ @ @ @ @ @ @ r 4X} 9 9 9 9 {.6XS.@ @ @ @ @ @ ",
": : : : : : : : : : c.#Xq q 3.FX`.*Xi UXx.w : : : : : ",
"1 1 1 1 1 1 1 1 1 iXd d o.4.i.<.I bX Xf.wX+.= 1 1 1 1 ",
"@ @ @ @ @ @ @ @ XX9 9 G s JXjXIX&.  qX~.m.[ h y @ @ @ ",
"4 4 4 4 4 4 4 ` Z { '.O xXNX( VXl r.L *.T.h J.ZX4 4 4 ",
"= = = = = = = 7.0 2.mXt.=.j.9._.MXCXK   v.z z f G.= = ",
"= = = = = = = |.0 D O u.@X>X8.).nXC l a Q :Xy ! f = = ",
"= = = = = = 9X0 0 ' X 2X3Xe.PX0Xy.DX/.X.;.,.sXb y = = ",
"7 7 7 7 7 7 :.c c SXX -.Q.uXk k %.A 7X<XC.F.N.M b 7 7 ",
": : : : : : r q q %X+ q.E.| AX..w.aXW kX1.,XA.fXtX: : ",
"8 8 8 8 8 8 d.V v v LX. a F 8X>.!.dXJ s 1X-X^.;XB 8 8 ",
"6 6 6 6 6 6 6 V.g g [._ . gXH 6.U.lXX ^ R K.@.=XL.6 6 ",
"5 5 5 5 5 5 5 $.u u u g.O.P . ].o + (.+Xt t t S B.5 5 ",
"3 3 3 3 3 3 3 3 z.i i x 5.n.KXk.M.U #.s.P./ I.zX3 3 3 ",
"2 2 2 2 2 2 2 2 }.D.p yXN hXGX~ Y eXm a.r w &X2 2 2 2 ",
"< < < < < < < < < $XY.0.p cXHXp.5XE oXR.h.vX .< < < < ",
", , , , , , , , , , , ] .XW.l.) n x pXZ.T , , , , , , ",
"> > > > > > > > > > > > H.b.BXe e e rX> > > > > > > > ",
"- - - - - - - - - - - - - - - - - - - - - - - - - - - ",
"* * * * * * * * * * * * * * * * * * * * * * * * * * * "
};
