/* XPM */
static char *hide_pressed[] = {
/* columns rows colors chars-per-pixel */
"27 25 256 2 ",
"   c #921E07",
".  c #A36C51",
"X  c #DF5D1F",
"o  c #821B06",
"O  c #424243",
"+  c #961F07",
"@  c #B23710",
"#  c #8F2309",
"$  c #8B1D07",
"%  c #C4C5C6",
"&  c #B5B6B6",
"*  c #9D9D9D",
"=  c #B9BABB",
"-  c #DCDBDB",
";  c #A8A9A9",
":  c #9F9F9F",
">  c #7D7D7C",
",  c #BFC0C1",
"<  c #C0C1C2",
"1  c #1E1E1E",
"2  c #242526",
"3  c #BEBFC0",
"4  c #5C5D5F",
"5  c #858789",
"6  c #E5E6E6",
"7  c #BDBEBF",
"8  c #FEFEFE",
"9  c #ECECED",
"0  c #BBBCBD",
"q  c #D0D1D2",
"w  c gray42",
"e  c #666667",
"r  c DimGray",
"t  c #EEEEEE",
"y  c #C3C4C5",
"u  c #B5B6B7",
"i  c #787979",
"p  c gray31",
"a  c #838383",
"s  c #B7B8B9",
"d  c #AFB0B1",
"f  c #BFC0C0",
"g  c #7B7B7C",
"h  c #BEBFBF",
"j  c #686969",
"k  c #C8C9CA",
"l  c gray44",
"z  c #7F1B06",
"x  c #505152",
"c  c #676768",
"v  c #7A7B7B",
"b  c #B7B8B8",
"n  c #6A4642",
"m  c #7E8082",
"M  c #CD4D18",
"N  c #751D0B",
"B  c #994316",
"V  c #797A7A",
"C  c #E8E7E7",
"Z  c #606263",
"A  c #A8A9AA",
"S  c #AEAFB0",
"D  c #A5A6A8",
"F  c gray83",
"G  c #9A9C9D",
"H  c #98250A",
"J  c #7F8081",
"K  c #6B4741",
"L  c #EF7227",
"P  c #772009",
"I  c #E6E6E7",
"U  c #DECCC1",
"Y  c #6E1B0B",
"T  c #6F6F70",
"R  c #AC3610",
"E  c #C6C7C7",
"W  c #B4B5B6",
"Q  c #3C3D3D",
"!  c #777879",
"~  c #937976",
"^  c #761707",
"/  c #A1A3A4",
"(  c #786462",
")  c #A1A1A2",
"_  c #761906",
"`  c #772110",
"'  c #313131",
"]  c #873110",
"[  c #9B260A",
"{  c #791906",
"}  c #7F1805",
"|  c #AD2B0B",
" . c #9B9C9C",
".. c #918A8A",
"X. c #E1E2E2",
"o. c #9E9F9F",
"O. c #A22B0B",
"+. c #A5290B",
"@. c #E66020",
"#. c #AEA5A4",
"$. c #686869",
"%. c #AAABAB",
"&. c #989899",
"*. c #992008",
"=. c #846965",
"-. c #874035",
";. c #6B403A",
":. c #464748",
">. c #5E5F61",
",. c #B8320E",
"<. c #DFCDC1",
"1. c #9E664E",
"2. c #6A6A6B",
"3. c #9D290B",
"4. c #6A5754",
"5. c #7D1A06",
"6. c #A5531D",
"7. c #721B0B",
"8. c #CF4816",
"9. c #8D8E8F",
"0. c #A6A7A8",
"q. c #DCC9C0",
"w. c #CCCDCD",
"e. c #93270B",
"r. c #BB3A11",
"t. c #C34415",
"y. c #898A8B",
"u. c #BC4114",
"i. c #7E1705",
"p. c #6B6B6C",
"a. c #AEAEAF",
"s. c #90615B",
"d. c #6E2112",
"f. c #E4E5E5",
"g. c #2A2B2B",
"h. c #D45019",
"j. c #696A6B",
"k. c #A65A20",
"l. c #DAC6BE",
"z. c #D2D3D4",
"x. c #AF8984",
"c. c #B3948F",
"v. c #B33810",
"b. c #818282",
"n. c #727374",
"m. c #B3B4B5",
"M. c #747575",
"N. c #905B4B",
"B. c #838485",
"V. c #868787",
"C. c #BCBDBD",
"Z. c #C2C3C4",
"A. c #703328",
"S. c #6A615F",
"D. c #72261A",
"F. c #8B8C8D",
"G. c #6E3026",
"H. c #57585A",
"J. c #7F3D30",
"K. c #7A4639",
"L. c #7F6F6D",
"P. c #EFF0F0",
"I. c gray65",
"U. c #5A5B5B",
"Y. c #909090",
"T. c #A9300D",
"R. c #949596",
"E. c #C0360F",
"W. c #7B2D1E",
"Q. c #545657",
"!. c #CCCDCE",
"~. c #CECFCF",
"^. c #694E4A",
"/. c #FDFDFD",
"(. c #5E2416",
"). c #929394",
"_. c #E35F1F",
"`. c #8F9090",
"'. c #666363",
"]. c #791B08",
"[. c #D0D1D1",
"{. c #925F56",
"}. c gray13",
"|. c #B9BABA",
" X c gray91",
".X c #EAEAEB",
"XX c #E0E1E1",
"oX c #E2E3E3",
"OX c #F47A2A",
"+X c #C04314",
"@X c #CA4615",
"#X c #C54415",
"$X c #4B4C4C",
"%X c #B2B3B4",
"&X c #A12C0C",
"*X c #A62D0C",
"=X c #454647",
"-X c #E76522",
";X c #A46F52",
":X c #868788",
">X c #8E280B",
",X c #9C9C9D",
"<X c #696868",
"1X c #BABBBC",
"2X c #803529",
"3X c #823A2F",
"4X c #955E4B",
"5X c #DBDBDC",
"6X c #DDDDDE",
"7X c #DEDFDF",
"8X c #8E3310",
"9X c #8A4339",
"0X c #6A443F",
"qX c gray22",
"wX c #881905",
"eX c #737474",
"rX c #999A9B",
"tX c #D8C5BE",
"yX c #B0B1B1",
"uX c #B1B2B3",
"iX c #BD330E",
"pX c #8D4C42",
"aX c #DFCCC1",
"sX c #C9CACA",
"dX c #9B644E",
"fX c #717172",
"gX c #9D4517",
"hX c #F37427",
"jX c #9B2C0C",
"kX c #9D2B0C",
"lX c #AC2F0D",
"zX c #6A5957",
"xX c #E7E7E7",
"cX c #C4C4C5",
"vX c #DADADB",
"bX c gray86",
"nX c #D1D2D2",
"mX c #741C0E",
"MX c #CD4A17",
"NX c #68696A",
"BX c #8C8D8E",
"VX c #A3521C",
"CX c #D4D5D5",
"ZX c #D6D6D7",
"AX c #8C2309",
"SX c #DDC9C0",
"DX c #CCCCCD",
"FX c #E4DDDC",
"GX c #515253",
"HX c #96270A",
"JX c #BD3B11",
"KX c #969798",
"LX c #891C06",
"PX c #C24516",
"IX c #616262",
"UX c #CECFD0",
/* pixels */
"* * * * * * * * * * * * * * * * * * * * * * * * * * * ",
": : : : : : : : : : : : : : : : : : : : : : : : : : : ",
"; ; ; ; ; ; ; ; ; ; ; ; ; ; ; ; ; ; ; ; ; ; ; ; ; ; ; ",
"& & & & & & & & & & & & & & & & & & & & & & & & & & & ",
"< < < < < < < < < < < < < < yXd d s < < < < < < < < < ",
"% % % % % % % % % % % u BXfXw w w w b.0.Z.% % % % % % ",
", , , , , , , , , , ).2.r r S.4.<Xp.i V.KXs , , , , , ",
"3 3 3 3 3 3 3 3 3 :Xj j K d.{ 5._ A.L.`. .I.= 3 3 3 3 ",
"% % % % % % % % &.w w G.z H *XT.&X# N ~ %.uXb y % % % ",
"7 7 7 7 7 7 7 m.j.$.;.o O.r.@XMX#X@ HX` #.b |.C.7 7 7 ",
"= = = = = = = y.e '.7.[ JXh._.-XX M @ AX{.h h f 1X= = ",
"= = = = = = = T e ^.o lX8.@.hXOXL X t.kXW.E y cXf = = ",
"= = = = = = W e e 0X$ jX8XgX6.k.VXB ] >X].w.sXk y = = ",
"0 0 0 0 0 0 S c c n LXP l.SXaX<.U q.tXK.Y [.~.!.k 0 0 ",
", , , , , , u r r zXi.# 4X1.. ;X. dXN.(.J.CXz.nXDX, , ",
"q q q q q q UXeXl l D.  3.v.+XPXu.R e.z x.6X5XvXZXq q ",
"9 9 9 9 9 9 9 ,Xg g ( ^ + | iXE.,.+.$ -.C  XxXI .X9 9 ",
"8 8 8 8 8 8 8 F a a a =.mXwX+ *.  } 9XFXt t t P./.8 8 ",
"6 6 6 6 6 6 6 6 Y.i i v ..s.3X2XpXc.bX7XXXX.oXf.6 6 6 ",
"5 5 5 5 5 5 5 5 m Q.x GXZ ! F.G / A a.%Xu s D 5 5 5 5 ",
"4 4 4 4 4 4 4 4 4 H.=XO x IXn.B.9.R.rXo.) y.>.4 4 4 4 ",
"2 2 2 2 2 2 2 2 2 2 2 g.Q $XU.NXM.v J V :.2 2 2 2 2 2 ",
"1 1 1 1 1 1 1 1 1 1 1 1 }.' O p p p qX1 1 1 1 1 1 1 1 ",
"> > > > > > > > > > > > > > > > > > > > > > > > > > > ",
"- - - - - - - - - - - - - - - - - - - - - - - - - - - "
};
