/* XPM */
static char *maximize_prelight[] = {
/* columns rows colors chars-per-pixel */
"26 25 255 2 ",
"   c #B5B6B6",
".  c #9D9D9D",
"X  c #DCDBDB",
"o  c #9F9F9F",
"O  c #A8A9A9",
"+  c #7D7D7C",
"@  c #C4C5C6",
"#  c #B9BABB",
"$  c #C0C1C2",
"%  c #BFC0C1",
"&  c #1E1E1E",
"*  c #242526",
"=  c #5C5D5F",
"-  c #BEBFC0",
";  c #858789",
":  c #E5E6E6",
">  c #BDBEBF",
",  c #FEFEFE",
"<  c #ECECED",
"1  c #D0D1D2",
"2  c #BBBCBD",
"3  c gray42",
"4  c #072C00",
"5  c DimGray",
"6  c #666667",
"7  c #787979",
"8  c #C3C4C5",
"9  c gray31",
"0  c #246901",
"q  c #EEEEEE",
"w  c #B5B6B7",
"e  c #838383",
"r  c #B7B8B9",
"t  c gray100",
"y  c #BEBFBF",
"u  c #7A7B7B",
"i  c #686969",
"p  c #7B7B7C",
"a  c #BFC0C0",
"s  c #C8C9CA",
"d  c gray44",
"f  c #505152",
"g  c #B7B8B8",
"h  c #134700",
"j  c #185201",
"k  c #104600",
"l  c #AFB0B1",
"z  c #0E3D00",
"x  c #676768",
"c  c #0F4100",
"v  c #E6E6E7",
"b  c #A8A9AA",
"n  c #134101",
"m  c #8A8C8A",
"M  c #424243",
"N  c #6A6A6B",
"B  c #696A6B",
"V  c #3C5533",
"C  c #B4B5B6",
"Z  c #1D5E01",
"A  c #717172",
"S  c #286601",
"D  c #1C5A01",
"F  c #083100",
"G  c #3E4B3E",
"H  c #072A00",
"J  c gray22",
"K  c #747575",
"L  c #0E3F00",
"P  c #686869",
"I  c #9C9C9D",
"U  c #868788",
"Y  c #686868",
"T  c #C6C7C7",
"R  c gray13",
"E  c #185301",
"W  c #D2D3D4",
"Q  c #124001",
"!  c #092B02",
"~  c #C9CACA",
"^  c #DBDBDC",
"/  c #456534",
"(  c #072E00",
")  c #68696A",
"_  c #E6E8E7",
"`  c #276F01",
"'  c #B9BABA",
"]  c #E0E1E1",
"[  c #E1E2E2",
"{  c #FDFDFD",
"}  c #0E3E00",
"|  c #D0D1D1",
" . c #0A3200",
".. c #999A9B",
"X. c gray86",
"o. c #8D8E8F",
"O. c #849083",
"+. c #9B9C9C",
"@. c #B2B3B4",
"#. c #083300",
"$. c #D6D6D7",
"%. c #464748",
"&. c #DCDFDC",
"*. c #354D32",
"=. c #CECFCF",
"-. c #1E3A19",
";. c #C2C3C4",
":. c #DDDDDE",
">. c #CCCDCE",
",. c #CECFD0",
"<. c #E7E7E7",
"1. c #949596",
"2. c #797A7A",
"3. c #3C3D3D",
"4. c #0F2C0B",
"5. c #5A5B5B",
"6. c #4A5F44",
"7. c #4A534A",
"8. c #909090",
"9. c #154701",
"0. c #88A078",
"q. c #566854",
"w. c #1A5701",
"e. c #112F0B",
"r. c #E4E5E5",
"t. c #A3A6A4",
"y. c #8F9A8F",
"u. c #898A8B",
"i. c #868787",
"p. c #273C25",
"a. c #2F472D",
"s. c #195701",
"d. c #1B3418",
"f. c #AEAFB0",
"g. c #072900",
"h. c #062A00",
"j. c #737474",
"k. c #256B01",
"l. c #969798",
"z. c #0C2C06",
"x. c #898A8A",
"c. c #0B3700",
"v. c #626463",
"b. c #414E40",
"n. c #414242",
"m. c #A6A7A8",
"M. c #EFF2EE",
"N. c #144B00",
"B. c #C1CBBB",
"V. c #0E3C00",
"C. c #2A2B2B",
"Z. c #A5A6A8",
"A. c #114A00",
"S. c #8B8C8D",
"D. c #082D00",
"F. c #AEAEAF",
"G. c #093400",
"H. c #B1B2B3",
"J. c #062C00",
"K. c #6B6B6C",
"L. c #0C3800",
"P. c #2C4922",
"I. c #F0F3EE",
"U. c #4B4C4C",
"Y. c #0A3300",
"T. c #256201",
"R. c #3A4839",
"E. c #0B3400",
"W. c #0C2A07",
"Q. c #838485",
"!. c #454647",
"~. c #104700",
"^. c #616862",
"/. c #D1D2D2",
"(. c #545657",
"). c #829878",
"_. c #195401",
"`. c #9A9C9D",
"'. c #5B6A5A",
"]. c #1D5201",
"[. c #072901",
"{. c #A1B199",
"}. c #8F9090",
"|. c #496C34",
" X c #777879",
".X c #A1A1A2",
"XX c #57585A",
"oX c #5F625F",
"OX c #AAABAB",
"+X c #324A2F",
"@X c #727374",
"#X c #BCBDBD",
"$X c #C4C4C5",
"%X c #B0B1B1",
"&X c #929394",
"*X c #989899",
"=X c #083000",
"-X c #092C00",
";X c #132E0F",
":X c #293F22",
">X c #0F4000",
",X c #8C8D8E",
"<X c #7E8082",
"1X c #555B54",
"2X c #062900",
"3X c #0C3900",
"4X c #DADADB",
"5X c #616262",
"6X c #CCCDCD",
"7X c #BABBBC",
"8X c #757E75",
"9X c #1E5401",
"0X c #0D3D00",
"qX c #082804",
"wX c gray91",
"eX c #6F6F70",
"rX c #666F65",
"tX c #313131",
"yX c #4D6444",
"uX c #869D78",
"iX c #2A6F01",
"pX c #7F8081",
"aX c #5E5F61",
"sX c #9EAB99",
"dX c #EFF0F0",
"fX c #515253",
"gX c #0C3C00",
"hX c #195501",
"jX c #575C56",
"kX c #2A4328",
"lX c #D4D5D5",
"zX c #0B3500",
"xX c #436134",
"cX c #9E9F9F",
"vX c #144C00",
"bX c #EAEAEB",
"nX c #A1A3A4",
"mX c #B3B4B5",
"MX c #606263",
"NX c #414D41",
"BX c #435841",
"VX c #0C2D07",
"CX c #283D25",
"ZX c gray83",
"AX c #395136",
"SX c #072B00",
"DX c #818282",
"FX c #E2E3E3",
"GX c gray65",
"HX c #1A5901",
"JX c #EFF1EE",
"KX c #DEDFDF",
"LX c #6D726D",
"PX c #CCCCCD",
"IX c #113C01",
/* pixels */
". . . . . . . . . . . . . . . . . . . . . . . . . . ",
"o o o o o o o o o o o o o o o o o o o o o o o o o o ",
"O O O O O O O O O O O O O O O O O O O O O O O O O O ",
"                                                    ",
"$ $ $ $ $ $ $ $ $ $ $ $ $ %Xl l r $ $ $ $ $ $ $ $ $ ",
"@ @ @ @ @ @ @ @ @ @ w ,XA 3 3 3 3 DXm.;.@ @ @ @ @ @ ",
"% % % % % % % % % &XN 5 5 oX1XY K.7 i.l.r % % % % % ",
"- - - - - - - - U i i b.;Xg.SX[.CXLX}.+.GX# - - - - ",
"@ @ @ @ @ @ @ *X3 3 p.4 c.L c z E.z.8XOXH.g 8 @ @ @ ",
"> > > > > > mXB P R.4 0XN.hXHXE h L.e.t.g ' #X> > > ",
"# # # # # # x.6 v.W.3XvXZ k.` 0 D h Y.q.y y a 7X# # ",
"# # # # # # eX6 7.4 c s.0 T.S iX0 j V.-.T 8 $Xa # # ",
"# # # # # C 6 6 G =Xk _.].uX0.|.9Xw.>X! 6X~ s 8 # # ",
"2 2 2 2 2 f.x x NX( z n {.t t I.xXQ } VX| =.>.s 2 2 ",
"% % % % % w 5 5 jX2X-XsXM.)./ B.JXV  .+XlXW /.PX% % ",
"1 1 1 1 1 ,.j.d d d.4 6.P.9.j IXyX:XH O.:.^ 4X$.1 1 ",
"< < < < < < I p p ^.qXD.gX~.A.k zX4 *._ wX<.v bX< < ",
", , , , , , ZXe e e rX4.J.#.G.F h.AX&.q q q dX{ , , ",
": : : : : : : 8.7 7 u m '.a.kXBXy.X.KX] [ FXr.: : : ",
"; ; ; ; ; ; ; <X(.f fXMX XS.`.nXb F.@.w r Z.; ; ; ; ",
"= = = = = = = = XX!.M f 5X@XQ.o.1...cX.Xu.aX= = = = ",
"* * * * * * * * * * C.3.U.5.) K u pX2.%.* * * * * * ",
"& & & & & & & & & & & R tXn.9 9 9 J & & & & & & & & ",
"+ + + + + + + + + + + + + + + + + + + + + + + + + + ",
"X X X X X X X X X X X X X X X X X X X X X X X X X X "
};
