/* XPM */
static char *maximize_inactive[] = {
/* columns rows colors chars-per-pixel */
"26 25 256 2 ",
"   c #364532",
".  c #424243",
"X  c #1E291B",
"o  c #202A1E",
"O  c #494E4A",
"+  c #1B2719",
"@  c #7D7D7C",
"#  c #DCDBDB",
"$  c #B5B6B6",
"%  c #9D9D9D",
"&  c #A8A9A9",
"*  c #9F9F9F",
"=  c #C4C5C6",
"-  c #B9BABB",
";  c #C0C1C2",
":  c #BFC0C1",
">  c #1E1E1E",
",  c #242526",
"<  c #5C5D5F",
"1  c #BEBFC0",
"2  c #858789",
"3  c #E5E6E6",
"4  c #BDBEBF",
"5  c #FEFEFE",
"6  c #ECECED",
"7  c #BBBCBD",
"8  c #D0D1D2",
"9  c gray42",
"0  c DimGray",
"q  c #666667",
"w  c gray31",
"e  c #C3C4C5",
"r  c #838383",
"t  c #787979",
"y  c #B7B8B9",
"u  c #B5B6B7",
"i  c #EEEEEE",
"p  c #7B7B7C",
"a  c gray44",
"s  c #AFB0B1",
"d  c #616262",
"f  c #676768",
"g  c #536151",
"h  c #BEBFBF",
"j  c #BFC0C0",
"k  c #686869",
"l  c #686969",
"z  c #C8C9CA",
"x  c #728C63",
"c  c #505152",
"v  c #7A7B7B",
"b  c #B7B8B8",
"n  c #6D8461",
"m  c #6C8461",
"M  c #8B8C8D",
"N  c #DEDFDF",
"B  c #6E8663",
"V  c #7A8D74",
"C  c #8F9090",
"Z  c #CCCDCD",
"A  c #718A63",
"S  c #6B6B6C",
"D  c #898A8A",
"F  c #708962",
"G  c #5F7259",
"H  c #AEAEAF",
"J  c #5A5B5B",
"K  c #808A7F",
"L  c #778C70",
"P  c #B9BABA",
"I  c gray65",
"U  c #838485",
"Y  c #DBDBDC",
"T  c #757775",
"R  c #B2B3B4",
"E  c #929394",
"W  c #3E463E",
"Q  c #6F6F70",
"!  c #B0B1B1",
"~  c #596657",
"^  c #CECFCF",
"/  c #687764",
"(  c #788973",
")  c #738B68",
"_  c #6A6A6B",
"`  c #B6BAB6",
"'  c #68696A",
"]  c #696A6B",
"[  c #C4C4C5",
"{  c #727374",
"}  c #677564",
"|  c #A8A9AA",
" . c #899188",
".. c #E1E2E2",
"X. c #3A4A35",
"o. c gray13",
"O. c #A5A6A8",
"+. c #C9CACA",
"@. c #51624D",
"#. c #636464",
"$. c #565759",
"%. c #DADADB",
"&. c #3C3D3D",
"*. c #8D8E8F",
"=. c #667763",
"-. c #566552",
";. c #454647",
":. c #5B5D5B",
">. c gray91",
",. c #738C63",
"<. c #E6E6E7",
"1. c #40503C",
"2. c #4C594A",
"3. c gray83",
"4. c #5F705B",
"5. c #728769",
"6. c #667B5E",
"7. c #4E594D",
"8. c #CCCCCD",
"9. c #737474",
"0. c #595B59",
"q. c #7F8081",
"w. c #6A8063",
"e. c #5A6E53",
"r. c #425040",
"t. c #708864",
"y. c #727E70",
"u. c #727E71",
"i. c #E4E5E5",
"p. c #C6C7C7",
"a. c #E5E6E5",
"s. c #797A7A",
"d. c #8B8E8B",
"f. c #EFF0F0",
"g. c #576456",
"h. c #AEAFB0",
"j. c #828782",
"k. c #868787",
"l. c #252E24",
"z. c #2A2B2B",
"x. c #556055",
"c. c #728C64",
"v. c #B4B5B6",
"b. c #CECFD0",
"n. c #959B94",
"m. c #485844",
"M. c #384037",
"N. c #BCBDBD",
"B. c #9C9C9D",
"V. c #666967",
"C. c #4B4C4C",
"Z. c #A1A1A2",
"A. c #A1A3A4",
"S. c #313131",
"D. c #353C35",
"F. c #AAABAB",
"G. c #909090",
"H. c #B3B4B5",
"J. c #949596",
"K. c #C2C3C4",
"L. c #7C8E77",
"P. c #5E6E59",
"I. c #778D6F",
"U. c #505451",
"Y. c #748F63",
"T. c #CCCDCE",
"R. c #464748",
"E. c #75896E",
"W. c #969798",
"Q. c #4B5849",
"!. c #6D8662",
"~. c #FDFDFD",
"^. c #64775F",
"/. c #D2D3D4",
"(. c #313F2D",
"). c #D6D6D7",
"_. c #9E9F9F",
"`. c #54684E",
"'. c #D0D1D1",
"]. c #D1D2D2",
"[. c #A6A7A8",
"{. c #283426",
"}. c #778077",
"|. c #778773",
" X c #E0E1E1",
".X c #E2E3E3",
"XX c #687A63",
"oX c #607558",
"OX c #818282",
"+X c #73856D",
"@X c #6F726F",
"#X c #6D776B",
"$X c #51644B",
"%X c #728A67",
"&X c #6D7E68",
"*X c #6F7D6D",
"=X c #868788",
"-X c #495747",
";X c #54654E",
":X c #69805E",
">X c #8C948C",
",X c #6B8260",
"<X c #DDDDDE",
"1X c #798279",
"2X c gray22",
"3X c #989899",
"4X c #8C8D8E",
"5X c #6F8863",
"6X c #8D8E8D",
"7X c #445440",
"8X c #B1B2B3",
"9X c #EAEAEB",
"0X c #546650",
"qX c #6C8363",
"wX c #566652",
"eX c #717172",
"rX c #444944",
"tX c #474C47",
"yX c #6D8167",
"uX c #6F8367",
"iX c #BABBBC",
"pX c #738D63",
"aX c #E8E9E9",
"sX c #E7E7E7",
"dX c #414D3F",
"fX c #B5B9B5",
"gX c #6A7E64",
"hX c #5A6D54",
"jX c gray86",
"kX c #D4D5D5",
"lX c #7A8C76",
"zX c #999A9B",
"xX c #718569",
"cX c #747575",
"vX c #677D5E",
"bX c #AEAFAE",
"nX c #9A9C9D",
"mX c #9B9C9C",
"MX c #4F5A4F",
"NX c #5E5F61",
"BX c #8B938B",
"VX c #8A938A",
"CX c #6B7F65",
"ZX c #515253",
"AX c #606263",
"SX c #7E8082",
"DX c #4C5B4A",
"FX c #6A8162",
"GX c #677665",
"HX c #5B6F53",
"JX c #898A8B",
"KX c #435141",
"LX c #718B63",
"PX c #708964",
"IX c #6E8763",
"UX c #777879",
/* pixels */
"% % % % % % % % % % % % % % % % % % % % % % % % % % ",
"* * * * * * * * * * * * * * * * * * * * * * * * * * ",
"& & & & & & & & & & & & & & & & & & & & & & & & & & ",
"$ $ $ $ $ $ $ $ $ $ $ $ $ $ $ $ $ $ $ $ $ $ $ $ $ $ ",
"; ; ; ; ; ; ; ; ; ; ; ; ; ! s s y ; ; ; ; ; ; ; ; ; ",
"= = = = = = = = = = u 4XeX9 9 9 9 OX[.K.= = = = = = ",
": : : : : : : : : E _ 0 0 d 0.k S t k.W.y : : : : : ",
"1 1 1 1 1 1 1 1 =Xl l O l.+ X o W T C mXI - 1 1 1 1 ",
"= = = = = = = 3X9 9 D.+ (.@.4.P.g 7.d.F.8Xb e = = = ",
"4 4 4 4 4 4 H.] k rXX wX+XE.xXCXXX/ #XbXb P N.4 4 4 ",
"- - - - - - D q #.o -.V I.) t.,XoX;X} n.h h j iX- - ",
"- - - - - - Q q U.{.( L %Xc.x F :X`.m.K p.e [ j - - ",
"- - - - - v.q q tXr.L.5.PX,.Y.x n HXX.y.Z +.z e - - ",
"7 7 7 7 7 h.f f O 2.lXuXB LXpXA m e.  u.'.^ T.z 7 7 ",
": : : : : u 0 0 :.dX|.yXqXIX5X!.vX$X   .kX/.].8.: : ",
"8 8 8 8 8 b.9.a a M.*X&XgXw.FX6.hX1.Q.` <XY %.).8 8 ",
"6 6 6 6 6 6 B.p p V.MXGX=.^.G 0X7XKXVXaX>.sX<.9X6 6 ",
"5 5 5 5 5 5 3.r r r @Xx.~ g DX-Xg.>Xa.i i i f.~.5 5 ",
"3 3 3 3 3 3 3 G.t t v 6Xj.}.1XBXfXjXN  X...Xi.3 3 3 ",
"2 2 2 2 2 2 2 SX$.c ZXAXUXM nXA.| H R u y O.2 2 2 2 ",
"< < < < < < < < $.;.. c d { U *.J.zX_.Z.JXNX< < < < ",
", , , , , , , , , , z.&.C.J ' cXv q.s.R., , , , , , ",
"> > > > > > > > > > > o.S.. w w w 2X> > > > > > > > ",
"@ @ @ @ @ @ @ @ @ @ @ @ @ @ @ @ @ @ @ @ @ @ @ @ @ @ ",
"# # # # # # # # # # # # # # # # # # # # # # # # # # "
};
