/* XPM */
static char *maximize_pressed[] = {
/* columns rows colors chars-per-pixel */
"26 25 256 2 ",
"   c #921E07",
".  c #8D2309",
"X  c #DF5D1F",
"o  c #821B06",
"O  c #424243",
"+  c #961F07",
"@  c #B23710",
"#  c #8B1D07",
"$  c #B5B6B6",
"%  c #DCDBDB",
"&  c #9D9D9D",
"*  c #9F9F9F",
"=  c #7D7D7C",
"-  c #C4C5C6",
";  c #A8A9A9",
":  c #B9BABB",
">  c #C0C1C2",
",  c #BFC0C1",
"<  c #1E1E1E",
"1  c #242526",
"2  c #5C5D5F",
"3  c #BEBFC0",
"4  c #858789",
"5  c #E5E6E6",
"6  c #BDBEBF",
"7  c #ECECED",
"8  c #FEFEFE",
"9  c #BBBCBD",
"0  c #D0D1D2",
"q  c gray42",
"w  c #666667",
"e  c DimGray",
"r  c #838383",
"t  c #B7B8B9",
"y  c #B5B6B7",
"u  c #787979",
"i  c #C3C4C5",
"p  c #EEEEEE",
"a  c gray31",
"s  c #BEBFBF",
"d  c #98250A",
"f  c #BFC0C0",
"g  c #B7B8B8",
"h  c gray44",
"j  c #676768",
"k  c #7B7B7C",
"l  c #7A7B7B",
"z  c #AFB0B1",
"x  c #686969",
"c  c gray100",
"v  c #C8C9CA",
"b  c #505152",
"n  c #6A4642",
"m  c #6B4741",
"M  c #D37151",
"N  c #CCCCCD",
"B  c #6E3026",
"V  c #D6D6D7",
"C  c #AEAFB0",
"Z  c #AAABAB",
"A  c #A5290B",
"S  c #CCCDCD",
"D  c #B3482C",
"F  c #68696A",
"G  c #C6C7C7",
"H  c #BB3A11",
"J  c #6A5754",
"K  c #721B0B",
"L  c #C4C4C5",
"P  c #7D1A06",
"I  c #C84515",
"U  c #898A8A",
"Y  c #F5AC89",
"T  c #EFF0F0",
"R  c #969798",
"E  c #FAB98E",
"W  c #E8E7E7",
"Q  c #803529",
"!  c #8B8C8D",
"~  c #57585A",
"^  c #EAEAEB",
"/  c #737474",
"(  c #838485",
")  c #DD4F19",
"_  c #E35F1F",
"`  c #CF4816",
"'  c #696A6B",
"]  c #A62F0D",
"[  c #A1A3A4",
"{  c #C7664E",
"}  c #D35932",
"|  c #96270A",
" . c #C54415",
".. c #CECFCF",
"X. c #A6A7A8",
"o. c #464748",
"O. c #D2D3D4",
"+. c #F9D5C4",
"@. c #B9BABA",
"#. c #B1B2B3",
"$. c #2A2B2B",
"%. c #937976",
"&. c #F37427",
"*. c #BABBBC",
"=. c #777879",
"-. c #6A5957",
";. c #818282",
":. c #791906",
">. c #6B403A",
",. c #6B6B6C",
"<. c gray86",
"1. c #BD330E",
"2. c #B5330E",
"3. c #AC2F0D",
"4. c #E6E6E7",
"5. c #E76522",
"6. c #741C0E",
"7. c #D4D5D5",
"8. c #791B08",
"9. c #8D8E8F",
"0. c #7F1805",
"q. c #9A9C9D",
"w. c #BD3B11",
"e. c #7E8082",
"r. c #8F9090",
"t. c #A32C0C",
"y. c #606263",
"u. c #898A8B",
"i. c #761906",
"p. c #AEA5A4",
"a. c #7E1705",
"s. c #D45019",
"d. c #696868",
"f. c #8D4C42",
"g. c #E4E5E5",
"h. c #717172",
"j. c #929394",
"k. c #666363",
"l. c #F2874F",
"z. c #F69555",
"x. c #AF8984",
"c. c #B3948F",
"v. c #D44C18",
"b. c #DA4C17",
"n. c #7F6F6D",
"m. c #FBBF91",
"M. c #727374",
"N. c #FDFDFD",
"B. c #747575",
"V. c #868787",
"C. c #B4B5B6",
"Z. c #A8A9AA",
"A. c #9D2B0C",
"S. c #6E2112",
"D. c #BCBDBD",
"F. c #846965",
"G. c #D64A17",
"H. c #786462",
"J. c #C2C3C4",
"K. c #EB6722",
"L. c #A1A1A2",
"P. c #F6C0A6",
"I. c gray65",
"U. c #CA6241",
"Y. c #909090",
"T. c #E87F4C",
"R. c #949596",
"E. c #5E5F61",
"W. c #5A5B5B",
"Q. c #772110",
"!. c #72261A",
"~. c #7B2D1E",
"^. c #A22B0B",
"/. c #B3B4B5",
"(. c #90615B",
"). c #6F6F70",
"_. c #313131",
"`. c #CECFD0",
"'. c #CCCDCE",
"]. c #925F56",
"[. c #694E4A",
"{. c #833F32",
"}. c #FCF3F0",
"|. c #A9300D",
" X c #797A7A",
".X c #545657",
"XX c #9C9C9D",
"oX c #881905",
"OX c #D0D1D1",
"+X c #E9B2A0",
"@X c gray13",
"#X c gray91",
"$X c #E0E1E1",
"%X c #AEAEAF",
"&X c #E2E3E3",
"*X c #F47A2A",
"=X c #E66020",
"-X c #9E9F9F",
";X c #4B4C4C",
":X c #EF7227",
">X c #CA4817",
",X c #C0360F",
"<X c #DBDBDC",
"1X c #868788",
"2X c #686869",
"3X c #E4DDDC",
"4X c #FDF4F0",
"5X c #FEF6F1",
"6X c #823A2F",
"7X c #DDDDDE",
"8X c #DEDFDF",
"9X c #E1E2E2",
"0X c #8A4339",
"qX c #6A443F",
"wX c gray22",
"eX c #3C3D3D",
"rX c #989899",
"tX c #999A9B",
"yX c #B0B1B1",
"uX c #454647",
"iX c #B8320E",
"pX c #C9CACA",
"aX c #6A6A6B",
"sX c #B2B3B4",
"dX c #B2300D",
"fX c #D34916",
"gX c #AD2B0B",
"hX c #992008",
"jX c #E7E7E7",
"kX c #DADADB",
"lX c #E56421",
"zX c #CD4D18",
"xX c #751D0B",
"cX c #CD4A17",
"vX c gray83",
"bX c #9B260A",
"nX c #703328",
"mX c #791E0C",
"MX c #8C8D8E",
"NX c #6A615F",
"BX c #7F1B06",
"VX c #A5A6A8",
"CX c #9B9C9C",
"ZX c #CA4615",
"AX c #874035",
"SX c #515253",
"DX c #C34415",
"FX c #918A8A",
"GX c #7F8081",
"HX c #891C06",
"JX c #A62D0C",
"KX c #761707",
"LX c #A12C0C",
"PX c #A7290B",
"IX c #616262",
"UX c #D1D2D2",
/* pixels */
"& & & & & & & & & & & & & & & & & & & & & & & & & & ",
"* * * * * * * * * * * * * * * * * * * * * * * * * * ",
"; ; ; ; ; ; ; ; ; ; ; ; ; ; ; ; ; ; ; ; ; ; ; ; ; ; ",
"$ $ $ $ $ $ $ $ $ $ $ $ $ $ $ $ $ $ $ $ $ $ $ $ $ $ ",
"> > > > > > > > > > > > > yXz z t > > > > > > > > > ",
"- - - - - - - - - - y MXh.q q q q ;.X.J.- - - - - - ",
", , , , , , , , , j.aXe e NXJ d.,.u V.R t , , , , , ",
"3 3 3 3 3 3 3 3 1Xx x m S.:.P i.nXn.r.CXI.: 3 3 3 3 ",
"- - - - - - - rXq q B BXd JX|.LX. xX%.Z #.g i - - - ",
"6 6 6 6 6 6 /.' 2X>.o ^.H ZXcX .@ | Q.p.g @.D.6 6 6 ",
": : : : : : U w k.K bXw.s._ 5.X zX@ . ].s s f *.: : ",
": : : : : : ).w [.o 3.` =X&.*X:XX DXA.~.G i L f : : ",
": : : : : C.w w qX# 2.v.K.E m.z.lX>X] 8.S pXv i : : ",
"9 9 9 9 9 C j j n HXdXfXP.c c 5XT.I t.mXOX..'.v 9 9 ",
", , , , , y e e -.a.PX+X4XY l.+.}.U.d {.7.O.UXN , , ",
"0 0 0 0 0 `./ h h !.  { } b.) G.M D o x.7X<XkXV 0 0 ",
"7 7 7 7 7 7 XXk k H.KX+ gX1.,XiXA # AXW #XjX4.^ 7 7 ",
"8 8 8 8 8 8 vXr r r F.6.oX+ hX  0.0X3Xp p p T N.8 8 ",
"5 5 5 5 5 5 5 Y.u u l FX(.6XQ f.c.<.8X$X9X&Xg.5 5 5 ",
"4 4 4 4 4 4 4 e..Xb SXy.=.! q.[ Z.%XsXy t VX4 4 4 4 ",
"2 2 2 2 2 2 2 2 ~ uXO b IXM.( 9.R.tX-XL.u.E.2 2 2 2 ",
"1 1 1 1 1 1 1 1 1 1 $.eX;XW.F B.l GX Xo.1 1 1 1 1 1 ",
"< < < < < < < < < < < @X_.O a a a wX< < < < < < < < ",
"= = = = = = = = = = = = = = = = = = = = = = = = = = ",
"% % % % % % % % % % % % % % % % % % % % % % % % % % "
};
