/* XPM */
static char *maximize_active[] = {
/* columns rows colors chars-per-pixel */
"26 25 119 2 ",
"   c #1E1E1E",
".  c #242526",
"X  c #2A2B2B",
"o  c #313131",
"O  c #3A3B3B",
"+  c #375E07",
"@  c #395C0F",
"#  c #376102",
"$  c #3A6502",
"%  c #3C6B01",
"&  c #3B620B",
"*  c #3F7001",
"=  c #3E6018",
"-  c #447401",
";  c #467B01",
":  c #4C7E01",
">  c #537C01",
",  c #466A19",
"<  c #445F25",
"1  c #466225",
"2  c #4A6523",
"3  c #4C6F28",
"4  c #577523",
"5  c #52722E",
"6  c #4E6139",
"7  c #50613E",
"8  c #577632",
"9  c #5A7936",
"0  c #617934",
"q  c #434344",
"w  c #464748",
"e  c #4E4E4E",
"r  c #515254",
"t  c #57585A",
"y  c #5C5D5F",
"u  c #516340",
"i  c #56624A",
"p  c #5E6655",
"a  c #607E41",
"s  c #63675F",
"d  c #5E5F61",
"f  c #646565",
"g  c #676768",
"h  c #6A6A6A",
"j  c #6A7462",
"k  c #727E65",
"l  c #747B6D",
"z  c #6F6F70",
"x  c #727273",
"c  c #777879",
"v  c #7C7C7C",
"b  c #4D8101",
"n  c #518601",
"m  c #588401",
"M  c #548A01",
"N  c #588E01",
"B  c #599201",
"V  c #5F9901",
"C  c #609301",
"Z  c #639D01",
"A  c #769C01",
"S  c #64A201",
"D  c #6CA201",
"F  c #73AB02",
"G  c #77B202",
"H  c #79B202",
"J  c #7FB902",
"K  c #748B34",
"L  c #7A9234",
"P  c #6C8345",
"I  c #6F8654",
"U  c #6F865A",
"Y  c #8FB202",
"T  c #98B603",
"R  c #889935",
"E  c #91C602",
"W  c #93CA02",
"Q  c #9DD002",
"!  c #A2CA02",
"~  c #818D75",
"^  c #A4B478",
"/  c #B3BD78",
"(  c #7F8081",
")  c #838484",
"_  c #858789",
"`  c #8B8C8D",
"'  c #8D908A",
"]  c #8F9090",
"[  c #929393",
"{  c #969798",
"}  c #9E9E9E",
"|  c #95A683",
" . c #9DAC8F",
".. c #B1BF99",
"X. c #A3A3A4",
"o. c #A8ACA4",
"O. c #A6A7A8",
"+. c #A8A9A9",
"@. c #AEAFB0",
"#. c #AFB0B1",
"$. c #B5B6B6",
"%. c #B7B8B9",
"&. c #BABBBC",
"*. c #BAC799",
"=. c #D1D9BB",
"-. c #BEBFC0",
";. c #BFC0C1",
":. c #C2C3C4",
">. c #CBCCCC",
",. c #CECFD0",
"<. c #D1D2D3",
"1. c #DCDBDB",
"2. c #DFE2DC",
"3. c #E4E5E5",
"4. c #E7E8E7",
"5. c #ECECED",
"6. c #F4F5EE",
"7. c #EFF0F0",
"8. c #FEFEFE",
/* pixels */
"} } } } } } } } } } } } } } } } } } } } } } } } } } ",
"} } } } } } } } } } } } } } } } } } } } } } } } } } ",
"+.+.+.+.+.+.+.+.+.+.+.+.+.+.+.+.+.+.+.O.+.+.+.+.+.+.",
"$.$.$.$.$.$.$.$.$.$.$.$.$.$.%.%.$.$.$.$.%.$.$.$.$.%.",
":.:.:.:.:.-.:.:.;.:.:.:.:.#.#.#.%.:.-.:.;.:.:.:.;.;.",
":.:.:.:.:.:.:.:.:.:.$.` z h h h h ( O.:.:.:.:.:.:.:.",
":.:.&.;.:.:.-.-.:.[ h h g s p h h v ) { &.-.;.;.:.;.",
"&.;.;.;.&.;.&.:._ g h 7 @ $ % $ 2 l ] } O.&.;.;.;.;.",
":.:.:.:.:.:.:.{ h h < % : N N n ; # ~ @.#.%.:.:.:.:.",
"-.-.-.-.-.-.$.h h 6 % n Z F G F C : & o.%.&.&.-.;.-.",
"&.&.&.%.-.&.` f f + b D J W Q E H C - I -.;.;.&.&.&.",
"&.&.%.&.%.&.z f i % B H W Y T ! E F n , :.:.:.;.&.%.",
"%.%.&.%.&.$.f g 7 - C F A / / R A G N $ >.>.>.:.&.&.",
"-.&.&.-.&.@.g g u - m m *.8.8.6.K m M & <.,.>.>.&.&.",
";.-.-.-.;.$.h h p $ $ ..6.^ L =.6.0 - 5 <.<.<.>.-.-.",
"<.,.<.,.<.,.x z z = * a 4 C D > P 2 $ | 1.1.1.<.<.<.",
"5.5.5.5.5.5.} v v j # % n V S V * % 8 3.4.3.4.5.5.5.",
"8.8.8.8.8.8.<.) ) ) k & * ; b ; % 9 2.5.7.5.7.8.8.8.",
"3.3.3.3.3.3.3.] v c v ' U 5 3 a  .1.2.3.3.3.3.3.3.3.",
"_ _ _ _ ` _ _ ( r e r f c ` { X.+.@.#.%.#.O._ _ _ _ ",
"d y d d d y y y t w q r f x _ ` { { } X.` d y y y y ",
". . . . . . . . . . X O e t h x v ( c w . . . . . . ",
"                        o q e e r O                 ",
"v v v v v v v v v v v v v v v v v c ( v v v v v v v ",
"1.1.1.1.1.1.1.1.1.1.1.1.1.1.1.1.1.1.1.1.1.1.1.1.1.1."
};
