/* XPM */
static char *maximize_toggled_prelight[] = {
/* columns rows colors chars-per-pixel */
"26 25 256 2 ",
"   c #083100",
".  c #B5B6B6",
"X  c #C4C5C6",
"o  c #9D9D9D",
"O  c #A8A9A9",
"+  c #DCDBDB",
"@  c #7D7D7C",
"#  c #9F9F9F",
"$  c #B9BABB",
"%  c #C0C1C2",
"&  c #BFC0C1",
"*  c #1E1E1E",
"=  c #242526",
"-  c #5C5D5F",
";  c #BEBFC0",
":  c #858789",
">  c #E5E6E6",
",  c #BDBEBF",
"<  c #FEFEFE",
"1  c #ECECED",
"2  c #D0D1D2",
"3  c #BBBCBD",
"4  c gray42",
"5  c DimGray",
"6  c #666667",
"7  c #B7B8B9",
"8  c gray100",
"9  c #787979",
"0  c #072C00",
"q  c #B5B6B7",
"w  c gray31",
"e  c #838383",
"r  c #EEEEEE",
"t  c #C3C4C5",
"y  c #676768",
"u  c #B7B8B8",
"i  c #0B3700",
"p  c #144C00",
"a  c #BEBFBF",
"s  c #AFB0B1",
"d  c #686969",
"f  c #7A7B7B",
"g  c #7B7B7C",
"h  c #C8C9CA",
"j  c #134700",
"k  c #505152",
"l  c #0E3E00",
"z  c #D0D8CC",
"x  c #BFC0C0",
"c  c gray44",
"v  c #6F6F70",
"b  c #124001",
"n  c #0C3900",
"m  c #626463",
"M  c #D4D5D5",
"N  c #204312",
"B  c #849083",
"V  c #C4C4C5",
"C  c #0C3D00",
"Z  c #0B3400",
"A  c #838485",
"S  c #898A8A",
"D  c #104600",
"F  c #0D3600",
"G  c #123C01",
"H  c #0D3D00",
"J  c #093300",
"K  c #062C00",
"L  c #0C3800",
"P  c #D6D6D7",
"I  c #CFD6CC",
"U  c #134900",
"Y  c #0E3C00",
"T  c #FDFDFD",
"R  c #BABBBC",
"E  c #C1CCBB",
"W  c #CCCDCD",
"Q  c #B9BABA",
"!  c #2F472D",
"~  c #EFF0F0",
"^  c #DADADB",
"/  c #E4E5E5",
"(  c #143A01",
")  c #276601",
"_  c #8A8C8A",
"`  c #616862",
"'  c #747575",
"]  c #728967",
"[  c #0A3300",
"{  c #C6C7C7",
"}  c #414D41",
"|  c #082D00",
" . c #324A2F",
".. c #686869",
"X. c gray22",
"o. c #2A4328",
"O. c #999A9B",
"+. c #246901",
"@. c #1D5E01",
"#. c #103801",
"$. c #225A01",
"%. c #454647",
"&. c gray83",
"*. c #062900",
"=. c #6B6B6C",
"-. c #8C8D8E",
";. c #093400",
":. c #CCCCCD",
">. c #868787",
",. c #7F8081",
"<. c #414242",
"1. c #154E00",
"2. c #606263",
"3. c #132E0F",
"4. c #0A2C00",
"5. c #195501",
"6. c #114A00",
"7. c #174501",
"8. c #154A01",
"9. c #123E01",
"0. c #283D25",
"q. c #0C3700",
"w. c #083300",
"e. c #0E3F00",
"r. c #072901",
"t. c #0C2C06",
"y. c #062A00",
"u. c #EAEAEB",
"i. c #DBDBDC",
"p. c #8F9A8F",
"a. c #B4B5B6",
"s. c #A1A1A2",
"d. c #A1A3A4",
"f. c #5E5F61",
"g. c gray65",
"h. c #2A2B2B",
"j. c #BCBDBD",
"k. c #566854",
"l. c #5F625F",
"z. c #5B6A5A",
"x. c #909090",
"c. c #929394",
"v. c #5A5B5B",
"b. c #313131",
"n. c #CECFCF",
"m. c #CCCDCE",
"M. c #6A6A6B",
"N. c #6D726D",
"B. c #354D32",
"V. c #435841",
"C. c #B3B4B5",
"Z. c #464748",
"A. c #B1BEAA",
"S. c #DDDDDE",
"D. c #DCDFDC",
"F. c #DEDFDF",
"G. c #797A7A",
"H. c #A3A6A4",
"J. c #9C9C9D",
"K. c #D1D2D2",
"L. c #D0D1D1",
"P. c #317D01",
"I. c gray13",
"U. c #57585A",
"Y. c #4A534A",
"T. c gray91",
"R. c #E0E1E1",
"E. c #949596",
"W. c #E2E3E3",
"Q. c #666F65",
"!. c #092B02",
"~. c #E6E8E7",
"^. c #082804",
"/. c #969798",
"(. c #CECFD0",
"). c #9E9F9F",
"_. c #4B4C4C",
"`. c #1B3418",
"'. c #1E3F12",
"]. c #B2B3B4",
"[. c #1E3A19",
"{. c #A8A9AA",
"}. c #AAABAB",
"|. c #868788",
" X c #686868",
".X c #545657",
"XX c #8F9090",
"oX c #E1E6DD",
"OX c #818282",
"+X c #3C3D3D",
"@X c #3E4B3E",
"#X c #D2D3D4",
"$X c #989899",
"%X c #696A6B",
"&X c #1A5901",
"*X c #C2C3C4",
"=X c #1C5A01",
"-X c #B1B2B3",
";X c #B0B1B1",
":X c #E1E2E2",
">X c #C9CACA",
",X c #717172",
"<X c #0F2C0B",
"1X c #5E7556",
"2X c #E6E6E7",
"3X c #E7E7E7",
"4X c gray86",
"5X c #68696A",
"6X c #555B54",
"7X c #575C56",
"8X c #2F5812",
"9X c #0C2A07",
"0X c #8D8E8F",
"qX c #A5A6A8",
"wX c #A6A7A8",
"eX c #9A9C9D",
"rX c #9B9C9C",
"tX c #515253",
"yX c #0D4000",
"uX c #395136",
"iX c #0F4300",
"pX c #7E8082",
"aX c #738A67",
"sX c #757E75",
"dX c #124300",
"fX c #256B01",
"gX c #616262",
"hX c #898A8B",
"jX c #112F0B",
"kX c #AEAFB0",
"lX c #082F00",
"zX c #597845",
"xX c #185301",
"cX c #072E00",
"vX c #414E40",
"bX c #869D78",
"nX c #154601",
"mX c #424243",
"MX c #144B00",
"NX c #AEAEAF",
"BX c #777879",
"VX c #0C3C00",
"CX c #273C25",
"ZX c #8B8C8D",
"AX c #0C3600",
"SX c #3A4839",
"DX c #083200",
"FX c #737474",
"GX c #134101",
"HX c #727374",
"JX c #072900",
"KX c #0F4100",
"LX c #104700",
"PX c #0C2D07",
"IX c #0E3D00",
"UX c #276F01",
/* pixels */
"o o o o o o o o o o o o o o o o o o o o o o o o o o ",
"# # # # # # # # # # # # # # # # # # # # # # # # # # ",
"O O O O O O O O O O O O O O O O O O O O O O O O O O ",
". . . . . . . . . . . . . . . . . . . . . . . . . . ",
"% % % % % % % % % % % % % ;Xs s 7 % % % % % % % % % ",
"X X X X X X X X X X q -.,X4 4 4 4 OXwX*XX X X X X X ",
"& & & & & & & & & c.M.5 5 l.6X X=.9 >./.7 & & & & & ",
"; ; ; ; ; ; ; ; |.d d vX3.JX0 r.0.N.XXrXg.$ ; ; ; ; ",
"X X X X X X X $X4 4 CX0 i e.KXIXZ t.sX}.-Xu t X X X ",
", , , , , , C.%X..SX0 H MX5.&XxXj L jXH.u Q j., , , ",
"$ $ $ $ $ $ S 6 m 9Xn p @.fXUX+.=Xj [ k.a a x R $ $ ",
"$ $ $ $ $ $ v 6 Y.0 AX#.7.) P.$.( G Y [.{ t V x $ $ ",
"$ $ $ $ $ a.6 6 @X  4.I z zX8XbX8 1XF !.W >Xh t $ $ ",
"3 3 3 3 3 kXy y } cXq.'.z 8 oX8 ] 9.l PXL.n.m.h 3 3 ",
"& & & & & q 5 5 7X*.C dXN A.E aXnXp i  .M #XK.:.& & ",
"2 2 2 2 2 (.FXc c `.DXiXU GXb 8.1.l | B S.i.^ P 2 2 ",
"1 1 1 1 1 1 J.g g ` ^.J yXLX6.D VXlXB.~.T.3X2Xu.1 1 ",
"< < < < < < &.e e e Q.<XK w.;.  y.uXD.r r r ~ T < < ",
"> > > > > > > x.9 9 f _ z.! o.V.p.4XF.R.:XW./ > > > ",
": : : : : : : pX.Xk tX2.BXZXeXd.{.NX].q 7 qX: : : : ",
"- - - - - - - - U.%.mXk gXHXA 0XE.O.).s.hXf.- - - - ",
"= = = = = = = = = = h.+X_.v.5X' f ,.G.Z.= = = = = = ",
"* * * * * * * * * * * I.b.<.w w w X.* * * * * * * * ",
"@ @ @ @ @ @ @ @ @ @ @ @ @ @ @ @ @ @ @ @ @ @ @ @ @ @ ",
"+ + + + + + + + + + + + + + + + + + + + + + + + + + "
};
