/* XPM */
static char *maximize_toggled_active[] = {
/* columns rows colors chars-per-pixel */
"26 25 256 2 ",
"   c #9B9C9D",
".  c #526341",
"X  c #8B8C8D",
"o  c #818282",
"O  c #696A6B",
"+  c #558C01",
"@  c #538801",
"#  c #407201",
"$  c #3D6C01",
"%  c #414141",
"&  c #939392",
"*  c #C4C5C6",
"=  c #9F9F9F",
"-  c #B5B6B6",
";  c #9D9D9D",
":  c #A8A9A9",
">  c #525251",
",  c #B9BABB",
"<  c #C0C1C2",
"1  c #BFC0C1",
"2  c #1E1D1D",
"3  c #0B0B0C",
"4  c #BEBFC0",
"5  c #565859",
"6  c #848688",
"7  c #E5E6E6",
"8  c #BDBEBF",
"9  c #FEFEFE",
"0  c #ECECED",
"q  c #BBBCBD",
"w  c #D0D1D2",
"e  c gray42",
"r  c DimGray",
"t  c #666667",
"y  c #787979",
"u  c gray100",
"i  c #EEEEEE",
"p  c #C3C4C5",
"a  c #838383",
"s  c #4F4E4E",
"d  c gray44",
"f  c #4B7E01",
"g  c #B5B6B7",
"h  c #BEBFBF",
"j  c #AFB0B1",
"k  c #7B7B7C",
"l  c #BFC0C0",
"z  c #68A101",
"x  c #686969",
"c  c #C8C9CA",
"v  c #B7B8B8",
"b  c #676768",
"n  c #457B01",
"m  c #B7B8B9",
"M  c #4C7E01",
"N  c #5B9601",
"B  c #B0B1B1",
"V  c #D3DBBB",
"C  c #DFE2DC",
"Z  c #C2C3C4",
"A  c #92A245",
"S  c #686869",
"D  c #C9CACA",
"F  c #DADADB",
"G  c #629801",
"H  c #C6D0AA",
"J  c #376101",
"K  c #457401",
"L  c #4C7C01",
"P  c #909090",
"I  c #528B01",
"U  c #386701",
"Y  c #BABBBC",
"T  c #CCCDCE",
"R  c #4F5050",
"E  c #989899",
"W  c #AAABAB",
"Q  c #E7E7E7",
"!  c #95A683",
"~  c #757576",
"^  c #646663",
"/  c #74AE02",
"(  c #BCBDBD",
")  c #5F8201",
"_  c #396302",
"`  c #395C0F",
"'  c #C6C7C7",
"]  c #B4B6B6",
"[  c #A8ACA4",
"{  c #6D6D6E",
"}  c #6A7462",
"|  c #E1E2E2",
" . c #366104",
".. c #639A01",
"X. c #466A19",
"o. c #CCCDCD",
"O. c #707171",
"+. c #497801",
"@. c #D2D3D4",
"#. c #9C9C9D",
"$. c #D0D1D1",
"%. c #727E65",
"&. c #818D75",
"*. c #EAEAEB",
"=. c #5F8B01",
"-. c #505253",
";. c #518501",
":. c #588301",
">. c #91C602",
",. c #5A7936",
"<. c #686968",
"1. c #DDDDDE",
"2. c #50712D",
"3. c #497601",
"4. c #78B202",
"5. c #3D630B",
"6. c #97A867",
"7. c #547E01",
"8. c #588E01",
"9. c gray86",
"0. c gray31",
"q. c #A5A6A7",
"w. c #313132",
"e. c #386801",
"r. c #DEE3CC",
"t. c #5E6656",
"y. c #868787",
"u. c #467601",
"i. c #607E41",
"p. c #83A301",
"a. c #95BA02",
"s. c #9DD002",
"d. c #525455",
"f. c #545556",
"g. c #C4C4C5",
"h. c #4E6139",
"j. c #777778",
"k. c #6F6F70",
"l. c #212020",
"z. c #50613E",
"x. c #D1D2D2",
"c. c #9A9B9C",
"v. c #3B6507",
"b. c #445F25",
"n. c #FDFDFD",
"m. c #E4E5E5",
"M. c #7F8D13",
"N. c #B6B7B8",
"B. c #619701",
"V. c #9DAC8F",
"C. c #737474",
"Z. c #809556",
"A. c #B4B5B6",
"S. c #506E12",
"D. c #606162",
"F. c #AEAFB0",
"G. c #619F01",
"H. c #A6A7A8",
"J. c #669F01",
"K. c #9F9FA0",
"L. c #569001",
"P. c #A7A9AA",
"I. c #5F9B01",
"U. c #3A6106",
"Y. c #6F8654",
"T. c #6F7070",
"R. c #3C6101",
"E. c #7FB902",
"W. c #4D8101",
"Q. c #A1A2A3",
"!. c #3F7001",
"~. c #659802",
"^. c #505151",
"/. c #567612",
"(. c #8D908A",
"). c #B0BB78",
"_. c #DAE0CC",
"`. c #EFF0F0",
"'. c gray83",
"]. c #BBE003",
"[. c #437701",
"{. c #B1B3B4",
"}. c #CECFCF",
"|. c #466225",
" X c #898A8A",
".X c #B3B4B5",
"XX c #447801",
"oX c #5F6060",
"OX c #3C6A01",
"+X c #E7E8E7",
"@X c #477E01",
"#X c #3E6018",
"$X c #D6D6D7",
"%X c #383737",
"&X c #8F9090",
"*X c #ADAEAF",
"=X c #747B6D",
"-X c #868788",
";X c gray91",
":X c #969898",
">X c #DBDBDC",
",X c #E0E1E1",
"<X c #E2E3E3",
"1X c #4F6D01",
"2X c #B9BABA",
"3X c #7D7F81",
"4X c #585A5B",
"5X c #5E5F5F",
"6X c #578001",
"7X c #7A7B7B",
"8X c #6F865A",
"9X c #64A201",
"0X c #93CA02",
"qX c #71AA02",
"wX c #577632",
"eX c #3F4041",
"rX c #181819",
"tX c #518901",
"yX c #CECFD0",
"uX c #6BA601",
"iX c #DEDFDF",
"pX c #375E07",
"aX c #717172",
"sX c #54732F",
"dX c #B1B2B3",
"fX c #4C7201",
"gX c #7BB302",
"hX c #4C6F28",
"jX c #38610B",
"kX c #424344",
"lX c #6A6A6B",
"zX c #EBEEDD",
"xX c #386401",
"cX c #6B6B6C",
"vX c #3A6701",
"bX c #98AA67",
"nX c #527B01",
"mX c #E6E6E7",
"MX c #5B8D01",
"NX c #8C8D8E",
"BX c #D4D5D5",
"VX c #969798",
"CX c #4E4F4F",
"ZX c #56624A",
"AX c #3C6E01",
"SX c gray65",
"DX c #313030",
"FX c #548901",
"GX c #323233",
"HX c #3B6901",
"JX c #DDE3CC",
"KX c #929394",
"LX c #5D6654",
"PX c #CCCCCD",
"IX c #858687",
"UX c #63675F",
/* pixels */
"; ; ; ; ; ; ; ; ; ; ; ; ; ; ; ; ; ; ; ; ; ; ; ; ; ; ",
"= = = = = = = = = = = = = = = = = = = = = = = = = = ",
": : : : : : : : : : : : : : : : : : : : : : : : : : ",
"- - - - - - - - - - - - - - - - - - - - - - - - - - ",
"< < < < < < < < < < < < < B j j m < < < < < < < < < ",
"* * * * * * * * * * g NXaXe e e e o H.Z * * * * * * ",
"1 1 1 1 1 1 1 1 1 KXlXr r UXLX<.cXy y.VXm 1 1 1 1 1 ",
"4 4 4 4 4 4 4 4 -Xx x . ` xXvXJ |.=X&X  SX, 4 4 4 4 ",
"* * * * * * * E e e b.HXf + 8.@ u.U.&.W dXv p * * * ",
"8 8 8 8 8 8 .XO S h.OX@ J./ 4.qXG M 5.[ v 2X( 8 8 8 ",
", , , , , ,  Xt ^ pXW.z E.0Xs.>.gXB.K Y.h h l Y , , ",
", , , , , , k.t ZX$ +.fX) a.].p.1XnX;.X.' p g.l , , ",
", , , , , A.t t z.# R._.r.A M.).u Z.3._ o.D c p , , ",
"q q q q q F.b b . !.L S.JXu zXu 6.7.FXv.$.}.T c q q ",
"1 1 1 1 1 g r r t.U I MX/.H V bX=.z f sXBX@.x.PX1 1 ",
"w w w w w yXC.d d #XXXN ..:.6X~.uX+ $ ! 1.>XF $Xw w ",
"0 0 0 0 0 0 #.k k }  .n L.G.9XI.tX# wX+X;XQ mX*.0 0 ",
"9 9 9 9 9 9 '.a a a %.jXAXn @X[.e.,.C i i i `.n.9 9 ",
"7 7 7 7 7 7 7 P y y 7X(.8X2.hXi.V.9.iX,X| <Xm.7 7 7 ",
"6 6 6 6 6 6 6 3Xf.^.-.D.j.X c.Q.P.*X{.] N.q.6 6 6 6 ",
"5 5 5 5 5 5 5 5 d.kXeXCXoXO.o X KX:X  K.IX4X5 5 5 5 ",
"3 3 3 3 3 3 3 3 3 3 rXw.% R 5XO T.~ { GX3 3 3 3 3 3 ",
"2 2 2 2 2 2 2 2 2 2 2 l.DX% s 0.s %X2 2 2 2 2 2 2 2 ",
"> > > > > > > > > > > > > > > > > > > > > > > > > > ",
"& & & & & & & & & & & & & & & & & & & & & & & & & & "
};
