/* XPM */
static char *title_1_inactive[] = {
/* columns rows colors chars-per-pixel */
"11 25 21 1 ",
"  c #B9BABB",
". c #BFC0C1",
"X c #C4C5C6",
"o c #9F9F9F",
"O c #7D7D7C",
"+ c #C0C1C2",
"@ c #BDBEBF",
"# c #A8A9A9",
"$ c #DCDBDB",
"% c #B5B6B6",
"& c #5C5D5F",
"* c #FEFEFE",
"= c #858789",
"- c #ECECED",
"; c #BBBCBD",
": c #E5E6E6",
"> c #D0D1D2",
", c #9D9D9D",
"< c #242526",
"1 c #BEBFC0",
"2 c #1E1E1E",
/* pixels */
",,,,,,,,,,,",
"ooooooooooo",
"###########",
"%%%%%%%%%%%",
"+++++++++++",
"XXXXXXXXXXX",
"...........",
"11111111111",
"XXXXXXXXXXX",
"@@@@@@@@@@@",
"           ",
"           ",
"           ",
";;;;;;;;;;;",
"...........",
">>>>>>>>>>>",
"-----------",
"***********",
":::::::::::",
"===========",
"&&&&&&&&&&&",
"<<<<<<<<<<<",
"22222222222",
"OOOOOOOOOOO",
"$$$$$$$$$$$"
};
