/* XPM */
static char *top_left_inactive[] = {
/* columns rows colors chars-per-pixel */
"13 25 22 1 ",
"  c #1E1E1E",
". c #242526",
"X c #5C5D5F",
"o c #7D7D7C",
"O c #858789",
"+ c #9D9D9D",
"@ c #9F9F9F",
"# c #A8A9A9",
"$ c #B5B6B6",
"% c #B9BABB",
"& c #BBBCBD",
"* c #BDBEBF",
"= c #BEBFC0",
"- c #BFC0C1",
"; c #C0C1C2",
": c #C4C5C6",
"> c #D0D1D2",
", c #DCDBDB",
"< c #E5E6E6",
"1 c #ECECED",
"2 c #FEFEFE",
"3 c None",
/* pixels */
"33@@@@+++++++",
"3@@@@@@@@@@@@",
"#############",
"$$$$$$$$$$$$$",
"=-;;;;;;;;;;=",
":::::::::::::",
"=-----------=",
"============*",
":::::::::::::",
"*************",
"%%%%%%%%%%%%%",
"%%%%%%%%%%%%%",
"%%%%%%%%%%%%%",
"&&&&&&&&&&&&&",
"-------------",
">>>>>>>>>>>>>",
"1111111111111",
"2222222222222",
"<<<<<<<<<<<<<",
"OOOOOOOOOOOOO",
"XXXXXXXXXXXXX",
".............",
"             ",
"ooooooooooooo",
",,,,,,,,,,,,,"
};
