/* XPM */
static char *close_inactive[] = {
/* columns rows colors chars-per-pixel */
"26 25 232 2 ",
"   c #EDECEB",
".  c #ECEBEA",
"X  c #CCCCCB",
"o  c #C4C4C3",
"O  c #D4D3D3",
"+  c #BCBCBC",
"@  c #DBDBDA",
"#  c #E2E1E0",
"$  c #E5E4E4",
"%  c #E8E7E6",
"&  c #E1E1E1",
"*  c #E2E1E1",
"=  c #E3E3E2",
"-  c #E8E8E7",
";  c #ECECEB",
":  c #E4E4E4",
">  c #E6E6E6",
",  c #EAEAE9",
"<  c #868585",
"1  c #F2F2F1",
"2  c #F1F1F0",
"3  c gray51",
"4  c #EFEFEE",
"5  c #818180",
"6  c #EEEDED",
"7  c gray94",
"8  c #818181",
"9  c #858584",
"0  c #EEEDEC",
"q  c #EFEEED",
"w  c #EDECEC",
"e  c #F2F1F1",
"r  c #F0EFEE",
"t  c #EAE9E9",
"y  c #848483",
"u  c #C8C8C7",
"i  c #DBDAD9",
"p  c #888887",
"a  c #DEDEDD",
"s  c #838383",
"d  c #EBEAEA",
"f  c #848484",
"g  c #F0F0EF",
"h  c #F3F2F2",
"j  c #848383",
"k  c gray52",
"l  c #B1B1B0",
"z  c #D1A290",
"x  c #D9AF95",
"c  c #E8E7E7",
"v  c #E9E9E9",
"b  c #DAB196",
"n  c #E0DFDE",
"m  c #C89D91",
"M  c #A68076",
"N  c #805A4E",
"B  c #977973",
"V  c #A37A6F",
"C  c #CBA092",
"Z  c #A7827B",
"A  c #838281",
"S  c #B8B7B7",
"D  c #BBA09B",
"F  c #CAC9C9",
"G  c gray93",
"H  c #D1D1D0",
"J  c #B4968E",
"K  c #D2D2D2",
"L  c #D0A291",
"P  c #B4B3B2",
"I  c #BABAB9",
"U  c #D5A994",
"Y  c #DCDCDB",
"T  c #746B69",
"R  c #77716F",
"E  c #F3F3F2",
"W  c #D1A492",
"Q  c #EBEAE9",
"!  c #CACAC9",
"~  c #DAAF95",
"^  c #B68B7A",
"/  c #B68A7A",
"(  c #A88075",
")  c #D7AB94",
"_  c #9A9998",
"`  c #766F6F",
"'  c #6D605E",
"]  c #E6E5E4",
"[  c #BC958D",
"{  c #5C4844",
"}  c #997169",
"|  c gray92",
" . c #A0A0A0",
".. c #6D615F",
"X. c #F1F0F0",
"o. c #936D62",
"O. c #E4E3E3",
"+. c #CBA090",
"@. c #92726D",
"#. c #DAB197",
"$. c #695A58",
"%. c #E0E0DF",
"&. c #B5B4B4",
"*. c #ECE9E9",
"=. c #88645D",
"-. c #C3ADA9",
";. c #F1F1F1",
":. c #9F9998",
">. c #947069",
",. c #919090",
"<. c #F0EFEF",
"1. c #503631",
"2. c #CDBBB8",
"3. c #51312C",
"4. c #6E6260",
"5. c gray53",
"6. c #A27F79",
"7. c #512F28",
"8. c #D2A694",
"9. c #878786",
"0. c #B9A19D",
"q. c #D2A791",
"w. c #989898",
"e. c #E4E3E2",
"r. c #E6E6E5",
"t. c #714B42",
"y. c #B8958C",
"u. c #969695",
"i. c #B59790",
"p. c #8F726B",
"a. c #F3F2F1",
"s. c #A07C74",
"d. c #E9E9E8",
"f. c #C3978C",
"g. c #D5A893",
"h. c #898989",
"j. c #A2A1A1",
"k. c #DACECC",
"l. c #C99E92",
"z. c #D9D8D7",
"x. c #BAA19D",
"c. c #EFEEEE",
"v. c #BBBBBA",
"b. c #C69D91",
"n. c #B6897B",
"m. c #A87F72",
"M. c #826059",
"N. c #C49A90",
"B. c #6A5652",
"V. c #AC8272",
"C. c #D5AA94",
"Z. c #D5D5D5",
"A. c #90675D",
"S. c #D7A993",
"D. c #BE9482",
"F. c #BB948B",
"G. c #D2D1D0",
"H. c #BCBCBB",
"J. c #CC9F8F",
"K. c #C5C4C3",
"L. c #E2E2E2",
"P. c #7E7A7A",
"I. c #BFA8A4",
"U. c #C2C1C1",
"Y. c #9B9B9A",
"T. c #E7E3E2",
"R. c #DBB598",
"E. c #E7E6E5",
"W. c #B49891",
"Q. c #8A6157",
"!. c #C1B8B6",
"~. c #A4A2A0",
"^. c #CDCCCB",
"/. c #807675",
"(. c #B4A4A1",
"). c #4C2C25",
"_. c #B68E82",
"`. c #CEA392",
"'. c #D6AA94",
"]. c #7A5348",
"[. c #CD9E8F",
"{. c #785249",
"}. c #C99E90",
"|. c #F2F1F0",
" X c #4A2A24",
".X c #A67C6D",
"XX c #CEA291",
"oX c #999998",
"OX c #C9C8C8",
"+X c #B38C81",
"@X c #C59A8E",
"#X c #C0A9A4",
"$X c #87645B",
"%X c #926F68",
"&X c #CFA48F",
"*X c #BD8F82",
"=X c #D3A591",
"-X c #858484",
";X c #CB9E8B",
":X c #D2A691",
">X c #D8AB94",
",X c #AC8073",
"<X c #DBB297",
"1X c #959595",
"2X c #4E2D27",
"3X c #F4F3F3",
"4X c #ADACAB",
"5X c #D0A393",
"6X c #A27A73",
"7X c gray90",
"8X c #D5D4D3",
"9X c #654D48",
"0X c #EAE9E8",
"qX c #EAEAEA",
"wX c #C49B8D",
"eX c #CA9C8A",
"rX c #936C65",
"tX c #C1A9A5",
"yX c #848281",
"uX c #A6A5A4",
"iX c #D6A993",
"pX c #D7AD94",
"aX c gray76",
"sX c #A9A9A8",
"dX c #E1E0DF",
"fX c #603E36",
"gX c #BB978C",
"hX c #C4968A",
"jX c #CCA18C",
"kX c #D9CDCA",
"lX c #4C302A",
"zX c #7A7473",
/* pixels */
"+ + + + + + + + + + + + + + + + + + + + + + + + + + ",
"o o o o o o o o o o o o o o o o o o o o o o o o o o ",
"X X X X X X X X X X X X X X X X X X X X X X X X X X ",
"O O O O O O O O O O O O O O O O O O O O O O O O O O ",
"@ @ @ @ @ @ @ @ @ @ @ @ @ ! u u H @ @ @ @ @ @ @ @ @ ",
"# # # # # # # # # # G.uXp 5 5 5 5 Y.K.n # # # # # # ",
"% % % % % % % % % P -Xj j P.R A 9._ 4XU.# % % % % % ",
". . . . . . . . sX9 9 ..1. X2X3.B.:.H.^.i Q . . . . ",
"              I < < { ).t.V _.+Xs.p.!.n 0X0         ",
"            dXp < $.7.( }.XX`.+.wXgXW.T.0 q q       ",
"            l < yXlXM C 8.U C.&XD.m.y.2.r r r 0     ",
"            ,.< T fXb.5X'.x b pXjXV.o.D |.2 2 q     ",
"          E.< < ' $Xl.W ) #.R.b q.^ N J a.1 e g     ",
"; ; ; ; ; Y k k 4.>.m L iX~ <Xx :X/ ].i.3Xh 1 2 ; ; ",
", , , , , a f f zXM.N.J.=XS.>Xg.;X.X{.tXE h 1 g , , ",
"- - - - - r.5.y y 9X[ @X[.z z eXn.Q.%XkX1 1 e 6 - - ",
"> > > > > >  .s s ` @.F.f.hX*X,XA.=.I.X.e ;.2 v > > ",
": : : : : : aX3 3 3 /.B Z 6X} rX6.#X*.7 7 7 4 7X: : ",
"= = = = = = = u.8 8 y ~.(.0.x.-.k.6 4 4 4 <.- = = = ",
"* * * * * * * Z.h.8 3 w.S 8Xc t d ; 6 6 c.t * * * * ",
"& & & & & & & & K 1X9 oXl OX%.d.qX| w G v L.& & & & ",
"$ $ $ $ $ $ $ $ $ O.v.j.&.F a t d w w c $ $ $ $ $ $ ",
". . . . . . . . . . . ] z.i e.      . . . . . . . . ",
"                                                    ",
"                                                    "
};
