/* XPM */
static char *close_pressed[] = {
/* columns rows colors chars-per-pixel */
"26 25 217 2 ",
"   c #EDECEB",
".  c #ECEBEA",
"X  c #C4C4C3",
"o  c #BCBCBC",
"O  c #CCCCCB",
"+  c #D4D3D3",
"@  c #DBDBDA",
"#  c #E2E1E0",
"$  c #E5E4E4",
"%  c #E8E7E6",
"&  c #FEFEFC",
"*  c #E1E1E1",
"=  c #E2E1E1",
"-  c #E3E3E2",
";  c #E8E8E7",
":  c #ECECEB",
">  c #E4E4E4",
",  c #E6E6E6",
"<  c #EAEAE9",
"1  c #868585",
"2  c #F2F2F1",
"3  c #F1F1F0",
"4  c #EEEDED",
"5  c gray51",
"6  c #EFEFEE",
"7  c #818180",
"8  c gray94",
"9  c #EEEDEC",
"0  c #858584",
"q  c #EFEEED",
"w  c #EDECEC",
"e  c #F0EFEE",
"r  c #848483",
"t  c #F2F1F1",
"y  c #EAE9E9",
"u  c #818181",
"i  c #848484",
"p  c #DEDEDD",
"a  c #E5D6CD",
"s  c #848383",
"d  c gray52",
"f  c #E8E7E7",
"g  c #E6D9CE",
"h  c #EBEAEA",
"j  c #A32C0C",
"k  c #F5F0EC",
"l  c #F3F2F2",
"z  c #888887",
"x  c #838383",
"c  c #E9E9E9",
"v  c #E0DFDE",
"b  c #F0F0EF",
"n  c #F0EFEF",
"m  c #C8C8C7",
"M  c #DBDAD9",
"N  c #B1B1B0",
"B  c #7D1A06",
"V  c #C9AD9E",
"C  c #D2D1D0",
"Z  c #E9E9E8",
"A  c #A8775F",
"S  c #C2C1C1",
"D  c #7D1F08",
"F  c #74605E",
"G  c #806C69",
"H  c #858180",
"J  c #848281",
"K  c #8C5A4A",
"L  c #722516",
"P  c #827877",
"I  c #A9A9A8",
"U  c #C5C4C3",
"Y  c #943310",
"T  c #ADACAB",
"R  c #DAC6BD",
"E  c #898989",
"W  c #E2E2E2",
"Q  c #823323",
"!  c #905232",
"~  c #A0786A",
"^  c #F3F2F1",
"/  c #999998",
"(  c #A62F0D",
")  c #B0320E",
"_  c #873C30",
"`  c #7C1705",
"'  c #9A3811",
"]  c #E6E6E5",
"[  c #70362C",
"{  c #961E07",
"}  c #919090",
"|  c gray92",
" . c #805046",
".. c #D1D1D0",
"X. c #B4B3B2",
"o. c #7D5954",
"O. c #EAEAEA",
"+. c #8D483B",
"@. c #8B472E",
"#. c #878786",
"$. c #806460",
"%. c #8B250A",
"&. c #B79C97",
"*. c #89503C",
"=. c #D2D2D2",
"-. c #701504",
";. c #A6A5A4",
":. c #7A615F",
">. c #CDCCCB",
",. c #9D2B0C",
"<. c #EFEEEE",
"1. c #92280B",
"2. c #855548",
"3. c #681A0D",
"4. c gray53",
"5. c #791906",
"6. c #701805",
"7. c #891C06",
"8. c #814137",
"9. c #959595",
"0. c #744436",
"q. c #989898",
"w. c #BABAB9",
"e. c #F2F1F0",
"r. c #9D3912",
"t. c #EBEAE9",
"y. c #AB3B12",
"u. c #9F8F8D",
"i. c #96564C",
"p. c #731D07",
"a. c #7E1705",
"s. c #CACAC9",
"d. c #A1716A",
"f. c #8F5B4A",
"g. c gray93",
"h. c #F6F1ED",
"j. c #CAC9C9",
"k. c #804035",
"l. c #7E2309",
"z. c #F3F3F2",
"x. c #858484",
"c. c #93543D",
"v. c #C4A69B",
"b. c #9A9998",
"n. c #6F2212",
"m. c #93290B",
"M. c #B94215",
"N. c #7F4637",
"B. c #761907",
"V. c #9B9B9A",
"C. c #806F6D",
"Z. c #967067",
"A. c #874422",
"S. c #862009",
"D. c #8B4237",
"F. c #5F2F24",
"G. c #6C1B0C",
"H. c #B8B7B7",
"J. c #F4F3F3",
"K. c #F1F1F1",
"L. c #B38C7C",
"P. c #E6E5E4",
"I. c #902309",
"U. c gray76",
"Y. c #673D36",
"T. c #CCAF9F",
"R. c #791C09",
"E. c #969695",
"W. c #A62D0C",
"Q. c #E7E6E5",
"!. c #881B07",
"~. c #7F270B",
"^. c #E7E0DF",
"/. c #D5D5D5",
"(. c #E4E3E2",
"). c #EEE5DD",
"_. c #A0A0A0",
"`. c #D5D4D3",
"'. c #7C5852",
"]. c #B2938A",
"[. c #865548",
"{. c #A7746A",
"}. c #7D5751",
"|. c #612219",
" X c #D9D8D7",
".X c #872F0E",
"XX c #BD9792",
"oX c #774436",
"OX c #854121",
"+X c #704036",
"@X c #744B45",
"#X c #E1D6D3",
"$X c #E1E0DF",
"%X c #6A1A0C",
"&X c #C9C8C8",
"*X c #E4E3E3",
"=X c #EAE9E8",
"-X c #DDCABE",
";X c #7B200D",
":X c #A49D9B",
">X c #641504",
",X c #A2A1A1",
"<X c #BCBCBB",
"1X c #7A1E08",
"2X c gray90",
"3X c #793929",
"4X c #831B06",
"5X c #B5B4B4",
"6X c #7B3E32",
"7X c #8E3110",
"8X c #C3A39E",
"9X c #992008",
"0X c #8B1D07",
"qX c #A9300D",
"wX c #DCDCDB",
"eX c #E0E0DF",
"rX c #BBBBBA",
/* pixels */
"o o o o o o o o o o o o o o o o o o o o o o o o o o ",
"X X X X X X X X X X X X X X X X X X X X X X X X X X ",
"O O O O O O O O O O O O O O O O O O O O O O O O O O ",
"+ + + + + + + + + + + + + + + + + + + + + + + + + + ",
"@ @ @ @ @ @ @ @ @ @ @ @ @ s.m m ..@ @ @ @ @ @ @ @ @ ",
"# # # # # # # # # # C ;.z 7 7 7 7 V.U v # # # # # # ",
"% % % % % % % % % X.x.s s P G J #.b.T S # % % % % % ",
". . . . . . . . I 0 0 '.L 5.B B.6Xu.<X>.M t.. . . . ",
"              w.1 1 [ 6.S.W.qX1.D G.&.v =X9         ",
"            $Xz 1 @XF.2.f.Y r.*.K 0.n.#X9 q q       ",
"            N 1 H %XoX& & A ! k & ~ p.{.e e e 9     ",
"            } 1 $.4Xl.L.& h.g & V 7X,.Q e.3 3 q     ",
"          Q.1 1 }.0X) ' T.& & g A.M.( R.^ 2 t b     ",
": : : : : wXd d o.7.j .Xa & & ).OXy.j ;XJ.l 2 3 : : ",
"< < < < < p i i C.a.1Xv.& a -X& R ~.I.+.z.l 2 b < < ",
"; ; ; ; ; ] 4.r r |.Z.& & c.@.k & ].>XXX2 2 t 4 ; ; ",
", , , , , , _.x x F Y. .N.%.m.3X[.+Xk.n t K.3 c , , ",
"> > > > > > U.5 5 5 :.3.` { 9X!.-.8.^.8 8 8 6 2X> > ",
"- - - - - - - E.u u r :Xd.D._ i.8X4 6 6 6 n ; - - - ",
"= = = = = = = /.E u 5 q.H.`.f y h : 4 4 <.y = = = = ",
"* * * * * * * * =.9.0 / N &XeXZ O.| w g.c W * * * * ",
"$ $ $ $ $ $ $ $ $ *XrX,X5Xj.p y h w w f $ $ $ $ $ $ ",
". . . . . . . . . . . P. XM (.      . . . . . . . . ",
"                                                    ",
"                                                    "
};
