/* XPM */
static char *close_prelight[] = {
/* columns rows colors chars-per-pixel */
"26 25 225 2 ",
"   c #EDECEB",
".  c #ECEBEA",
"X  c #D4D3D3",
"o  c #BCBCBC",
"O  c #C4C4C3",
"+  c #CCCCCB",
"@  c #DBDBDA",
"#  c #E2E1E0",
"$  c #E5E4E4",
"%  c #E8E7E6",
"&  c #E1E1E1",
"*  c #E2E1E1",
"=  c #E3E3E2",
"-  c #E6E6E6",
";  c #ECECEB",
":  c #E8E8E7",
">  c #E4E4E4",
",  c #EAEAE9",
"<  c #868585",
"1  c #F2F2F1",
"2  c #F1F1F0",
"3  c #EEEDED",
"4  c #EFEFEE",
"5  c gray51",
"6  c #818180",
"7  c #420101",
"8  c #EEEDEC",
"9  c #EFEEED",
"0  c #F0EFEE",
"q  c #848483",
"w  c #EAE9E9",
"e  c #858584",
"r  c #F2F1F1",
"t  c #818181",
"y  c #EDECEC",
"u  c gray94",
"i  c #290101",
"p  c #AE8787",
"a  c #E8E7E7",
"s  c #F0F0EF",
"d  c #B29494",
"f  c gray52",
"g  c #EBEAEA",
"h  c #DEDEDD",
"j  c #838383",
"k  c #E9E9E9",
"l  c #F3F2F2",
"z  c #E0DFDE",
"x  c #848484",
"c  c #888887",
"v  c #848383",
"b  c #C8C8C7",
"n  c #452020",
"m  c #2F0101",
"M  c #340101",
"N  c #DBDAD9",
"B  c #B1B1B0",
"V  c #C9AFAF",
"C  c #CAAFAF",
"Z  c #C5C4C3",
"A  c #2C0706",
"S  c gray53",
"D  c #B59999",
"F  c #F3F2F1",
"G  c #EBEAE9",
"H  c #CACAC9",
"J  c #CAC9C9",
"K  c #280302",
"L  c #4C3736",
"P  c #EAEAEA",
"I  c #765252",
"U  c #C9C8C8",
"Y  c gray92",
"T  c #EFEFEF",
"R  c #F4F3F3",
"E  c #E6E6E5",
"W  c #B69292",
"Q  c #562020",
"!  c #EFEEEE",
"~  c #E4E3E2",
"^  c #544646",
"/  c #BE9E9E",
"(  c #A19796",
")  c #989898",
"_  c #ADACAB",
"`  c #BB9999",
"'  c #440101",
"]  c #5B2B2A",
"[  c #A88080",
"{  c #2C0101",
"}  c #CDCCCB",
"|  c #754343",
" . c #581C1C",
".. c #928C8C",
"X. c #776A69",
"o. c #512A2A",
"O. c #D8D4D3",
"+. c #472F2E",
"@. c #300101",
"#. c #C9ABAB",
"$. c #500606",
"%. c #5D5251",
"&. c #68605F",
"*. c #A6A5A4",
"=. c #BBBBBA",
"-. c gray76",
";. c #9D9191",
":. c #331515",
">. c #885E5D",
",. c #5F2A2A",
"<. c #C7ABAB",
"1. c #B5B4B4",
"2. c #B4B3B2",
"3. c #BCBCBB",
"4. c #9E9C9B",
"5. c #EAE9E8",
"6. c #2E0101",
"7. c #4F0808",
"8. c #320101",
"9. c #2B0101",
"0. c #E7E6E5",
"q. c #480606",
"w. c #4A2A2A",
"e. c #E4E3E3",
"r. c #4D3635",
"t. c #D9D8D7",
"y. c #4E0808",
"u. c gray93",
"i. c #390101",
"p. c #C19F9F",
"a. c #959595",
"s. c #E9E9E8",
"d. c #D5D5D5",
"f. c #250101",
"g. c #400101",
"h. c #480101",
"j. c #5E2424",
"k. c #5E5353",
"l. c #3E2020",
"z. c #370101",
"x. c #F0EFEF",
"c. c #582B2A",
"v. c #550909",
"b. c #F3F3F2",
"n. c #5C5050",
"m. c #2B0403",
"M. c #3C0101",
"N. c #290908",
"B. c #B99A9A",
"V. c #D2D2D2",
"C. c #BF9E9E",
"Z. c #4B0606",
"A. c #858484",
"S. c #2F0908",
"D. c #533938",
"F. c #7C4C4C",
"G. c #696362",
"H. c #B99999",
"J. c #E6E5E4",
"K. c #D2D1D0",
"L. c #3F0101",
"P. c #C4A3A3",
"I. c #9B9B9A",
"U. c #270C0B",
"Y. c #999998",
"T. c #4E3837",
"R. c #7C6968",
"E. c #919090",
"W. c #300E0D",
"Q. c #7A7777",
"!. c #3E0101",
"~. c #878786",
"^. c #490606",
"/. c #280101",
"(. c #898989",
"). c #350101",
"_. c #BB9A9A",
"`. c #828080",
"'. c #838181",
"]. c #A07777",
"[. c #716D6D",
"{. c #969695",
"}. c #5E4B4A",
"|. c #301A19",
" X c #382222",
".X c #D5D4D3",
"XX c #412C2B",
"oX c #676262",
"OX c #946969",
"+X c #A2A1A1",
"@X c #706969",
"#X c #C0A2A2",
"$X c #5B3E3E",
"%X c #E2E2E2",
"&X c #E1DFDF",
"*X c #BA9A9A",
"=X c #260101",
"-X c #C5A4A4",
";X c #F1F1F1",
":X c #F2F1F0",
">X c #3F0201",
",X c #4A2020",
"<X c #6A3F3F",
"1X c #582323",
"2X c #A9A9A8",
"3X c gray90",
"4X c #311413",
"5X c #9A9998",
"6X c #976C6C",
"7X c #471615",
"8X c #D1D1D0",
"9X c #47302F",
"0X c #A89F9E",
"qX c #A0A0A0",
"wX c #551C1C",
"eX c #E0E0DF",
"rX c #522A2A",
"tX c #E1E0DF",
"yX c #BABAB9",
"uX c #B8B7B7",
"iX c #DCDCDB",
"pX c #CBB5B5",
"aX c #40201F",
"sX c #310101",
"dX c #C2C1C1",
/* pixels */
"o o o o o o o o o o o o o o o o o o o o o o o o o o ",
"O O O O O O O O O O O O O O O O O O O O O O O O O O ",
"+ + + + + + + + + + + + + + + + + + + + + + + + + + ",
"X X X X X X X X X X X X X X X X X X X X X X X X X X ",
"@ @ @ @ @ @ @ @ @ @ @ @ @ H b b 8X@ @ @ @ @ @ @ @ @ ",
"# # # # # # # # # # K.*.c 6 6 6 6 I.Z z # # # # # # ",
"% % % % % % % % % 2.A.v v Q.@X'.~.5X_ dX# % % % % % ",
". . . . . . . . 2Xe e %.4Xi 9.K 9X..3.} N G . . . . ",
"              yX< < XXi ).7 ' M.sXA ( z 5.8         ",
"            tXc < ^ :.rX] Z.y.1Xc.n W.O.8 9 9       ",
"            B < `.N.n B.C.| ,.` / <Xm R.0 0 0 8     ",
"            E.< &.{ i.F.P.#Xd <.OXq.!.aX:X2 2 9     ",
"          0.< < n.@.h.7.6XV pXd Q v.7 m.F 1 r s     ",
"; ; ; ; ; iXf f k.6.7 ^.p #.C H.wX$.g.S.R l 1 2 ; ; ",
", , , , , h x x [./.M >.p.p [ -X].>Xz.D.b.l 1 s , , ",
": : : : : E S q q |.$XD _.j. .W *XI =X;.1 1 r 3 : : ",
"- - - - - - qXj j oX Xw.,XL.7 7Xo.l.r.T r ;X2 k - - ",
"> > > > > > -.5 5 5 G.U.i 8.M m f.T.&Xu u u 4 3X> > ",
"= = = = = = = {.t t q 4.X.L +.}.0X3 4 4 4 x.: = = = ",
"* * * * * * * d.(.t 5 ) uX.Xa w g ; 3 3 ! w * * * * ",
"& & & & & & & & V.a.e Y.B U eXs.P Y y u.k %X& & & & ",
"$ $ $ $ $ $ $ $ $ e.=.+X1.J h w g y y a $ $ $ $ $ $ ",
". . . . . . . . . . . J.t.N ~       . . . . . . . . ",
"                                                    ",
"                                                    "
};
