/* XPM */
static char *close_active[] = {
/* columns rows colors chars-per-pixel */
"26 25 230 2 ",
"   c #490201",
".  c #4C0101",
"X  c #4F0201",
"o  c #4F0303",
"O  c #4F0707",
"+  c #420C0C",
"@  c #480909",
"#  c #500201",
"$  c #510201",
"%  c #550201",
"&  c #570201",
"*  c #540404",
"=  c #5B0201",
"-  c #5D0201",
";  c #5E0201",
":  c #550909",
">  c #520E0E",
",  c #4E1413",
"<  c #471A1A",
"1  c #511615",
"2  c #620201",
"3  c #640201",
"4  c #690101",
"5  c #680201",
"6  c #690201",
"7  c #6D0201",
"8  c #720101",
"9  c #780201",
"0  c #7E0101",
"q  c #7C0201",
"w  c #7F0404",
"e  c #781616",
"r  c #4F2222",
"t  c #5D2020",
"y  c #562C2C",
"u  c #5E2F2F",
"i  c #5E3030",
"p  c #602020",
"a  c #6C2020",
"s  c #6A2A2A",
"d  c #752020",
"f  c #782A2A",
"g  c #792A2A",
"h  c #623737",
"j  c #643636",
"k  c #643838",
"l  c #6D3939",
"z  c #793F3E",
"x  c #614646",
"c  c #724B4B",
"v  c #685050",
"b  c #695251",
"n  c #695353",
"m  c #6C6262",
"M  c #6F6363",
"N  c #716060",
"B  c #756969",
"V  c #766D6D",
"C  c #7D7777",
"Z  c #810201",
"A  c #830201",
"S  c #840101",
"D  c #840201",
"F  c #860201",
"G  c #870201",
"H  c #8F0201",
"J  c #8F0C0C",
"K  c #910C0C",
"L  c #950D0D",
"P  c #9C1110",
"I  c #9E1211",
"U  c #A00E0E",
"Y  c #AB1312",
"T  c #882C2B",
"R  c #8D2C2C",
"E  c #9C2323",
"W  c #912828",
"Q  c #9D2929",
"!  c #A02E2D",
"~  c #A43535",
"^  c #AA3F3F",
"/  c #96403F",
"(  c #995252",
")  c #B05050",
"_  c #B75353",
"`  c #B55F5E",
"'  c #846A69",
"]  c #8F6969",
"[  c #CB7776",
"{  c #D07D7D",
"}  c #D27D7D",
"|  c #818180",
" . c #818181",
".. c #838080",
"X. c #838181",
"o. c gray51",
"O. c #838383",
"+. c #848383",
"@. c #848483",
"#. c #848484",
"$. c #858484",
"%. c #858584",
"&. c gray52",
"*. c #868585",
"=. c #878786",
"-. c gray53",
";. c #888887",
":. c #898989",
">. c #978C8C",
",. c #919090",
"<. c #959595",
"1. c #969695",
"2. c #989898",
"3. c #999998",
"4. c #9A9998",
"5. c #9B9B9A",
"6. c #A99191",
"7. c #AA9796",
"8. c #A09C9B",
"9. c #B19F9E",
"0. c #A0A0A0",
"q. c #A2A1A1",
"w. c #A6A5A4",
"e. c #A9A9A8",
"r. c #ADACAB",
"t. c #B1B1B0",
"y. c #B4B3B2",
"u. c #B5B4B4",
"i. c #B8B7B7",
"p. c #BABAB9",
"a. c #BBBBBA",
"s. c #BCBCBB",
"d. c #BCBCBC",
"f. c #DF8F8F",
"g. c #DE9696",
"h. c #D19A99",
"j. c #D89B9B",
"k. c #DA9B9B",
"l. c #DD9B9B",
"z. c #E09393",
"x. c #E29493",
"c. c #E3A3A3",
"v. c #E6A3A3",
"b. c #E7A4A4",
"n. c #EAA4A3",
"m. c #EAAEAD",
"M. c #EDAEAD",
"N. c #EFAEAD",
"B. c #F1AEAE",
"V. c #F2B5B5",
"C. c #F6BDBD",
"Z. c #F8BEBE",
"A. c #C2C1C1",
"S. c gray76",
"D. c #C4C4C3",
"F. c #C5C4C3",
"G. c #C8C8C7",
"H. c #C9C8C8",
"J. c #CAC9C9",
"K. c #CACAC9",
"L. c #CCCCCB",
"P. c #CDCCCB",
"I. c #D1D1D0",
"U. c #D2D1D0",
"Y. c #D2D2D2",
"T. c #D4D3D3",
"R. c #D5D4D3",
"E. c #D5D5D5",
"W. c #DBD4D3",
"Q. c #D9D8D7",
"!. c #DBDAD9",
"~. c #DBDBDA",
"^. c #DCDCDB",
"/. c #DEDEDD",
"(. c #F9C5C5",
"). c #FAC6C5",
"_. c #E0DFDE",
"`. c #E3DFDF",
"'. c #FDD1D1",
"]. c #E0E0DF",
"[. c #E1E0DF",
"{. c #E1E1E1",
"}. c #E2E1E0",
"|. c #E2E1E1",
" X c #E2E2E2",
".X c #E3E3E2",
"XX c #E4E3E2",
"oX c #E4E3E3",
"OX c #E4E4E4",
"+X c #E5E4E4",
"@X c gray90",
"#X c #E6E5E4",
"$X c #E6E6E5",
"%X c #E7E6E5",
"&X c #E6E6E6",
"*X c #E8E7E6",
"=X c #E8E7E7",
"-X c #E8E8E7",
";X c #E9E9E8",
":X c #E9E9E9",
">X c #EAE9E8",
",X c #EAE9E9",
"<X c #EAEAE9",
"1X c #EBEAE9",
"2X c #EAEAEA",
"3X c #EBEAEA",
"4X c gray92",
"5X c #ECEBEA",
"6X c #ECECEB",
"7X c #EDECEB",
"8X c #EDECEC",
"9X c gray93",
"0X c #EEEDEC",
"qX c #EEEDED",
"wX c #EFEEED",
"eX c #EFEEEE",
"rX c #EFEFEE",
"tX c #F0EFEE",
"yX c #F0EFEF",
"uX c #F0F0EF",
"iX c gray94",
"pX c #F1F1F0",
"aX c #F1F1F1",
"sX c #F2F1F0",
"dX c #F2F1F1",
"fX c #F2F2F1",
"gX c #F3F2F1",
"hX c #F3F2F2",
"jX c #F3F3F2",
"kX c #F4F3F3",
/* pixels */
"d.d.d.d.d.d.d.d.d.d.d.d.d.d.d.d.s.s.s.s.d.d.d.d.d.d.",
"D.D.D.D.D.D.D.D.D.D.D.D.D.D.D.D.D.D.D.D.D.D.D.D.D.D.",
"L.L.L.L.L.L.L.L.L.L.L.L.L.L.L.L.L.L.L.L.L.L.L.L.L.L.",
"T.T.T.T.T.T.T.T.T.T.T.T.T.T.T.T.T.T.T.T.T.T.T.T.T.T.",
"~.~.~.~.~.~.~.~.~.~.~.~.~.K.G.G.U.^.~.!.^.^.~.~.~.~.",
"}.}.}.}.}.}.}.}.}.[.U.w.;.| | | ..5.D.`.[.[.[.[.}.}.",
"*X*X*X*X*X*X*X*X*Xy.&.+.+.C B | ;.4.r.A.[.>X*X*X-X*X",
"5X5X5X5X5X5X5X5Xe.&.&.b , $ & o u >.s.P.~.>X5X5X1X6X",
"5X0X5X0X5X0X6Xp.&.&.y $ 6 D D 9 2 O 7.[.-X6X0X0X6X6X",
"0X5X0X5X0X6X[.;.*.x 1 g R L P W T a > W.0XuX0X6X6X6X",
"5X0X5X0X5X0Xt.*...@ a k.v._ ^ n.c./ = ] uXuXtX0X0X6X",
"0X5X0X5X0X5X,.&.N & 8 ) N.V.m.C.[ K q p sXuXuXtX6X0X",
"5X0X5X0X6X*X&.&.b = H I } (.'.m.~ Y D * hXdXhXyX0X6X",
"6X6X6X5X6X^.&.&.b = D K z.Z.(.N.! U Z : hXhXhXyX6X6X",
"1X1X5X1X1X/.&.+.V $ 6 ` n.x.f.B.} w 7 l hXhXhXyX,X,X",
"-X-X-X*X-X&X&.&.+.< z h.l.Q E g.k.( . 6.dXhXhX0X=X=X",
"&X&X&X&X&X&X0.#.o.m r s d 0 D e g t j yXyXdXdX1X@X@X",
"OXOXOXOXOXOXS.| o.o.M + o 3 6 =   k |.yXyXdXeXOX#X X",
"}.OXOX}.}.OXOX1...| +.5.' h i c 9.6XyXyXeXeX-X X`.#X",
"}.}.}.}.}.}.}.E.:...+.4.i.T.=X1X1X6XqXqXeX1X X}.|.|.",
"|.|.|.|. X{.{.{.U.<.+.4.t.H.`.,X3X6X0X6X2X X}. X|.|.",
" X#X#X#XOX&X&X X#X#Xd.q.u.H./.,X3X0X6X=X&X X X#X%X%X",
"6X5X5X5X5X5X1X6X5X5X5X%XQ.~.XX5X6X6X5X5X6X6X6X6X,X5X",
"6X6X0X6X6X6X6X6X5X0X5X6X6X5X0X5X0X6X0X6X6X6X6X6X5X0X",
"6X6X6X0X6X0X5X0X5X0X5X0X5X0X5X0X6X0X3X0X0X3X0X0X,X0X"
};
