/* XPM */
static char *hide_pressed[] = {
/* columns rows colors chars-per-pixel */
"27 25 233 2 ",
"   c #EDECEB",
".  c #ECEBEA",
"X  c #CCCCCB",
"o  c #C4C4C3",
"O  c #D4D3D3",
"+  c #BCBCBC",
"@  c #DBDBDA",
"#  c #E2E1E0",
"$  c #E5E4E4",
"%  c #E8E7E6",
"&  c #E1E1E1",
"*  c #E2E1E1",
"=  c #E3E3E2",
"-  c #ECECEB",
";  c #E6E6E6",
":  c #E4E4E4",
">  c #E8E8E7",
",  c #EAEAE9",
"<  c #868585",
"1  c #F2F2F1",
"2  c #F1F1F0",
"3  c #EEEDED",
"4  c gray51",
"5  c #EFEFEE",
"6  c #818180",
"7  c gray94",
"8  c #858584",
"9  c #EEEDEC",
"0  c #EFEEED",
"q  c #F0EFEE",
"w  c #F2F1F1",
"e  c #EDECEC",
"r  c #EAE9E9",
"t  c #818181",
"y  c #848483",
"u  c #888887",
"i  c #7F1B06",
"p  c #F0F0EF",
"a  c #848484",
"s  c #DEDEDD",
"d  c #838383",
"f  c #C8C8C7",
"g  c #E8E7E7",
"h  c #F0EFEF",
"j  c #EBEAEA",
"k  c #848383",
"l  c #E9E9E9",
"z  c #E0DFDE",
"x  c #F3F2F2",
"c  c gray52",
"v  c #DBDAD9",
"b  c #B1B1B0",
"n  c #C2C1C1",
"m  c #9B260A",
"M  c #891C06",
"N  c #911D07",
"B  c #E35F1F",
"V  c #999998",
"C  c #955E4B",
"Z  c #959595",
"A  c #A2A1A1",
"S  c #BD3B11",
"D  c #701D0C",
"F  c #806460",
"G  c #C9C8C8",
"H  c #77392F",
"J  c #CACAC9",
"K  c #CF4816",
"L  c #7C5852",
"P  c #8E280B",
"I  c #791906",
"U  c #827877",
"Y  c #EBEAE9",
"T  c #A12C0C",
"R  c #D2D1D0",
"E  c #873110",
"W  c #93270B",
"Q  c #A5290B",
"!  c #EF7227",
"~  c #E0E0DF",
"^  c #F4F3F3",
"/  c #A22B0B",
"(  c #772A1F",
")  c #8F2309",
"_  c #A1716A",
"`  c #A65A20",
"'  c #F37427",
"]  c #858484",
"[  c #898989",
"{  c #E6E5E4",
"}  c #7B5049",
"|  c #F3F3F2",
" . c #D5D4D3",
".. c #D5D5D5",
"X. c #CD4D18",
"o. c #722516",
"O. c #7A2514",
"+. c #A3521C",
"@. c #9F8F8D",
"#. c #CDCCCB",
"$. c #F1F1F1",
"%. c #BD9792",
"&. c #806C69",
"*. c #878786",
"=. c #848281",
"-. c #B8B7B7",
";. c #96564C",
":. c #881905",
">. c #8E3310",
",. c #9D290B",
"<. c #EFEEEE",
"1. c #8B4237",
"2. c #AD2B0B",
"3. c #C0360F",
"4. c #7F6A67",
"5. c #F47A2A",
"6. c #DDC9C0",
"7. c #A49D9B",
"8. c #A7746A",
"9. c #A36C51",
"0. c #8E2309",
"q. c #DE5D1F",
"w. c gray53",
"e. c #DF5D1F",
"r. c #951F07",
"t. c #B33810",
"y. c #C3A39E",
"u. c #A5531D",
"i. c #9A9998",
"p. c #771E0D",
"a. c #98250A",
"s. c #E9E9E8",
"d. c #E1E0DF",
"f. c #BABAB9",
"g. c #7F1805",
"h. c #B8320E",
"j. c gray76",
"k. c #DECCC1",
"l. c #E1D6D3",
"z. c gray90",
"x. c #E6E6E5",
"c. c #EAE9E8",
"v. c #761D0F",
"b. c #9E664E",
"n. c #BB3A11",
"m. c #A9300D",
"M. c #F3F2F1",
"N. c #866B68",
"B. c gray92",
"V. c #791C09",
"C. c #992008",
"Z. c #D2D2D2",
"A. c #CAC9C9",
"S. c #8D463A",
"D. c #7D1A06",
"F. c #994316",
"G. c #E2E2E2",
"H. c #E4E3E3",
"J. c #9B2C0C",
"K. c #9B9B9A",
"L. c #A0A0A0",
"P. c #8A1D07",
"I. c #96270A",
"U. c #C24516",
"Y. c #B5B4B4",
"T. c #858180",
"R. c #8E473D",
"E. c #919090",
"W. c #CA4615",
"Q. c #8B1D07",
"!. c #B79C97",
"~. c #B23710",
"^. c #9B644E",
"/. c #761907",
"(. c #E7E0DF",
"). c #ADACAB",
"_. c #7A4639",
"`. c #772009",
"'. c #961E07",
"]. c #A26C51",
"[. c #811B06",
"{. c #E7E6E5",
"}. c #7B3E32",
"|. c #D45019",
" X c #C5C4C3",
".X c #989898",
"XX c #9D2B0C",
"oX c #7D5751",
"OX c #A6A5A4",
"+X c #DFCDC1",
"@X c #A46F52",
"#X c #D1D1D0",
"$X c #CD4A17",
"%X c #EAEAEA",
"&X c #894639",
"*X c #A9A9A8",
"=X c #E76522",
"-X c #BBBBBA",
";X c #C04314",
":X c #E4E3E2",
">X c #9D4517",
",X c #741D0D",
"<X c #C54415",
"1X c #5E2416",
"2X c #7D5954",
"3X c #BCBCBB",
"4X c #969695",
"5X c #921F07",
"6X c #D9D8D7",
"7X c #F2F1F0",
"8X c #BD330E",
"9X c #905B4B",
"0X c gray93",
"qX c #AC2F0D",
"wX c #A62D0C",
"eX c #823323",
"rX c #771708",
"tX c #DCC9C0",
"yX c #DCDCDB",
"uX c #8C2309",
"iX c #B4B3B2",
"pX c #B13710",
"aX c #E66020",
"sX c #AC3610",
"dX c #7E1705",
"fX c #D8C5BE",
"gX c #873C30",
"hX c #831B06",
"jX c #C34415",
"kX c #BC4114",
"lX c #806F6D",
"zX c #DAC6BE",
"xX c #DFCCC1",
/* pixels */
"+ + + + + + + + + + + + + + + + + + + + + + + + + + + ",
"o o o o o o o o o o o o o o o o o o o o o o o o o o o ",
"X X X X X X X X X X X X X X X X X X X X X X X X X X X ",
"O O O O O O O O O O O O O O O O O O O O O O O O O O O ",
"@ @ @ @ @ @ @ @ @ @ @ @ @ @ J f f #X@ @ @ @ @ @ @ @ @ ",
"# # # # # # # # # # # R OXu 6 6 6 6 K. Xz # # # # # # ",
"% % % % % % % % % % iX] k k U &.=.*.i.).n # % % % % % ",
". . . . . . . . . *X8 8 L o.I D./.}.@.3X#.v Y . . . . ",
"                f.< < H i a.wXm.T 0.p.!.z c.9         ",
"              d.u < } [./ n.W.$X<X~.I.O.l.9 0 0       ",
"              b < T.,Xm S |.B =Xe.X.pXuX8.q q q 9     ",
"              E.< F hXqXK aX' 5.! q.jXXXeX7X2 2 0     ",
"            {.< < oXQ.J.>.>Xu.` +.F.E P V.M.1 w p     ",
"- - - - - - yXc c 2XM `.zX6.xX+Xk.tXfX_.D ^ x 1 2 - - ",
", , , , , , s a a lXdX) C b.9.@X].^.9X1X&X| x 1 p , , ",
"> > > > > > x.w.y y ( 5X,.t.;XU.kXsXW i %.1 1 w 3 > > ",
"; ; ; ; ; ; ; L.d d 4.rXr.2.8X3.h.Q P.S.h w $.2 l ; ; ",
": : : : : : : j.4 4 4 N.v.:.'.C.N g.R.(.7 7 7 5 z.: : ",
"= = = = = = = = 4Xt t y 7._ 1.gX;.y.3 5 5 5 h > = = = ",
"* * * * * * * * ..[ t 4 .X-. .g r j - 3 3 <.r * * * * ",
"& & & & & & & & & Z.Z 8 V b G ~ s.%XB.e 0Xl G.& & & & ",
"$ $ $ $ $ $ $ $ $ $ H.-XA Y.A.s r j e e g $ $ $ $ $ $ ",
". . . . . . . . . . . . { 6Xv :X      . . . . . . . . ",
"                                                      ",
"                                                      "
};
