/* XPM */
static char *hide_prelight[] = {
/* columns rows colors chars-per-pixel */
"27 25 230 2 ",
"   c #EDECEB",
".  c #ECEBEA",
"X  c #BCBCBC",
"o  c #D4D3D3",
"O  c #C4C4C3",
"+  c #CCCCCB",
"@  c #DBDBDA",
"#  c #E2E1E0",
"$  c #E5E4E4",
"%  c #E8E7E6",
"&  c #E1E1E1",
"*  c #E2E1E1",
"=  c #E3E3E2",
"-  c #ECECEB",
";  c #E8E8E7",
":  c #E4E4E4",
">  c #E6E6E6",
",  c #EAEAE9",
"<  c #868585",
"1  c #F2F2F1",
"2  c gray51",
"3  c #EEEDED",
"4  c #EFEFEE",
"5  c #818180",
"6  c #F1F1F0",
"7  c #858584",
"8  c #EDECEC",
"9  c #EFEEED",
"0  c #F2F1F1",
"q  c #EAE9E9",
"w  c #848483",
"e  c #818181",
"r  c #F0EFEE",
"t  c #EEEDEC",
"y  c gray94",
"u  c #848484",
"i  c gray52",
"p  c #EBEAEA",
"a  c #838383",
"s  c #E8E7E7",
"d  c #F3F2F2",
"f  c #E9E9E9",
"g  c #848383",
"h  c #BCC5CD",
"j  c #E0DFDE",
"k  c #C8C8C7",
"l  c #022558",
"z  c #888887",
"x  c #021744",
"c  c #010F35",
"v  c #DEDEDD",
"b  c #DBDAD9",
"n  c #B1B1B0",
"m  c #F0F0EF",
"M  c #CDCCCB",
"N  c #021C40",
"B  c #DFE0E2",
"V  c #021843",
"C  c gray76",
"Z  c #BCC3CA",
"A  c #043369",
"S  c #021746",
"D  c #1D2541",
"F  c #BBBBBA",
"G  c gray53",
"H  c #03275D",
"J  c #021E54",
"K  c #C2C1C1",
"L  c #011542",
"P  c #03264B",
"I  c #010E33",
"U  c #044177",
"Y  c #032E52",
"T  c #455A70",
"R  c #EFEEEE",
"E  c #044579",
"W  c #45566C",
"Q  c #04386E",
"!  c #202A48",
"~  c #011240",
"^  c #F1F1F1",
"/  c #D5D5D8",
"(  c #032649",
")  c #E0E0DF",
"_  c #A6A5A4",
"`  c #8D8E94",
"'  c #EBEAE9",
"]  c gray92",
"[  c #B4B3B2",
"{  c #DCDCDB",
"}  c #818182",
"|  c #CAC9C9",
" . c #2E354B",
".. c #535664",
"X. c #D2D1D0",
"o. c #D1D1D0",
"O. c #969695",
"+. c #455A71",
"@. c #F3F2F1",
"#. c #F4F3F3",
"$. c #9A9998",
"%. c #01113D",
"&. c #ADACAB",
"*. c #858484",
"=. c #2F3752",
"-. c #032355",
";. c #B5B4B4",
":. c #021A4B",
">. c #A9A9A8",
",. c #494D5D",
"<. c #6D6E74",
"1. c #010E34",
"2. c gray90",
"3. c #032B62",
"4. c #60626C",
"5. c #011039",
"6. c #010D35",
"7. c #010F37",
"8. c #01103A",
"9. c #01133D",
"0. c #010E38",
"q. c #030E32",
"w. c #011541",
"e. c #E7E6E5",
"r. c #021E4E",
"t. c #021E4F",
"y. c #02153F",
"u. c #02163E",
"i. c #021C52",
"p. c #0A1535",
"a. c #676971",
"s. c #04356B",
"d. c #696E82",
"f. c #01113F",
"g. c #30374E",
"h. c #455B72",
"j. c #032A5E",
"k. c #121C33",
"l. c #6A6B72",
"z. c #999998",
"x. c #E4E3E3",
"c. c #E4E3E2",
"v. c #032658",
"b. c #989898",
"n. c #021846",
"m. c #F3F3F2",
"M. c #010F36",
"N. c #010F39",
"B. c #044075",
"V. c #898989",
"C. c #959595",
"Z. c #E6E5E4",
"A. c #45566E",
"S. c gray93",
"D. c #EFEFF0",
"F. c #515462",
"G. c #021641",
"H. c #78787B",
"J. c #021F53",
"K. c #CACAC9",
"L. c #EAEAEA",
"P. c #D5D4D3",
"I. c #686A74",
"U. c #343D51",
"Y. c #373D58",
"T. c #031E4F",
"R. c #BBC1C8",
"E. c #D2D2D2",
"W. c #9B9B9A",
"Q. c #989AA3",
"!. c #022053",
"~. c #E2E2E2",
"^. c #02265B",
"/. c #4B5169",
"(. c #032456",
"). c #011133",
"_. c #081435",
"`. c #032E51",
"'. c #01103D",
"]. c #01143D",
"[. c #01133C",
"{. c #373F58",
"}. c #021A4A",
"|. c #F0EFEF",
" X c #3B425C",
".X c #E1E0DF",
"XX c #525562",
"oX c #F2F1F0",
"OX c #EAE9E8",
"+X c #BABAB9",
"@X c #878786",
"#X c #04356C",
"$X c #C5C4C3",
"%X c #9FA1AC",
"&X c #021B4F",
"*X c #A0A0A0",
"=X c #D5D5D5",
"-X c #C9C8C8",
";X c #141C3A",
":X c #D9D8D7",
">X c #043469",
",X c #010D34",
"<X c #060F34",
"1X c #9195A3",
"2X c #919090",
"3X c #081334",
"4X c #01184A",
"5X c #021948",
"6X c #E9E9E8",
"7X c #9C9D9E",
"8X c #B8B7B7",
"9X c #6A6E7E",
"0X c #BCC3CB",
"qX c #E6E6E5",
"wX c #021D4C",
"eX c #455268",
"rX c #0D1537",
"tX c #BCBCBB",
"yX c #03285D",
"uX c #011647",
"iX c #455166",
"pX c #BCC5CC",
"aX c #033355",
"sX c #BCC1C9",
"dX c #0F1A3B",
"fX c #01113E",
"gX c #A2A1A1",
"hX c #011B3D",
"jX c #041134",
"kX c #39405A",
/* pixels */
"X X X X X X X X X X X X X X X X X X X X X X X X X X X ",
"O O O O O O O O O O O O O O O O O O O O O O O O O O O ",
"+ + + + + + + + + + + + + + + + + + + + + + + + + + + ",
"o o o o o o o o o o o o o o o o o o o o o o o o o o o ",
"@ @ @ @ @ @ @ @ @ @ @ @ @ @ K.k k o.@ @ @ @ @ @ @ @ @ ",
"# # # # # # # # # # # X._ z 5 5 5 5 W.$Xj # # # # # # ",
"% % % % % % % % % % [ *.g g H.l.2 @X$.&.K # % % % % % ",
". . . . . . . . . >.7 7 XX;XI 1.q.g.` tXM b ' . . . . ",
"                +X< <  .c w.5X}.n.9._.Q.j OXt         ",
"              .Xz < ,.M.S J.^.yXl t.G.dX/ t 9 9       ",
"              n < } p.L !.3.s.Q >Xj.r.[.d.r r r t     ",
"              2X< 4.7.:.H #XU E B.A l x ! oX6 6 9     ",
"            e.< < F.8.V N P Y aX`.( hXu.jX@.1 0 m     ",
"- - - - - - { i i ..N.).sX0Xh h pXZ R.U.3X#.d 1 6 - - ",
", , , , , , v u u <.,X].eXA.+.h.T W iXk.{.m.d 1 m , , ",
"; ; ; ; ; ; qXG w w D %.x T.(.v.-.wXy.c 1X1 1 0 3 ; ; ",
"> > > > > > > *Xa a a.<XfX4Xi.J &XuX5.kXD.0 ^ 6 f > > ",
": : : : : : : C 2 2 2 I.rX0.f.~ '.6. XB y y y 4 2.: : ",
"= = = = = = = = O.e e w 7X9XY.=./.%X3 4 4 4 |.; = = = ",
"* * * * * * * * =XV.e 2 b.8XP.s q p - 3 3 R q * * * * ",
"& & & & & & & & & E.C.7 z.n -X) 6XL.] 8 S.f ~.& & & & ",
"$ $ $ $ $ $ $ $ $ $ x.F gX;.| v q p 8 8 s $ $ $ $ $ $ ",
". . . . . . . . . . . . Z.:Xb c.      . . . . . . . . ",
"                                                      ",
"                                                      "
};
