/* XPM */
static char *hide_inactive[] = {
/* columns rows colors chars-per-pixel */
"27 25 227 2 ",
"   c #EDECEB",
".  c #ECEBEA",
"X  c #BCBCBC",
"o  c #CCCCCB",
"O  c #D4D3D3",
"+  c #C4C4C3",
"@  c #DBDBDA",
"#  c #E2E1E0",
"$  c #E5E4E4",
"%  c #E8E7E6",
"&  c #E1E1E1",
"*  c #E2E1E1",
"=  c #E3E3E2",
"-  c #ECECEB",
";  c #E8E8E7",
":  c #E4E4E4",
">  c #E6E6E6",
",  c #EAEAE9",
"<  c #868585",
"1  c #F2F2F1",
"2  c gray51",
"3  c #F1F1F0",
"4  c #EEEDED",
"5  c #818180",
"6  c #EFEFEE",
"7  c gray94",
"8  c #858584",
"9  c #EEEDEC",
"0  c #EFEEED",
"q  c #EDECEC",
"w  c #E9E9E9",
"e  c #F0EFEE",
"r  c #818181",
"t  c #F2F1F1",
"y  c #EAE9E9",
"u  c #98A7CC",
"i  c #848483",
"p  c #E8E7E7",
"a  c #848484",
"s  c #9199B0",
"d  c #838383",
"f  c #EBEAEA",
"g  c #848383",
"h  c gray52",
"j  c #99A9CE",
"k  c #94A1C3",
"l  c #E0DFDE",
"z  c #888887",
"x  c #F0F0EF",
"c  c #E4E3E3",
"v  c #C8C8C7",
"b  c #F3F2F2",
"n  c #DEDEDD",
"m  c #DBDAD9",
"M  c #B1B1B0",
"N  c gray63",
"B  c #EBEAE9",
"V  c #EAEAEA",
"C  c #747A8F",
"Z  c #747B8D",
"A  c #E1E0DF",
"S  c #D1D1D0",
"D  c #D2D1D0",
"F  c #A6A7AD",
"G  c #F3F3F2",
"H  c #96A3C5",
"J  c #B8B7B7",
"K  c #59595C",
"L  c #90939B",
"P  c #D5D5D5",
"I  c #5B5D65",
"U  c #96A3C6",
"Y  c #7D7F88",
"T  c #9FB0D1",
"R  c #898989",
"E  c #75777D",
"W  c #7C859F",
"Q  c #95A2C3",
"!  c #5E6372",
"~  c #7C849A",
"^  c #DCDCDB",
"/  c #252831",
"(  c #6F6F70",
")  c gray90",
"_  c #F4F3F3",
"`  c #A0A0A0",
"'  c #9B9B9A",
"]  c #747682",
"[  c #2D2F38",
"{  c #84899B",
"}  c #757986",
"|  c #45464B",
" . c #707072",
".. c #7B7A7A",
"X. c #CECECF",
"o. c #B7B8B9",
"O. c #606062",
"+. c #8F96AB",
"@. c #EAE9E8",
"#. c #A9A9A8",
"$. c gray92",
"%. c #B4B3B2",
"&. c #CACAC9",
"*. c #9095A7",
"=. c #C9C8C8",
"-. c #777B8C",
";. c #929BB7",
":. c #6A6A6C",
">. c #444856",
",. c #D9D8D7",
"<. c #A6A5A4",
"1. c #BABABE",
"2. c #F3F2F1",
"3. c #919AB3",
"4. c #E7E6E5",
"5. c #2B2E35",
"6. c #8E93A2",
"7. c #292C36",
"8. c #9D9EA5",
"9. c #6E7077",
"0. c #8E93A1",
"q. c #999998",
"w. c #4A4E5C",
"e. c gray76",
"r. c #95A2C2",
"t. c #C2C1C1",
"y. c #9AA9CF",
"u. c #9AAACF",
"i. c #8E919E",
"p. c #F0EFEF",
"a. c #939CB6",
"s. c #6A6D78",
"d. c #6B6E79",
"f. c #A6A6AB",
"g. c #9F9FA3",
"h. c #ABACAF",
"j. c #838798",
"k. c #8F929D",
"l. c #BABAB9",
"z. c #8D919C",
"x. c #9298A9",
"c. c #A5A6AC",
"v. c #8C95B0",
"b. c #97A5C9",
"n. c #646979",
"m. c #A3A3A5",
"M. c #EFEEEE",
"N. c #494F5F",
"B. c #939DB7",
"V. c #9196A6",
"C. c #787B8A",
"Z. c #838DA8",
"A. c #929FBF",
"S. c #6D7078",
"D. c #CDCCCB",
"F. c #5D606B",
"G. c #9399AD",
"H. c #E6E5E4",
"J. c #32343B",
"K. c #666974",
"L. c #767577",
"P. c #9299AF",
"I. c #D5D4D3",
"U. c #929CB8",
"Y. c #F0F0F1",
"T. c #8D9ABA",
"R. c #4F5567",
"E. c #BCBCBB",
"W. c #8B91A4",
"Q. c #949FBC",
"!. c #E6E6E5",
"~. c #93959D",
"^. c #929DBC",
"/. c #616163",
"(. c #949DB8",
"). c #989898",
"_. c #717686",
"`. c #9398AB",
"'. c #F1F1F1",
"]. c #F2F1F0",
"[. c #94A2C4",
"{. c #535459",
"}. c #6F768C",
"|. c #737474",
" X c #95A3C5",
".X c #CAC9C9",
"XX c #838A9E",
"oX c #5F5F61",
"OX c #969695",
"+X c #909DBD",
"@X c #B5B4B4",
"#X c gray60",
"$X c #A2A1A1",
"%X c #939BB1",
"&X c #ADACAB",
"*X c #E2E2E2",
"=X c #9F9FA4",
"-X c #737B94",
";X c #8C97B4",
":X c #5E616C",
">X c #939FC1",
",X c #949DB9",
"<X c #878786",
"1X c #E9E9E8",
"2X c #E4E3E2",
"3X c #9A9998",
"4X c #272A35",
"5X c #CBCCCE",
"6X c #252933",
"7X c #7B7D85",
"8X c #585D6E",
"9X c #929BB6",
"0X c gray53",
"qX c #4A4B50",
"wX c #C5C4C3",
"eX c #92949C",
"rX c gray93",
"tX c #373B44",
"yX c #D2D2D2",
"uX c #696C76",
"iX c #7B849D",
"pX c #828281",
"aX c #959595",
"sX c #E0E0DF",
"dX c #858484",
"fX c #919090",
"gX c #BBBBBA",
/* pixels */
"X X X X X X X X X X X X X X X X X X X X X X X X X X X ",
"+ + + + + + + + + + + + + + + + + + + + + + + + + + + ",
"o o o o o o o o o o o o o o o o o o o o o o o o o o o ",
"O O O O O O O O O O O O O O O O O O O O O O O O O O O ",
"@ @ @ @ @ @ @ @ @ @ @ @ @ @ &.v v S @ @ @ @ @ @ @ @ @ ",
"# # # # # # # # # # # D <.z 5 5 5 5 ' wXl # # # # # # ",
"% % % % % % % % % % %.dXg g .. .2 <X3X&Xt.# % % % % % ",
". . . . . . . . . #.8 8 O.J./ 4X[ {.#XE.D.m B . . . . ",
"                l.< < | 6X>._.{ j.} S.o.l @.9         ",
"              A z < K 7.-.P.a.B.3.+.0.~.c 9 0 0       ",
"              M < pX5.C.%XQ.r. X+XZ.C i.1.e e e 9     ",
"              fX< :.tXx.(.Q u j b.T.-Xn.8.].3 3 0     ",
"            4.< < oXF.G.,XH y.T j >XW R.L 2.1 t x     ",
"- - - - - - ^ h h /.s.`.9Xk u u.u A.iXN.eX_ b 1 3 - - ",
", , , , , , n a a |.I V.s ^.[.U k ;X}.w.F G b 1 x , , ",
"; ; ; ; ; ; !.0Xi i qXk.*.s ;.U.v.~ 8XuX5X1 1 t 4 ; ; ",
"> > > > > > > ` d d ( 9.z.6.W.XXZ ! :Xc.Y.t '.3 w > > ",
": : : : : : : e.2 2 2 L.E Y ] d.K.7Xf.w 7 7 7 6 ) : : ",
"= = = = = = = = OXr r i N m.g.=Xh.X.4 6 6 6 p.; = = = ",
"* * * * * * * * P R r 2 ).J I.p y f - 4 4 M.y * * * * ",
"& & & & & & & & & yXaX8 q.M =.sX1XV $.q rXw *X& & & & ",
"$ $ $ $ $ $ $ $ $ $ c gX$X@X.Xn y f q q p $ $ $ $ $ $ ",
". . . . . . . . . . . . H.,.m 2X      . . . . . . . . ",
"                                                      ",
"                                                      "
};
