/* XPM */
static char *maximize_prelight[] = {
/* columns rows colors chars-per-pixel */
"26 25 222 2 ",
"   c #EDECEB",
".  c #ECEBEA",
"X  c #D4D3D3",
"o  c #BCBCBC",
"O  c #C4C4C3",
"+  c #CCCCCB",
"@  c #DBDBDA",
"#  c #E2E1E0",
"$  c #E5E4E4",
"%  c #E8E7E6",
"&  c #E1E1E1",
"*  c #E2E1E1",
"=  c #E3E3E2",
"-  c #ECECEB",
";  c #E4E4E4",
":  c #E8E8E7",
">  c #E6E6E6",
",  c #EAEAE9",
"<  c #868585",
"1  c #818180",
"2  c #F2F2F1",
"3  c #072C00",
"4  c #EEEDED",
"5  c gray51",
"6  c #EFEFEE",
"7  c #F1F1F0",
"8  c #858584",
"9  c #EEEDEC",
"0  c #818181",
"q  c #EFEEED",
"w  c #F0EFEE",
"e  c #F2F1F1",
"r  c #EAE9E9",
"t  c #246901",
"y  c #EDECEC",
"u  c #848483",
"i  c gray94",
"p  c #E0DFDE",
"a  c #DEDEDD",
"s  c #EBEAEA",
"d  c #F3F2F2",
"f  c #848484",
"g  c #F0F0EF",
"h  c #134700",
"j  c #E9E9E9",
"k  c gray100",
"l  c gray52",
"z  c #838383",
"x  c #B1B1B0",
"c  c #888887",
"v  c #185201",
"b  c #104600",
"n  c #0F4100",
"m  c #0E3D00",
"M  c #DBDAD9",
"N  c #848383",
"B  c #C8C8C7",
"V  c #E8E7E7",
"C  c #276F01",
"Z  c #195501",
"A  c #195701",
"S  c #F3F2F1",
"D  c #30442D",
"F  c #F3F3F2",
"G  c #4D6444",
"H  c gray92",
"J  c #113C01",
"K  c #929F91",
"L  c #959595",
"P  c #0E2E07",
"I  c #6B7C68",
"U  c #3C5533",
"Y  c #083300",
"T  c #144B00",
"R  c #8E928C",
"E  c #4A5F44",
"W  c #24401F",
"Q  c #F2F1F0",
"!  c #0D3D00",
"~  c #EAEAEA",
"^  c #D2D1D0",
"/  c #15330E",
"(  c #E6E6E5",
")  c #787A77",
"_  c #072E00",
"`  c #195401",
"'  c #829878",
"]  c #858484",
"[  c #A2A1A1",
"{  c #072A00",
"}  c #A9A9A8",
"|  c #0B3700",
" . c #256B01",
".. c #083100",
"X. c #C1CBBB",
"o. c #9B9B9A",
"O. c #256201",
"+. c #1C5A01",
"@. c #D5D5D5",
"#. c gray93",
"$. c #1E5401",
"%. c #072B00",
"&. c #EAE9E8",
"*. c #2A6F01",
"=. c #D2D2D2",
"-. c #E6E5E4",
";. c #062C00",
":. c #D5D4D3",
">. c #104700",
",. c #9EAB99",
"<. c #A0A99E",
"1. c #99A196",
"2. c #A0A0A0",
"3. c #F0EFEF",
"4. c #0B3500",
"5. c #0A3200",
"6. c #0E3E00",
"7. c #062A00",
"8. c #0E3C00",
"9. c #124001",
"0. c #496C34",
"q. c #114A00",
"w. c #0B3400",
"e. c #EFF2EE",
"r. c #0E3F00",
"t. c #969695",
"y. c #092C00",
"u. c #083000",
"i. c #DFE1DF",
"p. c #B8B7B7",
"a. c #E9E9E8",
"s. c #BBBBBA",
"d. c #F1F1F1",
"f. c #286601",
"g. c #E4E3E3",
"h. c #989898",
"j. c #6B7A69",
"k. c #436134",
"l. c #535F51",
"z. c #E2E2E2",
"x. c #093400",
"c. c #E4E3E2",
"v. c #185301",
"b. c #EFEEEE",
"n. c #0A3300",
"m. c #EBEAE9",
"M. c #E0E0DF",
"N. c #173213",
"B. c #0C3900",
"V. c #6A7069",
"C. c #CACAC9",
"Z. c #6D736D",
"A. c #D1D1D0",
"S. c #CDCCCB",
"D. c #3E553A",
"F. c #878786",
"G. c #20391C",
"H. c #062900",
"J. c #869D78",
"K. c #102D0C",
"L. c #525D50",
"P. c #1A5901",
"I. c #BCBCBB",
"U. c #1D5E01",
"Y. c #919090",
"T. c #687167",
"R. c #4D624A",
"E. c #B4B3B2",
"W. c #0C3800",
"Q. c #082D00",
"!. c #134101",
"~. c #C5C4C3",
"^. c #A6A5A4",
"/. c #9C9E9B",
"(. c #072900",
"). c #828281",
"_. c #1D5201",
"`. c #33482F",
"'. c #C2C1C1",
"]. c #0C3C00",
"[. c gray90",
"{. c #456534",
"}. c #E1E0DF",
"|. c #E7E6E5",
" X c #0E2F08",
".X c #CAC9C9",
"XX c #C9C8C8",
"oX c #154701",
"OX c #BABAB9",
"+X c #3C5438",
"@X c #D5D8D3",
"#X c #082902",
"$X c #61695F",
"%X c #D9D8D7",
"&X c #F4F3F3",
"*X c #A1B199",
"=X c #314A2E",
"-X c gray53",
";X c #B5B4B4",
":X c #4A5848",
">X c #0F4000",
",X c #EFF1EE",
"<X c #EFF0EF",
"1X c gray76",
"2X c #88A078",
"3X c #293F22",
"4X c #ADACAB",
"5X c #F0F3EE",
"6X c #2C4922",
"7X c #0E2C09",
"8X c #0A2B03",
"9X c #686E67",
"0X c #1A5701",
"qX c #999998",
"wX c #385036",
"eX c #546053",
"rX c #898989",
"tX c #3B5338",
"yX c #9A9998",
"uX c #DCDCDB",
"iX c #144C00",
"pX c #092905",
/* pixels */
"o o o o o o o o o o o o o o o o o o o o o o o o o o ",
"O O O O O O O O O O O O O O O O O O O O O O O O O O ",
"+ + + + + + + + + + + + + + + + + + + + + + + + + + ",
"X X X X X X X X X X X X X X X X X X X X X X X X X X ",
"@ @ @ @ @ @ @ @ @ @ @ @ @ C.B B A.@ @ @ @ @ @ @ @ @ ",
"# # # # # # # # # # ^ ^.c 1 1 1 1 o.~.p # # # # # # ",
"% % % % % % % % % E.] N N ) V.).F.yX4X'.# % % % % % ",
". . . . . . . . } 8 8 l.N.(.%.#X`.R I.S.M m.. . . . ",
"              OX< < D 3 | r.n m w.P 1.p &.9         ",
"            }.c < :X3 ! T Z P.v.h W./ @X9 q q       ",
"            x < 1 7XB.iXU. .C t +.h n.I w w w 9     ",
"            Y.< $X3 n A t O.f.*.t v 8.W Q 7 7 q     ",
"          |.< < L.u.b ` _.J.2X0.$.0X>X8XS 2 e g     ",
"- - - - - uXl l eX_ m !.*Xk k 5Xk.9.6. X&Xd 2 7 - - ",
", , , , , a f f Z.H.y.,.e.' {.X.,XU 5.+XF d 2 g , , ",
": : : : : ( -Xu u G.3 E 6XoXv J G 3X{ K 2 2 e 4 : : ",
"> > > > > > 2.z z 9XpXQ.].>.q.b 4.3 tX<Xe d.7 j > > ",
"; ; ; ; ; ; 1X5 5 5 T.K.;.Y x...7.D.i.i i i 6 [.; ; ",
"= = = = = = = t.0 0 u /.j.wX=XR.<.4 6 6 6 3.: = = = ",
"* * * * * * * @.rX0 5 h.p.:.V r s - 4 4 b.r * * * * ",
"& & & & & & & & =.L 8 qXx XXM.a.~ H y #.j z.& & & & ",
"$ $ $ $ $ $ $ $ $ g.s.[ ;X.Xa r s y y V $ $ $ $ $ $ ",
". . . . . . . . . . . -.%XM c.      . . . . . . . . ",
"                                                    ",
"                                                    "
};
