/* XPM */
static char *maximize_inactive[] = {
/* columns rows colors chars-per-pixel */
"26 25 228 2 ",
"   c #EDECEB",
".  c #ECEBEA",
"X  c #C4C4C3",
"o  c #CCCCCB",
"O  c #D4D3D3",
"+  c #BCBCBC",
"@  c #DBDBDA",
"#  c #E2E1E0",
"$  c #E5E4E4",
"%  c #E8E7E6",
"&  c #E1E1E1",
"*  c #E2E1E1",
"=  c #E3E3E2",
"-  c #E6E6E6",
";  c #ECECEB",
":  c #E4E4E4",
">  c #E8E8E7",
",  c #EAEAE9",
"<  c #868585",
"1  c #F2F2F1",
"2  c #F1F1F0",
"3  c #EEEDED",
"4  c gray51",
"5  c #EFEFEE",
"6  c #818180",
"7  c gray94",
"8  c #EFEEED",
"9  c #858584",
"0  c #848483",
"q  c #EDECEC",
"w  c #EEEDEC",
"e  c #F2F1F1",
"r  c #F0EFEE",
"t  c #EAE9E9",
"y  c #818181",
"u  c #96AD89",
"i  c #888887",
"p  c #E9E9E9",
"a  c #848484",
"s  c #9EA69C",
"d  c gray52",
"f  c #EBEAEA",
"g  c #848383",
"h  c #E8E7E7",
"j  c #99B189",
"k  c #8D9A89",
"l  c #DEDEDD",
"z  c #828281",
"x  c #F3F2F2",
"c  c #9AB389",
"v  c #E0DFDE",
"b  c #97AE89",
"n  c #838383",
"m  c #C8C8C7",
"M  c #F0F0EF",
"N  c #DBDAD9",
"B  c #B1B1B0",
"V  c #91A18C",
"C  c #E6E6E5",
"Z  c #7C9073",
"A  c #94A78B",
"S  c #878786",
"D  c #92A885",
"F  c #E7E6E5",
"G  c #595D58",
"H  c #B5B4B4",
"J  c #939C8F",
"K  c #454C44",
"L  c #8DA184",
"P  c #8DA283",
"I  c #758171",
"U  c #959595",
"Y  c #A5ACA3",
"T  c #293526",
"R  c #9B9B9A",
"E  c #94A88C",
"W  c #94AB86",
"Q  c #ABB1A9",
"!  c #92A888",
"~  c #2B3529",
"^  c #738170",
"/  c #909A8D",
"(  c #C5C4C3",
")  c #DCDCDB",
"_  c #4A5846",
"`  c #D9D8D7",
"'  c #90A08A",
"]  c #BABAB9",
"[  c #ADACAB",
"{  c #91A489",
"}  c gray93",
"|  c #84987A",
" . c #D5D4D3",
".. c #D5D5D5",
"X. c #7D8F75",
"o. c #323A30",
"O. c #B8B7B7",
"+. c #F0F1F0",
"@. c #64735F",
"#. c #6A6D69",
"$. c #4F5F4A",
"%. c #95AC88",
"&. c #9CB689",
"*. c #83927D",
"=. c #767875",
"-. c #B4B3B2",
";. c #A6ADA4",
":. c #F1F1F1",
">. c #737573",
",. c #92A789",
"<. c #6D776A",
"1. c #44513F",
"2. c #D2D1D0",
"3. c #6A7667",
"4. c #969695",
"5. c #989898",
"6. c #778572",
"7. c gray53",
"8. c #697566",
"9. c #495944",
"0. c #94AA87",
"q. c #586853",
"w. c #778571",
"e. c #999998",
"r. c #6A7866",
"t. c #93A38D",
"y. c #919C8F",
"u. c #F0EFEF",
"i. c #92A28C",
"p. c #74846D",
"a. c #94A98B",
"s. c gray92",
"d. c #EFEEEE",
"f. c #999A97",
"g. c #243022",
"h. c #667363",
"j. c #5C6959",
"k. c #A0A0A0",
"l. c #A2A1A1",
"z. c #D1D1D0",
"x. c #8E9E88",
"c. c #97B088",
"v. c #BCBCBB",
"b. c #84947E",
"n. c #96AB8C",
"m. c #898989",
"M. c #535951",
"N. c #F3F3F2",
"B. c #8FA582",
"V. c #9CA599",
"C. c #2D362A",
"Z. c #606460",
"A. c #90A088",
"S. c #E2E2E2",
"D. c #70726F",
"F. c #F2F1F0",
"G. c #7A8578",
"H. c #7D8979",
"J. c #495247",
"K. c #92A48B",
"L. c #97AD8A",
"P. c gray76",
"I. c #74866B",
"U. c #F3F2F1",
"Y. c #CBCFCA",
"T. c #71806B",
"R. c #9BB489",
"E. c #7C8F73",
"W. c #CAC9C9",
"Q. c #94A48D",
"!. c #B7BAB6",
"~. c #CDCCCB",
"^. c #CED1CC",
"/. c #6E786C",
"(. c #273325",
"). c #D2D2D2",
"_. c #A6ADA3",
"`. c #5E6A5B",
"'. c #EAEAEA",
"]. c #E4E3E3",
"[. c #C2C1C1",
"{. c #E4E3E2",
"}. c #A9A9A8",
"|. c #97AF89",
" X c #EBEAE9",
".X c #74866F",
"XX c #5A6658",
"oX c #CACAC9",
"OX c #858484",
"+X c #EAE9E8",
"@X c #BBBBBA",
"#X c #9A9998",
"$X c #99B289",
"%X c #93A68C",
"&X c #E4E4E2",
"*X c #E6E5E4",
"=X c #6F8168",
"-X c #E0E0DF",
";X c #757E73",
":X c #8B9D85",
">X c #919090",
",X c #A2A7A0",
"<X c #93A88B",
"1X c #97AE8A",
"2X c #5E625D",
"3X c #B9BEB7",
"4X c #8E9C89",
"5X c #E9EAE9",
"6X c #E9E9E8",
"7X c gray90",
"8X c #7A7B7A",
"9X c #A1A2A0",
"0X c #93A78A",
"qX c #92A489",
"wX c #E1E0DF",
"eX c #253123",
"rX c #8F9C8B",
"tX c #F4F3F3",
"yX c #374434",
"uX c #60635E",
"iX c #5E6E59",
"pX c #6F716E",
"aX c #83967D",
"sX c #C9C8C8",
"dX c #9BB389",
"fX c #91A58A",
"gX c #94A989",
"hX c #A6A5A4",
/* pixels */
"+ + + + + + + + + + + + + + + + + + + + + + + + + + ",
"X X X X X X X X X X X X X X X X X X X X X X X X X X ",
"o o o o o o o o o o o o o o o o o o o o o o o o o o ",
"O O O O O O O O O O O O O O O O O O O O O O O O O O ",
"@ @ @ @ @ @ @ @ @ @ @ @ @ oXm m z.@ @ @ @ @ @ @ @ @ ",
"# # # # # # # # # # 2.hXi 6 6 6 6 R ( v # # # # # # ",
"% % % % % % % % % -.OXg g 8XD.z S #X[ [.# % % % % % ",
". . . . . . . . }.9 9 uXo.g.(.C.M.f.v.~.N  X. . . . ",
"              ] < < K eX1.T.b.*.I <.!.v +Xw         ",
"            wXi < G T w.K.A <XqXA.4XJ &Xw 8 8       ",
"            B < z ~ 6.%Xn.L.b D | p.k 3Xr r r w     ",
"            >X< #.yXi.E 1Xj c c.B.I.@.V.F.2 2 8     ",
"          F < < 2Xj.Q.a.b dX&.c W Z $./ U.1 e M     ",
"; ; ; ; ; ) d d Z.3.t.0Xu $XR.j 0.E.9.y.tXx 1 2 ; ; ",
", , , , , l a a >.XXV fXgXu |.%.P =X_ ;.N.x 1 M , , ",
"> > > > > C 7.0 0 J.rX' { ,.! L X.q.8.Y.1 1 e 3 > > ",
"- - - - - - k.n n pX/.k x.:XaX.XiX`.Y +.e :.2 p - - ",
": : : : : : P.4 4 4 =.;XH.^ r.h.G._.5X7 7 7 5 7X: : ",
"= = = = = = = 4.y y 0 9X,Xs s Q ^.3 5 5 5 u.> = = = ",
"* * * * * * * ..m.y 4 5.O. .h t f ; 3 3 d.t * * * * ",
"& & & & & & & & ).U 9 e.B sX-X6X'.s.q } p S.& & & & ",
"$ $ $ $ $ $ $ $ $ ].@Xl.H W.l t f q q h $ $ $ $ $ $ ",
". . . . . . . . . . . *X` N {.      . . . . . . . . ",
"                                                    ",
"                                                    "
};
