/* XPM */
static char *maximize_toggled_prelight[] = {
/* columns rows colors chars-per-pixel */
"26 25 225 2 ",
"   c #EDECEB",
".  c #ECEBEA",
"X  c #BCBCBC",
"o  c #D4D3D3",
"O  c #CCCCCB",
"+  c #C4C4C3",
"@  c #DBDBDA",
"#  c #E2E1E0",
"$  c #E5E4E4",
"%  c #E8E7E6",
"&  c #E1E1E1",
"*  c #E2E1E1",
"=  c #E3E3E2",
"-  c #E8E8E7",
";  c #ECECEB",
":  c #E4E4E4",
">  c #E6E6E6",
",  c #EAEAE9",
"<  c #868585",
"1  c #818180",
"2  c #F2F2F1",
"3  c #EEEDED",
"4  c gray51",
"5  c #EFEFEE",
"6  c #F1F1F0",
"7  c #EEEDEC",
"8  c #858584",
"9  c #848483",
"0  c #F0EFEE",
"q  c #EAE9E9",
"w  c #F2F1F1",
"e  c #EFEEED",
"r  c #EDECEC",
"t  c gray100",
"y  c #072C00",
"u  c gray94",
"i  c #818181",
"p  c #888887",
"a  c #0B3700",
"s  c #F0F0EF",
"d  c #DEDEDD",
"f  c #EBEAEA",
"g  c #848484",
"h  c #DBDAD9",
"j  c #134700",
"k  c #C8C8C7",
"l  c #F3F2F2",
"z  c #838383",
"x  c #E0DFDE",
"c  c #848383",
"v  c #144C00",
"b  c gray52",
"n  c #0E3E00",
"m  c #B1B1B0",
"M  c #D0D8CC",
"N  c #E8E7E7",
"B  c #E9E9E9",
"V  c #F0EFEF",
"C  c #546053",
"Z  c #61695F",
"A  c #869D78",
"S  c #103801",
"D  c #8E928C",
"F  c #144B00",
"G  c #1A5901",
"H  c #687167",
"J  c #0C3600",
"K  c #30442D",
"L  c #E0E0DF",
"P  c #0D3600",
"I  c #1E3F12",
"U  c #9C9E9B",
"Y  c #4D624A",
"T  c #082F00",
"R  c #CACAC9",
"E  c #535F51",
"W  c #0D3D00",
"Q  c #EFF0EF",
"!  c #C9C8C8",
"~  c #828281",
"^  c #898989",
"/  c #173213",
"(  c #D2D2D2",
")  c #143A01",
"_  c #9A9998",
"`  c #33482F",
"'  c #878786",
"]  c #0E3F00",
"[  c #D5D4D3",
"{  c #154601",
"}  c #DCDCDB",
"|  c #195501",
" . c #858484",
".. c #C5C4C3",
"X. c #B8B7B7",
"o. c #E6E5E4",
"O. c #134900",
"+. c #BBBBBA",
"@. c gray53",
"#. c #1D5E01",
"$. c #6D736D",
"%. c #A2A1A1",
"&. c #A0A0A0",
"*. c #A6A5A4",
"=. c #0E3C00",
"-. c #F1F1F1",
";. c #C1CCBB",
":. c #093300",
">. c #134101",
",. c #4A5848",
"<. c #15330E",
"1. c #093400",
"2. c #123C01",
"3. c #072B00",
"4. c #0C3800",
"5. c #0C3900",
"6. c #0E3D00",
"7. c #104600",
"8. c #124001",
"9. c #F4F3F3",
"0. c #072E00",
"q. c #5E7556",
"w. c #0C3700",
"e. c #E6E6E5",
"r. c #174501",
"t. c #114A00",
"y. c #0E2C09",
"u. c #0F4300",
"i. c #314A2E",
"p. c #0F4100",
"a. c #185301",
"s. c #3B5338",
"d. c #1C5A01",
"f. c #0D4000",
"g. c #6B7C68",
"h. c #6B7A69",
"j. c #E7E6E5",
"k. c #104700",
"l. c #929F91",
"z. c #F3F3F2",
"x. c #3C5438",
"c. c #154E00",
"v. c #99A196",
"b. c #EAE9E8",
"n. c #102D0C",
"m. c #154A01",
"M. c #D5D8D3",
"N. c #24401F",
"B. c #E1E0DF",
"V. c #D9D8D7",
"C. c #999998",
"Z. c #787A77",
"A. c #CAC9C9",
"S. c #D2D1D0",
"D. c #EBEAE9",
"F. c #989898",
"G. c #EAEAEA",
"H. c #083100",
"J. c #E1E6DD",
"K. c #062900",
"L. c #276601",
"P. c #D1D1D0",
"I. c #082902",
"U. c #3E553A",
"Y. c #F3F2F1",
"T. c #0C3C00",
"R. c #597845",
"E. c #BCBCBB",
"W. c #D5D5D5",
"Q. c #E2E2E2",
"!. c #919090",
"~. c #E9E9E8",
"^. c #083200",
"/. c #BABAB9",
"(. c #062C00",
"). c #CFD6CC",
"_. c #0C3D00",
"`. c #083300",
"'. c #0A2C00",
"]. c gray76",
"[. c #E4E3E2",
"{. c #E4E3E3",
"}. c #123E01",
"|. c #C2C1C1",
" X c #EFEEEE",
".X c #082D00",
"XX c #F2F1F0",
"oX c #0B3400",
"OX c #072900",
"+X c #686E67",
"@X c #9B9B9A",
"#X c #276F01",
"$X c gray92",
"%X c #CDCCCB",
"&X c #DFE1DF",
"*X c #225A01",
"=X c #B1BEAA",
"-X c #959595",
";X c #0A2B03",
":X c #083000",
">X c #2F5812",
",X c #728967",
"<X c #124300",
"1X c #A9A9A8",
"2X c #0E2F08",
"3X c #0E2E07",
"4X c #256B01",
"5X c #317D01",
"6X c #6A7069",
"7X c gray90",
"8X c #385036",
"9X c #B5B4B4",
"0X c #062A00",
"qX c #246901",
"wX c #738A67",
"eX c #0A3300",
"rX c #204312",
"tX c #092905",
"yX c #A0A99E",
"uX c #969695",
"iX c #525D50",
"pX c #ADACAB",
"aX c gray93",
"sX c #B4B3B2",
"dX c #20391C",
/* pixels */
"X X X X X X X X X X X X X X X X X X X X X X X X X X ",
"+ + + + + + + + + + + + + + + + + + + + + + + + + + ",
"O O O O O O O O O O O O O O O O O O O O O O O O O O ",
"o o o o o o o o o o o o o o o o o o o o o o o o o o ",
"@ @ @ @ @ @ @ @ @ @ @ @ @ R k k P.@ @ @ @ @ @ @ @ @ ",
"# # # # # # # # # # S.*.p 1 1 1 1 @X..x # # # # # # ",
"% % % % % % % % % sX .c c Z.6X~ ' _ pX|.# % % % % % ",
". . . . . . . . 1X8 8 E / OX3.I.` D E.%Xh D.. . . . ",
"              /.< < K y a ] p.6.oX3Xv.x b.7         ",
"            B.p < ,.y W F | G a.j 4.<.M.7 e e       ",
"            m < 1 y.5.v #.4X#XqXd.j eXg.0 0 0 7     ",
"            !.< Z y J S r.L.5X*X) 2.=.N.XX6 6 e     ",
"          j.< < iX:X'.).M R.>XA t q.P ;XY.2 w s     ",
"; ; ; ; ; } b b C 0.w.I M t J.t ,X}.n 2X9.l 2 6 ; ; ",
", , , , , d g g $.K._.<XrX=X;.wX{ v a x.z.l 2 s , , ",
"- - - - - e.@.9 9 dX^.u.O.>.8.m.c.n .Xl.2 2 w 3 - - ",
"> > > > > > &.z z +XtX:.f.k.t.7.T.T s.Q w -.6 B > > ",
": : : : : : ].4 4 4 H n.(.`.1.H.0XU.&Xu u u 5 7X: : ",
"= = = = = = = uXi i 9 U h.8Xi.Y yX3 5 5 5 V - = = = ",
"* * * * * * * W.^ i 4 F.X.[ N q f ; 3 3  Xq * * * * ",
"& & & & & & & & ( -X8 C.m ! L ~.G.$Xr aXB Q.& & & & ",
"$ $ $ $ $ $ $ $ $ {.+.%.9XA.d q f r r N $ $ $ $ $ $ ",
". . . . . . . . . . . o.V.h [.      . . . . . . . . ",
"                                                    ",
"                                                    "
};
