/* XPM */
static char *maximize_active[] = {
/* columns rows colors chars-per-pixel */
"26 25 229 2 ",
"   c #376102",
".  c #376205",
"X  c #386401",
"o  c #396501",
"O  c #386701",
"+  c #3A6701",
"@  c #396403",
"#  c #3C6501",
"$  c #3B6307",
"%  c #386801",
"&  c #3B6901",
"*  c #3C6A01",
"=  c #3C6C01",
"-  c #3D6C01",
";  c #3C6E01",
":  c #396009",
">  c #3D6708",
",  c #39620C",
"<  c #3F7001",
"1  c #3D6013",
"2  c #40660E",
"3  c #407201",
"4  c #447301",
"5  c #437701",
"6  c #457401",
"7  c #467601",
"8  c #477801",
"9  c #457B01",
"0  c #477E01",
"q  c #4B7E01",
"w  c #4C7E01",
"e  c #537C01",
"r  c #43651C",
"t  c #4C701F",
"y  c #4A6523",
"u  c #4D682D",
"i  c #516D2F",
"p  c #577523",
"a  c #53762E",
"s  c #597A36",
"d  c #5D7C38",
"f  c #5E7D38",
"g  c #5E7D3A",
"h  c #617934",
"j  c #5E7148",
"k  c #637350",
"l  c #647451",
"z  c #647453",
"x  c #6D795F",
"c  c #717A67",
"v  c #737B69",
"b  c #747C6D",
"n  c #7C7F77",
"m  c #4D8101",
"M  c #518501",
"N  c #518701",
"B  c #588301",
"V  c #598501",
"C  c #528801",
"Z  c #538801",
"A  c #548901",
"S  c #568B01",
"D  c #558C01",
"F  c #588E01",
"G  c #599201",
"H  c #5E9801",
"J  c #5F9B01",
"K  c #609001",
"L  c #619701",
"P  c #629801",
"I  c #619F01",
"U  c #669F01",
"Y  c #759B01",
"T  c #769D01",
"R  c #64A201",
"E  c #68A101",
"W  c #6FA402",
"Q  c #70A802",
"!  c #72A902",
"~  c #71AA02",
"^  c #74AE02",
"/  c #77AF02",
"(  c #77B202",
")  c #78B202",
"_  c #7BB302",
"`  c #7FB902",
"'  c #748B34",
"]  c #7A9234",
"[  c #698045",
"{  c #6F8745",
"}  c #69874A",
"|  c #748067",
" . c #7F9569",
".. c #8FB202",
"X. c #98B603",
"o. c #889935",
"O. c #90C602",
"+. c #91C602",
"@. c #91C702",
"#. c #93CA02",
"$. c #9DD002",
"%. c #A2CA02",
"&. c #849B68",
"*. c #A4B478",
"=. c #B0BB78",
"-. c #B6BE78",
";. c #818180",
":. c #818181",
">. c #838380",
",. c #838381",
"<. c gray51",
"1. c #838383",
"2. c #848383",
"3. c #848483",
"4. c #848484",
"5. c #858484",
"6. c #858584",
"7. c gray52",
"8. c #868585",
"9. c #878786",
"0. c gray53",
"q. c #888887",
"w. c #898989",
"e. c #959B8C",
"r. c #919090",
"t. c #959595",
"y. c #969695",
"u. c #989898",
"i. c #999998",
"p. c #9A9998",
"a. c #9B9B9A",
"s. c #9FA29B",
"d. c #A3B491",
"f. c #A5B096",
"g. c #ADBB9E",
"h. c #B1BF99",
"j. c #A0A0A0",
"k. c #A2A1A1",
"l. c #A6A5A4",
"z. c #A9A9A8",
"x. c #ADACAB",
"c. c #B1B1B0",
"v. c #B4B3B2",
"b. c #B5B4B4",
"n. c #B8B7B7",
"m. c #BABAB9",
"M. c #BBBBBA",
"N. c #BCBCBB",
"B. c #BCBCBC",
"V. c #BAC799",
"C. c #D1D9BB",
"Z. c #C2C1C1",
"A. c gray76",
"S. c #C4C4C3",
"D. c #C5C4C3",
"F. c #C8C8C7",
"G. c #C9C8C8",
"H. c #CAC9C9",
"J. c #CACAC9",
"K. c #CCCCCB",
"L. c #CDCCCB",
"P. c #D1D1D0",
"I. c #D2D1D0",
"U. c #D2D2D2",
"Y. c #D4D3D3",
"T. c #D5D4D3",
"R. c #D5D5D5",
"E. c #DADDD3",
"W. c #D9D8D7",
"Q. c #DBDAD9",
"!. c #DBDBDA",
"~. c #DCDCDB",
"^. c #DEDEDD",
"/. c #E0DFDE",
"(. c #E0E0DF",
"). c #E1E0DF",
"_. c #E2E5DF",
"`. c #E1E1E1",
"'. c #E2E1E0",
"]. c #E2E1E1",
"[. c #E2E2E2",
"{. c #E3E3E2",
"}. c #E4E3E2",
"|. c #E4E3E3",
" X c #E4E4E4",
".X c #E5E4E4",
"XX c gray90",
"oX c #E6E5E4",
"OX c #E6E6E5",
"+X c #E7E6E5",
"@X c #E6E6E6",
"#X c #E8E7E6",
"$X c #E8E7E7",
"%X c #E8E8E7",
"&X c #E9E9E8",
"*X c #E9E9E9",
"=X c #EAE9E8",
"-X c #EAE9E9",
";X c #EAEAE9",
":X c #EBEAE9",
">X c #EAEAEA",
",X c #EBEAEA",
"<X c gray92",
"1X c #ECEBEA",
"2X c #ECECEB",
"3X c #EDECEB",
"4X c #EDECEC",
"5X c gray93",
"6X c #EEEDEC",
"7X c #EEEDED",
"8X c #EFEEED",
"9X c #EFEEEE",
"0X c #EFEFEE",
"qX c #F0EFEE",
"wX c #F0EFEF",
"eX c #F0F0EF",
"rX c #F3F5EE",
"tX c #F5F6EE",
"yX c gray94",
"uX c #F1F1F0",
"iX c #F1F1F1",
"pX c #F2F1F0",
"aX c #F2F1F1",
"sX c #F2F2F1",
"dX c #F3F2F1",
"fX c #F3F2F2",
"gX c #F3F3F2",
"hX c #F4F3F3",
"jX c gray100",
/* pixels */
"B.B.B.B.B.B.B.B.B.B.B.B.B.B.B.B.B.B.B.B.B.B.B.B.B.B.",
"S.S.S.S.S.S.S.S.S.S.S.S.S.S.S.S.A.A.G.A.A.A.A.A.A.G.",
"K.K.K.K.K.K.K.K.K.K.K.K.K.K.K.K.L.L.L.H.L.L.L.L.L.H.",
"Y.Y.Y.Y.Y.Y.Y.Y.Y.Y.Y.Y.Y.Y.Y.Y.Y.Y.Y.Y.R.R.R.U.R.Y.",
"!.!.!.!.!.!.!.!.!.!.!.~.!.J.F.F.U.Q.Q.Q.!.!.!.!.Q.Q.",
"'.'.'.'.'.'.'.'.'.'.I.l.q.;.;.;.&.a.A.].).).|.).].].",
"#X#X#X#X#X#X#X#X#Xv.8.;.2.n v ;.q.p.x.Z.).=X#X#X$X$X",
"1X1X1X1X1X1X1X1Xz.8.8.l 1 X &   i e.M.L.Q.1X1X1X,X,X",
"1X6X1X6X2X2X2Xm.8.8.u & q D F C 7 $ f./.=X2X1X2X<X<X",
"6X1X6X1X2X2X(.q.8.j = C U ^ ) ~ L w 2 E.6XqXqX1X<X<X",
"1X6X1X6X2X6Xc.8.;.: m E ..#.$.+._ L 7 &.qXqXqX2X6X6X",
"6X1X6X2X6X2Xr.8.x - G ) O...X.%.+.Q M t pXeXgXqX6X<X",
"1X6X1X6X2XOX8.8.k 3 L ! W =.=.o.T ^ F   aXgXgXqX6X<X",
"2X2X2X1X2X~.8.8.l - V B V.jXjXtX' B A > fXaXgXgX1X1X",
";X=X1X=X;X^.4.4.b & 3 h.tX*.] C.tXh 4 d fXfXfXqX;X1X",
"@X=X#X=X&X@X8.3.3.r 2 g p G W e { y   d.gXgXfX<X#X=X",
"OXOXOX@X@X@Xj.1.1.v . - C R R J 9 & g 0XgXgX0X<XoXoX",
" XOX X X X XA.1.1.1.v : ; 9 m 3 O g {.0X0X0X0X@XoXoX",
"'. X{. X'. X'.t.;.;.5.s. .s a } g.6X0X0X6XyX&X[.|.|.",
"'.'.'.'.'.[.'.R.w.;.;.u.n.Y.&X&X;X<X6X6XyX<X'.'.).`.",
"`.`.'.'.[.`.`.`.Y.t.2.p.c.G./.=X<X<X<X6X&X[.`.`.`.`.",
"oXoXoXoX XOXOX[.oX|.M.k.b.G./.-X<X<X6X#X[.OXOX[.oXoX",
";X<X1X1X1X1X<X<X1X1X1X#XW.!.|.6X6X<X1X1X1X1X<X<X1X1X",
"<X<X6X1X6X<X6X<X1X6X1X<X1X1X1X6X6X6X6X<X1XqX<X<X6X1X",
"<X6X6X1X6X1X6X1X6X1X6X1X6X1X6X1X1X6X1X6X1X6X1X6X1X6X"
};
