/* XPM */
static char *maximize_toggled_pressed[] = {
/* columns rows colors chars-per-pixel */
"26 25 230 2 ",
"   c #EDECEB",
".  c #ECEBEA",
"X  c #C4C4C3",
"o  c #CCCCCB",
"O  c #D4D3D3",
"+  c #BCBCBC",
"@  c #DBDBDA",
"#  c #E2E1E0",
"$  c #E5E4E4",
"%  c #E8E7E6",
"&  c #E1E1E1",
"*  c #E2E1E1",
"=  c #E3E3E2",
"-  c #E8E8E7",
";  c #ECECEB",
":  c #E6E6E6",
">  c #E4E4E4",
",  c #EAEAE9",
"<  c #868585",
"1  c #F2F2F1",
"2  c #F1F1F0",
"3  c #EEEDED",
"4  c gray51",
"5  c #818180",
"6  c #EFEFEE",
"7  c gray94",
"8  c gray100",
"9  c #EFEEED",
"0  c #EAE9E9",
"q  c #818181",
"w  c #F2F1F1",
"e  c #F0EFEE",
"r  c #EDECEC",
"t  c #858584",
"y  c #EEEDEC",
"u  c #848483",
"i  c #F0F0EF",
"p  c #BD3B11",
"a  c #848484",
"s  c #E0DFDE",
"d  c #EBEAEA",
"f  c #98250A",
"g  c gray52",
"h  c #DEDEDD",
"j  c #848383",
"k  c #E8E7E7",
"l  c #E9E9E9",
"z  c #F3F2F2",
"x  c #888887",
"c  c #F0EFEF",
"v  c #C8C8C7",
"b  c #838383",
"n  c #DBDAD9",
"m  c #B1B1B0",
"M  c gray76",
"N  c #D45019",
"B  c #F3F3F2",
"V  c #E76522",
"C  c #96564C",
"Z  c #E66020",
"A  c #EAE9E8",
"S  c #D2D2D2",
"D  c #B8B7B7",
"F  c #999998",
"G  c #A32C0C",
"H  c #8E473D",
"J  c #AD2B0B",
"K  c #C9C8C8",
"L  c #848281",
"P  c #7D5954",
"I  c #C2C1C1",
"U  c #E7E6E5",
"Y  c #A62F0D",
"T  c #806460",
"R  c #9B260A",
"E  c #AC2F0D",
"W  c #9F8F8D",
"Q  c #CDCCCB",
"!  c #772A1F",
"~  c #E35F1F",
"^  c #7A2514",
"/  c #992008",
"(  c #EE9F79",
")  c #722516",
"_  c #D8511A",
"`  c #BCBCBB",
"'  c #B13710",
"]  c #DF5D1F",
"[  c #806C69",
"{  c #831C06",
"}  c #E4E3E3",
"|  c #E6E5E4",
" . c #CC3F12",
".. c #8D483B",
"X. c #A49D9B",
"o. c #F88F3E",
"O. c #F89E64",
"+. c #969695",
"@. c #B32F0D",
"#. c #827877",
"$. c #9D2B0C",
"%. c #919090",
"&. c #DCDCDB",
"*. c #7B200D",
"=. c #891C06",
"-. c #DE5D1F",
";. c #C0360F",
":. c gray93",
">. c #9A9998",
",. c #F2A179",
"<. c #791C09",
"1. c gray92",
"2. c #B79C97",
"3. c #EFEEEE",
"4. c #771708",
"5. c #761907",
"6. c gray90",
"7. c #961E07",
"8. c #8E2309",
"9. c #C33D12",
"0. c #7B3E32",
"q. c #DD4F19",
"w. c #881905",
"e. c #921F07",
"r. c #911D07",
"t. c #E1D6D3",
"y. c #A72C0C",
"u. c #741D0D",
"i. c #BBBBBA",
"p. c #FBE1D3",
"a. c #E1E0DF",
"s. c #8D463A",
"d. c #B8320E",
"f. c #7F1B06",
"g. c #BD330E",
"h. c #811B06",
"j. c #B5330E",
"k. c #CACAC9",
"l. c #CA4615",
"z. c #F6DBD1",
"x. c #C93F12",
"c. c #BB3A11",
"v. c #A9300D",
"b. c #F37427",
"n. c #F47A2A",
"m. c #C84515",
"M. c #EBEAE9",
"N. c #EAEAEA",
"B. c #E9E9E8",
"V. c #CAC9C9",
"C. c #858180",
"Z. c #A7746A",
"A. c #8B1D07",
"S. c #C5C4C3",
"D. c #9B9B9A",
"F. c #ADACAB",
"G. c #DA4C17",
"H. c #E2E2E2",
"J. c #8B4237",
"K. c #D64A17",
"L. c #7B5049",
"P. c #C3A39E",
"I. c #A12C0C",
"U. c #E25F29",
"Y. c #7D5751",
"T. c #B5B4B4",
"R. c #B23710",
"E. c #D9D8D7",
"W. c #951F07",
"Q. c #7D1A06",
"!. c #898989",
"~. c #F1F1F1",
"^. c #7E1705",
"/. c #791906",
"(. c #E0E0DF",
"). c #8A1D07",
"_. c #823323",
"`. c #831B06",
"'. c #959595",
"]. c #C54415",
"[. c #A0A0A0",
"{. c #8C2309",
"}. c #A7290B",
"|. c #B4B3B2",
" X c #761D0F",
".X c #858484",
"XX c #A5290B",
"oX c #C34415",
"OX c #F9CBB5",
"+X c #A2A1A1",
"@X c #77392F",
"#X c #EF7227",
"$X c #D2D1D0",
"%X c #866B68",
"&X c #873C30",
"*X c #A9A9A8",
"=X c #7F6A67",
"-X c #D65526",
";X c #D5D4D3",
":X c #7F1805",
">X c #F3F2F1",
",X c #CF4816",
"<X c #A62D0C",
"1X c #D5D5D5",
"2X c #CD4A17",
"3X c #F9B88D",
"4X c #A6A5A4",
"5X c #E6E6E5",
"6X c #DC8564",
"7X c #B2300D",
"8X c #A22B0B",
"9X c #7C5852",
"0X c #BD9792",
"qX c #E7E0DF",
"wX c #A1716A",
"eX c #CD4D18",
"rX c #FEEEE3",
"tX c #BABAB9",
"yX c #E4E3E2",
"uX c #989898",
"iX c #878786",
"pX c #F4F3F3",
"aX c #D1D1D0",
"sX c #FBD7C4",
"dX c #771E0D",
"fX c gray53",
"gX c #FBE0D2",
"hX c #96270A",
"jX c #F2F1F0",
"kX c #806F6D",
/* pixels */
"+ + + + + + + + + + + + + + + + + + + + + + + + + + ",
"X X X X X X X X X X X X X X X X X X X X X X X X X X ",
"o o o o o o o o o o o o o o o o o o o o o o o o o o ",
"O O O O O O O O O O O O O O O O O O O O O O O O O O ",
"@ @ @ @ @ @ @ @ @ @ @ @ @ k.v v aX@ @ @ @ @ @ @ @ @ ",
"# # # # # # # # # # $X4Xx 5 5 5 5 D.S.s # # # # # # ",
"% % % % % % % % % |..Xj j #.[ L iX>.F.I # % % % % % ",
". . . . . . . . *Xt t 9X) /.Q.5.0.W ` Q n M.. . . . ",
"              tX< < @Xf.f <Xv.I.8.dX2.s A y         ",
"            a.x < L.h.8Xc.l.2X].R.hX^ t.y 9 9       ",
"            m < C.u.R p N ~ V ] eX' {.Z.e e e y     ",
"            %.< T `.E ,XZ b.n.#X-.oX$._.jX2 2 9     ",
"          U < < Y.A.j.z.p.O.o.3X8 6XY <.>X1 w i     ",
"; ; ; ; ; &.g g P =.7X-XgX8 rX8 ( m.G *.pXz 1 2 ; ; ",
", , , , , h a a kX^.}.x.U.OXsX,._ p f ..B z 1 i , , ",
"- - - - - 5XfXu u ! e.@. .G.q.K.9.y.{ 0X1 1 w 3 - - ",
": : : : : : [.b b =X4.W.J g.;.d.XX).s.c w ~.2 l : : ",
"> > > > > > M 4 4 4 %X Xw.7./ r.:XH qX7 7 7 6 6.> > ",
"= = = = = = = +.q q u X.wXJ.&XC P.3 6 6 6 c - = = = ",
"* * * * * * * 1X!.q 4 uXD ;Xk 0 d ; 3 3 3.0 * * * * ",
"& & & & & & & & S '.t F m K (.B.N.1.r :.l H.& & & & ",
"$ $ $ $ $ $ $ $ $ } i.+XT.V.h 0 d r r k $ $ $ $ $ $ ",
". . . . . . . . . . . | E.n yX      . . . . . . . . ",
"                                                    ",
"                                                    "
};
