/* XPM */
static char *title_3_active[] = {
/* columns rows colors chars-per-pixel */
"11 25 18 1 ",
"  c #EDECEB",
". c #ECEBEA",
"X c #E2E1E1",
"o c #E8E7E6",
"O c #E6E6E6",
"+ c #ECECEB",
"@ c #DBDBDA",
"# c #CCCCCB",
"$ c #D4D3D3",
"% c #C4C4C3",
"& c #E2E1E0",
"* c #EAEAE9",
"= c #E8E8E7",
"- c #E3E3E2",
"; c #E4E4E4",
": c #E5E4E4",
"> c #E1E1E1",
", c #BCBCBC",
/* pixels */
",,,,,,,,,,,",
"%%%%%%%%%%%",
"###########",
"$$$$$$$$$$$",
"@@@@@@@@@@@",
"&&&&&&&&&&&",
"ooooooooooo",
"...........",
"           ",
"           ",
"           ",
"           ",
"           ",
"+++++++++++",
"***********",
"===========",
"OOOOOOOOOOO",
";;;;;;;;;;;",
"-----------",
"XXXXXXXXXXX",
">>>>>>>>>>>",
":::::::::::",
"...........",
"           ",
"           "
};
