/* XPM */
static char *top_right_inactive[] = {
/* columns rows colors chars-per-pixel */
"12 25 19 1 ",
"  c #BCBCBC",
". c #C4C4C3",
"X c #CCCCCB",
"o c #D4D3D3",
"O c #DBDBDA",
"+ c #E1E1E1",
"@ c #E2E1E0",
"# c #E2E1E1",
"$ c #E3E3E2",
"% c #E4E4E4",
"& c #E5E4E4",
"* c #E6E6E6",
"= c #E8E7E6",
"- c #E8E8E7",
"; c #EAEAE9",
": c #ECEBEA",
"> c #ECECEB",
", c #EDECEB",
"< c None",
/* pixels */
"          <<",
"...........<",
"XXXXXXXXXXXX",
"oooooooooooo",
"OOOOOOOOOOOO",
"@@@@@@@@@@@@",
"============",
"::::::::::::",
",,,,,,,,,,,,",
",,,,,,,,,,,,",
",,,,,,,,,,,,",
",,,,,,,,,,,,",
",,,,,,,,,,,,",
">>>>>>>>>>>,",
";;;;;;;;;;;;",
"------------",
"********=***",
"%%%%%%%%%%%%",
"@%$%$%@%$$$$",
"@@@@@@@@####",
"####++++####",
"%%%&%*%$&&%%",
"::::::>>::::",
",>,>>>>>,,,,",
",,,,,,,,,,,,"
};
