/* XPM */
static char *close_pressed[] = {
/* columns rows colors chars-per-pixel */
"26 25 251 2 ",
"   c #65696D",
".  c #76797C",
"X  c #E4E3E2",
"o  c #4C5055",
"O  c #565A5F",
"+  c #DEDEDD",
"@  c #7B7D80",
"#  c #D9D8D8",
"$  c #D3D2D2",
"%  c #7F8284",
"&  c #FEFEFC",
"*  c #848689",
"=  c #C7C6C6",
"-  c gray80",
";  c #898B8D",
":  c #C1C1C1",
">  c #8E8F91",
",  c #939496",
"<  c #98999A",
"1  c #9C9D9E",
"2  c #BBBCBC",
"3  c #B6B6B6",
"4  c #ABABAC",
"5  c #A6A6A7",
"6  c #A1A1A2",
"7  c #B0B1B1",
"8  c #515253",
"9  c #D4D3D3",
"0  c #D0CFCF",
"q  c #686868",
"w  c #535455",
"e  c #D7D6D6",
"r  c #6A6A6A",
"t  c gray84",
"y  c #AAA9A9",
"u  c #D2D1D1",
"i  c #656666",
"p  c gray39",
"a  c LightGray",
"s  c #5F5F5F",
"d  c gray38",
"f  c #D5D4D4",
"g  c gray83",
"h  c #6C6C6C",
"j  c #E6D9CE",
"k  c #E5D6CD",
"l  c #D6D5D5",
"z  c #575758",
"x  c #F5F0EC",
"c  c gray72",
"v  c #A32C0C",
"b  c #D1D0D0",
"n  c #848484",
"m  c #B9B8B9",
"M  c #555656",
"N  c #CDCDCD",
"B  c #727477",
"V  c #989798",
"C  c #757676",
"Z  c #C9AD9E",
"A  c #831B06",
"S  c #6B2D22",
"D  c #8D8C8C",
"F  c #C3C2C3",
"G  c #D5D5D5",
"H  c #737477",
"J  c #B1B0B1",
"K  c #D5D3D3",
"L  c #6B1E10",
"P  c #767575",
"I  c #646465",
"U  c #606162",
"Y  c #D4D2D2",
"T  c #565657",
"R  c #A62F0D",
"E  c #564E4D",
"W  c #777A7C",
"Q  c #731D07",
"!  c #65180B",
"~  c #624744",
"^  c #DAC6BD",
"/  c #9D9D9E",
"(  c #CEC6C5",
")  c #C3C2C2",
"_  c #B1AFAF",
"`  c #701504",
"'  c #C9C8C9",
"]  c #77372D",
"[  c #7F3428",
"{  c #8B250A",
"}  c #79382E",
"|  c #C4C3C4",
" . c #862009",
".. c #A89D9D",
"X. c #9C9C9D",
"o. c #A0786A",
"O. c #7C1705",
"+. c gray62",
"@. c #B2938A",
"#. c #737475",
"$. c #5F2F24",
"%. c #BBBABA",
"&. c #761906",
"*. c #C0C0C0",
"=. c #C2C0C0",
"-. c #791E0B",
";. c #C3C3C3",
":. c #737375",
">. c #8B472E",
",. c #89503C",
"<. c #967067",
"1. c #A9A9A9",
"2. c #7F4637",
"3. c #8B4940",
"4. c #992008",
"5. c #9E9FA0",
"6. c #7B2C1D",
"7. c #A9837D",
"8. c #5C5859",
"9. c #793929",
"0. c #9D2B0C",
"q. c #D1D2D2",
"w. c #61271E",
"e. c #833E31",
"r. c #CECECE",
"t. c #CCCBCB",
"y. c #929394",
"u. c #8F9193",
"i. c #92280B",
"p. c gray43",
"a. c #671809",
"s. c #7D1A06",
"d. c #D0D0D0",
"f. c #5A5B5B",
"g. c #7E7E7E",
"h. c #B38C7C",
"j. c #744436",
"k. c #BDBCBC",
"l. c gray77",
"z. c #CBCBCB",
"x. c #65403A",
"c. c #BFBEBF",
"v. c #818183",
"b. c #791B08",
"n. c #66433D",
"m. c #6A190A",
"M. c #D5D6D6",
"N. c #5D352F",
"B. c #7F270B",
"V. c #BEBEBF",
"C. c #854121",
"Z. c #81382E",
"A. c #818080",
"S. c #ADAEAE",
"D. c #BDBBBB",
"F. c #747474",
"G. c gray65",
"H. c #8C8D8F",
"J. c #A2A2A3",
"K. c #646466",
"L. c #DDCABE",
"P. c #8B1D07",
"I. c #59595A",
"U. c #594744",
"Y. c #9A9999",
"T. c #CDCBCB",
"R. c #943310",
"E. c #604D4B",
"W. c #905D53",
"Q. c #9D3912",
"!. c #EEE5DD",
"~. c #673C36",
"^. c #805046",
"/. c #979797",
"(. c #76787B",
"). c #898180",
"_. c #C7C5C5",
"`. c #7E1705",
"'. c #B94215",
"]. c #C0C0C1",
"[. c #8E3110",
"{. c #5F3B36",
"}. c gray75",
"|. c #626465",
" X c #7E2309",
".X c #655452",
"XX c #CACACA",
"oX c #ADABAB",
"OX c #902309",
"+X c #9FA0A0",
"@X c #891C06",
"#X c #86878A",
"$X c #C7C6C7",
"%X c #AEAFAF",
"&X c #874422",
"*X c #7A1E08",
"=X c gray82",
"-X c #7E8183",
";X c #905232",
":X c #CCCBCC",
">X c #AE8D89",
",X c #F6F1ED",
"<X c #8E8D8E",
"1X c #6B1E0F",
"2X c #8F5B4A",
"3X c #69504C",
"4X c #701805",
"5X c #706F6F",
"6X c #704036",
"7X c #872F0E",
"8X c #641504",
"9X c #7D1F08",
"0X c #C8C6C6",
"qX c #8E5D57",
"wX c #961E07",
"eX c #9C9B9B",
"rX c #C4A69B",
"tX c #A9A9AA",
"yX c #8A6F6B",
"uX c #C1C0C0",
"iX c #67686A",
"pX c gray",
"aX c #865548",
"sX c #BCBDBD",
"dX c #774436",
"fX c #9A3811",
"gX c #791906",
"hX c #6A6C6E",
"jX c #5D5D5E",
"kX c gray50",
"lX c #93290B",
"zX c #AB3B12",
"xX c #AFAFB0",
"cX c #A9300D",
"vX c #757778",
"bX c #5C1E14",
"nX c #855548",
"mX c #A62D0C",
"MX c #6F6E6E",
"NX c #808181",
"BX c #881B07",
"VX c #5B5B5C",
"CX c #716160",
"ZX c #535354",
"AX c #CAC9CA",
"SX c #CCAF9F",
"DX c #A8775F",
"FX c #B0320E",
"GX c #545556",
"HX c #8C5A4A",
"JX c #93543D",
/* pixels */
"o o o o o o o o o o o o o o o o o o o o o o o o o o ",
"O O O O O O O O O O O O O O O O O O O O O O O O O O ",
"                                                    ",
". . . . . . . . . . . . . . . . . . . . . . . . . . ",
"@ @ @ @ @ @ @ @ @ @ @ @ @ H B B (.@ @ @ @ @ @ @ @ @ ",
"% % % % % % % % % % W |.GX8 8 8 8 U vX-X% % % % % % ",
"* * * * * * * * * hXw w w E U.ZXT K.:.v.#X* * * * * ",
"; ; ; ; ; ; ; ; iXM M {.L gXs.&.S CXNX<XV u.; ; ; ; ",
"> > > > > > > #.z z w.4X .mXcXi.9Xm.yX+.G.1.y.> > > ",
", , , , , , H.f.I.N.$.nX2XR.Q.,.HXj.1X..xXJ tX, , , ",
"< < < < < < C VX8.a.dX& & DX;Xx & o.Q W.c c m 5.< < ",
"1 1 1 1 1 1 I jX~ A  Xh.& ,Xj & Z [.0.6.*.V.c.S.1 1 ",
"6 6 6 6 6 / s s x.P.FXfXSX& & j &X'.R b.$Xl.| m 6 6 ",
"5 5 5 5 5 X.d d n.@Xv 7Xk & & !.C.zXv -.:XAX' ].5 5 ",
"4 4 4 4 4 J.p p .X`.*XrX& k L.& ^ B.OXe.d.r.N F 4 4 ",
"7 7 7 7 7 %Xq i i bX<.& & JX>.x & @.8X7.a q.b ;.7 7 ",
"3 3 3 3 3 3 kXq q E.~.^.2.{ lX9.aX6X] K f g 9 }.3 3 ",
"2 2 2 2 2 2 +Xr r r 3X! O.wX4.BX` } ( t t M.a sX2 2 ",
": : : : : : : g.h h p.).qXZ.[ 3.>X=Xg G t e XX: : : ",
"= = = = = = = %.P MX5XA.Y._ =._.t.0 9 l e u = = = = ",
"- - - - - - - - pXn F.n /.y k.= z.0 Y l 9 N - - - - ",
"$ $ $ $ $ $ $ $ $ u y D eXoXD.0XT.b 9 f $ $ $ $ $ $ ",
"# # # # # # # # # # # $ ) uX= 0 $ e # # # # # # # # ",
"+ + + + + + + + + + + + + + + + + + + + + + + + + + ",
"X X X X X X X X X X X X X X X X X X X X X X X X X X "
};
