/* XPM */
static char *close_inactive[] = {
/* columns rows colors chars-per-pixel */
"26 25 256 2 ",
"   c #CDCBCB",
".  c #727477",
"X  c #BE957A",
"o  c #B98E81",
"O  c #B98C77",
"+  c #9F807A",
"@  c #46251E",
"#  c #765048",
"$  c #6F6E6E",
"%  c #4C5055",
"&  c #E4E3E2",
"*  c #76797C",
"=  c #565A5F",
"-  c #DEDEDD",
";  c #65696D",
":  c #7B7D80",
">  c #D9D8D8",
",  c #D3D2D2",
"<  c #7F8284",
"1  c #848689",
"2  c #C7C6C6",
"3  c #898B8D",
"4  c gray80",
"5  c #C1C1C1",
"6  c #8E8F91",
"7  c #939496",
"8  c #BBBCBC",
"9  c #9C9D9E",
"0  c #98999A",
"q  c #B6B6B6",
"w  c #A1A1A2",
"e  c #B0B1B1",
"r  c #A6A6A7",
"t  c #ABABAC",
"y  c #515253",
"u  c #D4D3D3",
"i  c gray84",
"p  c #535455",
"a  c #686868",
"s  c #6A6A6A",
"d  c #D0CFCF",
"f  c #D7D6D6",
"g  c #D6D5D5",
"h  c #D2D1D1",
"j  c #848484",
"k  c #555656",
"l  c LightGray",
"z  c gray38",
"x  c #656666",
"c  c #5F5F5F",
"v  c gray72",
"b  c #CDCDCD",
"n  c gray39",
"m  c #6C6C6C",
"M  c #D5D4D4",
"N  c #D1D0D0",
"B  c #B9B8B9",
"V  c #AAA9A9",
"C  c #BD947A",
"Z  c #575758",
"A  c gray83",
"S  c #9E7262",
"D  c #B58675",
"F  c #AEAFAF",
"G  c #D1D2D2",
"H  c #8D6962",
"J  c #7E544B",
"K  c #777A7C",
"L  c #9A817E",
"P  c #5B5B5C",
"I  c #BE9379",
"U  c gray65",
"Y  c #545556",
"T  c #ADAEAE",
"R  c #BA8E78",
"E  c #B58574",
"W  c #C3C2C3",
"Q  c #BB907B",
"!  c #B68B76",
"~  c #8D8C8C",
"^  c #C1C0C0",
"/  c #90685E",
"(  c #B38576",
")  c #845B53",
"_  c #6E6969",
"`  c #86878A",
"'  c #BFBEBF",
"]  c #979797",
"[  c #B1B0B1",
"{  c #9A9999",
"}  c #514F4F",
"|  c #9C9C9D",
" . c #B78875",
".. c #B68877",
"X. c #A88F8C",
"o. c #59595A",
"O. c #76787B",
"+. c #B4897E",
"@. c #CAC9CA",
"#. c #C4C3C4",
"$. c #C7C6C7",
"%. c #BC8E7F",
"&. c #5D5D5E",
"*. c #ADABAB",
"=. c #706F6F",
"-. c #A9928E",
";. c #432A25",
":. c #492720",
">. c #8E8D8E",
",. c #69433A",
"<. c #BEBEBF",
"1. c #D4D2D2",
"2. c #A87F72",
"3. c #757676",
"4. c #646465",
"5. c #646466",
"6. c #A9A9A9",
"7. c #BA8D77",
"8. c #BD9279",
"9. c #7F594F",
"0. c #BC8E78",
"q. c #BDBCBC",
"w. c #573D39",
"e. c #5A5B5B",
"r. c #7C5A53",
"t. c #A07971",
"y. c #808181",
"u. c #7E7E7E",
"i. c gray50",
"p. c #929394",
"a. c #CCCBCC",
"s. c #6A6C6E",
"d. c #B0816F",
"f. c #525354",
"g. c #AD8175",
"h. c #A77B70",
"j. c #69605F",
"k. c #724A3F",
"l. c #9D7368",
"z. c #67686A",
"x. c #916658",
"c. c #B28374",
"v. c #AA9996",
"b. c #B08571",
"n. c #9E9FA0",
"m. c #7E5750",
"M. c #737375",
"N. c #643E35",
"B. c #757778",
"V. c #D5D6D6",
"C. c #524644",
"Z. c #544947",
"A. c #C0C0C0",
"S. c #C0C0C1",
"D. c #8F9193",
"F. c #A37568",
"G. c #A57A68",
"H. c #997166",
"J. c #704E47",
"K. c #91685B",
"L. c #9C9B9B",
"P. c #8A625B",
"I. c #89645C",
"U. c #8C6359",
"Y. c #CECECE",
"T. c #8E675E",
"R. c gray62",
"E. c #B48874",
"W. c #AFAFB0",
"Q. c #BD907E",
"!. c #B68A75",
"~. c #A48A85",
"^. c gray77",
"/. c #AF8270",
"(. c #989798",
"). c #AF8575",
"_. c #7F615C",
"`. c #785A55",
"'. c #7C5C57",
"]. c #C9C8C9",
"[. c #BDBBBB",
"{. c #968583",
"}. c #9D8380",
"|. c #B3887B",
" X c #B58A79",
".X c #C8C6C6",
"XX c #7E8183",
"oX c #4D4140",
"OX c #4F4949",
"+X c #C2C0C0",
"@X c #483431",
"#X c #987B75",
"$X c #BEB2B1",
"%X c #888484",
"&X c #8E8584",
"*X c #5D5757",
"=X c #ACA8A8",
"-X c #A2A2A3",
";X c #A8908C",
":X c #BF997C",
">X c #A8918F",
",X c #D2CFCF",
"<X c #432721",
"1X c #B1AFAF",
"2X c #482822",
"3X c #4D403E",
"4X c #8C8D8F",
"5X c #55322B",
"6X c #B78C80",
"7X c #D0D0D0",
"8X c #D5D5D5",
"9X c gray82",
"0X c gray",
"qX c #9FA0A0",
"wX c gray75",
"eX c #896760",
"rX c #A57F77",
"tX c #818183",
"yX c #9E7062",
"uX c #B1877E",
"iX c #747474",
"pX c #767575",
"aX c #554C4B",
"sX c #C0B4B2",
"dX c #9D7971",
"fX c #BB9178",
"gX c #737475",
"hX c #C7C5C5",
"jX c #A9A9AA",
"kX c #9D9D9E",
"lX c #626465",
"zX c #B98B7A",
"xX c #C3C2C2",
"cX c #B88C7C",
"vX c #C3C3C3",
"bX c #BD937A",
"nX c #95685C",
"mX c #966B5C",
"MX c #CACACA",
"NX c #606162",
"BX c #CBCBCB",
"VX c #BC8F7A",
"CX c #BCBDBD",
"ZX c #565657",
"AX c #533F3B",
"SX c #BBBABA",
"DX c #5A595A",
"FX c #5F5958",
"GX c #7F5A53",
"HX c #6C453A",
"JX c #A07B71",
"KX c #BB8F79",
"LX c #43241D",
"PX c #818080",
"IX c #9F7363",
"UX c #A87A6E",
/* pixels */
"% % % % % % % % % % % % % % % % % % % % % % % % % % ",
"= = = = = = = = = = = = = = = = = = = = = = = = = = ",
"; ; ; ; ; ; ; ; ; ; ; ; ; ; ; ; ; ; ; ; ; ; ; ; ; ; ",
"* * * * * * * * * * * * * * * * * * * * * * * * * * ",
": : : : : : : : : : : : : . . . O.: : : : : : : : : ",
"< < < < < < < < < < K lXY y y y y NXB.XX< < < < < < ",
"1 1 1 1 1 1 1 1 1 s.p p p } OXf.ZX5.M.tX` 1 1 1 1 1 ",
"3 3 3 3 3 3 3 3 z.k k oX;.LX@ 2XAX_ y.>.(.D.3 3 3 3 ",
"6 6 6 6 6 6 6 gXZ Z @X@ N.U.l.H.I.`.&XR.U 6.p.6 6 6 ",
"7 7 7 7 7 7 4Xe.o.3X:./ |.cX X).2.JX#X=XW.[ jX7 7 7 ",
"0 0 0 0 0 0 3.P DX<XT.o Q.Q R E.G.K.dXv.v v B n.0 0 ",
"9 9 9 9 9 9 4.&.aX5X+.%.VXbXC fXb.mX9.~.A.<.' T 9 9 ",
"w w w w w kXc c C.# o zXKXC :XC ! IXk.+ $.^.#.B w w ",
"r r r r r | z z Z.GX6X..O I X 8.!.S HX+ a.@.].S.r r ",
"t t t t t -Xn n *XJ.uX(  .7.0.O /.x.,.-.7XY.b W t t ",
"e e e e e F a x x w.rXg.c.D E d.yX# r.sXl G N vXe e ",
"q q q q q q i.a a FX'.t.h.UXF.nXJ # X.g M A u wXq q ",
"8 8 8 8 8 8 qXs s s j._.H P.) m.eX;X,Xi i V.l CX8 8 ",
"5 5 5 5 5 5 5 u.m m $ %X{.L }.>X$X9XA 8Xi f MX5 5 5 ",
"2 2 2 2 2 2 2 SXpX$ =.PX{ 1X+XhXa.d u g f h 2 2 2 2 ",
"4 4 4 4 4 4 4 4 0Xj iXj ] V q.2 BXd 1.g u b 4 4 4 4 ",
", , , , , , , , , h V ~ L.*.[..X  N u M , , , , , , ",
"> > > > > > > > > > > , xX^ 2 d , f > > > > > > > > ",
"- - - - - - - - - - - - - - - - - - - - - - - - - - ",
"& & & & & & & & & & & & & & & & & & & & & & & & & & "
};
