/* XPM */
static char *close_prelight[] = {
/* columns rows colors chars-per-pixel */
"26 25 256 2 ",
"   c #260101",
".  c #76797C",
"X  c #565A5F",
"o  c #65696D",
"O  c #E4E3E2",
"+  c #4C5055",
"@  c #DEDEDD",
"#  c #7B7D80",
"$  c #D9D8D8",
"%  c #D3D2D2",
"&  c #7F8284",
"*  c #848689",
"=  c #C7C6C6",
"-  c #898B8D",
";  c gray80",
":  c #8E8F91",
">  c #C1C1C1",
",  c #939496",
"<  c #98999A",
"1  c #9C9D9E",
"2  c #BBBCBC",
"3  c #B6B6B6",
"4  c #B0B1B1",
"5  c #ABABAC",
"6  c #A6A6A7",
"7  c #A1A1A2",
"8  c #515253",
"9  c #420101",
"0  c #D4D3D3",
"q  c #D0CFCF",
"w  c gray84",
"e  c #686868",
"r  c #D7D6D6",
"t  c #535455",
"y  c #290101",
"u  c #6A6A6A",
"i  c #555656",
"p  c gray38",
"a  c gray72",
"s  c #CDCDCD",
"d  c gray39",
"f  c #848484",
"g  c #B9B8B9",
"h  c #D6D5D5",
"j  c #AAA9A9",
"k  c #340101",
"l  c #575758",
"z  c LightGray",
"x  c #AE8787",
"c  c #452020",
"v  c gray83",
"b  c #D5D4D4",
"n  c #D2D1D1",
"m  c #D1D0D0",
"M  c #656666",
"N  c #5F5F5F",
"B  c #727477",
"V  c #2F0101",
"C  c #6C6C6C",
"Z  c #B29494",
"A  c #310101",
"S  c #B1AFAF",
"D  c #400101",
"F  c #300101",
"G  c #440101",
"H  c #C19F9F",
"J  c #D5D6D6",
"K  c #C4C3C4",
"L  c #565252",
"P  c #929394",
"I  c #331515",
"U  c #453939",
"Y  c #B59999",
"T  c #3F0201",
"R  c #260605",
"E  c #BE9E9E",
"W  c #A88080",
"Q  c #490606",
"!  c #67686A",
"~  c #3F0101",
"^  c #885E5D",
"/  c #646466",
"(  c #818080",
")  c #3A1918",
"_  c #8C8D8F",
"`  c #A09C9C",
"'  c gray77",
"]  c #CAC9CA",
"[  c #86878A",
"{  c #403535",
"}  c #2A1514",
"|  c #533F3F",
" . c #37201F",
".. c #746A6A",
"X. c #4B4343",
"o. c #565657",
"O. c #512A2A",
"+. c #D0D0D0",
"@. c gray",
"#. c gray75",
"$. c #500606",
"%. c #4A2020",
"&. c #C2C0C0",
"*. c #757778",
"=. c #473D3C",
"-. c #A9A9AA",
";. c #5B5B5C",
":. c #C3C3C3",
">. c #492F2E",
",. c #BCBDBD",
"<. c #545556",
"1. c #582323",
"2. c #ADAEAE",
"3. c #C8C6C6",
"4. c #525354",
"5. c #7E7E7E",
"6. c #442D2C",
"7. c #C9AFAF",
"8. c #582B2A",
"9. c #BA9A9A",
"0. c #280201",
"q. c #581C1C",
"w. c #6F6E6E",
"e. c #3C0101",
"r. c #A07777",
"t. c #4E0808",
"y. c #9D9D9E",
"u. c #480606",
"i. c #280101",
"p. c #2B0302",
"a. c #9C9B9B",
"s. c #BDBBBB",
"d. c #250A09",
"f. c #2D0807",
"g. c #737375",
"h. c #6A3F3F",
"j. c #D5D5D5",
"k. c #635F5F",
"l. c #C0C0C0",
"z. c #C0C0C1",
"x. c #C1C0C0",
"c. c #C9ABAB",
"v. c #3E2020",
"b. c #754343",
"n. c #4E4C4D",
"m. c #9C9C9D",
"M. c gray62",
"N. c #76787B",
"B. c #C0A2A2",
"V. c #C4A3A3",
"C. c #C5A4A4",
"Z. c #7C4C4C",
"A. c #CBB5B5",
"S. c #BBBABA",
"D. c #C9C8C9",
"F. c #B69292",
"G. c #9A9999",
"H. c #B99999",
"J. c #B99A9A",
"K. c #BB9999",
"L. c #7E8183",
"P. c #979797",
"I. c #818183",
"U. c #838080",
"Y. c #706F6F",
"T. c #777A7C",
"R. c #606162",
"E. c #5A5B5B",
"W. c #AFAFB0",
"Q. c #471615",
"!. c #D4D2D2",
"~. c #D4D3D2",
"^. c #CCCBCB",
"/. c #A2A2A3",
"(. c #8D8C8C",
"). c #989798",
"_. c #8E8D8E",
"`. c #B1B0B1",
"'. c #382221",
"]. c #928888",
"[. c #3F2726",
"{. c #D1D2D2",
"}. c #946969",
"|. c #626465",
" X c #976C6C",
".X c #897D7C",
"XX c #BFBEBF",
"oX c #311D1D",
"OX c #655251",
"+X c #645656",
"@X c #2A0505",
"#X c #CCCBCC",
"$X c #5B3E3E",
"%X c #747474",
"&X c #757676",
"*X c #767575",
"=X c #646465",
"-X c #8F9193",
";X c #737475",
":X c #765252",
">X c #A9A9A9",
",X c #C7C5C5",
"<X c gray65",
"1X c #595859",
"2X c #59595A",
"3X c #5D5D5E",
"4X c #C3C2C2",
"5X c #9FA0A0",
"6X c #C3C2C3",
"7X c #CACACA",
"8X c #4A2A2A",
"9X c #BEBEBF",
"0X c #BDBCBC",
"qX c #534E4E",
"wX c #574F4F",
"eX c #6A6C6E",
"rX c #3F2E2E",
"tX c #5E2424",
"yX c #480101",
"uX c #AEAFAF",
"iX c #C8C5C5",
"pX c #808181",
"aX c #390101",
"sX c #CBCBCB",
"dX c #484344",
"fX c gray50",
"gX c #CDCBCB",
"hX c #452F2F",
"jX c #550909",
"kX c #CAAFAF",
"lX c #BF9E9E",
"zX c #562020",
"xX c #737477",
"cX c #BB9A9A",
"vX c #C7ABAB",
"bX c #CECECE",
"nX c gray82",
"mX c #2B0101",
"MX c #551C1C",
"NX c #ADABAB",
"BX c gray43",
"VX c #2A0D0C",
"CX c #2D0A09",
"ZX c #C7C6C7",
"AX c #4B0606",
"SX c #370101",
"DX c #2C0101",
"FX c #5B2B2A",
"GX c #522A2A",
"HX c #320101",
"JX c #4F0808",
"KX c #5F2A2A",
"LX c #350101",
"PX c #2E0101",
"IX c #3E0101",
"UX c #9E9FA0",
/* pixels */
"+ + + + + + + + + + + + + + + + + + + + + + + + + + ",
"X X X X X X X X X X X X X X X X X X X X X X X X X X ",
"o o o o o o o o o o o o o o o o o o o o o o o o o o ",
". . . . . . . . . . . . . . . . . . . . . . . . . . ",
"# # # # # # # # # # # # # xXB B N.# # # # # # # # # ",
"& & & & & & & & & & T.|.<.8 8 8 8 R.*.L.& & & & & & ",
"* * * * * * * * * eXt t t n.dX4.o./ g.I.[ * * * * * ",
"- - - - - - - - ! i i { VXy mX0. .k.pX_.).-X- - - - ",
": : : : : : : ;Xl l oXy LX9 G e.A @X..M.<X>XP : : : ",
", , , , , , _ E.2XrXI GXFXAXt.1.8.c CX` W.`.-., , , ",
"< < < < < < &X;.1XR c J.lXb.KXK.E h.V OXa a g UX< < ",
"1 1 1 1 1 1 =X3XX.DXaXZ.V.B.Z vX}.u.IX) l.9XXX2.1 1 ",
"7 7 7 7 7 y.N N U F yXJX X7.A.Z zXjX9 p.ZX' K g 7 7 ",
"6 6 6 6 6 m.p p =.PX9 Q x c.kXH.MX$.D f.#X] D.z.6 6 ",
"5 5 5 5 5 /.d d L i.k ^ H x W C.r.T SX>.+.bXs 6X5 5 ",
"4 4 4 4 4 uXe M M } $XY cXtXq.F.9.:X  .Xz {.m :.4 4 ",
"3 3 3 3 3 3 fXe e qX'.8X%.~ 9 Q.O.v.6.~.b v 0 #.3 3 ",
"2 2 2 2 2 2 5Xu u u wXd.y HXk V   hXiXw w J z ,.2 2 ",
"> > > > > > > 5.C C BXU.+X6.[.| ].nXv j.w r 7X> > > ",
"= = = = = = = S.*Xw.Y.( G.S &.,X^.q 0 h r n = = = = ",
"; ; ; ; ; ; ; ; @.f %Xf P.j 0X= sXq !.h 0 s ; ; ; ; ",
"% % % % % % % % % n j (.a.NXs.3.gXm 0 b % % % % % % ",
"$ $ $ $ $ $ $ $ $ $ $ % 4Xx.= q % r $ $ $ $ $ $ $ $ ",
"@ @ @ @ @ @ @ @ @ @ @ @ @ @ @ @ @ @ @ @ @ @ @ @ @ @ ",
"O O O O O O O O O O O O O O O O O O O O O O O O O O "
};
