/* XPM */
static char *close_active[] = {
/* columns rows colors chars-per-pixel */
"26 25 114 2 ",
"   c #450606",
".  c #4D0202",
"X  c #440B0B",
"o  c #4F0A0A",
"O  c #530201",
"+  c #5D0201",
"@  c #530808",
"#  c #401515",
"$  c #471D1E",
"%  c #511615",
"&  c #5A1919",
"*  c #630201",
"=  c #6A0201",
"-  c #720101",
";  c #7C0202",
":  c #781616",
">  c #4E2121",
",  c #4A2F2F",
"<  c #562727",
"1  c #5D2020",
"2  c #5A2E2E",
"3  c #4C3535",
"4  c #513B3B",
"5  c #6C2020",
"6  c #632F2F",
"7  c #6A2A2A",
"8  c #752020",
"9  c #782A2A",
"0  c #663F3F",
"q  c #793F3E",
"w  c #4E4344",
"e  c #534344",
"r  c #514C4D",
"t  c #5B4F4F",
"y  c #4C5055",
"u  c #535455",
"i  c #5B5252",
"p  c #575758",
"a  c #565A5F",
"s  c #5C5C5C",
"d  c #695F5F",
"f  c #725656",
"g  c #785252",
"h  c #636364",
"j  c #65696D",
"k  c #6B6B6B",
"l  c #706F6F",
"z  c #7D6A6A",
"x  c #747476",
"c  c #757778",
"v  c #76797C",
"b  c #7F7F7F",
"n  c #840201",
"m  c #8F0201",
"M  c #8F0C0C",
"N  c #930C0C",
"B  c #9D1210",
"V  c #A00E0E",
"C  c #AB1312",
"Z  c #8B2C2C",
"A  c #9C2323",
"S  c #912828",
"D  c #9D2929",
"F  c #A02E2D",
"G  c #A43535",
"H  c #AA3F3F",
"J  c #96403F",
"K  c #995252",
"L  c #B35151",
"P  c #B55F5E",
"I  c #957D7D",
"U  c #CB7776",
"Y  c #D17D7D",
"T  c #7B7D80",
"R  c #7F8284",
"E  c #828282",
"W  c #848689",
"Q  c #8A8B8D",
"!  c #9B8888",
"~  c #8E8F91",
"^  c #8F9193",
"/  c #939496",
"(  c #989798",
")  c #9B9B9C",
"_  c #A39C9D",
"`  c #9E9FA0",
"'  c #9FA0A0",
"]  c #A4A4A4",
"[  c #ABABAC",
"{  c #B1AFAF",
"}  c #AFAFB0",
"|  c #B3B3B4",
" . c #BBBCBC",
".. c #DF8F8F",
"X. c #DE9696",
"o. c #D19A99",
"O. c #DA9B9B",
"+. c #E19393",
"@. c #E5A3A3",
"#. c #EAA4A3",
"$. c #ECAEAD",
"%. c #F1AEAE",
"&. c #F2B5B5",
"*. c #F6BDBD",
"=. c #F8BEBE",
"-. c #C4C3C3",
";. c #C9C6C6",
":. c #CCCCCC",
">. c #D0CFCF",
",. c #D4D3D3",
"<. c #DCDBDB",
"1. c #F9C6C5",
"2. c #FDD1D1",
"3. c #E4E3E2",
/* pixels */
"y y y y y y y y y y y y y y y y y y y y y y y y y y ",
"a a a a a a a a a a a a a a a a a a a a a a a a a a ",
"j j j j j j j j j j j j j j j j j j j j j j j j j j ",
"v v v v v v v v v v v v v v v v v v v v v v v v v v ",
"T T T T T T T T T T T T T x x x v T T T T T T T T T ",
"R R R R R R R R R R v h u y u y r h x R R R R R R R ",
"W W W W W W W W W k u u u r w u p h x E W W W W W W ",
"Q Q Q Q Q Q Q Q j p p 3 X O O . > d R ~ ( ~ Q Q Q Q ",
"~ ~ ~ ~ ~ ~ ~ x p p $ . = n n ; + . z ) [ [ ^ ~ ^ ^ ",
"/ / / / / / Q s p , % 9 Z N B S Z 5 o _ } } [ / / / ",
") ( ) ( ( ( x s p   5 O.@.L H @.@.J + g |  .| ` ) ( ",
") ) ) ` ) ` h s e + - L %.&.$.*.U M ; & -. .-.[ ) ) ",
"' ' ] ' ] ) h h 4 + m B Y 1.2.$.G C n O ;.-.-. .' ' ",
"[ ] ] [ ] ) h s 4 + n N +.=.1.$.D V n @ :.;.:. .[ ] ",
"[ [ [ [ [ ] h h i . = P #.+...%...- - 6 >.>.:.-.[ [ ",
"| } | } { [ k k h # q o.O.D A X.O.K . E ,.>.,.-.} | ",
"| | | |  .| R j k t > 7 8 ; n : 9 1 2 ,.,.,.,. .| | ",
" . . . . . .' j k k t   . * = + . 2 ;.<.,.<.,. . . .",
"-.-.-.-.-.-.-.b k k l E f 2 < 0 ! >.,.,.<.,.:.-.-.-.",
";.;.-.-.-.-.-. .x l l b ) { -.-.:.>.,.,.,.,.-.;.-.;.",
":.>.:.:.:.>.:.:.-.E x E / [  .;.:.>.,.,.,.:.:.:.:.:.",
",.>.,.>.>.>.>.,.,.>.[ Q ) }  .;.:.>.,.,.,.,.,.,.>.,.",
"<.,.<.<.<.<.<.<.<.<.<.,.-.-.;.>.,.,.<.<.,.<.<.,.<.<.",
"3.<.<.<.<.<.<.<.<.<.<.<.<.<.<.<.3.<.<.<.3.<.3.<.<.<.",
"3.3.3.3.3.3.3.3.3.3.3.3.3.3.3.3.3.3.3.3.3.3.3.3.3.3."
};
