/* XPM */
static char *hide_inactive[] = {
/* columns rows colors chars-per-pixel */
"27 25 256 2 ",
"   c #2E323F",
".  c #6F7283",
"X  c #6F6E6E",
"o  c #444651",
"O  c #43454C",
"+  c #76797C",
"@  c #65696D",
"#  c #4C5055",
"$  c #DEDEDD",
"%  c #E4E3E2",
"&  c #565A5F",
"*  c #7B7D80",
"=  c #D9D8D8",
"-  c #D3D2D2",
";  c #7F8284",
":  c #848689",
">  c #C7C6C6",
",  c gray80",
"<  c #898B8D",
"1  c #C1C1C1",
"2  c #8E8F91",
"3  c #939496",
"4  c #98999A",
"5  c #9C9D9E",
"6  c #BBBCBC",
"7  c #B6B6B6",
"8  c #ABABAC",
"9  c #A6A6A7",
"0  c #A1A1A2",
"q  c #B0B1B1",
"w  c #D4D3D3",
"e  c #515253",
"r  c #686868",
"t  c #D7D6D6",
"y  c #535455",
"u  c #6A6A6A",
"i  c #D0CFCF",
"p  c gray84",
"a  c #A5AABC",
"s  c #9DA2B6",
"d  c #989DB1",
"f  c #575758",
"g  c #5F5F5F",
"h  c gray83",
"j  c #D5D4D4",
"k  c gray39",
"l  c #D2D1D1",
"z  c #CDCDCD",
"x  c #656666",
"c  c #A6AABD",
"v  c #AAA9A9",
"b  c #555656",
"n  c #727477",
"m  c #D5D5D5",
"M  c gray38",
"N  c #6C6C6C",
"B  c #D1D0D0",
"V  c #9FA4B9",
"C  c #848484",
"Z  c gray72",
"A  c LightGray",
"S  c #B9B8B9",
"D  c #D6D5D5",
"F  c #2E3241",
"G  c #2D3040",
"H  c #959AB0",
"J  c #C7C6C7",
"K  c #6A6C6E",
"L  c #D4D2D2",
"P  c #646465",
"I  c #5B6073",
"U  c #9A9FB4",
"Y  c #545556",
"T  c #595A5B",
"R  c #959AAF",
"E  c #5B5E6F",
"W  c #6F7386",
"Q  c #86878A",
"!  c #8F9193",
"~  c #CCCBCB",
"^  c #4E5263",
"/  c #82869C",
"(  c #BDBBBB",
")  c #87878C",
"_  c #4E5052",
"`  c #979797",
"'  c #D1D2D2",
"]  c #4A4C4F",
"[  c #898A91",
"{  c #9CA1B6",
"}  c #A1A6B9",
"|  c #767575",
" . c #505466",
".. c #9BA0B3",
"X. c #9196AB",
"o. c gray82",
"O. c #C2C0C0",
"+. c #4B4D53",
"@. c #8B90A2",
"#. c #838799",
"$. c #8D8C8C",
"%. c #8E8D8E",
"&. c #5B5B5C",
"*. c gray",
"=. c #BFBEBF",
"-. c #75798C",
";. c #747474",
":. c #66697D",
">. c gray65",
",. c #9FA0A0",
"<. c #59595C",
"1. c #6D7183",
"2. c #C3C2C3",
"3. c #565657",
"4. c #CACACA",
"5. c #888B99",
"6. c #BDBCBC",
"7. c #9A9FB3",
"8. c #9296AB",
"9. c #ADAEAE",
"0. c #73778A",
"q. c #59595A",
"w. c #808181",
"e. c #7E7E7E",
"r. c #2B2F3E",
"t. c #959AAE",
"y. c #898CA1",
"u. c #9297AB",
"i. c #BEBEBF",
"p. c #9697A2",
"a. c #9C9B9B",
"s. c #C8C6C6",
"d. c #67686A",
"f. c gray77",
"g. c #989DB3",
"h. c #686B79",
"j. c #989798",
"k. c #C1C0C0",
"l. c #8A8C98",
"z. c #898D9F",
"x. c #737375",
"c. c #C0C0C0",
"v. c #C0C0C1",
"b. c #B6B6BB",
"n. c #303342",
"m. c #B1AFAF",
"M. c #3B3E4F",
"N. c #9C9C9D",
"B. c #6A6B6E",
"V. c gray62",
"C. c #76787B",
"Z. c #818183",
"A. c #C9C8C9",
"S. c #C7C5C5",
"D. c #9398AD",
"F. c #888995",
"G. c #9E9FA0",
"H. c #9E9FA7",
"J. c #636573",
"K. c #91939F",
"L. c #646676",
"P. c #A9AEBF",
"I. c #AAA9AC",
"U. c #808396",
"Y. c #838592",
"T. c #838696",
"R. c #C4C3C4",
"E. c #525354",
"W. c #CCCBCC",
"Q. c #9A9999",
"!. c #9095AA",
"~. c #7E8183",
"^. c #ADABAB",
"/. c #727587",
"(. c #606162",
"). c #636676",
"_. c #737477",
"`. c #D0D0D0",
"'. c #D0D0D1",
"]. c #706F6F",
"[. c #9698A3",
"{. c #A2A2A3",
"}. c #494A50",
"|. c #4E4F54",
" X c #878B9F",
".X c #8E91A6",
"XX c #BBBABA",
"oX c #B1B0B1",
"OX c #808598",
"+X c #82869A",
"@X c #7E8397",
"#X c #CAC9CA",
"$X c #8C8D8F",
"%X c #73788B",
"&X c #9FA5B8",
"*X c #AFAFB0",
"=X c #979AA5",
"-X c #D5D6D6",
";X c gray75",
":X c #959AAD",
">X c #A3A8BC",
",X c #969AAD",
"<X c #9FA4B8",
"1X c #494D5E",
"2X c #9FA5B9",
"3X c #868586",
"4X c #797D90",
"5X c #757778",
"6X c #86899A",
"7X c #757676",
"8X c #646879",
"9X c #9FA3B7",
"0X c #646466",
"qX c #606477",
"wX c #626577",
"eX c #777A7C",
"rX c #9D9D9E",
"tX c #737475",
"yX c #A9A9A9",
"uX c #626367",
"iX c #A9A9AA",
"pX c #626465",
"aX c #5A5B5E",
"sX c #5D5D5E",
"dX c #C3C2C2",
"fX c #383B44",
"gX c #C3C3C3",
"hX c #2F3344",
"jX c #979BB0",
"kX c #CBCBCB",
"lX c #BCBDBD",
"zX c #7D8093",
"xX c #646778",
"cX c #9A9EB2",
"vX c #9A9FB2",
"bX c #CECECE",
"nX c #989CB0",
"mX c #929394",
"MX c #9397AB",
"NX c #AEAFAF",
"BX c #727688",
"VX c #565969",
"CX c #55596C",
"ZX c #5A5B5B",
"AX c #757A8E",
"SX c #818080",
"DX c #9799A3",
"FX c gray50",
"GX c #CDCBCB",
"HX c #A2A8BB",
"JX c #A3A8BB",
"KX c #9BA0B4",
"LX c #888CA1",
"PX c #888A99",
"IX c #5A5D6F",
"UX c #B7B8BE",
/* pixels */
"# # # # # # # # # # # # # # # # # # # # # # # # # # # ",
"& & & & & & & & & & & & & & & & & & & & & & & & & & & ",
"@ @ @ @ @ @ @ @ @ @ @ @ @ @ @ @ @ @ @ @ @ @ @ @ @ @ @ ",
"+ + + + + + + + + + + + + + + + + + + + + + + + + + + ",
"* * * * * * * * * * * * * * _.n n C.* * * * * * * * * ",
"; ; ; ; ; ; ; ; ; ; ; eXpXY e e e e (.5X~.; ; ; ; ; ; ",
": : : : : : : : : : K y y y _ ] E.3.0Xx.Z.Q : : : : : ",
"< < < < < < < < < d.b b O   r.F n.o B.w.%.j.! < < < < ",
"2 2 2 2 2 2 2 2 tXf f fXG 1XW U.zX. J.) V.>.yXmX2 2 2 ",
"3 3 3 3 3 3 3 $XZXq.O hX0.:XvXd u.@.6XY.I.*XoXiX3 3 3 ",
"4 4 4 4 4 4 4 7X&.T   BXKXV 2X9Xd y.-.T.H.Z Z S G.4 4 ",
"5 5 5 5 5 5 5 P sX|.M.,Xs V JXa } t.4X8XK.c.i.=.9.5 5 ",
"0 0 0 0 0 0 rXg g }.IXcXU &Xc P.a ..+XCXPXJ f.R.S 0 0 ",
"9 9 9 9 9 9 N.M M +.xXnXjXs >Xc HX7.OX .5.W.#XA.v.9 9 ",
"8 8 8 8 8 8 {.k k <.VXMXD.g.s <X{ 8.%X^ =X`.bXz 2.8 8 ",
"q q q q q q NXr x x o z..XX.R H !.@XI ).UXA ' B gXq q ",
"7 7 7 7 7 7 7 FXr r aXL.#. XLX/ AXqXE p.m j h w ;X7 7 ",
"6 6 6 6 6 6 6 ,.u u u uXh./.1.:.wX. [.'.p p -XA lX6 6 ",
"1 1 1 1 1 1 1 1 e.N N X 3X[ F.l.DXb.o.h m p t 4.1 1 1 ",
"> > > > > > > > XX| X ].SXQ.m.O.S.~ i w D t l > > > > ",
", , , , , , , , , *.C ;.C ` v 6.> kXi L D w z , , , , ",
"- - - - - - - - - - l v $.a.^.( s.GXB w j - - - - - - ",
"= = = = = = = = = = = = - dXk.> i - t = = = = = = = = ",
"$ $ $ $ $ $ $ $ $ $ $ $ $ $ $ $ $ $ $ $ $ $ $ $ $ $ $ ",
"% % % % % % % % % % % % % % % % % % % % % % % % % % % "
};
