/* XPM */
static char *hide_active[] = {
/* columns rows colors chars-per-pixel */
"27 25 256 2 ",
"   c #033B9E",
".  c #011D72",
"X  c #01217D",
"o  c #011D6D",
"O  c #011C6A",
"+  c #022D88",
"@  c #012679",
"#  c #011969",
"$  c #071C5E",
"%  c #DEDEDD",
"&  c #76797C",
"*  c #E4E3E2",
"=  c #565A5F",
"-  c #4C5055",
";  c #65696D",
":  c #7B7D80",
">  c #D9D8D8",
",  c #D3D2D2",
"<  c #7F8284",
"1  c #848689",
"2  c #C7C6C6",
"3  c #898B8D",
"4  c gray80",
"5  c #C1C1C1",
"6  c #8E8F91",
"7  c #939496",
"8  c #BBBCBC",
"9  c #B6B6B6",
"0  c #9C9D9E",
"q  c #98999A",
"w  c #ABABAC",
"e  c #A1A1A2",
"r  c #B0B1B1",
"t  c #A6A6A7",
"y  c #515253",
"u  c #D4D3D3",
"i  c gray84",
"p  c #535455",
"a  c #D7D6D6",
"s  c #D0CFCF",
"d  c #686868",
"f  c #6A6A6A",
"g  c #CDCDCD",
"h  c #456F9D",
"j  c gray72",
"k  c gray39",
"l  c gray38",
"z  c LightGray",
"x  c #D6D5D5",
"c  c #AAA9A9",
"v  c #555656",
"b  c #575758",
"n  c #727477",
"m  c gray83",
"M  c #D5D4D4",
"N  c #D2D1D1",
"B  c #848484",
"V  c #D1D0D0",
"C  c #B9B8B9",
"Z  c #656666",
"A  c #5F5F5F",
"S  c #6C6C6C",
"D  c #929394",
"F  c #565657",
"G  c #023393",
"H  c #02359F",
"J  c #1E2B59",
"K  c #0248B1",
"L  c #0B2365",
"P  c #757778",
"I  c #39405D",
"U  c #CCCBCB",
"Y  c #0345AD",
"T  c #344871",
"R  c #6F6E6E",
"E  c #022A81",
"W  c #034A96",
"Q  c #9A9999",
"!  c #9D9D9E",
"~  c #0468D9",
"^  c gray62",
"/  c #C0C0C1",
"(  c gray75",
")  c #C8C6C6",
"_  c #02308F",
"`  c #58585C",
"'  c #8A8DA5",
"]  c #4B4E55",
"[  c #ADABAB",
"{  c #17255E",
"}  c #ADAEAE",
"|  c gray77",
" . c #023A9D",
".. c #BBC6D5",
"X. c #525D84",
"o. c #023EA7",
"O. c #456897",
"+. c #0D1F5A",
"@. c #BFBEBF",
"#. c #6A6C6E",
"$. c #011A65",
"%. c #051861",
"&. c #979797",
"*. c #706F6F",
"=. c #818080",
"-. c #7D84A0",
";. c #0351BC",
":. c #047CE9",
">. c #034BB9",
",. c #012267",
"<. c #C3C3C3",
"1. c #C7C6C7",
"2. c #525461",
"3. c #CACACA",
"4. c #022D8B",
"5. c #012280",
"6. c #545556",
"7. c #818186",
"8. c #BCCEDE",
"9. c #808181",
"0. c #5A5B5B",
"q. c gray50",
"w. c #BCCADA",
"e. c #022B7B",
"r. c #2E3D71",
"t. c #9FA0A0",
"y. c #0465D2",
"u. c #045BA3",
"i. c #012881",
"p. c #456694",
"a. c #D3D3D4",
"s. c gray82",
"d. c #67686A",
"f. c #9C9B9B",
"g. c #011F79",
"h. c #012E94",
"j. c #202E5E",
"k. c #737375",
"l. c #0354C3",
"z. c #C0C0C0",
"x. c #5F626E",
"c. c #C6C6CB",
"v. c #C1C0C0",
"b. c #27356E",
"n. c #323F74",
"m. c #012577",
"M. c #8F9193",
"N. c #9C9C9D",
"B. c #0464A8",
"V. c #C4C3C4",
"C. c #54586D",
"Z. c #434756",
"A. c #C2C0C0",
"S. c #43485D",
"D. c #76787B",
"F. c #C9C8C9",
"G. c #0587F2",
"H. c #6A7084",
"J. c #CAC9CA",
"K. c #9E9FA0",
"L. c #9D9EA6",
"P. c #122653",
"I. c #023680",
"U. c #7E8183",
"Y. c #022E86",
"T. c #0236A3",
"R. c #C7C5C5",
"E. c #606162",
"W. c #BDBBBB",
"Q. c #CCCBCC",
"!. c #BCBDBD",
"~. c #A2A2A3",
"^. c #02297E",
"/. c #B1B0B1",
"(. c #8D8C8C",
"). c #B1AFAF",
"_. c #8E8D8E",
"`. c #585E81",
"'. c gray65",
"]. c #0466D6",
"[. c #01217A",
"{. c #01337A",
"}. c #D0D0D0",
"|. c #192D6A",
" X c #626465",
".X c #012984",
"XX c gray",
"oX c #989798",
"OX c #BEBEBF",
"+X c #D4D2D2",
"@X c #BCCDDE",
"#X c #8C8D8F",
"$X c #021A62",
"%X c #BBBABA",
"&X c #031D65",
"*X c #777A7C",
"=X c #0345A9",
"-X c #404A7B",
";X c #AFAFB0",
":X c #818183",
">X c #046DDB",
",X c #0249B5",
"<X c #012B8C",
"1X c #747474",
"2X c #757676",
"3X c #767575",
"4X c #646465",
"5X c #4571A0",
"6X c #646466",
"7X c #047EED",
"8X c #455D87",
"9X c #455E8C",
"0X c #737475",
"qX c #A9A9A9",
"wX c #A9A9AA",
"eX c #D1D2D2",
"rX c #BCC6D7",
"tX c #5D5D5E",
"yX c #C3C2C2",
"uX c #86878A",
"iX c #C3C2C3",
"pX c #5B5B5C",
"aX c #034891",
"sX c #061E63",
"dX c #023AA7",
"fX c #525565",
"gX c #3D435E",
"hX c #CECECE",
"jX c #CBCBCB",
"kX c #022E8B",
"lX c #011B70",
"zX c #011F74",
"xX c #BDBCBC",
"cX c #525355",
"vX c #343C57",
"bX c #31395A",
"nX c #AEAFAF",
"mX c #BCCFDF",
"MX c #034EB9",
"NX c #D5D6D6",
"BX c #59595A",
"VX c #0B1C5F",
"CX c #7E7E7E",
"ZX c #0247AF",
"AX c #CDCBCB",
"SX c #BCCADB",
"DX c #034AB0",
"FX c #D5D5D5",
"GX c #737477",
"HX c #2F3E73",
"JX c #023DA5",
"KX c #023898",
"LX c #0464D1",
"PX c #023295",
"IX c #045AA2",
"UX c #2D3970",
/* pixels */
"- - - - - - - - - - - - - - - - - - - - - - - - - - - ",
"= = = = = = = = = = = = = = = = = = = = = = = = = = = ",
"; ; ; ; ; ; ; ; ; ; ; ; ; ; ; ; ; ; ; ; ; ; ; ; ; ; ; ",
"& & & & & & & & & & & & & & & & & & & & & & & & & & & ",
": : : : : : : : : : : : : : GXn n D.: : : : : : : : : ",
"< < < < < < < < < < < *X X6.y y y y E.P U.< < < < < < ",
"1 1 1 1 1 1 1 1 1 1 #.p p p ] Z.cXF 6Xk.:XuX1 1 1 1 1 ",
"3 3 3 3 3 3 3 3 3 d.v v vX+.$.O $Xj.x.9._.oXM.3 3 3 3 ",
"6 6 6 6 6 6 6 6 0Xb b J O i._ G kX@ sXH.^ '.qXD 6 6 6 ",
"7 7 7 7 7 7 7 #X0.BXbXo 4.JX,XMXK  .E L L.;X/.wX7 7 7 ",
"q q q q q q q 2XpX` $ .Xo.l.].>Xy.;. .m.X.j j C K.q q ",
"0 0 0 0 0 0 0 4XtXS.o PX>.~ 7XG.:.LXZX+ |.z.OX@.} 0 0 ",
"e e e e e e ! A A I zXY.I.W u.B.IXaX{.e.&X1.| V.C e e ",
"t t t t t t N.l l gX. ,.rXSX8.mX@Xw...T $ Q.J.F./ t t ",
"w w w w w w ~.k k 2.# @ 9XO.h 5Xh p.8XP.r.}.hXg iXw w ",
"r r r r r r nXd Z Z { [.+   Y DX=XKX^.O -.z eXV <.r r ",
"9 9 9 9 9 9 9 q.d d fX%.X h.T.dXH <XzXHXa.M m u ( 9 9 ",
"8 8 8 8 8 8 8 t.f f f C.VXlXX 5.g.# n.c.i i NXz !.8 8 ",
"5 5 5 5 5 5 5 5 CXS S R 7.`.UXb.-X' s.m FXi a 3.5 5 5 ",
"2 2 2 2 2 2 2 2 %X3XR *.=.Q ).A.R.U s u x a N 2 2 2 2 ",
"4 4 4 4 4 4 4 4 4 XXB 1XB &.c xX2 jXs +Xx u g 4 4 4 4 ",
", , , , , , , , , , N c (.f.[ W.) AXV u M , , , , , , ",
"> > > > > > > > > > > > , yXv.2 s , a > > > > > > > > ",
"% % % % % % % % % % % % % % % % % % % % % % % % % % % ",
"* * * * * * * * * * * * * * * * * * * * * * * * * * * "
};
