/* XPM */
static char *hide_pressed[] = {
/* columns rows colors chars-per-pixel */
"27 25 256 2 ",
"   c #C34516",
".  c #921E07",
"X  c #A36C51",
"o  c #DF5D1F",
"O  c #6F6E6E",
"+  c #821B06",
"@  c #961F07",
"#  c #B23710",
"$  c #8F2309",
"%  c #8B1D07",
"&  c #65696D",
"*  c #565A5F",
"=  c #E4E3E2",
"-  c #4C5055",
";  c #76797C",
":  c #DEDEDD",
">  c #7B7D80",
",  c #D9D8D8",
"<  c #D3D2D2",
"1  c #7F8284",
"2  c #848689",
"3  c #C7C6C6",
"4  c #898B8D",
"5  c gray80",
"6  c #8E8F91",
"7  c #C1C1C1",
"8  c #939496",
"9  c #BBBCBC",
"0  c #B6B6B6",
"q  c #98999A",
"w  c #9C9D9E",
"e  c #A1A1A2",
"r  c #ABABAC",
"t  c #B0B1B1",
"y  c #A6A6A7",
"u  c #515253",
"i  c #D4D3D3",
"p  c #D0CFCF",
"a  c gray84",
"s  c #D7D6D6",
"d  c #535455",
"f  c #686868",
"g  c #6A6A6A",
"h  c gray72",
"j  c #5F5F5F",
"k  c #555656",
"l  c #7F1B06",
"z  c #727477",
"x  c #848484",
"c  c gray83",
"v  c #D2D1D1",
"b  c #AAA9A9",
"n  c #B9B8B9",
"m  c LightGray",
"M  c #575758",
"N  c #CDCDCD",
"B  c #D6D5D5",
"V  c #6C6C6C",
"C  c #D5D4D4",
"Z  c #D1D0D0",
"A  c #656666",
"S  c gray38",
"D  c gray39",
"F  c #8C2309",
"G  c #7E7E7E",
"H  c #A6571F",
"J  c #96270A",
"K  c #BEBEBF",
"L  c #761607",
"P  c #757778",
"I  c #9B644E",
"U  c #C7C5C5",
"Y  c #711A0A",
"T  c #CF4816",
"R  c #818080",
"E  c #98250A",
"W  c #891C06",
"Q  c #737477",
"!  c #D5D3D3",
"~  c #8B4940",
"^  c #CBCBCB",
"/  c #D45019",
"(  c #9D2B0C",
")  c #CA4615",
"_  c #898180",
"`  c #7E8183",
"'  c #6B2D22",
"]  c #8E280B",
"[  c #C1C0C0",
"{  c #86878A",
"}  c #646466",
"|  c #A9837D",
" . c #DECCC1",
".. c #CD4D18",
"X. c #66433D",
"o. c gray65",
"O. c #791B08",
"+. c #CEC6C5",
"@. c #A89D9D",
"#. c #A5290B",
"$. c #8C8D8F",
"%. c #AEAFAF",
"&. c #545556",
"*. c #A46F52",
"=. c gray75",
"-. c #992008",
";. c #A2A2A3",
":. c #757676",
">. c #7E1705",
",. c #C3C2C3",
"<. c #761906",
"1. c #B8320E",
"2. c #DFCDC1",
"3. c #C3C2C2",
"4. c #994316",
"5. c #CACACA",
"6. c #AE8D89",
"7. c #AC2F0D",
"8. c #BDBCBC",
"9. c #751C0B",
"0. c #7D1A06",
"q. c #9E664E",
"w. c #CD4A17",
"e. c #853E33",
"r. c #808181",
"t. c #5A5B5B",
"y. c #DDC9C0",
"u. c #CDCBCB",
"i. c #BD3B11",
"p. c #CECECE",
"a. c #626465",
"s. c #929394",
"d. c #7B2C1D",
"f. c #979797",
"g. c #AC3610",
"h. c #8A6F6B",
"j. c #535354",
"k. c #A9A9AA",
"l. c #5B5B5C",
"z. c #C0360F",
"x. c #989798",
"c. c #BC4114",
"v. c #9A9999",
"b. c #7A4639",
"n. c #BDBBBB",
"m. c #9E9FA0",
"M. c #716160",
"N. c #706F6F",
"B. c #873110",
"V. c #B33810",
"C. c #67686A",
"Z. c #ADABAB",
"A. c #655452",
"S. c gray",
"D. c #737375",
"F. c #905D53",
"G. c #C0C0C0",
"H. c #8F9193",
"J. c #C0C0C1",
"K. c #762110",
"L. c #702418",
"P. c #9C9C9D",
"I. c gray62",
"U. c #C4C3C4",
"Y. c #76787B",
"T. c #905B4B",
"R. c #CCCBCC",
"E. c #C9C8C9",
"W. c #CAC9CA",
"Q. c #C8C6C6",
"!. c #791906",
"~. c #5F3B36",
"^. c #F37427",
"/. c #F47A2A",
"(. c #564E4D",
"). c #594744",
"_. c #BBBABA",
"`. c #EF7227",
"'. c #D4D2D2",
"]. c #9FA0A0",
"[. c #81382E",
"{. c #D1D2D2",
"}. c #A9300D",
"|. c #C04314",
" X c #735854",
".X c #C54415",
"XX c #A22B0B",
"oX c #C7C6C7",
"OX c #A12C0C",
"+X c #A62D0C",
"@X c #E66020",
"#X c #E76522",
"$X c #8D8C8C",
"%X c #8E8D8E",
"&X c #777A7C",
"*X c #D0D0D0",
"=X c #606162",
"-X c gray82",
";X c #624744",
":X c #7F3428",
">X c #E35F1F",
",X c #633832",
"<X c #BFBEBF",
"1X c #5E2416",
"2X c #955E4B",
"3X c #818183",
"4X c #8E3310",
"5X c #8E5D57",
"6X c #747474",
"7X c #767575",
"8X c #646465",
"9X c #7F3C30",
"0X c #AFAFB0",
"qX c #9D9D9E",
"wX c #737475",
"eX c #881905",
"rX c #A9A9A9",
"tX c #D5D6D6",
"yX c #D8C5BE",
"uX c #DAC6BE",
"iX c #BD330E",
"pX c #6A6C6E",
"aX c #DFCCC1",
"sX c #6B1E10",
"dX c #5D5D5E",
"fX c #6E1B0A",
"gX c #C3C3C3",
"hX c #9D4517",
"jX c #695552",
"kX c #9B2C0C",
"lX c #9D290B",
"zX c #D5D5D5",
"xX c #AD2B0B",
"cX c #65403A",
"vX c #BCBDBD",
"bX c #C2C0C0",
"nX c #731B0D",
"mX c #772009",
"MX c #565657",
"NX c gray77",
"BX c #B1B0B1",
"VX c #672A20",
"CX c #7F1805",
"ZX c #ADAEAE",
"AX c #833C31",
"SX c #A3521C",
"DX c #5C5859",
"FX c #B1AFAF",
"GX c #59595A",
"HX c gray50",
"JX c #DCC9C0",
"KX c #9B260A",
"LX c #CCCBCB",
"PX c #93270B",
"IX c #BB3A11",
"UX c #9C9B9B",
/* pixels */
"- - - - - - - - - - - - - - - - - - - - - - - - - - - ",
"* * * * * * * * * * * * * * * * * * * * * * * * * * * ",
"& & & & & & & & & & & & & & & & & & & & & & & & & & & ",
"; ; ; ; ; ; ; ; ; ; ; ; ; ; ; ; ; ; ; ; ; ; ; ; ; ; ; ",
"> > > > > > > > > > > > > > Q z z Y.> > > > > > > > > ",
"1 1 1 1 1 1 1 1 1 1 1 &Xa.&.u u u u =XP ` 1 1 1 1 1 1 ",
"2 2 2 2 2 2 2 2 2 2 pXd d d (.).j.MX} D.3X{ 2 2 2 2 2 ",
"4 4 4 4 4 4 4 4 4 C.k k ~.sX!.0.<.' M.r.%Xx.H.4 4 4 4 ",
"6 6 6 6 6 6 6 6 wXM M VXl E +X}.OX$ 9.h.I.o.rXs.6 6 6 ",
"8 8 8 8 8 8 8 $.t.GX,X+ XXIX) w..X# J K.@.0XBXk.8 8 8 ",
"q q q q q q q :.l.DXY KXi./ >X#Xo ..# F F.h h n m.q q ",
"w w w w w w w 8XdX;X+ 7.T @X^./.`.o   ( d.G.K <XZXw w ",
"e e e e e e qXj j cX% kX4XhXSXH SX4.B.] O.oXNXU.n e e ",
"y y y y y y P.S S X.W mXuXy.aX2. .JXyXb.fXR.W.E.J.y y ",
"r r r r r r ;.D D A.>.$ 2Xq.X *.X I T.1X9X*Xp.N ,.r r ",
"t t t t t t %.f A A L.. lXV.|.  c.g.PXl | m {.Z gXt t ",
"0 0 0 0 0 0 0 HXf f jXL @ xXiXz.1.#.% AX! C c i =.0 0 ",
"9 9 9 9 9 9 9 ].g g g  XnXeX@ -.. CXe.+.a a tXm vX9 9 ",
"7 7 7 7 7 7 7 7 G V V O _ 5X[.:X~ 6.-Xc zXa s 5.7 7 7 ",
"3 3 3 3 3 3 3 3 _.7XO N.R v.FXbXU LXp i B s v 3 3 3 3 ",
"5 5 5 5 5 5 5 5 5 S.x 6Xx f.b 8.3 ^ p '.B i N 5 5 5 5 ",
"< < < < < < < < < < v b $XUXZ.n.Q.u.Z i C < < < < < < ",
", , , , , , , , , , , , < 3.[ 3 p < s , , , , , , , , ",
": : : : : : : : : : : : : : : : : : : : : : : : : : : ",
"= = = = = = = = = = = = = = = = = = = = = = = = = = = "
};
