/* XPM */
static char *hide_prelight[] = {
/* columns rows colors chars-per-pixel */
"27 25 256 2 ",
"   c #01113E",
".  c #011039",
"X  c #01103D",
"o  c #010F37",
"O  c #010D35",
"+  c #4C5055",
"@  c #E4E3E2",
"#  c #565A5F",
"$  c #76797C",
"%  c #65696D",
"&  c #DEDEDD",
"*  c #7B7D80",
"=  c #D9D8D8",
"-  c #D3D2D2",
";  c #7F8284",
":  c #848689",
">  c #C7C6C6",
",  c #898B8D",
"<  c gray80",
"1  c #C1C1C1",
"2  c #8E8F91",
"3  c #939496",
"4  c #B6B6B6",
"5  c #98999A",
"6  c #9C9D9E",
"7  c #BBBCBC",
"8  c #ABABAC",
"9  c #B0B1B1",
"0  c #A6A6A7",
"q  c #A1A1A2",
"w  c #D4D3D3",
"e  c #515253",
"r  c #D0CFCF",
"t  c #535455",
"y  c LightGray",
"u  c #D7D6D6",
"i  c #6A6A6A",
"p  c gray84",
"a  c #686868",
"s  c #5F5F5F",
"d  c gray72",
"f  c #555656",
"g  c #BCC5CD",
"h  c gray39",
"j  c gray83",
"k  c #D6D5D5",
"l  c #B9B8B9",
"z  c #AAA9A9",
"x  c #022558",
"c  c #848484",
"v  c #727477",
"b  c #010F35",
"n  c gray38",
"m  c #D5D4D4",
"M  c #818183",
"N  c #D1D0D0",
"B  c #656666",
"V  c #021744",
"C  c #CDCDCD",
"Z  c #D2D1D1",
"A  c #6C6C6C",
"S  c #575758",
"D  c #67686A",
"F  c #3D404D",
"G  c #6A6C6E",
"H  c #9D9D9E",
"J  c #032658",
"K  c #01143D",
"L  c #45566E",
"P  c #545556",
"I  c #BBC1C8",
"U  c #031034",
"Y  c #C0C0C0",
"T  c #010E34",
"R  c #455A70",
"E  c #011541",
"W  c #010E33",
"Q  c #01133D",
"!  c #B1B0B1",
"~  c #D4D2D2",
"^  c gray82",
"/  c #CCCBCC",
"(  c #1E253C",
")  c #CAC9CA",
"_  c #8C8D8F",
"`  c #343846",
"'  c #BBBABA",
"]  c #CCCBCB",
"[  c #606162",
"{  c #BDBBBB",
"}  c #CBCBCB",
"|  c #03275D",
" . c #BFBEBF",
".. c #455A71",
"X. c #021B4F",
"o. c #AFAFB0",
"O. c #021746",
"+. c #646466",
"@. c #021948",
"#. c #929394",
"$. c #979797",
"%. c #C3C2C2",
"&. c #04356C",
"*. c #9E9FA0",
"=. c #BDBCBC",
"-. c #2F3751",
";. c #043369",
":. c #AEAFAF",
">. c #011133",
",. c #737477",
"<. c #808181",
"1. c #032355",
"2. c #021A4A",
"3. c #7E7E7E",
"4. c #BCC3CA",
"5. c #B1AFAF",
"6. c #021C52",
"7. c #071132",
"8. c #737375",
"9. c #8F9193",
"0. c #011647",
"q. c #58585A",
"w. c gray43",
"e. c #2D334E",
"r. c #032A5E",
"t. c #02163E",
"y. c #03264B",
"u. c #031E4F",
"i. c #021641",
"p. c #032E52",
"a. c #021A4B",
"s. c #01133C",
"d. c #C0C0C1",
"f. c #C1C0C0",
"g. c #545660",
"h. c #52576B",
"j. c #032B62",
"k. c #9C9C9D",
"l. c #192441",
"z. c gray62",
"x. c #455166",
"c. c #626465",
"v. c #D1D2D2",
"b. c #86878A",
"n. c #C9C8C9",
"m. c #525359",
"M. c #52545B",
"N. c #9A9999",
"B. c #313545",
"V. c #393D4B",
"C. c #5F6067",
"Z. c #989798",
"A. c #044579",
"S. c #9C9B9B",
"D. c #777A7C",
"F. c #757778",
"G. c #9FA0A0",
"H. c #7D808E",
"J. c #A2A2A3",
"K. c #8A8B97",
"L. c #272E4A",
"P. c #BCC1C9",
"I. c #C8C6C6",
"U. c #C2C0C0",
"Y. c #6A6D77",
"T. c #8D8C8C",
"R. c #7E8183",
"E. c #8E8D8E",
"W. c #04386E",
"Q. c #D0D0D0",
"!. c #C4C3C4",
"~. c gray",
"^. c #D5D6D6",
"/. c #BEBEBF",
"(. c gray75",
"). c #011240",
"_. c #76787B",
"`. c #0B1637",
"'. c #ADABAB",
"]. c #D5D5D5",
"[. c #747474",
"{. c #757676",
"}. c #767575",
"|. c #646465",
" X c gray65",
".X c #737475",
"XX c #A9A9A9",
"oX c #033355",
"OX c #A9A9AA",
"+X c #5A5B5B",
"@X c #5D5D5E",
"#X c #455268",
"$X c #C7C6C7",
"%X c #C3C2C3",
"&X c #C3C3C3",
"*X c #050F33",
"=X c #9D9DA1",
"-X c #CACACA",
";X c #BCBDBD",
":X c #CECECE",
">X c #565657",
",X c #323953",
"<X c #343D51",
"1X c #5B5B5C",
"2X c #ADAEAE",
"3X c #121C33",
"4X c #171E3B",
"5X c #BCC5CC",
"6X c #021843",
"7X c #011B3D",
"8X c #021C40",
"9X c #455B72",
"0X c #022053",
"qX c #032456",
"wX c #818080",
"eX c #706F6F",
"rX c #02265B",
"tX c gray50",
"yX c #CDCBCB",
"uX c #C7C5C5",
"iX c #BCC3CB",
"pX c #45566C",
"aX c #021D4C",
"sX c #021846",
"dX c #021E4E",
"fX c #043469",
"gX c #01184A",
"hX c gray77",
"jX c #0B1335",
"kX c #525355",
"lX c #0D1634",
"zX c #C6C6C8",
"xX c #044075",
"cX c #021E54",
"vX c #044177",
"bX c #59595A",
"nX c #04356B",
"mX c #6F6E6E",
"MX c #021F53",
"NX c #2E344F",
"BX c #03285D",
"VX c #43454D",
"CX c #02153F",
"ZX c #40455D",
"AX c #032649",
"SX c #434550",
"DX c #021E4F",
"FX c #20273F",
"GX c #011542",
"HX c #4B4D51",
"JX c #032E51",
"KX c #020E31",
"LX c #061233",
"PX c #071232",
"IX c #010E38",
"UX c #585A6C",
/* pixels */
"+ + + + + + + + + + + + + + + + + + + + + + + + + + + ",
"# # # # # # # # # # # # # # # # # # # # # # # # # # # ",
"% % % % % % % % % % % % % % % % % % % % % % % % % % % ",
"$ $ $ $ $ $ $ $ $ $ $ $ $ $ $ $ $ $ $ $ $ $ $ $ $ $ $ ",
"* * * * * * * * * * * * * * ,.v v _.* * * * * * * * * ",
"; ; ; ; ; ; ; ; ; ; ; D.c.P e e e e [ F.R.; ; ; ; ; ; ",
": : : : : : : : : : G t t t HXVXkX>X+.8.M b.: : : : : ",
", , , , , , , , , D f f ` lXW T KXFXC.<.E.Z.9., , , , ",
"2 2 2 2 2 2 2 2 .XS S ( b E @.2.sXQ LXY.z. XXX#.2 2 2 ",
"3 3 3 3 3 3 3 _ +XbXB.o O.MXrXBXx DXi.`.=Xo.! OX3 3 3 ",
"5 5 5 5 5 5 5 {.1Xq.PXGX0Xj.nXW.fXr.dXs.h.d d l *.5 5 ",
"6 6 6 6 6 6 6 |.@XSXo a.| &.vXA.xX;.x V l.Y /. .2X6 6 ",
"q q q q q q H s s V.. 6X8Xy.p.oXJXAX7Xt.U $XhX!.l q q ",
"0 0 0 0 0 0 k.n n F . >.P.iXg g 5X4.I <X7./ ) n.d.0 0 ",
"8 8 8 8 8 8 J.h h m.O K #XL ..9XR pXx.3XNXQ.:XC %X8 8 ",
"9 9 9 9 9 9 :.a B B 4X  V u.qXJ 1.aXCXb H.y v.N &X9 9 ",
"4 4 4 4 4 4 4 tXa a M.*X  gX6.cXX.0.. -.y m j w (.4 4 ",
"7 7 7 7 7 7 7 G.i i i g.jXIX  ).X O ,XzXp p ^.y ;X7 7 ",
"1 1 1 1 1 1 1 1 3.A A w.M UXe.L.ZXK.^ j ].p u -X1 1 1 ",
"> > > > > > > > ' }.mXeXwXN.5.U.uX] r w k u Z > > > > ",
"< < < < < < < < < ~.c [.c $.z =.> } r ~ k w C < < < < ",
"- - - - - - - - - - Z z T.S.'.{ I.yXN w m - - - - - - ",
"= = = = = = = = = = = = - %.f.> r - u = = = = = = = = ",
"& & & & & & & & & & & & & & & & & & & & & & & & & & & ",
"@ @ @ @ @ @ @ @ @ @ @ @ @ @ @ @ @ @ @ @ @ @ @ @ @ @ @ "
};
