/* XPM */
static char *maximize_toggled_inactive[] = {
/* columns rows colors chars-per-pixel */
"26 25 256 2 ",
"   c #6F6E6E",
".  c #212C1E",
"X  c #3B4A37",
"o  c #1E2A1B",
"O  c #DEDEDD",
"+  c #4C5055",
"@  c #E4E3E2",
"#  c #65696D",
"$  c #565A5F",
"%  c #76797C",
"&  c #7B7D80",
"*  c #D9D8D8",
"=  c #D3D2D2",
"-  c #7F8284",
";  c #848689",
":  c #C7C6C6",
">  c #898B8D",
",  c gray80",
"<  c #C1C1C1",
"1  c #8E8F91",
"2  c #939496",
"3  c #B6B6B6",
"4  c #BBBCBC",
"5  c #9C9D9E",
"6  c #98999A",
"7  c #B0B1B1",
"8  c #A6A6A7",
"9  c #A1A1A2",
"0  c #ABABAC",
"q  c #D4D3D3",
"w  c #515253",
"e  c #686868",
"r  c #D0CFCF",
"t  c #D7D6D6",
"y  c #535455",
"u  c #6A6A6A",
"i  c gray84",
"p  c #7E966C",
"a  c gray72",
"s  c #5F5F5F",
"d  c #64765C",
"f  c #727477",
"g  c #CDCDCD",
"h  c #D5D4D4",
"j  c #7B926E",
"k  c gray39",
"l  c #6C6C6C",
"z  c #788E6B",
"x  c #B9B8B9",
"c  c #656666",
"v  c #555656",
"b  c gray83",
"n  c #D5D5D5",
"m  c gray38",
"M  c #D2D1D1",
"N  c #AAA9A9",
"B  c #D1D0D0",
"V  c #575758",
"C  c #8D948B",
"Z  c LightGray",
"A  c #848484",
"S  c #D6D5D5",
"D  c #4B5747",
"F  c #4A5647",
"G  c #818183",
"H  c #B2B4B1",
"J  c #6A6C6E",
"K  c #303730",
"L  c #AFAFB0",
"P  c #C3C2C3",
"I  c #CECECE",
"U  c #364432",
"Y  c #737477",
"T  c #818080",
"R  c #728668",
"E  c #727E6E",
"W  c #697B63",
"Q  c #CCCBCC",
"!  c #7F867D",
"~  c #778C6A",
"^  c #5C6958",
"/  c #757778",
"(  c #5B5B5C",
")  c #B1AFAF",
"_  c #8E968C",
"`  c gray62",
"'  c #8F9193",
"]  c #3D423D",
"[  c #81927C",
"{  c #5D6D56",
"}  c #86878A",
"|  c #636F60",
" . c #A2A2A3",
".. c #525354",
"X. c gray81",
"o. c #484B49",
"O. c #4E4F4F",
"+. c #6B7E61",
"@. c #CCCBCB",
"#. c #868E83",
"$. c #40503B",
"%. c #7D956C",
"&. c gray65",
"*. c #BFBEBF",
"=. c #5F625F",
"-. c #626465",
";. c #858584",
":. c #757676",
">. c #485346",
",. c #706F6F",
"<. c #5E6E58",
"1. c #C3C2C2",
"2. c #474B47",
"3. c #7A8577",
"4. c #232D21",
"5. c #7C946C",
"6. c #BCBDBD",
"7. c #212B20",
"8. c #ADAEAE",
"9. c #595A5A",
"0. c #565F53",
"q. c #808181",
"w. c #556051",
"e. c #768A6D",
"r. c #718568",
"t. c #A9A9A8",
"y. c #3A4138",
"u. c #727F6E",
"i. c #616C5F",
"p. c #D5D6D6",
"a. c #7E9075",
"s. c #7C8D75",
"d. c #67686A",
"f. c #737375",
"g. c #CAC9CA",
"h. c #585A57",
"j. c #798C70",
"k. c #C0C0C0",
"l. c #C0C0C1",
"z. c #C1C0C0",
"x. c #788A70",
"c. c #BDBBBB",
"v. c #475642",
"b. c #767F73",
"n. c #C7C6C7",
"m. c #9C9B9B",
"M. c #7D9471",
"N. c #7E8183",
"B. c #9C9C9D",
"V. c #6F8169",
"C. c #687763",
"Z. c #748967",
"A. c #76787B",
"S. c #989798",
"D. c #686A69",
"F. c gray77",
"G. c #C9C8C9",
"H. c #4B5B47",
"J. c #646466",
"K. c #81887F",
"L. c #565857",
"P. c #79906C",
"I. c #7A906C",
"U. c #7B926C",
"Y. c #777A7C",
"T. c #80996C",
"R. c gray82",
"E. c #9A9999",
"W. c #ADABAB",
"Q. c #778771",
"!. c #3F443F",
"~. c #9FA0A0",
"^. c #4B4E4B",
"/. c #74846D",
"(. c #6A7964",
"). c #76886E",
"_. c #606162",
"`. c #596B52",
"'. c #5A6955",
"]. c #9E9FA0",
"[. c #848883",
"{. c #7B8578",
"}. c #969C95",
"|. c gray50",
" X c #505F4B",
".X c #81937A",
"XX c #5D7055",
"oX c #7C936C",
"OX c #8D8C8C",
"+X c #C4C3C4",
"@X c #8E8D8E",
"#X c #BBBABA",
"$X c #B1B0B1",
"%X c #576155",
"&X c #D0D0D0",
"*X c #2C3829",
"=X c gray",
"-X c #C2C0C0",
";X c #BEBEBF",
":X c gray75",
">X c #D4D2D2",
",X c #5D665B",
"<X c #C7C5C5",
"1X c #808F7A",
"2X c #7C9072",
"3X c #7D9370",
"4X c #747474",
"5X c #767575",
"6X c #646465",
"7X c #A9A9AA",
"8X c #737475",
"9X c #8C8D8F",
"0X c #7B8E72",
"qX c #9D9D9E",
"wX c #5F6D5B",
"eX c #7F8E7A",
"rX c #D1D2D2",
"tX c #5F6E5A",
"yX c #5D5D5E",
"uX c #C3C3C3",
"iX c #444844",
"pX c #B2B6B1",
"aX c #788575",
"sX c #CACACA",
"dX c #788D6D",
"fX c #65785C",
"gX c #83937D",
"hX c #979797",
"jX c #7D956D",
"kX c #BDBCBC",
"lX c #545556",
"zX c #565657",
"xX c #798F6C",
"cX c #C8C6C6",
"vX c #252E24",
"bX c #AEAFAF",
"nX c #59595A",
"mX c #5A5B5B",
"MX c #515E4E",
"NX c #848683",
"BX c #545F51",
"VX c #819477",
"CX c #7E976C",
"ZX c #7E7E7E",
"AX c #72816D",
"SX c #73806E",
"DX c #CDCBCB",
"FX c #929394",
"GX c #556251",
"HX c #768B6C",
"JX c #76896F",
"KX c #90968E",
"LX c #5D6A59",
"PX c #A9A9A9",
"IX c #3B423A",
"UX c #CBCBCB",
/* pixels */
"+ + + + + + + + + + + + + + + + + + + + + + + + + + ",
"$ $ $ $ $ $ $ $ $ $ $ $ $ $ $ $ $ $ $ $ $ $ $ $ $ $ ",
"# # # # # # # # # # # # # # # # # # # # # # # # # # ",
"% % % % % % % % % % % % % % % % % % % % % % % % % % ",
"& & & & & & & & & & & & & Y f f A.& & & & & & & & & ",
"- - - - - - - - - - Y.-.lXw w w w _./ N.- - - - - - ",
"; ; ; ; ; ; ; ; ; J y y y O.o...zXJ.f.G } ; ; ; ; ; ",
"> > > > > > > > d.v v !.vXo . 4.IXD.q.@XS.' > > > > ",
"1 1 1 1 1 1 1 8XV V K o U '.(.C.LX0.NX` &.PXFX1 1 1 ",
"2 2 2 2 2 2 9XmXnX] . tXs.a.0XJX/.SXb.t.L $X7X2 2 2 ",
"6 6 6 6 6 6 :.( 9.7.wX.XVXM.j ~ +.{ E }.a a x ].6 6 ",
"5 5 5 5 5 5 6XyX^.*X1XVX3XjXp oXZ.XX X#.k.;X*.8.5 5 ",
"9 9 9 9 9 qXs s iXF gX2Xj p T.p z fX$.3.n.F.+Xx 9 9 ",
"8 8 8 8 8 B.m m 2.w.[ j.P.%.CX5.z d X {.Q g.G.l.8 8 ",
"0 0 0 0 0  .k k L.>.eXx.dXI.U.xXR `.X _ &XI g P 0 0 ",
"7 7 7 7 7 bXe c c y.aXQ.).e.HXr.d v.BXpXZ rXB uX7 7 ",
"3 3 3 3 3 3 |.e e h.%Xu.AXV.W <.H.D C n h b q :X3 3 ",
"4 4 4 4 4 4 ~.u u u =.,X| ^ GXMXi.C X.i i p.Z 6.4 4 ",
"< < < < < < < ZXl l   ;.[.! K.KXH R.b n i t sX< < < ",
": : : : : : : #X5X  ,.T E.) -X<X@.r q S t M : : : : ",
", , , , , , , , =XA 4XA hXN kX: UXr >XS q g , , , , ",
"= = = = = = = = = M N OXm.W.c.cXDXB q h = = = = = = ",
"* * * * * * * * * * * = 1.z.: r = t * * * * * * * * ",
"O O O O O O O O O O O O O O O O O O O O O O O O O O ",
"@ @ @ @ @ @ @ @ @ @ @ @ @ @ @ @ @ @ @ @ @ @ @ @ @ @ "
};
