/* XPM */
static char *maximize_toggled_pressed[] = {
/* columns rows colors chars-per-pixel */
"26 25 256 2 ",
"   c #DF5D1F",
".  c #6F6E6E",
"X  c #A72D0C",
"o  c #821B06",
"O  c #961F07",
"+  c #B23710",
"@  c #8B1D07",
"#  c #4C5055",
"$  c #565A5F",
"%  c #65696D",
"&  c #76797C",
"*  c #DEDEDD",
"=  c #E4E3E2",
"-  c #7B7D80",
";  c #D9D8D8",
":  c #D3D2D2",
">  c #7F8284",
",  c #848689",
"<  c #C7C6C6",
"1  c #898B8D",
"2  c gray80",
"3  c #8E8F91",
"4  c #C1C1C1",
"5  c #939496",
"6  c #B6B6B6",
"7  c #98999A",
"8  c #9C9D9E",
"9  c #BBBCBC",
"0  c #ABABAC",
"q  c #B0B1B1",
"w  c #A6A6A7",
"e  c #A1A1A2",
"r  c #515253",
"t  c #D4D3D3",
"y  c #D0CFCF",
"u  c gray100",
"i  c #686868",
"p  c gray84",
"a  c #535455",
"s  c #6A6A6A",
"d  c #D7D6D6",
"f  c #D6D5D5",
"g  c #555656",
"h  c #727477",
"j  c #575758",
"k  c #CDCDCD",
"l  c gray72",
"z  c #656666",
"x  c #848484",
"c  c #BD3B11",
"v  c LightGray",
"b  c gray38",
"n  c #6C6C6C",
"m  c #D5D4D4",
"M  c #B9B8B9",
"N  c #AAA9A9",
"B  c #5F5F5F",
"V  c #98250A",
"C  c gray39",
"Z  c gray83",
"A  c #D2D1D1",
"S  c #D1D0D0",
"D  c #624744",
"F  c #CCCBCB",
"G  c #EF7227",
"H  c #5D5D5E",
"J  c #DC8564",
"K  c #C7C5C5",
"L  c gray65",
"P  c #646466",
"I  c #CBCBCB",
"U  c #6B2D22",
"Y  c #A89D9D",
"T  c #BCBDBD",
"R  c #A32C0C",
"E  c #CD4D18",
"W  c #59595A",
"Q  c #C84515",
"!  c #921E07",
"~  c #8E2309",
"^  c #9D2B0C",
"/  c #8A6F6B",
"(  c #FEEEE3",
")  c #6B1E10",
"_  c #818183",
"`  c #8E5D57",
"'  c #B2300D",
"]  c #C1C0C0",
"[  c #564E4D",
"{  c #D45019",
"}  c gray77",
"|  c #7F1B06",
" . c #76787B",
".. c #5C5859",
"X. c #CCCBCC",
"o. c #D5D5D5",
"O. c #BEBEBF",
"+. c #655452",
"@. c #CAC9CA",
"#. c #D64A17",
"$. c #9A9999",
"%. c #706F6F",
"&. c #695552",
"*. c #7E8183",
"=. c #C8C6C6",
"-. c #8C8D8F",
";. c #D65526",
":. c gray",
">. c gray75",
",. c #633832",
"<. c #F88F3E",
"1. c #CDCBCB",
"2. c #A9A9A9",
"3. c #737477",
"4. c #C3C2C3",
"5. c #9E9FA0",
"6. c #AD2B0B",
"7. c #65403A",
"8. c #731B0D",
"9. c #545556",
"0. c #565657",
"q. c #CD4A17",
"w. c #AEAFAF",
"e. c #7D1A06",
"r. c #818080",
"t. c #791E0B",
"y. c gray50",
"u. c #C54415",
"i. c #7E1705",
"p. c #833E31",
"a. c #A7290B",
"s. c #8C2309",
"d. c #F2A179",
"f. c #FBD7C4",
"g. c #F6DBD1",
"h. c #5F3B36",
"j. c #735854",
"k. c #CECECE",
"l. c #929394",
"z. c #AFAFB0",
"x. c #979797",
"c. c #E25F29",
"v. c #535354",
"b. c #898180",
"n. c #5B5B5C",
"m. c #757778",
"M. c #E35F1F",
"N. c #716160",
"B. c #B1B0B1",
"V. c #C0360F",
"C. c #67686A",
"Z. c #F89E64",
"A. c #737375",
"S. c #A9300D",
"D. c #905D53",
"F. c #B32F0D",
"G. c #A22B0B",
"H. c #626465",
"J. c #F9CBB5",
"K. c #C0C0C0",
"L. c #C0C0C1",
"P. c #9FA0A0",
"I. c #96270A",
"U. c #8F9193",
"Y. c #762110",
"T. c #989798",
"R. c #7B2C1D",
"E. c #BBBABA",
"W. c #992008",
"Q. c #9C9C9D",
"!. c #A2A2A3",
"~. c gray62",
"^. c #702418",
"/. c #86878A",
"(. c #C9C8C9",
"). c #BDBBBB",
"_. c #CEC6C5",
"`. c #B1AFAF",
"'. c #DD4F19",
"]. c #C33D12",
"[. c #81382E",
"{. c #A9A9AA",
"}. c #F37427",
"|. c #F47A2A",
" X c #594744",
".X c #5A5B5B",
"XX c #831C06",
"oX c #F9B88D",
"OX c #D4D2D2",
"+X c #D1D2D2",
"@X c #D5D3D3",
"#X c #CF4816",
"$X c #C7C6C7",
"%X c #E66020",
"&X c #E76522",
"*X c #8D8C8C",
"=X c #8E8D8E",
"-X c #D5D6D6",
";X c #D0D0D0",
":X c #9C9B9B",
">X c gray82",
",X c #C2C0C0",
"<X c #BFBEBF",
"1X c #DA4C17",
"2X c #791906",
"3X c #747474",
"4X c #757676",
"5X c #767575",
"6X c #646465",
"7X c #6A6C6E",
"8X c #737475",
"9X c #606162",
"0X c #881905",
"qX c #8B4940",
"wX c #BB3A11",
"eX c #9D9D9E",
"rX c #B8320E",
"tX c #BD330E",
"yX c #C3C2C2",
"uX c #ADABAB",
"iX c #C3C3C3",
"pX c #853E33",
"aX c #CACACA",
"sX c #A9837D",
"dX c #B5330E",
"fX c #AC2F0D",
"gX c #66433D",
"hX c #BDBCBC",
"jX c #711A0A",
"kX c #751C0B",
"lX c #FBE1D3",
"zX c #C4C3C4",
"xX c #FBE0D2",
"cX c #672A20",
"vX c #A62F0D",
"bX c #EE9F79",
"nX c #ADAEAE",
"mX c #9B260A",
"MX c #C93F12",
"NX c #D8511A",
"BX c #CC3F12",
"VX c #7F1805",
"CX c #808181",
"ZX c #AE8D89",
"AX c #791B08",
"SX c #CA4615",
"DX c #7E7E7E",
"FX c #761607",
"GX c #C34415",
"HX c #891C06",
"JX c #761906",
"KX c #777A7C",
"LX c #833C31",
"PX c #A12C0C",
"IX c #A5290B",
"UX c #7F3428",
/* pixels */
"# # # # # # # # # # # # # # # # # # # # # # # # # # ",
"$ $ $ $ $ $ $ $ $ $ $ $ $ $ $ $ $ $ $ $ $ $ $ $ $ $ ",
"% % % % % % % % % % % % % % % % % % % % % % % % % % ",
"& & & & & & & & & & & & & & & & & & & & & & & & & & ",
"- - - - - - - - - - - - - 3.h h  .- - - - - - - - - ",
"> > > > > > > > > > KXH.9.r r r r 9Xm.*.> > > > > > ",
", , , , , , , , , 7Xa a a [  Xv.0.P A._ /., , , , , ",
"1 1 1 1 1 1 1 1 C.g g h.) 2Xe.JXU N.CX=XT.U.1 1 1 1 ",
"3 3 3 3 3 3 3 8Xj j cX| V X S.PX~ kX/ ~.L 2.l.3 3 3 ",
"5 5 5 5 5 5 -..XW ,.o G.wXSXq.u.+ I.Y.Y z.B.{.5 5 5 ",
"7 7 7 7 7 7 4Xn...jXmXc { M.&X  E + s.D.l l M 5.7 7 ",
"8 8 8 8 8 8 6XH D o fX#X%X}.|.G   GX^ R.K.O.<XnX8 8 ",
"e e e e e eXB B 7.@ dXg.lXZ.<.oXu J vXAX$X} zXM e e ",
"w w w w w Q.b b gXHX' ;.xXu ( u bXQ R t.X.@.(.L.w w ",
"0 0 0 0 0 !.C C +.i.a.MXc.J.f.d.NXc V p.;Xk.k 4.0 0 ",
"q q q q q w.i z z ^.! F.BX1X'.#.].X XXsXv +XS iXq q ",
"6 6 6 6 6 6 y.i i &.FXO 6.tXV.rXIX@ LX@Xm Z t >.6 6 ",
"9 9 9 9 9 9 P.s s s j.8.0XO W.! VXpX_.p p -Xv T 9 9 ",
"4 4 4 4 4 4 4 DXn n . b.` [.UXqXZX>XZ o.p d aX4 4 4 ",
"< < < < < < < E.5X. %.r.$.`.,XK F y t f d A < < < < ",
"2 2 2 2 2 2 2 2 :.x 3Xx x.N hX< I y OXf t k 2 2 2 2 ",
": : : : : : : : : A N *X:XuX).=.1.S t m : : : : : : ",
"; ; ; ; ; ; ; ; ; ; ; : yX] < y : d ; ; ; ; ; ; ; ; ",
"* * * * * * * * * * * * * * * * * * * * * * * * * * ",
"= = = = = = = = = = = = = = = = = = = = = = = = = = "
};
