/* XPM */
static char *maximize_toggled_active[] = {
/* columns rows colors chars-per-pixel */
"26 25 256 2 ",
"   c #54732E",
".  c #6F6E6E",
"X  c #558C01",
"o  c #538801",
"O  c #407201",
"+  c #3D6C01",
"@  c #E4E3E2",
"#  c #65696D",
"$  c #565A5F",
"%  c #76797C",
"&  c #4C5055",
"*  c #DEDEDD",
"=  c #7B7D80",
"-  c #D9D8D8",
";  c #D3D2D2",
":  c #7F8284",
">  c #848689",
",  c #C7C6C6",
"<  c #898B8D",
"1  c gray80",
"2  c #C1C1C1",
"3  c #8E8F91",
"4  c #939496",
"5  c #98999A",
"6  c #9C9D9E",
"7  c #BBBCBC",
"8  c #B6B6B6",
"9  c #A1A1A2",
"0  c #ABABAC",
"q  c #A6A6A7",
"w  c #B0B1B1",
"e  c #515253",
"r  c #D4D3D3",
"t  c #D0CFCF",
"y  c gray100",
"u  c #535455",
"i  c #6A6A6A",
"p  c gray84",
"a  c #686868",
"s  c #D7D6D6",
"d  c #B9B8B9",
"f  c #D6D5D5",
"g  c #727477",
"h  c #848484",
"j  c #4B7E01",
"k  c #6C6C6C",
"l  c gray72",
"z  c #656666",
"x  c #AAA9A9",
"c  c #5F5F5F",
"v  c #457B01",
"b  c #D2D1D1",
"n  c #555656",
"m  c gray39",
"M  c LightGray",
"N  c #68A101",
"B  c gray38",
"V  c #D5D4D4",
"C  c #575758",
"Z  c #D1D0D0",
"A  c #CDCDCD",
"S  c gray83",
"D  c #95BA02",
"F  c #7BB302",
"G  c #527B01",
"H  c #9D9D9E",
"J  c #C2C0C0",
"K  c #3B6901",
"L  c #467601",
"P  c #9FA0A0",
"I  c #626465",
"U  c #706F6F",
"Y  c #78B202",
"T  c #97A867",
"R  c #366101",
"E  c #535454",
"W  c #83A301",
"Q  c #B1B0B1",
"!  c #D5D6D6",
"~  c #5A5B5B",
"^  c #D3DBBB",
"/  c #669F01",
"(  c #A2A2A3",
")  c #557431",
"_  c #3C6101",
"`  c #64A201",
"'  c gray75",
"]  c #98A588",
"[  c #C1C0C0",
"{  c #757676",
"}  c #8FA07C",
"|  c #979797",
" . c #9C9C9D",
".. c #74AE02",
"X. c #666D5F",
"o. c #CAC9CA",
"O. c #D4D4D2",
"+. c #6A6C6E",
"@. c gray77",
"#. c #DEE3CC",
"$. c #578001",
"%. c #CECECE",
"&. c #6D8156",
"*. c #91C602",
"=. c #8C8D8F",
"-. c #BFBEBF",
";. c #415D1F",
":. c #646466",
">. c #809556",
",. c #646465",
"<. c #A9A9AA",
"1. c #639A01",
"2. c #375F0A",
"3. c #497601",
"4. c #C3C2C2",
"5. c #447801",
"6. c #386701",
"7. c #595B59",
"8. c #CBCBCB",
"9. c #BCBDBD",
"0. c #5B8D01",
"q. c #4B5D39",
"w. c #AEAFAF",
"e. c #386801",
"r. c #818080",
"t. c gray50",
"y. c #CDCBCB",
"u. c #4C7E01",
"i. c #506E12",
"p. c #929394",
"a. c #92A245",
"s. c #3C5E16",
"d. c #4F6D01",
"f. c #619701",
"g. c gray62",
"h. c #848680",
"j. c #C3C2C3",
"k. c #5B5B5C",
"l. c #4B6E26",
"z. c #619F01",
"x. c #B0BB78",
"c. c #659802",
"v. c #67686A",
"b. c #569001",
"n. c #757778",
"m. c #5F9B01",
"M. c #396302",
"N. c #396105",
"B. c #4D8101",
"V. c #3B6507",
"C. c #737375",
"Z. c #7FB902",
"A. c #465735",
"S. c #465931",
"D. c #BDBCBC",
"F. c #BBE003",
"G. c #3F7001",
"H. c #C0C0C0",
"J. c #567612",
"K. c #C0C0C1",
"L. c #BDBBBB",
"P. c #548901",
"I. c #8F9193",
"U. c #DAE0CC",
"Y. c #B1AFAF",
"T. c #4C5544",
"R. c #A1A59C",
"E. c #4F5C43",
"W. c #4D5E3C",
"Q. c #5E7B3F",
"!. c #9C9B9B",
"~. c #76787B",
"^. c #437701",
"/. c #606D54",
"(. c #86878A",
"). c #C9C8C9",
"_. c #5B6552",
"`. c #3C6A01",
"'. c #497801",
"]. c #9A9999",
"[. c #BBBABA",
"{. c #C7C5C5",
"}. c #6BA601",
"|. c #C6D0AA",
" X c #5F8B01",
".X c #CCCBCC",
"XX c #777A7C",
"oX c #606162",
"OX c #4F544D",
"+X c #EBEEDD",
"@X c #477E01",
"#X c #C8C6C6",
"$X c #518501",
"%X c #C7C6C7",
"&X c #588301",
"*X c #5F8201",
"=X c #365D06",
"-X c #6D8451",
";X c #3D581E",
":X c #93CA02",
">X c #8D8C8C",
",X c #8E8D8E",
"<X c #9DD002",
"1X c #71AA02",
"2X c #D0D0D0",
"3X c #ADABAB",
"4X c gray",
"5X c #5B9601",
"6X c #BEBEBF",
"7X c #D4D2D2",
"8X c #518901",
"9X c #3C630A",
"0X c #528B01",
"qX c #818183",
"wX c #747474",
"eX c #9E9FA0",
"rX c #767575",
"tX c #4F702C",
"yX c #737475",
"uX c #78836A",
"iX c #A9A9A9",
"pX c #545556",
"aX c gray65",
"sX c #AFAFB0",
"dX c #36590C",
"fX c #596152",
"gX c #4C7201",
"hX c gray82",
"jX c #5D5D5E",
"kX c #7E8183",
"lX c #C3C3C3",
"zX c #D1D2D2",
"xX c #386401",
"cX c #3A6701",
"vX c #59595A",
"bX c #989798",
"nX c #CACACA",
"mX c #98AA67",
"MX c #547E01",
"NX c #C4C3C4",
"BX c #588E01",
"VX c #D5D5D5",
"CX c #565657",
"ZX c #7F8D13",
"AX c #ADAEAE",
"SX c #629801",
"DX c #3C6E01",
"FX c #466918",
"GX c #808181",
"HX c #DDE3CC",
"JX c #7E7E7E",
"KX c #366104",
"LX c #CCCBCB",
"PX c #457401",
"IX c #4C7C01",
"UX c #C9CBC5",
/* pixels */
"& & & & & & & & & & & & & & & & & & & & & & & & & & ",
"$ $ $ $ $ $ $ $ $ $ $ $ $ $ $ $ $ $ $ $ $ $ $ $ $ $ ",
"# # # # # # # # # # # # # # # # # # # # # # # # # # ",
"% % % % % % % % % % % % % % % % % % % % % % % % % % ",
"= = = = = = = = = = = = = g g g ~.= = = = = = = = = ",
": : : : : : : : : : XXI pXe e e e oXn.kX: : : : : : ",
"> > > > > > > > > +.u u u OXT.E CX:.C.qX(.> > > > > ",
"< < < < < < < < v.n n A.dXxXcXR ;.X.GX,XbXI.< < < < ",
"3 3 3 3 3 3 3 yXC C ;XK j X BXo L N.uXg.aXiXp.3 3 3 ",
"4 4 4 4 4 4 =.~ vXS.`.o / ..Y 1XSXu.9XR.sXQ <.4 4 4 ",
"5 5 5 5 5 5 { k.7.=XB.N Z.:X<X*.F f.PX-Xl l d eX5 5 ",
"6 6 6 6 6 6 ,.jXE.+ '.gX*XD F.W d.G $XFXH.6X-.AX6 6 ",
"9 9 9 9 9 H c c q.O _ U.#.a.ZXx.y >.3.M.%X@.NXd 9 9 ",
"q q q q q  .B B W.G.IXi.HXy +Xy T MXP.V..Xo.).K.q q ",
"0 0 0 0 0 ( m m fX6.0X0.J.|.^ mX XN j   2X%.A j.0 0 ",
"w w w w w w.a z z s.5.5X1.&X$.c.}.X + } M zXZ lXw w ",
"8 8 8 8 8 8 t.a a _.KXv b.z.` m.8XO   O.V S r ' 8 8 ",
"7 7 7 7 7 7 P i i i /.2.DXv @X^.e.) UXp p ! M 9.7 7 ",
"2 2 2 2 2 2 2 JXk k . h.&.tXl.Q.] hXS VXp s nX2 2 2 ",
", , , , , , , [.rX. U r.].Y.J {.LXt r f s b , , , , ",
"1 1 1 1 1 1 1 1 4Xh wXh | x D., 8.t 7Xf r A 1 1 1 1 ",
"; ; ; ; ; ; ; ; ; b x >X!.3XL.#Xy.Z r V ; ; ; ; ; ; ",
"- - - - - - - - - - - ; 4.[ , t ; s - - - - - - - - ",
"* * * * * * * * * * * * * * * * * * * * * * * * * * ",
"@ @ @ @ @ @ @ @ @ @ @ @ @ @ @ @ @ @ @ @ @ @ @ @ @ @ "
};
