/* XPM */
static char *maximize_pressed[] = {
/* columns rows colors chars-per-pixel */
"26 25 256 2 ",
"   c #A6290B",
".  c #921E07",
"X  c #8D2309",
"o  c #DF5D1F",
"O  c #6F6E6E",
"+  c #821B06",
"@  c #961F07",
"#  c #B23710",
"$  c #8B1D07",
"%  c #4C5055",
"&  c #65696D",
"*  c #76797C",
"=  c #E4E3E2",
"-  c #565A5F",
";  c #DEDEDD",
":  c #7B7D80",
">  c #D9D8D8",
",  c #D3D2D2",
"<  c #7F8284",
"1  c #848689",
"2  c #C7C6C6",
"3  c #898B8D",
"4  c gray80",
"5  c #8E8F91",
"6  c #C1C1C1",
"7  c #939496",
"8  c #98999A",
"9  c #9C9D9E",
"0  c #B6B6B6",
"q  c #BBBCBC",
"w  c #A2A1A1",
"e  c #ABABAC",
"r  c #B0B1B1",
"t  c #A6A6A7",
"y  c #515253",
"u  c #D4D3D3",
"i  c #D0CFCF",
"p  c #D7D6D6",
"a  c #535455",
"s  c #6A6A6A",
"d  c #686868",
"f  c gray84",
"g  c gray72",
"h  c #98250A",
"j  c #848484",
"k  c LightGray",
"l  c #656666",
"z  c gray100",
"x  c #D1D0D0",
"c  c #B9B8B9",
"v  c #AAA9A9",
"b  c #555656",
"n  c #CDCDCD",
"m  c #D2D1D1",
"M  c #6C6C6C",
"N  c gray83",
"B  c #575758",
"V  c #D6D5D5",
"C  c #5F5F5F",
"Z  c #727477",
"A  c gray38",
"S  c gray39",
"D  c #D5D4D4",
"F  c #818080",
"G  c #A32C0C",
"H  c #FAB98E",
"J  c #D5D5D5",
"K  c #891C06",
"L  c #CD4A17",
"P  c #672A20",
"I  c #F5AC89",
"U  c #B8320E",
"Y  c #BCBDBD",
"T  c #808181",
"R  c #7E7E7E",
"E  c #BD3B11",
"W  c #A12C0C",
"Q  c #EB6722",
"!  c #CCCBCC",
"~  c #7D1A06",
"^  c #695552",
"/  c #9D9D9E",
"(  c #757676",
")  c #B5330E",
"_  c #716160",
"`  c #E9B2A0",
"'  c #CBCBCB",
"]  c #C7C5C5",
"[  c #C0360F",
"{  c #791B08",
"}  c #F6C0A6",
"|  c #8F9193",
" . c #5F3B36",
".. c #853E33",
"X. c #B1AFAF",
"o. c #FDF4F0",
"O. c #CAC9CA",
"+. c #905D53",
"@. c #A9300D",
"#. c #A62D0C",
"$. c #ADABAB",
"%. c #9FA0A0",
"&. c #7E8183",
"*. c #6B1E10",
"=. c #8B4940",
"-. c gray",
";. c #BEBEBF",
":. c #791906",
">. c #767575",
",. c #7E1705",
"<. c #646466",
"1. c #7F3428",
"2. c #A9A9A9",
"3. c #633832",
"4. c #5D5D5E",
"5. c #AC2F0D",
"6. c #FBBF91",
"7. c #D34916",
"8. c #66433D",
"9. c #711A0A",
"0. c #545556",
"q. c #E56421",
"w. c #ADAEAE",
"e. c #9B260A",
"r. c #7F1B06",
"t. c #5A5B5B",
"y. c #CA4615",
"u. c #CDCBCB",
"i. c #C54415",
"p. c #833C31",
"a. c #833E31",
"s. c #626465",
"d. c #DA4C17",
"f. c #D45019",
"g. c #D35932",
"h. c #929394",
"j. c #E87F4C",
"k. c #CECECE",
"l. c #989798",
"z. c #535354",
"x. c gray75",
"c. c #5B5B5C",
"v. c #5C5859",
"b. c #F2874F",
"n. c #BDBBBB",
"m. c #D44C18",
"M. c #F69555",
"N. c #DD4F19",
"B. c #706F6F",
"V. c #67686A",
"C. c #EF7227",
"Z. c #564E4D",
"A. c #C1C0C0",
"S. c #737375",
"D. c #9E9FA0",
"F. c #C4C3C4",
"G. c #979797",
"H. c #C7664E",
"J. c #C0C0C0",
"K. c #C0C0C1",
"L. c #E35F1F",
"P. c #96270A",
"I. c #F9D5C4",
"U. c #A22B0B",
"Y. c #D37151",
"T. c #761607",
"R. c #762110",
"E. c #702418",
"W. c #7B2C1D",
"Q. c #F37427",
"!. c #B1B0B1",
"~. c #9C9C9D",
"^. c #B3482C",
"/. c #76787B",
"(. c #86878A",
"). c #C9C8C9",
"_. c #898180",
"`. c #C8C6C6",
"'. c #CEC6C5",
"]. c #8A6F6B",
"[. c #81382E",
"{. c #D5D3D3",
"}. c #9A9999",
"|. c #E66020",
" X c #CD4D18",
".X c #594744",
"XX c #AE8D89",
"oX c #D1D2D2",
"OX c #D4D2D2",
"+X c #992008",
"@X c #AFAFB0",
"#X c #CA6241",
"$X c #A2A2A3",
"%X c #C7C6C7",
"&X c #CA4817",
"*X c #8D8C8C",
"=X c #8C8D8F",
"-X c #8E8D8E",
";X c #D5D6D6",
":X c gray62",
">X c #D0D0D0",
",X c gray82",
"<X c #FEF6F1",
"1X c #C2C0C0",
"2X c #F47A2A",
"3X c #BFBEBF",
"4X c #818183",
"5X c #735854",
"6X c #747474",
"7X c #6A6C6E",
"8X c #761906",
"9X c #BBBABA",
"0X c #646465",
"qX c #737475",
"wX c #881905",
"eX c #8E5D57",
"rX c #9C9B9B",
"tX c #A9A9AA",
"yX c gray65",
"uX c #606162",
"iX c #BD330E",
"pX c #C3C2C2",
"aX c #C3C2C3",
"sX c #C3C3C3",
"dX c #655452",
"fX c #CACACA",
"gX c #B2300D",
"hX c #624744",
"jX c #D64A17",
"kX c #AD2B0B",
"lX c #65403A",
"zX c #FCF3F0",
"xX c #BDBCBC",
"cX c #731B0D",
"vX c #751C0B",
"bX c #565657",
"nX c #6B2D22",
"mX c #E76522",
"MX c #CF4816",
"NX c #757778",
"BX c #AEAFAF",
"VX c gray77",
"CX c #7F1805",
"ZX c #A9837D",
"AX c #59595A",
"SX c #791E0B",
"DX c #C84515",
"FX c gray50",
"GX c #CCCBCB",
"HX c #BB3A11",
"JX c #C34415",
"KX c #777A7C",
"LX c #737477",
"PX c #831C06",
"IX c #A62F0D",
"UX c #9D2B0C",
/* pixels */
"% % % % % % % % % % % % % % % % % % % % % % % % % % ",
"- - - - - - - - - - - - - - - - - - - - - - - - - - ",
"& & & & & & & & & & & & & & & & & & & & & & & & & & ",
"* * * * * * * * * * * * * * * * * * * * * * * * * * ",
": : : : : : : : : : : : : LXZ Z /.: : : : : : : : : ",
"< < < < < < < < < < KXs.0.y y y y uXNX&.< < < < < < ",
"1 1 1 1 1 1 1 1 1 7Xa a a Z..Xz.bX<.S.4X(.1 1 1 1 1 ",
"3 3 3 3 3 3 3 3 V.b b  .*.:.~ 8XnX_ T -Xl.| 3 3 3 3 ",
"5 5 5 5 5 5 5 qXB B P r.h #.@.W X vX].:XyX2.h.5 5 5 ",
"7 7 7 7 7 7 =Xt.AX3.+ U.HXy.L i.# P.R.w @X!.tX7 7 7 ",
"8 8 8 8 8 8 ( c.v.9.e.E f.L.mXo  X# X +.g g c D.8 8 ",
"9 9 9 9 9 9 0X4.hX+ 5.MX|.Q.2XC.o JXUXW.J.;.3Xw.9 9 ",
"w w w w w / C C lX$ ) m.Q H 6.M.q.&XIX{ %XVXF.c w w ",
"t t t t t ~.A A 8.K gX7.} z z <Xj.DXG SX! O.).K.t t ",
"e e e e e $XS S dX,.  ` o.I b.I.zX#Xh a.>Xk.n aXe e ",
"r r r r r BXd l l E.. H.g.d.N.jXY.^.PXZXk oXx sXr r ",
"0 0 0 0 0 0 FXd d ^ T.@ kXiX[ U   $ p.{.D N u x.0 0 ",
"q q q q q q %.s s s 5XcXwX@ +X. CX..'.f f ;Xk Y q q ",
"6 6 6 6 6 6 6 R M M O _.eX[.1.=.XX,XN J f p fX6 6 6 ",
"2 2 2 2 2 2 2 9X>.O B.F }.X.1X] GXi u V p m 2 2 2 2 ",
"4 4 4 4 4 4 4 4 -.j 6Xj G.v xX2 ' i OXV u n 4 4 4 4 ",
", , , , , , , , , m v *XrX$.n.`.u.x u D , , , , , , ",
"> > > > > > > > > > > , pXA.2 i , p > > > > > > > > ",
"; ; ; ; ; ; ; ; ; ; ; ; ; ; ; ; ; ; ; ; ; ; ; ; ; ; ",
"= = = = = = = = = = = = = = = = = = = = = = = = = = "
};
