/* XPM */
static char *maximize_active[] = {
/* columns rows colors chars-per-pixel */
"26 25 109 2 ",
"   c #365D06",
".  c #375C0B",
"X  c #3C5E16",
"o  c #3D581E",
"O  c #366102",
"+  c #3A6502",
"@  c #3C6B01",
"#  c #3C630A",
"$  c #3F7001",
"%  c #415D1F",
"&  c #447401",
"*  c #467B01",
"=  c #4C7E01",
"-  c #537C01",
";  c #466918",
":  c #465735",
">  c #465931",
",  c #4C5E3B",
"<  c #4A6523",
"1  c #4B6E26",
"2  c #4F702C",
"3  c #577523",
"4  c #54732E",
"5  c #557431",
"6  c #5E7B3F",
"7  c #617934",
"8  c #4C5544",
"9  c #4F5C43",
"0  c #4F544D",
"q  c #4C5055",
"w  c #535455",
"e  c #575758",
"r  c #565A5F",
"t  c #5C5C5C",
"y  c #5A6352",
"u  c #606D54",
"i  c #666D5F",
"p  c #636364",
"a  c #65696D",
"s  c #6B6B6B",
"d  c #706F6F",
"f  c #747476",
"g  c #757778",
"h  c #76797C",
"j  c #7F7F7F",
"k  c #4D8101",
"l  c #518601",
"z  c #588401",
"x  c #548A01",
"c  c #588E01",
"v  c #599201",
"b  c #5F9901",
"n  c #609301",
"m  c #639D01",
"M  c #769C01",
"N  c #64A201",
"B  c #6CA201",
"V  c #73AB02",
"C  c #77B202",
"Z  c #79B202",
"A  c #7FB902",
"S  c #748B34",
"D  c #7A9234",
"F  c #6C8345",
"G  c #6D8254",
"H  c #78836A",
"J  c #8FB202",
"K  c #98B603",
"L  c #889935",
"P  c #91C602",
"I  c #93CA02",
"U  c #9DD002",
"Y  c #A2CA02",
"T  c #8FA07C",
"R  c #A4B478",
"E  c #B3BD78",
"W  c #7B7D80",
"Q  c #7F8284",
"!  c #828382",
"~  c #848689",
"^  c #8A8B8D",
"/  c #8E8F91",
"(  c #8F9193",
")  c #939496",
"_  c #989798",
"`  c #9B9B9C",
"'  c #98A588",
"]  c #A1A59C",
"[  c #B1BF99",
"{  c #9E9FA0",
"}  c #9FA0A0",
"|  c #A4A4A4",
" . c #ABABAC",
".. c #B1AFAF",
"X. c #AFAFB0",
"o. c #B3B3B4",
"O. c #BBBCBC",
"+. c #BAC799",
"@. c #D1D9BB",
"#. c #C4C3C3",
"$. c #C8C6C6",
"%. c #C9CBC5",
"&. c #CCCCCC",
"*. c #D0CFCF",
"=. c #D4D3D3",
"-. c #DCDBDB",
";. c #E4E3E2",
":. c #F4F5EE",
">. c gray100",
/* pixels */
"q q q q q q q q q q q q q q q q q q q q q q q q q q ",
"r r r r r r r r r r r r r r r r r r r r r r r r r r ",
"a a a a a a a a a a a a a a a a a a a a a a a a a a ",
"h h h h h h h h h h h h h h h h h h h h h h h h h h ",
"W W W W W W W W W W W W W f f f h W W W W W W W W W ",
"Q Q Q Q Q Q Q Q Q Q h p w q w q q p f Q Q Q Q Q Q Q ",
"~ ~ ~ ~ ~ ~ ~ ~ ~ s w w w 0 8 w e p f ! ~ ~ ~ ~ ~ ~ ",
"^ ^ ^ ^ ^ ^ ^ ^ a e w : . + + O % i ! ^ _ ( ^ ^ ^ ^ ",
"/ / / / / / / f e e o @ = x c x & O H { |  .) ^ ( ( ",
") ) ) ) ) ) / t e > @ x m C C V m = # ] .... .) ( ) ",
"_ _ ` ` _ ` g t t   k N A I U P Z n & G O.O.O.{ ` _ ",
"{ ` ` ` ` ` p t 9 @ v C P J K Y P V l ; O.O.O.X.} ` ",
"} | | | | ` t t , & n V M E E L M C x + #.#.#.o.} | ",
"| | | | | ` p p , & z z +.>.>.:.S x x + &.&.&.#.| | ",
"| X.X.X.X.| p p y + + [ :.R D @.:.7 $ 2 *.*.*.#. . .",
"o.X.X.X.X.X.a p p X $ 6 3 n B - F < + ' =.*.*.#.X.o.",
"o.O.o.o.O.o.Q a p y O $ z m N b * @ 4 =.=.=.=.#.o.o.",
"O.O.O.O.O.O.} s s s u   @ * * & @ 5 %.-.=.=.=.O.O.O.",
"#.#.#.#.#.#.O.H d d d ! G 2 1 6 ' *.=.=.=.=.&.#.#.#.",
"#.#.#.#.#.$.&.O.f d d j ` X.#.#.&.*.=.=.=.=.#.$.$.$.",
"&.&.&.&.&.&.&.&.#.! f ! _  .O.$.&.*.=.=.=.*.*.&.*.&.",
"=.=.=.=.=.=.=.=.*.*. .^ `  .O.#.*.=.=.=.=.=.=.=.=.=.",
"-.=.-.=.=.-.=.-.-.-.-.=.#.#.&.*.=.=.-.=.-.=.=.-.-.=.",
"-.-.;.-.-.;.-.-.-.-.-.-.-.-.-.;.;.-.-.-.;.-.;.-.-.-.",
";.;.;.;.;.;.;.;.;.;.;.;.;.;.;.;.;.;.;.;.;.;.;.;.;.;."
};
