/* XPM */
static char *maximize_prelight[] = {
/* columns rows colors chars-per-pixel */
"26 25 255 2 ",
"   c #565A5F",
".  c #76797C",
"X  c #E4E3E2",
"o  c #4C5055",
"O  c #DEDEDD",
"+  c #65696D",
"@  c #7B7D80",
"#  c #D9D8D8",
"$  c #D3D2D2",
"%  c #7F8284",
"&  c #848689",
"*  c #C7C6C6",
"=  c gray80",
"-  c #898B8D",
";  c #8E8F91",
":  c #C1C1C1",
">  c #939496",
",  c #98999A",
"<  c #B6B6B6",
"1  c #BBBCBC",
"2  c #9C9D9E",
"3  c #A1A1A2",
"4  c #B0B1B1",
"5  c #ABABAC",
"6  c #A6A6A7",
"7  c #072C00",
"8  c #D4D3D3",
"9  c #515253",
"0  c #D0CFCF",
"q  c #D7D6D6",
"w  c #246901",
"e  c gray84",
"r  c #686868",
"t  c #6A6A6A",
"y  c #535455",
"u  c #575758",
"i  c #5F5F5F",
"p  c #185201",
"a  c gray39",
"s  c #D5D4D4",
"d  c #D2D1D1",
"f  c #D1D0D0",
"g  c #B9B8B9",
"h  c #D6D5D5",
"j  c #656666",
"k  c #6C6C6C",
"l  c gray83",
"z  c gray38",
"x  c #134700",
"c  c #555656",
"v  c #AAA9A9",
"b  c #32492E",
"n  c #CDCDCD",
"m  c LightGray",
"M  c gray100",
"N  c gray72",
"B  c #727477",
"V  c #104600",
"C  c #0F4100",
"Z  c #848484",
"A  c #0E3D00",
"S  c #C3C3C3",
"D  c #9C9B9B",
"F  c #4B4F4D",
"G  c #1A5901",
"H  c #AEAFAF",
"J  c #979797",
"K  c #545556",
"L  c #525752",
"P  c #8A9388",
"I  c #C1CBBB",
"U  c #767575",
"Y  c #BFBEBF",
"T  c gray",
"R  c gray82",
"E  c #D0D0D0",
"W  c #88A078",
"Q  c #757676",
"!  c #AFAFB0",
"~  c #0C3C00",
"^  c #8D8C8C",
"/  c #496C34",
"(  c #1A5701",
")  c #256201",
"_  c #A9A9AA",
"`  c #083100",
"'  c #083000",
"]  c #D4D3D2",
"[  c #D4D2D2",
"{  c #CBCBCB",
"}  c #F0F3EE",
"|  c #23381F",
" . c #CCCBCB",
".. c #606162",
"X. c #112F0A",
"o. c #114A00",
"O. c #8E8D8E",
"+. c #8F9193",
"@. c #144B00",
"#. c #41563F",
"$. c #276F01",
"%. c #062C00",
"&. c #9A9999",
"*. c #0E3C00",
"=. c gray62",
"-. c #CECECE",
";. c #0E3E00",
":. c #C9C8C9",
">. c #CAC9CA",
",. c #3A4739",
"<. c #293F22",
"1. c #1C5A01",
"2. c #2C4922",
"3. c #0F4000",
"4. c #626465",
"5. c #1E5401",
"6. c #1D5201",
"7. c #0D3D00",
"8. c #757778",
"9. c #646465",
"0. c #2A6F01",
"q. c #D5D5D5",
"w. c #113C01",
"e. c #C8C6C6",
"r. c #737375",
"t. c #EFF1EE",
"y. c #444C43",
"u. c #286601",
"i. c #BDBBBB",
"p. c #082D00",
"a. c #0B3500",
"s. c #0C3800",
"d. c #072900",
"f. c #195501",
"g. c #062A00",
"h. c #062900",
"j. c #124001",
"k. c #0C2D07",
"l. c #185301",
"z. c #BBBABA",
"x. c #102B0C",
"c. c #808181",
"v. c #0C3900",
"b. c #154701",
"n. c #0C2C05",
"m. c #436134",
"M. c #5D5D5E",
"N. c #555D54",
"B. c #193216",
"V. c #737477",
"C. c #104700",
"Z. c #0E3F00",
"A. c #BDBCBC",
"S. c #3E493C",
"D. c #A2A2A3",
"F. c #59595A",
"G. c #4A5F44",
"H. c #C3C2C2",
"J. c #093400",
"K. c #737475",
"L. c #585959",
"P. c #525952",
"I. c #D5D6D6",
"U. c #9FA0A0",
"Y. c #747474",
"T. c #B1AFAF",
"R. c #195701",
"E. c #7E8A7C",
"W. c #6F6E6E",
"Q. c #ADABAB",
"!. c #C7C6C7",
"~. c #195401",
"^. c #586656",
"/. c #6A6C6E",
"(. c #256B01",
"). c #777A7C",
"_. c #EFF2EE",
"`. c #706F6F",
"'. c #A1B199",
"]. c #344C31",
"[. c #7E8183",
"{. c #C6C7C5",
"}. c #ADAEAE",
"|. c #86878A",
" X c #9EAB99",
".X c #083300",
"XX c #0B3700",
"oX c #C1C0C0",
"OX c #C0C0C1",
"+X c #5F645F",
"@X c #869D78",
"#X c #C2C0C0",
"$X c #525354",
"%X c #9D9D9E",
"&X c #092C00",
"*X c #C4C3C4",
"=X c #9C9C9D",
"-X c #0B3400",
";X c #818183",
":X c #546551",
">X c #072E00",
",X c #3C5533",
"<X c #456534",
"1X c #0B2906",
"2X c #072901",
"3X c #6B746A",
"4X c #20351E",
"5X c #C3C2C3",
"6X c #CACACA",
"7X c #5B5B5C",
"8X c #646466",
"9X c #565657",
"0X c #B1B0B1",
"qX c gray43",
"wX c #092B02",
"eX c #0A3200",
"rX c #818380",
"tX c #76787B",
"yX c #CCCBCC",
"uX c #072A00",
"iX c #434A44",
"pX c #0E2B0A",
"aX c #072B00",
"sX c #989798",
"dX c #829878",
"fX c #134101",
"gX c #C7C5C5",
"hX c gray77",
"jX c #7E7E7E",
"kX c #324031",
"lX c #A9A9A9",
"zX c #5A5B5B",
"xX c #1D5E01",
"cX c #4D6444",
"vX c gray75",
"bX c #9E9FA0",
"nX c #8C8D8F",
"mX c #294226",
"MX c #144C00",
"NX c #1E3918",
"BX c #0A3300",
"VX c #364235",
"CX c gray50",
"ZX c #D1D2D2",
"AX c #929394",
"SX c #9D9F9C",
"DX c #C0C0C0",
"FX c #CDCBCB",
"GX c #2F462C",
"HX c #BCBDBD",
"JX c #818080",
"KX c #67686A",
"LX c #BEBEBF",
"PX c gray65",
"IX c #082804",
/* pixels */
"o o o o o o o o o o o o o o o o o o o o o o o o o o ",
"                                                    ",
"+ + + + + + + + + + + + + + + + + + + + + + + + + + ",
". . . . . . . . . . . . . . . . . . . . . . . . . . ",
"@ @ @ @ @ @ @ @ @ @ @ @ @ V.B B tX@ @ @ @ @ @ @ @ @ ",
"% % % % % % % % % % ).4.K 9 9 9 9 ..8.[.% % % % % % ",
"& & & & & & & & & /.y y y F iX$X9X8Xr.;X|.& & & & & ",
"- - - - - - - - KXc c VXx.d.aX2X| +Xc.O.sX+.- - - - ",
"; ; ; ; ; ; ; K.u u 4X7 XXZ.C A -Xn.3X=.PXlXAX; ; ; ",
"> > > > > > nXzXF.kX7 7.@.f.G l.x s.X.SX! 0X_ > > > ",
", , , , , , Q 7XL.1Xv.MXxX(.$.w 1.x BX:XN N g bX, , ",
"2 2 2 2 2 2 9.M.y.7 C R.w ) u.0.w p *.NXDXLXY }.2 2 ",
"3 3 3 3 3 %Xi i ,.' V ~.6.@XW / 5.( 3.wX!.hX*Xg 3 3 ",
"6 6 6 6 6 =Xz z S.>XA fX'.M M } m.j.;.k.yX>.:.OX6 6 ",
"5 5 5 5 5 D.a a L h.&X X_.dX<XI t.,XeXb E -.n 5X5 5 ",
"4 4 4 4 4 H r j j B.7 G.2.b.p w.cX<.uXE.m ZXf S 4 4 ",
"< < < < < < CXr r P.IXp.~ C.o.V a.7 b ] s l 8 vX< < ",
"1 1 1 1 1 1 U.t t t N.pX%..XJ.` g.].{.e e I.m HX1 1 ",
": : : : : : : jXk k qXrX^.GXmX#.P R l q.e q 6X: : : ",
"* * * * * * * z.U W.`.JX&.T.#XgX .0 8 h q d * * * * ",
"= = = = = = = = T Z Y.Z J v A.* { 0 [ h 8 n = = = = ",
"$ $ $ $ $ $ $ $ $ d v ^ D Q.i.e.FXf 8 s $ $ $ $ $ $ ",
"# # # # # # # # # # # $ H.oX* 0 $ q # # # # # # # # ",
"O O O O O O O O O O O O O O O O O O O O O O O O O O ",
"X X X X X X X X X X X X X X X X X X X X X X X X X X "
};
