/* XPM */
static char *maximize_toggled_prelight[] = {
/* columns rows colors chars-per-pixel */
"26 25 256 2 ",
"   c #083100",
".  c #65696D",
"X  c #E4E3E2",
"o  c #76797C",
"O  c #4C5055",
"+  c #DEDEDD",
"@  c #565A5F",
"#  c #7B7D80",
"$  c #D9D8D8",
"%  c #D3D2D2",
"&  c #7F8284",
"*  c #848689",
"=  c #C7C6C6",
"-  c #898B8D",
";  c gray80",
":  c #8E8F91",
">  c #C1C1C1",
",  c #939496",
"<  c #BBBCBC",
"1  c #9C9D9E",
"2  c #B6B6B6",
"3  c #98999A",
"4  c #A6A6A7",
"5  c #ABABAC",
"6  c #A1A1A2",
"7  c #B0B1B1",
"8  c #515253",
"9  c #D4D3D3",
"0  c #072C00",
"q  c #D7D6D6",
"w  c #535455",
"e  c gray100",
"r  c #D0CFCF",
"t  c #6A6A6A",
"y  c #686868",
"u  c gray84",
"i  c gray38",
"p  c #D6D5D5",
"a  c #5F5F5F",
"s  c #0E3E00",
"d  c gray39",
"f  c #D1D0D0",
"g  c gray72",
"h  c #656666",
"j  c #AAA9A9",
"k  c #555656",
"l  c #134700",
"z  c #0B3700",
"x  c #32492E",
"c  c #144C00",
"v  c #CDCDCD",
"b  c #D0D8CC",
"n  c #D2D1D1",
"m  c LightGray",
"M  c #6C6C6C",
"N  c gray83",
"B  c #575758",
"V  c #B9B8B9",
"C  c #727477",
"Z  c #848484",
"A  c #D5D4D4",
"S  c #4B4F4D",
"D  c #083200",
"F  c #0C3900",
"G  c #246901",
"H  c #104700",
"J  c #225A01",
"K  c #143A01",
"L  c #9D9F9C",
"P  c #3E493C",
"I  c #204312",
"U  c #869D78",
"Y  c #144B00",
"T  c #0D3D00",
"R  c #0C2D07",
"E  c #062900",
"W  c #062A00",
"Q  c #0C3800",
"!  c #8A9388",
"~  c #20351E",
"^  c #123C01",
"/  c #AEAFAF",
"(  c #9D9D9E",
")  c #1E3918",
"_  c #8F9193",
"`  c #344C31",
"'  c #C4C3C4",
"]  c #0A3300",
"[  c #1E3F12",
"{  c #5B5B5C",
"}  c #D5D6D6",
"|  c #276601",
" . c #444C43",
".. c #BEBEBF",
"X. c gray75",
"o. c #CECECE",
"O. c #757676",
"+. c #646466",
"@. c #67686A",
"#. c #324031",
"$. c #103801",
"%. c #9E9FA0",
"&. c #59595A",
"*. c #6A6C6E",
"=. c #C3C2C3",
"-. c #CACACA",
";. c #BDBCBC",
":. c #ADAEAE",
">. c gray62",
",. c #0B2906",
"<. c #777A7C",
"1. c #CCCBCB",
"2. c #0F4100",
"3. c #434A44",
"4. c #738A67",
"5. c #102B0C",
"6. c #082F00",
"7. c #185301",
"8. c #9C9C9D",
"9. c #134900",
"0. c #154601",
"q. c #154A01",
"w. c #0C3D00",
"e. c #0C3600",
"r. c #0C2C05",
"t. c #093300",
"y. c #0E3F00",
"u. c #062C00",
"i. c #0E3D00",
"p. c #979797",
"a. c #B1B0B1",
"s. c #0E2B0A",
"d. c #737375",
"f. c #CFD6CC",
"g. c #072E00",
"h. c #C0C0C0",
"j. c #C0C0C1",
"k. c #C1C0C0",
"l. c #C7C5C5",
"z. c #BBBABA",
"x. c #294226",
"c. c #76787B",
"v. c #525752",
"b. c #C9C8C9",
"n. c #C8C6C6",
"m. c #CBCBCB",
"M. c #7E8A7C",
"N. c #555D54",
"B. c #737477",
"V. c #CCCBCC",
"C. c #9A9999",
"Z. c #7E8183",
"A. c #586656",
"S. c #818183",
"D. c #706F6F",
"F. c #545556",
"G. c #B1BEAA",
"H. c #092B02",
"J. c #ADABAB",
"K. c #CAC9CA",
"L. c #41563F",
"P. c #C1CCBB",
"I. c #597845",
"U. c #D5D5D5",
"Y. c #193216",
"T. c #D4D2D2",
"R. c #D4D3D2",
"E. c #9C9B9B",
"W. c #6F6E6E",
"Q. c #C7C6C7",
"!. c #C6C7C5",
"~. c #8D8C8C",
"^. c #8C8D8F",
"/. c #8E8D8E",
"(. c #9FA0A0",
"). c #D0D0D0",
"_. c #E1E6DD",
"`. c gray82",
"'. c gray",
"]. c #C2C0C0",
"[. c #BFBEBF",
"{. c #276F01",
"}. c #2F462C",
"|. c #86878A",
" X c #747474",
".X c #767575",
"XX c #646465",
"oX c #525952",
"OX c #737475",
"+X c #A9A9A9",
"@X c #A9A9AA",
"#X c #929394",
"$X c #5E7556",
"%X c gray65",
"&X c #1A5901",
"*X c #6B746A",
"=X c #1D5E01",
"-X c gray77",
";X c #585959",
":X c #B1AFAF",
">X c #606162",
",X c #5A5B5B",
"<X c #5D5D5E",
"1X c #818380",
"2X c #C3C2C2",
"3X c #C3C3C3",
"4X c #364235",
"5X c #989798",
"6X c #BCBDBD",
"7X c #626465",
"8X c #565657",
"9X c #AFAFB0",
"0X c #5F645F",
"qX c #525354",
"wX c #093400",
"eX c #317D01",
"rX c #808181",
"tX c #818080",
"yX c gray50",
"uX c #CDCBCB",
"iX c #0D4000",
"pX c #0F4300",
"aX c #23381F",
"sX c #1C5A01",
"dX c #728967",
"fX c #124300",
"gX c #072900",
"hX c #154E00",
"jX c #256B01",
"kX c #112F0A",
"lX c #082D00",
"zX c #2F5812",
"xX c #0A2C00",
"cX c #195501",
"vX c gray43",
"bX c #3A4739",
"nX c #114A00",
"mX c #082804",
"MX c #174501",
"NX c #A2A2A3",
"BX c #0B3400",
"VX c #546551",
"CX c #0C3C00",
"ZX c #757778",
"AX c #123E01",
"SX c #0C3700",
"DX c #0D3600",
"FX c #D1D2D2",
"GX c #083300",
"HX c #124001",
"JX c #134101",
"KX c #BDBBBB",
"LX c #072901",
"PX c #104600",
"IX c #0E3C00",
"UX c #7E7E7E",
/* pixels */
"O O O O O O O O O O O O O O O O O O O O O O O O O O ",
"@ @ @ @ @ @ @ @ @ @ @ @ @ @ @ @ @ @ @ @ @ @ @ @ @ @ ",
". . . . . . . . . . . . . . . . . . . . . . . . . . ",
"o o o o o o o o o o o o o o o o o o o o o o o o o o ",
"# # # # # # # # # # # # # B.C C c.# # # # # # # # # ",
"& & & & & & & & & & <.7XF.8 8 8 8 >XZXZ.& & & & & & ",
"* * * * * * * * * *.w w w S 3.qX8X+.d.S.|.* * * * * ",
"- - - - - - - - @.k k 4X5.gX0 LXaX0XrX/.5X_ - - - - ",
": : : : : : : OXB B ~ 0 z y.2.i.BXr.*X>.%X+X#X: : : ",
", , , , , , ^.,X&.#.0 T Y cX&X7.l Q kXL 9Xa.@X, , , ",
"3 3 3 3 3 3 O.{ ;X,.F c =XjX{.G sXl ] VXg g V %.3 3 ",
"1 1 1 1 1 1 XX<X .0 e.$.MX| eXJ K ^ IX) h...[.:.1 1 ",
"6 6 6 6 6 ( a a bX  xXf.b I.zXU e $XDXH.Q.-X' V 6 6 ",
"4 4 4 4 4 8.i i P g.SX[ b e _.e dXAXs R V.K.b.j.4 4 ",
"5 5 5 5 5 NXd d v.E w.fXI G.P.4.0.c z x ).o.v =.5 5 ",
"7 7 7 7 7 / y h h Y.D pX9.JXHXq.hXs lXM.m FXf 3X7 7 ",
"2 2 2 2 2 2 yXy y oXmXt.iXH nXPXCX6.x R.A N 9 X.2 2 ",
"< < < < < < (.t t t N.s.u.GXwX  W ` !.u u } m 6X< < ",
"> > > > > > > UXM M vX1XA.}.x.L.! `.N U.u q -.> > > ",
"= = = = = = = z..XW.D.tXC.:X].l.1.r 9 p q n = = = = ",
"; ; ; ; ; ; ; ; '.Z  XZ p.j ;.= m.r T.p 9 v ; ; ; ; ",
"% % % % % % % % % n j ~.E.J.KXn.uXf 9 A % % % % % % ",
"$ $ $ $ $ $ $ $ $ $ $ % 2Xk.= r % q $ $ $ $ $ $ $ $ ",
"+ + + + + + + + + + + + + + + + + + + + + + + + + + ",
"X X X X X X X X X X X X X X X X X X X X X X X X X X "
};
