/* XPM */
static char *right_inactive[] = {
/* columns rows colors chars-per-pixel */
"4 22 3 1 ",
"  c #E8E7E6",
". c #ECEBEA",
"X c #EDECEB",
/* pixels */
"    ",
"....",
"XXXX",
"XXXX",
"XXXX",
"XXXX",
"XXXX",
"XXXX",
"XXXX",
"XXXX",
"XXXX",
"XXXX",
"XXXX",
"XXXX",
"XXXX",
"XXXX",
"XXXX",
"XXXX",
"XXXX",
"XXXX",
"XXXX",
"XXXX"
};
