/* XPM */
static char *top_left_inactive[] = {
/* columns rows colors chars-per-pixel */
"13 25 27 1 ",
"  c #4C5055",
". c #565A5F",
"X c #65696D",
"o c #76797C",
"O c #7B7D80",
"+ c #7F8284",
"@ c #848689",
"# c #898B8D",
"$ c #8C8E90",
"% c #8E8F91",
"& c #939496",
"* c #98999A",
"= c #9C9D9E",
"- c #A1A1A2",
"; c #A6A6A7",
": c #ABABAC",
"> c #B0B1B1",
", c #B6B6B6",
"< c #BBBCBC",
"1 c #C1C1C1",
"2 c #C7C6C6",
"3 c gray80",
"4 c #D3D2D2",
"5 c #D9D8D8",
"6 c #DEDEDD",
"7 c #E4E3E2",
"8 c None",
/* pixels */
"88           ",
"8............",
"XXXXXXXXXXXXX",
"ooooooooooooo",
"OOOOOOOOOOOOO",
"+++++++++++++",
"@@@@@@@@@@@@@",
"$############",
"%%%%%%%%$%%%%",
"&&&&&&&&&&&&&",
"*************",
"=============",
"-------------",
";;;;;;;;;;;;;",
":::::::::::::",
">>>>>>>>>>>>>",
",,,,,,,,,,,,,",
"<<<<<<<<<<<<<",
"1111111111111",
"2222222222222",
"3333333333333",
"4444444444444",
"5555555555555",
"6666666666666",
"7777777777777"
};
