/* XPM */
static char *close_prelight[] = {
/* columns rows colors chars-per-pixel */
"26 25 256 2 ",
"   c #63172B",
".  c #350101",
"X  c #420101",
"o  c #550015",
"O  c #3D000E",
"+  c #522A2A",
"@  c #3A0B11",
"#  c #4D0014",
"$  c #61001A",
"%  c #330208",
"&  c #310101",
"*  c #4F0808",
"=  c #270204",
"-  c #490606",
";  c #430011",
":  c #290101",
">  c #2F0101",
",  c #3F0101",
"<  c #260101",
"1  c #9F0326",
"2  c #B31A38",
"3  c #BD9CA4",
"4  c #DED3D5",
"5  c #BD395E",
"6  c #A80826",
"7  c #66001B",
"8  c #C85E80",
"9  c #975B6B",
"0  c #D58BA5",
"q  c #762036",
"w  c #DFAEC1",
"e  c #DFB0C2",
"r  c #6D001B",
"t  c #D896AD",
"y  c #CD6D8C",
"u  c #BC3459",
"i  c #C34C70",
"p  c #880024",
"a  c #7B001B",
"s  c #950126",
"d  c #A40526",
"f  c #AF122E",
"g  c #B52141",
"h  c #6D3A4A",
"j  c #470012",
"k  c #410011",
"l  c #B29494",
"z  c #B44A68",
"x  c #5E0019",
"c  c #6E3F4E",
"v  c #590215",
"b  c #5D0819",
"n  c #714A57",
"m  c #3F0011",
"M  c #520015",
"N  c #452020",
"B  c #714956",
"V  c #B55372",
"C  c #600E20",
"Z  c #AE8787",
"A  c #550909",
"S  c #C46679",
"D  c #8D2843",
"F  c #2D0202",
"G  c #5F2A2A",
"H  c #67021D",
"J  c #D288A2",
"K  c #A46B7E",
"L  c #9C495F",
"P  c #D38DA5",
"I  c #B66379",
"U  c #963B53",
"Y  c #400A12",
"T  c #562020",
"R  c #B06274",
"E  c #2B0101",
"W  c #BE5878",
"Q  c #6E0D27",
"!  c #631F32",
"~  c #5E2424",
"^  c #5A0018",
"/  c #C05C71",
"(  c #BD586F",
")  c #B16476",
"_  c #B86B7F",
"`  c #B0203F",
"'  c #C0A2A2",
"]  c #754343",
"[  c #632430",
"{  c #986E7C",
"}  c #914A5F",
"|  c #39151A",
" . c #4A2020",
".. c #BC4465",
"X. c #A83F5D",
"o. c #B04664",
"O. c #C16583",
"+. c #8A3249",
"@. c #753E4D",
"#. c #A95F72",
"$. c #734957",
"%. c #570E21",
"&. c #C14D70",
"*. c #A67A8A",
"=. c #B06375",
"-. c #331515",
";. c #BB6178",
":. c #581C1C",
">. c #471615",
",. c #A07777",
"<. c #754051",
"1. c #A45468",
"2. c #943850",
"3. c #A5586A",
"4. c #752035",
"5. c #440F14",
"6. c #372020",
"7. c #943F56",
"8. c #4E0211",
"9. c #390101",
"0. c #500606",
"q. c #6A2E40",
"w. c #C9AFAF",
"e. c #851835",
"r. c #9B4A62",
"t. c #BA9A9A",
"y. c #280201",
"u. c #2A0303",
"i. c #3E2020",
"p. c #A2102B",
"a. c #A88080",
"s. c #A23F5B",
"d. c #AA3855",
"f. c #450510",
"g. c #6A3F3F",
"h. c #45000F",
"j. c #512E35",
"k. c #853146",
"l. c #8D394F",
"z. c #9C556B",
"x. c #AB596C",
"c. c #7C4C4C",
"v. c #885E5D",
"b. c #C06277",
"n. c #7D495A",
"m. c #C3687C",
"M. c #94596D",
"N. c #2E0B0C",
"B. c #69424E",
"V. c #C7ABAB",
"C. c #5B3E3E",
"Z. c #C9ABAB",
"A. c #7D031E",
"S. c #BF9E9E",
"D. c #AF6880",
"F. c #4A2A2A",
"G. c #925666",
"H. c #C5A4A4",
"J. c #9F5065",
"K. c #9B0424",
"L. c #9D3652",
"P. c #AF4B68",
"I. c #B69292",
"U. c #B65473",
"Y. c #D099AD",
"T. c #76001F",
"R. c #85495C",
"E. c #884657",
"W. c #976C6C",
"Q. c #B99999",
"!. c #B99A9A",
"~. c #BB9999",
"^. c #BE5A72",
"/. c #BD5974",
"(. c #6A0018",
"). c #68001C",
"_. c #961E3E",
"`. c #6E001D",
"'. c #CBB5B5",
"]. c #8D374E",
"[. c #7B3846",
"{. c #704855",
"}. c #BC4A60",
"|. c #4B0606",
" X c #C47E96",
".X c #BF5E74",
"XX c #724A57",
"oX c #461822",
"OX c #A44D67",
"+X c #6C192F",
"@X c #C26178",
"#X c #946969",
"$X c #782D40",
"%X c #883B50",
"&X c #D195AA",
"*X c #2D0405",
"=X c #9A5869",
"-X c #3F181C",
";X c #BC647B",
":X c #7B0323",
">X c #7A0D2A",
",X c #C15F74",
"<X c #4F101F",
"1X c #AD3F5F",
"2X c #B9687D",
"3X c #BB4661",
"4X c #84253D",
"5X c #A2566B",
"6X c #8D324E",
"7X c #9B485E",
"8X c #A85C70",
"9X c #984B5F",
"0X c #89495D",
"qX c #89223D",
"wX c #A6596D",
"eX c #662034",
"rX c #C19F9F",
"tX c #460913",
"yX c #582323",
"uX c #480101",
"iX c #6D2535",
"pX c #930125",
"aX c #973F57",
"sX c #91324B",
"dX c #C4A3A3",
"fX c #4B0013",
"gX c #974157",
"hX c #9E495E",
"jX c #B7435D",
"kX c #B7647A",
"lX c #620D23",
"zX c #8D2A45",
"xX c #BC5775",
"cX c #B64E6B",
"vX c #6C2F42",
"bX c #CAAFAF",
"nX c #390B0E",
"mX c #851633",
"MX c #BE9E9E",
"NX c #582B2A",
"BX c #B59999",
"VX c #5B2B2A",
"CX c #603B45",
"ZX c #BB9A9A",
"AX c #765252",
"SX c #2B0201",
"DX c #440101",
"FX c #220102",
"GX c #551C1C",
"HX c #BA526E",
"JX c #BA536E",
"KX c #3C0101",
"LX c #3F0201",
"PX c #2C0101",
"IX c #810F2C",
"UX c #BE697F",
/* pixels */
"1 1 1 1 1 1 1 1 1 1 1 1 1 1 1 1 1 1 1 1 1 1 1 1 1 1 ",
"6 6 6 6 6 6 6 6 6 6 6 6 6 6 6 6 6 6 6 6 6 6 6 6 6 6 ",
"2 2 2 2 2 2 2 2 2 2 2 2 2 2 2 2 2 2 2 2 2 2 2 2 2 2 ",
"5 5 5 5 5 5 5 5 5 5 5 5 5 5 5 5 5 5 5 5 5 5 5 5 5 5 ",
"8 8 8 8 8 8 8 8 8 8 8 8 8 U.V V W 8 8 8 8 8 8 8 8 8 ",
"0 0 0 0 0 0 0 0 0 0  XM.<.h h h h R.D.J 0 0 0 0 0 0 ",
"w w w w w w w w w *.XXB B B.CX{.$.n.0Xz.Y.w w w w w ",
"e e e e e e e e { n n j.N.: E y.-X@.} r.OX&Xe e e e ",
"t t t t t t t K c c | : . X DXKX& u.$Xs.X.P.P t t t ",
"y y y y y y O.vXq.oX-.+ VX|.* yXNXN *XL.1Xo.xXy y y ",
"i i i i i i 6XeX! = N !.S.] G ~.MXg.> [ z z cX&.i i ",
"u u u u u u +X  <XPX9.c.dX' l V.#X- , nX/.HXJX..u u ",
"g g g g g ` C C tX& uX* W.w.'.l T A X SX@X^.( 3Xg g ",
"f f f f f p.b b f.> X - Z Z.bXQ.GX0., F S ,X/ }.f f ",
"d d d d d K.v v 8.: . v.rXZ a.H.,.LX. 5.m.b..XjXd d ",
"s s s s s pXo M M = C.BXZX~ :.I.t.AX< [.UX;X;.d.s s ",
"p p p p p p x # # O 6.F. ., X >.+ i.@ _ 2XkXI _.p p ",
"a a a a a a (.j j j O FX: & . > < @ 3.) =.R x.A.a a ",
"r r r r r r r fXk k ; o h.% % Y iXhX1.wX8X#.4Xr r r ",
"7 7 7 7 7 7 7 $ ; m m # x `.:Xe.zXU 7XJ.5Xl.7 7 7 7 ",
"7 7 7 7 7 7 7 7 $ j k # ^ ).T.IXqXsXaXL +.H 7 7 7 7 ",
"q q q q q q q q q 4.  %.lXQ >XmXD 2.gXk.q q q q q q ",
"9 9 9 9 9 9 9 9 9 9 9 G.E.%X].7.9X=X9 9 9 9 9 9 9 9 ",
"3 3 3 3 3 3 3 3 3 3 3 3 3 3 3 3 3 3 3 3 3 3 3 3 3 3 ",
"4 4 4 4 4 4 4 4 4 4 4 4 4 4 4 4 4 4 4 4 4 4 4 4 4 4 "
};
