/* XPM */
static char *close_active[] = {
/* columns rows colors chars-per-pixel */
"26 25 179 2 ",
"   c #3D0103",
".  c #3F0011",
"X  c #460305",
"o  c #4D0202",
"O  c #44000E",
"+  c #490208",
"@  c #4B0B0D",
"#  c #530201",
"$  c #5D0201",
"%  c #53000F",
"&  c #590B0E",
"*  c #440011",
"=  c #4C0014",
"-  c #4F0B11",
";  c #530114",
":  c #590215",
">  c #520A13",
",  c #5E0F15",
"<  c #5D0019",
"1  c #5D0819",
"2  c #4D151A",
"3  c #511615",
"4  c #57101F",
"5  c #56181D",
"6  c #630201",
"7  c #6A0201",
"8  c #720101",
"9  c #7C0202",
"0  c #66001B",
"q  c #6C001B",
"w  c #76001F",
"e  c #7B001B",
"r  c #781616",
"t  c #570E21",
"y  c #531822",
"u  c #610E21",
"i  c #6E0D27",
"p  c #7B0323",
"a  c #7A0D2A",
"s  c #63172B",
"d  c #6C192F",
"f  c #641F32",
"g  c #4D2020",
"h  c #5D2020",
"j  c #5D2E36",
"k  c #6C2020",
"l  c #6A2A2A",
"z  c #752020",
"x  c #782A2A",
"c  c #662034",
"v  c #762136",
"b  c #793F3E",
"n  c #6B2F41",
"m  c #663B45",
"M  c #6D3C4B",
"N  c #7A3E4D",
"B  c #6C424E",
"V  c #754051",
"C  c #714956",
"Z  c #7D495A",
"A  c #840201",
"S  c #8F0201",
"D  c #8F0C0C",
"F  c #930C0C",
"G  c #9D1210",
"H  c #A00E0E",
"J  c #AB1312",
"K  c #880024",
"L  c #810F2C",
"P  c #950126",
"I  c #9F0326",
"U  c #851633",
"Y  c #851835",
"T  c #961E3E",
"R  c #A40526",
"E  c #A80826",
"W  c #A2102B",
"Q  c #AF122E",
"!  c #B31A38",
"~  c #8B2C2C",
"^  c #9C2323",
"/  c #912828",
"(  c #9D2929",
")  c #84253D",
"_  c #89223D",
"`  c #A02E2D",
"'  c #B0203F",
"]  c #A43535",
"[  c #AA3F3F",
"{  c #96403F",
"}  c #812D40",
"|  c #8D2944",
" . c #853146",
".. c #883846",
"X. c #8C344C",
"o. c #8D394F",
"O. c #91324B",
"+. c #883B50",
"@. c #953C54",
"#. c #B52141",
"$. c #A03652",
"%. c #AA3855",
"&. c #A23F5B",
"*. c #AB3F5E",
"=. c #BC3459",
"-. c #BD395E",
";. c #884657",
":. c #85495C",
">. c #89495D",
",. c #974157",
"<. c #914A5F",
"1. c #9B495F",
"2. c #995252",
"3. c #B7435D",
"4. c #B35151",
"5. c #B55F5E",
"6. c #9B4A62",
"7. c #925666",
"8. c #9F5065",
"9. c #9C556B",
"0. c #975B6B",
"q. c #9A5869",
"w. c #A44D67",
"e. c #AF4B68",
"r. c #B04664",
"t. c #BC4563",
"y. c #BC4A60",
"u. c #B54B69",
"i. c #A35569",
"p. c #A6586C",
"a. c #AB596C",
"s. c #BA536E",
"d. c #BD586F",
"f. c #A85E71",
"g. c #B55372",
"h. c #BC5775",
"j. c #BE5B73",
"k. c #BE5878",
"l. c #986E7C",
"z. c #A46B7E",
"x. c #B06375",
"c. c #B76479",
"v. c #BC6279",
"b. c #BA697E",
"n. c #C34C70",
"m. c #C05E72",
"M. c #C06277",
"N. c #C36478",
"B. c #C3687C",
"V. c #CB7776",
"C. c #D17D7D",
"Z. c #AF6880",
"A. c #A67A8A",
"S. c #C85E80",
"D. c #C16583",
"F. c #CD6D8C",
"G. c #C47E96",
"H. c #BD9CA4",
"J. c #DF8F8F",
"K. c #DE9696",
"L. c #D19A99",
"P. c #DA9B9B",
"I. c #E19393",
"U. c #D58BA5",
"Y. c #D195AA",
"T. c #D896AD",
"R. c #D099AD",
"E. c #E5A3A3",
"W. c #EAA4A3",
"Q. c #ECAEAD",
"!. c #F1AEAE",
"~. c #F2B5B5",
"^. c #F6BDBD",
"/. c #F8BEBE",
"(. c #DFAEC1",
"). c #DFB0C2",
"_. c #DED3D5",
"`. c #F9C6C5",
"'. c #FDD1D1",
/* pixels */
"I I I I R I I I I I I I I I I I R I I I I I I I I I ",
"E E E E E E E E E E E E E E E E E E E E E E E E E E ",
"! ! ! ! ! ! ! ! ! ! ! ! ! ! ! ! ! ! ! ! ! ! ! ! ! ! ",
"-.-.-.-.-.-.-.-.-.-.-.-.-.-.-.-.-.-.-.-.-.-.-.-.-.-.",
"S.S.S.S.S.S.S.S.S.S.S.S.S.g.g.g.k.N.S.S.S.S.S.S.S.S.",
"U.U.U.U.U.U.U.U.U.U.G.0.V M M M M :.Z.U.U.U.U.U.U.U.",
"(.(.(.(.(.(.(.(.(.A.C C C B m C C Z >.9.R.).).).(.(.",
").).).).).).).).l.C C j @ # # o 5 N <.6.w.Y.).).(.(.",
"T.T.T.T.T.T.T.z.M B 2 o 7 A A 9 $ o } &.*.e.U.T.T.T.",
"F.F.F.F.F.F.D.n n y 3 x ~ F G / ~ k o $.*.e.h.F.F.F.",
"n.n.n.n.n.n.X.c f X k P.W.4.[ E.E.{ $ v u.u.u.n.n.n.",
"=.=.=.=.=.=.d s t # 8 4.!.~.Q.^.V.D 9 & j.s.s.t.=.=.",
"#.#.#.#.#.' u 4 > $ S G C.`.'.Q.] J A # N.d.d.t.#.#.",
"Q Q Q Q Q W 1 1 ; $ A F J./.`.Q.` H A # N.M.d.y.Q Q ",
"R E E R R I : : ; o 7 5.W.I.J.!.C.9 7 , B.M.j.3.R E ",
"P P P P P P ; ; ;   b L.P.( ^ K.P.2.o ..B.v.v.%.P P ",
"K K K K K K < = = * g l z A A r x h & b.b.c.x.T K K ",
"e e e e e e q = * * O   o 6 7 6 X - p.x.x.x.a.e e e ",
"q q q q q q q = * . * ; % + + > v 1.i.p.f.f.) q q q ",
"0 0 0 0 0 0 0 < * . . = < q p Y | @.1.8.p.o.0 0 0 0 ",
"0 0 0 0 0 0 q 0 < = . = < 0 w L _ O.@.6.X.0 0 0 0 0 ",
"v v v v v v v v v v s t u i a U | @.,. .v v v v v v ",
"0.0.0.0.0.0.0.0.0.0.0.7.;.+.o.@.1.q.0.0.0.0.0.0.0.0.",
"H.H.H.H.H.H.H.H.H.H.H.H.H.H.H.H.H.H.H.H.H.H.H.H.H.H.",
"_._._._._._._._._._._._._._._._._._._._._._._._._._."
};
