/* XPM */
static char *close_inactive[] = {
/* columns rows colors chars-per-pixel */
"26 25 256 2 ",
"   c #851734",
".  c #9F2823",
"X  c #4B0110",
"o  c #9D2524",
"O  c #991F1F",
"+  c #931A1C",
"@  c #8A111A",
"#  c #951F1E",
"$  c #9C2120",
"%  c #BA536E",
"&  c #3D0909",
"*  c #420011",
"=  c #470011",
"-  c #63172B",
";  c #6B0118",
":  c #650612",
">  c #9F2722",
",  c #7A1316",
"<  c #9B2020",
"1  c #971A1E",
"2  c #560016",
"3  c #680A12",
"4  c #3D0907",
"5  c #4C0014",
"6  c #61001A",
"7  c #6A0E12",
"8  c #9F0326",
"9  c #BD9CA4",
"0  c #B31A38",
"q  c #A80826",
"w  c #BD395E",
"e  c #DED3D5",
"r  c #66001B",
"t  c #C85E80",
"y  c #975B6B",
"u  c #D58BA5",
"i  c #762036",
"p  c #DFAEC1",
"a  c #DFB0C2",
"s  c #6D001B",
"d  c #D896AD",
"f  c #CD6D8C",
"g  c #880024",
"h  c #7B001B",
"j  c #BC3459",
"k  c #C34C70",
"l  c #B52141",
"z  c #AF122E",
"x  c #A40526",
"c  c #950126",
"v  c #6D3A4A",
"b  c #5D0819",
"n  c #B44A68",
"m  c #714956",
"M  c #3F0011",
"N  c #520015",
"B  c #600E20",
"V  c #590215",
"C  c #714A57",
"Z  c #6D404E",
"A  c #610A10",
"S  c #B55372",
"D  c #5E0019",
"F  c #943F56",
"G  c #8A191B",
"H  c #662034",
"J  c #48050C",
"K  c #80111D",
"L  c #754051",
"P  c #7A0F21",
"I  c #982327",
"U  c #B66379",
"Y  c #530313",
"T  c #700B15",
"R  c #B06375",
"E  c #61100F",
"W  c #91324B",
"Q  c #A02D2B",
"!  c #A67A8A",
"~  c #A73856",
"^  c #A23F5B",
"/  c #BE5878",
"(  c #670E11",
")  c #8C323F",
"_  c #5B2F37",
"`  c #560C0D",
"'  c #401012",
"]  c #740418",
"[  c #531B26",
"{  c #730814",
"}  c #9F5065",
"|  c #8D394F",
" . c #9B2C2D",
".. c #9E4354",
"X. c #B65473",
"o. c #9B3437",
"O. c #BD5974",
"+. c #8A3249",
"@. c #7B0323",
"#. c #A53F3D",
"$. c #A64140",
"%. c #561120",
"&. c #AB596C",
"*. c #BC4465",
"=. c #C14D70",
"-. c #C26178",
";. c #8B2F45",
":. c #963F4A",
">. c #811017",
",. c #7E1617",
"<. c #C05C71",
"1. c #AD3F5F",
"2. c #A02923",
"3. c #A2566B",
"4. c #6E0D27",
"5. c #A85C70",
"6. c #963B53",
"7. c #A6596D",
"8. c #A54848",
"9. c #752035",
"0. c #5D0F0E",
"q. c #931E22",
"w. c #9E495E",
"e. c #9D2622",
"r. c #992120",
"t. c #6A2E40",
"y. c #5A0018",
"u. c #750F14",
"i. c #B06274",
"p. c #851819",
"a. c #6E001D",
"s. c #853146",
"d. c #9B4A62",
"f. c #8F3543",
"g. c #842233",
"h. c #84253D",
"j. c #872B35",
"k. c #89223D",
"l. c #925666",
"z. c #882F39",
"x. c #7C3F4E",
"c. c #883B50",
"v. c #AA3855",
"b. c #500A16",
"n. c #9C556B",
"m. c #B9687D",
"M. c #810F2C",
"N. c #A46B7E",
"B. c #AE6071",
"V. c #A2102B",
"C. c #663C46",
"Z. c #C06277",
"A. c #986E7C",
"S. c #841420",
"D. c #94596D",
"F. c #D38DA5",
"G. c #BC4A60",
"H. c #BC647B",
"J. c #67021D",
"K. c #922329",
"L. c #9B0424",
"P. c #B64E6B",
"I. c #641F33",
"U. c #A44D67",
"Y. c #AF4B68",
"T. c #570E21",
"R. c #9D4145",
"E. c #C16583",
"W. c #68001C",
"Q. c #C3687C",
"!. c #93404A",
"~. c #A02924",
"^. c #871218",
"/. c #C15F74",
"(. c #BA6C81",
"). c #8D2A45",
"_. c #85495C",
"`. c #884657",
"'. c #89495D",
"]. c #BE5A72",
"[. c #B7435D",
"{. c #BF5E74",
"}. c #8D324E",
"|. c #8D374E",
" X c #7A0D2A",
".X c #A03838",
"XX c #A04446",
"oX c #C47E96",
"OX c #A84F4F",
"+X c #6D0A12",
"@X c #7D0E17",
"#X c #6F0814",
"$X c #AE5F6E",
"%X c #704855",
"&X c #8E2A33",
"*X c #734957",
"=X c #724A57",
"-X c #BC5775",
";X c #6C192F",
":X c #4B1A1F",
">X c #961E3E",
",X c #BE697F",
"<X c #C46679",
"1X c #9A2527",
"2X c #4F0711",
"3X c #BD586F",
"4X c #8D2843",
"5X c #93384C",
"6X c #B04664",
"7X c #630A14",
"8X c #650912",
"9X c #D195AA",
"0X c #9A5869",
"qX c #7C1015",
"wX c #BB6178",
"eX c #7D031E",
"rX c #974157",
"tX c #A83F5D",
"yX c #BB4661",
"uX c #B16476",
"iX c #AF6880",
"pX c #A02D25",
"aX c #A45468",
"sX c #984B5F",
"dX c #9B485E",
"fX c #914A5F",
"gX c #A95F72",
"hX c #943850",
"jX c #7D495A",
"kX c #400909",
"lX c #D288A2",
"zX c #49090A",
"xX c #A54A4B",
"cX c #9E2F2F",
"vX c #76001F",
"bX c #5A0C0E",
"nX c #7D1725",
"mX c #5C080F",
"MX c #930125",
"NX c #973F57",
"BX c #8A151C",
"VX c #A1302D",
"CX c #951B20",
"ZX c #9C495F",
"AX c #D099AD",
"SX c #720A14",
"DX c #B7647A",
"FX c #620D23",
"GX c #B0203F",
"HX c #541D22",
"JX c #6C2F42",
"KX c #83131E",
"LX c #841418",
"PX c #851719",
"IX c #750D15",
"UX c #770E15",
/* pixels */
"8 8 8 8 8 8 8 8 8 8 8 8 8 8 8 8 8 8 8 8 8 8 8 8 8 8 ",
"q q q q q q q q q q q q q q q q q q q q q q q q q q ",
"0 0 0 0 0 0 0 0 0 0 0 0 0 0 0 0 0 0 0 0 0 0 0 0 0 0 ",
"w w w w w w w w w w w w w w w w w w w w w w w w w w ",
"t t t t t t t t t t t t t X.S S / t t t t t t t t t ",
"u u u u u u u u u u oXD.L v v v v _.iXlXu u u u u u ",
"p p p p p p p p p ! =Xm m Z C.%X*XjX'.n.AXp p p p p ",
"a a a a a a a a A.C C _ ' 4 & kXHXx.fXd.U.9Xa a a a ",
"d d d d d d d N.Z Z :X4 ` u.>.@XT 7X;.^ tXY.F.d d d ",
"f f f f f f E.JXt.[ kXUXo..X .q.BXKXnX~ 1.6X-Xf f f ",
"k k k k k k }.H I.& IX8.#.VXo # G , K ..n n P.=.k k ",
"j j j j j j ;X- %.zXXX$.Q ~.. e.# ,.7 !.O.% % *.j j ",
"l l l l l GXB B b.A OXcXo ~.pX. r.p.E z.-.].3XyXl l ",
"z z z z z V.b b 2X3 xX1X$ > 2.> O PX0.j.<X/.<.G.z z ",
"x x x x x L.V V Y mXR.I O $ $ < + , bX:.Q.Z.{.[.x x ",
"c c c c c MX2 N N J &XK.CX1 1 + LX( 8X$X,XH.wXv.c c ",
"g g g g g g D 5 5 = : S.@ @ ^.qX7 A f.(.m.DXU >Xg g ",
"h h h h h h ; = = = X : { SX+X3 #X) B.uXR i.&.eXh h ",
"s s s s s s s 5 * * * 2 ; ] P g.5Xw.aX7.5.gXh.s s s ",
"r r r r r r r 6 * M M 5 D a.@.  ).6.dX} 3.| r r r r ",
"r r r r r r r r 6 = * 5 y.W.vXM.k.W NXZX+.J.r r r r ",
"i i i i i i i i i 9.- T.FX4. X  4XhXrXs.i i i i i i ",
"y y y y y y y y y y y l.`.c.|.F sX0Xy y y y y y y y ",
"9 9 9 9 9 9 9 9 9 9 9 9 9 9 9 9 9 9 9 9 9 9 9 9 9 9 ",
"e e e e e e e e e e e e e e e e e e e e e e e e e e "
};
