/* XPM */
static char *close_pressed[] = {
/* columns rows colors chars-per-pixel */
"26 25 256 2 ",
"   c #4C0014",
".  c #865548",
"X  c #93290B",
"o  c #7D1705",
"O  c #420011",
"+  c #470012",
"@  c #63172B",
"#  c #791907",
"$  c #6F1712",
"%  c #590215",
"&  c #61001A",
"*  c #DED3D5",
"=  c #BD9CA4",
"-  c #BD395E",
";  c #B31A38",
":  c #9F0326",
">  c #A80826",
",  c #66001B",
"<  c #C85E80",
"1  c #975B6B",
"2  c #D58BA5",
"3  c #762036",
"4  c #FEFEFC",
"5  c #DFAEC1",
"6  c #DFB0C2",
"7  c #6D001B",
"8  c #D896AD",
"9  c #CD6D8C",
"0  c #BC3459",
"q  c #880024",
"w  c #C34C70",
"e  c #7B001B",
"r  c #B52141",
"t  c #AF122E",
"y  c #950126",
"u  c #A40526",
"i  c #6D3A4A",
"p  c #520015",
"a  c #5D0819",
"s  c #6E3F4E",
"d  c #B44A68",
"f  c #714A57",
"g  c #714956",
"h  c #F5F0EC",
"j  c #A32C0C",
"k  c #5E0019",
"l  c #E6D9CE",
"z  c #3F0011",
"x  c #E5D6CD",
"c  c #B55372",
"v  c #600E20",
"b  c #701504",
"n  c #874422",
"m  c #BA536E",
"M  c #704036",
"N  c #663B34",
"B  c #5F2F24",
"V  c #BC4A60",
"C  c #961E3E",
"Z  c #7A1E12",
"A  c #BE697F",
"S  c #7B0323",
"D  c #6E001D",
"F  c #D288A2",
"G  c #943850",
"H  c #851835",
"J  c #9C495F",
"K  c #851633",
"L  c #BA526E",
"P  c #974157",
"I  c #805046",
"U  c #925666",
"Y  c #8E3241",
"T  c #A23F5B",
"R  c #AF6880",
"E  c #6E0D27",
"W  c #660F14",
"Q  c #883B50",
"!  c #754051",
"~  c #C16583",
"^  c #B0203F",
"/  c #884657",
"(  c #734957",
")  c #A8775F",
"_  c #8D374E",
"`  c #71444E",
"'  c #B9687D",
"]  c #6F1C10",
"[  c #7D1F08",
"{  c #651F22",
"}  c #620F03",
"|  c #9B0424",
" . c #9A3811",
".. c #943F56",
"X. c #9E495E",
"o. c #F6F1ED",
"O. c #BD5974",
"+. c #BE5A72",
"@. c #6A0018",
"#. c #713E45",
"$. c #BC5775",
"%. c #B16476",
"&. c #A83F5D",
"*. c #724A57",
"=. c #C9AD9E",
"-. c #681406",
";. c #6B180A",
":. c #620D23",
">. c #8E2F32",
",. c #B2938A",
"<. c #C05C71",
"1. c #BB4661",
"2. c #731D07",
"3. c #8E3110",
"4. c #A45468",
"5. c #A95F72",
"6. c #752035",
"7. c #8F5B4A",
"8. c #930125",
"9. c #AA596A",
"0. c #7F270B",
"q. c #744436",
"w. c #73100A",
"e. c #6C2F42",
"r. c #B06375",
"t. c #A62F0D",
"y. c #8B1D07",
"u. c #9B485E",
"i. c #A9300D",
"p. c #B94215",
"a. c #B0320E",
"s. c #570E21",
"d. c #914A5F",
"f. c #EEE5DD",
"g. c #853146",
"h. c #A46B7E",
"j. c #BE5878",
"k. c #8D394F",
"l. c #A63753",
"z. c #C47E96",
"x. c #AA3855",
"c. c #A67A8A",
"v. c #986E7C",
"b. c #967067",
"n. c #D197AC",
"m. c #A6596D",
"M. c #A2102B",
"N. c #82414D",
"B. c #A0786A",
"V. c #9B4A62",
"C. c #84253D",
"Z. c #89223D",
"A. c #902309",
"S. c #7D495A",
"D. c #992008",
"F. c #9D2B0C",
"G. c #C06277",
"H. c #793929",
"J. c #50040D",
"K. c #94596D",
"L. c #7F4637",
"P. c #66141F",
"I. c #C26178",
"U. c #73261F",
"Y. c #681F1B",
"T. c #8B472E",
"R. c #9F5065",
"E. c #810F2C",
"W. c #B04664",
"Q. c #67021D",
"!. c #91324B",
"~. c #9C556B",
"^. c #9B3F47",
"/. c #6C192F",
"(. c #862009",
"). c #9A5869",
"_. c #8B250A",
"`. c #A44D67",
"'. c #905232",
"]. c #93543D",
"[. c #943310",
"{. c #BD586F",
"}. c #B7435D",
"|. c #DAC6BD",
" X c #961E07",
".X c #76001F",
"XX c #85495C",
"oX c #AB3B12",
"OX c #89495D",
"+X c #B38C7C",
"@X c #BF5E74",
"#X c #C4A69B",
"$X c #68001C",
"%X c #8A3249",
"&X c #8D324E",
"*X c #AF4B68",
"=X c #781414",
"-X c #B64E6B",
";X c #714855",
":X c #720C09",
">X c #4C030F",
",X c #89503C",
"<X c #C14D70",
"1X c #C3687C",
"2X c #C46679",
"3X c #CCAF9F",
"4X c #641504",
"5X c #661F32",
"6X c #6A1708",
"7X c #831B06",
"8X c #D38DA5",
"9X c #DDCABE",
"0X c #892A36",
"qX c #BC647B",
"wX c #703436",
"eX c #7D031E",
"rX c #7A0D2A",
"tX c #C15F74",
"yX c #AD3F5F",
"uX c #BC4465",
"iX c #701805",
"pX c #761906",
"aX c #B96B7F",
"sX c #6F0710",
"dX c #A2566B",
"fX c #984B5F",
"gX c #A85C70",
"hX c #963B53",
"jX c #580C06",
"kX c #7D1A06",
"lX c #7E1E17",
"zX c #872F0E",
"xX c #8C5A4A",
"cX c #854121",
"vX c #5D0412",
"bX c #662034",
"nX c #973F57",
"mX c #B65473",
"MX c #9D3912",
"NX c #AB596C",
"BX c #7E2309",
"VX c #881B07",
"CX c #774436",
"ZX c #640B10",
"AX c #B66379",
"SX c #B7647A",
"DX c #8D2843",
"FX c #8D2A45",
"GX c #6A2E40",
"HX c #5A0018",
"JX c #B06274",
"KX c #BB6178",
"LX c #A62D0C",
"PX c #7A1E08",
"IX c #891C06",
"UX c #550016",
/* pixels */
": : : : : : : : : : : : : : : : : : : : : : : : : : ",
"> > > > > > > > > > > > > > > > > > > > > > > > > > ",
"; ; ; ; ; ; ; ; ; ; ; ; ; ; ; ; ; ; ; ; ; ; ; ; ; ; ",
"- - - - - - - - - - - - - - - - - - - - - - - - - - ",
"< < < < < < < < < < < < < mXc c j.< < < < < < < < < ",
"2 2 2 2 2 2 2 2 2 2 z.K.! i i i i XXR F 2 2 2 2 2 2 ",
"5 5 5 5 5 5 5 5 5 c.*.g g ` #.;X( S.OX~.n.5 5 5 5 5 ",
"6 6 6 6 6 6 6 6 v.f f wX] # kXpXU.N.d.V.`.n.6 6 6 6 ",
"8 8 8 8 8 8 8 h.s s Y.iX(.LXi.X [ 6XY T &.*X8X8 8 8 ",
"9 9 9 9 9 9 ~ e.GX{ B . 7.[.MX,XxXq.;.l.yXW.$.9 9 9 ",
"w w w w w w &XbX5X-.CX4 4 ) '.h 4 B.2.>.d d -X<Xw w ",
"0 0 0 0 0 0 /.@ P.7XBX+X4 o.l 4 =.3.F.Z O.L m uX0 0 ",
"r r r r r ^ v v W y.a. .3X4 4 l n p.t.# I.+.{.1.r r ",
"t t t t t M.a a ZXIXj zXx 4 4 f.cXoXj # 2XtX<.V t t ",
"u u u u u | % % vXo PX#X4 x 9X4 |.0.A.lX1XG.@X}.u u ",
"y y y y y 8.UXp p jXb.4 4 ].T.h 4 ,.4X^.A qXKXx.y y ",
"q q q q q q k     >XN I L._.X H.. M $ aX' SXAXC q q ",
"e e e e e e @.+ + + J.} o  XD.VXb $ 9.%.r.JXNXeXe e ",
"7 7 7 7 7 7 7   O O O % sX:Xw.=X0XX.4.m.gX5.C.7 7 7 ",
", , , , , , , & O z z   k D S H FXhXu.R.dXk., , , , ",
", , , , , , , , & + O   HX$X.XE.Z.!.nXJ %XQ., , , , ",
"3 3 3 3 3 3 3 3 3 6.@ s.:.E rXK DXG P g.3 3 3 3 3 3 ",
"1 1 1 1 1 1 1 1 1 1 1 U / Q _ ..fX).1 1 1 1 1 1 1 1 ",
"= = = = = = = = = = = = = = = = = = = = = = = = = = ",
"* * * * * * * * * * * * * * * * * * * * * * * * * * "
};
