/* XPM */
static char *hide_inactive[] = {
/* columns rows colors chars-per-pixel */
"27 25 256 2 ",
"   c #4E0C33",
".  c #530C33",
"X  c #330A28",
"o  c #4D0014",
"O  c #BA536E",
"+  c #440E34",
"@  c #42041C",
"#  c #460B2E",
"$  c #4B113D",
"%  c #5A011A",
"&  c #561031",
"*  c #470012",
"=  c #5D1D55",
"-  c #63172B",
";  c #1B0615",
":  c #5E1E58",
">  c #5A1951",
",  c #57174C",
"<  c #61001A",
"1  c #571345",
"2  c #490521",
"3  c #3D0621",
"4  c #170615",
"5  c #410113",
"6  c #430011",
"7  c #BD395E",
"8  c #BD9CA4",
"9  c #A80826",
"0  c #DED3D5",
"q  c #9F0326",
"w  c #B31A38",
"e  c #66001B",
"r  c #C85E80",
"t  c #975B6B",
"y  c #D58BA5",
"u  c #762036",
"i  c #DFAEC1",
"p  c #DFB0C2",
"a  c #D896AD",
"s  c #6D001B",
"d  c #CD6D8C",
"f  c #BC3459",
"g  c #C34C70",
"h  c #880024",
"j  c #7B001B",
"k  c #A40526",
"l  c #B52141",
"z  c #AF122E",
"x  c #950126",
"c  c #6D3A4A",
"v  c #410011",
"b  c #550016",
"n  c #520015",
"m  c #370620",
"M  c #3F0011",
"N  c #6E3F4E",
"B  c #B55372",
"V  c #600E20",
"C  c #B44A68",
"Z  c #714956",
"A  c #714A57",
"S  c #5E0019",
"D  c #5F215B",
"F  c #590215",
"G  c #5D0819",
"H  c #3C1A2A",
"J  c #620D23",
"K  c #420A19",
"L  c #A33857",
"P  c #BE697F",
"I  c #431A2A",
"U  c #943850",
"Y  c #7B0323",
"T  c #2C0821",
"R  c #84253D",
"E  c #984B5F",
"W  c #68424F",
"Q  c #6B3C5A",
"!  c #6C2039",
"~  c #B04664",
"^  c #612743",
"/  c #AF6880",
"(  c #8A415A",
")  c #853146",
"_  c #914A5F",
"`  c #D38DA5",
"'  c #9A5869",
"]  c #A67A8A",
"[  c #D288A2",
"{  c #8D324E",
"}  c #986E7C",
"|  c #930125",
" . c #AC5F72",
".. c #B16476",
"X. c #A23F5B",
"o. c #AA3855",
"O. c #BD5974",
"+. c #67021D",
"@. c #C14D70",
"#. c #6E0D27",
"$. c #5F0E28",
"%. c #C46679",
"&. c #5D1D48",
"*. c #C05C71",
"=. c #35051B",
"-. c #9B4A62",
";. c #A45468",
":. c #410820",
">. c #754051",
",. c #A85C70",
"<. c #210618",
"1. c #773E50",
"2. c #642841",
"3. c #45103A",
"4. c #60255A",
"5. c #541242",
"6. c #460829",
"7. c #8D394F",
"8. c #8D2A45",
"9. c #973F57",
"0. c #6E4367",
"q. c #9C495F",
"w. c #94596D",
"e. c #683864",
"r. c #280821",
"t. c #58174E",
"y. c #6C2F42",
"u. c #5F205B",
"i. c #883B50",
"p. c #91324B",
"a. c #5F3B48",
"s. c #4D0A2E",
"d. c #961E3E",
"f. c #A15F72",
"g. c #C06277",
"h. c #A46B7E",
"j. c #A6596D",
"k. c #602653",
"l. c #714A6A",
"z. c #925666",
"x. c #6C192F",
"c. c #7D495A",
"v. c #AB596C",
"b. c #9F5065",
"n. c #85495C",
"m. c #9C556B",
"M. c #884657",
"N. c #89495D",
"B. c #B7647A",
"V. c #61285B",
"C. c #380927",
"Z. c #65315C",
"A. c #591542",
"S. c #C3687C",
"D. c #8D374E",
"F. c #812E48",
"G. c #420615",
"H. c #2C0313",
"J. c #8A3249",
"K. c #4E2F3B",
"L. c #88374E",
"P. c #9B0424",
"I. c #A44D67",
"U. c #AF4B68",
"Y. c #724A57",
"T. c #BD586F",
"R. c #76001F",
"E. c #B0203F",
"W. c #C16583",
"Q. c #631F33",
"!. c #6A0018",
"~. c #D195AA",
"^. c #68001C",
"/. c #6E001D",
"(. c #BE5A72",
"). c #BF5E74",
"_. c #723046",
"`. c #4A0E38",
"'. c #7D031E",
"]. c #B64E6B",
"[. c #704855",
"{. c #BC4A60",
"}. c #734957",
"|. c #4F1241",
" X c #7B3D53",
".X c #5C1531",
"XX c #570E21",
"oX c #3B0A29",
"OX c #560D2F",
"+X c #B9687D",
"@X c #C26178",
"#X c #4D1023",
"$X c #5A194F",
"%X c #5C1E4D",
"&X c #BB6178",
"*X c #BC647B",
"=X c #7A0D2A",
"-X c #C15F74",
";X c #A83F5D",
":X c #AD3F5F",
">X c #BB4661",
",X c #BC4465",
"<X c #5A021E",
"1X c #662034",
"2X c #A2102B",
"3X c #560F39",
"4X c #6C3F5F",
"5X c #A2566B",
"6X c #612856",
"7X c #642E55",
"8X c #75334A",
"9X c #D099AD",
"0X c #A95F72",
"qX c #230E1B",
"wX c #9B485E",
"eX c #753E55",
"rX c #963B53",
"tX c #642C46",
"yX c #89223D",
"uX c #BE5878",
"iX c #65275D",
"pX c #5A1845",
"aX c #5D1E42",
"sX c #541445",
"dX c #430A2C",
"fX c #341825",
"gX c #752035",
"hX c #B7435D",
"jX c #591850",
"kX c #5B1A53",
"lX c #943F56",
"zX c #C47E96",
"xX c #B65473",
"cX c #5F215C",
"vX c #450827",
"bX c #6F4565",
"nX c #5D1D57",
"mX c #9E495E",
"MX c #B66379",
"NX c #974157",
"BX c #6A3A64",
"VX c #810F2C",
"CX c #2C0A26",
"ZX c #BC5775",
"AX c #59164A",
"SX c #8D2843",
"DX c #6A2E40",
"FX c #BA6C81",
"GX c #5E215A",
"HX c #4B0013",
"JX c #B06274",
"KX c #B06375",
"LX c #3E0620",
"PX c #3F0723",
"IX c #851734",
"UX c #430623",
/* pixels */
"q q q q q q q q q q q q q q q q q q q q q q q q q q q ",
"9 9 9 9 9 9 9 9 9 9 9 9 9 9 9 9 9 9 9 9 9 9 9 9 9 9 9 ",
"w w w w w w w w w w w w w w w w w w w w w w w w w w w ",
"7 7 7 7 7 7 7 7 7 7 7 7 7 7 7 7 7 7 7 7 7 7 7 7 7 7 7 ",
"r r r r r r r r r r r r r r xXB B uXr r r r r r r r r ",
"y y y y y y y y y y y zXw.>.c c c c n./ [ y y y y y y ",
"i i i i i i i i i i ] Y.Z Z W a.[.}.c.N.m.9Xi i i i i ",
"p p p p p p p p p } A A K.qX4 4 ; H 1._ -.I.~.p p p p ",
"a a a a a a a a h.N N fX4 r.dX  s.vX:.F.X.;XU.` a a a ",
"d d d d d d d W.y.DXI ; # 7XZ.k.pX3X& .XL :X~ ZXd d d ",
"g g g g g g g { 1XQ.; 6.0.e.V.= , |.+ OX( C C ].@.g g ",
"f f f f f f f x.- #X<.4XBX4.GXD nX, 3.oXeXO.O O ,Xf f ",
"l l l l l l E.V V K m l.6X= cXiXu.$X$ X tX@X(.T.>Xl l ",
"z z z z z z 2XG G G.LXbX%X> : D : t.$ CX2.%.-X*.{.z z ",
"k k k k k k P.F F o =.Q &.AX> kXjXsX+ T  XS.g.).hXk k ",
"x x x x x x | b n n H.^ aXA.1 1 5.`.X 3 f.P *X&Xo.x x ",
"h h h h h h h S o o 5 @ & . .   # C.m 8XFX+XB.MXd.h h ",
"j j j j j j j !.* * * 5 @ 2 UXPX3 2 _. ...KXJXv.'.j j ",
"s s s s s s s s HXv v 6 b % <X$.! L.mX;.j.,.0XR s s s ",
"e e e e e e e e < 6 M M o S /.Y IX8.rXwXb.5X7.e e e e ",
"e e e e e e e e e < * v o % ^.R.VXyXp.9.q.J.+.e e e e ",
"u u u u u u u u u u gX- XXJ #.=XIXSXU NX) u u u u u u ",
"t t t t t t t t t t t t z.M.i.D.lXE ' t t t t t t t t ",
"8 8 8 8 8 8 8 8 8 8 8 8 8 8 8 8 8 8 8 8 8 8 8 8 8 8 8 ",
"0 0 0 0 0 0 0 0 0 0 0 0 0 0 0 0 0 0 0 0 0 0 0 0 0 0 0 "
};
