/* XPM */
static char *hide_active[] = {
/* columns rows colors chars-per-pixel */
"27 25 256 2 ",
"   c #704856",
".  c #022A7D",
"X  c #851734",
"o  c #3B0424",
"O  c #023A9E",
"+  c #023EA6",
"@  c #0465D2",
"#  c #530015",
"$  c #023394",
"%  c #BA536E",
"&  c #045BA3",
"*  c #261A56",
"=  c #4C0014",
"-  c #022981",
";  c #420011",
":  c #011D72",
">  c #021B65",
",  c #470012",
"<  c #63172B",
"1  c #01217D",
"2  c #011D6D",
"3  c #011C6A",
"4  c #022D88",
"5  c #61001A",
"6  c #012679",
"7  c #011969",
"8  c #A80826",
"9  c #BD9CA4",
"0  c #DED3D5",
"q  c #B31A38",
"w  c #9F0326",
"e  c #BD395E",
"r  c #66001B",
"t  c #C85E80",
"y  c #975B6B",
"u  c #D58BA5",
"i  c #762036",
"p  c #DFAEC1",
"a  c #DFB0C2",
"s  c #6D001B",
"d  c #D896AD",
"f  c #CD6D8C",
"g  c #C34C70",
"h  c #BC3459",
"j  c #880024",
"k  c #7B001B",
"l  c #A40526",
"z  c #950126",
"x  c #AF122E",
"c  c #B52141",
"v  c #6D3A4A",
"b  c #B44A68",
"n  c #714A57",
"m  c #B55372",
"M  c #5E0019",
"N  c #6E3F4E",
"B  c #590215",
"V  c #5D0819",
"C  c #3F0011",
"Z  c #600E20",
"A  c #456F9D",
"S  c #012E94",
"D  c #B06375",
"F  c #BCCEDE",
"G  c #0464A8",
"H  c #BCCADA",
"J  c #943850",
"K  c #B0203F",
"L  c #5A0018",
"P  c #455E8C",
"I  c #A2566B",
"U  c #BCC6D7",
"Y  c #021A62",
"T  c #B66379",
"R  c #B06274",
"E  c #914A5F",
"W  c #503063",
"Q  c #B9687D",
"!  c #344871",
"~  c #0468D9",
"^  c #01337A",
"/  c #52011B",
"(  c #0345A9",
")  c #0354C3",
"_  c #011F79",
"`  c #291E57",
"'  c #B86B81",
"]  c #9A5869",
"[  c #012280",
"{  c #BF5E74",
"}  c #081257",
"|  c #6F3359",
" . c #67021D",
".. c #034891",
"X. c #0587F2",
"o. c #8D324E",
"O. c #6A0018",
"+. c #D288A2",
"@. c #BD5974",
"#. c #6F3F69",
"$. c #BBC6D5",
"%. c #B04664",
"&. c #034BB9",
"*. c #734957",
"=. c #C26178",
"-. c #C46679",
";. c #120F4D",
":. c #C47E96",
">. c #961E3E",
",. c #0345AD",
"<. c #012267",
"1. c #012B8C",
"2. c #BC4465",
"3. c #455D87",
"4. c #04155D",
"5. c #B16476",
"6. c #A85C70",
"7. c #9B485E",
"8. c #963B53",
"9. c #034A96",
"0. c #A83F5D",
"q. c #011B70",
"w. c #9E495E",
"e. c #262356",
"r. c #943F56",
"t. c #9C495F",
"y. c #8D2843",
"u. c #6A2E40",
"i. c #012984",
"p. c #6C192F",
"a. c #810F2C",
"s. c #A2102B",
"d. c #4571A0",
"f. c #9B4A62",
"g. c #9A385C",
"h. c #02359F",
"j. c #456694",
"k. c #456897",
"l. c #A23F5B",
"z. c #AA3855",
"x. c #853146",
"c. c #0351BC",
"v. c #8D394F",
"b. c #C3687C",
"n. c #621F35",
"m. c #0B1C60",
"M. c #A46B7E",
"N. c #D38DA5",
"B. c #BE5878",
"V. c #C06277",
"C. c #925666",
"Z. c #3A224B",
"A. c #986E7C",
"S. c #AB596C",
"D. c #A67A8A",
"F. c #490421",
"G. c #9C556B",
"H. c #570E21",
"J. c #754051",
"K. c #D195AA",
"L. c #3A1037",
"P. c #012577",
"I. c #191F5F",
"U. c #974157",
"Y. c #94596D",
"T. c #463558",
"R. c #5B3E57",
"E. c #A35970",
"W. c #9B0424",
"Q. c #A44D67",
"!. c #AF4B68",
"~. c #111D5A",
"^. c #1B1150",
"/. c #471538",
"(. c #76001F",
"). c #A6596D",
"_. c #85495C",
"`. c #884657",
"'. c #89495D",
"]. c #02308F",
"[. c #B7435D",
"{. c #68001C",
"}. c #6E001D",
"|. c #BE5A72",
" X c #0236A3",
".X c #8A3249",
"XX c #652A52",
"oX c #8D374E",
"OX c #B64E6B",
"+X c #C14D70",
"@X c #3A0B31",
"#X c #A45468",
"$X c #883B50",
"%X c #2D154F",
"&X c #724A57",
"*X c #BE697F",
"=X c #91324B",
"-X c #023898",
";X c #0466D6",
":X c #01217A",
">X c #D099AD",
",X c #664456",
"<X c #022E86",
"1X c #BCCDDE",
"2X c #9F5065",
"3X c #7D031E",
"4X c #BB6178",
"5X c #BC4A60",
"6X c #BC647B",
"7X c #7B0323",
"8X c #C05C71",
"9X c #C15F74",
"0X c #046DDB",
"qX c #0249B5",
"wX c #AD3F5F",
"eX c #70415C",
"rX c #BB4661",
"tX c #047EED",
"yX c #047CE9",
"uX c #7D495A",
"iX c #6E0D27",
"pX c #061859",
"aX c #08185B",
"sX c #C16583",
"dX c #023680",
"fX c #A95F72",
"gX c #984B5F",
"hX c #662034",
"jX c #89223D",
"kX c #84253D",
"lX c #023AA7",
"zX c #122653",
"xX c #061B61",
"cX c #752035",
"vX c #022D8B",
"bX c #BD586F",
"nX c #022E8B",
"mX c #011F74",
"MX c #930125",
"NX c #AF6880",
"BX c #1E0D4C",
"VX c #28275A",
"CX c #BCCFDF",
"ZX c #973F57",
"AX c #39083A",
"SX c #B65473",
"DX c #034EB9",
"FX c #BC5775",
"GX c #B7647A",
"HX c #620D23",
"JX c #0247AF",
"KX c #8D2A45",
"LX c #BCCADB",
"PX c #6C2F42",
"IX c #0349B1",
"UX c #7A0D2A",
/* pixels */
"w w w w w w w w w w w w w w w w w w w w w w w w w w w ",
"8 8 8 8 8 8 8 8 8 8 8 8 8 8 8 8 8 8 8 8 8 8 8 8 8 8 8 ",
"q q q q q q q q q q q q q q q q q q q q q q q q q q q ",
"e e e e e e e e e e e e e e e e e e e e e e e e e e e ",
"t t t t t t t t t t t t t t SXm m B.t t t t t t t t t ",
"u u u u u u u u u u u :.Y.J.v v v v _.NX+.u u u u u u ",
"p p p p p p p p p p D.&Xn n ,XR.  *.uX'.G.>Xp p p p p ",
"a a a a a a a a a A.n n T.~.> 3 Y VXeXE f.Q.K.a a a a ",
"d d d d d d d d M.N N e.3 - ].$ nX6 xX| l.0.!.N.d d d ",
"f f f f f f f sXPXu.Z.2 vX+ qXDXIXO - m.g.wX%.FXf f f ",
"g g g g g g g o.hXn.aXi.+ ) ;X0X@ c.O P.W b b OX+Xg g ",
"h h h h h h h p.< /.2 $ &.~ tXX.yX@ JX4 I.@.% % 2.h h ",
"c c c c c c K Z Z L.mX<XdX9.& G & ..^ . > =.|.bXrXc c ",
"x x x x x x s.V V @X: <.U LXF CX1XH $.! pX-.9X8X5Xx x ",
"l l l l l l W.B B F.7 6 P k.A d.A j.3.zX` b.V.{ [.l l ",
"z z z z z z MX# # # ;.:X4 O ,.IX( -X. 3 #.*X6X4Xz.z z ",
"j j j j j j j M = = o 4.1 S  XlXh.1.mX* ' Q GXT >.j j ",
"k k k k k k k O., , , o } q.1 [ _ 7 * E.5.D R S.3Xk k ",
"s s s s s s s s = ; ; ; / AXBX^.%XXXw.#X).6.fXkXs s s ",
"r r r r r r r r 5 ; C C = M }.7XX KX8.7.2XI v.r r r r ",
"r r r r r r r r r 5 , ; = L {.(.a.jX=XZXt..X .r r r r ",
"i i i i i i i i i i cX< H.HXiXUXX y.J U.x.i i i i i i ",
"y y y y y y y y y y y y C.`.$XoXr.gX] y y y y y y y y ",
"9 9 9 9 9 9 9 9 9 9 9 9 9 9 9 9 9 9 9 9 9 9 9 9 9 9 9 ",
"0 0 0 0 0 0 0 0 0 0 0 0 0 0 0 0 0 0 0 0 0 0 0 0 0 0 0 "
};
