/* XPM */
static char *hide_prelight[] = {
/* columns rows colors chars-per-pixel */
"27 25 256 2 ",
"   c #02153E",
".  c #455A71",
"X  c #470012",
"o  c #63172B",
"O  c #08092D",
"+  c #03264A",
"@  c #261434",
"#  c #021E4F",
"$  c #011541",
"%  c #030E32",
"&  c #4D0014",
"*  c #61001A",
"=  c #032E52",
"-  c #010E34",
";  c #021A4B",
":  c #010E38",
">  c #430011",
",  c #01133D",
"<  c #01113E",
"1  c #011039",
"2  c #01103D",
"3  c #010F36",
"4  c #010D35",
"5  c #9F0326",
"6  c #DED3D5",
"7  c #BD9CA4",
"8  c #BD395E",
"9  c #A80826",
"0  c #B31A38",
"q  c #66001B",
"w  c #C85E80",
"e  c #975B6B",
"r  c #D58BA5",
"t  c #762036",
"y  c #DFAEC1",
"u  c #DFB0C2",
"i  c #6D001B",
"p  c #D896AD",
"a  c #CD6D8C",
"s  c #880024",
"d  c #C34C70",
"f  c #BC3459",
"g  c #7B001B",
"h  c #A40526",
"j  c #B52141",
"k  c #950126",
"l  c #AF122E",
"z  c #6D3A4A",
"x  c #410011",
"c  c #5D0819",
"v  c #BCC5CD",
"b  c #590215",
"n  c #3F0011",
"m  c #6E3F4E",
"M  c #B44A68",
"N  c #B55372",
"B  c #600E20",
"V  c #520015",
"C  c #714A57",
"Z  c #022558",
"A  c #5E0019",
"S  c #714956",
"D  c #021744",
"F  c #A67A8A",
"G  c #BC647B",
"H  c #A46B7E",
"J  c #04356B",
"K  c #A23F5B",
"L  c #B66379",
"P  c #754051",
"I  c #463147",
"U  c #9C4A61",
"Y  c #B0203F",
"T  c #67021D",
"R  c #C46679",
"E  c #D099AD",
"W  c #8D324E",
"Q  c #032B62",
"!  c #343D51",
"~  c #A85C70",
"^  c #B86B80",
"/  c #AB596C",
"(  c #C16583",
")  c #021846",
"_  c #AF4B68",
"`  c #884657",
"'  c #68001C",
"]  c #810F2C",
"[  c #021B4F",
"{  c #664352",
"}  c #652843",
"|  c #925666",
" . c #455B72",
".. c #943850",
"X. c #961E3E",
"o. c #044579",
"O. c #3D0219",
"+. c #974157",
"@. c #B06375",
"#. c #9F5065",
"$. c #A3596D",
"%. c #6F304D",
"&. c #022053",
"*. c #121C33",
"=. c #9B485E",
"-. c #A45468",
";. c #6E0D27",
":. c #84253D",
">. c #752035",
",. c #943F56",
"<. c #5B3C4E",
"1. c #BA536E",
"2. c #021843",
"3. c #021D4C",
"4. c #2D1031",
"5. c #032456",
"6. c #032658",
"7. c #8D2A45",
"8. c #BCC3CB",
"9. c #5A0018",
"0. c #851633",
"q. c #021948",
"w. c #853146",
"e. c #550016",
"r. c #043469",
"t. c #021F53",
"y. c #03285D",
"u. c #032A5E",
"i. c #9A3757",
"p. c #9A5869",
"a. c #BD586F",
"s. c #883B50",
"d. c #520018",
"f. c #D38DA5",
"g. c #BC5775",
"h. c #94596D",
"j. c #C06277",
"k. c #C3687C",
"l. c #011133",
"z. c #703F54",
"x. c #0B1033",
"c. c #021E54",
"v. c #6C192F",
"b. c #B16476",
"n. c #7D495A",
"m. c #011B3D",
"M. c #261D38",
"N. c #281F3C",
"B. c #455166",
"V. c #9B0424",
"C. c #A44D67",
"Z. c #91324B",
"A. c #B64E6B",
"S. c #76001F",
"D. c #BE697F",
"F. c #914A5F",
"G. c #85495C",
"H. c #89495D",
"J. c #6A0018",
"K. c #6C2F42",
"L. c #BE5A72",
"P. c #6F3C58",
"I. c #BF5E74",
"U. c #621F34",
"Y. c #8A3249",
"T. c #D195AA",
"R. c #8D374E",
"E. c #BE5878",
"W. c #455268",
"Q. c #47122C",
"!. c #C14D70",
"~. c #45566C",
"^. c #C15F74",
"/. c #3A1D37",
"(. c #734957",
"). c #04386E",
"_. c #BCC1C9",
"`. c #B9687D",
"'. c #C26178",
"]. c #724A57",
"[. c #A2102B",
"{. c #BC4A60",
"}. c #9C556B",
"|. c #B04664",
" X c #04356C",
".X c #033355",
"XX c #060F31",
"oX c #7D031E",
"OX c #011240",
"+X c #BB6178",
"@X c #7B0323",
"#X c #C05C71",
"$X c #A83F5D",
"%X c #AD3F5F",
"&X c #BB4661",
"*X c #BC4465",
"=X c #111434",
"-X c #AF6880",
";X c #191537",
":X c #662034",
">X c #A2566B",
",X c #984B5F",
"<X c #A95F72",
"1X c #03275D",
"2X c #963B53",
"3X c #89223D",
"4X c #A6596D",
"5X c #930125",
"6X c #043369",
"7X c #D288A2",
"8X c #390424",
"9X c #120829",
"0X c #1E072A",
"qX c #1B0A2C",
"wX c #973F57",
"eX c #B65473",
"rX c #BCC5CC",
"tX c #C47E96",
"yX c #021C40",
"uX c #7A0D2A",
"iX c #291535",
"pX c #BBC1C8",
"aX c #032355",
"sX c #6E001D",
"dX c #9E495E",
"fX c #02265B",
"gX c #B7647A",
"hX c #620D23",
"jX c #8D2843",
"kX c #6A2E40",
"lX c #BCC3CA",
"zX c #B7435D",
"xX c #BD5974",
"cX c #B06274",
"vX c #704856",
"bX c #986E7C",
"nX c #45566E",
"mX c #851835",
"MX c #8D394F",
"NX c #040B30",
"BX c #3A0821",
"VX c #3A0C25",
"CX c #01184A",
"ZX c #AA3855",
"AX c #011647",
"SX c #021746",
"DX c #044075",
"FX c #570E21",
"GX c #044177",
"HX c #BA526E",
"JX c #4B0013",
"KX c #50294A",
"LX c #021C52",
"PX c #39021A",
"IX c #070D2F",
"UX c #490319",
/* pixels */
"5 5 5 5 5 5 5 5 5 5 5 5 5 5 5 5 5 5 5 5 5 5 5 5 5 5 5 ",
"9 9 9 9 9 9 9 9 9 9 9 9 9 9 9 9 9 9 9 9 9 9 9 9 9 9 9 ",
"0 0 0 0 0 0 0 0 0 0 0 0 0 0 0 0 0 0 0 0 0 0 0 0 0 0 0 ",
"8 8 8 8 8 8 8 8 8 8 8 8 8 8 8 8 8 8 8 8 8 8 8 8 8 8 8 ",
"w w w w w w w w w w w w w w eXN N E.w w w w w w w w w ",
"r r r r r r r r r r r tXh.P z z z z G.-X7Xr r r r r r ",
"y y y y y y y y y y F ].S S { <.vX(.n.H.}.E y y y y y ",
"u u u u u u u u u bXC C I =X- - % N.z.F.U C.T.u u u u ",
"p p p p p p p p H m m M.3 $ q.; ) , XX%.K $X_ f.p p p ",
"a a a a a a a ( K.kX/.3 SXt.fXy.Z # $ x.i.%X|.g.a a a ",
"d d d d d d d W :XU.IX$ &.Q J ).r.u.# , KXM M A.!.d d ",
"f f f f f f f v.o Q.3 ; 1X XGXo.DX6XZ D ;XxXHX1.*Xf f ",
"j j j j j j Y B B VX1 2.yX+ = .X= + m.  % '.L.a.&Xj j ",
"l l l l l l [.c c BX1 l._.8.v v rXlXpX! IXR ^.#X{.l l ",
"h h h h h h V.b b UX4 , W.nX.  .. ~.B.*.iXk.j.I.zXh h ",
"k k k k k k 5Xe.V V 9X< D # 5.6.aX3.  3 P.D.G +XZXk k ",
"s s s s s s s A & & O.NX< CXLXc.[ AX1 @ ^ `.gXL X.s s ",
"g g g g g g g J.X X X PXO : < OX2 4 @ $.b.@.cX/ oXg g ",
"i i i i i i i i JXx x > d.8X0XqX4.} dX-.4X~ <X:.i i i ",
"q q q q q q q q * > n n & A sX@XmX7.2X=.#.>XMXq q q q ",
"q q q q q q q q q * X x & 9.' S.] 3XZ.wX=.Y.T q q q q ",
"t t t t t t t t t t >.o FXhX;.uX0.jX..+.w.t t t t t t ",
"e e e e e e e e e e e e | ` s.R.,.,Xp.e e e e e e e e ",
"7 7 7 7 7 7 7 7 7 7 7 7 7 7 7 7 7 7 7 7 7 7 7 7 7 7 7 ",
"6 6 6 6 6 6 6 6 6 6 6 6 6 6 6 6 6 6 6 6 6 6 6 6 6 6 6 "
};
