/* XPM */
static char *hide_pressed[] = {
/* columns rows colors chars-per-pixel */
"27 25 256 2 ",
"   c #9A260A",
".  c #8D2944",
"X  c #95270B",
"o  c #BC3B11",
"O  c #6B2F41",
"+  c #5A0018",
"@  c #B06375",
"#  c #8A1D07",
"$  c #851734",
"%  c #C34516",
"&  c #921E07",
"*  c #761A0A",
"=  c #A36C51",
"-  c #BA536E",
";  c #DF5D1F",
":  c #4C0014",
">  c #821B06",
",  c #420011",
"<  c #961F07",
"1  c #470012",
"2  c #B23710",
"3  c #63172B",
"4  c #7A1914",
"5  c #8F2309",
"6  c #590215",
"7  c #791907",
"8  c #5F0019",
"9  c #A80826",
"0  c #B31A38",
"q  c #9F0326",
"w  c #BD395E",
"e  c #BD9CA4",
"r  c #DED3D5",
"t  c #66001B",
"y  c #C85E80",
"u  c #975B6B",
"i  c #D58BA5",
"p  c #762036",
"a  c #DFAEC1",
"s  c #DFB0C2",
"d  c #6D001B",
"f  c #D896AD",
"g  c #CD6D8C",
"h  c #C34C70",
"j  c #BC3459",
"k  c #880024",
"l  c #7B001B",
"z  c #B52141",
"x  c #950126",
"c  c #AF122E",
"v  c #A40526",
"b  c #6D3A4A",
"n  c #520015",
"m  c #5D0819",
"M  c #B44A68",
"N  c #3F0011",
"B  c #7F1B06",
"V  c #6E3F4E",
"C  c #714A57",
"Z  c #B55372",
"A  c #714956",
"S  c #610E21",
"D  c #66141F",
"F  c #DDC9C0",
"G  c #883B50",
"H  c #7E1705",
"J  c #B7647A",
"K  c #AB596C",
"L  c #661F32",
"P  c #A67A8A",
"I  c #B65473",
"U  c #C26178",
"Y  c #640B10",
"T  c #A85C70",
"R  c #DECCC1",
"E  c #994316",
"W  c #DCC9C0",
"Q  c #91324B",
"!  c #BD5974",
"~  c #76001F",
"^  c #662034",
"/  c #D099AD",
"(  c #AA3855",
")  c #8D324E",
"_  c #943850",
"`  c #A46B7E",
"'  c #7A4639",
"]  c #9D4517",
"[  c #BC5775",
"{  c #8E2F32",
"}  c #772009",
"|  c #BC4465",
" . c #A5531D",
".. c #B16476",
"X. c #540310",
"o. c #B04664",
"O. c #58040E",
"+. c #CA4615",
"@. c #884657",
"#. c #68001C",
"$. c #BD586F",
"%. c #BB6178",
"&. c #8A3249",
"*. c #E35F1F",
"=. c #8E3310",
"-. c #AC2F0D",
";. c #761906",
":. c #A12C0C",
">. c #A5290B",
",. c #E66020",
"<. c #71444E",
"1. c #992008",
"2. c #7B0323",
"3. c #C15F74",
"4. c #A83F5D",
"5. c #986E7C",
"6. c #B7435D",
"7. c #D8C5BE",
"8. c #9B485E",
"9. c #701104",
"0. c #B8320E",
"q. c #DFCCC1",
"w. c #9E664E",
"e. c #754051",
"r. c #9B2C0C",
"t. c #9D2B0C",
"y. c #7D1A06",
"u. c #CD4A17",
"i. c #943F56",
"p. c #8C2309",
"a. c #D195AA",
"s. c #BC4114",
"d. c #7D495A",
"f. c #D288A2",
"g. c #570E21",
"h. c #A6596D",
"j. c #974157",
"k. c #914A5F",
"l. c #853146",
"z. c #8E3241",
"x. c #9F5065",
"c. c #A63753",
"v. c #BE5878",
"b. c #A23F5B",
"n. c #AF6880",
"m. c #D45019",
"M. c #810F2C",
"N. c #A2566B",
"B. c #961E3E",
"V. c #A2102B",
"C. c #6E1706",
"Z. c #73100A",
"A. c #A9300D",
"S. c #6F0710",
"D. c #B0203F",
"F. c #B33810",
"G. c #AC3610",
"H. c #7A1E12",
"J. c #84253D",
"K. c #89223D",
"L. c #67021D",
"P. c #A44D67",
"I. c #94596D",
"U. c #C06277",
"Y. c #C3687C",
"T. c #6F211D",
"R. c #6C0E07",
"E. c #720C09",
"W. c #9C556B",
"Q. c #703436",
"!. c #8D394F",
"~. c #9B3F47",
"^. c #905B4B",
"/. c #9B0424",
"(. c #D38DA5",
"). c #AF4B68",
"_. c #BE697F",
"`. c #EF7227",
"'. c #6E0D27",
"]. c #734957",
"[. c #781414",
"{. c #F37427",
"}. c #F47A2A",
"|. c #85495C",
" X c #89495D",
".X c #6A0018",
"XX c #713E45",
"oX c #BE5A72",
"OX c #5E2416",
"+X c #BF5E74",
"@X c #73261F",
"#X c #6F1C10",
"$X c #925666",
"%X c #8D374E",
"&X c #B64E6B",
"*X c #C04314",
"=X c #C54415",
"-X c #714855",
";X c #C47E96",
":X c #C14D70",
">X c #724A57",
",X c #6C192F",
"<X c #A22B0B",
"1X c #A65A20",
"2X c #A62D0C",
"3X c #C46679",
"4X c #E76522",
"5X c #C16583",
"6X c #7A1D16",
"7X c #8E280B",
"8X c #A46F52",
"9X c #955E4B",
"0X c #892A36",
"qX c #721607",
"wX c #7D031E",
"eX c #BC647B",
"rX c #7A0D2A",
"tX c #C05C71",
"yX c #873110",
"uX c #AD3F5F",
"iX c #BB4661",
"pX c #B9687D",
"aX c #B96B7F",
"sX c #881905",
"dX c #CD4D18",
"fX c #A45468",
"gX c #DAC6BE",
"hX c #984B5F",
"jX c #9B4A62",
"kX c #A95F72",
"lX c #751304",
"zX c #BD330E",
"xX c #C0360F",
"cX c #DFCDC1",
"vX c #963B53",
"bX c #9B644E",
"nX c #6E001D",
"mX c #752035",
"MX c #6C2124",
"NX c #550016",
"BX c #BC4A60",
"VX c #9D290B",
"CX c #AD2B0B",
"ZX c #930125",
"AX c #82414D",
"SX c #7F1805",
"DX c #CF4816",
"FX c #5D0412",
"GX c #973F57",
"HX c #AA596A",
"JX c #A3521C",
"KX c #9C495F",
"LX c #9E495E",
"PX c #660F14",
"IX c #B66379",
"UX c #9A5869",
/* pixels */
"q q q q q q q q q q q q q q q q q q q q q q q q q q q ",
"9 9 9 9 9 9 9 9 9 9 9 9 9 9 9 9 9 9 9 9 9 9 9 9 9 9 9 ",
"0 0 0 0 0 0 0 0 0 0 0 0 0 0 0 0 0 0 0 0 0 0 0 0 0 0 0 ",
"w w w w w w w w w w w w w w w w w w w w w w w w w w w ",
"y y y y y y y y y y y y y y I Z Z v.y y y y y y y y y ",
"i i i i i i i i i i i ;XI.e.b b b b |.n.f.i i i i i i ",
"a a a a a a a a a a P >XA A <.XX-X].d. XW./ a a a a a ",
"s s s s s s s s s 5.C C Q.#X7 y.;.@XAXk.jXP.a.s s s s ",
"f f f f f f f f ` V V T.B   2XA.:.5 * z.b.4.).(.f f f ",
"g g g g g g g 5XO O MX> <Xo +.u.=X2 X * c.uXo.[ g g g ",
"h h h h h h h ) ^ L qX  o m.*.4X; dX2 p.{ M M &X:Xh h ",
"j j j j j j j ,X3 D > -.DX,.{.}.`.; % t.H.! - - | j j ",
"z z z z z z D.S S PX# r.=.]  .1XJXE yX7X7 U oX$.iXz z ",
"c c c c c c V.m m Y # } gXF q.cXR W 7.' C.3X3.tXBXc c ",
"v v v v v v /.6 6 FXH 5 9Xw.= 8X= bX^.OX6XY.U.+X6.v v ",
"x x x x x x ZXNXn n R.& VXF.*X% s.G.X B ~._.eX%.( x x ",
"k k k k k k k 8 : : X.lX< CXzXxX0.>.# 4 aXpXJ IXB.k k ",
"l l l l l l l .X1 1 1 O.9.sX< 1.& SX4 HX..@ @ K wXl l ",
"d d d d d d d d : , , , 6 S.E.Z.[.0XLXfXh.T kXJ.d d d ",
"t t t t t t t t 8 , N N : 8 nX2.$ . vX8.x.N.!.t t t t ",
"t t t t t t t t t 8 1 , : + #.~ M.K.Q GXKX&.L.t t t t ",
"p p p p p p p p p p mX3 g.S '.rX$ . _ j.l.p p p p p p ",
"u u u u u u u u u u u u $X@.G %Xi.hXUXu u u u u u u u ",
"e e e e e e e e e e e e e e e e e e e e e e e e e e e ",
"r r r r r r r r r r r r r r r r r r r r r r r r r r r "
};
