/* XPM */
static char *maximize_toggled_prelight[] = {
/* columns rows colors chars-per-pixel */
"26 25 256 2 ",
"   c #123D01",
".  c #0C3D00",
"X  c #0D3600",
"o  c #083200",
"O  c #072900",
"+  c #134101",
"@  c #0E3E00",
"#  c #4D0014",
"$  c #072C00",
"%  c #61001A",
"&  c #104700",
"*  c #0C2903",
"=  c #0E3C00",
"-  c #062A00",
";  c #0C3900",
":  c #282612",
">  c #083000",
",  c #430011",
"<  c #DED3D5",
"1  c #BD395E",
"2  c #B31A38",
"3  c #9F0326",
"4  c #BD9CA4",
"5  c #A80826",
"6  c #66001B",
"7  c #C85E80",
"8  c #975B6B",
"9  c #D58BA5",
"0  c #762036",
"q  c #DFAEC1",
"w  c #DFB0C2",
"e  c #6D001B",
"r  c #D896AD",
"t  c #CD6D8C",
"y  c #BC3459",
"u  c #C34C70",
"i  c #880024",
"p  c #7B001B",
"a  c #B42141",
"s  c #A40526",
"d  c #AF122E",
"f  c #950126",
"g  c #6D3A4A",
"h  c #410011",
"j  c gray100",
"k  c #470011",
"l  c #590215",
"z  c #D0D8CC",
"x  c #6E3F4E",
"c  c #134700",
"v  c #0B3700",
"b  c #5E0019",
"n  c #144C00",
"m  c #714A57",
"M  c #B55372",
"N  c #3F0011",
"B  c #600E20",
"V  c #520015",
"C  c #B44A68",
"Z  c #714956",
"A  c #5D0819",
"S  c #BE5878",
"D  c #63162B",
"F  c #974157",
"G  c #470013",
"H  c #0F4100",
"J  c #A23F5B",
"K  c #0A3300",
"L  c #9A5869",
"P  c #68001C",
"I  c #1F1A08",
"U  c #A85C70",
"Y  c #185301",
"T  c #A83F5D",
"R  c #B1BEAA",
"E  c #738A67",
"W  c #AA3855",
"Q  c #134900",
"!  c #62172A",
"~  c #914A5F",
"^  c #C46679",
"/  c #734957",
"(  c #6E001D",
")  c #597845",
"_  c #67021D",
"`  c #84253D",
"'  c #39100F",
"]  c #570E21",
"[  c #620D23",
"{  c #276F01",
"}  c #AF6880",
"|  c #754051",
" . c #282D1B",
".. c #D288A2",
"X. c #A2566B",
"o. c #C14D70",
"O. c #BE5A72",
"+. c #6A0018",
"@. c #883B50",
"#. c #943F56",
"$. c #851633",
"%. c #853146",
"&. c #523830",
"*. c #8D374E",
"=. c #94596D",
"-. c #2F5812",
";. c #7D495A",
":. c #C05C71",
">. c #A6596D",
",. c #BB4661",
"<. c #4A0711",
"1. c #550016",
"2. c #1A5901",
"3. c #984B5F",
"4. c #943850",
"5. c #103801",
"6. c #653035",
"7. c #986E7C",
"8. c #9F5065",
"9. c #9C495F",
"0. c #B7647A",
"q. c #256B01",
"w. c #0D4000",
"e. c #728967",
"r. c #B06274",
"t. c #48191F",
"y. c #3B1613",
"u. c #0A2C00",
"i. c #BA526E",
"p. c #0B2102",
"a. c #114A00",
"s. c #5B4145",
"d. c #869D78",
"f. c #6E0D27",
"g. c #072401",
"h. c #C47E96",
"j. c #3B2923",
"k. c #C06277",
"l. c #925666",
"z. c #C3687C",
"x. c #BC5775",
"c. c #9A3952",
"v. c #2A301C",
"b. c #225A01",
"n. c #B04664",
"m. c #91324B",
"M. c #39090E",
"N. c #A67A8A",
"B. c #8D394F",
"V. c #3D0710",
"C. c #151C05",
"Z. c #752035",
"A. c #1C5A01",
"S. c #BE697F",
"D. c #9B0424",
"F. c #A2102B",
"G. c #A46B7E",
"H. c #A44D67",
"J. c #E1E6DD",
"K. c #961E3E",
"L. c #2D2914",
"P. c #BD586F",
"I. c #B9687D",
"U. c #76001F",
"Y. c #276601",
"T. c #85495C",
"R. c #884657",
"E. c #5E7556",
"W. c #89495D",
"Q. c #BD5974",
"!. c #BF5E74",
"~. c #AF4B68",
"^. c #8A3249",
"/. c #8D324E",
"(. c #BC647B",
"). c #704955",
"_. c #1E3F12",
"`. c #67454E",
"'. c #724A57",
"]. c #6C192F",
"[. c #C26178",
"{. c #B64E6B",
"}. c #473B35",
"|. c #C16583",
" X c #714646",
".X c #71444D",
"XX c #112805",
"oX c #D099AD",
"OX c #1D2B0E",
"+X c #BB6178",
"@X c #154601",
"#X c #7D031E",
"$X c #092901",
"%X c #14290C",
"&X c #7A0D2A",
"*X c #C15F74",
"=X c #A35B6A",
"-X c #AD3F5F",
";X c #B86B7F",
":X c #BC4465",
">X c #4B0013",
",X c #D195AA",
"<X c #9B4A62",
"1X c #B16476",
"2X c #A45468",
"3X c #B7435D",
"4X c #1D5E01",
"5X c #9B485E",
"6X c #A95F72",
"7X c #BC4A60",
"8X c #963B53",
"9X c #143A01",
"0X c #89223D",
"qX c #703740",
"wX c #154E00",
"eX c #2E2112",
"rX c #930125",
"tX c #C1CCBB",
"yX c #973F57",
"uX c #B65473",
"iX c #D38DA5",
"pX c #622032",
"aX c #662034",
"sX c #093400",
"dX c #CFD6CC",
"fX c #0B3400",
"gX c #9E495E",
"hX c #B66379",
"jX c #8D2843",
"kX c #8D2A45",
"lX c #6A2E40",
"zX c #6C2F42",
"xX c #5A0018",
"cX c #204312",
"vX c #0F4300",
"bX c #810F2C",
"nX c #124300",
"mX c #B06375",
"MX c #851835",
"NX c #317D01",
"BX c #3B1210",
"VX c #246901",
"CX c #082D00",
"ZX c #AB596C",
"AX c #082F00",
"SX c #072E00",
"DX c #195501",
"FX c #9C556B",
"GX c #BA536E",
"HX c #0C2504",
"JX c #1C1D08",
"KX c #7B0323",
"LX c #174501",
"PX c #520214",
"IX c #144B00",
"UX c #154A01",
/* pixels */
"3 3 3 3 3 3 3 3 3 3 3 3 3 3 3 3 3 3 3 3 3 3 3 3 3 3 ",
"5 5 5 5 5 5 5 5 5 5 5 5 5 5 5 5 5 5 5 5 5 5 5 5 5 5 ",
"2 2 2 2 2 2 2 2 2 2 2 2 2 2 2 2 2 2 2 2 2 2 2 2 2 2 ",
"1 1 1 1 1 1 1 1 1 1 1 1 1 1 1 1 1 1 1 1 1 1 1 1 1 1 ",
"7 7 7 7 7 7 7 7 7 7 7 7 7 uXM M S 7 7 7 7 7 7 7 7 7 ",
"9 9 9 9 9 9 9 9 9 9 h.=.| g g g g T.} ..9 9 9 9 9 9 ",
"q q q q q q q q q N.'.Z Z `.s.)./ ;.W.FXoXq q q q q ",
"w w w w w w w w 7.m m }.%XO $ O v..X~ <XH.,Xw w w w ",
"r r r r r r r G.x x  .$ v @ H @ fX* qXJ T ~.iXr r r ",
"t t t t t t |.zXlXj.$ . IXDX2.Y c ; XXc.-Xn.x.t t t ",
"u u u u u u /.aXpXHX; n 4Xq.{ VXA.c K &.C C {.o.u u ",
"y y y y y y ].D t.$ X 5.LXY.NXb.9X  = OXQ.i.GX:Xy y ",
"a a a a a a B B y.> u.dXz ) -.d.j E.X $X[.O.P.,.a a ",
"d d d d d F.A A BXSXv _.z j J.j e.  @ * ^ *X:.7Xd d ",
"s s s s s D.l l <.O . nXcXR tXE @Xn v L.z.k.!.3Xs s ",
"f f f f f rX1.V V C.o vXQ + + UXwX@ CX XS.(.+XW f f ",
"i i i i i i b # # V.g.K w.& a.& . AX: ;XI.0.hXK.i i ",
"p p p p p p +.k k k M.p.$ o sXo - : =X1XmXr.ZX#Xp p ",
"e e e e e e e >Xh h , PX' I JXeX6.gX2X>.U 6X` e e e ",
"6 6 6 6 6 6 6 % , N N # b ( KXMXkX8X5X8.X.B.6 6 6 6 ",
"6 6 6 6 6 6 6 6 % G h # xXP U.bX0Xm.yX9.^._ 6 6 6 6 ",
"0 0 0 0 0 0 0 0 0 Z.! ] [ f.&X$.jX4.F %.0 0 0 0 0 0 ",
"8 8 8 8 8 8 8 8 8 8 8 l.R.@.*.#.3.L 8 8 8 8 8 8 8 8 ",
"4 4 4 4 4 4 4 4 4 4 4 4 4 4 4 4 4 4 4 4 4 4 4 4 4 4 ",
"< < < < < < < < < < < < < < < < < < < < < < < < < < "
};
