/* XPM */
static char *maximize_toggled_inactive[] = {
/* columns rows colors chars-per-pixel */
"26 25 256 2 ",
"   c #3B140F",
".  c #BA536E",
"X  c #551E15",
"o  c #5E2815",
"O  c #5B2415",
"+  c #470012",
"@  c #63172B",
"#  c #5D2A21",
"$  c #451211",
"%  c #36150E",
"&  c #5C2516",
"*  c #430A12",
"=  c #602A15",
"-  c #4B1B12",
";  c #5E2919",
":  c #4D0014",
">  c #4E1513",
",  c #61001A",
"<  c #581F16",
"1  c #550116",
"2  c #1A0F07",
"3  c #410311",
"4  c #170E05",
"5  c #37100E",
"6  c #430011",
"7  c #BD9CA4",
"8  c #9F0326",
"9  c #BD395E",
"0  c #DED3D5",
"q  c #A80826",
"w  c #B31A38",
"e  c #66001B",
"r  c #C85E80",
"t  c #975B6B",
"y  c #D58BA5",
"u  c #762036",
"i  c #DFAEC1",
"p  c #DFB0C2",
"a  c #6D001B",
"s  c #D896AD",
"d  c #CD6D8C",
"f  c #880024",
"g  c #BC3459",
"h  c #C34C70",
"j  c #7B001B",
"k  c #AF122E",
"l  c #B52141",
"z  c #A40526",
"x  c #950126",
"c  c #6D3A4A",
"v  c #410011",
"b  c #3F0011",
"n  c #B44A68",
"m  c #714A57",
"M  c #5E0019",
"N  c #590215",
"B  c #602B16",
"V  c #6E3F4E",
"C  c #714956",
"Z  c #5D0819",
"A  c #B55372",
"S  c #600E20",
"D  c #520015",
"F  c #451711",
"G  c #6C4A42",
"H  c #3E0F10",
"J  c #C05C71",
"K  c #C3687C",
"L  c #89223D",
"P  c #643931",
"I  c #9B4A62",
"U  c #810F2C",
"Y  c #341D1E",
"T  c #30150B",
"R  c #8A4553",
"E  c #5E1420",
"W  c #3F0C11",
"Q  c #D288A2",
"!  c #590917",
"~  c #A45468",
"^  c #9E6D7D",
"/  c #D195AA",
"(  c #C14D70",
")  c #B06274",
"_  c #A6596D",
"`  c #9A5869",
"'  c #943850",
"]  c #631F33",
"[  c #C16583",
"{  c #773F4E",
"}  c #943F56",
"|  c #BD5974",
" . c #BC5775",
".. c #6E0D27",
"X. c #7D031E",
"o. c #643437",
"O. c #AA3855",
"+. c #541617",
"@. c #613030",
"#. c #C46679",
"$. c #461B11",
"%. c #914A5F",
"&. c #B7647A",
"*. c #561917",
"=. c #883A4B",
"-. c #572214",
";. c #410D16",
":. c #AD3F5F",
">. c #6C2633",
",. c #2C120A",
"<. c #4B1D12",
"1. c #A2566B",
"2. c #A95F72",
"3. c #884657",
"4. c #BA6C81",
"5. c #4E3237",
"6. c #752035",
"7. c #9C495F",
"8. c #A23F5B",
"9. c #8D2843",
"0. c #350D0D",
"q. c #1B0D09",
"w. c #421910",
"e. c #851835",
"r. c #853146",
"t. c #590517",
"y. c #5A221C",
"u. c #6B4741",
"i. c #3C1010",
"p. c #68434F",
"a. c #3C1F22",
"s. c #91324B",
"d. c #A67A8A",
"f. c #A2102B",
"g. c #5F3D46",
"h. c #C47E96",
"j. c #570E21",
"k. c #AB6071",
"l. c #55171A",
"z. c #9F5065",
"x. c #BE5878",
"c. c #C06277",
"v. c #67021D",
"b. c #461411",
"n. c #7B4349",
"m. c #883B50",
"M. c #AB596C",
"N. c #85495C",
"B. c #B16476",
"V. c #89495D",
"C. c #BC4A60",
"Z. c #961E3E",
"A. c #A1616E",
"S. c #9B0424",
"D. c #A44D67",
"F. c #9C556B",
"G. c #743941",
"H. c #BD586F",
"J. c #AF4B68",
"K. c #76001F",
"L. c #BE5A72",
"P. c #6F5047",
"I. c #BF5E74",
"U. c #6A0018",
"Y. c #68001C",
"T. c #71554B",
"R. c #8A3249",
"E. c #B0203F",
"W. c #8D374E",
"Q. c #B65473",
"!. c #BB6178",
"~. c #623428",
"^. c #704855",
"/. c #72363F",
"(. c #734957",
"). c #724A57",
"_. c #984B5F",
"`. c #6C192F",
"'. c #B9687D",
"]. c #D099AD",
"[. c #BE697F",
"{. c #643034",
"}. c #C26178",
"|. c #3E1110",
" X c #94596D",
".X c #431111",
"XX c #431510",
"oX c #480F13",
"OX c #431E25",
"+X c #4C1320",
"@X c #501D13",
"#X c #B64E6B",
"$X c #BC647B",
"%X c #8D394F",
"&X c #7B0323",
"*X c #7A0D2A",
"=X c #C15F74",
"-X c #B04664",
";X c #400F12",
":X c #470E12",
">X c #A83F5D",
",X c #754449",
"<X c #662034",
"1X c #8D324E",
"2X c #BB4661",
"3X c #BC4465",
"4X c #AF6880",
"5X c #221511",
"6X c #613126",
"7X c #9B485E",
"8X c #A85C70",
"9X c #754051",
"0X c #963B53",
"qX c #84253D",
"wX c #5C1C23",
"eX c #6E4E42",
"rX c #694335",
"tX c #6A4539",
"yX c #6C2F42",
"uX c #D38DA5",
"iX c #4D1813",
"pX c #813145",
"aX c #930125",
"sX c #7D495A",
"dX c #4B0013",
"fX c #4C0412",
"gX c #973F57",
"hX c #B7435D",
"jX c #663C31",
"kX c #9E495E",
"lX c #6E001D",
"zX c #B66379",
"xX c #200F08",
"cX c #2B090B",
"vX c #613121",
"bX c #633323",
"nX c #8D2A45",
"mX c #6A2E40",
"MX c #5A0018",
"NX c #A33856",
"BX c #5D2925",
"VX c #5F2B18",
"CX c #B06375",
"ZX c #622D15",
"AX c #851633",
"SX c #592215",
"DX c #5A2315",
"FX c #620D23",
"GX c #5A2317",
"HX c #28120A",
"JX c #2C140A",
"KX c #925666",
"LX c #59201A",
"PX c #521714",
"IX c #561A1C",
"UX c #974157",
/* pixels */
"8 8 8 8 8 8 8 8 8 8 8 8 8 8 8 8 8 8 8 8 8 8 8 8 8 8 ",
"q q q q q q q q q q q q q q q q q q q q q q q q q q ",
"w w w w w w w w w w w w w w w w w w w w w w w w w w ",
"9 9 9 9 9 9 9 9 9 9 9 9 9 9 9 9 9 9 9 9 9 9 9 9 9 9 ",
"r r r r r r r r r r r r r Q.A A x.r r r r r r r r r ",
"y y y y y y y y y y h. X9Xc c c c N.4XQ y y y y y y ",
"i i i i i i i i i d.).C C p.g.^.(.sXV.F.].i i i i i ",
"p p p p p p p p ^ m m 5.5X4 4 2 a.{ %.I D./ p p p p ",
"s s s s s s s ^ V V Y 4 HXXX> > .X;XpX8.>XJ.uXs s s ",
"d d d d d d [ yXmXOX2 b.P jX6Xy.*.IXwXNX:.-X .d d d ",
"h h h h h h 1X<X] q.$ eXrXbX; SX@XF l.R n n #X( h h ",
"g g g g g g `.@ +XxXG tXvXVXB o -.$.  ,X| . . 3Xg g ",
"l l l l l E.S S ;.5 T.~.; B ZX= O <.T o.}.L.H.2Xl l ",
"k k k k k f.Z Z * H P.# & o B o DX- JX{.#.=XJ C.k k ",
"z z z z z S.N N fX0.u.# GX& & O X w.,.n.K c.I.hXz z ",
"x x x x x aX1 D D cX@.BXLX< < X - % H A.[.$X!.O.x x ",
"f f f f f f M : : 3 W IX+.PXiXF % 5 G.4.'.&.zXZ.f f ",
"j j j j j j U.+ + + 3 * oX.X|.i.:X/.k.B.CX) M.X.j j ",
"a a a a a a a dXv v 6 1 t.! E >.=.kX~ _ 8X2.qXa a a ",
"e e e e e e e , 6 b b : M lX&Xe.nX0X7Xz.1.%Xe e e e ",
"e e e e e e e e , + v : MXY.K.U L s.gX7.R.v.e e e e ",
"u u u u u u u u u 6.@ j.FX..*XAX9.' UXr.u u u u u u ",
"t t t t t t t t t t t KX3.m.W.} _.` t t t t t t t t ",
"7 7 7 7 7 7 7 7 7 7 7 7 7 7 7 7 7 7 7 7 7 7 7 7 7 7 ",
"0 0 0 0 0 0 0 0 0 0 0 0 0 0 0 0 0 0 0 0 0 0 0 0 0 0 "
};
