/* XPM */
static char *maximize_active[] = {
/* columns rows colors chars-per-pixel */
"26 25 181 2 ",
"   c #3F0011",
".  c #45190E",
"X  c #440011",
"o  c #4C0014",
"O  c #540115",
"+  c #590215",
"@  c #5D0019",
"#  c #5D0819",
"$  c #461310",
"%  c #511111",
"&  c #66001B",
"*  c #6C001B",
"=  c #76001F",
"-  c #7B001B",
";  c #4E2B0F",
":  c #4B2610",
">  c #4C2C13",
",  c #54291F",
"<  c #570E21",
"1  c #610E21",
"2  c #6E0D27",
"3  c #7B0323",
"4  c #7A0D2A",
"5  c #63172B",
"6  c #6C192F",
"7  c #652133",
"8  c #762036",
"9  c #384805",
"0  c #3F4908",
"q  c #345602",
"w  c #365B02",
"e  c #3B5D04",
"r  c #3A580C",
"t  c #376101",
"y  c #396401",
"u  c #3C6B01",
"i  c #3F7001",
"p  c #404408",
"a  c #455B0E",
"s  c #4B4612",
"d  c #494F12",
"f  c #4E5314",
"g  c #45501B",
"h  c #49551C",
"j  c #447401",
"k  c #467B01",
"l  c #4C7E01",
"z  c #537C01",
"x  c #4F4223",
"c  c #575035",
"v  c #734235",
"b  c #6B5630",
"n  c #4A6523",
"m  c #577523",
"M  c #617934",
"N  c #6B2F41",
"B  c #6D3C4B",
"V  c #644C45",
"C  c #6B4B4E",
"Z  c #7C4640",
"A  c #784C4D",
"S  c #754051",
"D  c #714956",
"F  c #7D495A",
"G  c #880024",
"H  c #810F2C",
"J  c #950126",
"K  c #9F0326",
"L  c #851633",
"P  c #851835",
"I  c #961E3E",
"U  c #A40526",
"Y  c #A80826",
"T  c #A2102B",
"R  c #AF122E",
"E  c #B31A38",
"W  c #84253D",
"Q  c #89223D",
"!  c #B0203F",
"~  c #8D2944",
"^  c #853146",
"/  c #8C344C",
"(  c #8D394F",
")  c #91324B",
"_  c #883B50",
"`  c #953C54",
"'  c #9F3F52",
"]  c #B52141",
"[  c #AA3855",
"{  c #A23F5B",
"}  c #AB3F5E",
"|  c #BC3459",
" . c #BD395E",
".. c #825B46",
"X. c #884657",
"o. c #85495C",
"O. c #89495D",
"+. c #974157",
"@. c #914A5F",
"#. c #9B495F",
"$. c #B7435D",
"%. c #9B4A62",
"&. c #925666",
"*. c #9F5065",
"=. c #9C556B",
"-. c #975B6B",
";. c #9A5869",
":. c #A44D67",
">. c #AF4B68",
",. c #B04664",
"<. c #BC4563",
"1. c #BC4A60",
"2. c #B54B69",
"3. c #A35569",
"4. c #A65C6C",
"5. c #AB596C",
"6. c #BA536E",
"7. c #BD586F",
"8. c #A85E71",
"9. c #B55372",
"0. c #BC5775",
"q. c #BE5B73",
"w. c #BE5878",
"e. c #986E7C",
"r. c #A46B7E",
"t. c #B06375",
"y. c #B76479",
"u. c #BC6279",
"i. c #BA6A7E",
"p. c #C34C70",
"a. c #C05E72",
"s. c #C06277",
"d. c #C36478",
"f. c #C3687C",
"g. c #4D8101",
"h. c #518601",
"j. c #588401",
"k. c #548A01",
"l. c #588E01",
"z. c #599201",
"x. c #5F9901",
"c. c #609301",
"v. c #639D01",
"b. c #769C01",
"n. c #64A201",
"m. c #6CA201",
"M. c #73AB02",
"N. c #77B202",
"B. c #79B202",
"V. c #7FB902",
"C. c #748B34",
"Z. c #7A9234",
"A. c #6C8345",
"S. c #8FB202",
"D. c #98B603",
"F. c #889935",
"G. c #91C602",
"H. c #93CA02",
"J. c #9DD002",
"K. c #A2CA02",
"L. c #A4B478",
"P. c #B3BD78",
"I. c #AF6880",
"U. c #A67A8A",
"Y. c #C85E80",
"T. c #C16583",
"R. c #CD6D8C",
"E. c #C47E96",
"W. c #B1BF99",
"Q. c #BD9CA4",
"!. c #D58BA5",
"~. c #D195AA",
"^. c #D896AD",
"/. c #D099AD",
"(. c #BAC799",
"). c #D1D9BB",
"_. c #DFAEC1",
"`. c #DFB0C2",
"'. c #DED3D5",
"]. c #F4F5EE",
"[. c gray100",
/* pixels */
"K K K K U K K K K K K K K K K K K K K K K K K K K K ",
"Y Y Y Y Y Y Y Y Y Y Y Y Y Y Y Y Y Y Y Y Y Y Y Y Y Y ",
"E E E E E E E E E E E E E E E E E E E E E E E E E E ",
" . . . . . . . . . . . . . . . . . . .|  . . . . . .",
"Y.Y.Y.Y.Y.Y.Y.Y.Y.Y.Y.Y.Y.9.9.9.w.Y.Y.Y.Y.Y.Y.Y.Y.Y.",
"!.!.!.!.!.!.!.!.!.!.E.-.S B B B B o.I.!.!.!.!.!.!.!.",
"_._._._._._._._._.U.D D D C V D D F O.=./._._._.`.`.",
"`.`.`.`.`.`.`.`.e.D D c r y y w h A @.%.:.~._._.`.`.",
"^.^.^.^.^.^./.I.B B g u l l.l.k.j t Z { } >.!.^.^.^.",
"R.R.R.R.R.R.T.N N x u k.n.M.N.M.c.z e ' } ,.w.R.R.R.",
"p.p.p.p.p.p./ 7 7 w g.n.V.G.J.G.B.v.j b 2.2.2.p.p.p.",
"| | | | | | 6 5 , u z.N.G.S.D.K.H.m.h.a a.6.6.<.| | ",
"] ] ] ] ] E 1 1 > j x.m.b.P.P.F.b.B.l.t s.q.7.1.! ] ",
"R R R R R T # # : i k.j.(.[.[.].C.j.k.e d.s.q.1.R R ",
"U U U U Y J + O % y y (.].L.Z.).].M j f f.s.q.$.Y Y ",
"J J J J J J O O O 9 y A.m c.m.z A.n y ..i.u.q.[ J J ",
"G G G G G G @ o o $ w u h.n.n.x.k u d i.i.y.y.I G G ",
"- - - - - - * o X X . w u k k k y d 4.t.t.t.5.- - - ",
"* * * * * * * o   X X O ; p 0 s v #.3.4.8.8.W * * * ",
"& & & & & & & @ X     o @ * 3 P ~ ` #.*.3.( & & & & ",
"& & & & & & & & @ o   o + * 3 H Q ) +.#./ & & & & & ",
"8 8 8 8 8 8 8 8 8 8 5 < 1 2 4 L ~ ` +.^ 8 8 8 8 8 8 ",
"-.-.-.-.-.-.-.-.-.-.-.&.X._ ( ` #.;.-.-.-.-.-.-.-.-.",
"Q.Q.Q.Q.Q.Q.Q.Q.Q.Q.Q.Q.Q.Q.Q.Q.Q.Q.Q.Q.Q.Q.Q.Q.Q.Q.",
"'.'.'.'.'.'.'.'.'.'.'.'.'.'.'.'.'.'.'.'.'.'.'.'.'.'."
};
