/* XPM */
static char *maximize_toggled_pressed[] = {
/* columns rows colors chars-per-pixel */
"26 25 256 2 ",
"   c #B06375",
".  c #8A1D07",
"X  c #851734",
"o  c #821B06",
"O  c #A22C0C",
"+  c #A6290B",
"@  c #921E07",
"#  c #8D2309",
"$  c #761A0A",
"%  c #BA536E",
"&  c #DF5D1F",
"*  c #4C0014",
"=  c #A72D0C",
"-  c #420011",
";  c #961F07",
":  c #470012",
">  c #B23710",
",  c #63172B",
"<  c #7A1914",
"1  c #791907",
"2  c #590215",
"3  c #61001A",
"4  c #A80826",
"5  c #BD9CA4",
"6  c #9F0326",
"7  c #DED3D5",
"8  c #BD395E",
"9  c #B31A38",
"0  c #66001B",
"q  c #C85E80",
"w  c #975B6B",
"e  c #D58BA5",
"r  c #762036",
"t  c #DFAEC1",
"y  c #DFB0C2",
"u  c #D896AD",
"i  c #6D001B",
"p  c #CD6D8C",
"a  c #C34C70",
"s  c #880024",
"d  c #7B001B",
"f  c #BC3459",
"g  c #B52141",
"h  c #950126",
"j  c #AF122E",
"k  c #A40526",
"l  c #6D3A4A",
"z  c gray100",
"x  c #5D0819",
"c  c #B44A68",
"v  c #714956",
"b  c #714A57",
"n  c #520015",
"m  c #B55372",
"M  c #BD3B11",
"N  c #3F0011",
"B  c #600E20",
"V  c #6E3F4E",
"C  c #98250A",
"Z  c #5E0019",
"A  c #7D495A",
"S  c #D288A2",
"D  c #B66379",
"F  c #925666",
"G  c #6A2E40",
"H  c #761906",
"J  c #7E1705",
"K  c #BC4465",
"L  c #AF4B68",
"P  c #B65473",
"I  c #BC5775",
"U  c #D8511A",
"Y  c #6E0D27",
"T  c #B0203F",
"R  c #6C2124",
"E  c #A23F5B",
"W  c #BF5E74",
"Q  c #9C495F",
"!  c #6C0E07",
"~  c #D195AA",
"^  c #9D2B0C",
"/  c #AD2B0B",
"(  c #89223D",
")  c #82414D",
"_  c #C3687C",
"`  c #8D374E",
"'  c #BD330E",
"]  c #F9CBB5",
"[  c #E35F1F",
"{  c #F47A2A",
"}  c #B16476",
"|  c #6F211D",
" . c #67021D",
".. c #DD4F19",
"X. c #9B3F47",
"o. c #7B0323",
"O. c #6E001D",
"+. c #BE5A72",
"@. c #FBE1D3",
"#. c #8E2F32",
"$. c #8A3249",
"%. c #5D0412",
"&. c #7A1E12",
"*. c #724A57",
"=. c #A45468",
"-. c #E66020",
";. c #F88F3E",
":. c #BC647B",
">. c #C05C71",
",. c #A83F5D",
"<. c #73100A",
"1. c #754051",
"2. c #570E21",
"3. c #701104",
"4. c #B8320E",
"5. c #963B53",
"6. c #B2300D",
"7. c #550016",
"8. c #FBE0D2",
"9. c #CD4A17",
"0. c #C93F12",
"q. c #943F56",
"w. c #AA596A",
"e. c #7F1805",
"r. c #640B10",
"t. c #C84515",
"y. c #8D2843",
"u. c #5A0018",
"i. c #D38DA5",
"p. c #EE9F79",
"a. c #B04664",
"s. c #EF7227",
"d. c #FEEEE3",
"f. c #CD4D18",
"g. c #D45019",
"h. c #B32F0D",
"j. c #974157",
"k. c #A9300D",
"l. c #853146",
"z. c #8E3241",
"x. c #58040E",
"c. c #8D394F",
"v. c #A63753",
"b. c #9B4A62",
"n. c #FBD7C4",
"m. c #721607",
"M. c #AF6880",
"N. c #986E7C",
"B. c #810F2C",
"V. c #883B50",
"C. c #C26178",
"Z. c #F89E64",
"A. c #A6596D",
"S. c #661F32",
"D. c #A2102B",
"F. c #F9B88D",
"G. c #84253D",
"H. c #C0360F",
"J. c #C06277",
"K. c #713E45",
"L. c #F6DBD1",
"P. c #94596D",
"I. c #A22B0B",
"U. c #C47E96",
"Y. c #9C556B",
"T. c #96270A",
"R. c #6F0710",
"E. c #DC8564",
"W. c #E25F29",
"Q. c #9F5065",
"!. c #91324B",
"~. c #B7435D",
"^. c #BC4A60",
"/. c #C16583",
"(. c #9B0424",
"). c #A44D67",
"_. c #781414",
"`. c #C14D70",
"'. c #D64A17",
"]. c #914A5F",
"[. c #DA4C17",
"{. c #BD586F",
"}. c #C33D12",
"|. c #662034",
" X c #76001F",
".X c #F37427",
"XX c #85495C",
"oX c #703436",
"OX c #89495D",
"+X c #BD5974",
"@X c #A85C70",
"#X c #6A0018",
"$X c #68001C",
"%X c #A67A8A",
"&X c #66141F",
"*X c #AA3855",
"=X c #6F1C10",
"-X c #8D324E",
";X c #B64E6B",
":X c #BE697F",
">X c #7E1E17",
",X c #A46B7E",
"<X c #714855",
"1X c #720C09",
"2X c #734957",
"3X c #6C192F",
"4X c #992008",
"5X c #884657",
"6X c #C46679",
"7X c #E76522",
"8X c #892A36",
"9X c #961E3E",
"0X c #BB6178",
"qX c #7D031E",
"wX c #7A0D2A",
"eX c #F2A179",
"rX c #AD3F5F",
"tX c #BB4661",
"yX c #B9687D",
"uX c #B96B7F",
"iX c #881905",
"pX c #A2566B",
"aX c #984B5F",
"sX c #9B485E",
"dX c #A95F72",
"fX c #71444E",
"gX c #751304",
"hX c #D65526",
"jX c #943850",
"kX c #73261F",
"lX c #B5330E",
"zX c #BE5878",
"xX c #540310",
"cX c #AC2F0D",
"vX c #752035",
"bX c #D099AD",
"nX c #A62F0D",
"mX c #CF4816",
"MX c #930125",
"NX c #C15F74",
"BX c #9B260A",
"VX c #973F57",
"CX c #BB3A11",
"ZX c #9A5869",
"AX c #CC3F12",
"SX c #AB596C",
"DX c #7D1A06",
"FX c #7F1B06",
"GX c #9E495E",
"HX c #660F14",
"JX c #B7647A",
"KX c #CA4615",
"LX c #620D23",
"PX c #8D2A45",
"IX c #6C2F42",
"UX c #C44415",
/* pixels */
"6 6 6 6 6 6 6 6 6 6 6 6 6 6 6 6 6 6 6 6 6 6 6 6 6 6 ",
"4 4 4 4 4 4 4 4 4 4 4 4 4 4 4 4 4 4 4 4 4 4 4 4 4 4 ",
"9 9 9 9 9 9 9 9 9 9 9 9 9 9 9 9 9 9 9 9 9 9 9 9 9 9 ",
"8 8 8 8 8 8 8 8 8 8 8 8 8 8 8 8 8 8 8 8 8 8 8 8 8 8 ",
"q q q q q q q q q q q q q P m m zXq q q q q q q q q ",
"e e e e e e e e e e U.P.1.l l l l XXM.S e e e e e e ",
"t t t t t t t t t %X*.v v fXK.<X2XA OXY.bXt t t t t ",
"y y y y y y y y N.b b oX=X1 DXH kX) ].b.).~ y y y y ",
"u u u u u u u ,XV V | FXC = k.O # $ z.E ,.L i.u u u ",
"p p p p p p /.IXG R o I.CXKX9.UX> T.$ v.rXa.I p p p ",
"a a a a a a -X|.S.m.BXM g.[ 7X& f.> # #.c c ;X`.a a ",
"f f f f f f 3X, &Xo cXmX-..X{ s.& UX^ &.+X% % K f f ",
"g g g g g T B B HX. lXL.@.Z.;.F.z E.nX1 C.+.{.tXg g ",
"j j j j j D.x x r.. 6.hX8.z d.z p.t.O 1 6XNX>.^.j j ",
"k k k k k (.2 2 %.J + 0.W.] n.eXU M C >X_ J.W ~.k k ",
"h h h h h MX7.n n ! @ h.AX[...'.}.= o X.:X:.0X*Xh h ",
"s s s s s s Z * * xXgX; / ' H.4.+ . < uXyXJXD 9Xs s ",
"d d d d d d #X: : : x.3.iX; 4X@ e.< w.}     SXqXd d ",
"i i i i i i i * - - - 2 R.1X<._.8XGX=.A.@XdXG.i i i ",
"0 0 0 0 0 0 0 3 - N N * Z O.o.X PX5.sXQ.pXc.0 0 0 0 ",
"0 0 0 0 0 0 0 0 3 : - * u.$X XB.( !.VXQ $. .0 0 0 0 ",
"r r r r r r r r r vX, 2.LXY wXX y.jXj.l.r r r r r r ",
"w w w w w w w w w w w F 5XV.` q.aXZXw w w w w w w w ",
"5 5 5 5 5 5 5 5 5 5 5 5 5 5 5 5 5 5 5 5 5 5 5 5 5 5 ",
"7 7 7 7 7 7 7 7 7 7 7 7 7 7 7 7 7 7 7 7 7 7 7 7 7 7 "
};
