/* XPM */
static char *maximize_prelight[] = {
/* columns rows colors chars-per-pixel */
"26 25 256 2 ",
"   c #072C00",
".  c #134101",
"X  c #0F4100",
"o  c #195501",
"O  c #0E3D00",
"+  c #4D0014",
"@  c #0C3C00",
"#  c #072A00",
"$  c #61001A",
"%  c #092D00",
"&  c #0E3F00",
"*  c #0C2903",
"=  c #0C3900",
"-  c #282612",
";  c #0B3500",
":  c #0A3300",
">  c #083100",
",  c #430011",
"<  c #9F0326",
"1  c #BD395E",
"2  c #BD9CA4",
"3  c #B31A38",
"4  c #DED3D5",
"5  c #A80826",
"6  c #66001B",
"7  c #C85E80",
"8  c #975B6B",
"9  c #D58BA5",
"0  c #762036",
"q  c #DFAEC1",
"w  c #DFB0C2",
"e  c #6D001B",
"r  c #D896AD",
"t  c #CD6D8C",
"y  c #BC3459",
"u  c #7B001B",
"i  c #880024",
"p  c #C34C70",
"a  c #B52141",
"s  c #AF122E",
"d  c #950126",
"f  c #A40526",
"g  c #6D3A4A",
"h  c #410011",
"j  c #470011",
"k  c #246901",
"l  c #590215",
"z  c #B44A68",
"x  c #5D0819",
"c  c #134700",
"v  c #714956",
"b  c #714A57",
"n  c #185201",
"m  c #6E3F4E",
"M  c #3F0011",
"N  c #600E20",
"B  c #5E0019",
"V  c gray100",
"C  c #520015",
"Z  c #104600",
"A  c #B55372",
"S  c #76001F",
"D  c #883B50",
"F  c #851633",
"G  c #520214",
"H  c #B65473",
"J  c #1D5201",
"K  c #9C556B",
"L  c #3D0710",
"P  c #A35B6A",
"I  c #974157",
"U  c #256B01",
"Y  c #570E21",
"T  c #256201",
"R  c #2A6F01",
"E  c #144B00",
"W  c #AB596C",
"Q  c #470013",
"!  c #072900",
"~  c #D099AD",
"^  c #BB6178",
"/  c #6C192F",
"(  c #9B485E",
")  c #BE697F",
"_  c #2C4922",
"`  c #88A078",
"'  c #39090E",
"]  c #C47E96",
"[  c #2E2112",
"{  c #293F22",
"}  c #7D495A",
"|  c #961E3E",
" . c #3B1210",
".. c #AF6880",
"X. c #BC5775",
"o. c #B7435D",
"O. c #BE5A72",
"+. c #71444D",
"@. c #68001C",
"#. c #8D374E",
"$. c #8D324E",
"%. c #A23F5B",
"&. c #853146",
"*. c #986E7C",
"=. c #884657",
"-. c #473B35",
";. c #D288A2",
":. c #5B4145",
">. c #914A5F",
",. c #620D23",
"<. c #C05C71",
"1. c #A83F5D",
"2. c #BB4661",
"3. c #4B0013",
"4. c #A2566B",
"5. c #1C5A01",
"6. c #963B53",
"7. c #092901",
"8. c #093400",
"9. c #1D5E01",
"0. c #662034",
"q. c #114A00",
"w. c #703740",
"e. c #B66379",
"r. c #8D2A45",
"t. c #6A2E40",
"y. c #BA526E",
"u. c #0B2102",
"i. c #1F1A08",
"p. c #62172A",
"a. c #072801",
"s. c #154701",
"d. c #810F2C",
"f. c #072401",
"g. c #9B4A62",
"h. c #AF4B68",
"j. c #D195AA",
"k. c #C06277",
"l. c #A46B7E",
"z. c #C3687C",
"x. c #94596D",
"c. c #113C01",
"v. c #C1CBBB",
"b. c #2A301C",
"n. c #3C5533",
"m. c #91324B",
"M. c #F0F3EE",
"N. c #67021D",
"B. c #BC4A60",
"V. c #39100F",
"C. c #B0203F",
"Z. c #6E001D",
"A. c #925666",
"S. c #1E5401",
"D. c #3B2923",
"F. c #754051",
"G. c #496C34",
"H. c #9B0424",
"J. c #A44D67",
"K. c #D38DA5",
"L. c #9A5869",
"P. c #4C6244",
"I. c #2D2914",
"U. c #930125",
"Y. c #BD586F",
"T. c #14290C",
"R. c #653035",
"E. c #85495C",
"W. c #9A3952",
"Q. c #89495D",
"!. c #A1B199",
"~. c #BF5E74",
"^. c #276F01",
"/. c #6A0018",
"(. c #8D394F",
"). c #829878",
"_. c #869D78",
"`. c #8A3249",
"'. c #9F5065",
"]. c #B64E6B",
"[. c #704955",
"{. c #B04664",
"}. c #C16583",
"|. c #734957",
" X c #724A57",
".X c #C14D70",
"XX c #282D1B",
"oX c #C46679",
"OX c #523830",
"+X c #714646",
"@X c #6E0D27",
"#X c #112805",
"$X c #A2102B",
"%X c #1D2B0E",
"&X c #67454E",
"*X c #BC647B",
"=X c #7D031E",
"-X c #7A0D2A",
";X c #C15F74",
":X c #A6596D",
">X c #AD3F5F",
",X c #B86B7F",
"<X c #A67A8A",
"1X c #BC4465",
"2X c #4A0711",
"3X c #B16476",
"4X c #A45468",
"5X c #1A5901",
"6X c #984B5F",
"7X c #A85C70",
"8X c #A95F72",
"9X c #943850",
"0X c #84253D",
"qX c #89223D",
"wX c #48191F",
"eX c #436134",
"rX c #456534",
"tX c #752035",
"yX c #5A0018",
"uX c #195701",
"iX c #1A5701",
"pX c #943F56",
"aX c #973F57",
"sX c #C26178",
"dX c #622032",
"fX c #EFF1EE",
"gX c #EFF2EE",
"hX c #9EAB99",
"jX c #144C00",
"kX c #083300",
"lX c #9C495F",
"zX c #9E495E",
"xX c #151C05",
"cX c #B7647A",
"vX c #8D2843",
"bX c #B9687D",
"nX c #550016",
"mX c #286601",
"MX c #0B3700",
"NX c #6C2F42",
"BX c #B06274",
"VX c #B06375",
"CX c #851835",
"ZX c #BE5878",
"AX c #3B1613",
"SX c #072E00",
"DX c #BA536E",
"FX c #BD5974",
"GX c #0C2504",
"HX c #1C1D08",
"JX c #104700",
"KX c #7B0323",
"LX c #63162B",
"PX c #185301",
"IX c #062900",
"UX c #AA3855",
/* pixels */
"< < < < < < < < < < < < < < < < < < < < < < < < < < ",
"5 5 5 5 5 5 5 5 5 5 5 5 5 5 5 5 5 5 5 5 5 5 5 5 5 5 ",
"3 3 3 3 3 3 3 3 3 3 3 3 3 3 3 3 3 3 3 3 3 3 3 3 3 3 ",
"1 1 1 1 1 1 1 1 1 1 1 1 1 1 1 1 1 1 1 1 1 1 1 1 1 1 ",
"7 7 7 7 7 7 7 7 7 7 7 7 7 H A A ZX7 7 7 7 7 7 7 7 7 ",
"9 9 9 9 9 9 9 9 9 9 ] x.F.g g g g E...;.9 9 9 9 9 9 ",
"q q q q q q q q q <X Xv v &X:.[.|.} Q.K ~ q q q q q ",
"w w w w w w w w *.b b -.T.!   a.b.+.>.g.J.j.w w w w ",
"r r r r r r r l.m m XX  MX& X O ; * w.%.1.h.K.r r r ",
"t t t t t t }.NXt.D.  O E o 5XPXc = #XW.>X{.X.t t t ",
"p p p p p p $.0.dXGX= jX9.U ^.k 5.c : OXz z ]..Xp p ",
"y y y y y y / LXwX  X uXk T mXR k n O %XFXy.DX1Xy y ",
"a a a a a C.N N AX> Z o J _.` G.S.iXX 7.sXO.Y.2.a a ",
"s s s s s $Xx x  .SXO . !.V V M.eX. O * oX;X<.B.s s ",
"f f f f f H.l l 2XIX% hXgX).rXv.fXn.: I.z.k.~.o.f f ",
"d d d d d U.nXC C xX  P._ s.n c.P.{ # +X) *X^ UXd d ",
"i i i i i i B + + L f.% @ JXq.Z ;   - ,XbXcXe.| i i ",
"u u u u u u /.j j j ' u.  kX8.> # - P 3XVXBXW =Xu u ",
"e e e e e e e 3.h h , G V.i.HX[ R.zX4X:X7X8X0Xe e e ",
"6 6 6 6 6 6 6 $ , M M + B Z.KXCXr.6.( '.4.(.6 6 6 6 ",
"6 6 6 6 6 6 6 6 $ Q h + yX@.S d.qXm.aXlX`.N.6 6 6 6 ",
"0 0 0 0 0 0 0 0 0 tXp.Y ,.@X-XF vX9XI &.0 0 0 0 0 0 ",
"8 8 8 8 8 8 8 8 8 8 8 A.=.D #.pX6XL.8 8 8 8 8 8 8 8 ",
"2 2 2 2 2 2 2 2 2 2 2 2 2 2 2 2 2 2 2 2 2 2 2 2 2 2 ",
"4 4 4 4 4 4 4 4 4 4 4 4 4 4 4 4 4 4 4 4 4 4 4 4 4 4 "
};
