/* XPM */
static char *maximize_toggled_active[] = {
/* columns rows colors chars-per-pixel */
"26 25 256 2 ",
"   c #9D495F",
".  c #DEE3CC",
"X  c #B7647A",
"o  c #610E21",
"O  c #652133",
"+  c #8D2944",
"@  c #6B2F41",
"#  c #5A0018",
"$  c #467501",
"%  c #4C7C01",
"&  c #B06375",
"*  c #851734",
"=  c #3A6002",
"-  c #BA536E",
";  c #4C0014",
":  c #558C01",
">  c #538801",
",  c #4A4F12",
"<  c #420011",
"1  c #470012",
"2  c #407201",
"3  c #63172B",
"4  c #3C6D01",
"5  c #5F0019",
"6  c #BD9CA4",
"7  c #B31A38",
"8  c #DED3D5",
"9  c #9F0326",
"0  c #BD395E",
"q  c #A80826",
"w  c #66001B",
"e  c #C85E80",
"r  c #975B6B",
"t  c #D58BA5",
"y  c #762036",
"u  c #DFAEC1",
"i  c #DFB0C2",
"p  c #6D001B",
"a  c #D896AD",
"s  c #CD6D8C",
"d  c #7B001B",
"f  c #880024",
"g  c #C34C70",
"h  c #BC3459",
"j  c #A40526",
"k  c #AF122E",
"l  c #950126",
"z  c #B52141",
"x  c #6D3A4A",
"c  c gray100",
"v  c #68A101",
"b  c #520015",
"n  c #6E3F4E",
"m  c #5D0819",
"M  c #4B7E01",
"N  c #B44A68",
"B  c #457B01",
"V  c #590215",
"C  c #714956",
"Z  c #714A57",
"A  c #B55372",
"S  c #3F0011",
"D  c #9A5869",
"F  c #754051",
"G  c #506E12",
"H  c #67021D",
"J  c #BE5A72",
"K  c #550614",
"L  c #BC647B",
"P  c #570E21",
"I  c #497601",
"U  c #C6D0AA",
"Y  c #943F56",
"T  c #3B6901",
"R  c #9C556B",
"E  c #45190E",
"W  c #94596D",
"Q  c #6C192F",
"!  c #EBEEDD",
"~  c #925666",
"^  c #386401",
"/  c #C15F74",
"(  c #659802",
")  c #BD5974",
"_  c #8D394F",
"`  c #629801",
"'  c #84253D",
"]  c #A85C70",
"[  c #4B4612",
"{  c #7B0323",
"}  c #588301",
"|  c #DAE0CC",
" . c #386101",
".. c #437701",
"X. c #BE697F",
"o. c #45501B",
"O. c #3C6A01",
"+. c #7D495A",
"@. c #973F57",
"#. c #578001",
"$. c #D099AD",
"%. c #884657",
"&. c #6B4B4E",
"*. c #6A0018",
"=. c #B04664",
"-. c #8D324E",
";. c #BC4465",
":. c #AB596C",
">. c #734957",
",. c #C26178",
"<. c #91C602",
"1. c #97A867",
"2. c #4B2610",
"3. c #528B01",
"4. c #C05C71",
"5. c #AD3F5F",
"6. c #A2566B",
"7. c #9B485E",
"8. c #3F4908",
"9. c #943850",
"0. c #447801",
"q. c #A45468",
"w. c #550016",
"e. c #375904",
"r. c #527B01",
"t. c #588E01",
"y. c #930125",
"u. c #395E03",
"i. c #386801",
"p. c #95BA02",
"a. c #D38DA5",
"s. c #BE5878",
"d. c #91324B",
"f. c #974157",
"g. c #4D8101",
"h. c #734235",
"j. c #9DD002",
"k. c #986E7C",
"l. c #AF6880",
"z. c #619701",
"x. c #810F2C",
"c. c #9F3F52",
"v. c #A2102B",
"b. c #A23F5B",
"n. c #B0BB78",
"m. c #853146",
"M. c #9B4A62",
"N. c #BBE003",
"B. c #B7435D",
"V. c #619F01",
"C. c #669F01",
"Z. c #345602",
"A. c #961E3E",
"S. c #3A580C",
"D. c #883B50",
"F. c #49551C",
"G. c #83A301",
"H. c #C06277",
"J. c #C3687C",
"K. c #569001",
"L. c #C47E96",
"P. c #5F9B01",
"I. c #6B5630",
"U. c #4F4223",
"Y. c #575035",
"T. c #64A201",
"R. c #4E2B0F",
"E. c #BD586F",
"W. c #54291F",
"Q. c #809556",
"!. c #461310",
"~. c #92A245",
"^. c #567612",
"/. c #548901",
"(. c #A67A8A",
"). c #BC5775",
"_. c #825B46",
"`. c #3C6101",
"'. c #B9687D",
"]. c #7F8D13",
"[. c #B86C7F",
"{. c #7C4640",
"}. c #9B0424",
"|. c #4E5314",
" X c #404408",
".X c #D3DBBB",
"XX c #A44D67",
"oX c #AF4B68",
"OX c #497801",
"+X c #4F6D01",
"@X c #76001F",
"#X c #6E0D27",
"$X c #A65F6A",
"%X c #6BA601",
"&X c #C16583",
"*X c #5F8B01",
"=X c #85495C",
"-X c #89495D",
";X c #644C45",
":X c #A46B7E",
">X c #BF5E74",
",X c #5B9601",
"<X c #68001C",
"1X c #6E001D",
"2X c #8A3249",
"3X c #8D374E",
"4X c #71AA02",
"5X c #477E01",
"6X c #A6596D",
"7X c #704955",
"8X c #78B202",
"9X c #D195AA",
"0X c #3F7001",
"qX c #724A57",
"wX c #518501",
"eX c #7FB902",
"rX c #C14D70",
"tX c #C46679",
"yX c #5F8201",
"uX c #93CA02",
"iX c #74AE02",
"pX c #BB6178",
"aX c #518901",
"sX c #B0203F",
"dX c #B64E6B",
"fX c #7D031E",
"gX c #7A0D2A",
"hX c #784C4D",
"jX c #A83F5D",
"kX c #BB4661",
"lX c #B16476",
"zX c #BC4A60",
"xX c #984B5F",
"cX c #A95F72",
"vX c #384805",
"bX c #4C7201",
"nX c #7BB302",
"mX c #963B53",
"MX c #89223D",
"NX c #9F5065",
"BX c #455B0E",
"VX c #386701",
"CX c #3A6701",
"ZX c #AA3855",
"AX c #355D01",
"SX c #98AA67",
"DX c #752035",
"FX c #914A5F",
"GX c #547E01",
"HX c #5B8D01",
"JX c #4C2C13",
"KX c #511111",
"LX c #B65473",
"PX c #3C5C05",
"IX c #639A01",
"UX c #D288A2",
/* pixels */
"9 9 9 9 9 9 9 9 9 9 9 9 9 9 9 9 9 9 9 9 9 9 9 9 9 9 ",
"q q q q q q q q q q q q q q q q q q q q q q q q q q ",
"7 7 7 7 7 7 7 7 7 7 7 7 7 7 7 7 7 7 7 7 7 7 7 7 7 7 ",
"0 0 0 0 0 0 0 0 0 0 0 0 0 0 0 0 0 0 0 0 0 0 0 0 0 0 ",
"e e e e e e e e e e e e e LXA A s.e e e e e e e e e ",
"t t t t t t t t t t L.W F x x x x =Xl.UXt t t t t t ",
"u u u u u u u u u (.qXC C &.;X7X>.+.-XR $.u u u u u ",
"i i i i i i i i k.Z Z Y.S.^ CX .F.hXFXM.XX9Xi i i i ",
"a a a a a a a :Xn n o.T M : t.> $ u.{.b.jXoXa.a a a ",
"s s s s s s &X@ @ U.O.> C.iX8X4X` M PXc.5.=.).s s s ",
"g g g g g g -.O O e.g.v eXuXj.<.nXz.$ I.N N dXrXg g ",
"h h h h h h Q 3 W.4 OXbXyXp.N.G.+Xr.wXBX) - - ;.h h ",
"z z z z z sXo o JX2 `.| . ~.].n.c Q.I  .,.J E.kXz z ",
"k k k k k v.m m 2.0X% G . c ! c 1.GX/.= tX/ 4.zXk k ",
"j j j j j }.V V KXVX3.HX^.U .XSX*Xv M |.J.H.>XB.j j ",
"l l l l l y.w.b b vX0.,XIX} #.( %X: 4 _.X.L pXZXl l ",
"f f f f f f 5 ; ; !.AXB K.V.T.P.aX2 , [.'.X X A.f f ",
"d d d d d d *.1 1 1 E Z.4 B 5X..i., $XlX& & :.fXd d ",
"p p p p p p p ; < < < K R. X8.[ h.  q.6X] cX' p p p ",
"w w w w w w w 5 < S S ; 5 1X{ * + mX7.NX6._ w w w w ",
"w w w w w w w w 5 1 < ; # <X@Xx.MXd.@.  2XH w w w w ",
"y y y y y y y y y DX3 P o #XgX* + 9.f.m.y y y y y y ",
"r r r r r r r r r r r ~ %.D.3XY xXD r r r r r r r r ",
"6 6 6 6 6 6 6 6 6 6 6 6 6 6 6 6 6 6 6 6 6 6 6 6 6 6 ",
"8 8 8 8 8 8 8 8 8 8 8 8 8 8 8 8 8 8 8 8 8 8 8 8 8 8 "
};
