/* XPM */
static char *menu_active[] = {
/* columns rows colors chars-per-pixel */
"30 25 24 1 ",
"  c #66001B",
". c #A80826",
"X c #A40526",
"o c #DFAEC1",
"O c #9F0326",
"+ c #6D001B",
"@ c #DFB0C2",
"# c #880024",
"$ c #D896AD",
"% c #CD6D8C",
"& c #B52141",
"* c #B31A38",
"= c #975B6B",
"- c #762036",
"; c #DED3D5",
": c #C34C70",
"> c #7B001B",
", c #BC3459",
"< c #AF122E",
"1 c #BD9CA4",
"2 c #950126",
"3 c #D58BA5",
"4 c #C85E80",
"5 c #BD395E",
/* pixels */
"OOOOOOOOOOOOOOOOOOOOOOOOOOOOOO",
"..............................",
"******************************",
"555555555555555555555555555555",
"444444444444444444444444444444",
"333333333333333333333333333333",
"oooooooooooooooooooooooooooooo",
"@@@@@@@@@@@@@@@@@@@@@@@@@@@@@@",
"$$$$$$$$$$$$$$$$$$$$$$$$$$$$$$",
"%%%%%%%%%%%%%%%%%%%%%%%%%%%%%%",
"::::::::::::::::::::::::::::::",
",,,,,,,,,,,,,,,,,,,,,,,,,,,,,,",
"&&&&&&&&&&&&&&&&&&&&&&&&&&&&&&",
"<<<<<<<<<<<<<<<<<<<<<<<<<<<<<<",
"XXXXXXXXXXXXXXXXXXXXXXXXXXXXXX",
"222222222222222222222222222222",
"##############################",
">>>>>>>>>>>>>>>>>>>>>>>>>>>>>>",
"++++++++++++++++++++++++++++++",
"                              ",
"                              ",
"------------------------------",
"==============================",
"111111111111111111111111111111",
";;;;;;;;;;;;;;;;;;;;;;;;;;;;;;"
};
