/* XPM */
static char *top_left_inactive[] = {
/* columns rows colors chars-per-pixel */
"13 25 25 1 ",
"  c #66001B",
". c #6D001B",
"X c #7B001B",
"o c #762036",
"O c #880024",
"+ c #950126",
"@ c #9F0326",
"# c #A40526",
"$ c #A80826",
"% c #AF122E",
"& c #B31A38",
"* c #B52141",
"= c #BC3459",
"- c #BD395E",
"; c #975B6B",
": c #C34C70",
"> c #C85E80",
", c #CD6D8C",
"< c #BD9CA4",
"1 c #D58BA5",
"2 c #D896AD",
"3 c #DFAEC1",
"4 c #DFB0C2",
"5 c #DED3D5",
"6 c None",
/* pixels */
"66@@@@@@@@@@@",
"6$$$$$$$$$$$$",
"&&&&&&&&&&&&&",
"-------------",
">>>>>>>>>>>>>",
"1111111111111",
"3333333333333",
"4444444444444",
"2222222222222",
",,,,,,,,,,,,,",
":::::::::::::",
"=============",
"*************",
"%%%%%%%%%%%%%",
"#############",
"+++++++++++++",
"OOOOOOOOOOOOO",
"XXXXXXXXXXXXX",
".............",
"             ",
"             ",
"ooooooooooooo",
";;;;;;;;;;;;;",
"<<<<<<<<<<<<<",
"5555555555555"
};
