/* XPM */
static char *close_active[] = {
/* columns rows colors chars-per-pixel */
"26 25 188 2 ",
"   c #2F010F",
".  c #380107",
"X  c #3F0108",
"o  c #33031C",
"O  c #0F0134",
"+  c #06013F",
"@  c #130134",
"#  c #1A0134",
"$  c #2F0120",
"%  c #3A0B24",
"&  c #320A2B",
"*  c #3B102A",
"=  c #20013C",
"-  c #21083D",
";  c #4C0203",
":  c #47030B",
">  c #530201",
",  c #5D0201",
"<  c #410812",
"1  c #490819",
"2  c #511615",
"3  c #630201",
"4  c #6A0201",
"5  c #720101",
"6  c #7C0202",
"7  c #781616",
"8  c #440E28",
"9  c #4C2021",
"0  c #5D2020",
"q  c #6C2020",
"w  c #6A2A2A",
"e  c #752020",
"r  c #782A2A",
"t  c #793F3E",
"y  c #060143",
"u  c #0A0144",
"i  c #06014C",
"p  c #08014F",
"a  c #150249",
"s  c #060151",
"d  c #090153",
"f  c #06015A",
"g  c #0B005E",
"h  c #2F1E4A",
"j  c #060365",
"k  c #0B0063",
"l  c #07056E",
"z  c #0B016E",
"x  c #0A0176",
"c  c #0B007A",
"v  c #0B1074",
"b  c #151E76",
"n  c #211773",
"m  c #24177A",
"M  c #3C2567",
"N  c #2E257C",
"B  c #2C2878",
"V  c #342B77",
"C  c #263078",
"Z  c #3E357A",
"A  c #401956",
"S  c #413962",
"D  c #55386B",
"F  c #41387C",
"G  c #41406F",
"H  c #42477A",
"J  c #43487B",
"K  c #5E5E7B",
"L  c #840201",
"P  c #8F0201",
"I  c #8F0C0C",
"U  c #930C0C",
"Y  c #9D1210",
"T  c #A00E0E",
"R  c #AB1312",
"E  c #8B2C2C",
"W  c #9C2323",
"Q  c #912828",
"!  c #9D2929",
"~  c #A02E2D",
"^  c #A43535",
"/  c #AA3F3F",
"(  c #96403F",
")  c #995252",
"_  c #B35151",
"`  c #B55F5E",
"'  c #CB7776",
"]  c #D17D7D",
"[  c #0B0182",
"{  c #0B018A",
"}  c #130987",
"|  c #191089",
" . c #090A96",
".. c #0B029E",
"X. c #271E82",
"o. c #241B8D",
"O. c #2B2384",
"+. c #322989",
"@. c #3C348A",
"#. c #2B2390",
"$. c #342B93",
"%. c #28309D",
"&. c #3B3294",
"*. c #0B05B9",
"=. c #191FB2",
"-. c #191FB9",
";. c #211CA9",
":. c #2133AD",
">. c #2930A8",
",. c #2022BE",
"<. c #2923BD",
"1. c #2C32B3",
"2. c #3B34B2",
"3. c #433A86",
"4. c #42398B",
"5. c #423A9A",
"6. c #37469F",
"7. c #424788",
"8. c #434795",
"9. c #47409C",
"0. c #50499F",
"q. c #63599F",
"w. c #676783",
"e. c #757495",
"r. c #4941A6",
"t. c #4840AB",
"y. c #5149A0",
"u. c #4E52A9",
"i. c #5B54A3",
"p. c #534CBB",
"a. c #5C55B6",
"s. c #5F59B7",
"d. c #5B55BE",
"f. c #615BA6",
"g. c #635DB6",
"h. c #6660A9",
"j. c #6A63AD",
"k. c #6760B7",
"l. c #6A64B3",
"z. c #6F69B4",
"x. c #6660BA",
"c. c #6D67B9",
"v. c #716CB1",
"b. c #6B75B0",
"n. c #0C0FCD",
"m. c #1517CC",
"M. c #1522CE",
"N. c #1624DA",
"B. c #1F35D6",
"V. c #2428C0",
"C. c #262CCA",
"Z. c #3431C2",
"A. c #3835C4",
"S. c #453FC1",
"D. c #2945DD",
"F. c #2D47E2",
"G. c #3C5AE4",
"H. c #4540C1",
"J. c #4B45C3",
"K. c #4B60DB",
"L. c #5670E7",
"P. c #8E8EA7",
"I. c #918CAF",
"U. c #DF8F8F",
"Y. c #DE9696",
"T. c #D19A99",
"R. c #DA9B9B",
"E. c #E19393",
"W. c #E5A3A3",
"Q. c #EAA4A3",
"!. c #ECAEAD",
"~. c #F1AEAE",
"^. c #F2B5B5",
"/. c #F6BDBD",
"(. c #F8BEBE",
"). c #8793DD",
"_. c #A5A6C5",
"`. c #92A4EC",
"'. c #98A7EB",
"]. c #C7C9DB",
"[. c #D0CED8",
"{. c #F9C6C5",
"}. c #E1DCD9",
"|. c #FDD1D1",
" X c #D7D9EB",
".X c #DCDEEE",
"XX c #EEE9E3",
"oX c #FDF8EF",
/* pixels */
"B.B.B.B.B.B.B.B.B.B.B.B.B.B.B.B.B.B.B.B.B.B.B.B.B.B.",
"D.D.D.D.D.D.D.D.D.D.D.D.D.D.D.D.D.D.D.D.D.D.D.D.D.D.",
"G.G.G.G.G.G.G.G.G.G.G.G.G.G.G.G.G.G.G.G.G.G.G.G.G.G.",
"`.`.`.`.`.`.`.`.`.`.`.`.`.`.`.`.`.`.`.`.`.`.`.`.`.`.",
"oXoXoXoXoXoXoXoXoXoXoXoXoX}.}.}.XXoXoXoXoXoXoXoXoXoX",
".X.X.X.X.X.X.X.X.X.X].P.w.K K K K e._. X.X.X.X.X.X.X",
"'.'.'.'.'.'.'.'.'.b.J H H G S H J 7.8.u.).'.'.'.'.'.",
"L.L.L.L.L.L.L.L.6.C C h < > > ; * B %.>.1.K.L.L.L.L.",
"F.F.F.F.F.F.F.:.b b & > 4 L L 6 , : m =.-.,.D.F.F.F.",
"N.N.N.N.N.N.M.v v - 2 r E U Y Q E q : ;.,.V.C.N.N.N.",
"n.n.n.n.n.n. .l j X q T.W._ / W.W.( 3 A A.Z.A.m.n.n.",
"*.*.*.*.*.*.l j a , 5 _ ~.^.!./.' I 6 1 J.H.H.<.*.*.",
"............f f # , P Y ] {.|.!.^ R L > d.p.p.2.....",
"{ { { { { [ p s # , L U E.(.{.!.! T L : x.s.a.t.{ { ",
"[ [ [ [ [ c p i + > 4 ` Q.E.U.~.] 6 5 8 c.x.g.r.[ [ ",
"x c c c c x i i i   t T.R.! W Y.R.) ; D z.l.l.5.c c ",
"z z x x z x d u y O 9 w e 6 L 7 r 0 % v.z.j.l.X.x z ",
"k k k k k k g y y y @ . > 3 4 , ; % q.j.j.j.f.j k k ",
"k k k g k g g u + + y d = $ o & M y.i.f.f.h.N k g k ",
"k g g g g g g g y + + p k x [ o.$.5.0.i.f.4.g g g g ",
"g g g g g g g g g y + p j z [ | #.&.9.0.@.g g g g k ",
"g g g g g g g g g g d d g z c } o.$.&.n g g g g g g ",
"F F F F F F F F F F Z Z V N O.+.4.3.F F F F F F F F ",
"I.I.I.I.I.I.I.I.I.I.I.I.I.I.I.I.I.I.I.I.I.I.I.I.I.I.",
"[.[.[.[.[.[.[.[.[.[.[.[.[.[.[.[.[.[.[.[.[.[.[.[.[.[."
};
