/* XPM */
static char *hide_inactive[] = {
/* columns rows colors chars-per-pixel */
"27 25 256 2 ",
"   c #0B0082",
".  c #53455B",
"X  c #50499F",
"o  c #5A515C",
"O  c #59505C",
"+  c #0A017C",
"@  c #584E5C",
"#  c #6A63AD",
"$  c #07056E",
"%  c #4A3B4E",
"&  c #140B3D",
"*  c #2E2019",
"=  c #2E257D",
"-  c #0B1074",
";  c #0B0079",
":  c #2D1D49",
">  c #34223D",
",  c #0A005A",
"<  c #060142",
"1  c #06014D",
"2  c #080152",
"3  c #09016F",
"4  c #08014F",
"5  c #080146",
"6  c #0B005E",
"7  c #D0CED8",
"8  c #2945DD",
"9  c #92A4EC",
"0  c #1F35D6",
"q  c #918CAF",
"w  c #3C5AE4",
"e  c #FDF8EF",
"r  c #41387C",
"t  c #DCDEEE",
"y  c #98A7EB",
"u  c #5670E7",
"i  c #2D47E2",
"p  c #0B0060",
"a  c #1624DA",
"s  c #0B05B9",
"d  c #0B0067",
"f  c #0C0FCD",
"g  c #0B006F",
"h  c #0B018A",
"j  c #0B029F",
"k  c #06013F",
"l  c #5E5E7B",
"z  c #060146",
"x  c #342B93",
"c  c #151E76",
"v  c #060151",
"b  c #06015A",
"n  c #42477A",
"m  c #E0DCD8",
"M  c #06014A",
"N  c #263078",
"B  c #3431C2",
"V  c #56485C",
"C  c #574363",
"Z  c #715E6F",
"A  c #0C0544",
"S  c #282140",
"D  c #5E57A4",
"F  c #1B0D61",
"G  c #181449",
"H  c #2C32B3",
"J  c #523F5F",
"K  c #2D1F18",
"L  c #635364",
"P  c #55445D",
"I  c #3B294D",
"U  c #5B4D7F",
"Y  c #39254B",
"T  c #36254C",
"R  c #442F5D",
"E  c #605AA6",
"W  c #EEE9E3",
"Q  c #3C3E66",
"!  c #060365",
"~  c #2C1E17",
"^  c #59545C",
"/  c #1517CC",
"(  c #4F3E59",
")  c #71689E",
"_  c #342B77",
"`  c #3C3389",
"'  c #432F60",
"]  c #5B55BE",
"[  c #2B2390",
"{  c #3D2C54",
"}  c #2022BE",
"|  c #37272B",
" . c #342246",
".. c #6862B4",
"X. c #0D0260",
"o. c #6D67B9",
"O. c #191089",
"+. c #3B34B2",
"@. c #7B6972",
"#. c #271E82",
"$. c #3F4271",
"%. c #5B4A61",
"&. c #282C80",
"*. c #302068",
"=. c #3E2C38",
"-. c #2B2384",
";. c #5D4F7B",
":. c #3F3074",
">. c #4840AB",
",. c #3E2D49",
"<. c #281E25",
"1. c #38272F",
"2. c #2A194C",
"3. c #0B029B",
"4. c #676783",
"5. c #191FB9",
"6. c #09015F",
"7. c #51415E",
"8. c #2128C0",
"9. c #090163",
"0. c #6B65B1",
"q. c #45314B",
"w. c #635663",
"e. c #402F5F",
"r. c #3D2B3C",
"t. c #46345D",
"y. c #2A1E1D",
"u. c #3B2A40",
"i. c #A5A6C5",
"p. c #594762",
"a. c #4E52A9",
"s. c #504058",
"d. c #1522CE",
"f. c #37469F",
"g. c #54475B",
"h. c #C7C9DB",
"j. c #665568",
"k. c #6B5B68",
"l. c #453546",
"z. c #130987",
"x. c #48364F",
"c. c #0E0369",
"v. c #483454",
"b. c #453FC1",
"n. c #4B3C52",
"m. c #6B75B0",
"M. c #4A3F8B",
"N. c #736DB3",
"B. c #635DB6",
"V. c #08086A",
"C. c #3C2C32",
"Z. c #6B64AD",
"A. c #6660A9",
"S. c #736270",
"D. c #434795",
"F. c #8793DD",
"G. c #4D4394",
"H. c #2C44DE",
"J. c #5C55B6",
"K. c #5F59B7",
"L. c #211B38",
"P. c #301E3B",
"I. c #352152",
"U. c #3C2B5F",
"Y. c #2020B3",
"T. c #2923BD",
"R. c #302023",
"E. c #28309D",
"W. c #3B2B2E",
"Q. c #090A96",
"!. c #6A63B0",
"~. c #4B60DB",
"^. c #6B64B5",
"/. c #262CCA",
"(. c #6760B7",
"). c #433A86",
"_. c #42398B",
"`. c #5851A2",
"'. c #5B54A4",
"]. c #6961A9",
"[. c #10094F",
"{. c #50406C",
"}. c #574568",
"|. c #54446C",
" X c #E2DDDA",
".X c #0A0176",
"XX c #402E55",
"oX c #4540C1",
"OX c #D7D9EB",
"+X c #574D5C",
"@X c #4B45C3",
"#X c #635DA7",
"$X c #2133AD",
"%X c #2930A8",
"&X c #1E1E8F",
"*X c #3835C4",
"=X c #382966",
"-X c #74646C",
";X c #6E68B2",
":X c #6F6AB7",
">X c #211773",
",X c #0E0585",
"<X c #5F4F64",
"1X c #483849",
"2X c #504178",
"3X c #43487B",
"4X c #584C5E",
"5X c #322989",
"6X c #5A4D5D",
"7X c #3E357A",
"8X c #4941A6",
"9X c #6660BA",
"0X c #3D2C4D",
"qX c #40389B",
"wX c #22152E",
"eX c #514AA0",
"rX c #271A1D",
"tX c #424788",
"yX c #71636A",
"uX c #251465",
"iX c #42477C",
"pX c #322044",
"aX c #372343",
"sX c #806F74",
"dX c #191FB2",
"fX c #110740",
"gX c #514458",
"hX c #757495",
"jX c #0B005D",
"kX c #272752",
"lX c #52405D",
"zX c #2628C0",
"xX c #090160",
"cX c #796970",
"vX c #524BBB",
"bX c #574A5C",
"nX c #524479",
"mX c #0D063C",
"MX c #3B3292",
"NX c #8E8EA7",
"BX c #615462",
"VX c #3B3296",
"CX c #544DBB",
"ZX c #47409C",
"AX c #22198C",
"SX c #251C8E",
"DX c #3C348C",
"FX c #3A2645",
"GX c #47335A",
"HX c #42314A",
"JX c #414679",
"KX c #321F51",
"LX c #0B0256",
"PX c #57495C",
"IX c #6059A5",
"UX c #443C9A",
/* pixels */
"0 0 0 0 0 0 0 0 0 0 0 0 0 0 0 0 0 0 0 0 0 0 0 0 0 0 0 ",
"8 8 8 8 8 8 8 8 8 8 8 8 8 8 8 8 8 8 8 8 8 8 8 8 8 8 8 ",
"w w w w w w w w w w w w w w w w w w w w w w w w w w w ",
"9 9 9 9 9 9 9 9 9 9 9 9 9 9 9 9 9 9 9 9 9 9 9 9 9 9 9 ",
"e e e e e e e e e e e e e e  Xm m W e e e e e e e e e ",
"t t t t t t t t t t t h.NX4.l l l l hXi.OXt t t t t t ",
"y y y y y y y y y y m.3Xn n $.Q JXiXtXD.a.F.y y y y y ",
"u u u u u u u u u f.N N kX<.~ K y.S &.E.%XH ~.u u u u ",
"i i i i i i i i $Xc c L.* | ,.XX{ T : &XdX5.8.H.i i i ",
"a a a a a a a d.- - G * 0Xj.k.<X7.t.e.=XY.} zX/.a a a ",
"f f f f f f f Q.$ V.rXI cXyXw.4X. n.HXU.G.B B *X/ f f ",
"s s s s s s s $ ! [.R.S.-XBXo o +XgX1Xu.;.@Xb.oXT.s s ",
"j j j j j j 3.b b & > sXL 6Xo ^ O g.% C.|.] CXvX+.j j ",
"h h h h h h   v v &  .@.%.V O o @ . % W.{.9XK.J.>.h h ",
"            + 1 1 A P.Z p.P PXbXV s.l.1.U o.(.B.8X    ",
"; ; ; ; ; ; ; 1 M M wX}.C J lX7.( x.=.pX) :X^...qX; ; ",
"g g g g g g g 2 z z mX: ' R GXv.q.r.> nXN.;X0.!.#.g g ",
"d d d d d d d , < < < fX2.I.Y FXaXKX2X].Z.# # IXc.d d ",
"p p p p p p p p 5 k k < LXF uX*.:.M.X '.E #XA.= p p p ",
"6 6 6 6 6 6 6 6 , < k k 4 9..X,XAXx UXX `.D _.6 6 6 6 ",
"6 6 6 6 6 6 6 6 6 , 5 < 4 6.3 + O.[ VXZXeX` X.6 6 6 6 ",
"6 6 6 6 6 6 6 6 6 6 jX2 2 xX3 + z.SXx MX>X6 6 6 6 6 6 ",
"r r r r r r r r r r r r 7X_ = -.5XDX).r r r r r r r r ",
"q q q q q q q q q q q q q q q q q q q q q q q q q q q ",
"7 7 7 7 7 7 7 7 7 7 7 7 7 7 7 7 7 7 7 7 7 7 7 7 7 7 7 "
};
