/* XPM */
static char *bottom_right_inactive[] = {
/* columns rows colors chars-per-pixel */
"28 21 8 1 ",
"  c #C1C1C3",
". c #C1C2C3",
"X c #C1C2C4",
"o c #C2C2C4",
"O c #C2C3C4",
"+ c #C2C3C5",
"@ c #C3C3C5",
"# c None",
/* pixels */
"########################@@@@",
"########################@@@@",
"########################@@@@",
"########################@@@@",
"########################X@@X",
"########################@@@@",
"########################@OOO",
"########################@OOO",
"########################.@.@",
"########################@.@.",
"######################## @X@",
"########################@ XX",
"######################## @ @",
"########################@ @ ",
"########################XX X",
"########################XXXX",
"########################XXX#",
"...........................#",
"..........................##",
"...  ...    ... ...  ...####",
"                  ..   #####"
};
