/* XPM */
static char *bottom_inactive[] = {
/* columns rows colors chars-per-pixel */
"18 4 2 1 ",
"  c #C1C2C3",
". c #C1C1C3",
/* pixels */
"                  ",
"                  ",
"..................",
".................."
};
