/* XPM */
static char *close_active[] = {
/* columns rows colors chars-per-pixel */
"26 25 228 2 ",
"   c black",
".  c #030000",
"X  c #020202",
"o  c #030203",
"O  c gray1",
"+  c #050405",
"@  c #060506",
"#  c #060607",
"$  c #0A0000",
"%  c #0E0000",
"&  c #070708",
"*  c gray3",
"=  c #08080A",
"-  c #0A080A",
";  c #0A090B",
":  c #0B0A0C",
">  c #0B0B0D",
",  c gray5",
"<  c #0D0D0F",
"1  c gray6",
"2  c #150505",
"3  c #1B0000",
"4  c #180202",
"5  c #1B0303",
"6  c #1C0A0C",
"7  c #0E0E10",
"8  c #0F0F11",
"9  c #180E10",
"0  c #101010",
"q  c #111113",
"w  c gray7",
"e  c #111214",
"r  c #141417",
"t  c #1C1013",
"y  c #181215",
"u  c #141518",
"i  c #161618",
"p  c #17171A",
"a  c #1D1618",
"s  c #17181B",
"d  c #181818",
"f  c #18181B",
"g  c #18181C",
"h  c #19191D",
"j  c #1B1B1D",
"k  c #1A1A1E",
"l  c #1C1C1E",
"z  c #1E1E1E",
"x  c #210607",
"c  c #2C0101",
"v  c #2D0101",
"b  c #2E0506",
"n  c #220B0C",
"m  c #310303",
"M  c #370101",
"N  c #340607",
"B  c #3F0102",
"V  c #3E0304",
"C  c #310A0A",
"Z  c #370B0B",
"A  c #390B0B",
"S  c #1C1D21",
"D  c #222222",
"F  c #212125",
"G  c #232324",
"H  c #212126",
"J  c #212127",
"K  c #222327",
"L  c #252525",
"P  c #252527",
"I  c gray15",
"U  c #222328",
"Y  c #2A2A2A",
"T  c #2A2A2B",
"R  c #28292E",
"E  c #28292F",
"W  c #2F2E2E",
"Q  c #372525",
"!  c #292A30",
"~  c #2F3037",
"^  c #323232",
"/  c #333232",
"(  c #333334",
")  c gray21",
"_  c #313239",
"`  c #363638",
"'  c #35363E",
"]  c #35373E",
"[  c #36373E",
"{  c #36373F",
"}  c gray22",
"|  c #393839",
" . c #393939",
".. c gray23",
"X. c #3C3B3B",
"o. c #3F3F3F",
"O. c #470202",
"+. c #490201",
"@. c #490102",
"#. c #4C0101",
"$. c #4D0101",
"%. c #4F0201",
"&. c #4E0202",
"*. c #420E0E",
"=. c #490909",
"-. c #500201",
";. c #510201",
":. c #520102",
">. c #550201",
",. c #570201",
"<. c #5B0201",
"1. c #5D0201",
"2. c #5E0201",
"3. c #40191A",
"4. c #511615",
"5. c #620201",
"6. c #640201",
"7. c #690101",
"8. c #680201",
"9. c #690201",
"0. c #6D0201",
"q. c #720101",
"w. c #780201",
"e. c #7E0101",
"r. c #7C0201",
"t. c #7F0404",
"y. c #781616",
"u. c #4B2020",
"i. c #5D2020",
"p. c #513838",
"a. c #6C2020",
"s. c #6A2A2A",
"d. c #752020",
"f. c #782A2A",
"g. c #792A2A",
"h. c #793F3E",
"j. c #393A42",
"k. c #3C3E46",
"l. c gray25",
"z. c #424141",
"x. c #434243",
"c. c #434343",
"v. c #434344",
"b. c #42444D",
"n. c #484848",
"m. c #494949",
"M. c #4A4949",
"N. c #49494A",
"B. c #4C4C4C",
"V. c #4E4D4D",
"C. c #4E4E4F",
"Z. c #4F525C",
"A. c #505050",
"S. c #515051",
"D. c gray33",
"F. c #565656",
"G. c #575657",
"H. c #585859",
"J. c gray35",
"K. c #5A5A5A",
"L. c #5C5858",
"P. c gray36",
"I. c #5F5F5F",
"U. c #5B5F6A",
"Y. c #606060",
"T. c gray38",
"R. c #626262",
"E. c gray39",
"W. c #646464",
"Q. c gray40",
"!. c #686868",
"~. c DimGray",
"^. c gray42",
"/. c #636873",
"(. c #810201",
"). c #830201",
"_. c #840101",
"`. c #840201",
"'. c #860201",
"]. c #870201",
"[. c #8F0201",
"{. c #8F0C0C",
"}. c #910C0C",
"|. c #950D0D",
" X c #9C1110",
".X c #9E1211",
"XX c #A00E0E",
"oX c #AB1312",
"OX c #882C2B",
"+X c #8D2C2C",
"@X c #9C2323",
"#X c #912828",
"$X c #9D2929",
"%X c #A02E2D",
"&X c #A43535",
"*X c #AA3F3F",
"=X c #96403F",
"-X c #995252",
";X c #B05050",
":X c #B75353",
">X c #B55F5E",
",X c #CB7776",
"<X c #D07D7D",
"1X c #D27D7D",
"2X c #959493",
"3X c #DF8F8F",
"4X c #DE9696",
"5X c #D19A99",
"6X c #D89B9B",
"7X c #DA9B9B",
"8X c #DD9B9B",
"9X c #E09393",
"0X c #E29493",
"qX c #E3A3A3",
"wX c #E6A3A3",
"eX c #E7A4A4",
"rX c #EAA4A3",
"tX c #EAAEAD",
"yX c #EDAEAD",
"uX c #EFAEAD",
"iX c #F1AEAE",
"pX c #F2B5B5",
"aX c #F6BDBD",
"sX c #F8BEBE",
"dX c #D3D2D1",
"fX c #F9C5C5",
"gX c #FAC6C5",
"hX c #FDD1D1",
/* pixels */
"/./././././././././././././././././././././././././.",
"U.U.U.U.U.U.U.U.U.U.U.U.U.U.U.U.U.U.U.U.U.U.U.U.U.U.",
"Z.Z.Z.Z.Z.Z.Z.Z.Z.Z.Z.Z.Z.Z.Z.Z.Z.Z.Z.Z.Z.Z.Z.Z.Z.Z.",
"b.b.b.b.b.b.b.b.b.b.b.b.b.b.b.b.b.b.b.b.b.b.b.b.b.b.",
"k.k.k.k.k.k.k.k.k.k.k.k.k.{ { { j.k.k.k.k.k.k.k.k.k.",
"{ { { { { { { { { { _ K h p p p s S R { { { { { { { ",
"~ ~ ~ ~ ~ ~ ~ ~ ~ J r r r y t r r r r s ! ~ ~ ~ ~ ~ ",
"R R R R R R R R h q q n V -.>.#.N 9 q e w K R R R R ",
"J J J J J J J h 7 7 b -.7.`.`.w.5.+.6 7 7 p J J J J ",
"h l h h h h p : > x 4.f.+X|..X#XOXa.O.a j J P h h j ",
"r r r r r r < = - O.a.6XwX:X*XeXqX=X2.3.( ( ` j r r ",
"< q < q 7 q & & 2 >.0.;XiXpXtXaX,X{.t.=.M.c.v.Y 0 0 ",
": : : : > : + + 5 <.[..X1XgXhXtX&XoX`.:.J.S.C. .: : ",
"+ # # # + +   + 5 <.`.}.3XsXgXyX$XXX(.&.R.J.G.v.+ & ",
"                $ -.7.>XrX0X3XiX1Xt.0.*.Q.Y.J.l.    ",
"                  v h.5X8X$X@X4X7X-X#.p.~.W.R. .    ",
"                  $ u.s.d.e.`.y.f.i.A ^.!.W.E.l     ",
"                    % M -.6.7.<.+.A J.W.E.R.J.O     ",
"                      . 3 v m C Q M.D.J.P.Y.I       ",
"                            O d Y ..n.A.F. .        ",
"                              1 D / l.M./ O         ",
"w w w w w w w w q q < * - * * q D / X.I q q w q w w ",
"V.V.V.V.V.V.V.V.V.V.V.M.X./ W ) l.B.V.V.V.V.V.V.V.V.",
"2X2X2X2X2X2X2X2X2X2X2X2X2X2X2X2X2X2X2X2X2X2X2X2X2X2X",
"dXdXdXdXdXdXdXdXdXdXdXdXdXdXdXdXdXdXdXdXdXdXdXdXdXdX"
};
