/* XPM */
static char *close_inactive[] = {
/* columns rows colors chars-per-pixel */
"26 25 239 2 ",
"   c black",
".  c #5B5F6A",
"X  c #636873",
"o  c #959493",
"O  c #42444D",
"+  c #D3D2D1",
"@  c #4F525C",
"#  c #3C3E46",
"$  c #010000",
"%  c #4E4D4D",
"&  c gray7",
"*  c #36373F",
"=  c #2F3037",
"-  c #141417",
";  c #28292E",
":  c #212126",
">  c #1A1A1E",
",  c #0F0F11",
"<  c #060506",
"1  c #0B0A0C",
"2  c #17171A",
"3  c #2B0902",
"4  c #050405",
"5  c #333232",
"6  c #010100",
"7  c #090808",
"8  c #4A4949",
"9  c #626161",
"0  c gray39",
"q  c #646464",
"w  c #18181B",
"e  c #1E0501",
"r  c #121213",
"t  c #020100",
"y  c #111113",
"u  c #0E0E10",
"i  c #35373E",
"p  c #100E10",
"a  c #380F04",
"s  c #2A0902",
"d  c #2E0A03",
"f  c #343334",
"g  c #5D5C5C",
"h  c #030203",
"j  c #2A100C",
"k  c #300C03",
"l  c #070607",
"z  c #595859",
"x  c #100F0F",
"c  c #320C03",
"v  c #0A090B",
"b  c #0A0809",
"n  c #401105",
"m  c #6E4438",
"M  c #2E0902",
"N  c #4F210B",
"B  c #302F2E",
"V  c #330D03",
"C  c #252525",
"Z  c #220804",
"A  c #0C0B0D",
"S  c #3F1406",
"D  c #280802",
"F  c #1F0A07",
"G  c #212127",
"H  c #53290F",
"J  c #4B1B0C",
"K  c #151518",
"L  c #515050",
"P  c #381004",
"I  c #3A1004",
"U  c #532D10",
"Y  c #3B1305",
"T  c #443937",
"R  c #5A2E18",
"E  c #2C2B2A",
"W  c #636262",
"Q  c #563F3A",
"!  c #50230C",
"~  c #593F39",
"^  c #444444",
"/  c #605F5F",
"(  c #575656",
")  c #3E1508",
"_  c #4D220B",
"`  c #39140A",
"'  c #4E210B",
"]  c #52260F",
"[  c #4C200A",
"{  c #232328",
"}  c #070708",
"|  c #51260F",
" . c #373738",
".. c #270701",
"X. c gray29",
"o. c #522415",
"O. c #38231F",
"+. c #292A30",
"@. c #656464",
"#. c #212125",
"$. c #29292F",
"%. c #434241",
"&. c #5C301B",
"*. c #40403F",
"=. c #181112",
"-. c #3D1106",
";. c #414040",
":. c #5A5959",
">. c #1B1B1D",
",. c #5F3426",
"<. c #190D0C",
"1. c #151010",
"2. c #161315",
"3. c #451A08",
"4. c #4F4E4F",
"5. c #2A2A2B",
"6. c #242324",
"7. c #373636",
"8. c #512B22",
"9. c gray23",
"0. c gray33",
"q. c #222327",
"w. c #350D03",
"e. c #151517",
"r. c #100302",
"t. c #330B03",
"y. c #1E1E1E",
"u. c #1E1D1E",
"i. c #070100",
"p. c #360E04",
"a. c #4D4C4C",
"s. c #360F04",
"d. c #0B0100",
"f. c #260903",
"g. c #19191D",
"h. c #3C3C3B",
"j. c #52290E",
"k. c #592D1B",
"l. c #4A1B08",
"z. c gray1",
"x. c #370E04",
"c. c #3E1105",
"v. c #35363E",
"b. c #130300",
"n. c #444343",
"m. c #350F04",
"M. c #3D3C3B",
"N. c #09080A",
"B. c #606060",
"V. c #62605F",
"C. c #2C0A02",
"Z. c #232322",
"A. c #393939",
"S. c #53290E",
"D. c #240601",
"F. c #361209",
"G. c #686868",
"H. c #643828",
"J. c #52280E",
"K. c #6C5F5D",
"L. c #33150F",
"P. c #6A6969",
"I. c #542614",
"U. c #393A42",
"Y. c #1E1A1A",
"T. c #181718",
"R. c #676666",
"E. c #4A4A49",
"W. c #4A1F0A",
"Q. c #441807",
"!. c #7B5043",
"~. c #74493B",
"^. c #232222",
"/. c #1A191D",
"(. c #4D1F0B",
"). c #270802",
"_. c #5B5A5A",
"`. c #6B4137",
"'. c #0E0D0F",
"]. c #333332",
"[. c #6E4131",
"{. c #1E0906",
"}. c #52270D",
"|. c gray3",
" X c #080100",
".X c gray35",
"XX c #411707",
"oX c #4B1F0A",
"OX c #764B3E",
"+X c #0B0B0D",
"@X c #421506",
"#X c #4B1B09",
"$X c #50220B",
"%X c #50260D",
"&X c #120503",
"*X c #050403",
"=X c #310A02",
"-X c #393839",
";X c #4A2C25",
":X c gray22",
">X c #491B08",
",X c #240702",
"<X c #1C1D21",
"1X c #4A3936",
"2X c #6D6C6C",
"3X c #4F3029",
"4X c #313239",
"5X c #494948",
"6X c #131214",
"7X c #6B3F2D",
"8X c #1A1818",
"9X c #040100",
"0X c #2E0A02",
"qX c gray15",
"wX c #441808",
"eX c #18181C",
"rX c #370F04",
"tX c #481908",
"yX c #51270D",
"uX c #320B03",
"iX c #542A10",
"pX c #434243",
"aX c #411305",
"sX c #4D3531",
"dX c #111010",
"fX c #150C0C",
"gX c #0F0605",
"hX c #4A322E",
"jX c #515051",
"kX c #4A1F0F",
"lX c #36373E",
"zX c #5D2F1D",
"xX c #502317",
"cX c #575657",
"vX c #262627",
"bX c #170807",
"nX c #020202",
"mX c gray5",
"MX c #3C140C",
/* pixels */
"X X X X X X X X X X X X X X X X X X X X X X X X X X ",
". . . . . . . . . . . . . . . . . . . . . . . . . . ",
"@ @ @ @ @ @ @ @ @ @ @ @ @ @ @ @ @ @ @ @ @ @ @ @ @ @ ",
"O O O O O O O O O O O O O O O O O O O O O O O O O O ",
"# # # # # # # # # # # # # lXi i U.# # # # # # # # # ",
"* * * * * * * * * * 4X{ /.2 2 2 2 <X$.v.* * * * * * ",
"= = = = = = = = = G K - - 2.=.- - - e.w +.= = = = = ",
"; ; ; ; ; ; ; ; g.y y <.Z D s ).F 1.r r 6Xq.; ; ; ; ",
": : : : : : : w u u {.s c a I rXk f.fXp p T.#.: : : ",
"> > > > > > eXA +XbX3 p.,.H.k.kX) ` L.Y.u.6.vX> > > ",
"- - - - - - '.N.b ,Xw.~.7X&.| oX3.Y F.1Xf f  .>.- - ",
", , , , , , } l gX3 m [.R iXj.%XW.XXm.~ X.n.^ 5., , ",
"1 1 1 1 1 v 4 4 &Xd !.zX] H U J._ wXP 3Xz jX4.-X1 1 ",
"< < < < < 4 h h r.0XOXI.N }.S.yX[ Q.s.;X9 _.cXpX< < ",
"            $ $ i.3 `.o.(.$X! ' >XS V Q R.B.g ;.    ",
"            $ $ $ e 8.xXJ #Xl.tX@Xa C.K.P.q 9 :X    ",
"            $ $ $  X..MX-.n aXc.x.d sX2XG.@.0 y.    ",
"              $ $ $ d.D.M uXt.=X3 hXV.q 0 W .Xz.    ",
"              $ $ $ $ 9Xb.e j O.T 8 0.:.g / C       ",
"                $ $ $ $ 6 t *X8XE h.5XL ( A.        ",
"                  $ $ $ 6 6 t x ^.5 *.E.5 nX        ",
"& & & & & & & & & & mX|.7 7 7 dXZ.].9.qX& & & & & & ",
"% % % % % % % % % % % 8 M.5 B 7.%.a.% % % % % % % % ",
"o o o o o o o o o o o o o o o o o o o o o o o o o o ",
"+ + + + + + + + + + + + + + + + + + + + + + + + + + "
};
