/* XPM */
static char *close_prelight[] = {
/* columns rows colors chars-per-pixel */
"26 25 220 2 ",
"   c black",
".  c #42444D",
"X  c #636873",
"o  c #5B5F6A",
"O  c #D3D2D1",
"+  c #959493",
"@  c #4F525C",
"#  c #3C3E46",
"$  c #4E4D4D",
"%  c #36373F",
"&  c gray7",
"*  c #141417",
"=  c #2F3037",
"-  c #28292E",
";  c #212126",
":  c #1A1A1E",
">  c #0F0F11",
",  c #060506",
"<  c #0B0A0C",
"1  c #111113",
"2  c #17171A",
"3  c gray3",
"4  c #0E0E10",
"5  c #290101",
"6  c #420101",
"7  c #323232",
"8  c #050405",
"9  c #646464",
"0  c #494949",
"q  c #AE8787",
"w  c #250101",
"e  c #35373E",
"r  c gray35",
"t  c gray23",
"y  c #0B0B0D",
"u  c #222222",
"i  c #452020",
"p  c gray1",
"a  c gray39",
"s  c gray38",
"d  c #19191D",
"f  c #2F0101",
"g  c #B29494",
"h  c #340101",
"j  c #030203",
"k  c #050000",
"l  c #333334",
"z  c gray36",
"x  c #2E0101",
"c  c #515051",
"v  c gray15",
"b  c #505050",
"n  c #575657",
"m  c #581C1C",
"M  c #0D0202",
"N  c #CBB5B5",
"B  c #393939",
"V  c #946969",
"C  c #B99A9A",
"Z  c #1C0100",
"A  c gray22",
"S  c #440101",
"D  c #130E10",
"F  c #300101",
"G  c #582B2A",
"H  c #565656",
"J  c #585859",
"K  c #CAAFAF",
"L  c #C9AFAF",
"P  c #200B0A",
"I  c #393A42",
"U  c #160B0C",
"Y  c DimGray",
"T  c #443838",
"R  c #B69292",
"E  c #0C0505",
"W  c #3F0201",
"Q  c #170100",
"!  c #626262",
"~  c #BA9A9A",
"^  c #480101",
"/  c #260101",
"(  c #4A4949",
")  c #582323",
"_  c #522A2A",
"`  c #606060",
"'  c #101010",
"]  c #333232",
"[  c #484848",
"{  c #5F2A2A",
"}  c #686868",
"|  c #222327",
" . c #232324",
".. c #5B3E3E",
"X. c #C9ABAB",
"o. c #5A5A5A",
"O. c #C19F9F",
"+. c #424141",
"@. c gray25",
"#. c #7C4C4C",
"$. c #212127",
"%. c #222328",
"&. c #434243",
"*. c #5F5F5F",
"=. c #C0A2A2",
"-. c #2E2525",
";. c #252527",
":. c #161012",
">. c #020000",
",. c #290908",
"<. c #3C3B3B",
"1. c #2F2E2E",
"2. c #1B1B1D",
"3. c gray21",
"4. c #4B0606",
"5. c #5E2424",
"6. c #160100",
"7. c #480606",
"8. c #200303",
"9. c #08080A",
"0. c #3E0101",
"q. c #0D0000",
"w. c #111214",
"e. c #020202",
"r. c #18181C",
"t. c #270100",
"y. c #2D1919",
"u. c #280E0D",
"i. c #0F0303",
"p. c #400101",
"a. c #B99999",
"s. c #35363E",
"d. c #230B0A",
"f. c #370101",
"g. c #09080A",
"h. c #562020",
"j. c #280201",
"k. c #280101",
"l. c #4A2A2A",
"z. c #490606",
"x. c #1D0606",
"c. c #252525",
"v. c #5B2B2A",
"b. c gray5",
"n. c #331515",
"m. c #754343",
"M. c gray42",
"N. c #1A0302",
"B. c #BE9E9E",
"V. c #3E2020",
"C. c #141518",
"Z. c #390101",
"A. c #320101",
"S. c #313239",
"D. c gray33",
"F. c #C5A4A4",
"G. c #070708",
"H. c #130607",
"J. c #4A2020",
"K. c #212125",
"L. c gray40",
"P. c #885E5D",
"I. c #A88080",
"U. c #5A5858",
"Y. c #1D0A0A",
"T. c #151215",
"R. c #350101",
"E. c #471615",
"W. c #3C0101",
"Q. c #4E4E4F",
"!. c #2B0101",
"~. c #2A2A2A",
"^. c #4F0808",
"/. c gray6",
"(. c #1C1C1E",
"). c #4C4C4C",
"_. c #130A0B",
"`. c #A07777",
"'. c #3F3F3F",
"]. c #1A0505",
"[. c #070000",
"{. c #2C0101",
"}. c #0D0D0F",
"|. c #550909",
" X c #36373E",
".X c #500606",
"XX c #161618",
"oX c #551C1C",
"OX c #C7ABAB",
"+X c #363638",
"@X c #976C6C",
"#X c #B59999",
"$X c #512A2A",
"%X c #060607",
"&X c #49494A",
"*X c #310101",
"=X c #BB9999",
"-X c #3F0101",
";X c #393839",
":X c #181818",
">X c #28292F",
",X c #1C1D21",
"<X c #BB9A9A",
"1X c #BF9E9E",
"2X c #18181B",
"3X c #434344",
"4X c #4E0808",
"5X c #17181B",
"6X c #C4A3A3",
"7X c #1E1E1E",
"8X c #0A090B",
"9X c #200101",
"0X c #35201F",
"qX c #765252",
"wX c #434343",
"eX c #2A2A2B",
"rX c #240201",
"tX c #292A30",
"yX c #6A3F3F",
"uX c #1A1618",
/* pixels */
"X X X X X X X X X X X X X X X X X X X X X X X X X X ",
"o o o o o o o o o o o o o o o o o o o o o o o o o o ",
"@ @ @ @ @ @ @ @ @ @ @ @ @ @ @ @ @ @ @ @ @ @ @ @ @ @ ",
". . . . . . . . . . . . . . . . . . . . . . . . . . ",
"# # # # # # # # # # # # #  Xe e I # # # # # # # # # ",
"% % % % % % % % % % S.%.d 2 2 2 2 ,X>Xs.% % % % % % ",
"= = = = = = = = = $.C.* * T.:.* * * * 5XtX= = = = = ",
"- - - - - - - - d 1 1 U 8.5 !.t.x.D 1 1 w.| - - - - ",
"; ; ; ; ; ; ; 2X4 4 ].5 R.6 S W.*Xw _.4 4 XXK.; ; ; ",
": : : : : : r.y y H.n._ v.4.4X) G i rXuX(. .;.: : : ",
"* * * * * * }.9.g.9Xi C 1Xm.{ =XB.yXf y.l l +X2.* * ",
"> > > > > > G.%XE {.Z.#.6X=.g OXV 7.0.,.&XwX3XeX> > ",
"< < < < < 8X8 8 i.F ^ ^.@XL N g h.|.6 5 J c Q.;X< < ",
", , , , , 8 j j M x 6 z.q X.K a.oX.Xp.j.s o.n &., , ",
"                k k.h P.O.q I.F.`.W f.u.L.` z @.    ",
"                  Q ..#X<X5.m R ~ qX/ T Y 9 s A     ",
"                  k 0Xl.J.-X6 E.$XV.d.M.} 9 a 7X    ",
"                    [.Z 5 A.h f w P U.9 a ! r p     ",
"                      >.q.6.N.Y.-.0 D.r z *.c.      ",
"                            p :X~.t [ b H B         ",
"                              /.u 7 '.0 7 e.        ",
"& & & & & & & & & & b.3 3 3 3 ' u 7 t v & & & & & & ",
"$ $ $ $ $ $ $ $ $ $ $ ( <.] 1.3.+.).$ $ $ $ $ $ $ $ ",
"+ + + + + + + + + + + + + + + + + + + + + + + + + + ",
"O O O O O O O O O O O O O O O O O O O O O O O O O O "
};
