/* XPM */
static char *close_pressed[] = {
/* columns rows colors chars-per-pixel */
"26 25 217 2 ",
"   c black",
".  c #D3D2D1",
"X  c #959493",
"o  c #4F525C",
"O  c #42444D",
"+  c #636873",
"@  c #5B5F6A",
"#  c #3C3E46",
"$  c #4E4D4D",
"%  c #36373F",
"&  c gray7",
"*  c #FEFEFC",
"=  c #2F3037",
"-  c #141417",
";  c #28292E",
":  c #212126",
">  c #1A1A1E",
",  c #0F0F11",
"<  c #060506",
"1  c #0B0A0C",
"2  c #111113",
"3  c #17171A",
"4  c gray3",
"5  c #0E0E10",
"6  c #646464",
"7  c #323232",
"8  c #050405",
"9  c gray36",
"0  c #222222",
"q  c gray35",
"w  c #F5F0EC",
"e  c #E6D9CE",
"r  c gray39",
"t  c #494949",
"y  c #A32C0C",
"u  c #030203",
"i  c gray23",
"p  c gray38",
"a  c #0B0B0D",
"s  c #35373E",
"d  c #E5D6CD",
"f  c #19191D",
"g  c gray1",
"h  c #333334",
"j  c #18181B",
"k  c #992008",
"l  c #641606",
"z  c #791906",
"x  c #751805",
"c  c #5C0F03",
"v  c #161618",
"b  c #393A42",
"n  c #7C1705",
"m  c #744436",
"M  c #35110D",
"N  c gray6",
"B  c #626262",
"V  c #854121",
"C  c #8F5B4A",
"Z  c #8C5A4A",
"A  c #020202",
"S  c #4A0C02",
"D  c #874422",
"F  c #5F2F24",
"G  c #565656",
"H  c #1B1B1D",
"J  c DimGray",
"K  c #2F0904",
"L  c #961E07",
"P  c #2C0703",
"I  c #240906",
"U  c #5B1004",
"Y  c #575657",
"T  c #621406",
"R  c #55140B",
"E  c #515051",
"W  c gray33",
"Q  c #902309",
"!  c #653B34",
"~  c #222327",
"^  c #805046",
"/  c #212125",
"(  c #232324",
")  c #1E1E1E",
"_  c #93290B",
"`  c #831B06",
"'  c #701504",
"]  c #313239",
"[  c #222328",
"{  c #5A5A5A",
"}  c #621D10",
"|  c #080100",
" . c #141518",
".. c #0C080A",
"X. c #A0786A",
"o. c #18181C",
"O. c #704036",
"+. c #C4A69B",
"@. c #1C1D21",
"#. c #7F4637",
"$. c #9D3912",
"%. c #35363E",
"&. c #943310",
"*. c #49494A",
"=. c #DAC6BD",
"-. c #1C0400",
";. c #905232",
":. c #484848",
">. c #8B250A",
",. c gray40",
"<. c #881B07",
"1. c #855548",
"2. c #181818",
"3. c #333232",
"4. c #434343",
"5. c #060607",
"6. c #0A090B",
"7. c #8E3110",
"8. c #434243",
"9. c #151417",
"0. c #08080A",
"q. c #17181B",
"w. c #2A2A2A",
"e. c gray22",
"r. c #393839",
"t. c #B94215",
"y. c #605958",
"u. c #292A30",
"i. c #A62D0C",
"p. c #641504",
"a. c #A62F0D",
"s. c #686868",
"d. c #2F2E2E",
"f. c #9A3811",
"g. c #261313",
"h. c #774436",
"j. c #492A26",
"k. c #550C02",
"l. c #7F270B",
"z. c #EEE5DD",
"x. c #967067",
"c. c #070708",
"v. c #585859",
"b. c #0D0D0F",
"n. c #252525",
"m. c #643F39",
"M. c #B2938A",
"N. c #101010",
"B. c #252527",
"V. c #424141",
"C. c #F6F1ED",
"Z. c #290F0C",
"A. c #B38C7C",
"S. c #6C6B6B",
"D. c #AB3B12",
"F. c #661605",
"G. c #C9AD9E",
"H. c #A8775F",
"J. c #9D2B0C",
"K. c #B0320E",
"L. c #4C4C4C",
"P. c #93543D",
"I. c #3C3B3B",
"U. c #872F0E",
"Y. c #370701",
"T. c #505050",
"R. c #140300",
"E. c #7D1A06",
"W. c gray5",
"Q. c #3F3F3F",
"!. c #7E1705",
"~. c #891C06",
"^. c #363638",
"/. c #212127",
"(. c #8B1D07",
"). c #434344",
"_. c #360D07",
"`. c #150300",
"'. c #8B472E",
"]. c #5F5F5F",
"[. c #36373E",
"{. c #89503C",
"}. c #CCAF9F",
"|. c gray25",
" X c #57251C",
".X c #28292F",
"XX c #731D07",
"oX c gray21",
"OX c #701805",
"+X c #1D1415",
"@X c #865548",
"#X c #4E4E4F",
"$X c #6A1C0C",
"%X c #393939",
"&X c #1C1C1E",
"*X c #56160C",
"=X c #7D1F08",
"-X c #111214",
";X c #7A1E08",
":X c gray15",
">X c #57170D",
",X c #741806",
"<X c #606060",
"1X c #771906",
"2X c #201110",
"3X c #221818",
"4X c #2A2A2B",
"5X c #A9300D",
"6X c #7E2309",
"7X c #491007",
"8X c #4A4949",
"9X c #92280B",
"0X c #DDCABE",
"qX c #511409",
"wX c #793929",
"eX c #862009",
"rX c #611204",
/* pixels */
"+ + + + + + + + + + + + + + + + + + + + + + + + + + ",
"@ @ @ @ @ @ @ @ @ @ @ @ @ @ @ @ @ @ @ @ @ @ @ @ @ @ ",
"o o o o o o o o o o o o o o o o o o o o o o o o o o ",
"O O O O O O O O O O O O O O O O O O O O O O O O O O ",
"# # # # # # # # # # # # # [.s s b # # # # # # # # # ",
"% % % % % % % % % % ] [ f 3 3 3 3 @..X%.% % % % % % ",
"= = = = = = = = = /. .- - +Xg.9.- - - q.u.= = = = = ",
"; ; ; ; ; ; ; ; f 2 2 M T z E.x qX2X2 2 -X~ ; ; ; ; ",
": : : : : : : j 5 5 7XOXeXi.5X9X=XF.Z.5 5 v / : : : ",
"> > > > > > o.a a _.F 1.C &.$.{.Z m l 3X&X( B.> > > ",
"- - - - - - b.0...rXh.* * H.;.w * X.XX Xh h ^.H - - ",
", , , , , , c.5.I ` 6XA.* C.e * G.7.J.$X*.4.).4X, , ",
"1 1 1 1 1 6.8 8 K (.K.f.}.* * e D t.a.1Xv.E #Xr.1 1 ",
"< < < < < 8 u u P ~.y U.d * * z.V D.y ,Xp { Y 8.< < ",
"                R.!.;X+.* d 0X* =.l.Q } ,.<X9 |.    ",
"                  S x.* * P.'.w * M.p.m.J 6 p e.    ",
"                  `.! ^ #.>._ wX@XO.>XS.s.6 r )     ",
"                    -.c n L k <.' *Xy.6 r B q g     ",
"                      | Y.k.U R j.t W q 9 ].n.      ",
"                            g 2.w.i :.T.G %X        ",
"                              N 0 7 Q.t 7 A         ",
"& & & & & & & & & & W.4 4 4 4 N.0 7 i :X& & & & & & ",
"$ $ $ $ $ $ $ $ $ $ $ 8XI.3.d.oXV.L.$ $ $ $ $ $ $ $ ",
"X X X X X X X X X X X X X X X X X X X X X X X X X X ",
". . . . . . . . . . . . . . . . . . . . . . . . . . "
};
