/* XPM */
static char *hide_inactive[] = {
/* columns rows colors chars-per-pixel */
"27 25 213 2 ",
"   c black",
".  c #959493",
"X  c #D3D2D1",
"o  c #42444D",
"O  c #5B5F6A",
"+  c #4F525C",
"@  c #636873",
"#  c #3C3E46",
"$  c #4E4D4D",
"%  c #36373F",
"&  c gray7",
"*  c #2F3037",
"=  c #141417",
"-  c #28292E",
";  c #212126",
":  c #1A1A1E",
">  c #0F0F11",
",  c #060506",
"<  c #0B0A0C",
"1  c #17171A",
"2  c gray3",
"3  c #0E0E10",
"4  c #030612",
"5  c #030610",
"6  c #111113",
"7  c #323232",
"8  c #050405",
"9  c #040817",
"0  c #050A1B",
"q  c #646464",
"w  c #03050E",
"e  c #494949",
"r  c #112146",
"t  c gray39",
"y  c #222222",
"u  c gray38",
"i  c #0B0B0D",
"p  c gray23",
"a  c #35373E",
"s  c #08080A",
"d  c #333334",
"f  c gray36",
"g  c #0A1738",
"h  c #19191D",
"j  c #03050F",
"k  c #000002",
"l  c #030611",
"z  c gray1",
"x  c #030203",
"c  c #07102A",
"v  c gray35",
"b  c #101D40",
"n  c #060E25",
"m  c #232324",
"M  c #0A1739",
"N  c gray15",
"B  c #162748",
"V  c #18181C",
"C  c #0A0B0F",
"Z  c #434344",
"A  c #5F5F5F",
"S  c #585859",
"D  c #102146",
"F  c #393939",
"G  c #0F1832",
"H  c #08122F",
"J  c #28292F",
"K  c #0B101F",
"L  c gray25",
"P  c #060D22",
"I  c gray22",
"U  c #686868",
"Y  c #0C1A3E",
"T  c #484848",
"R  c #222328",
"E  c #5E5E61",
"W  c #2F2E2E",
"Q  c #2D3855",
"!  c #373C4C",
"~  c #03060F",
"^  c #0B193C",
"/  c #36373C",
"(  c #091330",
")  c #060E26",
"_  c #272E45",
"`  c #606060",
"'  c #1F2024",
"]  c #09132F",
"[  c #0C193B",
"{  c #1C1D21",
"}  c #393839",
"|  c #0D152D",
" . c #1E2844",
".. c #141518",
"X. c #292A30",
"o. c #060607",
"O. c #06070D",
"+. c #3B4359",
"@. c #050C1F",
"#. c #04060D",
"$. c #0B0C10",
"%. c gray21",
"&. c #0E0F12",
"*. c #393C44",
"=. c #03050D",
"-. c #181E30",
";. c #393A42",
":. c #565656",
">. c #5A5A5A",
",. c #1C1C1E",
"<. c #49494A",
"1. c #0C101C",
"2. c #333232",
"3. c #050508",
"4. c #070708",
"5. c #050A1D",
"6. c #020202",
"7. c #07090E",
"8. c #181818",
"9. c #101115",
"0. c #323339",
"q. c gray5",
"w. c #515051",
"e. c #262831",
"r. c #040815",
"t. c #444A5E",
"y. c #0D0D0F",
"u. c #313239",
"i. c #2A2A2B",
"p. c #232732",
"a. c #10131B",
"s. c #02030A",
"d. c #1E1E1E",
"f. c #08122C",
"g. c #4C4C4C",
"h. c #131417",
"j. c #222327",
"k. c #0E1D42",
"l. c #080F25",
"z. c #575657",
"x. c #112147",
"c. c #313A55",
"v. c #102046",
"b. c DimGray",
"n. c #0A090B",
"m. c #0B1636",
"M. c #19191B",
"N. c #161618",
"B. c #050A1C",
"V. c #0F1E44",
"C. c #292C36",
"Z. c #1C2641",
"A. c #3B3C42",
"S. c #0A0D1B",
"D. c #07080B",
"F. c #010104",
"G. c #010308",
"H. c #020305",
"J. c #363638",
"K. c #373739",
"L. c #17181B",
"P. c #0B183B",
"I. c #2F3035",
"U. c #18181B",
"Y. c #010207",
"T. c #050C22",
"R. c #1B1B1D",
"E. c #121216",
"W. c #434243",
"Q. c gray6",
"!. c gray40",
"~. c #111214",
"^. c #040A1A",
"/. c #393F51",
"(. c #050B1F",
"). c #505050",
"_. c #050A1A",
"`. c #252525",
"'. c #5F5F60",
"]. c #0E1E43",
"[. c #2A2A2A",
"{. c #252527",
"}. c #1B2849",
"|. c #030407",
" X c #0C0E13",
".X c #212127",
"XX c #3F4558",
"oX c #3F3F3F",
"OX c #141E3A",
"+X c #101010",
"@X c #050B1D",
"#X c #4E4E4F",
"$X c #35363E",
"%X c #36373E",
"&X c #212125",
"*X c #434343",
"=X c #040919",
"-X c #000102",
";X c #424141",
":X c #02040B",
">X c #4A4949",
",X c #28314B",
"<X c #6C6C6C",
"1X c gray33",
"2X c #0B193B",
"3X c #060B1C",
"4X c #3C3B3B",
"5X c #182547",
"6X c #151D35",
"7X c #626262",
"8X c #030713",
"9X c #08122D",
"0X c #081431",
/* pixels */
"@ @ @ @ @ @ @ @ @ @ @ @ @ @ @ @ @ @ @ @ @ @ @ @ @ @ @ ",
"O O O O O O O O O O O O O O O O O O O O O O O O O O O ",
"+ + + + + + + + + + + + + + + + + + + + + + + + + + + ",
"o o o o o o o o o o o o o o o o o o o o o o o o o o o ",
"# # # # # # # # # # # # # # %Xa a ;.# # # # # # # # # ",
"% % % % % % % % % % % u.R h 1 1 1 1 { J $X% % % % % % ",
"* * * * * * * * * * .X..= = E.9.h.= = = L.X.* * * * * ",
"- - - - - - - - - h 6 6 $.#.j 5 w 7.&.6 6 ~.j.- - - - ",
"; ; ; ; ; ; ; ; U.3 3 O.5 9 B.@X0 r.~ C 3 3 N.&X; ; ; ",
": : : : : : : V i i D.5 _._ ,XZ.G l.K a.M.,.m {.: : : ",
"= = = = = = = y.s s =.9 +.Q }.b g H P S./ d d J.R.= = ",
"> > > > > > > 4.o.3.5 /.c.5Xr r k.g c ^.*.<.*XZ i.> > ",
"< < < < < < n.8 8 |.4 t. .b x.B v.[ f.5.C.S w.#X} < < ",
", , , , , , 8 x x H.l XXOX2XV.D ].M c 0 e.u >.z.W., , ",
"                  k w ! 6Xm.^ Y P.0Xn 9 A.!.` f L     ",
"                    G.p.-.| ] ( 9X) 0 l E b.q u I     ",
"                    k :X1.3X@.T.(.=X4 0.<XU q t d.    ",
"                      -Xs.j 4 8X4 w I.'.q t 7Xv z     ",
"                          F.Y. X' K.e 1Xv f A `.      ",
"                              z 8.[.p T ).:.F         ",
"                                Q.y 7 oXe 7 6.        ",
"& & & & & & & & & & & q.2 2 2 2 +Xy 7 p N & & & & & & ",
"$ $ $ $ $ $ $ $ $ $ $ $ >X4X2.W %.;Xg.$ $ $ $ $ $ $ $ ",
". . . . . . . . . . . . . . . . . . . . . . . . . . . ",
"X X X X X X X X X X X X X X X X X X X X X X X X X X X "
};
