/* XPM */
static char *hide_prelight[] = {
/* columns rows colors chars-per-pixel */
"27 25 229 2 ",
"   c black",
".  c #5B5F6A",
"X  c #959493",
"o  c #636873",
"O  c #4F525C",
"+  c #D3D2D1",
"@  c #42444D",
"#  c #3C3E46",
"$  c #4E4D4D",
"%  c #36373F",
"&  c gray7",
"*  c #2F3037",
"=  c #141417",
"-  c #28292E",
";  c #212126",
":  c #1A1A1E",
">  c #0F0F11",
",  c #0B0A0C",
"<  c #060506",
"1  c gray3",
"2  c #17171A",
"3  c #0E0E10",
"4  c #111113",
"5  c #323232",
"6  c #050405",
"7  c #646464",
"8  c gray39",
"9  c gray38",
"0  c #022558",
"q  c gray35",
"w  c #021744",
"e  c #BCC5CD",
"r  c #333334",
"t  c #494949",
"y  c gray23",
"u  c #222222",
"i  c gray36",
"p  c #35373E",
"a  c #0B0B0D",
"s  c #010F35",
"d  c #030203",
"f  c gray1",
"g  c #19191D",
"h  c #02153F",
"j  c #02163E",
"k  c #032A5E",
"l  c #011B3D",
"z  c #10121B",
"x  c #16171D",
"c  c #021F53",
"v  c #020E2F",
"b  c gray25",
"n  c #01113E",
"m  c #043469",
"M  c #04356B",
"N  c #505050",
"B  c #BCC1C9",
"V  c #252525",
"C  c #434343",
"Z  c #044075",
"A  c #044177",
"S  c gray22",
"D  c #032456",
"F  c #021A4A",
"G  c #021746",
"H  c #01103D",
"J  c #011647",
"K  c gray21",
"L  c #021E54",
"P  c #010D35",
"I  c #0E1017",
"U  c #032658",
"Y  c #434243",
"T  c #4E4E4F",
"R  c #212125",
"E  c #011240",
"W  c #58595B",
"Q  c #021846",
"!  c #45566E",
"~  c #455268",
"^  c #04356C",
"/  c #686868",
"(  c #3F3F3F",
")  c #01133D",
"_  c #3C3B3B",
"`  c #020E32",
"'  c #0C132D",
"]  c gray33",
"[  c #011541",
"{  c #191F33",
"}  c #161618",
"|  c #04386E",
" . c #5A5A5A",
".. c #010722",
"X. c #36373E",
"o. c #606060",
"O. c #455B72",
"+. c gray40",
"@. c #011039",
"#. c #033355",
"$. c #021C40",
"%. c #021843",
"&. c #021B4F",
"*. c #292A30",
"=. c #28292F",
"-. c #043369",
";. c #141518",
":. c #010F37",
">. c #626262",
",. c #101010",
"<. c #424141",
"1. c #383C4A",
"2. c #49494A",
"3. c #222327",
"4. c #BBC1C8",
"5. c #35363E",
"6. c #000209",
"7. c #000208",
"8. c #010D34",
"9. c #010F36",
"0. c #01113D",
"q. c #393839",
"w. c #021A4B",
"e. c #030A26",
"r. c #010E34",
"t. c #010825",
"y. c #010D31",
"u. c #031E4F",
"i. c #021E4F",
"p. c #333232",
"a. c #010F39",
"s. c #060607",
"d. c #032649",
"f. c #2A2A2A",
"g. c #0A0D18",
"h. c #03264B",
"j. c #01143D",
"k. c #0D0D0F",
"l. c #BCC5CC",
"z. c #03285D",
"x. c #343D51",
"c. c gray5",
"v. c #021C52",
"b. c #232324",
"n. c #575657",
"m. c #091331",
"M. c #455A70",
"N. c #121319",
"B. c #393939",
"V. c #565656",
"C. c #08080B",
"Z. c #060D25",
"A. c #18181C",
"S. c #021E4E",
"D. c #45566C",
"F. c #BCC3CB",
"G. c #18181B",
"H. c #02265B",
"J. c #0E1530",
"K. c #032355",
"L. c #BCC3CA",
"P. c #032E51",
"I. c #121C33",
"U. c #212127",
"Y. c gray42",
"T. c #252833",
"R. c #022053",
"E. c #060B1C",
"W. c #01092B",
"Q. c #1B1B1D",
"!. c DimGray",
"~. c #03275D",
"^. c #044579",
"/. c #011133",
"(. c #17181B",
"). c #050712",
"_. c #01113F",
"`. c #011542",
"'. c #1E1E1E",
"]. c #363638",
"[. c #1C1C1E",
"{. c #021641",
"}. c #020513",
"|. c #00020C",
" X c #01103A",
".X c #010D2F",
"XX c #010E38",
"oX c #08080A",
"OX c #010C2C",
"+X c #020D2D",
"@X c #515051",
"#X c #000003",
"$X c #111214",
"%X c #020202",
"&X c #434344",
"*X c #1C1D21",
"=X c #032B62",
"-X c #0C142E",
";X c #393A42",
":X c #252527",
">X c #2A2A2B",
",X c #4A4949",
"<X c #455166",
"1X c #455A71",
"2X c #030615",
"3X c #01133C",
"4X c #5F5F5F",
"5X c gray15",
"6X c #4C4C4C",
"7X c #021D4C",
"8X c #050C23",
"9X c #010B2F",
"0X c #484848",
"qX c #2F2E2E",
"wX c #021948",
"eX c #313239",
"rX c #070708",
"tX c #181818",
"yX c #01184A",
"uX c gray6",
"iX c #0B0E1D",
"pX c #222328",
"aX c #0A090B",
"sX c #032E52",
"dX c #010E33",
"fX c #0A1028",
"gX c #585859",
"hX c #000416",
"jX c #030C2A",
/* pixels */
"o o o o o o o o o o o o o o o o o o o o o o o o o o o ",
". . . . . . . . . . . . . . . . . . . . . . . . . . . ",
"O O O O O O O O O O O O O O O O O O O O O O O O O O O ",
"@ @ @ @ @ @ @ @ @ @ @ @ @ @ @ @ @ @ @ @ @ @ @ @ @ @ @ ",
"# # # # # # # # # # # # # # X.p p ;X# # # # # # # # # ",
"% % % % % % % % % % % eXpXg 2 2 2 2 *X=.5.% % % % % % ",
"* * * * * * * * * * U.;.= = N.z = = = = (.*.* * * * * ",
"- - - - - - - - - g 4 4 iXjXdXr.y.Z.I 4 4 $X3.- - - - ",
"; ; ; ; ; ; ; ; G.3 3 8Xs [ wXF Q ) .Xg.3 3 } R ; ; ; ",
": : : : : : : A.a a E.9.G c H.z.0 i.{.v x [.b.:X: : : ",
"= = = = = = = k.oXC.OX`.R.=XM | m k S.3X{ r r ].Q.= = ",
"> > > > > > > rXs.).:.w.~.^ A ^.Z -.0 w m.2.C &X>X> > ",
", , , , , , aX6 6 2X X%.$.h.sX#.P.d.l j ` gX@XT q., , ",
"< < < < < < 6 d d }.a./.B F.e e l.L.4.x.+X9  .n.Y < < ",
"                  7.8.j.~ ! 1XO.M.D.<XI.J.+.o.i b     ",
"                    t.0.w u.D U K.7Xh s 1.!.7 9 S     ",
"                    6.9Xn yXv.L &.J @.-XY./ 7 8 '.    ",
"                      |.W.XX_.E H P ' W 7 8 >.q f     ",
"                        #XhX..e.fXT.t ] q i 4XV       ",
"                              f tXf.y 0XN V.B.        ",
"                                uXu 5 ( t 5 %X        ",
"& & & & & & & & & & & c.1 1 1 1 ,.u 5 y 5X& & & & & & ",
"$ $ $ $ $ $ $ $ $ $ $ $ ,X_ p.qXK <.6X$ $ $ $ $ $ $ $ ",
"X X X X X X X X X X X X X X X X X X X X X X X X X X X ",
"+ + + + + + + + + + + + + + + + + + + + + + + + + + + "
};
