/* XPM */
static char *hide_pressed[] = {
/* columns rows colors chars-per-pixel */
"27 25 233 2 ",
"   c black",
".  c #5B5F6A",
"X  c #D3D2D1",
"o  c #636873",
"O  c #959493",
"+  c #4F525C",
"@  c #42444D",
"#  c #3C3E46",
"$  c #4E4D4D",
"%  c #36373F",
"&  c gray7",
"*  c #2F3037",
"=  c #141417",
"-  c #28292E",
";  c #212126",
":  c #1A1A1E",
">  c #0F0F11",
",  c #060506",
"<  c #0B0A0C",
"1  c #111113",
"2  c #17171A",
"3  c #0E0E10",
"4  c gray3",
"5  c #646464",
"6  c #323232",
"7  c #050405",
"8  c gray23",
"9  c gray39",
"0  c #494949",
"q  c #19191D",
"w  c gray35",
"e  c #333334",
"r  c gray36",
"t  c #222222",
"y  c #35373E",
"u  c #7F1B06",
"i  c #0B0B0D",
"p  c #030203",
"a  c gray1",
"s  c gray38",
"d  c #C34415",
"f  c #261313",
"g  c gray15",
"h  c #434243",
"j  c #891C06",
"k  c #585859",
"l  c #57251C",
"z  c #771906",
"x  c gray22",
"c  c #98250A",
"v  c #9B260A",
"b  c #2F2E2E",
"n  c #515051",
"m  c #141518",
"M  c #161618",
"N  c #CD4D18",
"B  c #35110D",
"V  c #8C2309",
"C  c #4C4C4C",
"Z  c #DDC9C0",
"A  c #626262",
"S  c #CF4816",
"D  c #691103",
"F  c #7F1805",
"G  c #370701",
"H  c #643F39",
"J  c #9D2B0C",
"K  c #8F2309",
"L  c #8E280B",
"P  c #AD2B0B",
"I  c #4A4949",
"U  c #292A30",
"Y  c #994316",
"T  c #101010",
"R  c #5A5A5A",
"E  c #2C0703",
"W  c #140300",
"Q  c #DFCCC1",
"!  c #772009",
"~  c #5B1004",
"^  c #1F0400",
"/  c #2F0904",
"(  c #DECCC1",
")  c #701806",
"_  c #A3521C",
"`  c #4E4E4F",
"'  c #B8320E",
"]  c #605958",
"[  c #881905",
"{  c #492A26",
"}  c gray33",
"|  c #424141",
" . c #7E1705",
".. c #D8C5BE",
"X. c #8E3310",
"o. c #222327",
"O. c #905B4B",
"+. c #EF7227",
"@. c #212125",
"#. c #A36C51",
"$. c #5F1C10",
"%. c #6C6B6B",
"&. c #E66020",
"*. c #212127",
"=. c #5F5F5F",
"-. c #A5290B",
";. c gray21",
":. c #2A2A2B",
">. c #434344",
",. c #550C02",
"<. c #A12C0C",
"1. c #49494A",
"2. c #AC3610",
"3. c #3C3B3B",
"4. c #17181B",
"5. c #232324",
"6. c #C0360F",
"7. c #222328",
"8. c #363638",
"9. c #151417",
"0. c #2A2A2A",
"q. c #8E2309",
"w. c #8A1D07",
"e. c #C54415",
"r. c #6B1404",
"t. c #0A090B",
"y. c #6E1807",
"u. c #BC4114",
"i. c #951F07",
"p. c gray6",
"a. c #080100",
"s. c #201110",
"d. c #CA4615",
"f. c #921F07",
"g. c #751805",
"h. c #1C1C1E",
"j. c #511409",
"k. c #18181B",
"l. c #A26C51",
"z. c #F37427",
"x. c #390E08",
"c. c #505050",
"v. c #484848",
"b. c #686868",
"n. c #93270B",
"m. c #36373E",
"M. c #DCC9C0",
"N. c #96270A",
"B. c #AC2F0D",
"V. c #181818",
"C. c #A5531D",
"Z. c #7D1A06",
"A. c #F47A2A",
"S. c #060607",
"D. c #111214",
"F. c #721303",
"G. c #791906",
"H. c #240906",
"J. c #070708",
"K. c #1B1B1D",
"L. c #290F0C",
"P. c #DAC6BE",
"I. c #313239",
"U. c gray40",
"Y. c #A62D0C",
"T. c #621406",
"R. c gray25",
"E. c #BD330E",
"W. c #A46F52",
"Q. c #955E4B",
"!. c #1D1415",
"~. c #020202",
"^. c #5F180D",
"/. c #35363E",
"(. c #0C080A",
"). c #60190E",
"_. c #CD4A17",
"`. c #B13710",
"'. c #393839",
"]. c #565656",
"[. c #8B1D07",
"{. c #1C1D21",
"}. c #4E1107",
"|. c #E35F1F",
" X c #08080A",
".X c #28292F",
"XX c #911D07",
"oX c #BB3A11",
"OX c #606060",
"+X c #D45019",
"@X c #DE5D1F",
"#X c #9B644E",
"$X c #DF5D1F",
"%X c #A9300D",
"&X c #811B06",
"*X c #A65A20",
"=X c #3F3F3F",
"-X c DimGray",
";X c #DFCDC1",
":X c #961E07",
">X c #992008",
",X c #5E2416",
"<X c #6A1C0C",
"1X c #575657",
"2X c #C04314",
"3X c #C24516",
"4X c #170300",
"5X c gray5",
"6X c #393939",
"7X c #18181C",
"8X c #6A1605",
"9X c #393A42",
"0X c #831B06",
"qX c #9D290B",
"wX c #9E664E",
"eX c #5A0E02",
"rX c #7A4639",
"tX c #9D4517",
"yX c #E76522",
"uX c #B23710",
"iX c #252527",
"pX c #0D0D0F",
"aX c #B33810",
"sX c #434343",
"dX c #BD3B11",
"fX c #873110",
"gX c #252525",
"hX c #55140B",
"jX c #A22B0B",
"kX c #9B2C0C",
"lX c #1E1E1E",
"zX c #221818",
"xX c #333232",
/* pixels */
"o o o o o o o o o o o o o o o o o o o o o o o o o o o ",
". . . . . . . . . . . . . . . . . . . . . . . . . . . ",
"+ + + + + + + + + + + + + + + + + + + + + + + + + + + ",
"@ @ @ @ @ @ @ @ @ @ @ @ @ @ @ @ @ @ @ @ @ @ @ @ @ @ @ ",
"# # # # # # # # # # # # # # m.y y 9X# # # # # # # # # ",
"% % % % % % % % % % % I.7.q 2 2 2 2 {..X/.% % % % % % ",
"* * * * * * * * * * *.m = = !.f 9.= = = 4.U * * * * * ",
"- - - - - - - - - q 1 1 B T.G.Z.g.j.s.1 1 D.o.- - - - ",
"; ; ; ; ; ; ; ; k.3 3 }.u c Y.%X<.q.) L.3 3 M @.; ; ; ",
": : : : : : : 7Xi i x.&XjXoXd._.e.uXN.y.zXh.5.iX: : : ",
"= = = = = = = pX X(.r.v dX+X|.yX$XN `.V l e e 8.K.= = ",
"> > > > > > > J.S.H.0XB.S &.z.A.+.@Xd J <X1.sX>.:.> > ",
"< < < < < < t.7 7 / [.kXX.tXC.*X_ Y fXL z k n ` '.< < ",
", , , , , , 7 p p E j ! P.Z Q ;X( M...rX8Xs R 1Xh , , ",
"                  W  .K Q.wX#.W.l.#XO.,X$.U.OXr R.    ",
"                    eXf.qXaX2X3Xu.2.n.u H -X5 s x     ",
"                    4XF.i.P E.6.' -.w.).%.b.5 9 lX    ",
"                      ^ D [ :X>XXXF ^.] 5 9 A w a     ",
"                        a.G ,.~ hX{ 0 } w r =.gX      ",
"                              a V.0.8 v.c.].6X        ",
"                                p.t 6 =X0 6 ~.        ",
"& & & & & & & & & & & 5X4 4 4 4 T t 6 8 g & & & & & & ",
"$ $ $ $ $ $ $ $ $ $ $ $ I 3.xXb ;.| C $ $ $ $ $ $ $ $ ",
"O O O O O O O O O O O O O O O O O O O O O O O O O O O ",
"X X X X X X X X X X X X X X X X X X X X X X X X X X X "
};
