/* XPM */
static char *hide_active[] = {
/* columns rows colors chars-per-pixel */
"27 25 232 2 ",
"   c black",
".  c #636873",
"X  c #42444D",
"o  c #4F525C",
"O  c #5B5F6A",
"+  c #959493",
"@  c #D3D2D1",
"#  c #3C3E46",
"$  c #4E4D4D",
"%  c #36373F",
"&  c gray7",
"*  c #2F3037",
"=  c #141417",
"-  c #28292E",
";  c #212126",
":  c #1A1A1E",
">  c #0F0F11",
",  c #060506",
"<  c #0B0A0C",
"1  c #17171A",
"2  c #0E0E10",
"3  c gray3",
"4  c #111113",
"5  c #646464",
"6  c #323232",
"7  c #050405",
"8  c gray39",
"9  c gray38",
"0  c #222222",
"q  c gray35",
"w  c #494949",
"e  c #456F9D",
"r  c #35373E",
"t  c #0B0B0D",
"y  c #011C6A",
"u  c #19191D",
"i  c #030203",
"p  c #333334",
"a  c gray1",
"s  c gray36",
"d  c gray23",
"f  c #022A81",
"g  c #023393",
"h  c #011C69",
"j  c #393839",
"k  c #424141",
"l  c #BCCADB",
"z  c #023EA7",
"x  c #023DA5",
"c  c #0465D2",
"v  c #161822",
"b  c #000519",
"n  c #05091E",
"m  c #033B9E",
"M  c #585859",
"N  c #034AB0",
"B  c #0248B1",
"V  c #0C194E",
"C  c #333232",
"Z  c #BCCADA",
"A  c #0A1025",
"S  c #011A65",
"D  c #0E1D51",
"F  c #0345AD",
"G  c #2A2A2B",
"H  c #36373E",
"J  c #606060",
"K  c #BCCFDF",
"L  c #161618",
"P  c #BCCEDE",
"I  c #434344",
"U  c #0464D1",
"Y  c #011B70",
"T  c #034BB9",
"R  c #01217C",
"E  c #49494A",
"W  c #3F3F3F",
"Q  c #35363E",
"!  c #034891",
"~  c #012E94",
"^  c gray5",
"/  c #070708",
"(  c #022D88",
")  c #060F30",
"_  c #19254D",
"`  c #5A5A5A",
"'  c #022D8B",
"]  c #4C4C4C",
"[  c #047CE9",
"{  c #046DDB",
"}  c #344871",
"|  c #BBC6D5",
" . c #222328",
".. c #686868",
"X. c #0468D9",
"o. c #023A9E",
"O. c gray25",
"+. c #5F5F5F",
"@. c #023AA7",
"#. c #031149",
"$. c #0354C3",
"%. c #232324",
"&. c #047EED",
"*. c #1B1B1D",
"=. c #022E86",
"-. c #0351BC",
";. c #4571A0",
":. c gray15",
">. c #000106",
",. c #0B122E",
"<. c #01217A",
"1. c #0587F2",
"2. c #28292F",
"3. c #17181B",
"4. c #515051",
"5. c #313239",
"6. c #023898",
"7. c #181818",
"8. c #000310",
"9. c #021A5C",
"0. c #022C88",
"q. c #011968",
"w. c #18181C",
"e. c #141418",
"r. c #455E8C",
"t. c #0345A9",
"y. c #011F73",
"u. c #012679",
"i. c #011D72",
"p. c #011961",
"a. c #0236A3",
"s. c #011A5E",
"d. c #021B63",
"f. c #021758",
"g. c #1E1E1E",
"h. c #505050",
"j. c #061444",
"k. c #08080A",
"l. c #010F48",
"z. c #091D5A",
"x. c #3C3B3B",
"c. c #00082B",
"v. c #010D44",
"b. c #023A9D",
"n. c #011F74",
"m. c #02297E",
"M. c #0A1546",
"N. c #031551",
"B. c #011969",
"V. c DimGray",
"C. c #011D6C",
"Z. c #012579",
"A. c #02359F",
"S. c #012881",
"D. c #393A42",
"F. c #1C1D21",
"G. c #2A2A2A",
"H. c #023295",
"J. c #455D87",
"K. c #012267",
"L. c #022B7B",
"P. c #012280",
"I. c #012984",
"U. c #101010",
"Y. c #01207D",
"T. c #0E111F",
"R. c #BCC6D7",
"E. c #0466D6",
"W. c #02308F",
"Q. c gray33",
"!. c #011F79",
"~. c #252527",
"^. c #626262",
"/. c #08080D",
"(. c #252525",
"). c #020202",
"_. c #212127",
"`. c #000313",
"'. c #011658",
"]. c #0D0D0F",
"[. c #18181B",
"{. c #045AA2",
"}. c #01337A",
"|. c #020823",
" X c #0A090B",
".X c #045BA3",
"XX c #BCCDDE",
"oX c #434243",
"OX c #011256",
"+X c #2F2E2E",
"@X c #456694",
"#X c #1C1C1E",
"$X c #034EB9",
"%X c #393939",
"&X c #023680",
"*X c #101424",
"=X c #0247AF",
"-X c #034A96",
";X c #212125",
":X c gray6",
">X c gray40",
",X c #012B8C",
"<X c gray21",
"1X c #292A30",
"2X c #141518",
"3X c #111214",
"4X c #4A4949",
"5X c #051241",
"6X c #575657",
"7X c #030A27",
"8X c #0464A8",
"9X c #222327",
"0X c #060607",
"qX c #011C6D",
"wX c #012577",
"eX c gray22",
"rX c #12141D",
"tX c #122653",
"yX c #6B6B6C",
"uX c #363638",
"iX c #565656",
"pX c #383F5B",
"aX c #022E8B",
"sX c #0249B5",
"dX c #01155D",
"fX c #4E4E4F",
"gX c #434343",
"hX c #0C1B50",
"jX c #484848",
"kX c #58595F",
"lX c #456897",
"zX c #252A42",
/* pixels */
". . . . . . . . . . . . . . . . . . . . . . . . . . . ",
"O O O O O O O O O O O O O O O O O O O O O O O O O O O ",
"o o o o o o o o o o o o o o o o o o o o o o o o o o o ",
"X X X X X X X X X X X X X X X X X X X X X X X X X X X ",
"# # # # # # # # # # # # # # H r r D.# # # # # # # # # ",
"% % % % % % % % % % % 5. .u 1 1 1 1 F.2.Q % % % % % % ",
"* * * * * * * * * * _.2X= = rX*Xe.= = = 3.1X* * * * * ",
"- - - - - - - - - u 4 4 ,.N.S h p.j.T.4 4 3X9X- - - - ",
"; ; ; ; ; ; ; ; [.2 2 5Xy S.W.g aXZ.s.A 2 2 L ;X; ; ; ",
": : : : : : : w.t t ) C.' x sX$XB o.f 9.v #X%.~.: : : ",
"= = = = = = = ].k./.'.I.z $.E.{ c -.b.wX_ p p uX*.= = ",
"> > > > > > > / 0Xn qXH.T X.&.1.[ U =X( z.E gXI G > > ",
"< < < < < <  X7 7 7Xn.=.&X-X.X8X{.! }.L.d.M 4.fXj < < ",
", , , , , , 7 i i |.i.K.R.l P K XXZ | } f.9 ` 6XoX, , ",
"                  8.q.u.r.lXe ;.e @XJ.tXD >XJ s O.    ",
"                    l.<.0.m F N t.6.m.y pXV.5 9 eX    ",
"                    `.dXR ~ a.@.A.,Xy.hXyX..5 8 g.    ",
"                      b OXY Y.P.!.B.V kX5 8 ^.q a     ",
"                        >.c.v.#.M.zXw Q.q s +.(.      ",
"                              a 7.G.d jXh.iX%X        ",
"                                :X0 6 W w 6 ).        ",
"& & & & & & & & & & & ^ 3 3 3 3 U.0 6 d :.& & & & & & ",
"$ $ $ $ $ $ $ $ $ $ $ $ 4Xx.C +X<Xk ] $ $ $ $ $ $ $ $ ",
"+ + + + + + + + + + + + + + + + + + + + + + + + + + + ",
"@ @ @ @ @ @ @ @ @ @ @ @ @ @ @ @ @ @ @ @ @ @ @ @ @ @ @ "
};
