/* XPM */
static char *maximize_active[] = {
/* columns rows colors chars-per-pixel */
"26 25 229 2 ",
"   c black",
".  c #020202",
"X  c #030203",
"o  c gray1",
"O  c #030600",
"+  c #050405",
"@  c #060506",
"#  c #060607",
"$  c #070708",
"%  c gray3",
"&  c #08080A",
"*  c #0A090B",
"=  c #090B0A",
"-  c #0B0A0C",
";  c #0B0B0D",
":  c gray5",
">  c #0D0D0F",
",  c gray6",
"<  c #081000",
"1  c #091300",
"2  c #0C1900",
"3  c #111D05",
"4  c #0E0E10",
"5  c #0F0F11",
"6  c #101010",
"7  c #111113",
"8  c gray7",
"9  c #111214",
"0  c #141417",
"q  c #141517",
"w  c #161D10",
"e  c #161A15",
"r  c #141518",
"t  c #161618",
"y  c #17171A",
"u  c #17181B",
"i  c #181818",
"p  c #18181B",
"a  c #18181C",
"s  c #19191D",
"d  c #1B1B1D",
"f  c #1A1A1E",
"g  c #1C1C1E",
"h  c #1E1E1E",
"j  c #132302",
"k  c #152603",
"l  c #162B00",
"z  c #1C2F07",
"x  c #18230B",
"c  c #1D2D0C",
"v  c #192212",
"b  c #1B2018",
"n  c #243F05",
"m  c #1C1D21",
"M  c #222222",
"N  c #212125",
"B  c #232324",
"V  c #212126",
"C  c #212127",
"Z  c #222327",
"A  c #252525",
"S  c #252527",
"D  c gray15",
"F  c #222328",
"G  c #2A2A2A",
"H  c #2A2A2B",
"J  c #28292E",
"K  c #28292F",
"L  c #2F2E2E",
"P  c #292A30",
"I  c #2F3037",
"U  c #323232",
"Y  c #333232",
"T  c #333334",
"R  c gray21",
"E  c #313239",
"W  c #363638",
"Q  c #35363E",
"!  c #35373E",
"~  c #36373E",
"^  c #36373F",
"/  c gray22",
"(  c #393839",
")  c #393939",
"_  c gray23",
"`  c #3C3B3B",
"'  c #3F3F3F",
"]  c #224400",
"[  c #274306",
"{  c #264800",
"}  c #274902",
"|  c #28460A",
" . c #2F4E0B",
".. c #304F0B",
"X. c #2C5003",
"o. c #2D5600",
"O. c #305701",
"+. c #335A01",
"@. c #325D00",
"#. c #355C01",
"$. c #33520D",
"%. c #355908",
"&. c #344C19",
"*. c #356001",
"=. c #366000",
"-. c #376101",
";. c #386401",
":. c #396501",
">. c #386701",
",. c #3A6701",
"<. c #3C6501",
"1. c #386801",
"2. c #3B6901",
"3. c #3C6A01",
"4. c #3C6C01",
"5. c #3D6C01",
"6. c #3C6E01",
"7. c #3F7001",
"8. c #334225",
"9. c #407201",
"0. c #447301",
"q. c #437701",
"w. c #457401",
"e. c #467601",
"r. c #477801",
"t. c #457B01",
"y. c #477E01",
"u. c #4B7E01",
"i. c #4C7E01",
"p. c #537C01",
"a. c #4B5B38",
"s. c #4A6523",
"d. c #577523",
"f. c #617934",
"g. c #393A42",
"h. c #3C3E46",
"j. c gray25",
"k. c #424141",
"l. c #434243",
"z. c #434343",
"x. c #434344",
"c. c #42444D",
"v. c #484848",
"b. c #494949",
"n. c #4A4949",
"m. c #49494A",
"M. c #4C4C4C",
"N. c #4E4D4D",
"B. c #4E4E4F",
"V. c #4F525C",
"C. c #505050",
"Z. c #515051",
"A. c gray33",
"S. c #565656",
"D. c #575657",
"F. c #585859",
"G. c gray35",
"H. c #5A5A5A",
"J. c #5B5F58",
"K. c gray36",
"L. c #5F5F5F",
"P. c #5B5F6A",
"I. c #606060",
"U. c gray38",
"Y. c #626262",
"T. c gray39",
"R. c #646464",
"E. c gray40",
"W. c #686868",
"Q. c DimGray",
"!. c #6B6C6B",
"~. c #636873",
"^. c #4D8101",
"/. c #518501",
"(. c #518701",
"). c #588301",
"_. c #598501",
"`. c #528801",
"'. c #538801",
"]. c #548901",
"[. c #568B01",
"{. c #558C01",
"}. c #588E01",
"|. c #599201",
" X c #5E9801",
".X c #5F9B01",
"XX c #609001",
"oX c #619701",
"OX c #629801",
"+X c #619F01",
"@X c #669F01",
"#X c #759B01",
"$X c #769D01",
"%X c #64A201",
"&X c #68A101",
"*X c #6FA402",
"=X c #70A802",
"-X c #72A902",
";X c #71AA02",
":X c #74AE02",
">X c #77AF02",
",X c #77B202",
"<X c #78B202",
"1X c #7BB302",
"2X c #7FB902",
"3X c #748B34",
"4X c #7A9234",
"5X c #698045",
"6X c #6F8745",
"7X c #8FB202",
"8X c #98B603",
"9X c #889935",
"0X c #90C602",
"qX c #91C602",
"wX c #91C702",
"eX c #93CA02",
"rX c #9DD002",
"tX c #A2CA02",
"yX c #A4B478",
"uX c #B0BB78",
"iX c #B6BE78",
"pX c #959493",
"aX c #B1BF99",
"sX c #BAC799",
"dX c #D1D9BB",
"fX c #D3D2D1",
"gX c #F3F5EE",
"hX c #F5F6EE",
"jX c gray100",
/* pixels */
"~.~.~.~.~.~.~.~.~.~.~.~.~.~.~.~.~.~.~.~.~.~.~.~.~.~.",
"P.P.P.P.P.P.P.P.P.P.P.P.P.P.P.P.P.P.P.P.P.P.P.P.P.P.",
"V.V.V.V.V.V.V.V.V.V.V.V.V.V.V.V.V.V.V.V.V.V.V.V.V.V.",
"c.c.c.c.c.c.c.c.c.c.c.c.c.c.c.c.c.c.c.c.c.c.c.c.c.c.",
"h.h.h.h.h.h.h.h.h.h.h.h.h.^ ^ ^ g.h.h.h.h.h.h.h.h.h.",
"^ ^ ^ ^ ^ ^ ^ ^ ^ ^ E Z s y y y y m J ^ ^ ^ ^ ^ ^ ^ ",
"I I I I I I I I I Z q 0 q e v q 0 0 q u J I I I I I ",
"J J J J J J J J a 7 7 c X.;.,.*.[ w 7 4 0 F J J J J ",
"C C C C C C Z a 4 4 [ ,.u.{.}.`.e.#.x : 5 y Z Z Z Z ",
"f f f a f s a ; ; z 3.'.@X:X,X;XoXi.#.d h M D s s d ",
"0 0 0 0 0 0 > $ = o.^.&X2XeXrXqX1XoXw.&.T T W s 0 0 ",
"7 , 7 ; 7 7 $ $ 3 3.|.<XqX7X8XtXqX-X/.%.n.x.x.H 4 4 ",
"* - - - ; = + + k 9. X;X#XuXiX9X#X>X[.-.F.Z.N._ ; ; ",
"+ @ @ @ + + +   j 5.{._.sXjXjXhX3X).{.@.Y.G.D.k.+ + ",
"                < ,.<.aXgXyX4XdXgXf.9.$.E.I.G.k.    ",
"                  { 3.5Xd.XX*Xp.6Xs.,.a.Q.R.Y._     ",
"                  < @.5.'.%X%X.Xr.3. .!.W.R.Y.h     ",
"                    2 O.4.t.t.t.3. .J.R.R.Y.G.o     ",
"                      O l ] { | 8.v.A.F.G.L.S       ",
"                            o i H _ v.C.S._         ",
"                              , M U ' n.U o         ",
"8 8 8 8 8 8 8 8 7 7 : = = % % 7 M U _ D 7 8 8 7 8 8 ",
"N.N.N.N.N.N.N.N.N.N.N.n.` Y L R k.M.N.N.N.N.N.N.N.N.",
"pXpXpXpXpXpXpXpXpXpXpXpXpXpXpXpXpXpXpXpXpXpXpXpXpXpX",
"fXfXfXfXfXfXfXfXfXfXfXfXfXfXfXfXfXfXfXfXfXfXfXfXfXfX"
};
