/* XPM */
static char *maximize_toggled_prelight[] = {
/* columns rows colors chars-per-pixel */
"26 25 224 2 ",
"   c black",
".  c #D3D2D1",
"X  c #5B5F6A",
"o  c #4F525C",
"O  c #42444D",
"+  c #636873",
"@  c #959493",
"#  c #3C3E46",
"$  c #4E4D4D",
"%  c #36373F",
"&  c gray7",
"*  c #141417",
"=  c #2F3037",
"-  c #28292E",
";  c #212126",
":  c #1A1A1E",
">  c #0F0F11",
",  c #060506",
"<  c #0B0A0C",
"1  c #111113",
"2  c #0E0E10",
"3  c gray3",
"4  c #17171A",
"5  c #323232",
"6  c #050405",
"7  c #072C00",
"8  c gray100",
"9  c #646464",
"0  c #030203",
"q  c #134700",
"w  c #0B3700",
"e  c gray35",
"r  c #144C00",
"t  c gray36",
"y  c gray39",
"u  c #D0D8CC",
"i  c #222222",
"p  c gray38",
"a  c #494949",
"s  c #35373E",
"d  c #19191D",
"f  c #333334",
"g  c #0B0B0D",
"h  c #0E3E00",
"j  c gray23",
"k  c gray1",
"l  c #062900",
"z  c #062800",
"x  c #212127",
"c  c #081607",
"v  c gray40",
"b  c #313239",
"n  c #072801",
"m  c #072E00",
"M  c #575657",
"N  c #052301",
"B  c #042100",
"V  c #2F5812",
"C  c #565656",
"Z  c #393939",
"A  c #393839",
"S  c gray22",
"D  c #256B01",
"F  c #333232",
"G  c #124300",
"H  c #0C3800",
"J  c #728967",
"K  c #185301",
"L  c #123E01",
"P  c #181818",
"I  c #5E7556",
"U  c #484848",
"Y  c #071C05",
"T  c #686868",
"R  c #031C00",
"E  c #2A2A2B",
"W  c #000200",
"Q  c #0E3F00",
"!  c #222328",
"~  c #0D4000",
"^  c #141518",
"/  c #3C3B3B",
"(  c #0C3700",
")  c #36373E",
"_  c #626262",
"`  c #222327",
"'  c #08080A",
"]  c #4C4C4C",
"[  c #0D3600",
"{  c #317D01",
"}  c #072103",
"|  c #051D02",
" . c #49494A",
".. c #161618",
"X. c DimGray",
"o. c #123C01",
"O. c #1B1B1D",
"+. c #204312",
"@. c #0D3D00",
"#. c #1D5E01",
"$. c #103801",
"%. c #292A30",
"&. c #1A5901",
"*. c gray33",
"=. c #393A42",
"-. c #111712",
";. c #2F2E2E",
":. c #212125",
">. c #0F4100",
",. c gray25",
"<. c #28292F",
"1. c #5A5A5A",
"2. c #0F4300",
"3. c #0D2908",
"4. c #072900",
"5. c #0E250B",
"6. c #083200",
"7. c #0E3C00",
"8. c #225A01",
"9. c #114A00",
"0. c #124001",
"q. c #104600",
"w. c #083300",
"e. c #434243",
"r. c #434343",
"t. c #18181C",
"y. c #1C1D21",
"u. c #072B00",
"i. c #010900",
"p. c #0D0D0F",
"a. c #144B00",
"s. c #030E02",
"d. c #134900",
"f. c #154E00",
"g. c #1C1C1E",
"h. c #394638",
"j. c #154A01",
"k. c #515051",
"l. c #041003",
"z. c #252525",
"x. c #195501",
"c. c #0E3D00",
"v. c #0A2C00",
"b. c #11290D",
"n. c #154601",
"m. c #093300",
"M. c #0A3300",
"N. c #3F3F3F",
"B. c #134101",
"V. c #597845",
"C. c #082601",
"Z. c #1E3F12",
"A. c #062C00",
"S. c #121515",
"D. c #093400",
"F. c #C1CCBB",
"G. c #060607",
"H. c #869D78",
"J. c #011000",
"K. c #0C3C00",
"L. c #252527",
"P. c #104700",
"I. c #E1E6DD",
"U. c #0F1410",
"Y. c #171A18",
"T. c #111214",
"R. c #B1BEAA",
"E. c #424141",
"W. c #4E4E4F",
"Q. c #232324",
"!. c #000600",
"~. c gray21",
"^. c #050E05",
"/. c #091E06",
"(. c #062A00",
"). c #0C3600",
"_. c gray5",
"`. c #174501",
"'. c #0C3900",
"]. c #434344",
"[. c #263025",
"{. c #5F5F5F",
"}. c #505050",
"|. c gray15",
" X c #082F00",
".X c #1E1E1E",
"XX c #082D00",
"oX c #1C2D19",
"OX c #143A01",
"+X c #021A00",
"@X c #2A2A2A",
"#X c #0C210A",
"$X c #083000",
"%X c #0B3400",
"&X c #246901",
"*X c gray42",
"=X c #276F01",
"-X c #738A67",
";X c #0A090B",
":X c #0E260B",
">X c #0C3D00",
",X c gray6",
"<X c #101010",
"1X c #000700",
"2X c #CFD6CC",
"3X c #042400",
"4X c #585859",
"5X c #020202",
"6X c #072901",
"7X c #35363E",
"8X c #072701",
"9X c #0B140B",
"0X c #1C5A01",
"qX c #585B58",
"wX c #17181B",
"eX c #070708",
"rX c #606060",
"tX c #18181B",
"yX c #083100",
"uX c #0C180C",
"iX c #276601",
"pX c #4A4949",
"aX c #363638",
"sX c #08090A",
/* pixels */
"+ + + + + + + + + + + + + + + + + + + + + + + + + + ",
"X X X X X X X X X X X X X X X X X X X X X X X X X X ",
"o o o o o o o o o o o o o o o o o o o o o o o o o o ",
"O O O O O O O O O O O O O O O O O O O O O O O O O O ",
"# # # # # # # # # # # # # ) s s =.# # # # # # # # # ",
"% % % % % % % % % % b ! d 4 4 4 4 y.<.7X% % % % % % ",
"= = = = = = = = = x ^ * * S.-.* * * * wX%.= = = = = ",
"- - - - - - - - d 1 1 uX} 4.u.z /.U.1 1 T.` - - - - ",
"; ; ; ; ; ; ; tX2 2 Y 7 w Q >.c.%X8X9X2 2 ..:.; ; ; ",
": : : : : : t.g g c 7 @.a.x.&.K q H C.Y.g.Q.L.: : : ",
"* * * * * * p.' sXN '.r #.D =X&X0Xq M.oXf f aXO.* * ",
"> > > > > > eXG.^.7 ).$.`.iX{ 8.OXo.7.3. .r.].E > > ",
"< < < < < ;X6 6 l.$Xv.2Xu V.V H.8 I [ 6X4Xk.W.A < < ",
", , , , , 6 0 0 s.m ( Z.u 8 I.8 J L h n p 1.M e., , ",
"                !.l >XG +.R.F.-Xn.r w b.v rXt ,.    ",
"                  R 6.2.d.B.0.j.f.h XXh.X.9 p S     ",
"                  1X3Xm.~ P.9.q.K. X:X*XT 9 y .X    ",
"                    i.B A.w.D.yX(.5.qX9 y _ e k     ",
"                      W J.+X| #X[.a *.e t {.z.      ",
"                            k P @Xj U }.C Z         ",
"                              ,Xi 5 N.a 5 5X        ",
"& & & & & & & & & & _.3 3 3 3 <Xi 5 j |.& & & & & & ",
"$ $ $ $ $ $ $ $ $ $ $ pX/ F ;.~.E.] $ $ $ $ $ $ $ $ ",
"@ @ @ @ @ @ @ @ @ @ @ @ @ @ @ @ @ @ @ @ @ @ @ @ @ @ ",
". . . . . . . . . . . . . . . . . . . . . . . . . . "
};
