/* XPM */
static char *maximize_toggled_active[] = {
/* columns rows colors chars-per-pixel */
"26 25 229 2 ",
"   c black",
".  c #4F525C",
"X  c #5B5F6A",
"o  c #42444D",
"O  c #D3D2D1",
"+  c #636873",
"@  c #959493",
"#  c #3C3E46",
"$  c #4E4D4D",
"%  c #36373F",
"&  c gray7",
"*  c #2F3037",
"=  c #141417",
"-  c #28292E",
";  c #212126",
":  c #1A1A1E",
">  c #0F0F11",
",  c #060506",
"<  c #0B0A0C",
"1  c #111113",
"2  c #17171A",
"3  c #0E0E10",
"4  c gray3",
"5  c gray100",
"6  c #646464",
"7  c #323232",
"8  c #050405",
"9  c gray39",
"0  c #333334",
"q  c gray23",
"w  c #222222",
"e  c gray38",
"r  c #030203",
"t  c #457B01",
"y  c gray1",
"u  c gray36",
"i  c #68A101",
"p  c gray35",
"a  c #494949",
"s  c #35373E",
"d  c #4B7E01",
"f  c #19191D",
"g  c #0B0B0D",
"h  c #212125",
"j  c #3C3B3B",
"k  c #575657",
"l  c #141518",
"z  c #356001",
"x  c #192212",
"c  c #161618",
"v  c #DAE0CC",
"b  c #152603",
"n  c #DDE3CC",
"m  c #569001",
"M  c #363638",
"N  c #629801",
"B  c #437701",
"V  c #5F8201",
"C  c #588E01",
"Z  c #325D00",
"A  c #98AA67",
"S  c #386801",
"D  c #335A01",
"F  c #497601",
"G  c #49494A",
"H  c #101010",
"J  c #3C6A01",
"K  c #434243",
"L  c #5A5A5A",
"P  c #2D5600",
"I  c #274306",
"U  c #4C7C01",
"Y  c #333232",
"T  c #4C7201",
"R  c #090B0A",
"E  c #222327",
"W  c gray33",
"Q  c #528B01",
"!  c #7BB302",
"~  c #3C6E01",
"^  c #5F9B01",
"/  c #9DD002",
"(  c gray40",
")  c #7F8D13",
"_  c #518901",
"`  c #33520D",
"'  c #344C19",
"]  c #252527",
"[  c #393839",
"{  c #518501",
"}  c #5F5F5F",
"|  c #3B6901",
" . c gray15",
".. c #447801",
"X. c #588301",
"o. c #528801",
"O. c gray21",
"+. c #305701",
"@. c #3C6101",
"#. c #64A201",
"$. c #292A30",
"%. c #334225",
"&. c #74AE02",
"*. c #7FB902",
"=. c #5B5F58",
"-. c #111214",
";. c #18181B",
":. c #BBE003",
">. c #95BA02",
",. c #111D05",
"<. c #809556",
"1. c #619F01",
"2. c #355908",
"3. c #313239",
"4. c #030600",
"5. c #565656",
"6. c #091300",
"7. c #1C1D21",
"8. c #020202",
"9. c #141517",
"0. c #D3DBBB",
"q. c DimGray",
"w. c #3C6C01",
"e. c #243F05",
"r. c #4C7E01",
"t. c #558C01",
"y. c #132302",
"u. c #161D10",
"i. c #6B6C6B",
"p. c #407201",
"a. c #366000",
"s. c #505050",
"d. c #515051",
"f. c #181818",
"g. c gray22",
"h. c #484848",
"j. c #35363E",
"k. c #060607",
"l. c #686868",
"z. c #0C1900",
"x. c #3F3F3F",
"c. c #407101",
"v. c #1B2018",
"b. c #2C5003",
"n. c #606060",
"m. c #97A867",
"M. c #3A6701",
"N. c #457401",
"B. c #081000",
"V. c #224400",
"C. c #527B01",
"Z. c #232324",
"A. c #4B5B38",
"S. c #434343",
"D. c #1D2D0C",
"F. c #28460A",
"G. c #0A090B",
"H. c #92A245",
"J. c #424141",
"K. c #5B9601",
"L. c #08080A",
"P. c #578001",
"I. c #91C602",
"U. c #252525",
"Y. c #83A301",
"T. c #304F0B",
"R. c gray5",
"E. c #4C4C4C",
"W. c #2F2E2E",
"Q. c #28292F",
"!. c #6BA601",
"~. c #547E01",
"^. c #393A42",
"/. c #222328",
"(. c #1C1C1E",
"). c #0D0D0F",
"_. c #548C01",
"`. c #EBEEDD",
"'. c #1E1E1E",
"]. c #264800",
"[. c #669F01",
"{. c #2A2A2B",
"}. c #3D6C01",
"|. c #506E12",
" X c #B0BB78",
".X c #17181B",
"XX c #659802",
"oX c #386401",
"OX c #626262",
"+X c #4A4949",
"@X c #386701",
"#X c #78B202",
"$X c gray25",
"%X c #93CA02",
"&X c #567612",
"*X c #4F6D01",
"=X c #355C01",
"-X c #1B1B1D",
";X c #5F8B01",
":X c #1C2F07",
">X c #467601",
",X c #2A2A2A",
"<X c #18230B",
"1X c #2F4E0B",
"2X c #274902",
"3X c #376101",
"4X c #18181C",
"5X c #538801",
"6X c #548901",
"7X c #5B8D01",
"8X c #161A15",
"9X c #619701",
"0X c #4E4E4F",
"qX c #71AA02",
"wX c #477E01",
"eX c gray6",
"rX c #497801",
"tX c #3F7001",
"yX c #585859",
"uX c #DEE3CC",
"iX c #36373E",
"pX c #C6D0AA",
"aX c #070708",
"sX c #393939",
"dX c #4D8101",
"fX c #212127",
"gX c #639A01",
"hX c #162B00",
"jX c #434344",
/* pixels */
"+ + + + + + + + + + + + + + + + + + + + + + + + + + ",
"X X X X X X X X X X X X X X X X X X X X X X X X X X ",
". . . . . . . . . . . . . . . . . . . . . . . . . . ",
"o o o o o o o o o o o o o o o o o o o o o o o o o o ",
"# # # # # # # # # # # # # iXs s ^.# # # # # # # # # ",
"% % % % % % % % % % 3./.f 2 2 2 2 7.Q.j.% % % % % % ",
"* * * * * * * * * fXl = = 8Xx 9.= = = .X$.* * * * * ",
"- - - - - - - - f 1 1 D.b.oXM.a.I u.1 1 -.E - - - - ",
"; ; ; ; ; ; ; ;.3 3 e.| d t.C 5X>X=X<X3 3 c h ; ; ; ",
": : : : : : 4Xg g :XJ o.[.&.#XqXN r.D v.(.Z.] : : : ",
"= = = = = = ).L.R +.dXi *.%X/ I.! 9XN.' 0 0 M -X= = ",
"> > > > > > aXk.,.w.rXT V >.:.Y.*XC.{ 2.G S.jX{.> > ",
"< < < < < G.8 8 b p.@.v uXH.)  X5 <.F 3XyXd.0X[ < < ",
", , , , , 8 r r y.tXU |.n 5 `.5 m.~.6Xz e L k K , , ",
"                B.@XQ 7X&XpX0.A ;Xi d ` ( n.u $X    ",
"                  ]...K.gXX.P.XX!._.}.A.q.6 e g.    ",
"                  6.Z t m 1.#.^ _ c.T.i.l.6 9 '.    ",
"                    z.P ~ t wXB S 1X=.6 9 OXp y     ",
"                      4.hXV.2XF.%.a W p u } U.      ",
"                            y f.,Xq h.s.5.sX        ",
"                              eXw 7 x.a 7 8.        ",
"& & & & & & & & & & R.4 4 4 4 H w 7 q  .& & & & & & ",
"$ $ $ $ $ $ $ $ $ $ $ +Xj Y W.O.J.E.$ $ $ $ $ $ $ $ ",
"@ @ @ @ @ @ @ @ @ @ @ @ @ @ @ @ @ @ @ @ @ @ @ @ @ @ ",
"O O O O O O O O O O O O O O O O O O O O O O O O O O "
};
