/* XPM */
static char *maximize_prelight[] = {
/* columns rows colors chars-per-pixel */
"26 25 221 2 ",
"   c black",
".  c #4F525C",
"X  c #D3D2D1",
"o  c #959493",
"O  c #42444D",
"+  c #636873",
"@  c #5B5F6A",
"#  c #3C3E46",
"$  c #4E4D4D",
"%  c #36373F",
"&  c gray7",
"*  c #2F3037",
"=  c #141417",
"-  c #28292E",
";  c #212126",
":  c #1A1A1E",
">  c #0F0F11",
",  c #0B0A0C",
"<  c #060506",
"1  c #072C00",
"2  c #111113",
"3  c gray3",
"4  c #17171A",
"5  c #0E0E10",
"6  c #246901",
"7  c #323232",
"8  c #050405",
"9  c #646464",
"0  c #0B0B0D",
"q  c gray100",
"w  c #104600",
"e  c gray35",
"r  c #494949",
"t  c #185201",
"y  c #35373E",
"u  c #0F4100",
"i  c #222222",
"p  c gray39",
"a  c gray38",
"s  c #134700",
"d  c #19191D",
"f  c #0E3D00",
"g  c #333334",
"h  c #030203",
"j  c gray1",
"k  c gray36",
"l  c gray23",
"z  c #515051",
"x  c gray15",
"c  c #252525",
"v  c #0B3400",
"b  c #072103",
"n  c #052301",
"m  c #042100",
"M  c #394638",
"N  c #286601",
"B  c gray22",
"V  c gray33",
"C  c #869D78",
"Z  c #124001",
"A  c DimGray",
"S  c #686868",
"D  c #EFF1EE",
"F  c #093400",
"G  c #292A30",
"H  c #4C4C4C",
"J  c #071C05",
"K  c #0A3300",
"L  c #0C3800",
"P  c #141518",
"I  c #161618",
"U  c #1D5201",
"Y  c #0C180C",
"T  c gray42",
"R  c #36373E",
"E  c #144B00",
"W  c #0E3C00",
"Q  c #EFF2EE",
"!  c #606060",
"~  c #626262",
"^  c #1A5701",
"/  c #0F4000",
"(  c #256B01",
")  c #4A5F44",
"_  c #111712",
"`  c #585859",
"'  c gray40",
"]  c #F0F3EE",
"[  c #060607",
"{  c #0B140B",
"}  c #020202",
"|  c #101010",
" . c #252527",
".. c #1D5E01",
"X. c #2C4922",
"o. c #062800",
"O. c #222327",
"+. c #3C3B3B",
"@. c #1E5401",
"#. c #083100",
"$. c #222328",
"%. c #1A5901",
"&. c #393839",
"*. c #5A5A5A",
"=. c #88A078",
"-. c #829878",
";. c #0B3700",
":. c #1C2D19",
">. c #11290D",
",. c #212125",
"<. c #111214",
"1. c #072901",
"2. c #000700",
"3. c #000600",
"4. c #08090A",
"5. c #083000",
"6. c #092C00",
"7. c #082D00",
"8. c #072A00",
"9. c #062A00",
"0. c #195501",
"q. c #263025",
"w. c #042400",
"e. c #363638",
"r. c #C1CBBB",
"t. c #195401",
"y. c #030E02",
"u. c #1C1C1E",
"i. c #072801",
"p. c #050E05",
"a. c #436134",
"s. c #9EAB99",
"d. c #072B00",
"f. c #091E06",
"g. c #18181B",
"h. c #0D2908",
"j. c #010900",
"k. c #072900",
"l. c #505050",
"z. c #171A18",
"x. c #3F3F3F",
"c. c #1C1D21",
"v. c #393939",
"b. c gray5",
"n. c #021A00",
"m. c #114A00",
"M. c #072E00",
"N. c #0C3C00",
"B. c #113C01",
"V. c #3C5533",
"C. c #0D0D0F",
"Z. c #072701",
"A. c gray6",
"S. c #276F01",
"D. c #0E260B",
"F. c #0A3200",
"G. c #0C3900",
"H. c #2A6F01",
"J. c #434344",
"K. c #313239",
"L. c #081607",
"P. c #4E4E4F",
"I. c #181818",
"U. c #293F22",
"Y. c gray25",
"T. c #051D02",
"R. c #5F5F5F",
"E. c #062900",
"W. c #0E250B",
"Q. c #256201",
"!. c #496C34",
"~. c #0B3500",
"^. c #A1B199",
"/. c #062C00",
"(. c #121515",
"). c #17181B",
"_. c #0E3E00",
"`. c #104700",
"'. c #35363E",
"]. c #1E1E1E",
"[. c #4D6444",
"{. c #0F1410",
"}. c #18181C",
"|. c #424141",
" X c #031C00",
".X c #456534",
"XX c #2F2E2E",
"oX c #49494A",
"OX c #185301",
"+X c #070708",
"@X c #2A2A2B",
"#X c #212127",
"$X c #232324",
"%X c gray21",
"&X c #011000",
"*X c #0A090B",
"=X c #144C00",
"-X c #0E3F00",
";X c #1B1B1D",
":X c #484848",
">X c #08080A",
",X c #575657",
"<X c #434243",
"1X c #000200",
"2X c #041003",
"3X c #195701",
"4X c #585B58",
"5X c #083300",
"6X c #434343",
"7X c #082601",
"8X c #2A2A2A",
"9X c #134101",
"0X c #565656",
"qX c #4A4949",
"wX c #154701",
"eX c #393A42",
"rX c #333232",
"tX c #1C5A01",
"yX c #28292F",
"uX c #0C210A",
"iX c #0D3D00",
/* pixels */
"+ + + + + + + + + + + + + + + + + + + + + + + + + + ",
"@ @ @ @ @ @ @ @ @ @ @ @ @ @ @ @ @ @ @ @ @ @ @ @ @ @ ",
". . . . . . . . . . . . . . . . . . . . . . . . . . ",
"O O O O O O O O O O O O O O O O O O O O O O O O O O ",
"# # # # # # # # # # # # # R y y eX# # # # # # # # # ",
"% % % % % % % % % % K.$.d 4 4 4 4 c.yX'.% % % % % % ",
"* * * * * * * * * #XP = = (._ = = = = ).G * * * * * ",
"- - - - - - - - d 2 2 Y b k.d.o.f.{.2 2 <.O.- - - - ",
"; ; ; ; ; ; ; g.5 5 J 1 ;.-Xu f v Z.{ 5 5 I ,.; ; ; ",
": : : : : : }.0 0 L.1 iXE 0.%.OXs L 7Xz.u.$X .: : : ",
"= = = = = = C.>X4.n G.=X..( S.6 tXs K :.g g e.;X= = ",
"> > > > > > +X[ p.1 u 3X6 Q.N H.6 t W h.oX6XJ.@X> > ",
", , , , , *X8 8 2X5.w t.U C =.!.@.^ / 1.` z P.&., , ",
"< < < < < 8 h h y.M.f 9X^.q q ] a.Z _.i.a *.,X<X< < ",
"                3.E.6.s.Q -..Xr.D V.F.>.' ! k Y.    ",
"                   X1 ) X.wXt B.[.U.8.M A 9 a B     ",
"                  2.w.7.N.`.m.w ~.1 D.T S 9 p ].    ",
"                    j.m /.5XF #.9.W.4X9 p ~ e j     ",
"                      1X&Xn.T.uXq.r V e k R.c       ",
"                            j I.8Xl :Xl.0Xv.        ",
"                              A.i 7 x.r 7 }         ",
"& & & & & & & & & & b.3 3 3 3 | i 7 l x & & & & & & ",
"$ $ $ $ $ $ $ $ $ $ $ qX+.rXXX%X|.H $ $ $ $ $ $ $ $ ",
"o o o o o o o o o o o o o o o o o o o o o o o o o o ",
"X X X X X X X X X X X X X X X X X X X X X X X X X X "
};
