/* XPM */
static char *maximize_inactive[] = {
/* columns rows colors chars-per-pixel */
"26 25 208 2 ",
"   c black",
".  c #4F525C",
"X  c #D3D2D1",
"o  c #636873",
"O  c #42444D",
"+  c #959493",
"@  c #5B5F6A",
"#  c #3C3E46",
"$  c #4E4D4D",
"%  c #36373F",
"&  c gray7",
"*  c #2F3037",
"=  c #141417",
"-  c #28292E",
";  c #212126",
":  c #1A1A1E",
">  c #0F0F11",
",  c #0B0A0C",
"<  c #060506",
"1  c #17171A",
"2  c #0E0E10",
"3  c #051500",
"4  c gray3",
"5  c #111113",
"6  c #051400",
"7  c #323232",
"8  c #050405",
"9  c #041200",
"0  c #030F00",
"q  c #020D00",
"w  c #031100",
"e  c #031000",
"r  c #646464",
"t  c #333334",
"y  c #041400",
"u  c #081B00",
"i  c gray36",
"p  c gray38",
"a  c gray35",
"s  c gray39",
"d  c #35373E",
"f  c #0D2501",
"g  c #222222",
"h  c #051700",
"j  c #0F2800",
"k  c #030E00",
"l  c #19191D",
"z  c #0B0B0D",
"x  c #020F00",
"c  c #081D00",
"v  c #0C2200",
"b  c gray23",
"n  c #494949",
"m  c gray1",
"M  c #000200",
"N  c #010900",
"B  c #030203",
"V  c #293427",
"C  c #434243",
"Z  c #0B1906",
"A  c #292A30",
"S  c #020502",
"D  c #0A1F00",
"F  c #1B1B1D",
"G  c #212127",
"H  c #585859",
"J  c DimGray",
"K  c #263023",
"L  c #091D00",
"P  c #17181B",
"I  c #3C3B3B",
"U  c #161618",
"Y  c #060B07",
"T  c #141518",
"R  c #2F2E2E",
"E  c #393939",
"W  c #122B01",
"Q  c #0D2600",
"!  c #102900",
"~  c #102904",
"^  c #424141",
"/  c #4C4C4C",
"(  c #1C3114",
")  c #686868",
"_  c #394A34",
"`  c #28292F",
"'  c #49494A",
"]  c #626262",
"[  c #393A42",
"{  c #5D615D",
"}  c #152A0D",
"|  c #0D2400",
" . c #101010",
".. c #040D03",
"X. c gray21",
"o. c #132D00",
"O. c #1F261E",
"+. c #070708",
"@. c #0C2303",
"#. c #393839",
"$. c gray25",
"%. c #505050",
"&. c #3F3F3F",
"*. c #434344",
"=. c #6C6C6C",
"-. c #313239",
";. c #0C1A09",
":. c #5F5F5F",
">. c #071A00",
",. c #252525",
"<. c gray6",
"1. c gray15",
"2. c #010B00",
"3. c #050805",
"4. c #051800",
"5. c #061700",
"6. c #112B01",
"7. c #061900",
"8. c #0A090B",
"9. c #08080A",
"0. c #36373E",
"q. c #0C2300",
"w. c #091902",
"e. c #313930",
"r. c #050D05",
"t. c #1C3311",
"y. c #0C140B",
"u. c #1E1E1E",
"i. c #19191A",
"p. c #181818",
"a. c #060607",
"s. c #15290F",
"d. c gray5",
"f. c #4E4E4F",
"g. c #010C00",
"h. c #0A0D0B",
"j. c #565656",
"k. c gray22",
"l. c #484848",
"z. c #000300",
"x. c #233020",
"c. c #374733",
"v. c #0B0F0C",
"b. c #080809",
"n. c #606060",
"m. c #122B03",
"M. c #283C21",
"N. c gray33",
"B. c #3B4E35",
"V. c #5A5A5A",
"C. c #0D0D0F",
"Z. c #1C1D21",
"A. c #182913",
"S. c #000500",
"D. c #0F2208",
"F. c #1E3416",
"G. c #212125",
"H. c #1A310E",
"J. c #091706",
"K. c #31452A",
"L. c #020202",
"P. c #030703",
"I. c #5F605F",
"U. c #1C1C1E",
"Y. c #030D00",
"T. c #44553F",
"R. c #3F503A",
"E. c #35363E",
"W. c #112A00",
"Q. c #0C2400",
"!. c #091F00",
"~. c #252527",
"^. c #515051",
"/. c #131417",
"(. c #2E362D",
"). c #2E4325",
"_. c #333232",
"`. c #2A2A2B",
"'. c #020E00",
"]. c #394237",
"[. c #363638",
"{. c #232324",
"}. c #121315",
"|. c #0F1A0E",
" X c #222327",
".X c #101212",
"XX c #18181C",
"oX c #3A4239",
"OX c #112B00",
"+X c #2A2A2A",
"@X c #373A37",
"#X c #111214",
"$X c #0D2006",
"%X c #0E1010",
"&X c #273921",
"*X c #222328",
"=X c #4A4949",
"-X c #434343",
";X c #000100",
":X c #020C01",
">X c #061602",
",X c #353B35",
"<X c gray40",
"1X c #575657",
"2X c #18181B",
"3X c #112904",
"4X c #060D06",
"5X c #0A1F02",
/* pixels */
"o o o o o o o o o o o o o o o o o o o o o o o o o o ",
"@ @ @ @ @ @ @ @ @ @ @ @ @ @ @ @ @ @ @ @ @ @ @ @ @ @ ",
". . . . . . . . . . . . . . . . . . . . . . . . . . ",
"O O O O O O O O O O O O O O O O O O O O O O O O O O ",
"# # # # # # # # # # # # # 0.d d [ # # # # # # # # # ",
"% % % % % % % % % % -.*Xl 1 1 1 1 Z.` E.% % % % % % ",
"* * * * * * * * * G T = = }..X/.= = = P A * * * * * ",
"- - - - - - - - l 5 5 v...q k q 4X%X5 5 #X X- - - - ",
"; ; ; ; ; ; ; 2X2 2 r.k 9 3 3 6 w Y.h.2 2 U G.; ; ; ",
": : : : : : XXz z Y 0 6 &XM.( D.w.Z |.i.U.{.~.: : : ",
"= = = = = = C.9.b.:X9 B.).t.3Xv L 5.J.,Xt t [.F = = ",
"> > > > > > +.a.3.x _ K.H.m.6.j v u y ].' -X*.`.> > ",
", , , , , 8.8 8 P.e T.F.~ W o.W.| c 3 V H ^.f.#., , ",
"< < < < < 8 B B S 0 R.} f ! OXj q.u 6 K p V.1XC < < ",
"                M q c.s.@.f Q Q.D 7.9 oX<Xn.i $.    ",
"                  N x.A.$X5X!.c >.3 0 { J r p k.    ",
"                  M g.;.>Xh 4.h y e e.=.) r s u.    ",
"                    z.2.x w w e '.(.I.r s ] a m     ",
"                      ;XS.N y.O.@Xn N.a i :.,.      ",
"                            m p.+Xb l.%.j.E         ",
"                              <.g 7 &.n 7 L.        ",
"& & & & & & & & & & d.4 4 4 4  .g 7 b 1.& & & & & & ",
"$ $ $ $ $ $ $ $ $ $ $ =XI _.R X.^ / $ $ $ $ $ $ $ $ ",
"+ + + + + + + + + + + + + + + + + + + + + + + + + + ",
"X X X X X X X X X X X X X X X X X X X X X X X X X X "
};
