/* XPM */
static char *title_4_inactive[] = {
/* columns rows colors chars-per-pixel */
"11 25 19 1 ",
"  c black",
". c #636873",
"X c #060506",
"o c #141417",
"O c #1A1A1E",
"+ c #212126",
"@ c #42444D",
"# c #4F525C",
"$ c #36373F",
"% c #5B5F6A",
"& c #2F3037",
"* c #0F0F11",
"= c #4E4D4D",
"- c #D3D2D1",
"; c #3C3E46",
": c #959493",
"> c gray7",
", c #28292E",
"< c #0B0A0C",
/* pixels */
"...........",
"%%%%%%%%%%%",
"###########",
"@@@@@@@@@@@",
";;;;;;;;;;;",
"$$$$$$$$$$$",
"&&&&&&&&&&&",
",,,,,,,,,,,",
"+++++++++++",
"OOOOOOOOOOO",
"ooooooooooo",
"***********",
"<<<<<<<<<<<",
"XXXXXXXXXXX",
"           ",
"           ",
"           ",
"           ",
"           ",
"           ",
"           ",
">>>>>>>>>>>",
"===========",
":::::::::::",
"-----------"
};
