/* XPM */
static char *top_right_inactive[] = {
/* columns rows colors chars-per-pixel */
"12 25 20 1 ",
"  c black",
". c #060506",
"X c #0B0A0C",
"o c #0F0F11",
"O c gray7",
"+ c #141417",
"@ c #1A1A1E",
"# c #212126",
"$ c #28292E",
"% c #2F3037",
"& c #36373F",
"* c #3C3E46",
"= c #42444D",
"- c #4E4D4D",
"; c #4F525C",
": c #5B5F6A",
"> c #636873",
", c #959493",
"< c #D3D2D1",
"1 c None",
/* pixels */
">>>>>>>>>>11",
":::::::::::1",
";;;;;;;;;;;;",
"============",
"************",
"&&&&&&&&&&&&",
"%%%%%%%%%%%%",
"$$$$$$$$$$$$",
"############",
"@@@@@@@@@@@@",
"++++++++++++",
"oooooooooooo",
"XXXXXXXXXXXX",
"............",
"            ",
"            ",
"            ",
"            ",
"            ",
"            ",
"            ",
"OOOOOOOOOOOO",
"------------",
",,,,,,,,,,,,",
"<<<<<<<<<<<<"
};
