/* XPM */
static char *close_inactive[] = {
/* columns rows colors chars-per-pixel */
"26 25 256 2 ",
"   c #979796",
".  c #B98C77",
"X  c #46251E",
"o  c #645856",
"O  c #75514A",
"+  c #B9B9B9",
"@  c #A9A9A9",
"#  c #9B9B9B",
"$  c gray54",
"%  c #E3E2DC",
"&  c #EAE9E2",
"*  c #C5C5C5",
"=  c #DADAD6",
"-  c gray81",
";  c #D2D2D0",
":  c #D9D8D8",
">  c #CCCCCB",
",  c #E2E2E1",
"<  c #CACACA",
"1  c #EAE9E8",
"2  c #E1E0E0",
"3  c #CBCBCB",
"4  c #EDECEB",
"5  c #ECEBEA",
"6  c #E9E8E7",
"7  c gray84",
"8  c #CECECE",
"9  c #D2D2D2",
"0  c #727272",
"q  c gray86",
"w  c #E5E4E4",
"e  c gray46",
"r  c #848484",
"t  c #DFDEDE",
"y  c #DBDADA",
"u  c #E2E1E1",
"i  c #777777",
"p  c gray44",
"a  c #E3E2E2",
"s  c gray48",
"d  c gray45",
"f  c #AAA9A9",
"g  c #DFDFDF",
"h  c gray83",
"j  c #767676",
"k  c #E1E1E1",
"l  c #BD947A",
"z  c #E0DFDF",
"x  c gray49",
"c  c #7A7979",
"v  c #B4B4B4",
"b  c #7B7B7B",
"n  c #797979",
"m  c #DFDEDD",
"M  c #8C8888",
"N  c #7F594F",
"B  c #B98E81",
"V  c #BC8E7F",
"C  c #CCCBCA",
"Z  c #C5C3C3",
"A  c #B4897E",
"S  c #6B6564",
"D  c #BA8D77",
"F  c #BEBEBD",
"G  c #A87F72",
"H  c #D1D0D0",
"J  c #7E544B",
"K  c #CDCBCB",
"L  c #A6A5A5",
"P  c #D6D5D5",
"I  c #B98E80",
"U  c #C1B5B4",
"Y  c #9D7971",
"T  c #BF997C",
"R  c #55413D",
"E  c #C8C7C5",
"W  c #55322B",
"Q  c #5F4A47",
"!  c #D4D3D3",
"~  c #9B837F",
"^  c #B68A75",
"/  c #C3C2C2",
"(  c #9D7368",
")  c #B48874",
"_  c #B68877",
"`  c #ADACAB",
"'  c #AF8270",
"]  c #686261",
"[  c #6E6664",
"{  c #B88C7C",
"}  c #988785",
"|  c #B5B4B3",
" . c #BDBCBB",
".. c #B58A79",
"X. c #AE9792",
"o. c #B98B7A",
"O. c #452923",
"+. c #482923",
"@. c #AFAFAF",
"#. c #D2D1D1",
"$. c #CBCBCA",
"%. c #D8D8D4",
"&. c #838282",
"*. c #9E7062",
"=. c #BB9178",
"-. c #B78C80",
";. c #C1C1BE",
":. c #B58675",
">. c #BC8F7A",
",. c #6C453A",
"<. c #DCDBDB",
"1. c #625451",
"2. c #BB8F79",
"3. c gray47",
"4. c #BD9279",
"5. c #95685C",
"6. c #BD937A",
"7. c #D4D4D2",
"8. c #7C5A53",
"9. c #D0D0CF",
"0. c #C8C7C7",
"q. c #A07B71",
"w. c #9C9A9A",
"e. c #E4E3E2",
"r. c #9F7363",
"t. c #D0CFCF",
"y. c #BE947A",
"u. c #795046",
"i. c #D3D2D1",
"p. c #704E47",
"a. c #A57F77",
"s. c #CABDBB",
"d. c #E7E6E5",
"f. c #797878",
"g. c #90685E",
"h. c #C7C6C5",
"j. c #7C5C57",
"k. c #DADADA",
"l. c gray87",
"z. c #BDBBBB",
"x. c #916658",
"c. c #A87A6E",
"v. c #B28374",
"b. c #B08571",
"n. c #B38576",
"m. c #7E5750",
"M. c gray88",
"N. c #845B53",
"B. c #A37568",
"V. c #A57A68",
"C. c #A99F9E",
"Z. c #997166",
"A. c #91685B",
"S. c #643E35",
"D. c #9F9F9E",
"F. c #8A625B",
"G. c #89645C",
"H. c #A77B70",
"J. c #8E675E",
"K. c #7F615C",
"L. c #B78875",
"P. c #ACABAA",
"I. c #B68B76",
"U. c #A9A9A7",
"Y. c #724A3F",
"T. c #AD8175",
"R. c #AF8575",
"E. c #D9D6D6",
"W. c #6C6361",
"Q. c #BCBCBC",
"!. c #BFBDBD",
"~. c #B0816F",
"^. c gray",
"/. c #9E8480",
"(. c #7A5C56",
"). c #8D8C8C",
"_. c #8C6359",
"`. c #CEC9C8",
"'. c #B3887B",
"]. c #DBDBDA",
"[. c #A99390",
"{. c #898887",
"}. c #9A7D77",
"|. c #716E6E",
" X c #8A8989",
".X c #B1877E",
"XX c #492720",
"oX c #482F2A",
"OX c #A0817B",
"+X c #D4D4D0",
"@X c #D8D8D8",
"#X c #C0C0C0",
"$X c #E4E4E4",
"%X c #9B9B9A",
"&X c #D1D0CD",
"*X c #6E6867",
"=X c #7E7E7D",
"-X c #7F7E7E",
";X c #888787",
":X c #8D8786",
">X c #D5D4D4",
",X c #D5D5D5",
"<X c gray56",
"1X c #C4C3C0",
"2X c #717171",
"3X c #D7D6D6",
"4X c #959595",
"5X c #7C7B7A",
"6X c #896760",
"7X c #8D6962",
"8X c #CDCDCC",
"9X c #B1B1B1",
"0X c #B2B1B1",
"qX c #B3B2B1",
"wX c #BB907B",
"eX c #635755",
"rX c gray71",
"tX c #D4D2D2",
"yX c #D4D3D2",
"uX c #D4D3D1",
"iX c #CDCCCC",
"pX c #BD907E",
"aX c #CDCDCD",
"sX c #BAA8A5",
"dX c #E2E2E2",
"fX c #818180",
"gX c gainsboro",
"hX c #DDDDDD",
"jX c #5A403C",
"kX c #DEDDDD",
"lX c #BE9379",
"zX c #966B5C",
"xX c #A9928E",
"cX c #AB928F",
"vX c #BC8E78",
"bX c #A98E88",
"nX c #E0DFDE",
"mX c #D5D4D3",
"MX c gray82",
"NX c #747473",
"BX c #7F5A53",
"VX c #D1D1CF",
"CX c #C8C6C6",
"ZX c #69433A",
"AX c #A07971",
"SX c #BA8E78",
"DX c #43241D",
"FX c gray65",
"GX c #E4E3E3",
"HX c #DCDBDA",
"JX c #9E7262",
"KX c #D7D5D5",
"LX c #D0CFCE",
"PX c #B58574",
"IX c #7D7D7C",
"UX c #BE957A",
/* pixels */
"$ $ $ $ $ $ $ $ $ $ $ $ $ $ $ $ $ $ $ $ $ $ $ $ $ $ ",
"# # # # # # # # # # # # # # # # # # # # # # # # # # ",
"@ @ @ @ @ @ @ @ @ @ @ @ @ @ @ @ @ @ @ @ @ @ @ @ @ @ ",
"+ + + + + + + + + + + + + + + + + + + + + + + + + + ",
"* * * * * * * * * * * * * rXv v Q.* * * * * * * * * ",
"- - - - - - - - - - #X4Xn 0 0 0 0  X9XaX- - - - - - ",
": : : : : : : : : FXi j j |.S e f.;X  f t.: : : : : ",
", , , , , , , , D.s s o oXDXX +.Q :XL qX!.]., , , , ",
"1 1 1 1 1 1 1 | x x R X S._.( Z.G.(.C.Z K i.d.1 1 1 ",
"4 4 4 4 4 4 nXfX-X1.XXg.'.{ ..R.G q.}.`.mXKXt 4 4 4 ",
"5 5 5 5 5 5 ` =X5XO.J.I pXwXSX) V.A.Y sXy y HX1 5 5 ",
"6 6 6 6 6 6 {.IXW.W A V >.6.l =.b.zXN bXz m m e.6 6 ",
"w w w w w t b b eXO B o.2.y.T l I.r.Y.OXa 2 z u w w ",
"2 2 2 2 2 H c c o BX-._ . lXUX4.^ JX,.OXGXa u u 2 2 ",
"q q q q q - i i *Xp..Xn.L.D vX. ' x.ZXX.$XdXk t q q ",
"7 7 7 7 7 h n e e jXa.T.v.:.PX~.*.u.8.s.a k M.gX7 7 ",
"9 9 9 9 9 9 <Xd d ] j.AXH.c.B.5.J O cX2 2 g g 7 9 9 ",
"8 8 8 8 8 8 @.0 0 0 [ K.7XF.N.m.6XxXE.l.kXhX<.- 8 8 ",
"3 3 3 3 3 3 3 r p p 0 M } ~ /.[.U ,X@Xk.y q MX3 3 3 ",
"< < < < < < < ^.3.p 2X&.w.0X/ 0.iX#.>X3X: h < < < < ",
"> > > > > > > > F r NXr   f  .h.$.LXtXP ! 8X> > > > ",
"; ; ; ; ; ; ; ; ; VXU.).%XP.z.CXC 9.yX7.; ; ; ; ; ; ",
"= = = = = = = = = = = +X1X;.E &XuX%.= = = = = = = = ",
"% % % % % % % % % % % % % % % % % % % % % % % % % % ",
"& & & & & & & & & & & & & & & & & & & & & & & & & & "
};
