/* XPM */
static char *close_pressed[] = {
/* columns rows colors chars-per-pixel */
"26 25 247 2 ",
"   c #A9A9A9",
".  c gray54",
"X  c #9B9B9B",
"o  c #E3E2DC",
"O  c #EAE9E2",
"+  c #B9B9B9",
"@  c #C5C5C5",
"#  c #DADAD6",
"$  c gray81",
"%  c #D2D2D0",
"&  c #D9D8D8",
"*  c #FEFEFC",
"=  c #E2E2E1",
"-  c #CCCCCB",
";  c #EAE9E8",
":  c #CACACA",
">  c #CBCBCB",
",  c #E1E0E0",
"<  c #EDECEB",
"1  c gray84",
"2  c #727272",
"3  c #CECECE",
"4  c #ECEBEA",
"5  c gray86",
"6  c #D2D2D2",
"7  c #E9E8E7",
"8  c #E5E4E4",
"9  c #DBDADA",
"0  c #848484",
"q  c #DFDEDE",
"w  c #E3E2E2",
"e  c gray44",
"r  c #E2E1E1",
"t  c #777777",
"y  c #7A7979",
"u  c #E6D9CE",
"i  c #A32C0C",
"p  c #F5F0EC",
"a  c gray46",
"s  c gray83",
"d  c #DFDFDF",
"f  c #767676",
"g  c #E1E1E1",
"h  c #B4B4B4",
"j  c #AAA9A9",
"k  c #E0DFDF",
"l  c #E5D6CD",
"z  c gray48",
"x  c #7B7B7B",
"c  c gray45",
"v  c #DFDEDD",
"b  c gray49",
"n  c #76514C",
"m  c #797979",
"M  c #7F4637",
"N  c #791B08",
"B  c #B2938A",
"V  c #9D3912",
"C  c #D4D3D2",
"Z  c #DDDDDD",
"A  c #C4C3C0",
"S  c #831B06",
"D  c #791906",
"F  c #DBDBDA",
"G  c #5F2F24",
"H  c #D5D5D5",
"J  c #7F7E7E",
"K  c #A8775F",
"L  c #7E1705",
"P  c #881B07",
"I  c #E4E4E4",
"U  c #C3C2C2",
"Y  c #DCDBDA",
"T  c #66180B",
"R  c #CBCBCA",
"E  c #704036",
"W  c #7D1A06",
"Q  c #6B1A0B",
"!  c #891C06",
"~  c #8E3110",
"^  c #D4D4D0",
"/  c #B28D87",
"(  c #D8D8D8",
")  c #93543D",
"_  c #DAC6BD",
"`  c #8C4B41",
"'  c gray",
"]  c #795E5A",
"[  c #943310",
"{  c #C0C0C0",
"}  c #CDCDCC",
"|  c #862009",
" . c #756C6B",
".. c #8B250A",
"X. c #D3D2D1",
"o. c #701504",
"O. c #8F5B4A",
"+. c #D4D3D1",
"@. c #838282",
"#. c #A9A9A7",
"$. c #89503C",
"%. c #D5CDCD",
"&. c #D0CFCF",
"*. c #BDBCBB",
"=. c #673D36",
"-. c #8C5A4A",
";. c #7F3021",
":. c #6E5652",
">. c #744436",
",. c #D0D0CF",
"<. c #C7C6C5",
"1. c #ADACAB",
"2. c #77392D",
"3. c #865548",
"4. c #9D2B0C",
"5. c #902309",
"6. c #E7E6E5",
"7. c #C1C1BE",
"8. c #A0786A",
"9. c #961E07",
"0. c #6E2010",
"q. c #9F9F9E",
"w. c #90605A",
"e. c #E1DFDE",
"r. c #B38C7C",
"t. c #D8D8D4",
"y. c #6A190C",
"u. c #E4E3E2",
"i. c #979796",
"p. c #A62F0D",
"a. c #818180",
"s. c #E0DFDE",
"d. c #F6F1ED",
"f. c #D1D1CF",
"g. c #B2B1B1",
"h. c gray82",
"j. c #D1D0D0",
"k. c #C8C7C7",
"l. c #AB3B12",
"z. c #8B472E",
"x. c #B1B1B1",
"c. c #82392E",
"v. c #CDCBCB",
"b. c gray71",
"n. c #793929",
"m. c gray47",
"M. c #803529",
"N. c #717171",
"B. c gainsboro",
"V. c #7D1F08",
"C. c #959595",
"Z. c #747473",
"A. c #B3B2B1",
"S. c #D5D4D3",
"D. c #774436",
"F. c gray56",
"G. c #9B9B9A",
"H. c #8D8C8C",
"J. c #7B3A30",
"K. c #CCAF9F",
"L. c #D0CFCE",
"P. c #CDCCCC",
"I. c #905232",
"U. c #979696",
"Y. c #B0320E",
"T. c #8A8989",
"R. c #CABEBD",
"E. c #7D7A79",
"W. c #BFBDBD",
"Q. c gray65",
"!. c #872F0E",
"~. c #9A3811",
"^. c #D5D4D4",
"/. c #7C1705",
"(. c #ACABAA",
"). c #C4A69B",
"_. c #898887",
"`. c #6D342A",
"'. c #714742",
"]. c #D4D3D3",
"[. c #DADADA",
"{. c #712315",
"}. c #75625F",
"|. c #8B1D07",
" X c #DEDDDD",
".X c #9C9A9A",
"XX c #7D7D7C",
"oX c #92280B",
"OX c #D2D1D1",
"+X c #855548",
"@X c #D6D5D5",
"#X c #C8C6C6",
"$X c #5E2016",
"%X c #854121",
"&X c #701805",
"*X c #7A1F0C",
"=X c #D4D4D2",
"-X c #685653",
";X c #D4D2D2",
":X c #CDCDCD",
">X c #C8C7C5",
",X c #DDCABE",
"<X c #992008",
"1X c #D7D6D6",
"2X c #7E2309",
"3X c #888787",
"4X c #766562",
"5X c #D7D5D5",
"6X c #A62D0C",
"7X c #967067",
"8X c #B94215",
"9X c #BDBBBB",
"0X c #EEE5DD",
"qX c #C5C3C3",
"wX c gray88",
"eX c #AFAFAF",
"rX c #E4E3E3",
"tX c #A6A5A5",
"yX c #7A1E08",
"uX c #76514B",
"iX c #805046",
"pX c #B1908C",
"aX c #797878",
"sX c #761906",
"dX c #90807E",
"fX c #D1D0CD",
"gX c #BCBCBC",
"hX c #884336",
"jX c #7F270B",
"kX c #C9AD9E",
"lX c #9F6C62",
"zX c #767575",
"xX c #BEBEBD",
"cX c #DCDBDB",
"vX c #93290B",
"bX c #731D07",
"nX c #E2E2E2",
"mX c #8D8584",
"MX c #7A392E",
"NX c gray87",
"BX c #B5B4B3",
"VX c #A68A86",
"CX c #A9300D",
"ZX c #874422",
"AX c #7E7E7D",
"SX c #CCCBCA",
"DX c #641504",
/* pixels */
". . . . . . . . . . . . . . . . . . . . . . . . . . ",
"X X X X X X X X X X X X X X X X X X X X X X X X X X ",
"                                                    ",
"+ + + + + + + + + + + + + + + + + + + + + + + + + + ",
"@ @ @ @ @ @ @ @ @ @ @ @ @ b.h h gX@ @ @ @ @ @ @ @ @ ",
"$ $ $ $ $ $ $ $ $ $ { C.m 2 2 2 2 T.x.:X$ $ $ $ $ $ ",
"& & & & & & & & & Q.t f f  .}.zXaX3XU.j &.& & & & & ",
"= = = = = = = = q.z z n {.D W sX2.dXtXA.W.F = = = = ",
"; ; ; ; ; ; ; BXb b `.&X| 6XCXoXV.Q VXqXv.X.6.; ; ; ",
"< < < < < < s.a.J '.G +XO.[ V $.-.>.0.R.S.5Xq < < < ",
"4 4 4 4 4 4 1.AXE.y.D.* * K I.p * 8.bXlX9 9 Y ; 4 4 ",
"7 7 7 7 7 7 _.XX] S 2Xr.* d.u * kX~ 4.;.k v v u.7 7 ",
"8 8 8 8 8 q x x uX|.Y.~.K.* * u ZX8Xp.N w , k r 8 8 ",
", , , , , j.y y n ! i !.l * * 0X%Xl.i *XrXw r r , , ",
"5 5 5 5 5 $ t t 4XL yX).* l ,X* _ jX5.hXI nXg q 5 5 ",
"1 1 1 1 1 s m a a $X7X* * ) z.p * B DX/ w g wXB.1 1 ",
"6 6 6 6 6 6 F.c c -X=.iXM ..vXn.3.E MXe., d d 1 6 6 ",
"3 3 3 3 3 3 eX2 2 2 :.T /.9.<XP o.J.%.NX XZ cX$ 3 3 ",
"> > > > > > > 0 e e 2 mXw.c.M.` pXH ( [.9 5 h.> > > ",
": : : : : : : ' m.e N.@..Xg.U k.P.OX^.1X& s : : : : ",
"- - - - - - - - xX0 Z.0 i.j *.<.R L.;X@X].} - - - - ",
"% % % % % % % % % f.#.H.G.(.9X#XSX,.C =X% % % % % % ",
"# # # # # # # # # # # ^ A 7.>XfX+.t.# # # # # # # # ",
"o o o o o o o o o o o o o o o o o o o o o o o o o o ",
"O O O O O O O O O O O O O O O O O O O O O O O O O O "
};
