/* XPM */
static char *close_prelight[] = {
/* columns rows colors chars-per-pixel */
"26 25 254 2 ",
"   c #E3E2DC",
".  c #9B9B9B",
"X  c gray54",
"o  c #B9B9B9",
"O  c #A9A9A9",
"+  c #EAE9E2",
"@  c #C5C5C5",
"#  c #DADAD6",
"$  c gray81",
"%  c #D9D8D8",
"&  c #D2D2D0",
"*  c #E2E2E1",
"=  c #CCCCCB",
"-  c #EAE9E8",
";  c #CACACA",
":  c #CBCBCB",
">  c #E1E0E0",
",  c #EDECEB",
"<  c #727272",
"1  c #D2D2D2",
"2  c gray84",
"3  c #ECEBEA",
"4  c #E9E8E7",
"5  c gray86",
"6  c #CECECE",
"7  c #E5E4E4",
"8  c #420101",
"9  c #DFDEDE",
"0  c #290101",
"q  c #848484",
"w  c #777777",
"e  c gray44",
"r  c gray46",
"t  c #E3E2E2",
"y  c #E2E1E1",
"u  c #DBDADA",
"i  c #E1E1E1",
"p  c #AAA9A9",
"a  c #DFDFDF",
"s  c gray83",
"d  c #DFDEDD",
"f  c #B4B4B4",
"g  c #E0DFDF",
"h  c #B29494",
"j  c #7B7B7B",
"k  c gray48",
"l  c #7A7979",
"z  c #452020",
"x  c gray49",
"c  c #797979",
"v  c #340101",
"b  c gray45",
"n  c #AE8787",
"m  c #767676",
"M  c #2F0101",
"N  c #E2E2E2",
"B  c #CDCDCD",
"V  c #CDCDCC",
"C  c #D4D3D3",
"Z  c #9C9A9A",
"A  c #BE9E9E",
"S  c #D4D2D2",
"D  c #432B2B",
"F  c #504342",
"G  c #320101",
"H  c #574C4B",
"J  c #3E2020",
"K  c gray71",
"L  c #B1B1B1",
"P  c #4A2020",
"I  c #331515",
"U  c #4E3433",
"Y  c #7D7D7C",
"T  c #CBCBCA",
"R  c #C8C7C5",
"E  c #976C6C",
"W  c #B69292",
"Q  c #717171",
"!  c #D7D6D6",
"~  c #765252",
"^  c #E4E3E2",
"/  c gray56",
"(  c #562020",
")  c #946969",
"_  c gray",
"`  c #8D8C8C",
"'  c #7F7E7E",
"]  c #2B0403",
"[  c #4B0606",
"{  c #3C0101",
"}  c #A88080",
"|  c #A9A9A7",
" . c #D1D0CD",
".. c #9B9B9A",
"X. c #D4D4D0",
"o. c #DEDDDD",
"O. c #300101",
"+. c #B99999",
"@. c #8A8989",
"#. c #390101",
"$. c #645F5E",
"%. c #B99A9A",
"&. c #3E2929",
"*. c #665959",
"=. c #574B4B",
"-. c #D3D2D1",
";. c #ACABAA",
":. c #C7ABAB",
">. c #C3C2C2",
",. c #3F0101",
"<. c #754343",
"1. c #BFBDBD",
"2. c gainsboro",
"3. c #C0A2A2",
"4. c #581C1C",
"5. c #BEBEBD",
"6. c #512A2A",
"7. c #3F0201",
"8. c #A6A5A5",
"9. c #D0D0CF",
"0. c #2E0807",
"q. c #A07777",
"w. c #472F2F",
"e. c #4E0808",
"r. c #888787",
"t. c #C8C6C6",
"y. c #898887",
"u. c #958C8B",
"i. c #DDDDDD",
"p. c #747473",
"a. c #CFCDCC",
"s. c #310101",
"d. c #D7D5D5",
"f. c #4F0808",
"g. c #2E0101",
"h. c #ADACAB",
"j. c #B2B1B1",
"k. c #5E2424",
"l. c #280101",
"z. c #E7E6E5",
"x. c #582B2A",
"c. c #D0CFCF",
"v. c #280908",
"b. c #440101",
"n. c #D1D1CF",
"m. c #DCDBDB",
"M. c #DCDBDA",
"N. c #471615",
"B. c #490606",
"V. c #382221",
"C. c #564A4A",
"Z. c #CCCBCA",
"A. c #442E2D",
"S. c #D1D0D0",
"D. c #480101",
"F. c #2F1211",
"G. c #D4D3D2",
"H. c #CDCCCC",
"J. c #550909",
"K. c #C4C3C0",
"L. c #3E1D1C",
"P. c #D8D8D8",
"I. c #C2BDBD",
"U. c #9F9F9E",
"Y. c #E0DEDE",
"T. c #C19F9F",
"R. c #5B5656",
"E. c #CBB5B5",
"W. c #B5B4B3",
"Q. c #522A2A",
"!. c #878484",
"~. c #C9AFAF",
"^. c #582323",
"/. c #E4E4E4",
"(. c #BDBCBB",
"). c #C5C3C3",
"_. c gray65",
"`. c #3F2827",
"'. c #C0C0C0",
"]. c #260101",
"[. c #625A59",
"{. c #BB9999",
"}. c #DADADA",
"|. c #D5D5D5",
" X c #C7C6C5",
".X c #4A2A2A",
"XX c #BCBCBC",
"oX c #C1C1BE",
"OX c #676262",
"+X c #7C4C4C",
"@X c #250A09",
"#X c gray88",
"$X c #838282",
"%X c #544140",
"&X c #5F2A2A",
"*X c #250101",
"=X c #2D1717",
"-X c #400101",
";X c #BA9A9A",
":X c #979796",
">X c #D5D4D3",
",X c #CDCBCB",
"<X c #D6D5D5",
"1X c #2C0101",
"2X c #DBDBDA",
"3X c #C8C7C7",
"4X c #480606",
"5X c gray47",
"6X c #7B7A79",
"7X c #D4D4D2",
"8X c #463130",
"9X c #370101",
"0X c #BF9E9E",
"qX c #D8D8D4",
"wX c #2B0605",
"eX c #7E7E7D",
"rX c gray87",
"tX c #E4E3E3",
"yX c #5B2B2A",
"uX c #500606",
"iX c #C5A4A4",
"pX c #C9ABAB",
"aX c #E0DFDE",
"sX c #D0CFCE",
"dX c #3E0101",
"fX c #928686",
"gX c #280201",
"hX c #979696",
"jX c #837D7D",
"kX c gray82",
"lX c #2B0101",
"zX c #818180",
"xX c #D2D1D1",
"cX c #D4D3D1",
"vX c #D5D4D4",
"bX c #959595",
"nX c #CAAFAF",
"mX c #B59999",
"MX c #6E6B6B",
"NX c #5B3E3E",
"BX c #350101",
"VX c #551C1C",
"CX c #74605F",
"ZX c #908585",
"AX c #B3B2B1",
"SX c #885E5D",
"DX c #AFAFAF",
"FX c #BDBBBB",
"GX c #797878",
"HX c #5C5555",
"JX c #2F0C0B",
"KX c #C4A3A3",
"LX c #BB9A9A",
"PX c #6A3F3F",
/* pixels */
"X X X X X X X X X X X X X X X X X X X X X X X X X X ",
". . . . . . . . . . . . . . . . . . . . . . . . . . ",
"O O O O O O O O O O O O O O O O O O O O O O O O O O ",
"o o o o o o o o o o o o o o o o o o o o o o o o o o ",
"@ @ @ @ @ @ @ @ @ @ @ @ @ K f f XX@ @ @ @ @ @ @ @ @ ",
"$ $ $ $ $ $ $ $ $ $ '.bXc < < < < @.L B $ $ $ $ $ $ ",
"% % % % % % % % % _.w m m MX$.r GXr.hXp c.% % % % % ",
"* * * * * * * * U.k k =.F.0 lXgXD jX8.AX1.2X* * * * ",
"- - - - - - - W.x x &.0 BX8 b.{ s.wXZX).,X-.z.- - - ",
", , , , , , aXzX' F I Q.yX[ e.^.x.z JXI.>Xd.9 , , , ",
"3 3 3 3 3 3 h.eX6Xv.z %.0X<.&X{.A PXM CXu u M.- 3 3 ",
"4 4 4 4 4 4 y.Y [.1X#.+XKX3.h :.) 4XdXL.g d d ^ 4 4 ",
"7 7 7 7 7 9 j j C.O.D.f.E ~.E.h ( J.8 ] t > g y 7 7 ",
"> > > > > S.l l H g.8 B.n pXnX+.VXuX-X0.tXt y y > > ",
"5 5 5 5 5 $ w w OXl.v SXT.n } iXq.7.9XU /.N i 9 5 5 ",
"2 2 2 2 2 s c r r =XNXmXLXk.4.W ;X~ ].fXt i #X2.2 2 ",
"1 1 1 1 1 1 / b b R.V..XP ,.8 N.6.J w.Y.> a a 2 1 1 ",
"6 6 6 6 6 6 DX< < < HX@X0 G v M *X8Xa.rXo.i.m.$ 6 6 ",
": : : : : : : q e e < !.*.A.`.%Xu.|.P.}.u 5 kX: : : ",
"; ; ; ; ; ; ; _ 5Xe Q $XZ j.>.3XH.xXvX! % s ; ; ; ; ",
"= = = = = = = = 5.q p.q :Xp (. XT sXS <XC V = = = = ",
"& & & & & & & & & n.| ` ..;.FXt.Z.9.G.7X& & & & & & ",
"# # # # # # # # # # # X.K.oXR  .cXqX# # # # # # # # ",
"                                                    ",
"+ + + + + + + + + + + + + + + + + + + + + + + + + + "
};
