/* XPM */
static char *close_active[] = {
/* columns rows colors chars-per-pixel */
"26 25 100 2 ",
"   c #4D0302",
".  c #400A0A",
"X  c #480909",
"o  c #530201",
"O  c #5D0201",
"+  c #520A0A",
"@  c #431717",
"#  c #4C1212",
"$  c #511615",
"%  c #5E1D1D",
"&  c #630201",
"*  c #6A0201",
"=  c #720101",
"-  c #7C0202",
";  c #781616",
":  c #4E2222",
">  c #5D2020",
",  c #552828",
"<  c #5B2D2D",
"1  c #5D3131",
"2  c #6C2020",
"3  c #6A2A2A",
"4  c #752020",
"5  c #782A2A",
"6  c #683434",
"7  c #793F3E",
"8  c #5D4343",
"9  c #684141",
"0  c #624B4B",
"q  c #625656",
"w  c #6A5D5C",
"e  c #745959",
"r  c #6C6262",
"t  c #706B6B",
"y  c #737373",
"u  c #7B7B7B",
"i  c #840201",
"p  c #8F0201",
"a  c #8F0C0C",
"s  c #930C0C",
"d  c #9D1210",
"f  c #A00E0E",
"g  c #AB1312",
"h  c #8B2C2C",
"j  c #9C2323",
"k  c #912828",
"l  c #9D2929",
"z  c #A02E2D",
"x  c #A43535",
"c  c #AA3F3F",
"v  c #96403F",
"b  c #995252",
"n  c #B35151",
"m  c #B55F5E",
"M  c #876060",
"N  c #887D7D",
"B  c #CB7776",
"V  c #D17D7D",
"C  c #838383",
"Z  c #888686",
"A  c #898887",
"S  c #8A8A8A",
"D  c #9C8686",
"F  c #9E8C8C",
"G  c #969696",
"H  c #9B9B9B",
"J  c #A6A6A6",
"K  c #A9A9A7",
"L  c #A9A9A9",
"P  c #B3B3B3",
"I  c #BABABA",
"U  c #DF8F8F",
"Y  c #DE9696",
"T  c #D19A99",
"R  c #DA9B9B",
"E  c #E19393",
"W  c #C5BDBD",
"Q  c #E5A3A3",
"!  c #EAA4A3",
"~  c #ECAEAD",
"^  c #F1AEAE",
"/  c #F2B5B5",
"(  c #F6BDBD",
")  c #F8BEBE",
"_  c #C1C1BE",
"`  c #C5C5C4",
"'  c #C8C7C6",
"]  c #CDCDCC",
"[  c #D0CECE",
"{  c #D1D0CE",
"}  c #D3D3D2",
"|  c #DADAD6",
" . c #DBDBDA",
".. c #F9C6C5",
"X. c #E0DFDF",
"o. c #FDD1D1",
"O. c #E3E2DC",
"+. c #E3E2E2",
"@. c #EAE9E3",
"#. c #ECEBEA",
/* pixels */
"S S S S S S S S S S S S S S S S S S S S S S S S S S ",
"H H H H H H H H H H H H H H H H H H H H H G H H H H ",
"L L K K L L L L J J L L L J J L J L L L L L L L L J ",
"I I I I I I I I I I I I I I I I I I I I I I I I I I ",
"` ` ` ` ` ` ` ` ` ` ` ` ` P P P I ` ` ` ' ` ` ` ` ` ",
"] ] [ ] [ [ ] [ [ [ _ G u y y y y S P ] [ [ ] ] [ ] ",
" .| | |  . . . . .J u y y t r y u Z G L [  .|  . . .",
"+.+.+.+.+.+.X.X.H u u 0 #     X < N J P I  .X.+.+.+.",
"#.#.#.#.#.#.#.P u C ,   * i p = O + D ` ' } @.#.#.#.",
"#.#.#.#.#.#. .C u 8 $ 5 h s d k h 2 + W } } +.#.#.#.",
"#.#.#.#.#.#.L C u X 2 T Q n c Q Q v O M  . . .#.#.#.",
"#.#.#.+.#.#.A u w o = n ^ / ~ ) B s - % +.X. .+.#.@.",
"+.+.+.+.+.X.u u 0 O p d V ..o.~ x g i o +.+.X.+.+.+.",
"X.+.+.+.+.} u u 0 O i s E ) ..~ z f i + +.+.+.+.+.X.",
" .X. . . .] y u r   = m Q E U ^ V - * 6 +.+.+. . . .",
"} } } | } } u y u @ 7 T R l j Y T b   F +.+.+. .| | ",
"} } } } } } S y y q : 3 2 - i ; 5 > 1 X.X.X.X.} { { ",
"] [ ] ] ] ] P y t y q . o & * O   1 ] X. .X. .} { { ",
"] ] ' ] ] ] ] C t y y A e < , 9 F } |  . . .} ] ] ' ",
"] ] ] ' ` ] ] I u y t N H P _ ] ] { } |  .} ] ' ] ' ",
"] ] ] ] ] ' ] ] _ C y Z H K _ ] ] { } } } ] ] ] ] ] ",
"{ { { } } } } } } { K S H K I _ ] } } } { { } { { { ",
"| | | | | |  .} | | | } _ _ _ { { | | | | | | | | | ",
"O.O.O.O.O.+.X.X.O.O.O.O.O.O.O.O.O.O.O.O.O.O.X.X.O.O.",
"@.@.@.@.@.@.@.@.@.@.@.@.@.@.@.@.@.@.@.@.@.@.@.@.@.@."
};
