/* XPM */
static char *hide_active[] = {
/* columns rows colors chars-per-pixel */
"27 25 256 2 ",
"   c #011D6D",
".  c #011C6A",
"X  c #022D88",
"o  c #012679",
"O  c #011969",
"+  c #A9A9A9",
"@  c #EAE9E2",
"#  c #E3E2DC",
"$  c #9B9B9B",
"%  c #B9B9B9",
"&  c gray54",
"*  c #C5C5C5",
"=  c #DADAD6",
"-  c gray81",
";  c #D2D2D0",
":  c #D9D8D8",
">  c #E2E2E1",
",  c #CCCCCB",
"<  c #EAE9E8",
"1  c #CACACA",
"2  c #CBCBCB",
"3  c #EDECEB",
"4  c #E1E0E0",
"5  c gray84",
"6  c gray86",
"7  c #D2D2D2",
"8  c #CECECE",
"9  c #ECEBEA",
"0  c #E9E8E7",
"q  c #E5E4E4",
"w  c #727272",
"e  c #DFDFDF",
"r  c #DBDADA",
"t  c #848484",
"y  c #DFDEDE",
"u  c #E2E1E1",
"i  c #777777",
"p  c #E3E2E2",
"a  c gray44",
"s  c gray49",
"d  c #AAA9A9",
"f  c #456F9D",
"g  c #767676",
"h  c #B4B4B4",
"j  c #7B7B7B",
"k  c #E0DFDF",
"l  c #7A7979",
"z  c #E1E1E1",
"x  c gray46",
"c  c gray45",
"v  c gray83",
"b  c gray48",
"n  c #797979",
"m  c #DFDEDD",
"M  c #747473",
"N  c #0B1C60",
"B  c #979696",
"V  c #0464A8",
"C  c #023A9E",
"Z  c #012280",
"A  c #D0D0CF",
"S  c #D8D8D8",
"D  c #BCCADA",
"F  c #797878",
"G  c #456897",
"H  c #D6D5D5",
"J  c #1A2861",
"K  c #02297E",
"L  c #0464D1",
"P  c #4B526D",
"I  c #033B9E",
"U  c #01217C",
"Y  c #CDCBCB",
"T  c #717171",
"R  c gray71",
"E  c #DEDDDD",
"W  c #888787",
"Q  c #0587F2",
"!  c #BDBCBB",
"~  c #D5D5D5",
"^  c gray65",
"/  c #5F6270",
"(  c #023393",
")  c #046DDB",
"_  c #85858A",
"`  c #12245F",
"'  c #D1D0CD",
"]  c #2B3866",
"[  c #A9A9A7",
"{  c #034AB0",
"}  c #D4D3D1",
"|  c #011A65",
" . c #E4E4E4",
".. c #C4C3C0",
"X. c #021A62",
"o. c #959595",
"O. c #011B70",
"+. c #0247AF",
"@. c #9F9F9E",
"#. c #D7D5D5",
"$. c #0D2567",
"%. c #047EED",
"&. c #047CE9",
"*. c gray",
"=. c #BCC6D7",
"-. c #CDCCCC",
";. c gray47",
":. c #034891",
">. c #BDBBBB",
",. c #045AA2",
"<. c #022E8B",
"1. c #E0DFDE",
"2. c #023EA7",
"3. c #BCCEDE",
"4. c #CBCBCA",
"5. c #034BB9",
"6. c #DCDBDB",
"7. c #D2D1D1",
"8. c #324076",
"9. c #324274",
"0. c #022B7B",
"q. c #023A9D",
"w. c #071F64",
"e. c #5A5E73",
"r. c #4A516D",
"t. c #012881",
"y. c #011F73",
"u. c #01207D",
"i. c #456694",
"p. c #0351BC",
"a. c #344871",
"s. c #E7E6E5",
"d. c #DADADA",
"f. c #DBDBDA",
"g. c #0354C3",
"h. c #C7C6C5",
"j. c #B2B1B1",
"k. c gray88",
"l. c #0249B5",
"z. c gainsboro",
"x. c #012577",
"c. c #898887",
"v. c #C3C2C2",
"b. c #4C526D",
"n. c #757576",
"m. c gray56",
"M. c #626572",
"N. c #6B6C73",
"B. c gray87",
"V. c #2E3A71",
"C. c #8C91A8",
"Z. c #7E808C",
"A. c #BCBCBC",
"S. c #BFBDBD",
"D. c #BEBEBD",
"F. c #868DA9",
"G. c #8A8989",
"H. c #023680",
"J. c #0236A3",
"K. c #4571A0",
"L. c #D4D4D0",
"P. c #9B9B9A",
"I. c #C0C0C0",
"U. c #02308F",
"Y. c #28366E",
"T. c #012E94",
"R. c #2C3A69",
"E. c #ADACAB",
"W. c #7E7E7D",
"Q. c #7F7E7E",
"!. c #023898",
"~. c #E4E3E2",
"^. c #D5D4D4",
"/. c #8D8C8C",
"(. c #BCCFDF",
"). c #0466D6",
"_. c #BCCDDE",
"`. c #D7D6D6",
"'. c #01217A",
"]. c #5A6084",
"[. c #7A7A7C",
"{. c #01337A",
"}. c #022E86",
"|. c #454D6D",
" X c #C5C3C3",
".X c #1D316E",
"XX c #051961",
"oX c #BFBFC6",
"OX c #0345A9",
"+X c #C8C7C5",
"@X c #D5D4D3",
"#X c #5B5E6D",
"$X c #122653",
"%X c #0468D9",
"&X c #034A96",
"*X c #414B7D",
"=X c #012267",
"-X c #012B8C",
";X c gray69",
":X c #CDCED3",
">X c #B3B2B1",
",X c #455D87",
"<X c #455E8C",
"1X c #071D5E",
"2X c #BBC6D5",
"3X c #D4D2D2",
"4X c #D4D3D2",
"5X c #D3D2D1",
"6X c #D4D3D3",
"7X c #CDCDCC",
"8X c #CDCDCD",
"9X c #E2E2E2",
"0X c #818180",
"qX c #838282",
"wX c #DDDDDD",
"eX c #616C93",
"rX c #023AA7",
"tX c #344176",
"yX c #B5B4B3",
"uX c #C1C1BE",
"iX c #022D8B",
"pX c #ACABAA",
"aX c #011F74",
"sX c #D4D4D2",
"dX c #D1D0D0",
"fX c gray82",
"gX c #D1D1CF",
"hX c #CCCBCA",
"jX c #C8C6C6",
"kX c #C8C7C7",
"lX c #A6A5A5",
"zX c #9C9A9A",
"xX c #034EB9",
"cX c #E4E3E3",
"vX c #DCDBDA",
"bX c #0345AD",
"nX c #D0CFCE",
"mX c #D0CFCF",
"MX c #BCCADB",
"NX c #012984",
"BX c #D8D8D4",
"VX c #0248B1",
"CX c #7D7D7C",
"ZX c #011F79",
"AX c #979796",
"SX c #023DA5",
"DX c #041D65",
"FX c #868A9E",
"GX c #0465D2",
"HX c #5A5F72",
"JX c #023295",
"KX c #02359F",
"LX c #045BA3",
"PX c #022A81",
"IX c #011D72",
"UX c #0A1E60",
/* pixels */
"& & & & & & & & & & & & & & & & & & & & & & & & & & & ",
"$ $ $ $ $ $ $ $ $ $ $ $ $ $ $ $ $ $ $ $ $ $ $ $ $ $ $ ",
"+ + + + + + + + + + + + + + + + + + + + + + + + + + + ",
"% % % % % % % % % % % % % % % % % % % % % % % % % % % ",
"* * * * * * * * * * * * * * R h h A.* * * * * * * * * ",
"- - - - - - - - - - - I.o.n w w w w G.j.8X- - - - - - ",
": : : : : : : : : : ^ i g g N./ n.F W B d mX: : : : : ",
"> > > > > > > > > @.b b P ` | . X.R.Z.lX>XS.f.> > > > ",
"< < < < < < < < yXs s ] . t.U.( <.o w.FX XY 5Xs.< < < ",
"3 3 3 3 3 3 3 1.0XQ.|.  iXSXl.xXVXC PX$.oX@X#.y 3 3 3 ",
"9 9 9 9 9 9 9 E.W.[.UXNX2.g.).) GXp.q.x.eXr r vX< 9 9 ",
"0 0 0 0 0 0 0 c.CXHX  JX5.%X%.Q &.L +.X .Xk m m ~.0 0 ",
"q q q q q q y j j r.aX}.H.&XLXV ,.:.{.0.DXp 4 k u q q ",
"4 4 4 4 4 4 dXl l b.IX=X=.MX3.(._.D 2Xa.1XcXp u u 4 4 ",
"6 6 6 6 6 6 - i i M.O o <XG f K.f i.,X$X9. .9Xz y 6 6 ",
"5 5 5 5 5 5 v n x x J '.X I bX{ OX!.K . F.p z k.z.5 5 ",
"7 7 7 7 7 7 7 m.c c #XXXU T.J.rXKX-Xy.8.e 4 e e 5 7 7 ",
"8 8 8 8 8 8 8 ;Xw w w e.N O.u.Z ZXO tX:XB.E wX6.- 8 8 ",
"2 2 2 2 2 2 2 2 t a a w _ ].V.Y.*XC.~ S d.r 6 fX2 2 2 ",
"1 1 1 1 1 1 1 1 *.;.a T qXzXj.v.kX-.7.^.`.: v 1 1 1 1 ",
", , , , , , , , , D.t M t AXd ! h.4.nX3XH 6X7X, , , , ",
"; ; ; ; ; ; ; ; ; ; gX[ /.P.pX>.jXhXA 4XsX; ; ; ; ; ; ",
"= = = = = = = = = = = = L...uX+X' } BX= = = = = = = = ",
"# # # # # # # # # # # # # # # # # # # # # # # # # # # ",
"@ @ @ @ @ @ @ @ @ @ @ @ @ @ @ @ @ @ @ @ @ @ @ @ @ @ @ "
};
