/* XPM */
static char *hide_prelight[] = {
/* columns rows colors chars-per-pixel */
"27 25 256 2 ",
"   c #010D35",
".  c #A9A9A9",
"X  c #EAE9E2",
"o  c #E3E2DC",
"O  c #B9B9B9",
"+  c gray54",
"@  c #9B9B9B",
"#  c #C5C5C5",
"$  c #DADAD6",
"%  c gray81",
"&  c #D2D2D0",
"*  c #D9D8D8",
"=  c #CCCCCB",
"-  c #E2E2E1",
";  c #EAE9E8",
":  c #CACACA",
">  c #CBCBCB",
",  c #E1E0E0",
"<  c #EDECEB",
"1  c gray84",
"2  c #E9E8E7",
"3  c gray86",
"4  c #ECEBEA",
"5  c #D2D2D2",
"6  c #CECECE",
"7  c #727272",
"8  c #E5E4E4",
"9  c #E2E1E1",
"0  c gray48",
"q  c #E3E2E2",
"w  c #DBDADA",
"e  c gray46",
"r  c #848484",
"t  c #777777",
"y  c gray44",
"u  c #DFDEDE",
"i  c #E0DFDF",
"p  c #5A5C66",
"a  c #BCC5CD",
"s  c #021744",
"d  c #7A7979",
"f  c #AAA9A9",
"g  c #767676",
"h  c gray83",
"j  c gray45",
"k  c #022558",
"l  c #010F35",
"z  c #DFDFDF",
"x  c #E1E1E1",
"c  c #797979",
"v  c #7B7B7B",
"b  c #B4B4B4",
"n  c #DFDEDD",
"m  c gray49",
"M  c #01133C",
"N  c #021746",
"B  c #C7C6C5",
"V  c #DADADA",
"C  c #AFAFAF",
"Z  c #1A213D",
"A  c #ACABAA",
"S  c #4B4F5C",
"D  c #BFBEC1",
"F  c #010E33",
"G  c gray",
"H  c #455166",
"J  c #021C52",
"K  c #02153F",
"L  c #021E4F",
"P  c #010E34",
"I  c #01103D",
"U  c #010F37",
"Y  c #E4E3E2",
"T  c #D5D4D3",
"R  c #021A4A",
"E  c #717171",
"W  c #0D193A",
"Q  c #D0CFCE",
"!  c #011B3D",
"~  c #C1C1BE",
"^  c #7F7E7E",
"/  c #747473",
"(  c #45566E",
")  c #032B62",
"_  c #032355",
"`  c #033355",
"'  c #011240",
"]  c #868891",
"[  c #8C8E9A",
"{  c #979696",
"}  c #868A98",
"|  c #D8D8D4",
" . c #CDCDCC",
".. c #797878",
"X. c #D0D0CF",
"o. c #C5C3C3",
"O. c #E0DFDE",
"+. c #D4D4D2",
"@. c #D1D0D0",
"#. c #CCCBCA",
"$. c #C8C6C6",
"%. c #021846",
"&. c #011133",
"*. c #41465F",
"=. c #A6A5A5",
"-. c #7E7F85",
";. c #032658",
":. c #D6D5D5",
">. c #BCC3CA",
",. c gray88",
"<. c #04386E",
"1. c #DBDBDA",
"2. c #02163E",
"3. c #011647",
"4. c #454959",
"5. c #044075",
"6. c #04356B",
"7. c #071335",
"8. c #01143D",
"9. c #455A71",
"0. c #021E4E",
"q. c #011541",
"w. c #032E52",
"e. c #010E38",
"r. c #0A1435",
"t. c #01113E",
"y. c #011039",
"u. c #010F36",
"i. c #62646A",
"p. c #6B6C6F",
"a. c #ADACAB",
"s. c #888787",
"d. c gray87",
"f. c #121B39",
"g. c #DFDEDF",
"h. c #BCBCBC",
"j. c #BFBDBD",
"k. c #BEBEBD",
"l. c #8A8989",
"z. c #CDCDD0",
"x. c #021B4F",
"c. c #D8D8D8",
"v. c #D4D4D0",
"b. c #616679",
"n. c #C0C0C0",
"m. c #C3C2C2",
"M. c #455268",
"N. c #043369",
"B. c #BCC1C9",
"V. c #D1D0CD",
"C. c #838282",
"Z. c #5F6067",
"A. c #7E7E7D",
"S. c #D4D3D1",
"D. c #050F33",
"F. c #CDCBCB",
"G. c #D5D4D4",
"H. c #D5D5D5",
"J. c gray56",
"K. c #5A5D6E",
"L. c #E4E4E4",
"P. c #C4C3C0",
"I. c #959595",
"U. c #323953",
"Y. c #323A54",
"T. c #9C9A9A",
"R. c #343D51",
"E. c #BBC1C8",
"W. c #C8C7C5",
"Q. c #2B3248",
"!. c #2C324A",
"~. c #2E344F",
"^. c #DDDDDD",
"/. c #044579",
"(. c #B1B1B1",
"). c #B2B1B1",
"_. c #DCDBDA",
"`. c #D4D3D2",
"'. c #D4D2D2",
"]. c #A9A9A7",
"[. c #D4D3D3",
"{. c #03275D",
"}. c #CDCCCC",
"|. c #CDCDCD",
" X c gray47",
".X c #E2E2E2",
"XX c #818180",
"oX c gainsboro",
"OX c #BDBCBB",
"+X c #BDBBBB",
"@X c #071233",
"#X c #DEDDDD",
"$X c #8D8C8C",
"%X c #282F4B",
"&X c #04356C",
"*X c #D3D2D1",
"=X c gray82",
"-X c #5B5C64",
";X c #D1D1CF",
":X c #D7D6D6",
">X c #C8C7C7",
",X c #BCC5CC",
"<X c #021843",
"1X c #343B55",
"2X c #455B72",
"3X c #B5B4B3",
"4X c #022053",
"5X c #B3B2B1",
"6X c #032456",
"7X c gray65",
"8X c #E4E3E3",
"9X c #9F9F9E",
"0X c #4C4F5C",
"qX c #02265B",
"wX c #DCDBDB",
"eX c #D7D5D5",
"rX c #D0CFCF",
"tX c #BCC3CB",
"yX c #011542",
"uX c #121C33",
"iX c #7D7D7C",
"pX c #45566C",
"aX c #021D4C",
"sX c #E7E6E5",
"dX c #CBCBCA",
"fX c #01184A",
"gX c #021948",
"hX c #D2D1D1",
"jX c #979796",
"kX c #9B9B9A",
"lX c gray71",
"zX c #021E54",
"xX c #044177",
"cX c #4A4E5C",
"vX c #043469",
"bX c #021F53",
"nX c #041034",
"mX c #03285D",
"MX c #032A5E",
"NX c #021C40",
"BX c #455A70",
"VX c #032649",
"CX c #03264B",
"ZX c #858487",
"AX c #031E4F",
"SX c #021641",
"DX c #032E51",
"FX c #898887",
"GX c #021A4B",
"HX c #010F39",
"JX c #020E32",
"KX c #0B1435",
"LX c #01133D",
"PX c #01113F",
"IX c #01103A",
"UX c #1D2845",
/* pixels */
"+ + + + + + + + + + + + + + + + + + + + + + + + + + + ",
"@ @ @ @ @ @ @ @ @ @ @ @ @ @ @ @ @ @ @ @ @ @ @ @ @ @ @ ",
". . . . . . . . . . . . . . . . . . . . . . . . . . . ",
"O O O O O O O O O O O O O O O O O O O O O O O O O O O ",
"# # # # # # # # # # # # # # lXb b h.# # # # # # # # # ",
"% % % % % % % % % % % n.I.c 7 7 7 7 l.(.|.% % % % % % ",
"* * * * * * * * * * 7Xt g g p.Z.e ..s.{ f rX* * * * * ",
"- - - - - - - - - 9X0 0 S f.F P JX!.-.=.5Xj.1.- - - - ",
"; ; ; ; ; ; ; ; 3Xm m Q.l q.gXR %.LX7.] o.F.*XsX; ; ; ",
"< < < < < < < O.XX^ 4.u.N bXqXmXk L SXW D T eXu < < < ",
"4 4 4 4 4 4 4 a.A.0 r.yX4X) 6.<.vXMX0.M b.w w _.; 4 4 ",
"2 2 2 2 2 2 2 FXiXp U GX{.&XxX/.5.N.k s UXi n n Y 2 2 ",
"8 8 8 8 8 8 u v v cXIX<XNXCXw.` DXVX! 2.nXq , i 9 8 8 ",
", , , , , , @.d d 0XHX&.B.tXa a ,X>.E.R.@X8Xq 9 9 , , ",
"3 3 3 3 3 3 % t t i.  8.M.( 9.2XBXpXH uXU.L..Xx u 3 3 ",
"1 1 1 1 1 1 h c e e Z t.s AX6X;._ aXK l } q x ,.oX1 1 ",
"5 5 5 5 5 5 5 J.j j -XD.t.fXJ zXx.3.y.Y.g., z z 1 5 5 ",
"6 6 6 6 6 6 6 C 7 7 7 p KXe.PX' I   1Xz.d.#X^.wX% 6 6 ",
"> > > > > > > > r y y 7 ZXK.~.%X*.[ H.c.V w 3 =X> > > ",
": : : : : : : : G  Xy E C.T.).m.>X}.hXG.:X* h : : : : ",
"= = = = = = = = = k.r / r jXf OXB dXQ '.:.[. .= = = = ",
"& & & & & & & & & & ;X].$XkXA +X$.#.X.`.+.& & & & & & ",
"$ $ $ $ $ $ $ $ $ $ $ $ v.P.~ W.V.S.| $ $ $ $ $ $ $ $ ",
"o o o o o o o o o o o o o o o o o o o o o o o o o o o ",
"X X X X X X X X X X X X X X X X X X X X X X X X X X X "
};
