/* XPM */
static char *hide_inactive[] = {
/* columns rows colors chars-per-pixel */
"27 25 256 2 ",
"   c #E3E2DC",
".  c gray54",
"X  c #B9B9B9",
"o  c #A9A9A9",
"O  c #9B9B9B",
"+  c #EAE9E2",
"@  c #C5C5C5",
"#  c #DADAD6",
"$  c gray81",
"%  c #D9D8D8",
"&  c #D2D2D0",
"*  c #CCCCCB",
"=  c #E2E2E1",
"-  c #EAE9E8",
";  c #CACACA",
":  c #E1E0E0",
">  c #CBCBCB",
",  c #EDECEB",
"<  c #E9E8E7",
"1  c gray84",
"2  c gray86",
"3  c #CECECE",
"4  c #ECEBEA",
"5  c #D2D2D2",
"6  c #E5E4E4",
"7  c #727272",
"8  c #DBDADA",
"9  c #848484",
"0  c gray46",
"q  c #E2E1E1",
"w  c #DFDEDE",
"e  c #E3E2E2",
"r  c gray44",
"t  c #777777",
"y  c #7B7B7B",
"u  c #AAA9A9",
"i  c #DFDFDF",
"p  c gray45",
"a  c gray83",
"s  c #E0DFDF",
"d  c #797979",
"f  c #9FA4B9",
"g  c #767676",
"h  c #A6AABD",
"j  c #A5AABC",
"k  c #B4B4B4",
"l  c gray48",
"z  c #9DA2B6",
"x  c #DFDEDD",
"c  c #989DB1",
"v  c #E1E1E1",
"b  c #5A5B61",
"n  c #7A7979",
"m  c gray49",
"M  c #606477",
"N  c #999AA5",
"B  c #B2B1B1",
"V  c #B3B2B1",
"C  c #343744",
"Z  c #9A9FB3",
"A  c #C8C7C5",
"S  c #C0C1C7",
"D  c #5B5E6F",
"F  c #B1B1B1",
"G  c #9FA4B8",
"H  c #888787",
"J  c #9A9EB2",
"K  c #8C8C93",
"L  c #979BB0",
"P  c #DDDDDD",
"I  c #9397AB",
"U  c #73788B",
"Y  c #959AAF",
"T  c #4E5263",
"R  c #D7D6D6",
"E  c #7E8397",
"W  c gray56",
"Q  c #D5D4D4",
"!  c #808598",
"~  c #505466",
"^  c #82869A",
"/  c #7D8093",
"(  c #5B5C61",
")  c #9DA3B7",
"_  c #86899A",
"`  c #6F7386",
"'  c #CDCDCD",
"]  c #9B9B9A",
"[  c #D4D4D0",
"{  c #9398AD",
"}  c #CCCBCA",
"|  c #A3A3A6",
" . c #C0C0C0",
".. c #B8B9BE",
"X. c #646674",
"o. c #646778",
"O. c #9095AA",
"+. c gray71",
"@. c #9F9F9E",
"#. c #A3A8BB",
"$. c #808396",
"%. c #75798C",
"&. c #BEBEBD",
"*. c #68696D",
"=. c #5B6073",
"-. c #AFAFAF",
";. c #727587",
":. c #838696",
">. c #D1D0D0",
",. c #3B3E4F",
"<. c #2E3241",
"1. c #2B2F3E",
"2. c #BDBCBB",
"3. c #838799",
"4. c #6F7283",
"5. c gray88",
"6. c #8A898A",
"7. c #747473",
"8. c #CBCBCA",
"9. c #858794",
"0. c #A1A6B9",
"q. c #89898B",
"w. c #797D90",
"e. c #686B79",
"r. c #9A9FB4",
"t. c #CDCBCB",
"y. c #DADADA",
"u. c #57595F",
"i. c #9BA0B3",
"p. c #66676A",
"a. c #D4D2D2",
"s. c #5A5D6F",
"d. c #A2A8BB",
"f. c #979696",
"g. c #696A6C",
"h. c #7D7D7C",
"j. c #E4E3E2",
"k. c #9C9A9A",
"l. c #D4D3D3",
"z. c #464954",
"x. c #66697D",
"c. c #2D3040",
"v. c #D4D4D2",
"b. c #D5D4D3",
"n. c #8B8D98",
"m. c #D1D1CF",
"M. c #989CB0",
"N. c #C8C6C6",
"B. c #A3A8BC",
"V. c #797878",
"C. c #646776",
"Z. c #9597A3",
"A. c gainsboro",
"S. c #B5B4B3",
"D. c #9D9EA9",
"F. c #E4E3E3",
"G. c #838282",
"H. c #CBCACB",
"J. c #E2E2E2",
"K. c #646879",
"L. c #9FA5B8",
"P. c #313442",
"I. c #898B96",
"U. c #C4C3C0",
"Y. c #C5C3C3",
"T. c #C7C6C5",
"R. c #D6D5D5",
"E. c #C8C7C7",
"W. c #C1C1BE",
"Q. c #A9AEBF",
"!. c #D2D1D1",
"~. c gray65",
"^. c #82869C",
"/. c #D1D0CD",
"(. c #D5D5D5",
"). c #D8D8D8",
"_. c #9196AB",
"`. c gray87",
"'. c #D7D5D5",
"]. c #4F515B",
"[. c #2F3340",
"{. c #BCBCBC",
"}. c #494D5E",
"|. c #6F7282",
" X c gray",
".X c #A6A5A5",
"XX c #565969",
"oX c #959AAE",
"OX c #888B9A",
"+X c #A9A9A7",
"@X c #ACABAA",
"#X c #636467",
"$X c #959AB0",
"%X c #989DB3",
"&X c #636676",
"*X c #898CA1",
"=X c #DCDBDB",
"-X c #DCDBDA",
";X c #D4D3D2",
":X c #454851",
">X c #D0CFCF",
",X c #9296AB",
"<X c #757A8E",
"1X c #6F6F70",
"2X c #55596C",
"3X c #656669",
"4X c #6D7183",
"5X c #D7D7D8",
"6X c #DEDDDD",
"7X c #D8D8D4",
"8X c #959AAD",
"9X c #898D9F",
"0X c #D4D3D1",
"qX c #ADACAB",
"wX c gray82",
"eX c #73778A",
"rX c #D0D0CF",
"tX c #878B9F",
"yX c #E4E4E4",
"uX c #9A9FB2",
"iX c #E7E6E5",
"pX c #979AA5",
"aX c #9CA1B6",
"sX c #BFBDBD",
"dX c #C3C2C2",
"fX c #989AA4",
"gX c #888CA1",
"hX c #969AAD",
"jX c #2F3344",
"kX c #9BA0B4",
"lX c #CDCCCC",
"zX c #979796",
"xX c #D0CFCE",
"cX c #898887",
"vX c #959595",
"bX c #727688",
"nX c #8D8C8C",
"mX c #8E91A6",
"MX c #8A8989",
"NX c #7F7E7E",
"BX c #BDBBBB",
"VX c #8B90A2",
"CX c #626577",
"ZX c #9FA5B9",
"AX c #9297AB",
"SX c gray47",
"DX c #7E7E7D",
"FX c #717171",
"GX c #DBDBDA",
"HX c #D3D2D1",
"JX c #898C9A",
"KX c #E0DFDE",
"LX c #9FA3B7",
"PX c #ADAEB6",
"IX c #CDCDCC",
"UX c #818180",
/* pixels */
". . . . . . . . . . . . . . . . . . . . . . . . . . . ",
"O O O O O O O O O O O O O O O O O O O O O O O O O O O ",
"o o o o o o o o o o o o o o o o o o o o o o o o o o o ",
"X X X X X X X X X X X X X X X X X X X X X X X X X X X ",
"@ @ @ @ @ @ @ @ @ @ @ @ @ @ +.k k {.@ @ @ @ @ @ @ @ @ ",
"$ $ $ $ $ $ $ $ $ $ $  .vXd 7 7 7 7 MXF ' $ $ $ $ $ $ ",
"% % % % % % % % % % ~.t g g 1Xp.0 V.H f.u >X% % % % % ",
"= = = = = = = = = @.l l b C 1.<.P.].q..XV sXGX= = = = ",
"- - - - - - - - S.m m :Xc.}.` $./ |.X.| Y.t.HXiX- - - ",
", , , , , , , KXUXNXu.jXeX8XuXc AXVX_ 9.H.b.'.w , , , ",
"4 4 4 4 4 4 4 qXDXy [.bXkXf ZXLXc *X%.:.PX8 8 -X- 4 4 ",
"< < < < < < < cXh.3X,.hXz f #.j 0.oXw.K.Z.s x x j.< < ",
"6 6 6 6 6 6 w y y b s.J r.L.h Q.j i.^ 2XOXe : s q 6 6 ",
": : : : : : >.n n ( o.M.L z B.h d.Z ! ~ JXF.e q q : : ",
"2 2 2 2 2 2 $ t t g.XXI { %X) G aX,XU T D.yXJ.v w 2 2 ",
"1 1 1 1 1 1 a d 0 0 z.9XmX_.Y $XO.E =.&XS e v 5.A.1 1 ",
"5 5 5 5 5 5 5 W p p #XC.3.tXgX^.<XM D N : : i i 1 5 5 ",
"3 3 3 3 3 3 3 -.7 7 7 *.e.;.4Xx.CX4.pX5X`.6XP =X$ 3 3 ",
"> > > > > > > > 9 r r 7 6.K I.n.fX..(.).y.8 2 wX> > > ",
"; ; ; ; ; ; ; ;  XSXr FXG.k.B dXE.lX!.Q R % a ; ; ; ; ",
"* * * * * * * * * &.9 7.9 zXu 2.T.8.xXa.R.l.IX* * * * ",
"& & & & & & & & & & m.+XnX] @XBXN.} rX;Xv.& & & & & & ",
"# # # # # # # # # # # # [ U.W.A /.0X7X# # # # # # # # ",
"                                                      ",
"+ + + + + + + + + + + + + + + + + + + + + + + + + + + "
};
