/* XPM */
static char *hide_pressed[] = {
/* columns rows colors chars-per-pixel */
"27 25 256 2 ",
"   c #821B06",
".  c #961F07",
"X  c #B23710",
"o  c #8F2309",
"O  c #8B1D07",
"+  c #A9A9A9",
"@  c gray54",
"#  c #E3E2DC",
"$  c #9B9B9B",
"%  c #EAE9E2",
"&  c #B9B9B9",
"*  c #C5C5C5",
"=  c #DADAD6",
"-  c gray81",
";  c #D2D2D0",
":  c #D9D8D8",
">  c #CCCCCB",
",  c #E2E2E1",
"<  c #CACACA",
"1  c #EAE9E8",
"2  c #CBCBCB",
"3  c #E1E0E0",
"4  c #EDECEB",
"5  c #D2D2D2",
"6  c #ECEBEA",
"7  c #E9E8E7",
"8  c gray84",
"9  c gray86",
"0  c #CECECE",
"q  c #E5E4E4",
"w  c #727272",
"e  c #E2E1E1",
"r  c #DFDEDE",
"t  c #777777",
"y  c #DBDADA",
"u  c gray44",
"i  c #848484",
"p  c #E3E2E2",
"a  c #E0DFDF",
"s  c #7F1B06",
"d  c #76514C",
"f  c #E1E1E1",
"g  c #AAA9A9",
"h  c #DFDFDF",
"j  c gray83",
"k  c #7A7979",
"l  c #767676",
"z  c #B4B4B4",
"x  c #7B7B7B",
"c  c gray49",
"v  c #797979",
"b  c gray46",
"n  c #795E5A",
"m  c gray45",
"M  c gray48",
"N  c #DFDEDD",
"B  c #93270B",
"V  c #DF5D1F",
"C  c #9F6C62",
"Z  c #75625F",
"A  c #DEDDDD",
"S  c #7D1A06",
"D  c #CDCDCD",
"F  c #90807E",
"G  c #6F1C0B",
"H  c #AC2F0D",
"J  c #D1D0D0",
"K  c #844134",
"L  c #8C2309",
"P  c #D0CFCE",
"I  c #BB3A11",
"U  c #C3C2C2",
"Y  c #DE5D1F",
"T  c #D8D8D4",
"R  c #784C46",
"E  c #CA4615",
"W  c #A5290B",
"Q  c #741C0D",
"!  c #791B08",
"~  c #994316",
"^  c #77392D",
"/  c #BDBBBB",
"(  c #C24516",
")  c #B1908C",
"_  c gray",
"`  c #7E1705",
"'  c #D4D3D2",
"]  c #F37427",
"[  c #BD3B11",
"{  c #9C9A9A",
"}  c #A12C0C",
"|  c #D1D0CD",
" . c #898887",
".. c #7D7A79",
"X. c #D5D4D4",
"o. c #791906",
"O. c #B5B4B3",
"+. c #DAC6BE",
"@. c #905B4B",
"#. c #761707",
"$. c #B28D87",
"%. c #818180",
"&. c #76514B",
"*. c #803529",
"=. c #DCC9C0",
"-. c #8C4B41",
";. c gray82",
":. c #B8320E",
">. c #DFCCC1",
",. c #CDCDCC",
"<. c #CBCBCA",
"1. c gainsboro",
"2. c #717171",
"3. c #AD2B0B",
"4. c #CD4A17",
"5. c #D5D4D3",
"6. c #D0D0CF",
"7. c #C8C6C6",
"8. c #A3521C",
"9. c #E4E3E2",
"0. c #DCDBDB",
"q. c #D6D5D5",
"w. c #98250A",
"e. c #741B0D",
"r. c #891C06",
"t. c #A68A86",
"y. c #761D0C",
"u. c #A6A5A5",
"i. c #D45019",
"p. c #A65A20",
"a. c #BDBCBB",
"s. c #9E664E",
"d. c #ADACAB",
"f. c #B33810",
"g. c #8D8584",
"h. c #8E280B",
"j. c #DADADA",
"k. c #D3D2D1",
"l. c #DBDBDA",
"z. c #CD4D18",
"x. c #8E3310",
"c. c #A9A9A7",
"v. c #90605A",
"b. c #772009",
"n. c gray88",
"m. c #CABEBD",
"M. c #C8C7C5",
"N. c #D5CDCD",
"B. c #74372D",
"V. c #7F3021",
"C. c #EF7227",
"Z. c #761906",
"A. c #767575",
"S. c #D2D1D1",
"D. c #959595",
"F. c #766562",
"G. c #863F33",
"H. c #BCBCBC",
"J. c #BFBDBD",
"K. c #7A4639",
"L. c #BEBEBD",
"P. c #ACABAA",
"I. c #8A8989",
"U. c #725E5B",
"Y. c #722518",
"T. c #747473",
"R. c #792312",
"E. c #F47A2A",
"W. c #D4D4D0",
"Q. c #888787",
"!. c #9B9B9A",
"~. c #C0C0C0",
"^. c #9F9F9E",
"/. c #C04314",
"(. c #BC4114",
"). c #C54415",
"_. c #A22B0B",
"`. c #AFAFAF",
"'. c #A62D0C",
"]. c #756C6B",
"[. c #7E7E7D",
"{. c #7F7E7E",
"}. c #E66020",
"|. c #AC3610",
" X c #E76522",
".X c #D5D5D5",
"XX c gray56",
"oX c #8D8C8C",
"OX c #9D290B",
"+X c #D7D6D6",
"@X c #C4C3C0",
"#X c #C5C3C3",
"$X c #A46F52",
"%X c #955E4B",
"&X c #992008",
"*X c #E0DFDE",
"=X c #E35F1F",
"-X c #E1DFDE",
";X c #873110",
":X c gray87",
">X c #B1B1B1",
",X c #E7E6E5",
"<X c #B3B2B1",
"1X c #82392E",
"2X c #881905",
"3X c #D8C5BE",
"4X c #CCCBCA",
"5X c gray71",
"6X c #D4D2D2",
"7X c #C1C1BE",
"8X c #D4D3D3",
"9X c #BD330E",
"0X c #DECCC1",
"qX c #DFCDC1",
"wX c #CDCCCC",
"eX c gray47",
"rX c #797878",
"tX c #9B644E",
"yX c #E2E2E2",
"uX c #D4D3D1",
"iX c #838282",
"pX c #DDDDDD",
"aX c #9D4517",
"sX c #A9300D",
"dX c #D8D8D8",
"fX c #9B2C0C",
"gX c #9D2B0C",
"hX c #5E2416",
"jX c #7F1805",
"kX c #CF4816",
"lX c #D4D4D2",
"zX c #E4E4E4",
"xX c #D1D1CF",
"cX c #CDCBCB",
"vX c #C8C7C7",
"bX c #874035",
"nX c #A5531D",
"mX c gray65",
"MX c #E4E3E3",
"NX c #B2B1B1",
"BX c #DCDBDA",
"VX c #D7D5D5",
"CX c #D0CFCF",
"ZX c #C0360F",
"AX c #DDC9C0",
"SX c #9B260A",
"DX c #96270A",
"FX c #C7C6C5",
"GX c #7D7D7C",
"HX c #C34415",
"JX c #979696",
"KX c #979796",
"LX c #911D07",
"PX c #921F07",
"IX c #A26C51",
"UX c #A36C51",
/* pixels */
"@ @ @ @ @ @ @ @ @ @ @ @ @ @ @ @ @ @ @ @ @ @ @ @ @ @ @ ",
"$ $ $ $ $ $ $ $ $ $ $ $ $ $ $ $ $ $ $ $ $ $ $ $ $ $ $ ",
"+ + + + + + + + + + + + + + + + + + + + + + + + + + + ",
"& & & & & & & & & & & & & & & & & & & & & & & & & & & ",
"* * * * * * * * * * * * * * 5Xz z H.* * * * * * * * * ",
"- - - - - - - - - - - ~.D.v w w w w I.>XD - - - - - - ",
": : : : : : : : : : mXt l l ].Z A.rXQ.JXg CX: : : : : ",
", , , , , , , , , ^.M M d Y.o.S Z.^ F u.<XJ.l., , , , ",
"1 1 1 1 1 1 1 1 O.c c B.s w.'.sX} o y.t.#XcXk.,X1 1 1 ",
"4 4 4 4 4 4 4 *X%.{.R   _.I E 4.).X DXR.m.5.VXr 4 4 4 ",
"6 6 6 6 6 6 6 d.[...Q SX[ i.=X XV z.X L C y y BX1 6 6 ",
"7 7 7 7 7 7 7  .GXn   H kX}.] E.C.Y HXgXV.a N N 9.7 7 ",
"q q q q q q r x x &.O fXx.aXnXp.8.~ ;Xh.! p 3 a e q q ",
"3 3 3 3 3 3 J k k d r.b.+.AX>.qX0X=.3XK.G MXp e e 3 3 ",
"9 9 9 9 9 9 - t t F.` o %Xs.UX$XIXtX@.hXK zXyXf r 9 9 ",
"8 8 8 8 8 8 j v b b Y.PXOXf./.( (.|.B s $.p f n.1.8 8 ",
"5 5 5 5 5 5 5 XXm m U.#.. 3.9XZX:.W O G.-X3 h h 8 5 5 ",
"0 0 0 0 0 0 0 `.w w w n e.2X. &XLXjXbXN.:XA pX0.- 0 0 ",
"2 2 2 2 2 2 2 2 i u u w g.v.1X*.-.) .XdXj.y 9 ;.2 2 2 ",
"< < < < < < < < _ eXu 2.iX{ NXU vXwXS.X.+X: j < < < < ",
"> > > > > > > > > L.i T.i KXg a.FX<.P 6Xq.8X,.> > > > ",
"; ; ; ; ; ; ; ; ; ; xXc.oX!.P./ 7.4X6.' lX; ; ; ; ; ; ",
"= = = = = = = = = = = = W.@X7XM.| uXT = = = = = = = = ",
"# # # # # # # # # # # # # # # # # # # # # # # # # # # ",
"% % % % % % % % % % % % % % % % % % % % % % % % % % % "
};
