/* XPM */
static char *maximize_inactive[] = {
/* columns rows colors chars-per-pixel */
"26 25 256 2 ",
"   c gray54",
".  c #A9A9A9",
"X  c #E3E2DC",
"o  c #B9B9B9",
"O  c #9B9B9B",
"+  c #EAE9E2",
"@  c #C5C5C5",
"#  c #DADAD6",
"$  c gray81",
"%  c #D2D2D0",
"&  c #D9D8D8",
"*  c #CCCCCB",
"=  c #E2E2E1",
"-  c #CACACA",
";  c #EAE9E8",
":  c #CBCBCB",
">  c #E1E0E0",
",  c #EDECEB",
"<  c #E9E8E7",
"1  c gray86",
"2  c #ECEBEA",
"3  c #D2D2D2",
"4  c #CECECE",
"5  c gray84",
"6  c #727272",
"7  c #E5E4E4",
"8  c gray46",
"9  c gray44",
"0  c #7E966C",
"q  c #848484",
"w  c #E2E1E1",
"e  c #DFDEDE",
"r  c #E3E2E2",
"t  c #777777",
"y  c #DBDADA",
"u  c #D7D6D6",
"i  c #B4B4B4",
"p  c #E0DFDF",
"a  c gray49",
"s  c gray45",
"d  c gray83",
"f  c gray48",
"g  c #7B7B7B",
"h  c #DFDFDF",
"j  c #AAA9A9",
"k  c #797979",
"l  c #E1E1E1",
"z  c #DFDEDD",
"x  c #7B926E",
"c  c #788E6B",
"v  c #767676",
"b  c #64765C",
"n  c #7A7979",
"m  c #AFAFAF",
"M  c #A9A9A7",
"N  c #4A5647",
"B  c #E4E3E2",
"V  c #3D443B",
"C  c #D0D0CF",
"Z  c #CACAC8",
"A  c #616C5F",
"S  c #C8C7C7",
"D  c #797878",
"F  c #5D6A59",
"G  c #D8D8D4",
"H  c #979796",
"J  c #809377",
"K  c #556251",
"L  c #5C6958",
"P  c #DADADA",
"I  c #1D291B",
"U  c #ADACAB",
"Y  c gray",
"T  c #40503B",
"R  c #4B5747",
"E  c #808F7A",
"W  c #80996C",
"Q  c #C8C7C5",
"!  c #65785C",
"~  c #C5C3C3",
"^  c #B5B4B3",
"/  c #7F8E7A",
"(  c #DEDDDD",
")  c #7D956C",
"_  c #D0CFCE",
"`  c #A6ABA4",
"'  c #747473",
"]  c #6A7964",
"[  c #5A6955",
"{  c #939A91",
"}  c #878886",
"|  c #545F51",
" . c #778C6A",
".. c #CBCBCA",
"X. c #BCBFBB",
"o. c #676967",
"O. c #C4C3C0",
"+. c #788D6D",
"@. c #7E976C",
"#. c #768A6D",
"$. c #7D7D7C",
"%. c #B1B1B1",
"&. c #7B8E72",
"*. c #5E6E58",
"=. c #D4D3D2",
"-. c #CDCCCC",
";. c gray47",
":. c gainsboro",
">. c #81927C",
",. c #7C946C",
"<. c #90978D",
"1. c #E0DFDE",
"2. c #D1D0D0",
"3. c #CCCBCA",
"4. c #515E4E",
"5. c #2C3829",
"6. c #888787",
"7. c #7B8578",
"8. c #D6D5D5",
"9. c #73806E",
"0. c #556051",
"q. c #76886E",
"w. c #728668",
"e. c #778771",
"r. c #A0A19D",
"t. c #3B4A36",
"y. c #202B1D",
"u. c #242E22",
"i. c #DBDBDA",
"p. c #898988",
"a. c #8A8989",
"s. c #525651",
"d. c #364432",
"f. c #748967",
"g. c gray88",
"h. c #C1C1BE",
"j. c #788A70",
"k. c #ACABAA",
"l. c #798175",
"z. c #475642",
"x. c #7B7B7A",
"c. c #4B5B47",
"v. c #7E9075",
"b. c #7D9471",
"n. c #828980",
"m. c #5D665C",
"M. c #8A9287",
"N. c #C7C6C5",
"B. c #687763",
"V. c #74846D",
"C. c #D4D4D2",
"Z. c #80877E",
"A. c #BCBCBC",
"S. c #BFBDBD",
"D. c #BEBEBD",
"F. c #E7E6E5",
"G. c #9C9A9A",
"H. c #D3D2D1",
"J. c #79906C",
"K. c #7A906C",
"L. c #7B926C",
"P. c #636F60",
"I. c gray87",
"U. c #484E45",
"Y. c #616361",
"T. c #586156",
"R. c #8D8C8C",
"E. c #B5B7B4",
"W. c #697B63",
"Q. c #6B7E61",
"!. c #596B52",
"~. c #5D6D56",
"^. c #D4D4D0",
"/. c #D8D8D8",
"(. c gray43",
"). c #C0C0C0",
"_. c #7C8679",
"`. c #9B9B9A",
"'. c #D1D0CD",
"]. c #9F9F9E",
"[. c #7E7E7D",
"{. c #D4D3D1",
"}. c #81937A",
"|. c #7C936C",
" X c #D5D4D4",
".X c #D5D5D5",
"XX c gray56",
"oX c #B3B2B1",
"OX c #E4E4E4",
"+X c #BDBCBB",
"@X c #959595",
"#X c #898887",
"$X c #D2D1D1",
"%X c #576154",
"&X c #788575",
"*X c #6F8169",
"=X c #485346",
"-X c #565A55",
";X c #7C9072",
":X c #5D7055",
">X c #7D9370",
",X c #B2B1B1",
"<X c #798C70",
"1X c gray71",
"2X c #5F6D5B",
"3X c #5F6E5A",
"4X c #D4D2D2",
"5X c #7F7E7E",
"6X c #D4D3D3",
"7X c #CDCDCC",
"8X c #CDCDCD",
"9X c #E2E2E2",
"0X c #818180",
"qX c #838282",
"wX c #DDDDDD",
"eX c #C3C2C2",
"rX c #717171",
"tX c #83937D",
"yX c #868A85",
"uX c #7C8D75",
"iX c #7D956D",
"pX c #91978F",
"aX c #798F6C",
"sX c #626461",
"dX c #D5D4D3",
"fX c gray82",
"gX c #D1D1CF",
"hX c #CDCBCB",
"jX c #505F4B",
"kX c #C8C6C6",
"lX c #2A3329",
"zX c #819476",
"xX c #A6A5A5",
"cX c gray65",
"vX c #E4E3E3",
"bX c #DCDBDA",
"nX c #555955",
"mX c #8F968E",
"MX c #565A56",
"NX c #DCDBDB",
"BX c #72816D",
"VX c #D7D5D5",
"CX c #D0CFCF",
"ZX c #BDBBBB",
"AX c #768B6C",
"SX c #76896F",
"DX c #718568",
"FX c #979696",
"GX c #727E6E",
"HX c #727F6E",
"JX c #646664",
"KX c #646764",
"LX c #3B4937",
"PX c #3E443C",
"IX c #212D1E",
"UX c #1E2A1B",
/* pixels */
"                                                    ",
"O O O O O O O O O O O O O O O O O O O O O O O O O O ",
". . . . . . . . . . . . . . . . . . . . . . . . . . ",
"o o o o o o o o o o o o o o o o o o o o o o o o o o ",
"@ @ @ @ @ @ @ @ @ @ @ @ @ 1Xi i A.@ @ @ @ @ @ @ @ @ ",
"$ $ $ $ $ $ $ $ $ $ ).@Xk 6 6 6 6 a.%.8X$ $ $ $ $ $ ",
"& & & & & & & & & cXt v v (.JX8 D 6.FXj CX& & & & & ",
"= = = = = = = = ].f f -XlXI y.u.U.} xXoXS.i.= = = = ",
"; ; ; ; ; ; ; ^ a a PXUXd.[ ] B.F %Xr.~ hXH.F.; ; ; ",
", , , , , , 1.0X5Xs.IX3XuXv.&.SXV.9.l.Z dXVXe , , , ",
"2 2 2 2 2 2 U [.x.u.2X}.zXb.x  .Q.~.GX` y y bX; 2 2 ",
"< < < < < < #X$.sX5.E J >XiX0 |.f.:XjXM.p z z B < < ",
"7 7 7 7 7 e g g nXN tX;Xx 0 W 0 c ! T 7.r > p w 7 7 ",
"> > > > > 2.n n MX0.>.<XJ.) @.,.c b t._.vXr w w > > ",
"1 1 1 1 1 $ t t o.=X/ j.+.K.L.aXw.!.LX{ OX9Xl e 1 1 ",
"5 5 5 5 5 d k 8 8 V &Xe.q.#.AXDXb z.| X.r l g.:.5 5 ",
"3 3 3 3 3 3 XXs s Y.T.HXBX*XW.*.c.R <.> > h h 5 3 3 ",
"4 4 4 4 4 4 m 6 6 6 KXm.P.L K 4.A mXu I.( wXNX$ 4 4 ",
": : : : : : : q 9 9 6 p.yXZ.n.pXE..X/.P y 1 fX: : : ",
"- - - - - - - Y ;.9 rXqXG.,XeXS -.$X Xu & d - - - - ",
"* * * * * * * * D.q ' q H j +XN..._ 4X8.6X7X* * * * ",
"% % % % % % % % % gXM R.`.k.ZXkX3.C =.C.% % % % % % ",
"# # # # # # # # # # # ^.O.h.Q '.{.G # # # # # # # # ",
"X X X X X X X X X X X X X X X X X X X X X X X X X X ",
"+ + + + + + + + + + + + + + + + + + + + + + + + + + "
};
