/* XPM */
static char *maximize_toggled_active[] = {
/* columns rows colors chars-per-pixel */
"26 25 256 2 ",
"   c #3D6C01",
".  c #A9A9A9",
"X  c #EAE9E2",
"o  c gray54",
"O  c #B9B9B9",
"+  c #9B9B9B",
"@  c #E3E2DC",
"#  c #C5C5C5",
"$  c #DADAD6",
"%  c gray81",
"&  c #D2D2D0",
"*  c #D9D8D8",
"=  c #E2E2E1",
"-  c #CCCCCB",
";  c #EAE9E8",
":  c #CACACA",
">  c #CBCBCB",
",  c #E1E0E0",
"<  c #EDECEB",
"1  c gray84",
"2  c #ECEBEA",
"3  c gray86",
"4  c #E9E8E7",
"5  c #D2D2D2",
"6  c #727272",
"7  c #CECECE",
"8  c #E5E4E4",
"9  c #E2E1E1",
"0  c gray100",
"q  c #777777",
"w  c #E3E2E2",
"e  c #DBDADA",
"r  c #848484",
"t  c #DFDEDE",
"y  c gray44",
"u  c #DFDEDD",
"i  c gray83",
"p  c #E1E1E1",
"a  c gray46",
"s  c gray45",
"d  c #4B7E01",
"f  c #5D6D4B",
"g  c #E0DFDE",
"h  c #767676",
"j  c gray48",
"k  c #797979",
"l  c #457B01",
"z  c gray49",
"x  c #7A7979",
"c  c #AAA9A9",
"v  c #DFDFDF",
"b  c #B4B4B4",
"n  c #E0DFDF",
"m  c #7B7B7B",
"M  c #68A101",
"N  c #407201",
"B  c #7F8D13",
"V  c #527B01",
"C  c #BDBCBB",
"Z  c #DCDBDB",
"A  c #95BA02",
"S  c #6BA601",
"D  c #9F9F9E",
"F  c #4C7C01",
"G  c #DEE3CC",
"H  c #386801",
"J  c #CDCCCC",
"K  c #CCCBCA",
"L  c #E4E3E2",
"P  c #D0CFCF",
"I  c #D0CFCE",
"U  c #619701",
"Y  c #407101",
"T  c #747473",
"R  c #659802",
"E  c #BDBBBB",
"W  c #C4C3C0",
"Q  c #5B9601",
"!  c #3A6206",
"~  c #9C9A9A",
"^  c #809556",
"/  c #4C7201",
"(  c #639A01",
")  c #37600A",
"_  c #797878",
"`  c #93CA02",
"'  c #949E85",
"]  c #646D5B",
"[  c #5B8D01",
"{  c #DEDDDD",
"}  c #B5B4B3",
"|  c #4C6E27",
" . c gray87",
".. c #3B5F11",
"X. c #669F01",
"o. c #D2D1D1",
"O. c #898887",
"+. c #548C01",
"@. c #838282",
"#. c #D4D3D1",
"$. c gray82",
"%. c #D8D8D4",
"&. c #71AA02",
"*. c #CBCBCA",
"=. c #83A301",
"-. c #97A867",
";. c #50712D",
":. c #385F09",
">. c #EBEEDD",
",. c #D4D3D3",
"<. c #7BB302",
"1. c #CDCDCD",
"2. c #818180",
"3. c gainsboro",
"4. c #386701",
"5. c #588E01",
"6. c #D5D4D3",
"7. c #D0D0CF",
"8. c #C8C7C7",
"9. c #567531",
"0. c #A6A5A5",
"q. c #DDE3CC",
"w. c #376101",
"e. c #D6D5D5",
"r. c #979796",
"t. c #7D7D7C",
"y. c #548901",
"u. c #528801",
"i. c #538801",
"p. c #6F8459",
"a. c #7C935F",
"s. c #7FB902",
"d. c #B0BB78",
"f. c #619F01",
"g. c #7E7E7D",
"h. c #3C6607",
"j. c #3F6119",
"k. c #DADADA",
"l. c #6A7262",
"z. c #DBDBDA",
"x. c #C7C6C5",
"c. c #569001",
"v. c #5F9B01",
"b. c #396303",
"n. c #518501",
"m. c #3C6101",
"M. c #ADACAB",
"N. c gray88",
"B. c #888787",
"V. c #64A201",
"C. c #E4E4E4",
"Z. c #D1D0CD",
"A. c #8D8C8C",
"S. c #3C6A01",
"D. c #3E650C",
"F. c #DAE0CC",
"G. c #AFAFAF",
"H. c #437701",
"J. c #D3DBBB",
"K. c #4F6D01",
"L. c #567612",
"P. c #757675",
"I. c #5A6D44",
"U. c #CDCBCB",
"Y. c #9DD002",
"T. c #BCBCBC",
"R. c #BFBDBD",
"E. c #BEBEBD",
"W. c gray",
"Q. c #6F736B",
"!. c #D3D2D1",
"~. c #497801",
"^. c #C6D0AA",
"/. c #4A652B",
"(. c #4C682B",
"). c #C3C6BD",
"_. c #506E12",
"`. c #8A8989",
"'. c #9BA88B",
"]. c #5F8B01",
"[. c #99A986",
"{. c #D4D4D0",
"}. c #D8D8D8",
"|. c #A9A9A7",
" X c #C0C0C0",
".X c #C3C2C2",
"XX c #9B9B9A",
"oX c #5F7D40",
"OX c #578001",
"+X c #E7E6E5",
"@X c #7F7E7E",
"#X c #588301",
"$X c #91C602",
"%X c #B2B1B1",
"&X c #D5D4D4",
"*X c #D5D5D5",
"=X c gray56",
"-X c #74AE02",
";X c #C5C3C3",
":X c #D7D6D6",
">X c #959595",
",X c #C8C7C5",
"<X c #518901",
"1X c #BBE003",
"2X c #528B01",
"3X c #587833",
"4X c #888A84",
"5X c #477E01",
"6X c #B1B1B1",
"7X c #7B7D79",
"8X c #B3B2B1",
"9X c gray71",
"0X c #4A6D1C",
"qX c #497601",
"wX c #D4D2D2",
"eX c #D1D3CC",
"rX c #D4D3D2",
"tX c #68705E",
"yX c #78B202",
"uX c #ACABAA",
"iX c #CDCDCC",
"pX c gray47",
"aX c #E2E2E2",
"sX c #868C7D",
"dX c #447801",
"fX c #DDDDDD",
"gX c #386401",
"hX c #3A6701",
"jX c #98AA67",
"kX c #717171",
"lX c #547E01",
"zX c #3F7001",
"xX c #D4D4D2",
"cX c #D1D0D0",
"vX c #D1D1CF",
"bX c #92A245",
"nX c #C8C6C6",
"mX c #629801",
"MX c #3C6E01",
"NX c #577633",
"BX c #3B6901",
"VX c gray65",
"CX c #E4E3E3",
"ZX c #5F8201",
"AX c #366104",
"SX c #DCDBDA",
"DX c #D7D5D5",
"FX c #5C6D4A",
"GX c #457401",
"HX c #467601",
"JX c #4C7E01",
"KX c #C1C1BE",
"LX c #667359",
"PX c #66735A",
"IX c #558C01",
"UX c #4D8101",
/* pixels */
"o o o o o o o o o o o o o o o o o o o o o o o o o o ",
"+ + + + + + + + + + + + + + + + + + + + + + + + + + ",
". . . . . . . . . . . . . . . . . . . . . . . . . . ",
"O O O O O O O O O O O O O O O O O O O O O O O O O O ",
"# # # # # # # # # # # # # 9Xb b T.# # # # # # # # # ",
"% % % % % % % % % %  X>Xk 6 6 6 6 `.6X1.% % % % % % ",
"* * * * * * * * * VXq h h Q.tXP._ B.r.c P * * * * * ",
"= = = = = = = = D j j f ..gXhXw.(.sX0.8XR.z.= = = = ",
"; ; ; ; ; ; ; } z z /.BXd IX5.i.HX! ' ;XU.!.+X; ; ; ",
"< < < < < < g 2.@XI.S.u.X.-XyX&.mXJXD.).6.DXt < < < ",
"2 2 2 2 2 2 M.g.7X:.UXM s.` Y.$X<.U GXa.e e SX; 2 2 ",
"4 4 4 4 4 4 O.t.LX  ~./ ZXA 1X=.K.V n.0Xn u u L 4 4 ",
"8 8 8 8 8 t m m FXN m.F.G bXB d.0 ^ qXb.w , n 9 8 8 ",
", , , , , cXx x f zXF _.q.0 >.0 -.lXy.h.CXw 9 9 , , ",
"3 3 3 3 3 % q q l.4.2X[ L.^.J.jX].M d 3XC.aXp t 3 3 ",
"1 1 1 1 1 i k a a j.dXQ ( #XOXR S +.  [.w p N.3.1 1 ",
"5 5 5 5 5 5 =Xs s ] AXl c.f.V.v.<XY 9.g , v v 1 5 5 ",
"7 7 7 7 7 7 G.6 6 6 PX) MXl 5XH.H NXeX .{ fXZ % 7 7 ",
"> > > > > > > r y y 6 4Xp.;.| oX'.*X}.k.e 3 $.> > > ",
": : : : : : : W.pXy kX@.~ %X.X8.J o.&X:X* i : : : : ",
"- - - - - - - - E.r T r r.c C x.*.I wXe.,.iX- - - - ",
"& & & & & & & & & vX|.A.XXuXE nXK 7.rXxX& & & & & & ",
"$ $ $ $ $ $ $ $ $ $ $ {.W KX,XZ.#.%.$ $ $ $ $ $ $ $ ",
"@ @ @ @ @ @ @ @ @ @ @ @ @ @ @ @ @ @ @ @ @ @ @ @ @ @ ",
"X X X X X X X X X X X X X X X X X X X X X X X X X X "
};
