/* XPM */
static char *maximize_prelight[] = {
/* columns rows colors chars-per-pixel */
"26 25 252 2 ",
"   c #A9A9A9",
".  c #EAE9E2",
"X  c #9B9B9B",
"o  c gray54",
"O  c #E3E2DC",
"+  c #B9B9B9",
"@  c #C5C5C5",
"#  c #DADAD6",
"$  c gray81",
"%  c #D2D2D0",
"&  c #D9D8D8",
"*  c #E2E2E1",
"=  c #CCCCCB",
"-  c #CACACA",
";  c #EAE9E8",
":  c #CBCBCB",
">  c #E1E0E0",
",  c #EDECEB",
"<  c #E9E8E7",
"1  c #CECECE",
"2  c #D2D2D2",
"3  c gray84",
"4  c #727272",
"5  c gray86",
"6  c #ECEBEA",
"7  c #E5E4E4",
"8  c #072C00",
"9  c gray46",
"0  c #E2E1E1",
"q  c #777777",
"w  c #848484",
"e  c gray44",
"r  c #246901",
"t  c #DFDEDE",
"y  c #E3E2E2",
"u  c #DBDADA",
"i  c #E1E1E1",
"p  c #DFDFDF",
"a  c gray100",
"s  c #DFDEDD",
"d  c #B4B4B4",
"f  c #104600",
"g  c #7B7B7B",
"h  c #7A7979",
"j  c #767676",
"k  c #0E3D00",
"l  c #AAA9A9",
"z  c gray83",
"x  c #134700",
"c  c #E0DFDF",
"v  c #797979",
"b  c gray49",
"n  c #0F4100",
"m  c gray45",
"M  c #185201",
"N  c gray48",
"B  c #456534",
"V  c #979696",
"C  c gainsboro",
"Z  c #818180",
"A  c #E2E2E2",
"S  c #C5C3C3",
"D  c #8A8989",
"F  c #9F9F9E",
"G  c #3C5533",
"H  c #CDCDCC",
"J  c #D4D2D2",
"K  c #1D5E01",
"L  c #0C3C00",
"P  c gray71",
"I  c #1C3519",
"U  c #0C3900",
"Y  c #B1B1B1",
"T  c #B2B1B1",
"R  c #496C34",
"E  c #EFF2EE",
"W  c #A1B199",
"Q  c #B3B2B1",
"!  c #B5B4B3",
"~  c #124001",
"^  c #13310C",
"/  c #7D7D7C",
"(  c #DEDDDD",
")  c #5B625B",
"_  c #082804",
"`  c #8D968B",
"'  c #286601",
"]  c #425740",
"[  c #092B03",
"{  c #D5D5D5",
"}  c #8D8C8C",
"|  c #838282",
" . c #D5D4D3",
".. c #BEBEBD",
"X. c #364D33",
"o. c #072901",
"O. c #9B9B9A",
"+. c #C3C2C2",
"@. c #4D584B",
"#. c #D4D4D0",
"$. c #869D78",
"%. c #7E7E7D",
"&. c #717171",
"*. c #5F655E",
"=. c #5A635A",
"-. c #ADACAB",
";. c #185301",
":. c #ACABAA",
">. c #7F837D",
",. c #293F22",
"<. c #D3D2D1",
"1. c #2A6F01",
"2. c #879486",
"3. c #0B3400",
"4. c #DFDFDE",
"5. c #878F85",
"6. c gray",
"7. c #747473",
"8. c #30472D",
"9. c #9EAB99",
"0. c #E4E4E4",
"q. c #D2D1D1",
"w. c #0A3200",
"e. c #626862",
"r. c #BFC0BD",
"t. c #888787",
"y. c #D8D8D8",
"u. c #0E2B0A",
"i. c #0E2B09",
"p. c #797878",
"a. c #092C00",
"s. c #0C3800",
"d. c #062900",
"f. c #256B01",
"g. c #E0DFDE",
"h. c #2D422B",
"j. c #0E3F00",
"k. c #2E432B",
"l. c #63745F",
"z. c #BDBCBB",
"x. c #E4E3E3",
"c. c #0E3C00",
"v. c #093400",
"b. c #D0CFCE",
"n. c #256201",
"m. c #344C31",
"M. c #A9A9A7",
"N. c #C1C1BE",
"B. c #D1D1CF",
"V. c #C8C6C6",
"C. c #D0CFCF",
"Z. c #DCDBDB",
"A. c #979796",
"S. c #4A5F44",
"D. c #DDDDDD",
"F. c #D7D5D5",
"G. c #0F4000",
"H. c #134101",
"J. c #EFF1EE",
"K. c #CDCCCC",
"L. c #1A5701",
"P. c #C8C7C7",
"I. c gray47",
"U. c #1A5901",
"Y. c #154701",
"T. c #D4D3D3",
"R. c #114A00",
"E. c #C1CBBB",
"W. c gray88",
"Q. c #D7D6D6",
"!. c gray56",
"~. c #4D6444",
"^. c #475444",
"/. c #4B574A",
"(. c #898887",
"). c #072A00",
"_. c #083000",
"`. c #D1D0CD",
"'. c #C7C6C5",
"]. c #D8D8D4",
"[. c #2C4922",
"{. c #DBDBDA",
"}. c #2A4227",
"|. c #436134",
" X c #C4C3C0",
".X c #BCBCBC",
"XX c #276F01",
"oX c #BDBBBB",
"OX c #195401",
"+X c #E7E6E5",
"@X c #0A3300",
"#X c #6B6E6B",
"$X c #F0F3EE",
"%X c #0D2D06",
"&X c #083100",
"*X c #7A7B79",
"=X c #E4E3E2",
"-X c #0B3500",
";X c #163011",
":X c #D4D4D2",
">X c #5B6359",
",X c gray65",
"<X c #1D5201",
"1X c #CDCBCB",
"2X c gray82",
"3X c #959595",
"4X c #7F7E7E",
"5X c #D4D3D1",
"6X c #144B00",
"7X c #CCCBCA",
"8X c #062C00",
"9X c #C8C7C5",
"0X c #104700",
"qX c #083300",
"wX c #C0C0C0",
"eX c #9C9A9A",
"rX c #D0D0CF",
"tX c #829878",
"yX c #CECFCC",
"uX c #0D2E07",
"iX c #88A078",
"pX c #1E5401",
"aX c #CBCBCA",
"sX c #072900",
"dX c #D4D3D2",
"fX c #0E3E00",
"gX c #4C584B",
"hX c #DCDBDA",
"jX c #195701",
"kX c #858684",
"lX c #1C5A01",
"zX c #0B3700",
"xX c #223E1C",
"cX c #D6D5D5",
"vX c #072B00",
"bX c #A6A5A5",
"nX c gray87",
"mX c #5A6959",
"MX c #195501",
"NX c #062A00",
"BX c #082D00",
"VX c #0D3D00",
"CX c #D5D4D4",
"ZX c #AFAFAF",
"AX c #144C00",
"SX c #DADADA",
"DX c #072E00",
"FX c #D1D0D0",
"GX c #113C01",
"HX c #CDCDCD",
"JX c #374E33",
"KX c #BFBDBD",
/* pixels */
"o o o o o o o o o o o o o o o o o o o o o o o o o o ",
"X X X X X X X X X X X X X X X X X X X X X X X X X X ",
"                                                    ",
"+ + + + + + + + + + + + + + + + + + + + + + + + + + ",
"@ @ @ @ @ @ @ @ @ @ @ @ @ P d d .X@ @ @ @ @ @ @ @ @ ",
"$ $ $ $ $ $ $ $ $ $ wX3Xv 4 4 4 4 D Y HX$ $ $ $ $ $ ",
"& & & & & & & & & ,Xq j j #X*.9 p.t.V l C.& & & & & ",
"* * * * * * * * F N N gX;XsXvXo.k.>.bXQ KX{.* * * * ",
"; ; ; ; ; ; ; ! b b h.8 zXj.n k 3.%X5.S 1X<.+X; ; ; ",
", , , , , , g.Z 4X^.8 VX6XMXU.;.x s.^ r. .F.t , , , ",
"6 6 6 6 6 6 -.%.*Xi.U AXK f.XXr lXx @Xl.u u hX; 6 6 ",
"< < < < < < (./ >X8 n jXr n.' 1.r M c.xXc s s =X< < ",
"7 7 7 7 7 t g g /._.f OX<X$.iXR pXL.G.[ y > c 0 7 7 ",
"> > > > > FXh h @.DXk H.W a a $X|.~ fXuXx.y 0 0 > > ",
"5 5 5 5 5 $ q q e.d.a.9.E tXB E.J.G w.JX0.A i t 5 5 ",
"3 3 3 3 3 z v 9 9 I 8 S.[.Y.M GX~.,.).2.y i W.C 3 3 ",
"2 2 2 2 2 2 !.m m ) _ BXL 0XR.f -X8 m.4.> p p 3 2 2 ",
"1 1 1 1 1 1 ZX4 4 4 =.u.8XqXv.&XNXX.yXnX( D.Z.$ 1 1 ",
": : : : : : : w e e 4 kXmX8.}.] ` { y.SXu 5 2X: : : ",
"- - - - - - - 6.I.e &.| eXT +.P.K.q.CXQ.& z - - - - ",
"= = = = = = = = ..w 7.w A.l z.'.aXb.J cXT.H = = = = ",
"% % % % % % % % % B.M.} O.:.oXV.7XrXdX:X% % % % % % ",
"# # # # # # # # # # # #. XN.9X`.5X].# # # # # # # # ",
"O O O O O O O O O O O O O O O O O O O O O O O O O O ",
". . . . . . . . . . . . . . . . . . . . . . . . . . "
};
