/* XPM */
static char *maximize_toggled_pressed[] = {
/* columns rows colors chars-per-pixel */
"26 25 256 2 ",
"   c #B23710",
".  c #8B1D07",
"X  c #EAE9E2",
"o  c #B9B9B9",
"O  c #A9A9A9",
"+  c #9B9B9B",
"@  c #E3E2DC",
"#  c gray54",
"$  c #C5C5C5",
"%  c #DADAD6",
"&  c gray81",
"*  c #D9D8D8",
"=  c #D2D2D0",
"-  c #E2E2E1",
";  c #CCCCCB",
":  c #EAE9E8",
">  c #CACACA",
",  c #CBCBCB",
"<  c #EDECEB",
"1  c #E1E0E0",
"2  c gray84",
"3  c #727272",
"4  c #E9E8E7",
"5  c #D2D2D2",
"6  c #CECECE",
"7  c gray86",
"8  c #ECEBEA",
"9  c #E5E4E4",
"0  c gray44",
"q  c gray100",
"w  c #777777",
"e  c #848484",
"r  c #DFDEDE",
"t  c #E2E1E1",
"y  c #E3E2E2",
"u  c #DBDADA",
"i  c gray45",
"p  c #98250A",
"a  c #E0DFDF",
"s  c gray49",
"d  c #7A7979",
"f  c #795E5A",
"g  c #E1E1E1",
"h  c gray46",
"j  c gray48",
"k  c gray83",
"l  c #767676",
"z  c #DFDEDD",
"x  c #B4B4B4",
"c  c #DFDFDF",
"v  c #BD3B11",
"b  c #76514C",
"n  c #AAA9A9",
"m  c #7B7B7B",
"M  c #797979",
"N  c #961E07",
"B  c #CBCBCA",
"V  c #DEDDDD",
"C  c #911D07",
"Z  c #B28D87",
"A  c #8D8C8C",
"S  c #DF5D1F",
"D  c #FBD7C4",
"F  c #E2E2E2",
"G  c #7D7D7C",
"H  c #761D0C",
"J  c #811B06",
"K  c #951F07",
"L  c #BDBCBB",
"P  c #75625F",
"I  c #D8511A",
"U  c #F6DBD1",
"Y  c #7F1805",
"T  c #A68A86",
"R  c #D1D1CF",
"E  c #C84515",
"W  c gainsboro",
"Q  c #B1908C",
"!  c #C8C6C6",
"~  c #D65526",
"^  c #803529",
"/  c #CD4D18",
"(  c #747473",
")  c #ADACAB",
"_  c #DA4C17",
"`  c gray87",
"'  c #90605A",
"]  c #D5D4D3",
"[  c #D8D8D4",
"{  c #C93F12",
"}  c #717171",
"|  c #898887",
" . c #A9A9A7",
".. c #A9300D",
"X. c #DC8564",
"o. c #D5D4D4",
"O. c #C4C3C0",
"+. c #D7D5D5",
"@. c #E4E3E2",
"#. c #C8C7C5",
"$. c #F89E64",
"%. c #B2B1B1",
"&. c #891C06",
"*. c #741B0D",
"=. c #B8320E",
"-. c #CDCDCC",
";. c gray47",
":. c #B2300D",
">. c #FBE0D2",
",. c #F88F3E",
"<. c #D4D4D2",
"1. c gray82",
"2. c #7A1F0C",
"3. c #874035",
"4. c #BB3A11",
"5. c #7D1A06",
"6. c #A6A5A5",
"7. c #DCDBDA",
"8. c #D6D5D5",
"9. c #D0CFCE",
"0. c #C54415",
"q. c #B5B4B3",
"w. c #A12C0C",
"e. c #A5290B",
"r. c #741C0D",
"t. c #8E2309",
"y. c #A72C0C",
"u. c #831B06",
"i. c #761707",
"p. c #761906",
"a. c #D7D6D6",
"s. c #90807E",
"d. c #7E1705",
"f. c #D2D1D1",
"g. c #766562",
"h. c #F2A179",
"j. c #C0360F",
"k. c #7D7A79",
"l. c #D5CDCD",
"z. c #9F6C62",
"x. c #DADADA",
"c. c #BDBBBB",
"v. c #DBDBDA",
"b. c #A22B0B",
"n. c #C3C2C2",
"m. c #9F9F9E",
"M. c #C1C1BE",
"N. c #74372D",
"B. c #77392D",
"V. c #7F3021",
"C. c gray88",
"Z. c #96270A",
"A. c #D4D3D2",
"S. c #9D2B0C",
"D. c #863F33",
"F. c #9C9A9A",
"G. c #8D8584",
"H. c #8C4B41",
"J. c #767575",
"K. c #CABEBD",
"L. c #756C6B",
"P. c #BCBCBC",
"I. c #BFBDBD",
"U. c #F9B88D",
"Y. c gray",
"T. c #D3D2D1",
"R. c #D64A17",
"E. c #B32F0D",
"W. c #C33D12",
"Q. c #ACABAA",
"!. c #8A8989",
"~. c #725E5B",
"^. c #712315",
"/. c #73271B",
"(. c #F37427",
"). c #F47A2A",
"_. c #D8D8D8",
"`. c #888787",
"'. c #C0C0C0",
"]. c #A62F0D",
"[. c #9B9B9A",
"{. c #D1D0CD",
"}. c #992008",
"|. c #881905",
" X c #7E7E7D",
".X c #7F7E7E",
"XX c #E66020",
"oX c #FEEEE3",
"OX c #E76522",
"+X c #D5D5D5",
"@X c gray56",
"#X c #C5C3C3",
"$X c #E4E4E4",
"%X c #959595",
"&X c #E0DFDE",
"*X c #784C46",
"=X c #E1DFDE",
"-X c #791906",
";X c #D4D3D1",
":X c #EF7227",
">X c #B1B1B1",
",X c #B3B2B1",
"<X c #82392E",
"1X c #DD4F19",
"2X c #CCCBCA",
"3X c gray71",
"4X c #D4D2D2",
"5X c #E25F29",
"6X c #D4D3D3",
"7X c #BD330E",
"8X c #CDCCCC",
"9X c #C7C6C5",
"0X c #CDCDCD",
"qX c #797878",
"wX c #818180",
"eX c #838282",
"rX c #DDDDDD",
"tX c #B5330E",
"yX c #AD2B0B",
"uX c #AC2F0D",
"iX c #FBE1D3",
"pX c #CD4A17",
"aX c #CF4816",
"sX c #EE9F79",
"dX c #D1D0D0",
"fX c #D0D0CF",
"gX c #791B08",
"hX c #9B260A",
"jX c #CDCBCB",
"kX c #884336",
"lX c #C8C7C7",
"zX c #E35F1F",
"xX c #CC3F12",
"cX c #F9CBB5",
"vX c #7F1B06",
"bX c gray65",
"nX c #E4E3E3",
"mX c #DCDBDB",
"MX c #CA4615",
"NX c #D4D4D0",
"BX c #D45019",
"VX c #D0CFCF",
"CX c #C34415",
"ZX c #AFAFAF",
"AX c #A32C0C",
"SX c #831C06",
"DX c #979796",
"FX c #BEBEBD",
"GX c #A7290B",
"HX c #76514B",
"JX c #921F07",
"KX c #792312",
"LX c #8C2309",
"PX c #DE5D1F",
"IX c #A62D0C",
"UX c #E7E6E5",
/* pixels */
"# # # # # # # # # # # # # # # # # # # # # # # # # # ",
"+ + + + + + + + + + + + + + + + + + + + + + + + + + ",
"O O O O O O O O O O O O O O O O O O O O O O O O O O ",
"o o o o o o o o o o o o o o o o o o o o o o o o o o ",
"$ $ $ $ $ $ $ $ $ $ $ $ $ 3Xx x P.$ $ $ $ $ $ $ $ $ ",
"& & & & & & & & & & '.%XM 3 3 3 3 !.>X0X& & & & & & ",
"* * * * * * * * * bXw l l L.P J.qX`.DXn VX* * * * * ",
"- - - - - - - - m.j j b ^.-X5.p.B.s.6.,XI.v.- - - - ",
": : : : : : : q.s s N.vXp IX..w.t.H T #XjXT.UX: : : ",
"< < < < < < &XwX.X*XJ b.4.MXpX0.  Z.KXK.] +.r < < < ",
"8 8 8 8 8 8 )  Xk.r.hXv BXzXOXS /   LXz.u u 7.: 8 8 ",
"4 4 4 4 4 4 | G f u.uXaXXX(.).:XPXCXS.V.a z z @.4 4 ",
"9 9 9 9 9 r m m HX. tXU iX$.,.U.q X.].gXy 1 a t 9 9 ",
"1 1 1 1 1 dXd d b &.:.~ >.q oXq sXE AX2.nXy t t 1 1 ",
"7 7 7 7 7 & w w g.d.GX{ 5XcXD h.I v p kX$XF g r 7 7 ",
"2 2 2 2 2 k M h h /.JXE.xX_ 1XR.W.y.SXZ y g C.W 2 2 ",
"5 5 5 5 5 5 @Xi i ~.i.K yX7Xj.=.e.. D.=X1 c c 2 5 5 ",
"6 6 6 6 6 6 ZX3 3 3 f *.|.N }.C Y 3.l.` V rXmX& 6 6 ",
", , , , , , , e 0 0 3 G.' <X^ H.Q +X_.x.u 7 1., , , ",
"> > > > > > > Y.;.0 } eXF.%.n.lX8Xf.o.a.* k > > > > ",
"; ; ; ; ; ; ; ; FXe ( e DXn L 9XB 9.4X8.6X-.; ; ; ; ",
"= = = = = = = = = R  .A [.Q.c.! 2XfXA.<.= = = = = = ",
"% % % % % % % % % % % NXO.M.#.{.;X[ % % % % % % % % ",
"@ @ @ @ @ @ @ @ @ @ @ @ @ @ @ @ @ @ @ @ @ @ @ @ @ @ ",
"X X X X X X X X X X X X X X X X X X X X X X X X X X "
};
