/* XPM */
static char *maximize_active[] = {
/* columns rows colors chars-per-pixel */
"26 25 97 2 ",
"   c #385F09",
".  c #3B5F11",
"X  c #376102",
"o  c #3A6503",
"O  c #3C6B01",
"+  c #37600A",
"@  c #3E650C",
"#  c #3F7001",
"$  c #3F6119",
"%  c #447401",
"&  c #467B01",
"*  c #4C7E01",
"=  c #537C01",
"-  c #4A6D1C",
";  c #4A6523",
":  c #4C6E27",
">  c #4A652B",
",  c #4C682B",
"<  c #577523",
"1  c #50712D",
"2  c #577632",
"3  c #587833",
"4  c #617934",
"5  c #5A6D44",
"6  c #5D6D4B",
"7  c #5F7D40",
"8  c #646D5B",
"9  c #667359",
"0  c #68705E",
"q  c #6A7262",
"w  c #6F736B",
"e  c #737373",
"r  c #7B7B7B",
"t  c #4D8101",
"y  c #518601",
"u  c #588401",
"i  c #548A01",
"p  c #588E01",
"a  c #599201",
"s  c #5F9901",
"d  c #609301",
"f  c #639D01",
"g  c #769C01",
"h  c #64A201",
"j  c #6CA201",
"k  c #73AB02",
"l  c #77B202",
"z  c #79B202",
"x  c #7FB902",
"c  c #748B34",
"v  c #7A9234",
"b  c #6C8345",
"n  c #6F8459",
"m  c #7C935F",
"M  c #8FB202",
"N  c #98B603",
"B  c #889935",
"V  c #91C602",
"C  c #93CA02",
"Z  c #9DD002",
"A  c #A2CA02",
"S  c #868C7D",
"D  c #A4B478",
"F  c #B3BD78",
"G  c #838383",
"H  c #888787",
"J  c #888986",
"K  c #8A8A8A",
"L  c #949E85",
"P  c #969696",
"I  c #9B9B9B",
"U  c #99A986",
"Y  c #9BA88B",
"T  c #B1BF99",
"R  c #A6A6A6",
"E  c #A9A9A7",
"W  c #A9A9A9",
"Q  c #B3B3B3",
"!  c #BABABA",
"~  c #BAC799",
"^  c #C2C3BE",
"/  c #D1D9BB",
"(  c #C5C5C4",
")  c #C8C7C6",
"_  c #CDCDCC",
"`  c #D0CFCF",
"'  c #D1D1CE",
"]  c #D3D3D2",
"[  c #DADAD6",
"{  c #DBDBDA",
"}  c #E0DFDF",
"|  c #E3E2DC",
" . c #E3E2E2",
".. c #EAE9E3",
"X. c #ECEBEA",
"o. c #F4F5EE",
"O. c gray100",
/* pixels */
"K K K K K K K K K K K K K K K K H K K K K K K K K K ",
"I I I I I I I I I I I I I I I P I I I I I I I P I I ",
"W W E E W W W W W W R W W R W W W R W W W W W W W W ",
"! ! ! ! ! ! ! ! ! ! ! ! ! ! ! ! ! ! ! ! ! ! ! ! ! ! ",
"( ( ( ( ( ( ( ( ( ( ( ( ( Q Q Q ! ( ( ( ( ( ( ( ( ( ",
"_ _ ` _ ` ` _ _ ` ` ! P r e e e e J Q _ ` ` ` _ _ _ ",
"{ [ [ [ { { { { { R e r r w 8 e r H P W ` { { [ { [ ",
" . . . . . .} } I r r 6 . X X + , J R Q ! {  .}  . .",
"X.X.X.X.X.X.X.Q r G > O t i p y & + L ( _ ] ..X.X.X.",
"X.X.X.X.X.X.{ G r 5 O y h k l k d * @ ^ ] ] } X.X.X.",
"X.X.X.X.X.X.W G r + t h x C Z V z f % m } [ { X.X.X.",
"X.X. .X.X.X.H r 9 # a l V M N Z V j y - } } } | X.X.",
" . . .X. .} r r 6 % d k g F F B g l p o  .} }  .}  .",
"} }  .}  .` r r 6 % u u ~ O.O.o.c u i @  . . .} | } ",
"{ { { { { ` e r q o o T o.D v / o.3 # 3  . . .} { { ",
"{ { ] ] [ ] r e e $ # 7 < d j = b : o Y  . .} { [ [ ",
"_ ] ` ] ] ] K e e 8 X O y f h s & O 2 { } }  .[ ] ] ",
"_ _ _ _ _ _ Q e e e 8   O & & % o 3 ] { } { { ` _ ' ",
"_ _ ( _ _ _ _ G e e e J n 1 : 4 Y ] { { { { ` _ _ ) ",
"_ _ _ _ _ _ _ ! e w e G I Q ( ( _ ] ] [ { ` _ _ _ ) ",
"_ _ _ _ _ _ _ _ ^ S e G I E ^ ) _ ` ] [ ` _ _ _ _ _ ",
"' ] ' ] _ _ ] ` ] ' R K I E ! ) _ ` ] ] ` ] ] ` ' ' ",
"[ [ [ [ [ [ { [ [ [ [ ] ^ ^ ^ ' ] ] [ [ [ [ [ [ [ [ ",
"| | | | | | } } | | | | | | | | | | | | | | | } | | ",
"..........................| ........................"
};
