/* XPM */
static char *maximize_toggled_prelight[] = {
/* columns rows colors chars-per-pixel */
"26 25 255 2 ",
"   c #A9A9A9",
".  c #9B9B9B",
"X  c gray54",
"o  c #EAE9E2",
"O  c #E3E2DC",
"+  c #B9B9B9",
"@  c #C5C5C5",
"#  c #DADAD6",
"$  c gray81",
"%  c #D2D2D0",
"&  c #D9D8D8",
"*  c #CCCCCB",
"=  c #E2E2E1",
"-  c #EAE9E8",
";  c #CACACA",
":  c #CBCBCB",
">  c #EDECEB",
",  c #E1E0E0",
"<  c #E9E8E7",
"1  c gray84",
"2  c #D2D2D2",
"3  c #CECECE",
"4  c #727272",
"5  c gray86",
"6  c #ECEBEA",
"7  c #E5E4E4",
"8  c gray46",
"9  c #E2E1E1",
"0  c #777777",
"q  c #848484",
"w  c #DFDEDE",
"e  c gray100",
"r  c gray44",
"t  c #E3E2E2",
"y  c #DBDADA",
"u  c #072C00",
"i  c #7A7979",
"p  c #D0D8CC",
"a  c #134700",
"s  c #E1E1E1",
"d  c #767676",
"f  c #B4B4B4",
"g  c gray48",
"h  c #7B7B7B",
"j  c gray83",
"k  c #144C00",
"l  c #E0DFDF",
"z  c #0B3700",
"x  c gray45",
"c  c #DFDFDF",
"v  c #797979",
"b  c #DFDEDD",
"n  c #AAA9A9",
"m  c gray49",
"M  c #0E3E00",
"N  c #D4D4D2",
"B  c #E0DFDE",
"V  c #374E33",
"C  c gainsboro",
"Z  c #DDDDDD",
"A  c #838282",
"S  c #DCDBDA",
"D  c #8D968B",
"F  c #0C3C00",
"G  c #E2E2E2",
"H  c #CDCDCD",
"J  c #CDCDCC",
"K  c #143A01",
"L  c #797878",
"P  c #103801",
"I  c #0E2B09",
"U  c #134900",
"Y  c #E4E3E3",
"T  c #1D5E01",
"R  c #083200",
"E  c #1A5901",
"W  c #072E00",
"Q  c #246901",
"!  c #0C3D00",
"~  c #B2B1B1",
"^  c #5A635A",
"/  c #104700",
"(  c #475444",
")  c #123E01",
"_  c #7D7D7C",
"`  c #204312",
"'  c #425740",
"]  c #276F01",
"[  c #2F5812",
"{  c #E4E4E4",
"}  c #D5D5D5",
"|  c #D5D4D4",
" . c #9C9A9A",
".. c #0A2C00",
"X. c gray56",
"o. c #7F7E7E",
"O. c #DFDFDE",
"+. c #1C5A01",
"@. c #0E3C00",
"#. c #9B9B9A",
"$. c #CECFCC",
"%. c #223E1C",
"&. c #747473",
"*. c #092B03",
"=. c #0F4300",
"-. c #878F85",
";. c #0D4000",
":. c #CFD6CC",
">. c #C5C3C3",
",. c #2E432B",
"<. c #072901",
"1. c #8A8989",
"2. c #4C584B",
"3. c #858684",
"4. c #728967",
"5. c #9F9F9E",
"6. c #276601",
"7. c #879486",
"8. c #185301",
"9. c #626862",
"0. c #BEBEBD",
"q. c #30472D",
"w. c #123C01",
"e. c #E7E6E5",
"r. c #8D8C8C",
"t. c #63745F",
"y. c #A6A5A5",
"u. c #D2D1D1",
"i. c #5A6959",
"p. c #124300",
"a. c #D1D0D0",
"s. c #0E3D00",
"d. c #0D2D06",
"f. c #0C3700",
"g. c #062900",
"h. c #124001",
"j. c #0D3600",
"k. c #898887",
"l. c #154E00",
"z. c #144B00",
"x. c #174501",
"c. c #979796",
"v. c #082D00",
"b. c #082F00",
"n. c #4D584B",
"m. c #C1CCBB",
"M. c #D1D1CF",
"N. c #0A3300",
"B. c #072900",
"V. c #D6D5D5",
"C. c #093400",
"Z. c #E4E3E2",
"A. c #C3C2C2",
"S. c #062A00",
"D. c #6B6E6B",
"F. c gray65",
"G. c #0D3D00",
"H. c #7A7B79",
"J. c #DBDBDA",
"K. c #114A00",
"L. c #CBCBCA",
"P. c gray47",
"I. c #D7D5D5",
"U. c #0B3400",
"Y. c #CDCCCC",
"T. c #D0CFCF",
"R. c #D4D3D2",
"E. c #5E7556",
"W. c gray82",
"Q. c #083300",
"!. c #D0CFCE",
"~. c #717171",
"^. c #C1C1BE",
"/. c #D4D3D1",
"(. c #5F655E",
"). c #A9A9A7",
"_. c #B5B4B3",
"`. c #DEDDDD",
"'. c #1C3519",
"]. c #195501",
"[. c #CDCBCB",
"{. c #C0C0C0",
"}. c #D4D4D0",
"|. c #D8D8D8",
" X c #093300",
".X c #154A01",
"XX c #163011",
"oX c #5B6359",
"OX c #BFC0BD",
"+X c #ADACAB",
"@X c #888787",
"#X c #BFBDBD",
"$X c #317D01",
"%X c #D5D4D3",
"&X c #0E3F00",
"*X c #5B625B",
"=X c #DADADA",
"-X c #0C3900",
";X c #062C00",
":X c #256B01",
">X c #2D422B",
",X c #BDBCBB",
"<X c #344C31",
"1X c #C8C6C6",
"2X c #7F837D",
"3X c #738A67",
"4X c #C8C7C5",
"5X c #364D33",
"6X c #0C3800",
"7X c #DCDBDB",
"8X c #D4D3D3",
"9X c #D4D2D2",
"0X c #ACABAA",
"qX c #225A01",
"wX c #D7D6D6",
"eX c #7E7E7D",
"rX c #4B574A",
"tX c #D8D8D4",
"yX c #C4C3C0",
"uX c #597845",
"iX c #B1BEAA",
"pX c #082804",
"aX c #BCBCBC",
"sX c #13310C",
"dX c #D3D2D1",
"fX c #D0D0CF",
"gX c #083000",
"hX c #0C3600",
"jX c #072B00",
"kX c #154601",
"lX c #979696",
"zX c #0D2E07",
"xX c #C8C7C7",
"cX c #869D78",
"vX c #1E3F12",
"bX c #2A4227",
"nX c gray71",
"mX c gray",
"MX c #D1D0CD",
"NX c #B3B2B1",
"BX c #AFAFAF",
"VX c #CCCBCA",
"CX c #C7C6C5",
"ZX c #134101",
"AX c #104600",
"SX c #E1E6DD",
"DX c gray87",
"FX c #0F4100",
"GX c #0E2B0A",
"HX c #818180",
"JX c #083100",
"KX c #959595",
"LX c #BDBBBB",
"PX c gray88",
"IX c #B1B1B1",
/* pixels */
"X X X X X X X X X X X X X X X X X X X X X X X X X X ",
". . . . . . . . . . . . . . . . . . . . . . . . . . ",
"                                                    ",
"+ + + + + + + + + + + + + + + + + + + + + + + + + + ",
"@ @ @ @ @ @ @ @ @ @ @ @ @ nXf f aX@ @ @ @ @ @ @ @ @ ",
"$ $ $ $ $ $ $ $ $ $ {.KXv 4 4 4 4 1.IXH $ $ $ $ $ $ ",
"& & & & & & & & & F.0 d d D.(.8 L @XlXn T.& & & & & ",
"= = = = = = = = 5.g g 2.XXB.jX<.,.2Xy.NX#XJ.= = = = ",
"- - - - - - - _.m m >Xu z &XFXs.U.d.-.>.[.dXe.- - - ",
"> > > > > > B HXo.( u G.z.].E 8.a 6XsXOX%XI.w > > > ",
"6 6 6 6 6 6 +XeXH.I -Xk T :X] Q +.a N.t.y y S - 6 6 ",
"< < < < < < k._ oXu hXP x.6.$XqXK w.@.%.l b b Z.< < ",
"7 7 7 7 7 w h h rXgX..:.p uX[ cXe E.j.*.t , l 9 7 7 ",
", , , , , a.i i n.W f.vXp e SXe 4.) M zXY t 9 9 , , ",
"5 5 5 5 5 $ 0 0 9.g.! p.` iXm.3XkXk z V { G s w 5 5 ",
"1 1 1 1 1 j v 8 8 '.R =.U ZXh..Xl.M v.7.t s PXC 1 1 ",
"2 2 2 2 2 2 X.x x *XpX X;./ K.AXF b.<XO., c c 1 2 2 ",
"3 3 3 3 3 3 BX4 4 4 ^ GX;XQ.C.JXS.5X$.DX`.Z 7X$ 3 3 ",
": : : : : : : q r r 4 3.i.q.bX' D } |.=Xy 5 W.: : : ",
"; ; ; ; ; ; ; mXP.r ~.A  .~ A.xXY.u.| wX& j ; ; ; ; ",
"* * * * * * * * 0.q &.q c.n ,XCXL.!.9XV.8XJ * * * * ",
"% % % % % % % % % M.).r.#.0XLX1XVXfXR.N % % % % % % ",
"# # # # # # # # # # # }.yX^.4XMX/.tX# # # # # # # # ",
"O O O O O O O O O O O O O O O O O O O O O O O O O O ",
"o o o o o o o o o o o o o o o o o o o o o o o o o o "
};
