/* XPM */
static char *maximize_pressed[] = {
/* columns rows colors chars-per-pixel */
"26 25 256 2 ",
"   c #821B06",
".  c #961F07",
"X  c #B23710",
"o  c #8B1D07",
"O  c #E3E2DC",
"+  c #A9A9A9",
"@  c gray54",
"#  c #9B9B9B",
"$  c #EAE9E2",
"%  c #B9B9B9",
"&  c #C5C5C5",
"*  c #DADAD6",
"=  c gray81",
"-  c #D2D2D0",
";  c #D9D8D8",
":  c #E2E2E1",
">  c #CCCCCB",
",  c #EAE9E8",
"<  c #CACACA",
"1  c #CBCBCB",
"2  c #E1E0E0",
"3  c #EDECEB",
"4  c #E9E8E7",
"5  c gray86",
"6  c #ECEBEA",
"7  c gray84",
"8  c #CECECE",
"9  c #727272",
"0  c #D2D2D2",
"q  c #E5E4E4",
"w  c #777777",
"e  c #E3E2E2",
"r  c #DFDEDE",
"t  c gray44",
"y  c #848484",
"u  c #DBDADA",
"i  c #E2E1E1",
"p  c gray83",
"a  c gray100",
"s  c gray48",
"d  c #76514C",
"f  c gray45",
"g  c #E1E1E1",
"h  c gray46",
"j  c #7A7979",
"k  c #DFDFDF",
"l  c #767676",
"z  c #B4B4B4",
"x  c #797979",
"c  c #98250A",
"v  c gray49",
"b  c #AAA9A9",
"n  c #DFDEDD",
"m  c #795E5A",
"M  c #E0DFDF",
"N  c #7B7B7B",
"B  c #DF5D1F",
"V  c #921F07",
"C  c #D35932",
"Z  c #A68A86",
"A  c gray71",
"S  c #DEDDDD",
"D  c #BDBBBB",
"F  c #D0CFCF",
"G  c gray47",
"H  c #D1D0D0",
"J  c #DCDBDA",
"K  c #761906",
"L  c #A32C0C",
"P  c #8C2309",
"I  c #DE5D1F",
"U  c #838282",
"Y  c #9C9A9A",
"T  c #EB6722",
"R  c #DDDDDD",
"E  c #979696",
"W  c #F37427",
"Q  c #CBCBCA",
"!  c #AFAFAF",
"~  c #891C06",
"^  c #A9300D",
"/  c #C8C7C5",
"(  c #767575",
")  c #D8D8D4",
"_  c #898887",
"`  c #F5AC89",
"'  c #E4E4E4",
"]  c #BEBEBD",
"[  c #B1908C",
"{  c #9F6C62",
"}  c #E66020",
"|  c #F9D5C4",
" . c #B28D87",
".. c #E56421",
"X. c #CD4D18",
"o. c #AC2F0D",
"O. c #CA4817",
"+. c #797878",
"@. c #C4C3C0",
"#. c #75625F",
"$. c #E9B2A0",
"%. c #BD3B11",
"&. c #B3B2B1",
"*. c #7A1F0C",
"=. c #7E1705",
"-. c #BD330E",
";. c #CDCDCD",
":. c #CA4615",
">. c #874035",
",. c #B5330E",
"<. c #AD2B0B",
"1. c #CD4A17",
"2. c #D5D4D3",
"3. c #D1D1CF",
"4. c #CCCBCA",
"5. c #C8C6C6",
"6. c #7F1805",
"7. c #E4E3E2",
"8. c #C84515",
"9. c #D6D5D5",
"0. c #BB3A11",
"q. c #C54415",
"w. c #A7290B",
"e. c #A62D0C",
"r. c #A12C0C",
"t. c #76514B",
"y. c #761D0C",
"u. c gray82",
"i. c #C0360F",
"p. c #D45019",
"a. c #C7C6C5",
"s. c #8A8989",
"d. c #F2874F",
"f. c #F69555",
"g. c #D44C18",
"h. c #E35F1F",
"j. c #DD4F19",
"k. c gray",
"l. c #D7D6D6",
"z. c #BDBCBB",
"x. c #DADADA",
"c. c #DA4C17",
"v. c #DBDBDA",
"b. c #D37151",
"n. c #D5CDCD",
"m. c #C7664E",
"M. c #FBBF91",
"N. c #74372D",
"B. c #77392D",
"V. c #7F3021",
"C. c gray88",
"Z. c #96270A",
"A. c #747473",
"S. c #9D2B0C",
"D. c #A22B0B",
"F. c #B5B4B3",
"G. c #A6A5A5",
"H. c #7D7A79",
"J. c #8D8584",
"K. c #863F33",
"L. c #90605A",
"P. c #ACABAA",
"I. c #766562",
"U. c #FAB98E",
"Y. c #BCBCBC",
"T. c #EF7227",
"R. c #BFBDBD",
"E. c #CA6241",
"W. c #FCF3F0",
"Q. c #D3D2D1",
"!. c gray87",
"~. c #ADACAB",
"^. c #725E5B",
"/. c #712315",
"(. c #73271B",
"). c #792312",
"_. c #F47A2A",
"`. c #D4D4D0",
"'. c #D8D8D8",
"]. c #888787",
"[. c #C0C0C0",
"{. c #C3C2C2",
"}. c #9B9B9A",
"|. c #B3482C",
" X c #992008",
".X c #D64A17",
"XX c #7E7E7D",
"oX c #A9A9A7",
"OX c #D4D3D1",
"+X c #D2D1D1",
"@X c #D5D4D4",
"#X c #D5D5D5",
"$X c gray56",
"%X c #C5C3C3",
"&X c #FDF4F0",
"*X c #FEF6F1",
"=X c #959595",
"-X c #E0DFDE",
";X c #CDCCCC",
":X c #E1DFDE",
">X c #791906",
",X c #E7E6E5",
"<X c #B1B1B1",
"1X c #756C6B",
"2X c #B2B1B1",
"3X c #82392E",
"4X c #881905",
"5X c #784C46",
"6X c #8D8C8C",
"7X c #D4D2D2",
"8X c #D4D3D3",
"9X c #90807E",
"0X c #B8320E",
"qX c #C1C1BE",
"wX c #CDCDCC",
"eX c #E87F4C",
"rX c #E2E2E2",
"tX c #818180",
"yX c gainsboro",
"uX c #8C4B41",
"iX c #B2300D",
"pX c #D34916",
"aX c #717171",
"sX c #F6C0A6",
"dX c #E76522",
"fX c #CF4816",
"gX c #D4D4D2",
"hX c #803529",
"jX c #D0D0CF",
"kX c #791B08",
"lX c #9B260A",
"zX c #CDCBCB",
"xX c #884336",
"cX c #C8C7C7",
"vX c #7D1A06",
"bX c #7F1B06",
"nX c gray65",
"mX c #E4E3E3",
"MX c #DCDBDB",
"NX c #9F9F9E",
"BX c #D7D5D5",
"VX c #D0CFCE",
"CX c #741B0D",
"ZX c #D1D0CD",
"AX c #C34415",
"SX c #7D7D7C",
"DX c #CABEBD",
"FX c #761707",
"GX c #831C06",
"HX c #A62F0D",
"JX c #979796",
"KX c #A5290B",
"LX c #7F7E7E",
"PX c #911D07",
"IX c #741C0D",
"UX c #8E2309",
/* pixels */
"@ @ @ @ @ @ @ @ @ @ @ @ @ @ @ @ @ @ @ @ @ @ @ @ @ @ ",
"# # # # # # # # # # # # # # # # # # # # # # # # # # ",
"+ + + + + + + + + + + + + + + + + + + + + + + + + + ",
"% % % % % % % % % % % % % % % % % % % % % % % % % % ",
"& & & & & & & & & & & & & A z z Y.& & & & & & & & & ",
"= = = = = = = = = = [.=Xx 9 9 9 9 s.<X;.= = = = = = ",
"; ; ; ; ; ; ; ; ; nXw l l 1X#.( +.].E b F ; ; ; ; ; ",
": : : : : : : : NXs s d /.>XvXK B.9XG.&.R.v.: : : : ",
", , , , , , , F.v v N.bXc e.^ r.UXy.Z %XzXQ.,X, , , ",
"3 3 3 3 3 3 -XtXLX5X  D.0.:.1.q.X Z.).DX2.BXr 3 3 3 ",
"6 6 6 6 6 6 ~.XXH.IXlX%.p.h.dXB X.X P { u u J , 6 6 ",
"4 4 4 4 4 4 _ SXm   o.fX} W _.T.I AXS.V.M n n 7.4 4 ",
"q q q q q r N N t.o ,.g.T U.M.f...O.HXkXe 2 M i q q ",
"2 2 2 2 2 H j j d ~ iXpXsXa a *XeX8.L *.mXe i i 2 2 ",
"5 5 5 5 5 = w w I.=.w.$.&X` d.| W.E.c xX' rXg r 5 5 ",
"7 7 7 7 7 p x h h (.V m.C c.j..Xb.|.GX .e g C.yX7 7 ",
"0 0 0 0 0 0 $Xf f ^.FX. <.-.i.0XKXo K.:X2 k k 7 0 0 ",
"8 8 8 8 8 8 ! 9 9 9 m CX4X.  XPX6.>.n.!.S R MX= 8 8 ",
"1 1 1 1 1 1 1 y t t 9 J.L.3XhXuX[ #X'.x.u 5 u.1 1 1 ",
"< < < < < < < k.G t aXU Y 2X{.cX;X+X@Xl.; p < < < < ",
"> > > > > > > > ] y A.y JXb z.a.Q VX7X9.8XwX> > > > ",
"- - - - - - - - - 3.oX6X}.P.D 5.4.jXOXgX- - - - - - ",
"* * * * * * * * * * * `.@.qX/ ZXOX) * * * * * * * * ",
"O O O O O O O O O O O O O O O O O O O O O O O O O O ",
"$ $ $ $ $ $ $ $ $ $ $ $ $ $ $ $ $ $ $ $ $ $ $ $ $ $ "
};
