/* XPM */
static char *top_right_active[] = {
/* columns rows colors chars-per-pixel */
"12 25 26 1 ",
"  c gray54",
". c #9B9B9B",
"X c #A9A9A9",
"o c #B9B9B9",
"O c #C5C5C5",
"+ c #CACACA",
"@ c #CBCBCB",
"# c #CCCCCB",
"$ c #CECECE",
"% c gray81",
"& c #D2D2D0",
"* c #D2D2D2",
"= c gray84",
"- c #DADAD6",
"; c #D9D8D8",
": c gray86",
"> c #E3E2DC",
", c #E1E0E0",
"< c #E2E2E1",
"1 c #E5E4E4",
"2 c #EAE9E2",
"3 c #E9E8E7",
"4 c #EAE9E8",
"5 c #ECEBEA",
"6 c #EDECEB",
"7 c None",
/* pixels */
"          77",
"...........7",
"XXXXXXXXXXXX",
"oooooooooooo",
"OOOOOOOOOOOO",
"%%%%%%%%%%%%",
";;;;;;;;;;;;",
"<<<<<<<<<<<<",
"444444444444",
"666666666666",
"555555555555",
"333333333333",
"111111111111",
",,,,,,,,,,<<",
"::::::::::;:",
"============",
"*****%*****%",
"%%%%%%%%%%%%",
"++@@@++++##+",
"++++++++++++",
"############",
"&&&&*&&&&&&&",
"------------",
">>>>>>>>>>>>",
"222222222222"
};
