/* XPM */
static char *top_left_inactive[] = {
/* columns rows colors chars-per-pixel */
"13 25 29 1 ",
"  c gray54",
". c #9B9B9B",
"X c #A9A9A9",
"o c #B9B9B9",
"O c #C5C5C5",
"+ c #C6C6C6",
"@ c #CACACA",
"# c #CBCBCB",
"$ c #CCCCCB",
"% c #CECECE",
"& c gray81",
"* c #D2D2D0",
"= c #D2D2D2",
"- c gray84",
"; c #DADAD6",
": c #D9D8D8",
"> c gray86",
", c gray87",
"< c #E3E2DC",
"1 c #E1E0E0",
"2 c #E2E2E1",
"3 c #E3E3E2",
"4 c #E5E4E4",
"5 c #EAE9E2",
"6 c #E9E8E7",
"7 c #EAE9E8",
"8 c #ECEBEA",
"9 c #EDECEB",
"0 c None",
/* pixels */
"00           ",
"0............",
"XXXXXXXXXXXXX",
"ooooooooooooo",
"OOOOOOOOOOOOO",
"%*&%&&%%&%%%&",
",::-:::-:::::",
"3333333333333",
"7776777767677",
"9999999999999",
"9799977997999",
"6666666666666",
"4444444444444",
"1111111111111",
">>>>>>>>>>>>>",
"-------------",
"*=*==*==****=",
"%&%%&&%&%%&&&",
"#############",
"@@@@@@@@@@@@#",
"$$######$$$$$",
"*************",
";;;;;;>;;;;;;",
"<<<<<<<<<<<<<",
"5555555555555"
};
